<svg class="railroad-diagram" viewBox="0 0 1364.5 647.0" width="1364.5" height="647.0" xmlns="http://www.w3.org/2000/svg" xmlns:xlink="http://www.w3.org/1999/xlink"><g transform="translate(0, 0)"><g transform="translate(.5 .5)">
<g>
<path d="M20 21v20m10 -20v20m-10 -10h129.0" /><text style="text-anchor:start" x="20" y="16">fulltext index</text></g><g>
<path d="M149.0 31h0.0" /><path d="M1324.5 31h0.0" /><path d="M149.0 31h20" /><g>
<path d="M169.0 31h0.0" /><path d="M1304.5 31h0.0" /><g class="terminal ">
<path d="M169.0 31h0.0" /><path d="M257.0 31h0.0" /><rect height="22" rx="10" ry="10" width="88" x="169" y="20"></rect><text x="213" y="35">FULLTEXT</text></g><path d="M257.0 31h10" /><path d="M267.0 31h10" /><g class="non-terminal ">
<path d="M277.0 31h0.0" /><path d="M399.0 31h0.0" /><rect height="22" width="122" x="277" y="20"></rect><text x="338" y="35">index prefix</text><title>index prefix</title></g><path d="M399.0 31h10" /><path d="M409.0 31h10" /><g class="terminal ">
<path d="M419.0 31h0.0" /><path d="M464.5 31h0.0" /><rect height="22" rx="10" ry="10" width="45.5" x="419" y="20"></rect><text x="441.75" y="35">FOR</text></g><path d="M464.5 31h10" /><path d="M474.5 31h10" /><g>
<path d="M484.5 31h0.0" /><path d="M842.0 31h0.0" /><g>
<path d="M484.5 31h0.0" /><path d="M842.0 31h0.0" /><path d="M484.5 31h20" /><g>
<path d="M504.5 31h34.0" /><path d="M788.0 31h34.0" /><g class="non-terminal ">
<path d="M538.5 31h0.0" /><path d="M788.0 31h0.0" /><rect height="22" width="249.5" x="538.5" y="20"></rect><text x="663.25" y="35">fulltext index node pattern</text><title>fulltext index node pattern</title></g></g><path d="M822.0 31h20" /><path d="M484.5 31a10 10 0 0 1 10 10v10a10 10 0 0 0 10 10" /><g>
<path d="M504.5 61h0.0" /><path d="M822.0 61h0.0" /><g class="non-terminal ">
<path d="M504.5 61h0.0" /><path d="M822.0 61h0.0" /><rect height="22" width="317.5" x="504.5" y="50"></rect><text x="663.25" y="65">fulltext index relationship pattern</text><title>fulltext index relationship pattern</title></g></g><path d="M822.0 61a10 10 0 0 0 10 -10v-10a10 10 0 0 1 10 -10" /></g></g><path d="M842.0 31h10" /><path d="M852.0 31h10" /><g class="terminal ">
<path d="M862.0 31h0.0" /><path d="M941.5 31h0.0" /><rect height="22" rx="10" ry="10" width="79.5" x="862" y="20"></rect><text x="901.75" y="35">ON EACH</text></g><path d="M941.5 31h10" /><path d="M951.5 31h10" /><g class="non-terminal ">
<path d="M961.5 31h0.0" /><path d="M1304.5 31h0.0" /><rect height="22" width="343" x="961.5" y="20"></rect><text x="1133" y="35">bracketed property names specification</text><title>bracketed property names specification</title></g></g><path d="M1304.5 31h20" /></g><path d="M 1324.5 31 h 20 m -10 -10 v 20 m 10 -20 v 20"></path></g></g>
<g transform="translate(0, 92.0)"><g transform="translate(.5 .5)">
<g>
<path d="M20 30v20m10 -20v20m-10 -10h333.0" /><text style="text-anchor:start" x="20" y="25">bracketed property names specification</text></g><g>
<path d="M353.0 40h0.0" /><path d="M1177.5 40h0.0" /><path d="M353.0 40h20" /><g>
<path d="M373.0 40h0.0" /><path d="M1157.5 40h0.0" /><g class="terminal ">
<path d="M373.0 40h0.0" /><path d="M401.5 40h0.0" /><rect height="22" rx="10" ry="10" width="28.5" x="373" y="29"></rect><text x="387.25" y="44">[</text></g><path d="M401.5 40h10" /><path d="M411.5 40h10" /><g class="non-terminal ">
<path d="M421.5 40h0.0" /><path d="M671.0 40h0.0" /><rect height="22" width="249.5" x="421.5" y="29"></rect><text x="546.25" y="44">property name specification</text><title>property name specification</title></g><path d="M671.0 40h10" /><g>
<path d="M681.0 40h0.0" /><path d="M1119.0 40h0.0" /><path d="M681.0 40a10 10 0 0 0 10 -10v0a10 10 0 0 1 10 -10" /><g>
<path d="M701.0 20h398.0" /></g><path d="M1099.0 20a10 10 0 0 1 10 10v0a10 10 0 0 0 10 10" /><path d="M681.0 40h20" /><g>
<path d="M701.0 40h0.0" /><path d="M1099.0 40h0.0" /><path d="M701.0 40h20" /><g>
<path d="M721.0 40h0.0" /><path d="M1079.0 40h0.0" /><g>
<path d="M721.0 40h0.0" /><path d="M1079.0 40h0.0" /><path d="M721.0 40h10" /><g>
<path d="M731.0 40h0.0" /><path d="M1069.0 40h0.0" /><g>
<path d="M731.0 40h0.0" /><path d="M1069.0 40h0.0" /><g>
<path d="M731.0 40h0.0" /><path d="M1069.0 40h0.0" /><path d="M731.0 40h20" /><g>
<path d="M751.0 40h0.0" /><path d="M1049.0 40h0.0" /><g class="terminal ">
<path d="M751.0 40h0.0" /><path d="M779.5 40h0.0" /><rect height="22" rx="10" ry="10" width="28.5" x="751" y="29"></rect><text x="765.25" y="44">,</text></g><path d="M779.5 40h10" /><path d="M789.5 40h10" /><g class="non-terminal ">
<path d="M799.5 40h0.0" /><path d="M1049.0 40h0.0" /><rect height="22" width="249.5" x="799.5" y="29"></rect><text x="924.25" y="44">property name specification</text><title>property name specification</title></g></g><path d="M1049.0 40h20" /></g></g></g><path d="M1069.0 40h10" /><path d="M731.0 40a10 10 0 0 0 -10 10v0a10 10 0 0 0 10 10" /><g>
<path d="M731.0 60h338.0" /></g><path d="M1069.0 60a10 10 0 0 0 10 -10v0a10 10 0 0 0 -10 -10" /></g></g><path d="M1079.0 40h20" /></g><path d="M1099.0 40h20" /></g><path d="M1119.0 40h10" /><g class="terminal ">
<path d="M1129.0 40h0.0" /><path d="M1157.5 40h0.0" /><rect height="22" rx="10" ry="10" width="28.5" x="1129" y="29"></rect><text x="1143.25" y="44">]</text></g></g><path d="M1157.5 40h20" /></g><path d="M 1177.5 40 h 20 m -10 -10 v 20 m 10 -20 v 20"></path></g></g>
<g transform="translate(0, 172.0)"><g transform="translate(.5 .5)">
<g>
<path d="M20 21v20m10 -20v20m-10 -10h239.5" /><text style="text-anchor:start" x="20" y="16">property name specification</text></g><g>
<path d="M259.5 31h0.0" /><path d="M654.5 31h0.0" /><path d="M259.5 31h20" /><g>
<path d="M279.5 31h0.0" /><path d="M634.5 31h0.0" /><g class="non-terminal ">
<path d="M279.5 31h0.0" /><path d="M435.5 31h0.0" /><rect height="22" width="156" x="279.5" y="20"></rect><text x="357.5" y="35">binding variable</text><title>binding variable</title></g><path d="M435.5 31h10" /><path d="M445.5 31h10" /><g class="terminal ">
<path d="M455.5 31h0.0" /><path d="M484.0 31h0.0" /><rect height="22" rx="10" ry="10" width="28.5" x="455.5" y="20"></rect><text x="469.75" y="35">.</text></g><path d="M484.0 31h10" /><path d="M494.0 31h10" /><g class="non-terminal ">
<path d="M504.0 31h0.0" /><path d="M634.5 31h0.0" /><rect height="22" width="130.5" x="504" y="20"></rect><text x="569.25" y="35">property name</text><title>property name</title></g></g><path d="M634.5 31h20" /></g><path d="M 654.5 31 h 20 m -10 -10 v 20 m 10 -20 v 20"></path></g></g>
<g transform="translate(0, 234.0)"><g transform="translate(.5 .5)">
<g>
<path d="M20 30v20m10 -20v20m-10 -10h112.0" /><text style="text-anchor:start" x="20" y="25">index prefix</text></g><g>
<path d="M132.0 40h0.0" /><path d="M784.5 40h0.0" /><path d="M132.0 40h20" /><g>
<path d="M152.0 40h0.0" /><path d="M764.5 40h0.0" /><g class="terminal ">
<path d="M152.0 40h0.0" /><path d="M214.5 40h0.0" /><rect height="22" rx="10" ry="10" width="62.5" x="152" y="29"></rect><text x="183.25" y="44">INDEX</text></g><path d="M214.5 40h10" /><g>
<path d="M224.5 40h0.0" /><path d="M554.0 40h0.0" /><path d="M224.5 40a10 10 0 0 0 10 -10v0a10 10 0 0 1 10 -10" /><g>
<path d="M244.5 20h289.5" /></g><path d="M534.0 20a10 10 0 0 1 10 10v0a10 10 0 0 0 10 10" /><path d="M224.5 40h20" /><g>
<path d="M244.5 40h0.0" /><path d="M534.0 40h0.0" /><path d="M244.5 40h20" /><g>
<path d="M264.5 40h72.25" /><path d="M441.75 40h72.25" /><g class="non-terminal ">
<path d="M336.75 40h0.0" /><path d="M441.75 40h0.0" /><rect height="22" width="105" x="336.75" y="29"></rect><text x="389.25" y="44">index name</text><title>index name</title></g></g><path d="M514.0 40h20" /><path d="M244.5 40a10 10 0 0 1 10 10v10a10 10 0 0 0 10 10" /><g>
<path d="M264.5 70h0.0" /><path d="M514.0 70h0.0" /><g class="non-terminal ">
<path d="M264.5 70h0.0" /><path d="M514.0 70h0.0" /><rect height="22" width="249.5" x="264.5" y="59"></rect><text x="389.25" y="74">general parameter reference</text><title>general parameter reference</title></g></g><path d="M514.0 70a10 10 0 0 0 10 -10v-10a10 10 0 0 1 10 -10" /></g><path d="M534.0 40h20" /></g><g>
<path d="M554.0 40h0.0" /><path d="M764.5 40h0.0" /><path d="M554.0 40a10 10 0 0 0 10 -10v0a10 10 0 0 1 10 -10" /><g>
<path d="M574.0 20h170.5" /></g><path d="M744.5 20a10 10 0 0 1 10 10v0a10 10 0 0 0 10 10" /><path d="M554.0 40h20" /><g>
<path d="M574.0 40h0.0" /><path d="M744.5 40h0.0" /><path d="M574.0 40h20" /><g>
<path d="M594.0 40h0.0" /><path d="M724.5 40h0.0" /><g class="terminal ">
<path d="M594.0 40h0.0" /><path d="M724.5 40h0.0" /><rect height="22" rx="10" ry="10" width="130.5" x="594" y="29"></rect><text x="659.25" y="44">IF NOT EXISTS</text></g></g><path d="M724.5 40h20" /></g><path d="M744.5 40h20" /></g></g><path d="M764.5 40h20" /></g><path d="M 784.5 40 h 20 m -10 -10 v 20 m 10 -20 v 20"></path></g></g>
<g transform="translate(0, 335.0)"><g transform="translate(.5 .5)">
<g>
<path d="M20 30v20m10 -20v20m-10 -10h239.5" /><text style="text-anchor:start" x="20" y="25">fulltext index node pattern</text></g><g>
<path d="M259.5 40h0.0" /><path d="M1019.5 40h0.0" /><path d="M259.5 40h20" /><g>
<path d="M279.5 40h0.0" /><path d="M999.5 40h0.0" /><g class="terminal ">
<path d="M279.5 40h0.0" /><path d="M308.0 40h0.0" /><rect height="22" rx="10" ry="10" width="28.5" x="279.5" y="29"></rect><text x="293.75" y="44">(</text></g><path d="M308.0 40h10" /><path d="M318.0 40h10" /><g class="non-terminal ">
<path d="M328.0 40h0.0" /><path d="M484.0 40h0.0" /><rect height="22" width="156" x="328" y="29"></rect><text x="406" y="44">binding variable</text><title>binding variable</title></g><path d="M484.0 40h10" /><path d="M494.0 40h10" /><g class="terminal ">
<path d="M504.0 40h0.0" /><path d="M532.5 40h0.0" /><rect height="22" rx="10" ry="10" width="28.5" x="504" y="29"></rect><text x="518.25" y="44">:</text></g><path d="M532.5 40h10" /><path d="M542.5 40h10" /><g class="non-terminal ">
<path d="M552.5 40h0.0" /><path d="M657.5 40h0.0" /><rect height="22" width="105" x="552.5" y="29"></rect><text x="605" y="44">label name</text><title>label name</title></g><path d="M657.5 40h10" /><g>
<path d="M667.5 40h0.0" /><path d="M961.0 40h0.0" /><path d="M667.5 40a10 10 0 0 0 10 -10v0a10 10 0 0 1 10 -10" /><g>
<path d="M687.5 20h253.5" /></g><path d="M941.0 20a10 10 0 0 1 10 10v0a10 10 0 0 0 10 10" /><path d="M667.5 40h20" /><g>
<path d="M687.5 40h0.0" /><path d="M941.0 40h0.0" /><path d="M687.5 40h20" /><g>
<path d="M707.5 40h0.0" /><path d="M921.0 40h0.0" /><g>
<path d="M707.5 40h0.0" /><path d="M921.0 40h0.0" /><path d="M707.5 40h10" /><g>
<path d="M717.5 40h0.0" /><path d="M911.0 40h0.0" /><g>
<path d="M717.5 40h0.0" /><path d="M911.0 40h0.0" /><g>
<path d="M717.5 40h0.0" /><path d="M911.0 40h0.0" /><path d="M717.5 40h20" /><g>
<path d="M737.5 40h0.0" /><path d="M891.0 40h0.0" /><g class="terminal ">
<path d="M737.5 40h0.0" /><path d="M766.0 40h0.0" /><rect height="22" rx="10" ry="10" width="28.5" x="737.5" y="29"></rect><text x="751.75" y="44">|</text></g><path d="M766.0 40h10" /><path d="M776.0 40h10" /><g class="non-terminal ">
<path d="M786.0 40h0.0" /><path d="M891.0 40h0.0" /><rect height="22" width="105" x="786" y="29"></rect><text x="838.5" y="44">label name</text><title>label name</title></g></g><path d="M891.0 40h20" /></g></g></g><path d="M911.0 40h10" /><path d="M717.5 40a10 10 0 0 0 -10 10v0a10 10 0 0 0 10 10" /><g>
<path d="M717.5 60h193.5" /></g><path d="M911.0 60a10 10 0 0 0 10 -10v0a10 10 0 0 0 -10 -10" /></g></g><path d="M921.0 40h20" /></g><path d="M941.0 40h20" /></g><path d="M961.0 40h10" /><g class="terminal ">
<path d="M971.0 40h0.0" /><path d="M999.5 40h0.0" /><rect height="22" rx="10" ry="10" width="28.5" x="971" y="29"></rect><text x="985.25" y="44">)</text></g></g><path d="M999.5 40h20" /></g><path d="M 1019.5 40 h 20 m -10 -10 v 20 m 10 -20 v 20"></path></g></g>
<g transform="translate(0, 415.0)"><g transform="translate(.5 .5)">
<g>
<path d="M20 21v20m10 -20v20m-10 -10h307.5" /><text style="text-anchor:start" x="20" y="16">fulltext index relationship pattern</text></g><g>
<path d="M327.5 31h0.0" /><path d="M910.5 31h0.0" /><path d="M327.5 31h20" /><g>
<path d="M347.5 31h0.0" /><path d="M890.5 31h0.0" /><g class="terminal ">
<path d="M347.5 31h0.0" /><path d="M384.5 31h0.0" /><rect height="22" rx="10" ry="10" width="37" x="347.5" y="20"></rect><text x="366" y="35">()</text></g><path d="M384.5 31h10" /><path d="M394.5 31h10" /><g>
<path d="M404.5 31h0.0" /><path d="M833.5 31h0.0" /><g>
<path d="M404.5 31h0.0" /><path d="M833.5 31h0.0" /><path d="M404.5 31h20" /><g>
<path d="M424.5 31h24.25" /><path d="M789.25 31h24.25" /><g class="terminal ">
<path d="M448.75 31h0.0" /><path d="M477.25 31h0.0" /><rect height="22" rx="10" ry="10" width="28.5" x="448.75" y="20"></rect><text x="463" y="35">&lt;</text></g><path d="M477.25 31h10" /><path d="M487.25 31h10" /><g class="non-terminal ">
<path d="M497.25 31h0.0" /><path d="M789.25 31h0.0" /><rect height="22" width="292" x="497.25" y="20"></rect><text x="643.25" y="35">fulltext index relationship body</text><title>fulltext index relationship body</title></g></g><path d="M813.5 31h20" /><path d="M404.5 31a10 10 0 0 1 10 10v10a10 10 0 0 0 10 10" /><g>
<path d="M424.5 61h24.25" /><path d="M789.25 61h24.25" /><g class="non-terminal ">
<path d="M448.75 61h0.0" /><path d="M740.75 61h0.0" /><rect height="22" width="292" x="448.75" y="50"></rect><text x="594.75" y="65">fulltext index relationship body</text><title>fulltext index relationship body</title></g><path d="M740.75 61h10" /><path d="M750.75 61h10" /><g class="terminal ">
<path d="M760.75 61h0.0" /><path d="M789.25 61h0.0" /><rect height="22" rx="10" ry="10" width="28.5" x="760.75" y="50"></rect><text x="775" y="65">></text></g></g><path d="M813.5 61a10 10 0 0 0 10 -10v-10a10 10 0 0 1 10 -10" /><path d="M404.5 31a10 10 0 0 1 10 10v40a10 10 0 0 0 10 10" /><g>
<path d="M424.5 91h0.0" /><path d="M813.5 91h0.0" /><g class="terminal ">
<path d="M424.5 91h0.0" /><path d="M453.0 91h0.0" /><rect height="22" rx="10" ry="10" width="28.5" x="424.5" y="80"></rect><text x="438.75" y="95">&lt;</text></g><path d="M453.0 91h10" /><path d="M463.0 91h10" /><g class="non-terminal ">
<path d="M473.0 91h0.0" /><path d="M765.0 91h0.0" /><rect height="22" width="292" x="473" y="80"></rect><text x="619" y="95">fulltext index relationship body</text><title>fulltext index relationship body</title></g><path d="M765.0 91h10" /><path d="M775.0 91h10" /><g class="terminal ">
<path d="M785.0 91h0.0" /><path d="M813.5 91h0.0" /><rect height="22" rx="10" ry="10" width="28.5" x="785" y="80"></rect><text x="799.25" y="95">></text></g></g><path d="M813.5 91a10 10 0 0 0 10 -10v-40a10 10 0 0 1 10 -10" /><path d="M404.5 31a10 10 0 0 1 10 10v70a10 10 0 0 0 10 10" /><g>
<path d="M424.5 121h48.5" /><path d="M765.0 121h48.5" /><g class="non-terminal ">
<path d="M473.0 121h0.0" /><path d="M765.0 121h0.0" /><rect height="22" width="292" x="473" y="110"></rect><text x="619" y="125">fulltext index relationship body</text><title>fulltext index relationship body</title></g></g><path d="M813.5 121a10 10 0 0 0 10 -10v-70a10 10 0 0 1 10 -10" /></g></g><path d="M833.5 31h10" /><path d="M843.5 31h10" /><g class="terminal ">
<path d="M853.5 31h0.0" /><path d="M890.5 31h0.0" /><rect height="22" rx="10" ry="10" width="37" x="853.5" y="20"></rect><text x="872" y="35">()</text></g></g><path d="M890.5 31h20" /></g><path d="M 910.5 31 h 20 m -10 -10 v 20 m 10 -20 v 20"></path></g></g>
<g transform="translate(0, 567.0)"><g transform="translate(.5 .5)">
<g>
<path d="M20 30v20m10 -20v20m-10 -10h282.0" /><text style="text-anchor:start" x="20" y="25">fulltext index relationship body</text></g><g>
<path d="M302.0 40h0.0" /><path d="M1079.0 40h0.0" /><path d="M302.0 40h20" /><g>
<path d="M322.0 40h0.0" /><path d="M1059.0 40h0.0" /><g class="terminal ">
<path d="M322.0 40h0.0" /><path d="M359.0 40h0.0" /><rect height="22" rx="10" ry="10" width="37" x="322" y="29"></rect><text x="340.5" y="44">-[</text></g><path d="M359.0 40h10" /><path d="M369.0 40h10" /><g class="non-terminal ">
<path d="M379.0 40h0.0" /><path d="M535.0 40h0.0" /><rect height="22" width="156" x="379" y="29"></rect><text x="457" y="44">binding variable</text><title>binding variable</title></g><path d="M535.0 40h10" /><path d="M545.0 40h10" /><g class="terminal ">
<path d="M555.0 40h0.0" /><path d="M583.5 40h0.0" /><rect height="22" rx="10" ry="10" width="28.5" x="555" y="29"></rect><text x="569.25" y="44">:</text></g><path d="M583.5 40h10" /><path d="M593.5 40h10" /><g class="non-terminal ">
<path d="M603.5 40h0.0" /><path d="M708.5 40h0.0" /><rect height="22" width="105" x="603.5" y="29"></rect><text x="656" y="44">label name</text><title>label name</title></g><path d="M708.5 40h10" /><g>
<path d="M718.5 40h0.0" /><path d="M1012.0 40h0.0" /><path d="M718.5 40a10 10 0 0 0 10 -10v0a10 10 0 0 1 10 -10" /><g>
<path d="M738.5 20h253.5" /></g><path d="M992.0 20a10 10 0 0 1 10 10v0a10 10 0 0 0 10 10" /><path d="M718.5 40h20" /><g>
<path d="M738.5 40h0.0" /><path d="M992.0 40h0.0" /><path d="M738.5 40h20" /><g>
<path d="M758.5 40h0.0" /><path d="M972.0 40h0.0" /><g>
<path d="M758.5 40h0.0" /><path d="M972.0 40h0.0" /><path d="M758.5 40h10" /><g>
<path d="M768.5 40h0.0" /><path d="M962.0 40h0.0" /><g>
<path d="M768.5 40h0.0" /><path d="M962.0 40h0.0" /><g>
<path d="M768.5 40h0.0" /><path d="M962.0 40h0.0" /><path d="M768.5 40h20" /><g>
<path d="M788.5 40h0.0" /><path d="M942.0 40h0.0" /><g class="terminal ">
<path d="M788.5 40h0.0" /><path d="M817.0 40h0.0" /><rect height="22" rx="10" ry="10" width="28.5" x="788.5" y="29"></rect><text x="802.75" y="44">|</text></g><path d="M817.0 40h10" /><path d="M827.0 40h10" /><g class="non-terminal ">
<path d="M837.0 40h0.0" /><path d="M942.0 40h0.0" /><rect height="22" width="105" x="837" y="29"></rect><text x="889.5" y="44">label name</text><title>label name</title></g></g><path d="M942.0 40h20" /></g></g></g><path d="M962.0 40h10" /><path d="M768.5 40a10 10 0 0 0 -10 10v0a10 10 0 0 0 10 10" /><g>
<path d="M768.5 60h193.5" /></g><path d="M962.0 60a10 10 0 0 0 10 -10v0a10 10 0 0 0 -10 -10" /></g></g><path d="M972.0 40h20" /></g><path d="M992.0 40h20" /></g><path d="M1012.0 40h10" /><g class="terminal ">
<path d="M1022.0 40h0.0" /><path d="M1059.0 40h0.0" /><rect height="22" rx="10" ry="10" width="37" x="1022" y="29"></rect><text x="1040.5" y="44">]-</text></g></g><path d="M1059.0 40h20" /></g><path d="M 1079.0 40 h 20 m -10 -10 v 20 m 10 -20 v 20"></path></g></g><style>
        /* <![CDATA[ */
        svg.railroad-diagram {
    // background-color: hsl(30, 20%, 95%);
}

svg.railroad-diagram path {
    stroke-width: 3;
    stroke: black;
    fill: rgba(0, 0, 0, 0);
}

svg.railroad-diagram text {
    font:bold 14px monospace;
    text-anchor: middle;
    fill: rgba(26, 27, 29, 255);
}

svg.railroad-diagram text.label {
    text-anchor: start;
}

svg.railroad-diagram text.comment {
    font:italic 12px monospace;
}

svg.railroad-diagram rect {
    stroke-width: 3;
    stroke: black;
    // fill: hsl(120, 100%, 90%);
    fill: rgba(231, 252, 215, 255);
}

svg.railroad-diagram rect.group-box {
    stroke: gray;
    stroke-dasharray: 10 5;
    fill: none;
}

svg.railroad-diagram .terminal rect {
    fill: rgba(231, 250, 251, 255);
}

        /* ]]> */
    </style></svg>