<svg class="railroad-diagram" viewBox="0 0 1396.5 478.0" width="1396.5" height="478.0" xmlns="http://www.w3.org/2000/svg" xmlns:xlink="http://www.w3.org/1999/xlink"><g transform="translate(0, 0)"><g transform="translate(.5 .5)">
<g>
<path d="M20 21v20m10 -20v20m-10 -10h112.0" /><text style="text-anchor:start" x="20" y="16">lookup index</text></g><g>
<path d="M132.0 31h0.0" /><path d="M771.0 31h0.0" /><path d="M132.0 31h20" /><g>
<path d="M152.0 31h0.0" /><path d="M751.0 31h0.0" /><g class="terminal ">
<path d="M152.0 31h0.0" /><path d="M223.0 31h0.0" /><rect height="22" rx="10" ry="10" width="71" x="152" y="20"></rect><text x="187.5" y="35">LOOKUP</text></g><path d="M223.0 31h10" /><path d="M233.0 31h10" /><g class="non-terminal ">
<path d="M243.0 31h0.0" /><path d="M365.0 31h0.0" /><rect height="22" width="122" x="243" y="20"></rect><text x="304" y="35">index prefix</text><title>index prefix</title></g><path d="M365.0 31h10" /><path d="M375.0 31h10" /><g>
<path d="M385.0 31h0.0" /><path d="M751.0 31h0.0" /><g>
<path d="M385.0 31h0.0" /><path d="M751.0 31h0.0" /><path d="M385.0 31h20" /><g>
<path d="M405.0 31h34.0" /><path d="M697.0 31h34.0" /><g class="non-terminal ">
<path d="M439.0 31h0.0" /><path d="M697.0 31h0.0" /><rect height="22" width="258" x="439" y="20"></rect><text x="568" y="35">node lookup index for and on</text><title>node lookup index for and on</title></g></g><path d="M731.0 31h20" /><path d="M385.0 31a10 10 0 0 1 10 10v10a10 10 0 0 0 10 10" /><g>
<path d="M405.0 61h0.0" /><path d="M731.0 61h0.0" /><g class="non-terminal ">
<path d="M405.0 61h0.0" /><path d="M731.0 61h0.0" /><rect height="22" width="326" x="405" y="50"></rect><text x="568" y="65">relationship lookup index for and on</text><title>relationship lookup index for and on</title></g></g><path d="M731.0 61a10 10 0 0 0 10 -10v-10a10 10 0 0 1 10 -10" /></g></g></g><path d="M751.0 31h20" /></g><path d="M 771.0 31 h 20 m -10 -10 v 20 m 10 -20 v 20"></path></g></g>
<g transform="translate(0, 92.0)"><g transform="translate(.5 .5)">
<g>
<path d="M20 30v20m10 -20v20m-10 -10h112.0" /><text style="text-anchor:start" x="20" y="25">index prefix</text></g><g>
<path d="M132.0 40h0.0" /><path d="M784.5 40h0.0" /><path d="M132.0 40h20" /><g>
<path d="M152.0 40h0.0" /><path d="M764.5 40h0.0" /><g class="terminal ">
<path d="M152.0 40h0.0" /><path d="M214.5 40h0.0" /><rect height="22" rx="10" ry="10" width="62.5" x="152" y="29"></rect><text x="183.25" y="44">INDEX</text></g><path d="M214.5 40h10" /><g>
<path d="M224.5 40h0.0" /><path d="M554.0 40h0.0" /><path d="M224.5 40a10 10 0 0 0 10 -10v0a10 10 0 0 1 10 -10" /><g>
<path d="M244.5 20h289.5" /></g><path d="M534.0 20a10 10 0 0 1 10 10v0a10 10 0 0 0 10 10" /><path d="M224.5 40h20" /><g>
<path d="M244.5 40h0.0" /><path d="M534.0 40h0.0" /><path d="M244.5 40h20" /><g>
<path d="M264.5 40h72.25" /><path d="M441.75 40h72.25" /><g class="non-terminal ">
<path d="M336.75 40h0.0" /><path d="M441.75 40h0.0" /><rect height="22" width="105" x="336.75" y="29"></rect><text x="389.25" y="44">index name</text><title>index name</title></g></g><path d="M514.0 40h20" /><path d="M244.5 40a10 10 0 0 1 10 10v10a10 10 0 0 0 10 10" /><g>
<path d="M264.5 70h0.0" /><path d="M514.0 70h0.0" /><g class="non-terminal ">
<path d="M264.5 70h0.0" /><path d="M514.0 70h0.0" /><rect height="22" width="249.5" x="264.5" y="59"></rect><text x="389.25" y="74">general parameter reference</text><title>general parameter reference</title></g></g><path d="M514.0 70a10 10 0 0 0 10 -10v-10a10 10 0 0 1 10 -10" /></g><path d="M534.0 40h20" /></g><g>
<path d="M554.0 40h0.0" /><path d="M764.5 40h0.0" /><path d="M554.0 40a10 10 0 0 0 10 -10v0a10 10 0 0 1 10 -10" /><g>
<path d="M574.0 20h170.5" /></g><path d="M744.5 20a10 10 0 0 1 10 10v0a10 10 0 0 0 10 10" /><path d="M554.0 40h20" /><g>
<path d="M574.0 40h0.0" /><path d="M744.5 40h0.0" /><path d="M574.0 40h20" /><g>
<path d="M594.0 40h0.0" /><path d="M724.5 40h0.0" /><g class="terminal ">
<path d="M594.0 40h0.0" /><path d="M724.5 40h0.0" /><rect height="22" rx="10" ry="10" width="130.5" x="594" y="29"></rect><text x="659.25" y="44">IF NOT EXISTS</text></g></g><path d="M724.5 40h20" /></g><path d="M744.5 40h20" /></g></g><path d="M764.5 40h20" /></g><path d="M 784.5 40 h 20 m -10 -10 v 20 m 10 -20 v 20"></path></g></g>
<g transform="translate(0, 193.0)"><g transform="translate(.5 .5)">
<g>
<path d="M20 21v20m10 -20v20m-10 -10h248.0" /><text style="text-anchor:start" x="20" y="16">node lookup index for and on</text></g><g>
<path d="M268.0 31h0.0" /><path d="M1149.5 31h0.0" /><path d="M268.0 31h20" /><g>
<path d="M288.0 31h0.0" /><path d="M1129.5 31h0.0" /><g class="terminal ">
<path d="M288.0 31h0.0" /><path d="M333.5 31h0.0" /><rect height="22" rx="10" ry="10" width="45.5" x="288" y="20"></rect><text x="310.75" y="35">FOR</text></g><path d="M333.5 31h10" /><path d="M343.5 31h10" /><g class="terminal ">
<path d="M353.5 31h0.0" /><path d="M382.0 31h0.0" /><rect height="22" rx="10" ry="10" width="28.5" x="353.5" y="20"></rect><text x="367.75" y="35">(</text></g><path d="M382.0 31h10" /><path d="M392.0 31h10" /><g class="non-terminal ">
<path d="M402.0 31h0.0" /><path d="M558.0 31h0.0" /><rect height="22" width="156" x="402" y="20"></rect><text x="480" y="35">binding variable</text><title>binding variable</title></g><path d="M558.0 31h10" /><path d="M568.0 31h10" /><g class="terminal ">
<path d="M578.0 31h0.0" /><path d="M606.5 31h0.0" /><rect height="22" rx="10" ry="10" width="28.5" x="578" y="20"></rect><text x="592.25" y="35">)</text></g><path d="M606.5 31h10" /><path d="M616.5 31h10" /><g class="terminal ">
<path d="M626.5 31h0.0" /><path d="M706.0 31h0.0" /><rect height="22" rx="10" ry="10" width="79.5" x="626.5" y="20"></rect><text x="666.25" y="35">ON EACH</text></g><path d="M706.0 31h10" /><path d="M716.0 31h10" /><g class="non-terminal ">
<path d="M726.0 31h0.0" /><path d="M856.5 31h0.0" /><rect height="22" width="130.5" x="726" y="20"></rect><text x="791.25" y="35">function name</text><title>function name</title></g><path d="M856.5 31h10" /><path d="M866.5 31h10" /><g class="terminal ">
<path d="M876.5 31h0.0" /><path d="M905.0 31h0.0" /><rect height="22" rx="10" ry="10" width="28.5" x="876.5" y="20"></rect><text x="890.75" y="35">(</text></g><path d="M905.0 31h10" /><path d="M915.0 31h10" /><g class="non-terminal ">
<path d="M925.0 31h0.0" /><path d="M1081.0 31h0.0" /><rect height="22" width="156" x="925" y="20"></rect><text x="1003" y="35">binding variable</text><title>binding variable</title></g><path d="M1081.0 31h10" /><path d="M1091.0 31h10" /><g class="terminal ">
<path d="M1101.0 31h0.0" /><path d="M1129.5 31h0.0" /><rect height="22" rx="10" ry="10" width="28.5" x="1101" y="20"></rect><text x="1115.25" y="35">)</text></g></g><path d="M1129.5 31h20" /></g><path d="M 1149.5 31 h 20 m -10 -10 v 20 m 10 -20 v 20"></path></g></g>
<g transform="translate(0, 255.0)"><g transform="translate(.5 .5)">
<g>
<path d="M20 30v20m10 -20v20m-10 -10h316.0" /><text style="text-anchor:start" x="20" y="25">relationship lookup index for and on</text></g><g>
<path d="M336.0 40h0.0" /><path d="M1356.5 40h0.0" /><path d="M336.0 40h20" /><g>
<path d="M356.0 40h0.0" /><path d="M1336.5 40h0.0" /><g class="terminal ">
<path d="M356.0 40h0.0" /><path d="M401.5 40h0.0" /><rect height="22" rx="10" ry="10" width="45.5" x="356" y="29"></rect><text x="378.75" y="44">FOR</text></g><path d="M401.5 40h10" /><path d="M411.5 40h10" /><g class="non-terminal ">
<path d="M421.5 40h0.0" /><path d="M722.0 40h0.0" /><rect height="22" width="300.5" x="421.5" y="29"></rect><text x="571.75" y="44">lookup index relationship pattern</text><title>lookup index relationship pattern</title></g><path d="M722.0 40h10" /><path d="M732.0 40h10" /><g class="terminal ">
<path d="M742.0 40h0.0" /><path d="M779.0 40h0.0" /><rect height="22" rx="10" ry="10" width="37" x="742" y="29"></rect><text x="760.5" y="44">ON</text></g><path d="M779.0 40h10" /><g>
<path d="M789.0 40h0.0" /><path d="M923.0 40h0.0" /><path d="M789.0 40a10 10 0 0 0 10 -10v0a10 10 0 0 1 10 -10" /><g>
<path d="M809.0 20h94.0" /></g><path d="M903.0 20a10 10 0 0 1 10 10v0a10 10 0 0 0 10 10" /><path d="M789.0 40h20" /><g>
<path d="M809.0 40h0.0" /><path d="M903.0 40h0.0" /><path d="M809.0 40h20" /><g>
<path d="M829.0 40h0.0" /><path d="M883.0 40h0.0" /><g class="terminal ">
<path d="M829.0 40h0.0" /><path d="M883.0 40h0.0" /><rect height="22" rx="10" ry="10" width="54" x="829" y="29"></rect><text x="856" y="44">EACH</text></g></g><path d="M883.0 40h20" /></g><path d="M903.0 40h20" /></g><path d="M923.0 40h10" /><g class="non-terminal ">
<path d="M933.0 40h0.0" /><path d="M1063.5 40h0.0" /><rect height="22" width="130.5" x="933" y="29"></rect><text x="998.25" y="44">function name</text><title>function name</title></g><path d="M1063.5 40h10" /><path d="M1073.5 40h10" /><g class="terminal ">
<path d="M1083.5 40h0.0" /><path d="M1112.0 40h0.0" /><rect height="22" rx="10" ry="10" width="28.5" x="1083.5" y="29"></rect><text x="1097.75" y="44">(</text></g><path d="M1112.0 40h10" /><path d="M1122.0 40h10" /><g class="non-terminal ">
<path d="M1132.0 40h0.0" /><path d="M1288.0 40h0.0" /><rect height="22" width="156" x="1132" y="29"></rect><text x="1210" y="44">binding variable</text><title>binding variable</title></g><path d="M1288.0 40h10" /><path d="M1298.0 40h10" /><g class="terminal ">
<path d="M1308.0 40h0.0" /><path d="M1336.5 40h0.0" /><rect height="22" rx="10" ry="10" width="28.5" x="1308" y="29"></rect><text x="1322.25" y="44">)</text></g></g><path d="M1336.5 40h20" /></g><path d="M 1356.5 40 h 20 m -10 -10 v 20 m 10 -20 v 20"></path></g></g>
<g transform="translate(0, 326.0)"><g transform="translate(.5 .5)">
<g>
<path d="M20 21v20m10 -20v20m-10 -10h290.5" /><text style="text-anchor:start" x="20" y="16">lookup index relationship pattern</text></g><g>
<path d="M310.5 31h0.0" /><path d="M791.5 31h0.0" /><path d="M310.5 31h20" /><g>
<path d="M330.5 31h0.0" /><path d="M771.5 31h0.0" /><g class="terminal ">
<path d="M330.5 31h0.0" /><path d="M367.5 31h0.0" /><rect height="22" rx="10" ry="10" width="37" x="330.5" y="20"></rect><text x="349" y="35">()</text></g><path d="M367.5 31h10" /><path d="M377.5 31h10" /><g>
<path d="M387.5 31h0.0" /><path d="M714.5 31h0.0" /><g>
<path d="M387.5 31h0.0" /><path d="M714.5 31h0.0" /><path d="M387.5 31h20" /><g>
<path d="M407.5 31h4.25" /><path d="M690.25 31h4.25" /><g class="terminal ">
<path d="M411.75 31h0.0" /><path d="M457.25 31h0.0" /><rect height="22" rx="10" ry="10" width="45.5" x="411.75" y="20"></rect><text x="434.5" y="35">&lt;-[</text></g><path d="M457.25 31h10" /><path d="M467.25 31h10" /><g class="non-terminal ">
<path d="M477.25 31h0.0" /><path d="M633.25 31h0.0" /><rect height="22" width="156" x="477.25" y="20"></rect><text x="555.25" y="35">binding variable</text><title>binding variable</title></g><path d="M633.25 31h10" /><path d="M643.25 31h10" /><g class="terminal ">
<path d="M653.25 31h0.0" /><path d="M690.25 31h0.0" /><rect height="22" rx="10" ry="10" width="37" x="653.25" y="20"></rect><text x="671.75" y="35">]-</text></g></g><path d="M694.5 31h20" /><path d="M387.5 31a10 10 0 0 1 10 10v10a10 10 0 0 0 10 10" /><g>
<path d="M407.5 61h4.25" /><path d="M690.25 61h4.25" /><g class="terminal ">
<path d="M411.75 61h0.0" /><path d="M448.75 61h0.0" /><rect height="22" rx="10" ry="10" width="37" x="411.75" y="50"></rect><text x="430.25" y="65">-[</text></g><path d="M448.75 61h10" /><path d="M458.75 61h10" /><g class="non-terminal ">
<path d="M468.75 61h0.0" /><path d="M624.75 61h0.0" /><rect height="22" width="156" x="468.75" y="50"></rect><text x="546.75" y="65">binding variable</text><title>binding variable</title></g><path d="M624.75 61h10" /><path d="M634.75 61h10" /><g class="terminal ">
<path d="M644.75 61h0.0" /><path d="M690.25 61h0.0" /><rect height="22" rx="10" ry="10" width="45.5" x="644.75" y="50"></rect><text x="667.5" y="65">]-></text></g></g><path d="M694.5 61a10 10 0 0 0 10 -10v-10a10 10 0 0 1 10 -10" /><path d="M387.5 31a10 10 0 0 1 10 10v40a10 10 0 0 0 10 10" /><g>
<path d="M407.5 91h0.0" /><path d="M694.5 91h0.0" /><g class="terminal ">
<path d="M407.5 91h0.0" /><path d="M453.0 91h0.0" /><rect height="22" rx="10" ry="10" width="45.5" x="407.5" y="80"></rect><text x="430.25" y="95">&lt;-[</text></g><path d="M453.0 91h10" /><path d="M463.0 91h10" /><g class="non-terminal ">
<path d="M473.0 91h0.0" /><path d="M629.0 91h0.0" /><rect height="22" width="156" x="473" y="80"></rect><text x="551" y="95">binding variable</text><title>binding variable</title></g><path d="M629.0 91h10" /><path d="M639.0 91h10" /><g class="terminal ">
<path d="M649.0 91h0.0" /><path d="M694.5 91h0.0" /><rect height="22" rx="10" ry="10" width="45.5" x="649" y="80"></rect><text x="671.75" y="95">]-></text></g></g><path d="M694.5 91a10 10 0 0 0 10 -10v-40a10 10 0 0 1 10 -10" /><path d="M387.5 31a10 10 0 0 1 10 10v70a10 10 0 0 0 10 10" /><g>
<path d="M407.5 121h8.5" /><path d="M686.0 121h8.5" /><g class="terminal ">
<path d="M416.0 121h0.0" /><path d="M453.0 121h0.0" /><rect height="22" rx="10" ry="10" width="37" x="416" y="110"></rect><text x="434.5" y="125">-[</text></g><path d="M453.0 121h10" /><path d="M463.0 121h10" /><g class="non-terminal ">
<path d="M473.0 121h0.0" /><path d="M629.0 121h0.0" /><rect height="22" width="156" x="473" y="110"></rect><text x="551" y="125">binding variable</text><title>binding variable</title></g><path d="M629.0 121h10" /><path d="M639.0 121h10" /><g class="terminal ">
<path d="M649.0 121h0.0" /><path d="M686.0 121h0.0" /><rect height="22" rx="10" ry="10" width="37" x="649" y="110"></rect><text x="667.5" y="125">]-</text></g></g><path d="M694.5 121a10 10 0 0 0 10 -10v-70a10 10 0 0 1 10 -10" /></g></g><path d="M714.5 31h10" /><path d="M724.5 31h10" /><g class="terminal ">
<path d="M734.5 31h0.0" /><path d="M771.5 31h0.0" /><rect height="22" rx="10" ry="10" width="37" x="734.5" y="20"></rect><text x="753" y="35">()</text></g></g><path d="M771.5 31h20" /></g><path d="M 791.5 31 h 20 m -10 -10 v 20 m 10 -20 v 20"></path></g></g><style>
        /* <![CDATA[ */
        svg.railroad-diagram {
    // background-color: hsl(30, 20%, 95%);
}

svg.railroad-diagram path {
    stroke-width: 3;
    stroke: black;
    fill: rgba(0, 0, 0, 0);
}

svg.railroad-diagram text {
    font:bold 14px monospace;
    text-anchor: middle;
    fill: rgba(26, 27, 29, 255);
}

svg.railroad-diagram text.label {
    text-anchor: start;
}

svg.railroad-diagram text.comment {
    font:italic 12px monospace;
}

svg.railroad-diagram rect {
    stroke-width: 3;
    stroke: black;
    // fill: hsl(120, 100%, 90%);
    fill: rgba(231, 252, 215, 255);
}

svg.railroad-diagram rect.group-box {
    stroke: gray;
    stroke-dasharray: 10 5;
    fill: none;
}

svg.railroad-diagram .terminal rect {
    fill: rgba(231, 250, 251, 255);
}

        /* ]]> */
    </style></svg>