<svg xmlns="http://www.w3.org/2000/svg" width="435" height="447" viewBox="0 0 435 447"><defs><style type="text/css"/></defs><g transform="translate(219.29802142181805 -50.347178669496145) scale(1)"><g class="relationship"><g transform="translate(-150.86686907806805 139.94717866949614) rotate(90)" stroke-width="2" stroke="#000000"><path d="M 59 0 L 177.8448701447779 0"/><polygon points="-14.155129855222071,0 -15.727922061357857,5.242640687119286 0,0 -15.727922061357857,-5.242640687119286" fill="#000000" transform="translate(191.99999999999997 0) rotate(0)" stroke="none"/></g><g transform="translate(-150.86686907806805 258.3696137418851) rotate(270) translate(0 -13)"><g transform="translate(0 0)"><g transform="translate(-35.22265625 0)" fill="#ffffff" stroke="#000000" stroke-width="0"><rect x="0" y="0" width="70.4453125" height="26" rx="5" ry="5" stroke="none"/><text xml:space="preserve" x="5" y="17.45703125" stroke="none" text-anchor="left" font-family="sans-serif" font-size="16" font-weight="normal" fill="#000000">KNOWS</text></g></g></g></g><g class="relationship"><g transform="translate(-150.86686907806805 139.94717866949614) rotate(0)" stroke-width="2" stroke="#000000"><path d="M 59 0 L 236.93919694228077 0"/><polygon points="-14.155129855222071,0 -15.727922061357857,5.242640687119286 0,0 -15.727922061357857,-5.242640687119286" fill="#000000" transform="translate(251.09432679750284 0) rotate(0)" stroke="none"/></g><g transform="translate(-2.8972706069276626 139.94717866949614) rotate(0) translate(0 -13)"><g transform="translate(0 0)"><g transform="translate(-35.22265625 0)" fill="#ffffff" stroke="#000000" stroke-width="0"><rect x="0" y="0" width="70.4453125" height="26" rx="5" ry="5" stroke="none"/><text xml:space="preserve" x="5" y="17.45703125" stroke="none" text-anchor="left" font-family="sans-serif" font-size="16" font-weight="normal" fill="#000000">KNOWS</text></g></g></g></g><g class="relationship"><g transform="translate(159.22745771943477 139.94717866949614) rotate(90)" stroke-width="2" stroke="#000000"><path d="M 59 0 L 177.8448701447779 0"/><polygon points="-14.155129855222071,0 -15.727922061357857,5.242640687119286 0,0 -15.727922061357857,-5.242640687119286" fill="#000000" transform="translate(191.99999999999997 0) rotate(0)" stroke="none"/></g><g transform="translate(159.22745771943477 258.3696137418851) rotate(270) translate(0 -13)"><g transform="translate(0 0)"><g transform="translate(-35.22265625 0)" fill="#ffffff" stroke="#000000" stroke-width="0"><rect x="0" y="0" width="70.4453125" height="26" rx="5" ry="5" stroke="none"/><text xml:space="preserve" x="5" y="17.45703125" stroke="none" text-anchor="left" font-family="sans-serif" font-size="16" font-weight="normal" fill="#000000">KNOWS</text></g></g></g></g><g class="node"><g fill="#ffffff" stroke="#006FD6" stroke-width="4"><circle cx="-150.86686907806805" cy="139.94717866949614" r="52"/></g><g transform="translate(-150.86686907806805 139.94717866949614)"><g transform="scale(0.4733033562421366) translate(0 -27)"><g transform="translate(0 0)"><g transform="translate(-91.162109375 0)"><g fill="#000000" stroke="#000000" stroke-width="4" font-family="sans-serif" font-size="40" font-weight="normal"><text xml:space="preserve" x="0" y="38.142578125" stroke="none">Developer</text></g></g></g></g><g transform="translate(3.429011037612589e-15 -87.2)"><g transform="translate(0 0)"><g transform="translate(-40.780517578125 0)" fill="white"><rect x="0" y="0" width="81.56103515625" height="31.2" rx="0" ry="0" stroke="none"/><g font-family="sans-serif" font-size="13" font-weight="normal" fill="#535B66" text-anchor="end"><text xml:space="preserve" x="39.74267578125" y="11.421337890625" stroke="none">name:</text><text xml:space="preserve" x="43.3544921875" y="11.421337890625" stroke="none" text-anchor="start">'Andy'</text><text xml:space="preserve" x="39.74267578125" y="27.021337890625" stroke="none" text-anchor="end">born:</text><text xml:space="preserve" x="43.3544921875" y="27.021337890625" stroke="none" text-anchor="start">1991</text></g></g></g></g></g></g><g class="node"><g fill="#ffffff" stroke="#006FD6" stroke-width="4"><circle cx="-150.86686907806805" cy="390.9471786694961" r="52"/></g><g transform="translate(-150.86686907806805 390.9471786694961)"><g transform="scale(0.3174605869894646) translate(0 -30.5)"><g transform="translate(0 0)"><g transform="translate(-138.4296875 0)"><g fill="#000000" stroke="#000000" stroke-width="4" font-family="sans-serif" font-size="47" font-weight="normal"><text xml:space="preserve" x="0" y="43.592529296875" stroke="none">Administrator</text></g></g></g></g><g transform="translate(3.429011037612589e-15 56)"><g transform="translate(0 0)"><g transform="translate(-68.43115234375 0)" fill="white"><rect x="0" y="0" width="136.8623046875" height="50.400000000000006" rx="0" ry="0" stroke="none"/><g font-family="sans-serif" font-size="14" font-weight="normal" fill="#535B66" text-anchor="end"><text xml:space="preserve" x="70.8203125" y="12.29990234375" stroke="none">name:</text><text xml:space="preserve" x="74.7099609375" y="12.29990234375" stroke="none" text-anchor="start">'David'</text><text xml:space="preserve" x="70.8203125" y="29.099902343750003" stroke="none" text-anchor="end">born:</text><text xml:space="preserve" x="74.7099609375" y="29.099902343750003" stroke="none" text-anchor="start">1994</text><text xml:space="preserve" x="70.8203125" y="45.89990234375" stroke="none" text-anchor="end">nationality:</text><text xml:space="preserve" x="74.7099609375" y="45.89990234375" stroke="none" text-anchor="start">'Swedish'</text></g></g></g></g></g></g><g class="node"><g fill="#ffffff" stroke="#006FD6" stroke-width="4"><circle cx="159.22745771943477" cy="139.94717866949614" r="52"/></g><g transform="translate(159.22745771943477 139.94717866949614)"><g transform="scale(0.40404716114239747) translate(0 -30.5)"><g transform="translate(0 0)"><g transform="translate(-107.115478515625 0)"><g fill="#000000" stroke="#000000" stroke-width="4" font-family="sans-serif" font-size="47" font-weight="normal"><text xml:space="preserve" x="0" y="43.592529296875" stroke="none">Developer</text></g></g></g></g><g transform="translate(3.429011037612589e-15 -89.6)"><g transform="translate(0 0)"><g transform="translate(-53.6416015625 0)" fill="white"><rect x="0" y="0" width="107.283203125" height="33.6" rx="0" ry="0" stroke="none"/><g font-family="sans-serif" font-size="14" font-weight="normal" fill="#535B66" text-anchor="end"><text xml:space="preserve" x="42.7998046875" y="12.29990234375" stroke="none">name:</text><text xml:space="preserve" x="46.689453125" y="12.29990234375" stroke="none" text-anchor="start">'Beatrice'</text><text xml:space="preserve" x="42.7998046875" y="29.099902343750003" stroke="none" text-anchor="end">born:</text><text xml:space="preserve" x="46.689453125" y="29.099902343750003" stroke="none" text-anchor="start">1985</text></g></g></g></g></g></g><g class="node"><g fill="#ffffff" stroke="#006FD6" stroke-width="4"><circle cx="159.22745771943477" cy="390.9471786694961" r="52"/></g><g transform="translate(159.22745771943477 390.9471786694961)"><g transform="scale(0.3174605869894646) translate(0 -30.5)"><g transform="translate(0 0)"><g transform="translate(-138.4296875 0)"><g fill="#000000" stroke="#000000" stroke-width="4" font-family="sans-serif" font-size="47" font-weight="normal"><text xml:space="preserve" x="0" y="43.592529296875" stroke="none">Administrator</text></g></g></g></g><g transform="translate(3.429011037612589e-15 56)"><g transform="translate(0 0)"><g transform="translate(-56.36572265625 0)" fill="white"><rect x="0" y="0" width="112.7314453125" height="33.6" rx="0" ry="0" stroke="none"/><g font-family="sans-serif" font-size="14" font-weight="normal" fill="#535B66" text-anchor="end"><text xml:space="preserve" x="42.7998046875" y="12.29990234375" stroke="none">name:</text><text xml:space="preserve" x="46.689453125" y="12.29990234375" stroke="none" text-anchor="start">'Charlotte'</text><text xml:space="preserve" x="42.7998046875" y="29.099902343750003" stroke="none" text-anchor="end">born:</text><text xml:space="preserve" x="46.689453125" y="29.099902343750003" stroke="none" text-anchor="start">1990</text></g></g></g></g></g></g></g></svg>