<svg xmlns="http://www.w3.org/2000/svg" width="462" height="508" viewBox="0 0 462 508"><defs><style type="text/css"/></defs><g transform="translate(-17.699218750000004 4) scale(1)"><g class="relationship"><g transform="translate(75 50) rotate(90)" stroke-width="2" stroke="#000000"><path d="M 59 0 L 285.844870144778 0"/><polygon points="-14.155129855222071,0 -15.727922061357857,5.242640687119286 0,0 -15.727922061357857,-5.242640687119286" fill="#000000" transform="translate(300.00000000000006 0) rotate(0)" stroke="none"/></g><g transform="translate(75.00000000000001 222.422435072389) rotate(270) translate(0 -13)"><g transform="translate(0 0)"><g transform="translate(-44.5625 0)" fill="#ffffff" stroke="#000000" stroke-width="0"><rect x="0" y="0" width="89.125" height="26" rx="5" ry="5" stroke="none"/><text xml:space="preserve" x="5" y="17.45703125" stroke="none" text-anchor="left" font-family="sans-serif" font-size="16" font-weight="normal" fill="#000000">CHILD_OF</text></g></g></g></g><g class="relationship"><g transform="translate(75 50) rotate(59.99999999999999)" stroke-width="2" stroke="#000000"><path d="M 59 0 L 285.844870144778 0"/><polygon points="-14.155129855222071,0 -15.727922061357857,5.242640687119286 0,0 -15.727922061357857,-5.242640687119286" fill="#000000" transform="translate(300.00000000000006 0) rotate(0)" stroke="none"/></g><g transform="translate(161.2112175361945 199.32220895506183) rotate(59.99999999999999) translate(0 -13)"><g transform="translate(0 0)"><g transform="translate(-50.3359375 0)" fill="#ffffff" stroke="#000000" stroke-width="0"><rect x="0" y="0" width="100.671875" height="26" rx="5" ry="5" stroke="none"/><text xml:space="preserve" x="5" y="17.45703125" stroke="none" text-anchor="left" font-family="sans-serif" font-size="16" font-weight="normal" fill="#000000">FRIEND_OF</text></g></g></g></g><g class="node"><g fill="#ffffff" stroke="#006FD6" stroke-width="4"><circle cx="75" cy="50" r="52"/></g><g transform="translate(75 50)"><g transform="scale(0.5321198365150982) translate(0 -56)"><g transform="translate(0 0)"><g transform="translate(-63.369140625 0)"><g fill="#000000" stroke="#000000" stroke-width="4" font-family="sans-serif" font-size="40" font-weight="normal"><text xml:space="preserve" x="0" y="38.142578125" stroke="none">Person</text></g></g><g transform="translate(-45.576171875 62)"><g fill="#000000" stroke="#000000" stroke-width="4" font-family="sans-serif" font-size="40" font-weight="normal"><text xml:space="preserve" x="0" y="38.142578125" stroke="none">Child</text></g></g></g></g><g transform="translate(56 -19.2)"><g transform="translate(0 0)"><g transform="translate(0 0)" fill="white"><rect x="0" y="0" width="98.59375" height="38.4" rx="0" ry="0" stroke="none"/><g font-family="sans-serif" font-size="16" font-weight="normal" fill="#535B66" text-anchor="end"><text xml:space="preserve" x="48.9140625" y="14.05703125" stroke="none">name:</text><text xml:space="preserve" x="53.359375" y="14.05703125" stroke="none" text-anchor="start">'Alice'</text><text xml:space="preserve" x="48.9140625" y="33.25703125" stroke="none" text-anchor="end">age:</text><text xml:space="preserve" x="53.359375" y="33.25703125" stroke="none" text-anchor="start">20</text></g></g></g></g></g></g><g class="node"><g fill="#ffffff" stroke="#006FD6" stroke-width="4"><circle cx="75" cy="409.00000000000006" r="52"/></g><g transform="translate(75 409.00000000000006)"><g transform="scale(0.7649553822525582) translate(0 -42)"><g transform="translate(0 0)"><g transform="translate(-41.18994140625 0)"><g fill="#000000" stroke="#000000" stroke-width="4" font-family="sans-serif" font-size="26" font-weight="normal"><text xml:space="preserve" x="0" y="27.24267578125" stroke="none">Person</text></g></g><g transform="translate(-38.3017578125 48)"><g fill="#000000" stroke="#000000" stroke-width="4" font-family="sans-serif" font-size="26" font-weight="normal"><text xml:space="preserve" x="0" y="27.24267578125" stroke="none">Parent</text></g></g></g></g><g transform="translate(3.429011037612589e-15 56)"><g transform="translate(0 0)"><g transform="translate(-57.30078125 0)" fill="white"><rect x="0" y="0" width="114.6015625" height="38.4" rx="0" ry="0" stroke="none"/><g font-family="sans-serif" font-size="16" font-weight="normal" fill="#535B66" text-anchor="end"><text xml:space="preserve" x="48.9140625" y="14.05703125" stroke="none">name:</text><text xml:space="preserve" x="53.359375" y="14.05703125" stroke="none" text-anchor="start">'Charlie'</text><text xml:space="preserve" x="48.9140625" y="33.25703125" stroke="none" text-anchor="end">age:</text><text xml:space="preserve" x="53.359375" y="33.25703125" stroke="none" text-anchor="start">65</text></g></g></g></g></g></g><g class="node"><g fill="#ffffff" stroke="#006FD6" stroke-width="4"><circle cx="254.50000000000006" cy="360.9031199586135" r="52"/></g><g transform="translate(254.50000000000006 360.9031199586135)"><g transform="scale(0.9827737671489807) translate(0 -20)"><g transform="translate(0 0)"><g transform="translate(-41.18994140625 0)"><g fill="#000000" stroke="#000000" stroke-width="4" font-family="sans-serif" font-size="26" font-weight="normal"><text xml:space="preserve" x="0" y="27.24267578125" stroke="none">Person</text></g></g></g></g><g transform="translate(3.429011037612589e-15 56)"><g transform="translate(0 0)"><g transform="translate(-46.19140625 0)" fill="white"><rect x="0" y="0" width="92.3828125" height="38.4" rx="0" ry="0" stroke="none"/><g font-family="sans-serif" font-size="16" font-weight="normal" fill="#535B66" text-anchor="end"><text xml:space="preserve" x="48.9140625" y="14.05703125" stroke="none">name:</text><text xml:space="preserve" x="53.359375" y="14.05703125" stroke="none" text-anchor="start">'Bob'</text><text xml:space="preserve" x="48.9140625" y="33.25703125" stroke="none" text-anchor="end">age:</text><text xml:space="preserve" x="53.359375" y="33.25703125" stroke="none" text-anchor="start">25</text></g></g></g></g></g></g><g class="node"><g fill="#ffffff" stroke="#006FD6" stroke-width="4"><circle cx="341.2687466390757" cy="222" r="52"/></g><g transform="translate(341.2687466390757 222)"><g transform="scale(0.6532967767358133) translate(0 -27)"><g transform="translate(0 0)"><g transform="translate(-63.369140625 0)"><g fill="#000000" stroke="#000000" stroke-width="4" font-family="sans-serif" font-size="40" font-weight="normal"><text xml:space="preserve" x="0" y="38.142578125" stroke="none">Person</text></g></g></g></g><g transform="translate(39.59797974644666 39.597979746446654)"><g transform="translate(0 0)"><g transform="translate(0 0)" fill="white"><rect x="0" y="0" width="98.59375" height="38.4" rx="0" ry="0" stroke="none"/><g font-family="sans-serif" font-size="16" font-weight="normal" fill="#535B66" text-anchor="end"><text xml:space="preserve" x="48.9140625" y="14.05703125" stroke="none">name:</text><text xml:space="preserve" x="53.359375" y="14.05703125" stroke="none" text-anchor="start">'Dora'</text><text xml:space="preserve" x="48.9140625" y="33.25703125" stroke="none" text-anchor="end">age:</text><text xml:space="preserve" x="53.359375" y="33.25703125" stroke="none" text-anchor="start">30</text></g></g></g></g></g></g><g class="node"><g fill="#ffffff" stroke="#006FD6" stroke-width="4"><circle cx="341.2687466390757" cy="50" r="52"/></g><g transform="translate(341.2687466390757 50)"><g transform="scale(0.5913044312686119) translate(0 -27)"><g transform="translate(0 0)"><g transform="translate(-71.15234375 0)"><g fill="#000000" stroke="#000000" stroke-width="4" font-family="sans-serif" font-size="40" font-weight="normal"><text xml:space="preserve" x="0" y="38.142578125" stroke="none">Counter</text></g></g></g></g><g transform="translate(39.59797974644666 39.597979746446654)"><g transform="translate(0 0)"><g transform="translate(0 0)" fill="white"><rect x="0" y="0" width="65.8203125" height="19.2" rx="0" ry="0" stroke="none"/><g font-family="sans-serif" font-size="16" font-weight="normal" fill="#535B66" text-anchor="end"><text xml:space="preserve" x="48.03125" y="14.05703125" stroke="none">count:</text><text xml:space="preserve" x="52.4765625" y="14.05703125" stroke="none" text-anchor="start">0</text></g></g></g></g></g></g></g></svg>