<svg xmlns="http://www.w3.org/2000/svg" width="613" height="157" viewBox="0 0 613 157"><defs><style type="text/css"/></defs><g transform="translate(357.52174182234626 485.3978133758271) scale(1)"><g class="node"><g fill="#ffffff" stroke="#006FD6" stroke-width="4"><circle cx="26.412256312385438" cy="-431.3978133758271" r="52"/></g><g transform="translate(26.412256312385438 -431.3978133758271)"><g transform="scale(0.37231065276914505) translate(0 -27)"><g transform="translate(0 0)"><g transform="translate(-117.8125 0)"><g fill="#000000" stroke="#000000" stroke-width="4" font-family="sans-serif" font-size="40" font-weight="normal"><text xml:space="preserve" x="0" y="38.142578125" stroke="none">Administrator</text></g></g></g></g><g transform="translate(3.429011037612589e-15 56)"><g transform="translate(0 0)"><g transform="translate(-52.339599609375 0)" fill="white"><rect x="0" y="0" width="104.67919921875" height="31.2" rx="0" ry="0" stroke="none"/><g font-family="sans-serif" font-size="13" font-weight="normal" fill="#535B66" text-anchor="end"><text xml:space="preserve" x="39.74267578125" y="11.421337890625" stroke="none">name:</text><text xml:space="preserve" x="43.3544921875" y="11.421337890625" stroke="none" text-anchor="start">'Charlotte'</text><text xml:space="preserve" x="39.74267578125" y="27.021337890625" stroke="none" text-anchor="end">born:</text><text xml:space="preserve" x="43.3544921875" y="27.021337890625" stroke="none" text-anchor="start">1990</text></g></g></g></g></g></g><g class="node"><g fill="#ffffff" stroke="#006FD6" stroke-width="4"><circle cx="-138.5547427549804" cy="-431.3978133758271" r="52"/></g><g transform="translate(-138.5547427549804 -431.3978133758271)"><g transform="scale(1) translate(0 -19)"><g transform="translate(0 0)"><g transform="translate(-25.3359375 0)"><g fill="#000000" stroke="#000000" stroke-width="4" font-family="sans-serif" font-size="24" font-weight="normal"><text xml:space="preserve" x="0" y="25.685546875" stroke="none">User</text></g></g></g></g><g transform="translate(3.429011037612589e-15 56)"><g transform="translate(0 0)"><g transform="translate(-49.81005859375 0)" fill="white"><rect x="0" y="0" width="99.6201171875" height="31.2" rx="0" ry="0" stroke="none"/><g font-family="sans-serif" font-size="13" font-weight="normal" fill="#535B66" text-anchor="end"><text xml:space="preserve" x="39.74267578125" y="11.421337890625" stroke="none">name:</text><text xml:space="preserve" x="43.3544921875" y="11.421337890625" stroke="none" text-anchor="start">'Beatrice'</text><text xml:space="preserve" x="39.74267578125" y="27.021337890625" stroke="none" text-anchor="end">born:</text><text xml:space="preserve" x="43.3544921875" y="27.021337890625" stroke="none" text-anchor="start">1985</text></g></g></g></g></g></g><g class="node"><g fill="#ffffff" stroke="#006FD6" stroke-width="4"><circle cx="-303.52174182234626" cy="-431.3978133758271" r="52"/></g><g transform="translate(-303.52174182234626 -431.3978133758271)"><g transform="scale(1) translate(0 -19)"><g transform="translate(0 0)"><g transform="translate(-25.3359375 0)"><g fill="#000000" stroke="#000000" stroke-width="4" font-family="sans-serif" font-size="24" font-weight="normal"><text xml:space="preserve" x="0" y="25.685546875" stroke="none">User</text></g></g></g></g><g transform="translate(3.429011037612589e-15 56)"><g transform="translate(0 0)"><g transform="translate(-42.23095703125 0)" fill="white"><rect x="0" y="0" width="84.4619140625" height="46.8" rx="0" ry="0" stroke="none"/><g font-family="sans-serif" font-size="13" font-weight="normal" fill="#535B66" text-anchor="end"><text xml:space="preserve" x="42.6435546875" y="11.421337890625" stroke="none">name:</text><text xml:space="preserve" x="46.25537109375" y="11.421337890625" stroke="none" text-anchor="start">'Andy'</text><text xml:space="preserve" x="42.6435546875" y="27.021337890625" stroke="none" text-anchor="end">born:</text><text xml:space="preserve" x="46.25537109375" y="27.021337890625" stroke="none" text-anchor="start">1991</text><text xml:space="preserve" x="42.6435546875" y="42.621337890625" stroke="none" text-anchor="end">length:</text><text xml:space="preserve" x="46.25537109375" y="42.621337890625" stroke="none" text-anchor="start">170</text></g></g></g></g></g></g><g class="node"><g fill="#ffffff" stroke="#006FD6" stroke-width="4"><circle cx="191.37925537975127" cy="-431.3978133758271" r="52"/></g><g transform="translate(191.37925537975127 -431.3978133758271)"><g transform="scale(1) translate(0 -27)"><g transform="translate(0 0)"><g transform="translate(0 0)"><g fill="#000000" stroke="#000000" stroke-width="4" font-family="sans-serif" font-size="40" font-weight="normal"><text xml:space="preserve" x="0" y="38.142578125" stroke="none"></text></g></g></g></g><g transform="translate(3.429011037612589e-15 56)"><g transform="translate(0 0)"><g transform="translate(-63.543212890625 0)" fill="white"><rect x="0" y="0" width="127.08642578125" height="46.8" rx="0" ry="0" stroke="none"/><g font-family="sans-serif" font-size="13" font-weight="normal" fill="#535B66" text-anchor="end"><text xml:space="preserve" x="65.76171875" y="11.421337890625" stroke="none">name:</text><text xml:space="preserve" x="69.37353515625" y="11.421337890625" stroke="none" text-anchor="start">'David'</text><text xml:space="preserve" x="65.76171875" y="27.021337890625" stroke="none" text-anchor="end">born:</text><text xml:space="preserve" x="69.37353515625" y="27.021337890625" stroke="none" text-anchor="start">1994</text><text xml:space="preserve" x="65.76171875" y="42.621337890625" stroke="none" text-anchor="end">nationality:</text><text xml:space="preserve" x="69.37353515625" y="42.621337890625" stroke="none" text-anchor="start">'Swedish'</text></g></g></g></g></g></g></g></svg>