<svg xmlns="http://www.w3.org/2000/svg" width="530" height="613" viewBox="0 0 530 613"><defs><style type="text/css"/></defs><g transform="translate(130.90794673359858 363) scale(1)"><g class="relationship"><g transform="translate(132 -309) rotate(44.11553997279574)" stroke-width="2" stroke="#000000"><path d="M 59 0 L 222.28532170294915 0"/><polygon points="-14.155129855222071,0 -15.727922061357857,5.242640687119286 0,0 -15.727922061357857,-5.242640687119286" fill="#000000" transform="translate(236.44045155817122 0) rotate(0)" stroke="none"/></g><g transform="translate(232.9726436040998 -211.0975827929548) rotate(44.11553997279574) translate(0 -13)"><g transform="translate(0 0)"><g transform="translate(-35.22265625 0)" fill="#ffffff" stroke="#000000" stroke-width="0"><rect x="0" y="0" width="70.4453125" height="26" rx="5" ry="5" stroke="none"/><text xml:space="preserve" x="5" y="17.45703125" stroke="none" text-anchor="left" font-family="sans-serif" font-size="16" font-weight="normal" fill="#000000">KNOWS</text></g></g></g></g><g class="relationship"><g transform="translate(132 -309) rotate(135)" stroke-width="2" stroke="#000000"><path d="M 59 0 L 222.2853217029492 0"/><polygon points="-14.155129855222071,0 -15.727922061357857,5.242640687119286 0,0 -15.727922061357857,-5.242640687119286" fill="#000000" transform="translate(236.44045155817128 0) rotate(0)" stroke="none"/></g><g transform="translate(32.55062078780254 -209.55062078780253) rotate(315) translate(0 -13)"><g transform="translate(0 0)"><g transform="translate(-35.22265625 0)" fill="#ffffff" stroke="#000000" stroke-width="0"><rect x="0" y="0" width="70.4453125" height="26" rx="5" ry="5" stroke="none"/><text xml:space="preserve" x="5" y="17.45703125" stroke="none" text-anchor="left" font-family="sans-serif" font-size="16" font-weight="normal" fill="#000000">KNOWS</text></g></g></g></g><g class="relationship"><g transform="translate(-76.90794673359858 -100.09205326640136) rotate(90)" stroke-width="2" stroke="#000000"><path d="M 59 0 L 222.2853217029492 0"/><polygon points="-14.155129855222071,0 -15.727922061357857,5.242640687119286 0,0 -15.727922061357857,-5.242640687119286" fill="#000000" transform="translate(236.44045155817128 0) rotate(0)" stroke="none"/></g><g transform="translate(-76.90794673359856 40.55060758507324) rotate(270) translate(0 -13)"><g transform="translate(0 0)"><g transform="translate(-35.22265625 0)" fill="#ffffff" stroke="#000000" stroke-width="0"><rect x="0" y="0" width="70.4453125" height="26" rx="5" ry="5" stroke="none"/><text xml:space="preserve" x="5" y="17.45703125" stroke="none" text-anchor="left" font-family="sans-serif" font-size="16" font-weight="normal" fill="#000000">KNOWS</text></g></g></g></g><g class="relationship"><g transform="translate(344.10778607865603 -103.34167290939268) rotate(144.64616318008265)" stroke-width="2" stroke="#000000"><path d="M 59 0 L 443.05219856001395 0"/><polygon points="-14.155129855222071,0 -15.727922061357857,5.242640687119286 0,0 -15.727922061357857,-5.242640687119286" fill="#000000" transform="translate(457.207328415236 0) rotate(0)" stroke="none"/></g><g transform="translate(139.3723409856325 41.90811208975097) rotate(324.6461631800826) translate(0 -13)"><g transform="translate(0 0)"><g transform="translate(-35.22265625 0)" fill="#ffffff" stroke="#000000" stroke-width="0"><rect x="0" y="0" width="70.4453125" height="26" rx="5" ry="5" stroke="none"/><text xml:space="preserve" x="5" y="17.45703125" stroke="none" text-anchor="left" font-family="sans-serif" font-size="16" font-weight="normal" fill="#000000">KNOWS</text></g></g></g></g><g class="relationship"><g transform="translate(344.10778607865603 -103.34167290939268) rotate(90)" stroke-width="2" stroke="#000000"><path d="M 59 0 L 222.28532170294915 0"/><polygon points="-14.155129855222071,0 -15.727922061357857,5.242640687119286 0,0 -15.727922061357857,-5.242640687119286" fill="#000000" transform="translate(236.44045155817122 0) rotate(0)" stroke="none"/></g><g transform="translate(344.10778607865603 37.30098794208189) rotate(270) translate(0 -13)"><g transform="translate(0 0)"><g transform="translate(-41.890625 0)" fill="#ffffff" stroke="#000000" stroke-width="0"><rect x="0" y="0" width="83.78125" height="26" rx="5" ry="5" stroke="none"/><text xml:space="preserve" x="5" y="17.45703125" stroke="none" text-anchor="left" font-family="sans-serif" font-size="16" font-weight="normal" fill="#000000">MARRIED</text></g></g></g></g><g class="node"><g fill="#ffffff" stroke="#006FD6" stroke-width="4"><circle cx="132" cy="-309" r="52"/></g><g transform="translate(132 -309)"><g transform="scale(0.6532967767358133) translate(0 -27)"><g transform="translate(0 0)"><g transform="translate(-63.369140625 0)"><g fill="#000000" stroke="#000000" stroke-width="4" font-family="sans-serif" font-size="40" font-weight="normal"><text xml:space="preserve" x="0" y="38.142578125" stroke="none">Person</text></g></g></g></g><g transform="translate(3.429011037612589e-15 56)"><g transform="translate(0 0)"><g transform="translate(-53.74609375 0)" fill="white"><rect x="0" y="0" width="107.4921875" height="57.599999999999994" rx="0" ry="0" stroke="none"/><g font-family="sans-serif" font-size="16" font-weight="normal" fill="#535B66" text-anchor="end"><text xml:space="preserve" x="48.9140625" y="14.05703125" stroke="none">name:</text><text xml:space="preserve" x="53.359375" y="14.05703125" stroke="none" text-anchor="start">'Alice'</text><text xml:space="preserve" x="48.9140625" y="33.25703125" stroke="none" text-anchor="end">age:</text><text xml:space="preserve" x="53.359375" y="33.25703125" stroke="none" text-anchor="start">38</text><text xml:space="preserve" x="48.9140625" y="52.45703125" stroke="none" text-anchor="end">eyes:</text><text xml:space="preserve" x="53.359375" y="52.45703125" stroke="none" text-anchor="start">'brown'</text></g></g></g></g></g></g><g class="node"><g fill="#ffffff" stroke="#006FD6" stroke-width="4"><circle cx="344.10778607865603" cy="-103.34167290939268" r="52"/></g><g transform="translate(344.10778607865603 -103.34167290939268)"><g transform="scale(0.6532967767358133) translate(0 -27)"><g transform="translate(0 0)"><g transform="translate(-63.369140625 0)"><g fill="#000000" stroke="#000000" stroke-width="4" font-family="sans-serif" font-size="40" font-weight="normal"><text xml:space="preserve" x="0" y="38.142578125" stroke="none">Person</text></g></g></g></g><g transform="translate(-56 -28.79999999999999)"><g transform="translate(0 0)"><g transform="translate(-114.6015625 0)" fill="white"><rect x="0" y="0" width="114.6015625" height="57.599999999999994" rx="0" ry="0" stroke="none"/><g font-family="sans-serif" font-size="16" font-weight="normal" fill="#535B66" text-anchor="end"><text xml:space="preserve" x="48.9140625" y="14.05703125" stroke="none">name:</text><text xml:space="preserve" x="53.359375" y="14.05703125" stroke="none" text-anchor="start">'Charlie'</text><text xml:space="preserve" x="48.9140625" y="33.25703125" stroke="none" text-anchor="end">age:</text><text xml:space="preserve" x="53.359375" y="33.25703125" stroke="none" text-anchor="start">53</text><text xml:space="preserve" x="48.9140625" y="52.45703125" stroke="none" text-anchor="end">eyes:</text><text xml:space="preserve" x="53.359375" y="52.45703125" stroke="none" text-anchor="start">'green'</text></g></g></g></g></g></g><g class="node"><g fill="#ffffff" stroke="#006FD6" stroke-width="4"><circle cx="-76.90794673359858" cy="-100.09205326640136" r="52"/></g><g transform="translate(-76.90794673359858 -100.09205326640136)"><g transform="scale(0.6532967767358133) translate(0 -27)"><g transform="translate(0 0)"><g transform="translate(-63.369140625 0)"><g fill="#000000" stroke="#000000" stroke-width="4" font-family="sans-serif" font-size="40" font-weight="normal"><text xml:space="preserve" x="0" y="38.142578125" stroke="none">Person</text></g></g></g></g><g transform="translate(56 -28.799999999999997)"><g transform="translate(0 0)"><g transform="translate(0 0)" fill="white"><rect x="0" y="0" width="94.1640625" height="57.599999999999994" rx="0" ry="0" stroke="none"/><g font-family="sans-serif" font-size="16" font-weight="normal" fill="#535B66" text-anchor="end"><text xml:space="preserve" x="48.9140625" y="14.05703125" stroke="none">name:</text><text xml:space="preserve" x="53.359375" y="14.05703125" stroke="none" text-anchor="start">'Bob'</text><text xml:space="preserve" x="48.9140625" y="33.25703125" stroke="none" text-anchor="end">age:</text><text xml:space="preserve" x="53.359375" y="33.25703125" stroke="none" text-anchor="start">25</text><text xml:space="preserve" x="48.9140625" y="52.45703125" stroke="none" text-anchor="end">eyes:</text><text xml:space="preserve" x="53.359375" y="52.45703125" stroke="none" text-anchor="start">'blue'</text></g></g></g></g></g></g><g class="node"><g fill="#ffffff" stroke="#006FD6" stroke-width="4"><circle cx="-76.90794673359858" cy="195.3483982917699" r="52"/></g><g transform="translate(-76.90794673359858 195.3483982917699)"><g transform="scale(0.6532967767358133) translate(0 -27)"><g transform="translate(0 0)"><g transform="translate(-63.369140625 0)"><g fill="#000000" stroke="#000000" stroke-width="4" font-family="sans-serif" font-size="40" font-weight="normal"><text xml:space="preserve" x="0" y="38.142578125" stroke="none">Person</text></g></g></g></g><g transform="translate(56 -19.2)"><g transform="translate(0 0)"><g transform="translate(0 0)" fill="white"><rect x="0" y="0" width="109.2734375" height="38.4" rx="0" ry="0" stroke="none"/><g font-family="sans-serif" font-size="16" font-weight="normal" fill="#535B66" text-anchor="end"><text xml:space="preserve" x="48.9140625" y="14.05703125" stroke="none">name:</text><text xml:space="preserve" x="53.359375" y="14.05703125" stroke="none" text-anchor="start">'Daniel'</text><text xml:space="preserve" x="48.9140625" y="33.25703125" stroke="none" text-anchor="end">eyes:</text><text xml:space="preserve" x="53.359375" y="33.25703125" stroke="none" text-anchor="start">'brown'</text></g></g></g></g></g></g><g class="node"><g fill="#ffffff" stroke="#006FD6" stroke-width="4"><circle cx="344.10778607865603" cy="192.09877864877853" r="52"/></g><g transform="translate(344.10778607865603 192.09877864877853)"><g transform="scale(0.6532967767358133) translate(0 -27)"><g transform="translate(0 0)"><g transform="translate(-63.369140625 0)"><g fill="#000000" stroke="#000000" stroke-width="4" font-family="sans-serif" font-size="40" font-weight="normal"><text xml:space="preserve" x="0" y="38.142578125" stroke="none">Person</text></g></g></g></g><g transform="translate(-56 -28.79999999999999)"><g transform="translate(0 0)"><g transform="translate(-97.6953125 0)" fill="white"><rect x="0" y="0" width="97.6953125" height="57.599999999999994" rx="0" ry="0" stroke="none"/><g font-family="sans-serif" font-size="16" font-weight="normal" fill="#535B66" text-anchor="end"><text xml:space="preserve" x="48.9140625" y="14.05703125" stroke="none">name:</text><text xml:space="preserve" x="53.359375" y="14.05703125" stroke="none" text-anchor="start">'Eskil'</text><text xml:space="preserve" x="48.9140625" y="33.25703125" stroke="none" text-anchor="end">age:</text><text xml:space="preserve" x="53.359375" y="33.25703125" stroke="none" text-anchor="start">41</text><text xml:space="preserve" x="48.9140625" y="52.45703125" stroke="none" text-anchor="end">eyes:</text><text xml:space="preserve" x="53.359375" y="52.45703125" stroke="none" text-anchor="start">'blue'</text></g></g></g></g></g></g></g></svg>
