<svg xmlns="http://www.w3.org/2000/svg" width="957" height="417" viewBox="0 0 957 417"><defs><style type="text/css"/></defs><g transform="translate(19.118773890178357 -125.11628128425363) scale(1)"><g class="relationship"><g transform="translate(96.89685110982164 181.11628128425363) rotate(0)" stroke-width="2" stroke="#000000"><path d="M 61 0 L 477.620471009664 0"/><polygon points="-14.155129855222071,0 -15.727922061357857,5.242640687119286 0,0 -15.727922061357857,-5.242640687119286" fill="#000000" transform="translate(491.7756008648861 0) rotate(0)" stroke="none"/></g><g transform="translate(366.20708661465363 181.11628128425363) rotate(0) translate(0 -22.6)"><g transform="translate(0 0)"><g transform="translate(-40.12109375 0)" fill="#ffffff" stroke="#000000" stroke-width="0"><rect x="0" y="0" width="80.2421875" height="26" rx="5" ry="5" stroke="none"/><text xml:space="preserve" x="5" y="17.45703125" stroke="none" text-anchor="left" font-family="sans-serif" font-size="16" font-weight="normal" fill="#000000">EMAILED</text></g></g><g transform="translate(0 26)"><g transform="translate(-187.59375 0)" fill="white"><rect x="0" y="0" width="375.1875" height="19.2" rx="0" ry="0" stroke="none"/><g font-family="sans-serif" font-size="16" font-weight="normal" fill="#535B66" text-anchor="end"><text xml:space="preserve" x="73.8125" y="14.05703125" stroke="none">message:</text><text xml:space="preserve" x="78.2578125" y="14.05703125" stroke="none" text-anchor="start">'I have booked a team meeting tomorrow'</text></g></g></g></g></g><g class="relationship"><g transform="translate(96.89685110982164 407.0428664668084) rotate(0)" stroke-width="2" stroke="#000000"><path d="M 61 0 L 477.620471009664 0"/><polygon points="-14.155129855222071,0 -15.727922061357857,5.242640687119286 0,0 -15.727922061357857,-5.242640687119286" fill="#000000" transform="translate(491.7756008648861 0) rotate(0)" stroke="none"/></g><g transform="translate(366.20708661465363 407.0428664668084) rotate(0) translate(0 -22.6)"><g transform="translate(0 0)"><g transform="translate(-47.671875 0)" fill="#ffffff" stroke="#000000" stroke-width="0"><rect x="0" y="0" width="95.34375" height="26" rx="5" ry="5" stroke="none"/><text xml:space="preserve" x="5" y="17.45703125" stroke="none" text-anchor="left" font-family="sans-serif" font-size="16" font-weight="normal" fill="#000000">REVIEWED</text></g></g><g transform="translate(0 26)"><g transform="translate(-158.26171875 0)" fill="white"><rect x="0" y="0" width="316.5234375" height="19.2" rx="0" ry="0" stroke="none"/><g font-family="sans-serif" font-size="16" font-weight="normal" fill="#535B66" text-anchor="end"><text xml:space="preserve" x="307.6328125" y="14.05703125" stroke="none">Nils-Erik is reportedly difficult to work with.:</text><text xml:space="preserve" x="312.078125" y="14.05703125" stroke="none" text-anchor="start"></text></g></g></g></g></g><g class="node"><g fill="#ffffff" stroke="#006FD6" stroke-width="6"><circle cx="96.89685110982164" cy="181.11628128425363" r="53"/></g><g transform="translate(96.89685110982164 181.11628128425363)"><g transform="scale(0.47340486416339095) translate(0 -27)"><g transform="translate(0 0)"><g transform="translate(-88.935546875 0)"><g fill="#000000" stroke="#000000" stroke-width="4" font-family="sans-serif" font-size="40" font-weight="normal"><text xml:space="preserve" x="0" y="38.142578125" stroke="none">Employee</text></g></g></g></g><g transform="translate(3.5514757175273244e-15 58)"><g transform="translate(0 0)"><g transform="translate(-96.890625 0)" fill="white"><rect x="0" y="0" width="193.78125" height="57.599999999999994" rx="0" ry="0" stroke="none"/><g font-family="sans-serif" font-size="16" font-weight="normal" fill="#535B66" text-anchor="end"><text xml:space="preserve" x="64.0390625" y="14.05703125" stroke="none">name:</text><text xml:space="preserve" x="68.484375" y="14.05703125" stroke="none" text-anchor="start">'Maya Tanaka'</text><text xml:space="preserve" x="64.0390625" y="33.25703125" stroke="none" text-anchor="end">position:</text><text xml:space="preserve" x="68.484375" y="33.25703125" stroke="none" text-anchor="start">'Senior Engineer'</text><text xml:space="preserve" x="64.0390625" y="52.45703125" stroke="none" text-anchor="end">team:</text><text xml:space="preserve" x="68.484375" y="52.45703125" stroke="none" text-anchor="start">'Operations'</text></g></g></g></g></g></g><g class="node"><g fill="#ffffff" stroke="#006FD6" stroke-width="6"><circle cx="96.89685110982164" cy="407.0428664668084" r="53"/></g><g transform="translate(96.89685110982164 407.0428664668084)"><g transform="scale(0.5274164304826392) translate(0 -27)"><g transform="translate(0 0)"><g transform="translate(-78.935546875 0)"><g fill="#000000" stroke="#000000" stroke-width="4" font-family="sans-serif" font-size="40" font-weight="normal"><text xml:space="preserve" x="0" y="38.142578125" stroke="none">Manager</text></g></g></g></g><g transform="translate(3.5514757175273244e-15 58)"><g transform="translate(0 0)"><g transform="translate(-116.015625 0)" fill="white"><rect x="0" y="0" width="232.03125" height="38.4" rx="0" ry="0" stroke="none"/><g font-family="sans-serif" font-size="16" font-weight="normal" fill="#535B66" text-anchor="end"><text xml:space="preserve" x="64.0390625" y="14.05703125" stroke="none">name:</text><text xml:space="preserve" x="68.484375" y="14.05703125" stroke="none" text-anchor="start">'Lisa Danielsson'</text><text xml:space="preserve" x="64.0390625" y="33.25703125" stroke="none" text-anchor="end">position:</text><text xml:space="preserve" x="68.484375" y="33.25703125" stroke="none" text-anchor="start">'Engineering manager'</text></g></g></g></g></g></g><g class="node"><g fill="#ffffff" stroke="#006FD6" stroke-width="6"><circle cx="649.6724519747078" cy="407.0428664668084" r="53"/></g><g transform="translate(649.6724519747078 407.0428664668084)"><g transform="scale(0.47340486416339095) translate(0 -27)"><g transform="translate(0 0)"><g transform="translate(-88.935546875 0)"><g fill="#000000" stroke="#000000" stroke-width="4" font-family="sans-serif" font-size="40" font-weight="normal"><text xml:space="preserve" x="0" y="38.142578125" stroke="none">Employee</text></g></g></g></g><g transform="translate(3.5514757175273244e-15 58)"><g transform="translate(0 0)"><g transform="translate(-287.51171875 0)" fill="white"><rect x="0" y="0" width="575.0234375" height="76.8" rx="0" ry="0" stroke="none"/><g font-family="sans-serif" font-size="16" font-weight="normal" fill="#535B66" text-anchor="end"><text xml:space="preserve" x="101.375" y="14.05703125" stroke="none">name:</text><text xml:space="preserve" x="105.8203125" y="14.05703125" stroke="none" text-anchor="start">'Nils-Erik Karlsson'</text><text xml:space="preserve" x="101.375" y="33.25703125" stroke="none" text-anchor="end">position:</text><text xml:space="preserve" x="105.8203125" y="33.25703125" stroke="none" text-anchor="start">'Engineer'</text><text xml:space="preserve" x="101.375" y="52.45703125" stroke="none" text-anchor="end">team:</text><text xml:space="preserve" x="105.8203125" y="52.45703125" stroke="none" text-anchor="start">'Kernel'</text><text xml:space="preserve" x="101.375" y="71.65703125" stroke="none" text-anchor="end">peerReviews:</text><text xml:space="preserve" x="105.8203125" y="71.65703125" stroke="none" text-anchor="start">['Nils-Erik is difficult to work with.', 'Nils-Erik is often late for work.']</text></g></g></g></g></g></g><g class="node"><g fill="#ffffff" stroke="#006FD6" stroke-width="6"><circle cx="649.6724519747078" cy="181.11628128425363" r="53"/></g><g transform="translate(649.6724519747078 181.11628128425363)"><g transform="scale(0.47340486416339095) translate(0 -27)"><g transform="translate(0 0)"><g transform="translate(-88.935546875 0)"><g fill="#000000" stroke="#000000" stroke-width="4" font-family="sans-serif" font-size="40" font-weight="normal"><text xml:space="preserve" x="0" y="38.142578125" stroke="none">Employee</text></g></g></g></g><g transform="translate(3.5514757175273244e-15 58)"><g transform="translate(0 0)"><g transform="translate(-93.76953125 0)" fill="white"><rect x="0" y="0" width="187.5390625" height="57.599999999999994" rx="0" ry="0" stroke="none"/><g font-family="sans-serif" font-size="16" font-weight="normal" fill="#535B66" text-anchor="end"><text xml:space="preserve" x="64.0390625" y="14.05703125" stroke="none">name:</text><text xml:space="preserve" x="68.484375" y="14.05703125" stroke="none" text-anchor="start">'Nils Johansson'</text><text xml:space="preserve" x="64.0390625" y="33.25703125" stroke="none" text-anchor="end">position:</text><text xml:space="preserve" x="68.484375" y="33.25703125" stroke="none" text-anchor="start">'Engineer'</text><text xml:space="preserve" x="64.0390625" y="52.45703125" stroke="none" text-anchor="end">team:</text><text xml:space="preserve" x="68.484375" y="52.45703125" stroke="none" text-anchor="start">'Operations'</text></g></g></g></g></g></g></g></svg>