<svg xmlns="http://www.w3.org/2000/svg" width="921" height="525" viewBox="0 0 921 525"><defs><style type="text/css"/></defs><g transform="translate(36.9921875 63.599999999999994) scale(1)"><g class="relationship"><g transform="translate(75 50) rotate(90)" stroke-width="2" stroke="#000000"><path d="M 54 0 L 229.05487542854797 0"/><polygon points="-14.155129855222071,0 -15.727922061357857,5.242640687119286 0,0 -15.727922061357857,-5.242640687119286" fill="#000000" transform="translate(243.21000528377004 0) rotate(0)" stroke="none"/></g><g transform="translate(75.00000000000001 191.527437714274) rotate(270) translate(0 -13)"><g transform="translate(0 0)"><g transform="translate(-35.22265625 0)" fill="#ffffff" stroke="#000000" stroke-width="0"><rect x="0" y="0" width="70.4453125" height="26" rx="5" ry="5" stroke="none"/><text xml:space="preserve" x="5" y="17.45703125" stroke="none" text-anchor="left" font-family="sans-serif" font-size="16" font-weight="normal" fill="#000000">KNOWS</text></g></g></g></g><g class="relationship"><g transform="translate(487.5977400351743 50) rotate(180)" stroke-width="2" stroke="#000000"><path d="M 59 0 L 339.4426101799522 0"/><polygon points="-14.155129855222071,0 -15.727922061357857,5.242640687119286 0,0 -15.727922061357857,-5.242640687119286" fill="#000000" transform="translate(353.5977400351743 0) rotate(0)" stroke="none"/></g><g transform="translate(288.3764349451982 50.00000000000002) rotate(360) translate(0 -13)"><g transform="translate(0 0)"><g transform="translate(-35.22265625 0)" fill="#ffffff" stroke="#000000" stroke-width="0"><rect x="0" y="0" width="70.4453125" height="26" rx="5" ry="5" stroke="none"/><text xml:space="preserve" x="5" y="17.45703125" stroke="none" text-anchor="left" font-family="sans-serif" font-size="16" font-weight="normal" fill="#000000">KNOWS</text></g></g></g></g><g class="relationship"><g transform="translate(487.5977400351743 50) rotate(90)" stroke-width="2" stroke="#000000"><path d="M 59 0 L 224.05487542854797 0"/><polygon points="-14.155129855222071,0 -15.727922061357857,5.242640687119286 0,0 -15.727922061357857,-5.242640687119286" fill="#000000" transform="translate(238.21000528377004 0) rotate(0)" stroke="none"/></g><g transform="translate(487.5977400351743 191.527437714274) rotate(270) translate(0 -13)"><g transform="translate(0 0)"><g transform="translate(-35.22265625 0)" fill="#ffffff" stroke="#000000" stroke-width="0"><rect x="0" y="0" width="70.4453125" height="26" rx="5" ry="5" stroke="none"/><text xml:space="preserve" x="5" y="17.45703125" stroke="none" text-anchor="left" font-family="sans-serif" font-size="16" font-weight="normal" fill="#000000">KNOWS</text></g></g></g></g><g class="relationship"><g transform="translate(487.5977400351743 347.21000528377004) rotate(180)" stroke-width="2" stroke="#000000"><path d="M 59 0 L 339.4426101799522 0"/><polygon points="-14.155129855222071,0 -15.727922061357857,5.242640687119286 0,0 -15.727922061357857,-5.242640687119286" fill="#000000" transform="translate(353.5977400351743 0) rotate(0)" stroke="none"/></g><g transform="translate(288.3764349451982 347.21000528377004) rotate(360) translate(0 -13)"><g transform="translate(0 0)"><g transform="translate(-35.22265625 0)" fill="#ffffff" stroke="#000000" stroke-width="0"><rect x="0" y="0" width="70.4453125" height="26" rx="5" ry="5" stroke="none"/><text xml:space="preserve" x="5" y="17.45703125" stroke="none" text-anchor="left" font-family="sans-serif" font-size="16" font-weight="normal" fill="#000000">KNOWS</text></g></g></g></g><g class="relationship"><g transform="translate(487.5977400351743 50) rotate(54.80828019892733)" stroke-width="2" stroke="#000000"><path d="M 59 0 L 290.52542778567505 0"/><polygon points="-14.155129855222071,0 -15.727922061357857,5.242640687119286 0,0 -15.727922061357857,-5.242640687119286" fill="#000000" transform="translate(304.6805576408971 0) rotate(0)" stroke="none"/></g><g transform="translate(588.3159770094387 192.8210170387598) rotate(54.80828019892733) translate(0 -13)"><g transform="translate(0 0)"><g transform="translate(-35.22265625 0)" fill="#ffffff" stroke="#000000" stroke-width="0"><rect x="0" y="0" width="70.4453125" height="26" rx="5" ry="5" stroke="none"/><text xml:space="preserve" x="5" y="17.45703125" stroke="none" text-anchor="left" font-family="sans-serif" font-size="16" font-weight="normal" fill="#000000">KNOWS</text></g></g></g></g><g class="relationship"><g transform="translate(487.5977400351743 50) rotate(137.90235248315392)" stroke-width="2" stroke="#000000"><path d="M 59 0 L 204.8744306038962 0"/><polygon points="-14.155129855222071,0 -15.727922061357857,5.242640687119286 0,0 -15.727922061357857,-5.242640687119286" fill="#000000" transform="translate(219.02956045911827 0) rotate(0)" stroke="none"/></g><g transform="translate(389.69988203362834 138.45020169757527) rotate(317.90235248315395) translate(0 -13)"><g transform="translate(0 0)"><g transform="translate(-44.5625 0)" fill="#ffffff" stroke="#000000" stroke-width="0"><rect x="0" y="0" width="89.125" height="26" rx="5" ry="5" stroke="none"/><text xml:space="preserve" x="5" y="17.45703125" stroke="none" text-anchor="left" font-family="sans-serif" font-size="16" font-weight="normal" fill="#000000">ACTED_IN</text></g></g></g></g><g class="relationship"><g transform="translate(75 50) rotate(42.09764751684608)" stroke-width="2" stroke="#000000"><path d="M 59 0 L 204.8744306038962 0"/><polygon points="-14.155129855222071,0 -15.727922061357857,5.242640687119286 0,0 -15.727922061357857,-5.242640687119286" fill="#000000" transform="translate(219.02956045911827 0) rotate(0)" stroke="none"/></g><g transform="translate(172.89785800154598 138.45020169757527) rotate(42.09764751684608) translate(0 -13)"><g transform="translate(0 0)"><g transform="translate(-44.5625 0)" fill="#ffffff" stroke="#000000" stroke-width="0"><rect x="0" y="0" width="89.125" height="26" rx="5" ry="5" stroke="none"/><text xml:space="preserve" x="5" y="17.45703125" stroke="none" text-anchor="left" font-family="sans-serif" font-size="16" font-weight="normal" fill="#000000">ACTED_IN</text></g></g></g></g><g class="relationship"><g transform="translate(697.1920165916091 347.21000528377004) rotate(-65.95691992382763)" stroke-width="2" stroke="#000000"><path d="M 59 0 L 252.2907633686791 0"/><polygon points="-14.155129855222071,0 -15.727922061357857,5.242640687119286 0,0 -15.727922061357857,-5.242640687119286" fill="#000000" transform="translate(266.4458932239012 0) rotate(0)" stroke="none"/></g><g transform="translate(760.6055892114571 205.06851363811785) rotate(-65.95691992382763) translate(0 -13)"><g transform="translate(0 0)"><g transform="translate(-35.22265625 0)" fill="#ffffff" stroke="#000000" stroke-width="0"><rect x="0" y="0" width="70.4453125" height="26" rx="5" ry="5" stroke="none"/><text xml:space="preserve" x="5" y="17.45703125" stroke="none" text-anchor="left" font-family="sans-serif" font-size="16" font-weight="normal" fill="#000000">KNOWS</text></g></g></g></g><g class="node"><g fill="#ffffff" stroke="#006FD6" stroke-width="4"><circle cx="75" cy="347.21000528377004" r="52"/></g><g transform="translate(75 347.21000528377004)"><g transform="scale(0.6532967767358133) translate(0 -27)"><g transform="translate(0 0)"><g transform="translate(-63.369140625 0)"><g fill="#000000" stroke="#000000" stroke-width="4" font-family="sans-serif" font-size="40" font-weight="normal"><text xml:space="preserve" x="0" y="38.142578125" stroke="none">Person</text></g></g></g></g><g transform="translate(39.59797974644666 39.597979746446654)"><g transform="translate(0 0)"><g transform="translate(0 0)" fill="white"><rect x="0" y="0" width="180.421875" height="57.599999999999994" rx="0" ry="0" stroke="none"/><g font-family="sans-serif" font-size="16" font-weight="normal" fill="#535B66" text-anchor="end"><text xml:space="preserve" x="80.9375" y="14.05703125" stroke="none">name:</text><text xml:space="preserve" x="85.3828125" y="14.05703125" stroke="none" text-anchor="start">'Guy Pearce'</text><text xml:space="preserve" x="80.9375" y="33.25703125" stroke="none" text-anchor="end">age:</text><text xml:space="preserve" x="85.3828125" y="33.25703125" stroke="none" text-anchor="start">55</text><text xml:space="preserve" x="80.9375" y="52.45703125" stroke="none" text-anchor="end">nationality:</text><text xml:space="preserve" x="85.3828125" y="52.45703125" stroke="none" text-anchor="start">'Australian</text></g></g></g></g></g></g><g class="node"><g fill="#ffffff" stroke="#006FD6" stroke-width="4"><circle cx="75" cy="50" r="52"/></g><g transform="translate(75 50)"><g transform="scale(0.6532967767358133) translate(0 -27)"><g transform="translate(0 0)"><g transform="translate(-63.369140625 0)"><g fill="#000000" stroke="#000000" stroke-width="4" font-family="sans-serif" font-size="40" font-weight="normal"><text xml:space="preserve" x="0" y="38.142578125" stroke="none">Person</text></g></g></g></g><g transform="translate(3.429011037612589e-15 -113.6)"><g transform="translate(0 0)"><g transform="translate(-111.9921875 0)" fill="white"><rect x="0" y="0" width="223.984375" height="57.599999999999994" rx="0" ry="0" stroke="none"/><g font-family="sans-serif" font-size="16" font-weight="normal" fill="#535B66" text-anchor="end"><text xml:space="preserve" x="80.9375" y="14.05703125" stroke="none">name:</text><text xml:space="preserve" x="85.3828125" y="14.05703125" stroke="none" text-anchor="start">'Carrie Anne Moss'</text><text xml:space="preserve" x="80.9375" y="33.25703125" stroke="none" text-anchor="end">age:</text><text xml:space="preserve" x="85.3828125" y="33.25703125" stroke="none" text-anchor="start">55</text><text xml:space="preserve" x="80.9375" y="52.45703125" stroke="none" text-anchor="end">nationality:</text><text xml:space="preserve" x="85.3828125" y="52.45703125" stroke="none" text-anchor="start">'American'</text></g></g></g></g></g></g><g class="node"><g fill="#ffffff" stroke="#006FD6" stroke-width="4"><circle cx="487.5977400351743" cy="50" r="52"/></g><g transform="translate(487.5977400351743 50)"><g transform="scale(0.6532967767358133) translate(0 -27)"><g transform="translate(0 0)"><g transform="translate(-63.369140625 0)"><g fill="#000000" stroke="#000000" stroke-width="4" font-family="sans-serif" font-size="40" font-weight="normal"><text xml:space="preserve" x="0" y="38.142578125" stroke="none">Person</text></g></g></g></g><g transform="translate(-39.597979746446654 -97.19797974644666)"><g transform="translate(0 0)"><g transform="translate(-200.8984375 0)" fill="white"><rect x="0" y="0" width="200.8984375" height="57.599999999999994" rx="0" ry="0" stroke="none"/><g font-family="sans-serif" font-size="16" font-weight="normal" fill="#535B66" text-anchor="end"><text xml:space="preserve" x="80.9375" y="14.05703125" stroke="none">name:</text><text xml:space="preserve" x="85.3828125" y="14.05703125" stroke="none" text-anchor="start">'Keanu Reeves'</text><text xml:space="preserve" x="80.9375" y="33.25703125" stroke="none" text-anchor="end">age:</text><text xml:space="preserve" x="85.3828125" y="33.25703125" stroke="none" text-anchor="start">58</text><text xml:space="preserve" x="80.9375" y="52.45703125" stroke="none" text-anchor="end">nationality:</text><text xml:space="preserve" x="85.3828125" y="52.45703125" stroke="none" text-anchor="start">'Canadian'</text></g></g></g></g></g></g><g class="node"><g fill="#ffffff" stroke="#006FD6" stroke-width="4"><circle cx="487.5977400351743" cy="347.21000528377004" r="52"/></g><g transform="translate(487.5977400351743 347.21000528377004)"><g transform="scale(0.6532967767358133) translate(0 -27)"><g transform="translate(0 0)"><g transform="translate(-63.369140625 0)"><g fill="#000000" stroke="#000000" stroke-width="4" font-family="sans-serif" font-size="40" font-weight="normal"><text xml:space="preserve" x="0" y="38.142578125" stroke="none">Person</text></g></g></g></g><g transform="translate(3.429011037612589e-15 56)"><g transform="translate(0 0)"><g transform="translate(-96.4296875 0)" fill="white"><rect x="0" y="0" width="192.859375" height="57.599999999999994" rx="0" ry="0" stroke="none"/><g font-family="sans-serif" font-size="16" font-weight="normal" fill="#535B66" text-anchor="end"><text xml:space="preserve" x="80.9375" y="14.05703125" stroke="none">name:</text><text xml:space="preserve" x="85.3828125" y="14.05703125" stroke="none" text-anchor="start">'Liam Neeson'</text><text xml:space="preserve" x="80.9375" y="33.25703125" stroke="none" text-anchor="end">age:</text><text xml:space="preserve" x="85.3828125" y="33.25703125" stroke="none" text-anchor="start">70</text><text xml:space="preserve" x="80.9375" y="52.45703125" stroke="none" text-anchor="end">nationality:</text><text xml:space="preserve" x="85.3828125" y="52.45703125" stroke="none" text-anchor="start">'Northern Irish'</text></g></g></g></g></g></g><g class="node"><g fill="#ffffff" stroke="#006FD6" stroke-width="4"><circle cx="697.1920165916091" cy="347.21000528377004" r="52"/></g><g transform="translate(697.1920165916091 347.21000528377004)"><g transform="scale(0.6532967767358133) translate(0 -27)"><g transform="translate(0 0)"><g transform="translate(-63.369140625 0)"><g fill="#000000" stroke="#000000" stroke-width="4" font-family="sans-serif" font-size="40" font-weight="normal"><text xml:space="preserve" x="0" y="38.142578125" stroke="none">Person</text></g></g></g></g><g transform="translate(3.429011037612589e-15 56)"><g transform="translate(0 0)"><g transform="translate(-105.77734375 0)" fill="white"><rect x="0" y="0" width="211.5546875" height="57.599999999999994" rx="0" ry="0" stroke="none"/><g font-family="sans-serif" font-size="16" font-weight="normal" fill="#535B66" text-anchor="end"><text xml:space="preserve" x="80.9375" y="14.05703125" stroke="none">name:</text><text xml:space="preserve" x="85.3828125" y="14.05703125" stroke="none" text-anchor="start">'Kathryn Bigelow'</text><text xml:space="preserve" x="80.9375" y="33.25703125" stroke="none" text-anchor="end">age:</text><text xml:space="preserve" x="85.3828125" y="33.25703125" stroke="none" text-anchor="start">71</text><text xml:space="preserve" x="80.9375" y="52.45703125" stroke="none" text-anchor="end">nationality:</text><text xml:space="preserve" x="85.3828125" y="52.45703125" stroke="none" text-anchor="start">'American'</text></g></g></g></g></g></g><g class="node"><g fill="#ffffff" stroke="#006FD6" stroke-width="4"><circle cx="281.29887001758715" cy="236.3899480083547" r="52"/></g><g transform="translate(281.29887001758715 236.3899480083547)"><g transform="scale(0.7525987763434394) translate(0 -27)"><g transform="translate(0 0)"><g transform="translate(-53.349609375 0)"><g fill="#000000" stroke="#000000" stroke-width="4" font-family="sans-serif" font-size="40" font-weight="normal"><text xml:space="preserve" x="0" y="38.142578125" stroke="none">Movie</text></g></g></g></g><g transform="translate(3.429011037612589e-15 56)"><g transform="translate(0 0)"><g transform="translate(-62.1796875 0)" fill="white"><rect x="0" y="0" width="124.359375" height="19.2" rx="0" ry="0" stroke="none"/><g font-family="sans-serif" font-size="16" font-weight="normal" fill="#535B66" text-anchor="end"><text xml:space="preserve" x="33.7890625" y="14.05703125" stroke="none">title:</text><text xml:space="preserve" x="38.234375" y="14.05703125" stroke="none" text-anchor="start">'The Matrix'</text></g></g></g></g></g></g><g class="node"><g fill="#ffffff" stroke="#006FD6" stroke-width="4"><circle cx="829.7862931480437" cy="50" r="52"/></g><g transform="translate(829.7862931480437 50)"><g transform="scale(0.6532967767358133) translate(0 -27)"><g transform="translate(0 0)"><g transform="translate(-63.369140625 0)"><g fill="#000000" stroke="#000000" stroke-width="4" font-family="sans-serif" font-size="40" font-weight="normal"><text xml:space="preserve" x="0" y="38.142578125" stroke="none">Person</text></g></g></g></g><g transform="translate(-39.597979746446654 -97.19797974644666)"><g transform="translate(0 0)"><g transform="translate(-201.7578125 0)" fill="white"><rect x="0" y="0" width="201.7578125" height="57.599999999999994" rx="0" ry="0" stroke="none"/><g font-family="sans-serif" font-size="16" font-weight="normal" fill="#535B66" text-anchor="end"><text xml:space="preserve" x="65.8125" y="14.05703125" stroke="none">name:</text><text xml:space="preserve" x="70.2578125" y="14.05703125" stroke="none" text-anchor="start">'Jessica Chastain'</text><text xml:space="preserve" x="65.8125" y="33.25703125" stroke="none" text-anchor="end">age:</text><text xml:space="preserve" x="70.2578125" y="33.25703125" stroke="none" text-anchor="start">45</text><text xml:space="preserve" x="65.8125" y="52.45703125" stroke="none" text-anchor="end">address:</text><text xml:space="preserve" x="70.2578125" y="52.45703125" stroke="none" text-anchor="start"></text></g></g></g></g></g></g></g></svg>