<svg xmlns="http://www.w3.org/2000/svg" width="517" height="428" viewBox="0 0 517 428"><defs><style type="text/css"/></defs><g transform="translate(100.05859375 74.2) scale(1)"><g class="relationship"><g transform="translate(0 7.498798913309288e-33) rotate(23.317708386755065)" stroke-width="2" stroke="#000000"><path d="M 58 0 L 306.796054336093 0"/><polygon points="-14.155129855222071,0 -15.727922061357857,5.242640687119286 0,0 -15.727922061357857,-5.242640687119286" fill="#000000" transform="translate(320.95118419131506 0) rotate(0)" stroke="none"/></g><g transform="translate(167.50050165415186 72.19849209230684) rotate(23.317708386755065) translate(0 -13)"><g transform="translate(0 0)"><g transform="translate(-44.5625 0)" fill="#ffffff" stroke="#000000" stroke-width="0"><rect x="0" y="0" width="89.125" height="26" rx="5" ry="5" stroke="none"/><text xml:space="preserve" x="5" y="17.45703125" stroke="none" text-anchor="left" font-family="sans-serif" font-size="16" font-weight="normal" fill="#000000">ACTED_IN</text></g></g></g></g><g class="relationship"><g transform="translate(0 150) rotate(0)" stroke-width="2" stroke="#000000"><path d="M 58 0 L 275.84487014477793 0"/><polygon points="-14.155129855222071,0 -15.727922061357857,5.242640687119286 0,0 -15.727922061357857,-5.242640687119286" fill="#000000" transform="translate(290 0) rotate(0)" stroke="none"/></g><g transform="translate(166.92243507238896 150) rotate(0) translate(0 -13)"><g transform="translate(0 0)"><g transform="translate(-44.5625 0)" fill="#ffffff" stroke="#000000" stroke-width="0"><rect x="0" y="0" width="89.125" height="26" rx="5" ry="5" stroke="none"/><text xml:space="preserve" x="5" y="17.45703125" stroke="none" text-anchor="left" font-family="sans-serif" font-size="16" font-weight="normal" fill="#000000">ACTED_IN</text></g></g></g></g><g class="relationship"><g transform="translate(0 300) rotate(-23.317708386755065)" stroke-width="2" stroke="#000000"><path d="M 58 0 L 306.796054336093 0"/><polygon points="-14.155129855222071,0 -15.727922061357857,5.242640687119286 0,0 -15.727922061357857,-5.242640687119286" fill="#000000" transform="translate(320.95118419131506 0) rotate(0)" stroke="none"/></g><g transform="translate(167.50050165415186 227.80150790769318) rotate(-23.317708386755065) translate(0 -13)"><g transform="translate(0 0)"><g transform="translate(-44.5625 0)" fill="#ffffff" stroke="#000000" stroke-width="0"><rect x="0" y="0" width="89.125" height="26" rx="5" ry="5" stroke="none"/><text xml:space="preserve" x="5" y="17.45703125" stroke="none" text-anchor="left" font-family="sans-serif" font-size="16" font-weight="normal" fill="#000000">ACTED_IN</text></g></g></g></g><g class="node"><g fill="#ffffff" stroke="#006FD6" stroke-width="3"><circle cx="0" cy="7.498798913309288e-33" r="51.5"/></g><g transform="translate(0 7.498798913309288e-33)"><g transform="scale(0.6532967767358133) translate(0 -27)"><g transform="translate(0 0)"><g transform="translate(-63.369140625 0)"><g fill="#000000" stroke="#000000" stroke-width="4" font-family="sans-serif" font-size="40" font-weight="normal"><text xml:space="preserve" x="0" y="38.142578125" stroke="none">Person</text></g></g></g></g><g transform="translate(3.3677786976552213e-15 -74.2)"><g transform="translate(0 0)"><g transform="translate(-81.3828125 0)" fill="white"><rect x="0" y="0" width="162.765625" height="19.2" rx="0" ry="0" stroke="none"/><g font-family="sans-serif" font-size="16" font-weight="normal" fill="#666666" text-anchor="end"><text xml:space="preserve" x="48.9140625" y="14.05703125" stroke="none">name:</text><text xml:space="preserve" x="53.359375" y="14.05703125" stroke="none" text-anchor="start">Keanu Reeves</text></g></g></g></g></g></g><g class="node"><g fill="#ffffff" stroke="#006FD6" stroke-width="3"><circle cx="0" cy="300" r="51.5"/></g><g transform="translate(0 300)"><g transform="scale(0.6532967767358133) translate(0 -27)"><g transform="translate(0 0)"><g transform="translate(-63.369140625 0)"><g fill="#000000" stroke="#000000" stroke-width="4" font-family="sans-serif" font-size="40" font-weight="normal"><text xml:space="preserve" x="0" y="38.142578125" stroke="none">Person</text></g></g></g></g><g transform="translate(3.3677786976552213e-15 -74.2)"><g transform="translate(0 0)"><g transform="translate(-100.05859375 0)" fill="white"><rect x="0" y="0" width="200.1171875" height="19.2" rx="0" ry="0" stroke="none"/><g font-family="sans-serif" font-size="16" font-weight="normal" fill="#666666" text-anchor="end"><text xml:space="preserve" x="48.9140625" y="14.05703125" stroke="none">name:</text><text xml:space="preserve" x="53.359375" y="14.05703125" stroke="none" text-anchor="start">Laurence Fishburne</text></g></g></g></g></g></g><g class="node"><g fill="#ffffff" stroke="#006FD6" stroke-width="3"><circle cx="348" cy="150" r="51.5"/></g><g transform="translate(348 150)"><g transform="scale(0.7525987763434394) translate(0 -27)"><g transform="translate(0 0)"><g transform="translate(-53.349609375 0)"><g fill="#000000" stroke="#000000" stroke-width="4" font-family="sans-serif" font-size="40" font-weight="normal"><text xml:space="preserve" x="0" y="38.142578125" stroke="none">Movie</text></g></g></g></g><g transform="translate(3.3677786976552213e-15 -74.2)"><g transform="translate(0 0)"><g transform="translate(-59.125 0)" fill="white"><rect x="0" y="0" width="118.25" height="19.2" rx="0" ry="0" stroke="none"/><g font-family="sans-serif" font-size="16" font-weight="normal" fill="#666666" text-anchor="end"><text xml:space="preserve" x="33.7890625" y="14.05703125" stroke="none">title:</text><text xml:space="preserve" x="38.234375" y="14.05703125" stroke="none" text-anchor="start">The Matrix</text></g></g></g></g></g></g><g class="node"><g fill="#ffffff" stroke="#006FD6" stroke-width="3"><circle cx="0" cy="150" r="51.5"/></g><g transform="translate(0 150)"><g transform="scale(0.6532967767358133) translate(0 -27)"><g transform="translate(0 0)"><g transform="translate(-63.369140625 0)"><g fill="#000000" stroke="#000000" stroke-width="4" font-family="sans-serif" font-size="40" font-weight="normal"><text xml:space="preserve" x="0" y="38.142578125" stroke="none">Person</text></g></g></g></g><g transform="translate(3.3677786976552213e-15 -74.2)"><g transform="translate(0 0)"><g transform="translate(-93.3671875 0)" fill="white"><rect x="0" y="0" width="186.734375" height="19.2" rx="0" ry="0" stroke="none"/><g font-family="sans-serif" font-size="16" font-weight="normal" fill="#666666" text-anchor="end"><text xml:space="preserve" x="48.9140625" y="14.05703125" stroke="none">name:</text><text xml:space="preserve" x="53.359375" y="14.05703125" stroke="none" text-anchor="start">Carrie-Anne Moss</text></g></g></g></g></g></g><g class="node"><g fill="#ffffff" stroke="#006FD6" stroke-width="3"><circle cx="348" cy="0" r="51.5"/></g><g transform="translate(348 0)"><g transform="scale(0.6532967767358133) translate(0 -27)"><g transform="translate(0 0)"><g transform="translate(-63.369140625 0)"><g fill="#000000" stroke="#000000" stroke-width="4" font-family="sans-serif" font-size="40" font-weight="normal"><text xml:space="preserve" x="0" y="38.142578125" stroke="none">Person</text></g></g></g></g><g transform="translate(3.3677786976552213e-15 -74.2)"><g transform="translate(0 0)"><g transform="translate(-68.9140625 0)" fill="white"><rect x="0" y="0" width="137.828125" height="19.2" rx="0" ry="0" stroke="none"/><g font-family="sans-serif" font-size="16" font-weight="normal" fill="#666666" text-anchor="end"><text xml:space="preserve" x="48.9140625" y="14.05703125" stroke="none">name:</text><text xml:space="preserve" x="53.359375" y="14.05703125" stroke="none" text-anchor="start">Tom Hanks</text></g></g></g></g></g></g></g></svg>