<svg xmlns="http://www.w3.org/2000/svg" width="577" height="304" viewBox="0 0 577 304"><defs><style type="text/css"/></defs><g transform="translate(141.24479784480795 -67.14717866949614) scale(1)"><g class="relationship"><g transform="translate(-76.97477831355795 139.94717866949614) rotate(38.563570980283046)" stroke-width="2" stroke="#000000"><path d="M 59 0 L 210.69492591092336 0"/><polygon points="-14.155129855222071,0 -15.727922061357857,5.242640687119286 0,0 -15.727922061357857,-5.242640687119286" fill="#000000" transform="translate(224.85005576614543 0) rotate(0)" stroke="none"/></g><g transform="translate(28.46474281995782 224.0087373551373) rotate(38.563570980283046) translate(0 -13)"><g transform="translate(0 0)"><g transform="translate(-44.5625 0)" fill="#ffffff" stroke="#000000" stroke-width="0"><rect x="0" y="0" width="89.125" height="26" rx="5" ry="5" stroke="none"/><text xml:space="preserve" x="5" y="17.45703125" stroke="none" text-anchor="left" font-family="sans-serif" font-size="16" font-weight="normal" fill="#000000">ACTED_IN</text></g></g></g></g><g class="relationship"><g transform="translate(366.9195790254344 139.94717866949614) rotate(141.43642901971697)" stroke-width="2" stroke="#000000"><path d="M 59 0 L 210.69492591092336 0"/><polygon points="-14.155129855222071,0 -15.727922061357857,5.242640687119286 0,0 -15.727922061357857,-5.242640687119286" fill="#000000" transform="translate(224.85005576614543 0) rotate(0)" stroke="none"/></g><g transform="translate(261.48005789191865 224.00873735513733) rotate(321.43642901971697) translate(0 -13)"><g transform="translate(0 0)"><g transform="translate(-44.5625 0)" fill="#ffffff" stroke="#000000" stroke-width="0"><rect x="0" y="0" width="89.125" height="26" rx="5" ry="5" stroke="none"/><text xml:space="preserve" x="5" y="17.45703125" stroke="none" text-anchor="left" font-family="sans-serif" font-size="16" font-weight="normal" fill="#000000">ACTED_IN</text></g></g></g></g><g class="node"><g fill="#ffffff" stroke="#006FD6" stroke-width="4"><circle cx="-76.97477831355795" cy="139.94717866949614" r="52"/></g><g transform="translate(-76.97477831355795 139.94717866949614)"><g transform="scale(0.834479781309992) translate(0 -27)"><g transform="translate(0 0)"><g transform="translate(-46.6796875 0)"><g fill="#000000" stroke="#000000" stroke-width="4" font-family="sans-serif" font-size="40" font-weight="normal"><text xml:space="preserve" x="0" y="38.142578125" stroke="none">Actor</text></g></g></g></g><g transform="translate(3.429011037612589e-15 -71.6)"><g transform="translate(0 0)"><g transform="translate(-64.27001953125 0)" fill="white"><rect x="0" y="0" width="128.5400390625" height="15.6" rx="0" ry="0" stroke="none"/><g font-family="sans-serif" font-size="13" font-weight="normal" fill="#535B66" text-anchor="end"><text xml:space="preserve" x="39.74267578125" y="11.421337890625" stroke="none">name:</text><text xml:space="preserve" x="43.3544921875" y="11.421337890625" stroke="none" text-anchor="start">'Johnny Depp'</text></g></g></g></g></g></g><g class="node"><g fill="#ffffff" stroke="#006FD6" stroke-width="4"><circle cx="366.9195790254344" cy="139.94717866949614" r="52"/></g><g transform="translate(366.9195790254344 139.94717866949614)"><g transform="scale(0.7170349649992406) translate(0 -30.5)"><g transform="translate(0 0)"><g transform="translate(-54.8486328125 0)"><g fill="#000000" stroke="#000000" stroke-width="4" font-family="sans-serif" font-size="47" font-weight="normal"><text xml:space="preserve" x="0" y="43.592529296875" stroke="none">Actor</text></g></g></g></g><g transform="translate(3.429011037612589e-15 -72.8)"><g transform="translate(0 0)"><g transform="translate(-68.03125 0)" fill="white"><rect x="0" y="0" width="136.0625" height="16.8" rx="0" ry="0" stroke="none"/><g font-family="sans-serif" font-size="14" font-weight="normal" fill="#535B66" text-anchor="end"><text xml:space="preserve" x="42.7998046875" y="12.29990234375" stroke="none">name:</text><text xml:space="preserve" x="46.689453125" y="12.29990234375" stroke="none" text-anchor="start">'Helen Mirren'</text></g></g></g></g></g></g><g class="node"><g fill="#ffffff" stroke="#006FD6" stroke-width="4"><circle cx="144.97240035593822" cy="316.89435733899234" r="52"/></g><g transform="translate(144.97240035593822 316.89435733899234)"><g transform="scale(0.6455132697390471) translate(0 -30.5)"><g transform="translate(0 0)"><g transform="translate(-62.685791015625 0)"><g fill="#000000" stroke="#000000" stroke-width="4" font-family="sans-serif" font-size="47" font-weight="normal"><text xml:space="preserve" x="0" y="43.592529296875" stroke="none">Movie</text></g></g></g></g><g transform="translate(3.429011037612589e-15 -72.8)"><g transform="translate(0 0)"><g transform="translate(-53.8671875 0)" fill="white"><rect x="0" y="0" width="107.734375" height="16.8" rx="0" ry="0" stroke="none"/><g font-family="sans-serif" font-size="14" font-weight="normal" fill="#535B66" text-anchor="end"><text xml:space="preserve" x="42.7998046875" y="12.29990234375" stroke="none">name:</text><text xml:space="preserve" x="46.689453125" y="12.29990234375" stroke="none" text-anchor="start">'Ed wood</text></g></g></g></g></g></g><g class="node"><g fill="#ffffff" stroke="#006FD6" stroke-width="4"><circle cx="366.9195790254344" cy="316.89435733899234" r="52"/></g><g transform="translate(366.9195790254344 316.89435733899234)"><g transform="scale(0.4343024402005625) translate(0 -63)"><g transform="translate(0 0)"><g transform="translate(-54.8486328125 0)"><g fill="#000000" stroke="#000000" stroke-width="4" font-family="sans-serif" font-size="47" font-weight="normal"><text xml:space="preserve" x="0" y="43.592529296875" stroke="none">Actor</text></g></g><g transform="translate(-82.261474609375 69)"><g fill="#000000" stroke="#000000" stroke-width="4" font-family="sans-serif" font-size="47" font-weight="normal"><text xml:space="preserve" x="0" y="43.592529296875" stroke="none">Director</text></g></g></g></g><g transform="translate(3.429011037612589e-15 -72.8)"><g transform="translate(0 0)"><g transform="translate(-56.63232421875 0)" fill="white"><rect x="0" y="0" width="113.2646484375" height="16.8" rx="0" ry="0" stroke="none"/><g font-family="sans-serif" font-size="14" font-weight="normal" fill="#535B66" text-anchor="end"><text xml:space="preserve" x="42.7998046875" y="12.29990234375" stroke="none">name:</text><text xml:space="preserve" x="46.689453125" y="12.29990234375" stroke="none" text-anchor="start">'Ed Wood'</text></g></g></g></g></g></g></g></svg>