<?xml version="1.0" encoding="UTF-8" standalone="no"?>
<!DOCTYPE svg PUBLIC "-//W3C//DTD SVG 1.1//EN"
 "http://www.w3.org/Graphics/SVG/1.1/DTD/svg11.dtd">
<!-- Generated by graphviz version 2.49.3 (20211027.1534)
 -->
<!-- Title: L Pages: 1 -->
<svg width="938pt" height="55pt"
 viewBox="0.00 0.00 938.00 55.00" xmlns="http://www.w3.org/2000/svg" xmlns:xlink="http://www.w3.org/1999/xlink">
<g id="graph0" class="graph" transform="scale(1 1) rotate(0) translate(4 51)">
<title>L</title>
<polygon fill="white" stroke="transparent" points="-4,4 -4,-51 934,-51 934,4 -4,4"/>
<!-- N0 -->
<g id="node1" class="node">
<title>N0</title>
<path fill="none" stroke="black" d="M12,-0.5C12,-0.5 85,-0.5 85,-0.5 91,-0.5 97,-6.5 97,-12.5 97,-12.5 97,-34.5 97,-34.5 97,-40.5 91,-46.5 85,-46.5 85,-46.5 12,-46.5 12,-46.5 6,-46.5 0,-40.5 0,-34.5 0,-34.5 0,-12.5 0,-12.5 0,-6.5 6,-0.5 12,-0.5"/>
<text text-anchor="middle" x="48.5" y="-31.3" font-family="Times,serif" font-size="14.00">A</text>
<polyline fill="none" stroke="black" points="0,-23.5 97,-23.5 "/>
<text text-anchor="start" x="8" y="-8.3" font-family="Times,serif" font-size="14.00">name = &#39;Alice&#39;</text>
</g>
<!-- N1 -->
<g id="node2" class="node">
<title>N1</title>
<path fill="none" stroke="black" d="M127.5,-0.5C127.5,-0.5 193.5,-0.5 193.5,-0.5 199.5,-0.5 205.5,-6.5 205.5,-12.5 205.5,-12.5 205.5,-34.5 205.5,-34.5 205.5,-40.5 199.5,-46.5 193.5,-46.5 193.5,-46.5 127.5,-46.5 127.5,-46.5 121.5,-46.5 115.5,-40.5 115.5,-34.5 115.5,-34.5 115.5,-12.5 115.5,-12.5 115.5,-6.5 121.5,-0.5 127.5,-0.5"/>
<text text-anchor="middle" x="160.5" y="-31.3" font-family="Times,serif" font-size="14.00">B</text>
<polyline fill="none" stroke="black" points="115.5,-23.5 205.5,-23.5 "/>
<text text-anchor="start" x="123.5" y="-8.3" font-family="Times,serif" font-size="14.00">name = &#39;Bob&#39;</text>
</g>
<!-- N2 -->
<g id="node3" class="node">
<title>N2</title>
<path fill="none" stroke="black" d="M235.5,-0.5C235.5,-0.5 319.5,-0.5 319.5,-0.5 325.5,-0.5 331.5,-6.5 331.5,-12.5 331.5,-12.5 331.5,-34.5 331.5,-34.5 331.5,-40.5 325.5,-46.5 319.5,-46.5 319.5,-46.5 235.5,-46.5 235.5,-46.5 229.5,-46.5 223.5,-40.5 223.5,-34.5 223.5,-34.5 223.5,-12.5 223.5,-12.5 223.5,-6.5 229.5,-0.5 235.5,-0.5"/>
<text text-anchor="middle" x="277.5" y="-31.3" font-family="Times,serif" font-size="14.00">C</text>
<polyline fill="none" stroke="black" points="223.5,-23.5 331.5,-23.5 "/>
<text text-anchor="start" x="231.5" y="-8.3" font-family="Times,serif" font-size="14.00">name = &#39;Charlie&#39;</text>
</g>
<!-- N3 -->
<g id="node4" class="node">
<title>N3</title>
<path fill="none" stroke="black" d="M361.5,-0.5C361.5,-0.5 441.5,-0.5 441.5,-0.5 447.5,-0.5 453.5,-6.5 453.5,-12.5 453.5,-12.5 453.5,-34.5 453.5,-34.5 453.5,-40.5 447.5,-46.5 441.5,-46.5 441.5,-46.5 361.5,-46.5 361.5,-46.5 355.5,-46.5 349.5,-40.5 349.5,-34.5 349.5,-34.5 349.5,-12.5 349.5,-12.5 349.5,-6.5 355.5,-0.5 361.5,-0.5"/>
<text text-anchor="middle" x="401.5" y="-31.3" font-family="Times,serif" font-size="14.00">A, B</text>
<polyline fill="none" stroke="black" points="349.5,-23.5 453.5,-23.5 "/>
<text text-anchor="start" x="357.5" y="-8.3" font-family="Times,serif" font-size="14.00">name = &#39;Daniel&#39;</text>
</g>
<!-- N4 -->
<g id="node5" class="node">
<title>N4</title>
<path fill="none" stroke="black" d="M484,-0.5C484,-0.5 555,-0.5 555,-0.5 561,-0.5 567,-6.5 567,-12.5 567,-12.5 567,-34.5 567,-34.5 567,-40.5 561,-46.5 555,-46.5 555,-46.5 484,-46.5 484,-46.5 478,-46.5 472,-40.5 472,-34.5 472,-34.5 472,-12.5 472,-12.5 472,-6.5 478,-0.5 484,-0.5"/>
<text text-anchor="middle" x="519.5" y="-31.3" font-family="Times,serif" font-size="14.00">A, C</text>
<polyline fill="none" stroke="black" points="472,-23.5 567,-23.5 "/>
<text text-anchor="start" x="480" y="-8.3" font-family="Times,serif" font-size="14.00">name = &#39;Eskil&#39;</text>
</g>
<!-- N5 -->
<g id="node6" class="node">
<title>N5</title>
<path fill="none" stroke="black" d="M597,-0.5C597,-0.5 674,-0.5 674,-0.5 680,-0.5 686,-6.5 686,-12.5 686,-12.5 686,-34.5 686,-34.5 686,-40.5 680,-46.5 674,-46.5 674,-46.5 597,-46.5 597,-46.5 591,-46.5 585,-40.5 585,-34.5 585,-34.5 585,-12.5 585,-12.5 585,-6.5 591,-0.5 597,-0.5"/>
<text text-anchor="middle" x="635.5" y="-31.3" font-family="Times,serif" font-size="14.00">B, C</text>
<polyline fill="none" stroke="black" points="585,-23.5 686,-23.5 "/>
<text text-anchor="start" x="593" y="-8.3" font-family="Times,serif" font-size="14.00">name = &#39;Frank&#39;</text>
</g>
<!-- N6 -->
<g id="node7" class="node">
<title>N6</title>
<path fill="none" stroke="black" d="M716,-0.5C716,-0.5 799,-0.5 799,-0.5 805,-0.5 811,-6.5 811,-12.5 811,-12.5 811,-34.5 811,-34.5 811,-40.5 805,-46.5 799,-46.5 799,-46.5 716,-46.5 716,-46.5 710,-46.5 704,-40.5 704,-34.5 704,-34.5 704,-12.5 704,-12.5 704,-6.5 710,-0.5 716,-0.5"/>
<text text-anchor="middle" x="757.5" y="-31.3" font-family="Times,serif" font-size="14.00">A, B, C</text>
<polyline fill="none" stroke="black" points="704,-23.5 811,-23.5 "/>
<text text-anchor="start" x="712" y="-8.3" font-family="Times,serif" font-size="14.00">name = &#39;George&#39;</text>
</g>
<!-- N7 -->
<g id="node8" class="node">
<title>N7</title>
<path fill="none" stroke="black" d="M841,-5.5C841,-5.5 918,-5.5 918,-5.5 924,-5.5 930,-11.5 930,-17.5 930,-17.5 930,-29.5 930,-29.5 930,-35.5 924,-41.5 918,-41.5 918,-41.5 841,-41.5 841,-41.5 835,-41.5 829,-35.5 829,-29.5 829,-29.5 829,-17.5 829,-17.5 829,-11.5 835,-5.5 841,-5.5"/>
<text text-anchor="start" x="837" y="-19.8" font-family="Times,serif" font-size="14.00">name = &#39;Henry&#39;</text>
</g>
</g>
</svg>
