<?xml version="1.0" encoding="UTF-8" standalone="no"?>
<!DOCTYPE svg PUBLIC "-//W3C//DTD SVG 1.1//EN"
 "http://www.w3.org/Graphics/SVG/1.1/DTD/svg11.dtd">
<!-- Generated by graphviz version 2.49.3 (20211027.1534)
 -->
<!-- Title: L Pages: 1 -->
<svg width="370pt" height="133pt"
 viewBox="0.00 0.00 369.50 133.00" xmlns="http://www.w3.org/2000/svg" xmlns:xlink="http://www.w3.org/1999/xlink">
<g id="graph0" class="graph" transform="scale(1 1) rotate(0) translate(4 129)">
<title>L</title>
<polygon fill="white" stroke="transparent" points="-4,4 -4,-129 365.5,-129 365.5,4 -4,4"/>
<!-- N0 -->
<g id="node1" class="node">
<title>N0</title>
<path fill="none" stroke="black" d="M153.5,-88.5C153.5,-88.5 206.5,-88.5 206.5,-88.5 212.5,-88.5 218.5,-94.5 218.5,-100.5 218.5,-100.5 218.5,-112.5 218.5,-112.5 218.5,-118.5 212.5,-124.5 206.5,-124.5 206.5,-124.5 153.5,-124.5 153.5,-124.5 147.5,-124.5 141.5,-118.5 141.5,-112.5 141.5,-112.5 141.5,-100.5 141.5,-100.5 141.5,-94.5 147.5,-88.5 153.5,-88.5"/>
<text text-anchor="start" x="149.5" y="-102.8" font-family="Times,serif" font-size="14.00">name = &#39;A&#39;</text>
</g>
<!-- N4 -->
<g id="node2" class="node">
<title>N4</title>
<path fill="none" stroke="black" d="M12,-0.5C12,-0.5 64,-0.5 64,-0.5 70,-0.5 76,-6.5 76,-12.5 76,-12.5 76,-24.5 76,-24.5 76,-30.5 70,-36.5 64,-36.5 64,-36.5 12,-36.5 12,-36.5 6,-36.5 0,-30.5 0,-24.5 0,-24.5 0,-12.5 0,-12.5 0,-6.5 6,-0.5 12,-0.5"/>
<text text-anchor="start" x="8" y="-14.8" font-family="Times,serif" font-size="14.00">name = &#39;E&#39;</text>
</g>
<!-- N0&#45;&gt;N4 -->
<g id="edge1" class="edge">
<title>N0&#45;&gt;N4</title>
<path fill="none" stroke="#2e3436" d="M141.2,-93.67C125,-87.82 106.4,-79.88 91,-70 79.8,-62.82 68.9,-53.06 59.92,-44.04"/>
<polygon fill="#2e3436" stroke="#2e3436" points="62.33,-41.49 52.87,-36.71 57.28,-46.34 62.33,-41.49"/>
<text text-anchor="middle" x="117" y="-58.8" font-family="Times,serif" font-size="14.00" fill="#2e3436">KNOWS</text>
</g>
<!-- N3 -->
<g id="node3" class="node">
<title>N3</title>
<path fill="none" stroke="black" d="M106.5,-0.5C106.5,-0.5 159.5,-0.5 159.5,-0.5 165.5,-0.5 171.5,-6.5 171.5,-12.5 171.5,-12.5 171.5,-24.5 171.5,-24.5 171.5,-30.5 165.5,-36.5 159.5,-36.5 159.5,-36.5 106.5,-36.5 106.5,-36.5 100.5,-36.5 94.5,-30.5 94.5,-24.5 94.5,-24.5 94.5,-12.5 94.5,-12.5 94.5,-6.5 100.5,-0.5 106.5,-0.5"/>
<text text-anchor="start" x="102.5" y="-14.8" font-family="Times,serif" font-size="14.00">name = &#39;D&#39;</text>
</g>
<!-- N0&#45;&gt;N3 -->
<g id="edge2" class="edge">
<title>N0&#45;&gt;N3</title>
<path fill="none" stroke="#2e3436" d="M166.18,-88.36C161.97,-82.7 157.53,-76.26 154,-70 149.8,-62.55 145.96,-54.1 142.75,-46.27"/>
<polygon fill="#2e3436" stroke="#2e3436" points="145.94,-44.83 139.03,-36.81 139.43,-47.4 145.94,-44.83"/>
<text text-anchor="middle" x="180" y="-58.8" font-family="Times,serif" font-size="14.00" fill="#2e3436">KNOWS</text>
</g>
<!-- N2 -->
<g id="node4" class="node">
<title>N2</title>
<path fill="none" stroke="black" d="M201.5,-0.5C201.5,-0.5 254.5,-0.5 254.5,-0.5 260.5,-0.5 266.5,-6.5 266.5,-12.5 266.5,-12.5 266.5,-24.5 266.5,-24.5 266.5,-30.5 260.5,-36.5 254.5,-36.5 254.5,-36.5 201.5,-36.5 201.5,-36.5 195.5,-36.5 189.5,-30.5 189.5,-24.5 189.5,-24.5 189.5,-12.5 189.5,-12.5 189.5,-6.5 195.5,-0.5 201.5,-0.5"/>
<text text-anchor="start" x="197.5" y="-14.8" font-family="Times,serif" font-size="14.00">name = &#39;C&#39;</text>
</g>
<!-- N0&#45;&gt;N2 -->
<g id="edge3" class="edge">
<title>N0&#45;&gt;N2</title>
<path fill="none" stroke="#2e3436" d="M193.76,-88.32C197.97,-82.67 202.42,-76.23 206,-70 210.29,-62.54 214.28,-54.08 217.65,-46.25"/>
<polygon fill="#2e3436" stroke="#2e3436" points="220.98,-47.37 221.57,-36.79 214.51,-44.69 220.98,-47.37"/>
<text text-anchor="middle" x="240" y="-58.8" font-family="Times,serif" font-size="14.00" fill="#2e3436">KNOWS</text>
</g>
<!-- N1 -->
<g id="node5" class="node">
<title>N1</title>
<path fill="none" stroke="black" d="M296.5,-0.5C296.5,-0.5 349.5,-0.5 349.5,-0.5 355.5,-0.5 361.5,-6.5 361.5,-12.5 361.5,-12.5 361.5,-24.5 361.5,-24.5 361.5,-30.5 355.5,-36.5 349.5,-36.5 349.5,-36.5 296.5,-36.5 296.5,-36.5 290.5,-36.5 284.5,-30.5 284.5,-24.5 284.5,-24.5 284.5,-12.5 284.5,-12.5 284.5,-6.5 290.5,-0.5 296.5,-0.5"/>
<text text-anchor="start" x="292.5" y="-14.8" font-family="Times,serif" font-size="14.00">name = &#39;B&#39;</text>
</g>
<!-- N0&#45;&gt;N1 -->
<g id="edge4" class="edge">
<title>N0&#45;&gt;N1</title>
<path fill="none" stroke="#2e3436" d="M218.79,-93.89C235.28,-88.04 254.29,-80.04 270,-70 281.21,-62.84 292.12,-53.09 301.09,-44.06"/>
<polygon fill="#2e3436" stroke="#2e3436" points="303.74,-46.36 308.14,-36.73 298.69,-41.51 303.74,-46.36"/>
<text text-anchor="middle" x="315" y="-58.8" font-family="Times,serif" font-size="14.00" fill="#2e3436">KNOWS</text>
</g>
</g>
</svg>
