<svg xmlns="http://www.w3.org/2000/svg" width="830" height="686" viewBox="0 0 830 686"><defs><style type="text/css"/></defs><g transform="translate(21524.526670293148 -6928.058821573526) scale(1)"><g class="relationship"><g transform="translate(-21052.89464696683 7539.590386579994) rotate(180)" stroke-width="2" stroke="#000000"><path d="M 58 0 L 308.37923722109565 0"/><polygon points="-14.155129855222071,0 -15.727922061357857,5.242640687119286 0,0 -15.727922061357857,-5.242640687119286" fill="#000000" transform="translate(322.5343670763177 0) rotate(0)" stroke="none"/></g><g transform="translate(-21236.084265577378 7539.590386579994) rotate(360) translate(0 -13)"><g transform="translate(0 0)"><g transform="translate(-45.890625 0)" fill="#ffffff" stroke="#000000" stroke-width="0"><rect x="0" y="0" width="91.78125" height="26" rx="5" ry="5" stroke="none"/><text xml:space="preserve" x="5" y="17.45703125" stroke="none" text-anchor="left" font-family="sans-serif" font-size="16" font-weight="normal" fill="#000000">DIRECTED</text></g></g></g></g><g class="relationship"><g transform="translate(-21433.429014043148 7002.258821573526) rotate(90)" stroke-width="2" stroke="#000000"><path d="M 58 0 L 465.17643515124576 0"/><polygon points="-14.155129855222071,0 -15.727922061357857,5.242640687119286 0,0 -15.727922061357857,-5.242640687119286" fill="#000000" transform="translate(479.3315650064678 0) rotate(0)" stroke="none"/></g><g transform="translate(-21433.429014043148 7263.847039149149) rotate(270) translate(0 -22.6)"><g transform="translate(0 0)"><g transform="translate(-44.5625 0)" fill="#ffffff" stroke="#000000" stroke-width="0"><rect x="0" y="0" width="89.125" height="26" rx="5" ry="5" stroke="none"/><text xml:space="preserve" x="5" y="17.45703125" stroke="none" text-anchor="left" font-family="sans-serif" font-size="16" font-weight="normal" fill="#000000">ACTED_IN</text></g></g><g transform="translate(0 26)"><g transform="translate(-77.3125 0)" fill="white"><rect x="0" y="0" width="154.625" height="19.2" rx="0" ry="0" stroke="none"/><g font-family="sans-serif" font-size="16" font-weight="normal" fill="#717780" text-anchor="end"><text xml:space="preserve" x="35.5703125" y="14.05703125" stroke="none">role:</text><text xml:space="preserve" x="40.015625" y="14.05703125" stroke="none" text-anchor="start">'Gordon Gekko'</text></g></g></g></g></g><g class="relationship"><g transform="translate(-21176.124930985767 7259.231663925961) rotate(132.5446974362422)" stroke-width="2" stroke="#000000"><path d="M 58 0 L 308.379237221131 0"/><polygon points="-14.155129855222071,0 -15.727922061357857,5.242640687119286 0,0 -15.727922061357857,-5.242640687119286" fill="#000000" transform="translate(322.5343670763531 0) rotate(0)" stroke="none"/></g><g transform="translate(-21299.99136965822 7394.196628777171) rotate(312.54469743624213) translate(0 -22.6)"><g transform="translate(0 0)"><g transform="translate(-44.5625 0)" fill="#ffffff" stroke="#000000" stroke-width="0"><rect x="0" y="0" width="89.125" height="26" rx="5" ry="5" stroke="none"/><text xml:space="preserve" x="5" y="17.45703125" stroke="none" text-anchor="left" font-family="sans-serif" font-size="16" font-weight="normal" fill="#000000">ACTED_IN</text></g></g><g transform="translate(0 26)"><g transform="translate(-55.51171875 0)" fill="white"><rect x="0" y="0" width="111.0234375" height="19.2" rx="0" ry="0" stroke="none"/><g font-family="sans-serif" font-size="16" font-weight="normal" fill="#717780" text-anchor="end"><text xml:space="preserve" x="35.5703125" y="14.05703125" stroke="none">role:</text><text xml:space="preserve" x="40.015625" y="14.05703125" stroke="none" text-anchor="start">'Carl Fox'</text></g></g></g></g></g><g class="relationship"><g transform="translate(-21433.429014043148 7002.258821573526) rotate(0)" stroke-width="2" stroke="#000000"><path d="M 58 0 L 420.9902387744843 0"/><polygon points="-14.155129855222071,0 -15.727922061357857,5.242640687119286 0,0 -15.727922061357857,-5.242640687119286" fill="#000000" transform="translate(435.14536862970635 0) rotate(0)" stroke="none"/></g><g transform="translate(-21193.933894655904 7002.258821573526) rotate(0) translate(0 -22.6)"><g transform="translate(0 0)"><g transform="translate(-44.5625 0)" fill="#ffffff" stroke="#000000" stroke-width="0"><rect x="0" y="0" width="89.125" height="26" rx="5" ry="5" stroke="none"/><text xml:space="preserve" x="5" y="17.45703125" stroke="none" text-anchor="left" font-family="sans-serif" font-size="16" font-weight="normal" fill="#000000">ACTED_IN</text></g></g><g transform="translate(0 26)"><g transform="translate(-125.34765625 0)" fill="white"><rect x="0" y="0" width="250.6953125" height="19.2" rx="0" ry="0" stroke="none"/><g font-family="sans-serif" font-size="16" font-weight="normal" fill="#717780" text-anchor="end"><text xml:space="preserve" x="35.5703125" y="14.05703125" stroke="none">role:</text><text xml:space="preserve" x="40.015625" y="14.05703125" stroke="none" text-anchor="start">'President Andrew Shepherd'</text></g></g></g></g></g><g class="relationship"><g transform="translate(-21176.124930985767 7259.231663925961) rotate(-47.45530256375779)" stroke-width="2" stroke="#000000"><path d="M 58 0 L 276.63729220565995 0"/><polygon points="-14.155129855222071,0 -15.727922061357857,5.242640687119286 0,0 -15.727922061357857,-5.242640687119286" fill="#000000" transform="translate(290.792422060882 0) rotate(0)" stroke="none"/></g><g transform="translate(-21062.989891055844 7135.959639225549) rotate(-47.45530256375779) translate(0 -22.6)"><g transform="translate(0 0)"><g transform="translate(-44.5625 0)" fill="#ffffff" stroke="#000000" stroke-width="0"><rect x="0" y="0" width="89.125" height="26" rx="5" ry="5" stroke="none"/><text xml:space="preserve" x="5" y="17.45703125" stroke="none" text-anchor="left" font-family="sans-serif" font-size="16" font-weight="normal" fill="#000000">ACTED_IN</text></g></g><g transform="translate(0 26)"><g transform="translate(-83.0859375 0)" fill="white"><rect x="0" y="0" width="166.171875" height="19.2" rx="0" ry="0" stroke="none"/><g font-family="sans-serif" font-size="16" font-weight="normal" fill="#717780" text-anchor="end"><text xml:space="preserve" x="35.5703125" y="14.05703125" stroke="none">role:</text><text xml:space="preserve" x="40.015625" y="14.05703125" stroke="none" text-anchor="start">'A.J. MacInerney'</text></g></g></g></g></g><g class="relationship"><g transform="translate(-21085.061786165188 7386.467301883699) rotate(156.2723487181233)" stroke-width="2" stroke="#000000"><path d="M 58 0 L 308.3792372212389 0"/><polygon points="-14.155129855222071,0 -15.727922061357857,5.242640687119286 0,0 -15.727922061357857,-5.242640687119286" fill="#000000" transform="translate(322.53436707646097 0) rotate(0)" stroke="none"/></g><g transform="translate(-21252.76611232551 7460.18090547094) rotate(336.27234871812334) translate(0 -22.6)"><g transform="translate(0 0)"><g transform="translate(-44.5625 0)" fill="#ffffff" stroke="#000000" stroke-width="0"><rect x="0" y="0" width="89.125" height="26" rx="5" ry="5" stroke="none"/><text xml:space="preserve" x="5" y="17.45703125" stroke="none" text-anchor="left" font-family="sans-serif" font-size="16" font-weight="normal" fill="#000000">ACTED_IN</text></g></g><g transform="translate(0 26)"><g transform="translate(-55.078125 0)" fill="white"><rect x="0" y="0" width="110.15625" height="19.2" rx="0" ry="0" stroke="none"/><g font-family="sans-serif" font-size="16" font-weight="normal" fill="#717780" text-anchor="end"><text xml:space="preserve" x="35.5703125" y="14.05703125" stroke="none">role:</text><text xml:space="preserve" x="40.015625" y="14.05703125" stroke="none" text-anchor="start">'Bud Fox'</text></g></g></g></g></g><g class="relationship"><g transform="translate(-20767.4181592676 7246.84862339619) rotate(-125.25101613374356)" stroke-width="2" stroke="#000000"><path d="M 58 0 L 227.35555018154798 0"/><polygon points="-14.155129855222071,0 -15.727922061357857,5.242640687119286 0,0 -15.727922061357857,-5.242640687119286" fill="#000000" transform="translate(241.51068003677005 0) rotate(0)" stroke="none"/></g><g transform="translate(-20849.766017281363 7130.333483670065) rotate(54.74898386625644) translate(0 -13)"><g transform="translate(0 0)"><g transform="translate(-45.890625 0)" fill="#ffffff" stroke="#000000" stroke-width="0"><rect x="0" y="0" width="91.78125" height="26" rx="5" ry="5" stroke="none"/><text xml:space="preserve" x="5" y="17.45703125" stroke="none" text-anchor="left" font-family="sans-serif" font-size="16" font-weight="normal" fill="#000000">DIRECTED</text></g></g></g></g><g class="relationship"><g transform="translate(-20767.4181592676 7246.84862339619) rotate(156.2723487181233)" stroke-width="2" stroke="#000000"><path d="M 58 0 L 274.8187151118775 0"/><polygon points="-14.155129855222071,0 -15.727922061357857,5.242640687119286 0,0 -15.727922061357857,-5.242640687119286" fill="#000000" transform="translate(288.9738449670996 0) rotate(0)" stroke="none"/></g><g transform="translate(-20919.760684937733 7313.810023879038) rotate(336.27234871812334) translate(0 -13)"><g transform="translate(0 0)"><g transform="translate(-58.78515625 0)" fill="#ffffff" stroke="#000000" stroke-width="0"><rect x="0" y="0" width="117.5703125" height="26" rx="5" ry="5" stroke="none"/><text xml:space="preserve" x="5" y="17.45703125" stroke="none" text-anchor="left" font-family="sans-serif" font-size="16" font-weight="normal" fill="#000000">OLD FRIENDS</text></g></g></g></g><g class="node"><g fill="#ffffff" stroke="#018BFF" stroke-width="3"><circle cx="-21052.89464696683" cy="7539.590386579994" r="51.5"/></g><g transform="translate(-21052.89464696683 7539.590386579994)"><g transform="scale(0.6532967767358133) translate(0 -27)"><g transform="translate(0 0)"><g transform="translate(-63.369140625 0)"><g fill="#000000" stroke="#000000" stroke-width="4" font-family="sans-serif" font-size="40" font-weight="normal"><text xml:space="preserve" x="0" y="38.142578125" stroke="none">Person</text></g></g></g></g><g transform="translate(55 -9.6)"><g transform="translate(0 0)"><g transform="translate(0 0)" fill="white"><rect x="0" y="0" width="151.953125" height="19.2" rx="0" ry="0" stroke="none"/><g font-family="sans-serif" font-size="16" font-weight="normal" fill="#717780" text-anchor="end"><text xml:space="preserve" x="48.9140625" y="14.05703125" stroke="none">name:</text><text xml:space="preserve" x="53.359375" y="14.05703125" stroke="none" text-anchor="start">'Oliver Stone'</text></g></g></g></g></g></g><g class="node"><g fill="#ffffff" stroke="#018BFF" stroke-width="3"><circle cx="-21433.429014043148" cy="7539.590386579994" r="51.5"/></g><g transform="translate(-21433.429014043148 7539.590386579994)"><g transform="scale(0.7525987763434394) translate(0 -27)"><g transform="translate(0 0)"><g transform="translate(-53.349609375 0)"><g fill="#000000" stroke="#000000" stroke-width="4" font-family="sans-serif" font-size="40" font-weight="normal"><text xml:space="preserve" x="0" y="38.142578125" stroke="none">Movie</text></g></g></g></g><g transform="translate(3.3677786976552213e-15 55)"><g transform="translate(0 0)"><g transform="translate(-63.22265625 0)" fill="white"><rect x="0" y="0" width="126.4453125" height="19.2" rx="0" ry="0" stroke="none"/><g font-family="sans-serif" font-size="16" font-weight="normal" fill="#717780" text-anchor="end"><text xml:space="preserve" x="33.7890625" y="14.05703125" stroke="none">title:</text><text xml:space="preserve" x="38.234375" y="14.05703125" stroke="none" text-anchor="start">'Wall Street'</text></g></g></g></g></g></g><g class="node"><g fill="#ffffff" stroke="#018BFF" stroke-width="3"><circle cx="-21433.429014043148" cy="7002.258821573526" r="51.5"/></g><g transform="translate(-21433.429014043148 7002.258821573526)"><g transform="scale(0.6532967767358133) translate(0 -27)"><g transform="translate(0 0)"><g transform="translate(-63.369140625 0)"><g fill="#000000" stroke="#000000" stroke-width="4" font-family="sans-serif" font-size="40" font-weight="normal"><text xml:space="preserve" x="0" y="38.142578125" stroke="none">Person</text></g></g></g></g><g transform="translate(3.3677786976552213e-15 -74.2)"><g transform="translate(0 0)"><g transform="translate(-91.09765625 0)" fill="white"><rect x="0" y="0" width="182.1953125" height="19.2" rx="0" ry="0" stroke="none"/><g font-family="sans-serif" font-size="16" font-weight="normal" fill="#717780" text-anchor="end"><text xml:space="preserve" x="48.9140625" y="14.05703125" stroke="none">name:</text><text xml:space="preserve" x="53.359375" y="14.05703125" stroke="none" text-anchor="start">'Michael Douglas'</text></g></g></g></g></g></g><g class="node"><g fill="#ffffff" stroke="#018BFF" stroke-width="3"><circle cx="-21176.124930985767" cy="7259.231663925961" r="51.5"/></g><g transform="translate(-21176.124930985767 7259.231663925961)"><g transform="scale(0.6532967767358133) translate(0 -27)"><g transform="translate(0 0)"><g transform="translate(-63.369140625 0)"><g fill="#000000" stroke="#000000" stroke-width="4" font-family="sans-serif" font-size="40" font-weight="normal"><text xml:space="preserve" x="0" y="38.142578125" stroke="none">Person</text></g></g></g></g><g transform="translate(-38.89087296526011 -58.09087296526012)"><g transform="translate(0 0)"><g transform="translate(-159.078125 0)" fill="white"><rect x="0" y="0" width="159.078125" height="19.2" rx="0" ry="0" stroke="none"/><g font-family="sans-serif" font-size="16" font-weight="normal" fill="#717780" text-anchor="end"><text xml:space="preserve" x="48.9140625" y="14.05703125" stroke="none">name:</text><text xml:space="preserve" x="53.359375" y="14.05703125" stroke="none" text-anchor="start">'Martin Sheen'</text></g></g></g></g></g></g><g class="node"><g fill="#ffffff" stroke="#018BFF" stroke-width="3"><circle cx="-20940.28364541344" cy="7002.258821573526" r="51.5"/></g><g transform="translate(-20940.28364541344 7002.258821573526)"><g transform="scale(0.7525987763434394) translate(0 -27)"><g transform="translate(0 0)"><g transform="translate(-53.349609375 0)"><g fill="#000000" stroke="#000000" stroke-width="4" font-family="sans-serif" font-size="40" font-weight="normal"><text xml:space="preserve" x="0" y="38.142578125" stroke="none">Movie</text></g></g></g></g><g transform="translate(3.3677786976552213e-15 -74.2)"><g transform="translate(0 0)"><g transform="translate(-110.2109375 0)" fill="white"><rect x="0" y="0" width="220.421875" height="19.2" rx="0" ry="0" stroke="none"/><g font-family="sans-serif" font-size="16" font-weight="normal" fill="#717780" text-anchor="end"><text xml:space="preserve" x="33.7890625" y="14.05703125" stroke="none">title:</text><text xml:space="preserve" x="38.234375" y="14.05703125" stroke="none" text-anchor="start">'The American President'</text></g></g></g></g></g></g><g class="node"><g fill="#ffffff" stroke="#018BFF" stroke-width="3"><circle cx="-21085.061786165188" cy="7386.467301883699" r="51.5"/></g><g transform="translate(-21085.061786165188 7386.467301883699)"><g transform="scale(0.6532967767358133) translate(0 -27)"><g transform="translate(0 0)"><g transform="translate(-63.369140625 0)"><g fill="#000000" stroke="#000000" stroke-width="4" font-family="sans-serif" font-size="40" font-weight="normal"><text xml:space="preserve" x="0" y="38.142578125" stroke="none">Person</text></g></g></g></g><g transform="translate(3.3677786976552213e-15 55)"><g transform="translate(0 0)"><g transform="translate(-82.65625 0)" fill="white"><rect x="0" y="0" width="165.3125" height="19.2" rx="0" ry="0" stroke="none"/><g font-family="sans-serif" font-size="16" font-weight="normal" fill="#717780" text-anchor="end"><text xml:space="preserve" x="48.9140625" y="14.05703125" stroke="none">name:</text><text xml:space="preserve" x="53.359375" y="14.05703125" stroke="none" text-anchor="start">'Charlie Sheen'</text></g></g></g></g></g></g><g class="node"><g fill="#ffffff" stroke="#018BFF" stroke-width="3"><circle cx="-20767.4181592676" cy="7246.84862339619" r="51.5"/></g><g transform="translate(-20767.4181592676 7246.84862339619)"><g transform="scale(0.6532967767358133) translate(0 -27)"><g transform="translate(0 0)"><g transform="translate(-63.369140625 0)"><g fill="#000000" stroke="#000000" stroke-width="4" font-family="sans-serif" font-size="40" font-weight="normal"><text xml:space="preserve" x="0" y="38.142578125" stroke="none">Person</text></g></g></g></g><g transform="translate(3.3677786976552213e-15 55)"><g transform="translate(0 0)"><g transform="translate(-72.421875 0)" fill="white"><rect x="0" y="0" width="144.84375" height="19.2" rx="0" ry="0" stroke="none"/><g font-family="sans-serif" font-size="16" font-weight="normal" fill="#717780" text-anchor="end"><text xml:space="preserve" x="48.9140625" y="14.05703125" stroke="none">name:</text><text xml:space="preserve" x="53.359375" y="14.05703125" stroke="none" text-anchor="start">'Rob Reiner'</text></g></g></g></g></g></g></g></svg>