<?xml version="1.0" encoding="UTF-8" standalone="no"?>
<!DOCTYPE svg PUBLIC "-//W3C//DTD SVG 1.1//EN"
 "http://www.w3.org/Graphics/SVG/1.1/DTD/svg11.dtd">
<!-- Generated by graphviz version 2.49.3 (20211027.1534)
 -->
<!-- Title: L Pages: 1 -->
<svg width="316pt" height="251pt"
 viewBox="0.00 0.00 315.50 251.00" xmlns="http://www.w3.org/2000/svg" xmlns:xlink="http://www.w3.org/1999/xlink">
<g id="graph0" class="graph" transform="scale(1 1) rotate(0) translate(4 247)">
<title>L</title>
<polygon fill="white" stroke="transparent" points="-4,4 -4,-247 311.5,-247 311.5,4 -4,4"/>
<!-- N0 -->
<g id="node1" class="node">
<title>N0</title>
<path fill="none" stroke="black" d="M12,-196.5C12,-196.5 153,-196.5 153,-196.5 159,-196.5 165,-202.5 165,-208.5 165,-208.5 165,-230.5 165,-230.5 165,-236.5 159,-242.5 153,-242.5 153,-242.5 12,-242.5 12,-242.5 6,-242.5 0,-236.5 0,-230.5 0,-230.5 0,-208.5 0,-208.5 0,-202.5 6,-196.5 12,-196.5"/>
<text text-anchor="middle" x="82.5" y="-227.3" font-family="Times,serif" font-size="14.00">Actor</text>
<polyline fill="none" stroke="black" points="0,-219.5 165,-219.5 "/>
<text text-anchor="start" x="8" y="-204.3" font-family="Times,serif" font-size="14.00">name = &#39;Anthony Hopkins&#39;</text>
</g>
<!-- N3 -->
<g id="node2" class="node">
<title>N3</title>
<path fill="none" stroke="black" d="M36.5,-0.5C36.5,-0.5 128.5,-0.5 128.5,-0.5 134.5,-0.5 140.5,-6.5 140.5,-12.5 140.5,-12.5 140.5,-34.5 140.5,-34.5 140.5,-40.5 134.5,-46.5 128.5,-46.5 128.5,-46.5 36.5,-46.5 36.5,-46.5 30.5,-46.5 24.5,-40.5 24.5,-34.5 24.5,-34.5 24.5,-12.5 24.5,-12.5 24.5,-6.5 30.5,-0.5 36.5,-0.5"/>
<text text-anchor="middle" x="82.5" y="-31.3" font-family="Times,serif" font-size="14.00">Movie</text>
<polyline fill="none" stroke="black" points="24.5,-23.5 140.5,-23.5 "/>
<text text-anchor="start" x="32.5" y="-8.3" font-family="Times,serif" font-size="14.00">title = &#39;Hitchcock&#39;</text>
</g>
<!-- N0&#45;&gt;N3 -->
<g id="edge1" class="edge">
<title>N0&#45;&gt;N3</title>
<path fill="none" stroke="#2e3436" d="M79.84,-196.35C78.22,-181.78 76.32,-162.29 75.5,-145 74.51,-124.13 74.51,-118.87 75.5,-98 76.14,-84.5 77.44,-69.64 78.75,-56.85"/>
<polygon fill="#2e3436" stroke="#2e3436" points="82.26,-56.97 79.84,-46.65 75.3,-56.23 82.26,-56.97"/>
<text text-anchor="middle" x="104.5" y="-117.8" font-family="Times,serif" font-size="14.00" fill="#2e3436">ACTS_IN</text>
</g>
<!-- N1 -->
<g id="node3" class="node">
<title>N1</title>
<path fill="none" stroke="black" d="M155,-98.5C155,-98.5 272,-98.5 272,-98.5 278,-98.5 284,-104.5 284,-110.5 284,-110.5 284,-132.5 284,-132.5 284,-138.5 278,-144.5 272,-144.5 272,-144.5 155,-144.5 155,-144.5 149,-144.5 143,-138.5 143,-132.5 143,-132.5 143,-110.5 143,-110.5 143,-104.5 149,-98.5 155,-98.5"/>
<text text-anchor="middle" x="213.5" y="-129.3" font-family="Times,serif" font-size="14.00">Actor</text>
<polyline fill="none" stroke="black" points="143,-121.5 284,-121.5 "/>
<text text-anchor="start" x="151" y="-106.3" font-family="Times,serif" font-size="14.00">name = &#39;Helen Mirren&#39;</text>
</g>
<!-- N0&#45;&gt;N1 -->
<g id="edge2" class="edge">
<title>N0&#45;&gt;N1</title>
<path fill="none" stroke="#4e9a06" d="M112.55,-196.48C131.06,-182.91 154.97,-165.39 174.87,-150.81"/>
<polygon fill="#4e9a06" stroke="#4e9a06" points="177.13,-153.49 183.13,-144.75 173,-147.84 177.13,-153.49"/>
<text text-anchor="middle" x="181.5" y="-166.8" font-family="Times,serif" font-size="14.00" fill="#4e9a06">KNOWS</text>
</g>
<!-- N1&#45;&gt;N3 -->
<g id="edge3" class="edge">
<title>N1&#45;&gt;N3</title>
<path fill="none" stroke="#2e3436" d="M183.45,-98.48C164.94,-84.91 141.03,-67.39 121.13,-52.81"/>
<polygon fill="#2e3436" stroke="#2e3436" points="123,-49.84 112.87,-46.75 118.87,-55.49 123,-49.84"/>
<text text-anchor="middle" x="184.5" y="-68.8" font-family="Times,serif" font-size="14.00" fill="#2e3436">ACTS_IN</text>
</g>
<!-- N2 -->
<g id="node4" class="node">
<title>N2</title>
<path fill="none" stroke="black" d="M195.5,-196.5C195.5,-196.5 295.5,-196.5 295.5,-196.5 301.5,-196.5 307.5,-202.5 307.5,-208.5 307.5,-208.5 307.5,-230.5 307.5,-230.5 307.5,-236.5 301.5,-242.5 295.5,-242.5 295.5,-242.5 195.5,-242.5 195.5,-242.5 189.5,-242.5 183.5,-236.5 183.5,-230.5 183.5,-230.5 183.5,-208.5 183.5,-208.5 183.5,-202.5 189.5,-196.5 195.5,-196.5"/>
<text text-anchor="middle" x="245.5" y="-227.3" font-family="Times,serif" font-size="14.00">Actor</text>
<polyline fill="none" stroke="black" points="183.5,-219.5 307.5,-219.5 "/>
<text text-anchor="start" x="191.5" y="-204.3" font-family="Times,serif" font-size="14.00">name = &#39;Hitchcock&#39;</text>
</g>
</g>
</svg>
