<?xml version="1.0" encoding="UTF-8" standalone="no"?>
<!DOCTYPE svg PUBLIC "-//W3C//DTD SVG 1.1//EN"
 "http://www.w3.org/Graphics/SVG/1.1/DTD/svg11.dtd">
<!-- Generated by graphviz version 2.49.3 (20211027.1534)
 -->
<!-- Title: L Pages: 1 -->
<svg width="355pt" height="221pt"
 viewBox="0.00 0.00 355.00 221.00" xmlns="http://www.w3.org/2000/svg" xmlns:xlink="http://www.w3.org/1999/xlink">
<g id="graph0" class="graph" transform="scale(1 1) rotate(0) translate(4 217)">
<title>L</title>
<polygon fill="white" stroke="transparent" points="-4,4 -4,-217 351,-217 351,4 -4,4"/>
<!-- N0 -->
<g id="node1" class="node">
<title>N0</title>
<path fill="none" stroke="black" d="M135,-176.5C135,-176.5 218,-176.5 218,-176.5 224,-176.5 230,-182.5 230,-188.5 230,-188.5 230,-200.5 230,-200.5 230,-206.5 224,-212.5 218,-212.5 218,-212.5 135,-212.5 135,-212.5 129,-212.5 123,-206.5 123,-200.5 123,-200.5 123,-188.5 123,-188.5 123,-182.5 129,-176.5 135,-176.5"/>
<text text-anchor="start" x="131" y="-190.8" font-family="Times,serif" font-size="14.00">name = &#39;Anders&#39;</text>
</g>
<!-- N3 -->
<g id="node2" class="node">
<title>N3</title>
<path fill="none" stroke="black" d="M12,-88.5C12,-88.5 97,-88.5 97,-88.5 103,-88.5 109,-94.5 109,-100.5 109,-100.5 109,-112.5 109,-112.5 109,-118.5 103,-124.5 97,-124.5 97,-124.5 12,-124.5 12,-124.5 6,-124.5 0,-118.5 0,-112.5 0,-112.5 0,-100.5 0,-100.5 0,-94.5 6,-88.5 12,-88.5"/>
<text text-anchor="start" x="8" y="-102.8" font-family="Times,serif" font-size="14.00">name = &#39;Dilshad&#39;</text>
</g>
<!-- N0&#45;&gt;N3 -->
<g id="edge1" class="edge">
<title>N0&#45;&gt;N3</title>
<path fill="none" stroke="#2e3436" d="M148.55,-176.46C139.49,-170.76 129.47,-164.26 120.5,-158 108.34,-149.52 95.3,-139.7 84.05,-130.99"/>
<polygon fill="#2e3436" stroke="#2e3436" points="85.88,-127.98 75.84,-124.59 81.58,-133.5 85.88,-127.98"/>
<text text-anchor="middle" x="146.5" y="-146.8" font-family="Times,serif" font-size="14.00" fill="#2e3436">KNOWS</text>
</g>
<!-- N2 -->
<g id="node3" class="node">
<title>N2</title>
<path fill="none" stroke="black" d="M139,-88.5C139,-88.5 214,-88.5 214,-88.5 220,-88.5 226,-94.5 226,-100.5 226,-100.5 226,-112.5 226,-112.5 226,-118.5 220,-124.5 214,-124.5 214,-124.5 139,-124.5 139,-124.5 133,-124.5 127,-118.5 127,-112.5 127,-112.5 127,-100.5 127,-100.5 127,-94.5 133,-88.5 139,-88.5"/>
<text text-anchor="start" x="135" y="-102.8" font-family="Times,serif" font-size="14.00">name = &#39;Cesar&#39;</text>
</g>
<!-- N0&#45;&gt;N2 -->
<g id="edge2" class="edge">
<title>N0&#45;&gt;N2</title>
<path fill="none" stroke="#2e3436" d="M176.5,-176.1C176.5,-164.25 176.5,-148.32 176.5,-134.79"/>
<polygon fill="#2e3436" stroke="#2e3436" points="180,-134.58 176.5,-124.58 173,-134.58 180,-134.58"/>
<text text-anchor="middle" x="202.5" y="-146.8" font-family="Times,serif" font-size="14.00" fill="#2e3436">KNOWS</text>
</g>
<!-- N1 -->
<g id="node4" class="node">
<title>N1</title>
<path fill="none" stroke="black" d="M256,-88.5C256,-88.5 335,-88.5 335,-88.5 341,-88.5 347,-94.5 347,-100.5 347,-100.5 347,-112.5 347,-112.5 347,-118.5 341,-124.5 335,-124.5 335,-124.5 256,-124.5 256,-124.5 250,-124.5 244,-118.5 244,-112.5 244,-112.5 244,-100.5 244,-100.5 244,-94.5 250,-88.5 256,-88.5"/>
<text text-anchor="start" x="252" y="-102.8" font-family="Times,serif" font-size="14.00">name = &#39;Becky&#39;</text>
</g>
<!-- N0&#45;&gt;N1 -->
<g id="edge3" class="edge">
<title>N0&#45;&gt;N1</title>
<path fill="none" stroke="#2e3436" d="M204.82,-176.4C213.81,-170.75 223.7,-164.29 232.5,-158 244.22,-149.62 256.69,-139.83 267.41,-131.11"/>
<polygon fill="#2e3436" stroke="#2e3436" points="269.72,-133.74 275.23,-124.69 265.28,-128.33 269.72,-133.74"/>
<text text-anchor="middle" x="278.5" y="-146.8" font-family="Times,serif" font-size="14.00" fill="#2e3436">KNOWS</text>
</g>
<!-- N5 -->
<g id="node6" class="node">
<title>N5</title>
<path fill="none" stroke="black" d="M16.5,-0.5C16.5,-0.5 92.5,-0.5 92.5,-0.5 98.5,-0.5 104.5,-6.5 104.5,-12.5 104.5,-12.5 104.5,-24.5 104.5,-24.5 104.5,-30.5 98.5,-36.5 92.5,-36.5 92.5,-36.5 16.5,-36.5 16.5,-36.5 10.5,-36.5 4.5,-30.5 4.5,-24.5 4.5,-24.5 4.5,-12.5 4.5,-12.5 4.5,-6.5 10.5,-0.5 16.5,-0.5"/>
<text text-anchor="start" x="12.5" y="-14.8" font-family="Times,serif" font-size="14.00">name = &#39;Filipa&#39;</text>
</g>
<!-- N3&#45;&gt;N5 -->
<g id="edge6" class="edge">
<title>N3&#45;&gt;N5</title>
<path fill="none" stroke="#2e3436" d="M54.5,-88.1C54.5,-76.25 54.5,-60.32 54.5,-46.79"/>
<polygon fill="#2e3436" stroke="#2e3436" points="58,-46.58 54.5,-36.58 51,-46.58 58,-46.58"/>
<text text-anchor="middle" x="80.5" y="-58.8" font-family="Times,serif" font-size="14.00" fill="#2e3436">KNOWS</text>
</g>
<!-- N4 -->
<g id="node5" class="node">
<title>N4</title>
<path fill="none" stroke="black" d="M183,-0.5C183,-0.5 266,-0.5 266,-0.5 272,-0.5 278,-6.5 278,-12.5 278,-12.5 278,-24.5 278,-24.5 278,-30.5 272,-36.5 266,-36.5 266,-36.5 183,-36.5 183,-36.5 177,-36.5 171,-30.5 171,-24.5 171,-24.5 171,-12.5 171,-12.5 171,-6.5 177,-0.5 183,-0.5"/>
<text text-anchor="start" x="179" y="-14.8" font-family="Times,serif" font-size="14.00">name = &#39;George&#39;</text>
</g>
<!-- N2&#45;&gt;N4 -->
<g id="edge5" class="edge">
<title>N2&#45;&gt;N4</title>
<path fill="none" stroke="#2e3436" d="M186.21,-88.1C193.02,-75.89 202.25,-59.37 209.94,-45.59"/>
<polygon fill="#2e3436" stroke="#2e3436" points="213.15,-47.02 214.96,-36.58 207.03,-43.61 213.15,-47.02"/>
<text text-anchor="middle" x="229.5" y="-58.8" font-family="Times,serif" font-size="14.00" fill="#2e3436">KNOWS</text>
</g>
<!-- N1&#45;&gt;N4 -->
<g id="edge4" class="edge">
<title>N1&#45;&gt;N4</title>
<path fill="none" stroke="#2e3436" d="M284.15,-88.16C277.37,-78.18 268.37,-65.55 259.5,-55 256.39,-51.3 252.98,-47.53 249.53,-43.89"/>
<polygon fill="#2e3436" stroke="#2e3436" points="252,-41.41 242.52,-36.67 246.98,-46.28 252,-41.41"/>
<text text-anchor="middle" x="297.5" y="-58.8" font-family="Times,serif" font-size="14.00" fill="#2e3436">KNOWS</text>
</g>
</g>
</svg>
