<?xml version="1.0" encoding="UTF-8" standalone="no"?>
<!DOCTYPE svg PUBLIC "-//W3C//DTD SVG 1.1//EN"
 "http://www.w3.org/Graphics/SVG/1.1/DTD/svg11.dtd">
<!-- Generated by graphviz version 2.49.3 (20211027.1534)
 -->
<!-- Title: L Pages: 1 -->
<svg width="328pt" height="221pt"
 viewBox="0.00 0.00 327.50 221.00" xmlns="http://www.w3.org/2000/svg" xmlns:xlink="http://www.w3.org/1999/xlink">
<g id="graph0" class="graph" transform="scale(1 1) rotate(0) translate(4 217)">
<title>L</title>
<polygon fill="white" stroke="transparent" points="-4,4 -4,-217 323.5,-217 323.5,4 -4,4"/>
<!-- N0 -->
<g id="node1" class="node">
<title>N0</title>
<path fill="none" stroke="black" d="M140,-176.5C140,-176.5 223,-176.5 223,-176.5 229,-176.5 235,-182.5 235,-188.5 235,-188.5 235,-200.5 235,-200.5 235,-206.5 229,-212.5 223,-212.5 223,-212.5 140,-212.5 140,-212.5 134,-212.5 128,-206.5 128,-200.5 128,-200.5 128,-188.5 128,-188.5 128,-182.5 134,-176.5 140,-176.5"/>
<text text-anchor="start" x="136" y="-190.8" font-family="Times,serif" font-size="14.00">name = &#39;Anders&#39;</text>
</g>
<!-- N2 -->
<g id="node2" class="node">
<title>N2</title>
<path fill="none" stroke="black" d="M12,-88.5C12,-88.5 93,-88.5 93,-88.5 99,-88.5 105,-94.5 105,-100.5 105,-100.5 105,-112.5 105,-112.5 105,-118.5 99,-124.5 93,-124.5 93,-124.5 12,-124.5 12,-124.5 6,-124.5 0,-118.5 0,-112.5 0,-112.5 0,-100.5 0,-100.5 0,-94.5 6,-88.5 12,-88.5"/>
<text text-anchor="start" x="8" y="-102.8" font-family="Times,serif" font-size="14.00">name = &#39;Caesar&#39;</text>
</g>
<!-- N0&#45;&gt;N2 -->
<g id="edge1" class="edge">
<title>N0&#45;&gt;N2</title>
<path fill="none" stroke="#2e3436" d="M152.09,-176.46C142.55,-170.76 131.98,-164.26 122.5,-158 109.52,-149.43 95.55,-139.51 83.54,-130.74"/>
<polygon fill="#2e3436" stroke="#2e3436" points="85.31,-127.7 75.18,-124.59 81.16,-133.34 85.31,-127.7"/>
<text text-anchor="middle" x="150" y="-146.8" font-family="Times,serif" font-size="14.00" fill="#2e3436">BLOCKS</text>
</g>
<!-- N1 -->
<g id="node3" class="node">
<title>N1</title>
<path fill="none" stroke="black" d="M135.5,-88.5C135.5,-88.5 227.5,-88.5 227.5,-88.5 233.5,-88.5 239.5,-94.5 239.5,-100.5 239.5,-100.5 239.5,-112.5 239.5,-112.5 239.5,-118.5 233.5,-124.5 227.5,-124.5 227.5,-124.5 135.5,-124.5 135.5,-124.5 129.5,-124.5 123.5,-118.5 123.5,-112.5 123.5,-112.5 123.5,-100.5 123.5,-100.5 123.5,-94.5 129.5,-88.5 135.5,-88.5"/>
<text text-anchor="start" x="131.5" y="-102.8" font-family="Times,serif" font-size="14.00">name = &#39;Bossman&#39;</text>
</g>
<!-- N0&#45;&gt;N1 -->
<g id="edge2" class="edge">
<title>N0&#45;&gt;N1</title>
<path fill="none" stroke="#4e9a06" d="M181.5,-176.1C181.5,-164.25 181.5,-148.32 181.5,-134.79"/>
<polygon fill="#4e9a06" stroke="#4e9a06" points="185,-134.58 181.5,-124.58 178,-134.58 185,-134.58"/>
<text text-anchor="middle" x="207.5" y="-146.8" font-family="Times,serif" font-size="14.00" fill="#4e9a06">KNOWS</text>
</g>
<!-- N4 -->
<g id="node4" class="node">
<title>N4</title>
<path fill="none" stroke="black" d="M57,-0.5C57,-0.5 140,-0.5 140,-0.5 146,-0.5 152,-6.5 152,-12.5 152,-12.5 152,-24.5 152,-24.5 152,-30.5 146,-36.5 140,-36.5 140,-36.5 57,-36.5 57,-36.5 51,-36.5 45,-30.5 45,-24.5 45,-24.5 45,-12.5 45,-12.5 45,-6.5 51,-0.5 57,-0.5"/>
<text text-anchor="start" x="53" y="-14.8" font-family="Times,serif" font-size="14.00">name = &#39;George&#39;</text>
</g>
<!-- N2&#45;&gt;N4 -->
<g id="edge5" class="edge">
<title>N2&#45;&gt;N4</title>
<path fill="none" stroke="#4e9a06" d="M50.21,-88.24C49.64,-78.04 50.33,-65.18 55.5,-55 57.58,-50.91 60.36,-47.11 63.52,-43.65"/>
<polygon fill="#4e9a06" stroke="#4e9a06" points="66.08,-46.04 70.89,-36.6 61.25,-40.98 66.08,-46.04"/>
<text text-anchor="middle" x="81.5" y="-58.8" font-family="Times,serif" font-size="14.00" fill="#4e9a06">KNOWS</text>
</g>
<!-- N1&#45;&gt;N4 -->
<g id="edge3" class="edge">
<title>N1&#45;&gt;N4</title>
<path fill="none" stroke="#4e9a06" d="M161.64,-88.23C155.38,-82.57 148.52,-76.15 142.5,-70 134.61,-61.94 126.38,-52.74 119.21,-44.41"/>
<polygon fill="#4e9a06" stroke="#4e9a06" points="121.84,-42.11 112.69,-36.77 116.52,-46.65 121.84,-42.11"/>
<text text-anchor="middle" x="168.5" y="-58.8" font-family="Times,serif" font-size="14.00" fill="#4e9a06">KNOWS</text>
</g>
<!-- N3 -->
<g id="node5" class="node">
<title>N3</title>
<path fill="none" stroke="black" d="M197,-0.5C197,-0.5 274,-0.5 274,-0.5 280,-0.5 286,-6.5 286,-12.5 286,-12.5 286,-24.5 286,-24.5 286,-30.5 280,-36.5 274,-36.5 274,-36.5 197,-36.5 197,-36.5 191,-36.5 185,-30.5 185,-24.5 185,-24.5 185,-12.5 185,-12.5 185,-6.5 191,-0.5 197,-0.5"/>
<text text-anchor="start" x="193" y="-14.8" font-family="Times,serif" font-size="14.00">name = &#39;David&#39;</text>
</g>
<!-- N1&#45;&gt;N3 -->
<g id="edge4" class="edge">
<title>N1&#45;&gt;N3</title>
<path fill="none" stroke="#2e3436" d="M188.91,-88.14C193.47,-78.15 199.72,-65.53 206.5,-55 208.72,-51.56 211.21,-48.07 213.78,-44.69"/>
<polygon fill="#2e3436" stroke="#2e3436" points="216.73,-46.6 220.23,-36.6 211.26,-42.24 216.73,-46.6"/>
<text text-anchor="middle" x="234" y="-58.8" font-family="Times,serif" font-size="14.00" fill="#2e3436">BLOCKS</text>
</g>
<!-- N3&#45;&gt;N0 -->
<g id="edge6" class="edge">
<title>N3&#45;&gt;N0</title>
<path fill="none" stroke="#4e9a06" d="M251.42,-36.68C255.51,-42.14 259.36,-48.47 261.5,-55 276.11,-99.68 266.46,-120.98 237.5,-158 233.91,-162.59 229.55,-166.75 224.87,-170.48"/>
<polygon fill="#4e9a06" stroke="#4e9a06" points="222.82,-167.64 216.76,-176.33 226.91,-173.31 222.82,-167.64"/>
<text text-anchor="middle" x="293.5" y="-102.8" font-family="Times,serif" font-size="14.00" fill="#4e9a06">KNOWS</text>
</g>
</g>
</svg>
