<?xml version="1.0" encoding="UTF-8" standalone="no"?>
<!DOCTYPE svg PUBLIC "-//W3C//DTD SVG 1.1//EN"
 "http://www.w3.org/Graphics/SVG/1.1/DTD/svg11.dtd">
<!-- Generated by graphviz version 2.49.3 (20211027.1534)
 -->
<!-- Title: L Pages: 1 -->
<svg width="126pt" height="150pt"
 viewBox="0.00 0.00 126.00 150.00" xmlns="http://www.w3.org/2000/svg" xmlns:xlink="http://www.w3.org/1999/xlink">
<g id="graph0" class="graph" transform="scale(1 1) rotate(0) translate(4 146)">
<title>L</title>
<polygon fill="white" stroke="transparent" points="-4,4 -4,-146 122,-146 122,4 -4,4"/>
<!-- N0 -->
<g id="node1" class="node">
<title>N0</title>
<path fill="none" stroke="black" d="M12,-88.5C12,-88.5 84,-88.5 84,-88.5 90,-88.5 96,-94.5 96,-100.5 96,-100.5 96,-129.5 96,-129.5 96,-135.5 90,-141.5 84,-141.5 84,-141.5 12,-141.5 12,-141.5 6,-141.5 0,-135.5 0,-129.5 0,-129.5 0,-100.5 0,-100.5 0,-94.5 6,-88.5 12,-88.5"/>
<text text-anchor="start" x="8" y="-126.3" font-family="Times,serif" font-size="14.00">name = &#39;A&#39;</text>
<text text-anchor="start" x="8" y="-111.3" font-family="Times,serif" font-size="14.00">age = 55</text>
<text text-anchor="start" x="8" y="-96.3" font-family="Times,serif" font-size="14.00">happy = &#39;Yes!&#39;</text>
</g>
<!-- N1 -->
<g id="node2" class="node">
<title>N1</title>
<path fill="none" stroke="black" d="M21.5,-0.5C21.5,-0.5 74.5,-0.5 74.5,-0.5 80.5,-0.5 86.5,-6.5 86.5,-12.5 86.5,-12.5 86.5,-24.5 86.5,-24.5 86.5,-30.5 80.5,-36.5 74.5,-36.5 74.5,-36.5 21.5,-36.5 21.5,-36.5 15.5,-36.5 9.5,-30.5 9.5,-24.5 9.5,-24.5 9.5,-12.5 9.5,-12.5 9.5,-6.5 15.5,-0.5 21.5,-0.5"/>
<text text-anchor="start" x="17.5" y="-14.8" font-family="Times,serif" font-size="14.00">name = &#39;B&#39;</text>
</g>
<!-- N0&#45;&gt;N1 -->
<g id="edge1" class="edge">
<title>N0&#45;&gt;N1</title>
<path fill="none" stroke="#2e3436" d="M20.49,-88.07C16.2,-82.55 12.39,-76.43 10,-70 7.68,-63.75 7.34,-61.11 10,-55 11.7,-51.09 14.07,-47.41 16.8,-44.01"/>
<polygon fill="#2e3436" stroke="#2e3436" points="19.43,-46.32 23.68,-36.62 14.3,-41.55 19.43,-46.32"/>
<text text-anchor="middle" x="37.5" y="-58.8" font-family="Times,serif" font-size="14.00" fill="#2e3436">BLOCKS</text>
</g>
<!-- N0&#45;&gt;N1 -->
<g id="edge2" class="edge">
<title>N0&#45;&gt;N1</title>
<path fill="none" stroke="#4e9a06" d="M61.25,-88.32C65.02,-78.03 67.5,-66.02 65,-55 64.31,-51.97 63.33,-48.89 62.18,-45.88"/>
<polygon fill="#4e9a06" stroke="#4e9a06" points="65.34,-44.37 58.1,-36.63 58.94,-47.19 65.34,-44.37"/>
<text text-anchor="middle" x="92" y="-58.8" font-family="Times,serif" font-size="14.00" fill="#4e9a06">KNOWS</text>
</g>
</g>
</svg>
