<?xml version="1.0" encoding="UTF-8" standalone="no"?>
<!DOCTYPE svg PUBLIC "-//W3C//DTD SVG 1.1//EN"
 "http://www.w3.org/Graphics/SVG/1.1/DTD/svg11.dtd">
<!-- Generated by graphviz version 2.49.3 (20211027.1534)
 -->
<!-- Title: L Pages: 1 -->
<svg width="118pt" height="251pt"
 viewBox="0.00 0.00 118.00 251.00" xmlns="http://www.w3.org/2000/svg" xmlns:xlink="http://www.w3.org/1999/xlink">
<g id="graph0" class="graph" transform="scale(1 1) rotate(0) translate(4 247)">
<title>L</title>
<polygon fill="white" stroke="transparent" points="-4,4 -4,-247 114,-247 114,4 -4,4"/>
<!-- N0 -->
<g id="node1" class="node">
<title>N0</title>
<path fill="none" stroke="black" d="M16.5,-196.5C16.5,-196.5 93.5,-196.5 93.5,-196.5 99.5,-196.5 105.5,-202.5 105.5,-208.5 105.5,-208.5 105.5,-230.5 105.5,-230.5 105.5,-236.5 99.5,-242.5 93.5,-242.5 93.5,-242.5 16.5,-242.5 16.5,-242.5 10.5,-242.5 4.5,-236.5 4.5,-230.5 4.5,-230.5 4.5,-208.5 4.5,-208.5 4.5,-202.5 10.5,-196.5 16.5,-196.5"/>
<text text-anchor="middle" x="55" y="-227.3" font-family="Times,serif" font-size="14.00">User</text>
<polyline fill="none" stroke="black" points="4.5,-219.5 105.5,-219.5 "/>
<text text-anchor="start" x="12.5" y="-204.3" font-family="Times,serif" font-size="14.00">name = &#39;Adam&#39;</text>
</g>
<!-- N1 -->
<g id="node2" class="node">
<title>N1</title>
<path fill="none" stroke="black" d="M12,-98.5C12,-98.5 98,-98.5 98,-98.5 104,-98.5 110,-104.5 110,-110.5 110,-110.5 110,-132.5 110,-132.5 110,-138.5 104,-144.5 98,-144.5 98,-144.5 12,-144.5 12,-144.5 6,-144.5 0,-138.5 0,-132.5 0,-132.5 0,-110.5 0,-110.5 0,-104.5 6,-98.5 12,-98.5"/>
<text text-anchor="middle" x="55" y="-129.3" font-family="Times,serif" font-size="14.00">User</text>
<polyline fill="none" stroke="black" points="0,-121.5 110,-121.5 "/>
<text text-anchor="start" x="8" y="-106.3" font-family="Times,serif" font-size="14.00">name = &#39;Pernilla&#39;</text>
</g>
<!-- N0&#45;&gt;N1 -->
<g id="edge1" class="edge">
<title>N0&#45;&gt;N1</title>
<path fill="none" stroke="#2e3436" d="M55,-196.23C55,-184 55,-168.59 55,-155.03"/>
<polygon fill="#2e3436" stroke="#2e3436" points="58.5,-154.64 55,-144.64 51.5,-154.64 58.5,-154.64"/>
<text text-anchor="middle" x="80.5" y="-166.8" font-family="Times,serif" font-size="14.00" fill="#2e3436">FRIEND</text>
</g>
<!-- N2 -->
<g id="node3" class="node">
<title>N2</title>
<path fill="none" stroke="black" d="M16.5,-0.5C16.5,-0.5 93.5,-0.5 93.5,-0.5 99.5,-0.5 105.5,-6.5 105.5,-12.5 105.5,-12.5 105.5,-34.5 105.5,-34.5 105.5,-40.5 99.5,-46.5 93.5,-46.5 93.5,-46.5 16.5,-46.5 16.5,-46.5 10.5,-46.5 4.5,-40.5 4.5,-34.5 4.5,-34.5 4.5,-12.5 4.5,-12.5 4.5,-6.5 10.5,-0.5 16.5,-0.5"/>
<text text-anchor="middle" x="55" y="-31.3" font-family="Times,serif" font-size="14.00">User</text>
<polyline fill="none" stroke="black" points="4.5,-23.5 105.5,-23.5 "/>
<text text-anchor="start" x="12.5" y="-8.3" font-family="Times,serif" font-size="14.00">name = &#39;David&#39;</text>
</g>
<!-- N1&#45;&gt;N2 -->
<g id="edge2" class="edge">
<title>N1&#45;&gt;N2</title>
<path fill="none" stroke="#2e3436" d="M55,-98.23C55,-86 55,-70.59 55,-57.03"/>
<polygon fill="#2e3436" stroke="#2e3436" points="58.5,-56.64 55,-46.64 51.5,-56.64 58.5,-56.64"/>
<text text-anchor="middle" x="80.5" y="-68.8" font-family="Times,serif" font-size="14.00" fill="#2e3436">FRIEND</text>
</g>
</g>
</svg>
