<?xml version="1.0" encoding="UTF-8" standalone="no"?>
<!DOCTYPE svg PUBLIC "-//W3C//DTD SVG 1.1//EN"
 "http://www.w3.org/Graphics/SVG/1.1/DTD/svg11.dtd">
<!-- Generated by graphviz version 2.49.3 (20211027.1534)
 -->
<!-- Title: L Pages: 1 -->
<svg width="900pt" height="311pt"
 viewBox="0.00 0.00 900.00 311.00" xmlns="http://www.w3.org/2000/svg" xmlns:xlink="http://www.w3.org/1999/xlink">
<g id="graph0" class="graph" transform="scale(1 1) rotate(0) translate(4 307)">
<title>L</title>
<polygon fill="white" stroke="transparent" points="-4,4 -4,-307 896,-307 896,4 -4,4"/>
<!-- N0 -->
<g id="node1" class="node">
<title>N0</title>
<path fill="none" stroke="black" d="M356,-226.5C356,-226.5 520,-226.5 520,-226.5 526,-226.5 532,-232.5 532,-238.5 532,-238.5 532,-290.5 532,-290.5 532,-296.5 526,-302.5 520,-302.5 520,-302.5 356,-302.5 356,-302.5 350,-302.5 344,-296.5 344,-290.5 344,-290.5 344,-238.5 344,-238.5 344,-232.5 350,-226.5 356,-226.5"/>
<text text-anchor="middle" x="438" y="-287.3" font-family="Times,serif" font-size="14.00">Person</text>
<polyline fill="none" stroke="black" points="344,-279.5 532,-279.5 "/>
<text text-anchor="start" x="352" y="-264.3" font-family="Times,serif" font-size="14.00">bornIn = &#39;New York&#39;</text>
<text text-anchor="start" x="352" y="-249.3" font-family="Times,serif" font-size="14.00">chauffeurName = &#39;John Brown&#39;</text>
<text text-anchor="start" x="352" y="-234.3" font-family="Times,serif" font-size="14.00">name = &#39;Charlie Sheen&#39;</text>
</g>
<!-- N1 -->
<g id="node2" class="node">
<title>N1</title>
<path fill="none" stroke="black" d="M520.5,-98.5C520.5,-98.5 681.5,-98.5 681.5,-98.5 687.5,-98.5 693.5,-104.5 693.5,-110.5 693.5,-110.5 693.5,-162.5 693.5,-162.5 693.5,-168.5 687.5,-174.5 681.5,-174.5 681.5,-174.5 520.5,-174.5 520.5,-174.5 514.5,-174.5 508.5,-168.5 508.5,-162.5 508.5,-162.5 508.5,-110.5 508.5,-110.5 508.5,-104.5 514.5,-98.5 520.5,-98.5"/>
<text text-anchor="middle" x="601" y="-159.3" font-family="Times,serif" font-size="14.00">Person</text>
<polyline fill="none" stroke="black" points="508.5,-151.5 693.5,-151.5 "/>
<text text-anchor="start" x="516.5" y="-136.3" font-family="Times,serif" font-size="14.00">bornIn = &#39;Ohio&#39;</text>
<text text-anchor="start" x="516.5" y="-121.3" font-family="Times,serif" font-size="14.00">chauffeurName = &#39;Bob Brown&#39;</text>
<text text-anchor="start" x="516.5" y="-106.3" font-family="Times,serif" font-size="14.00">name = &#39;Martin Sheen&#39;</text>
</g>
<!-- N0&#45;&gt;N1 -->
<g id="edge1" class="edge">
<title>N0&#45;&gt;N1</title>
<path fill="none" stroke="#2e3436" d="M486.02,-226.38C504.51,-212.09 525.78,-195.64 544.96,-180.82"/>
<polygon fill="#2e3436" stroke="#2e3436" points="547.27,-183.46 553.04,-174.57 542.99,-177.92 547.27,-183.46"/>
<text text-anchor="middle" x="551.5" y="-196.8" font-family="Times,serif" font-size="14.00" fill="#2e3436">FATHER</text>
</g>
<!-- N5 -->
<g id="node3" class="node">
<title>N5</title>
<path fill="none" stroke="black" d="M308.5,-0.5C308.5,-0.5 405.5,-0.5 405.5,-0.5 411.5,-0.5 417.5,-6.5 417.5,-12.5 417.5,-12.5 417.5,-34.5 417.5,-34.5 417.5,-40.5 411.5,-46.5 405.5,-46.5 405.5,-46.5 308.5,-46.5 308.5,-46.5 302.5,-46.5 296.5,-40.5 296.5,-34.5 296.5,-34.5 296.5,-12.5 296.5,-12.5 296.5,-6.5 302.5,-0.5 308.5,-0.5"/>
<text text-anchor="middle" x="357" y="-31.3" font-family="Times,serif" font-size="14.00">Movie</text>
<polyline fill="none" stroke="black" points="296.5,-23.5 417.5,-23.5 "/>
<text text-anchor="start" x="304.5" y="-8.3" font-family="Times,serif" font-size="14.00">title = &#39;Wall Street&#39;</text>
</g>
<!-- N0&#45;&gt;N5 -->
<g id="edge2" class="edge">
<title>N0&#45;&gt;N5</title>
<path fill="none" stroke="#4e9a06" d="M434.88,-226.13C430.21,-176.48 420.29,-91.87 405,-65 402.76,-61.06 399.97,-57.32 396.88,-53.84"/>
<polygon fill="#4e9a06" stroke="#4e9a06" points="399.25,-51.26 389.73,-46.62 394.28,-56.18 399.25,-51.26"/>
<text text-anchor="middle" x="464" y="-132.8" font-family="Times,serif" font-size="14.00" fill="#4e9a06">ACTED_IN</text>
</g>
<!-- N1&#45;&gt;N5 -->
<g id="edge4" class="edge">
<title>N1&#45;&gt;N5</title>
<path fill="none" stroke="#4e9a06" d="M567.89,-98.36C555.24,-86.15 540,-73.52 524,-65 494.3,-49.17 458.36,-39.43 427.43,-33.48"/>
<polygon fill="#4e9a06" stroke="#4e9a06" points="428.05,-30.04 417.58,-31.68 426.79,-36.93 428.05,-30.04"/>
<text text-anchor="middle" x="580" y="-68.8" font-family="Times,serif" font-size="14.00" fill="#4e9a06">ACTED_IN</text>
</g>
<!-- N6 -->
<g id="node4" class="node">
<title>N6</title>
<path fill="none" stroke="black" d="M553,-0.5C553,-0.5 721,-0.5 721,-0.5 727,-0.5 733,-6.5 733,-12.5 733,-12.5 733,-34.5 733,-34.5 733,-40.5 727,-46.5 721,-46.5 721,-46.5 553,-46.5 553,-46.5 547,-46.5 541,-40.5 541,-34.5 541,-34.5 541,-12.5 541,-12.5 541,-6.5 547,-0.5 553,-0.5"/>
<text text-anchor="middle" x="637" y="-31.3" font-family="Times,serif" font-size="14.00">Movie</text>
<polyline fill="none" stroke="black" points="541,-23.5 733,-23.5 "/>
<text text-anchor="start" x="549" y="-8.3" font-family="Times,serif" font-size="14.00">title = &#39;The American President&#39;</text>
</g>
<!-- N1&#45;&gt;N6 -->
<g id="edge3" class="edge">
<title>N1&#45;&gt;N6</title>
<path fill="none" stroke="#4e9a06" d="M613.09,-98.23C617.52,-84.58 622.48,-69.27 626.73,-56.16"/>
<polygon fill="#4e9a06" stroke="#4e9a06" points="630.07,-57.21 629.83,-46.62 623.41,-55.05 630.07,-57.21"/>
<text text-anchor="middle" x="657" y="-68.8" font-family="Times,serif" font-size="14.00" fill="#4e9a06">ACTED_IN</text>
</g>
<!-- N2 -->
<g id="node5" class="node">
<title>N2</title>
<path fill="none" stroke="black" d="M210,-98.5C210,-98.5 374,-98.5 374,-98.5 380,-98.5 386,-104.5 386,-110.5 386,-110.5 386,-162.5 386,-162.5 386,-168.5 380,-174.5 374,-174.5 374,-174.5 210,-174.5 210,-174.5 204,-174.5 198,-168.5 198,-162.5 198,-162.5 198,-110.5 198,-110.5 198,-104.5 204,-98.5 210,-98.5"/>
<text text-anchor="middle" x="292" y="-159.3" font-family="Times,serif" font-size="14.00">Person</text>
<polyline fill="none" stroke="black" points="198,-151.5 386,-151.5 "/>
<text text-anchor="start" x="206" y="-136.3" font-family="Times,serif" font-size="14.00">name = &#39;Michael Douglas&#39;</text>
<text text-anchor="start" x="206" y="-121.3" font-family="Times,serif" font-size="14.00">chauffeurName = &#39;John Brown&#39;</text>
<text text-anchor="start" x="206" y="-106.3" font-family="Times,serif" font-size="14.00">bornIn = &#39;New Jersey&#39;</text>
</g>
<!-- N2&#45;&gt;N5 -->
<g id="edge5" class="edge">
<title>N2&#45;&gt;N5</title>
<path fill="none" stroke="#4e9a06" d="M313.82,-98.23C321.98,-84.31 331.13,-68.67 338.91,-55.39"/>
<polygon fill="#4e9a06" stroke="#4e9a06" points="342.01,-57.02 344.05,-46.62 335.97,-53.48 342.01,-57.02"/>
<text text-anchor="middle" x="367" y="-68.8" font-family="Times,serif" font-size="14.00" fill="#4e9a06">ACTED_IN</text>
</g>
<!-- N2&#45;&gt;N6 -->
<g id="edge6" class="edge">
<title>N2&#45;&gt;N6</title>
<path fill="none" stroke="#4e9a06" d="M367.69,-98.44C393.95,-86.59 423.86,-74.18 452,-65 477.22,-56.77 504.92,-49.71 531.04,-43.89"/>
<polygon fill="#4e9a06" stroke="#4e9a06" points="531.94,-47.28 540.96,-41.72 530.44,-40.44 531.94,-47.28"/>
<text text-anchor="middle" x="486" y="-68.8" font-family="Times,serif" font-size="14.00" fill="#4e9a06">ACTED_IN</text>
</g>
<!-- N3 -->
<g id="node6" class="node">
<title>N3</title>
<path fill="none" stroke="black" d="M12,-98.5C12,-98.5 168,-98.5 168,-98.5 174,-98.5 180,-104.5 180,-110.5 180,-110.5 180,-162.5 180,-162.5 180,-168.5 174,-174.5 168,-174.5 168,-174.5 12,-174.5 12,-174.5 6,-174.5 0,-168.5 0,-162.5 0,-162.5 0,-110.5 0,-110.5 0,-104.5 6,-98.5 12,-98.5"/>
<text text-anchor="middle" x="90" y="-159.3" font-family="Times,serif" font-size="14.00">Person</text>
<polyline fill="none" stroke="black" points="0,-151.5 180,-151.5 "/>
<text text-anchor="start" x="8" y="-136.3" font-family="Times,serif" font-size="14.00">bornIn = &#39;New York&#39;</text>
<text text-anchor="start" x="8" y="-121.3" font-family="Times,serif" font-size="14.00">chauffeurName = &#39;Bill White&#39;</text>
<text text-anchor="start" x="8" y="-106.3" font-family="Times,serif" font-size="14.00">name = &#39;Oliver Stone&#39;</text>
</g>
<!-- N3&#45;&gt;N5 -->
<g id="edge7" class="edge">
<title>N3&#45;&gt;N5</title>
<path fill="none" stroke="#4e9a06" d="M173.93,-98.5C199.26,-87.52 227.19,-75.6 253,-65 264.93,-60.1 277.68,-55.01 290.02,-50.16"/>
<polygon fill="#4e9a06" stroke="#4e9a06" points="291.32,-53.41 299.36,-46.51 288.77,-46.89 291.32,-53.41"/>
<text text-anchor="middle" x="287" y="-68.8" font-family="Times,serif" font-size="14.00" fill="#4e9a06">ACTED_IN</text>
</g>
<!-- N4 -->
<g id="node7" class="node">
<title>N4</title>
<path fill="none" stroke="black" d="M724,-98.5C724,-98.5 880,-98.5 880,-98.5 886,-98.5 892,-104.5 892,-110.5 892,-110.5 892,-162.5 892,-162.5 892,-168.5 886,-174.5 880,-174.5 880,-174.5 724,-174.5 724,-174.5 718,-174.5 712,-168.5 712,-162.5 712,-162.5 712,-110.5 712,-110.5 712,-104.5 718,-98.5 724,-98.5"/>
<text text-anchor="middle" x="802" y="-159.3" font-family="Times,serif" font-size="14.00">Person</text>
<polyline fill="none" stroke="black" points="712,-151.5 892,-151.5 "/>
<text text-anchor="start" x="720" y="-136.3" font-family="Times,serif" font-size="14.00">bornIn = &#39;New York&#39;</text>
<text text-anchor="start" x="720" y="-121.3" font-family="Times,serif" font-size="14.00">chauffeurName = &#39;Ted Green&#39;</text>
<text text-anchor="start" x="720" y="-106.3" font-family="Times,serif" font-size="14.00">name = &#39;Rob Reiner&#39;</text>
</g>
<!-- N4&#45;&gt;N6 -->
<g id="edge8" class="edge">
<title>N4&#45;&gt;N6</title>
<path fill="none" stroke="#4e9a06" d="M746.6,-98.23C724.32,-83.24 699.07,-66.25 678.43,-52.37"/>
<polygon fill="#4e9a06" stroke="#4e9a06" points="680.13,-49.3 669.88,-46.62 676.23,-55.11 680.13,-49.3"/>
<text text-anchor="middle" x="753" y="-68.8" font-family="Times,serif" font-size="14.00" fill="#4e9a06">ACTED_IN</text>
</g>
</g>
</svg>
