<?xml version="1.0" encoding="UTF-8" standalone="no"?>
<!DOCTYPE svg PUBLIC "-//W3C//DTD SVG 1.1//EN"
 "http://www.w3.org/Graphics/SVG/1.1/DTD/svg11.dtd">
<!-- Generated by graphviz version 2.49.3 (20211027.1534)
 -->
<!-- Title: L Pages: 1 -->
<svg width="252pt" height="183pt"
 viewBox="0.00 0.00 252.00 183.00" xmlns="http://www.w3.org/2000/svg" xmlns:xlink="http://www.w3.org/1999/xlink">
<g id="graph0" class="graph" transform="scale(1 1) rotate(0) translate(4 179)">
<title>L</title>
<polygon fill="white" stroke="transparent" points="-4,4 -4,-179 248,-179 248,4 -4,4"/>
<!-- N0 -->
<g id="node1" class="node">
<title>N0</title>
<path fill="none" stroke="black" d="M84,-113.5C84,-113.5 158,-113.5 158,-113.5 164,-113.5 170,-119.5 170,-125.5 170,-125.5 170,-162.5 170,-162.5 170,-168.5 164,-174.5 158,-174.5 158,-174.5 84,-174.5 84,-174.5 78,-174.5 72,-168.5 72,-162.5 72,-162.5 72,-125.5 72,-125.5 72,-119.5 78,-113.5 84,-113.5"/>
<text text-anchor="middle" x="121" y="-159.3" font-family="Times,serif" font-size="14.00">Swedish</text>
<polyline fill="none" stroke="black" points="72,-151.5 170,-151.5 "/>
<text text-anchor="start" x="80" y="-136.3" font-family="Times,serif" font-size="14.00">age = 36</text>
<text text-anchor="start" x="80" y="-121.3" font-family="Times,serif" font-size="14.00">name = &#39;Andy&#39;</text>
</g>
<!-- N2 -->
<g id="node2" class="node">
<title>N2</title>
<path fill="none" stroke="black" d="M12,-0.5C12,-0.5 100,-0.5 100,-0.5 106,-0.5 112,-6.5 112,-12.5 112,-12.5 112,-49.5 112,-49.5 112,-55.5 106,-61.5 100,-61.5 100,-61.5 12,-61.5 12,-61.5 6,-61.5 0,-55.5 0,-49.5 0,-49.5 0,-12.5 0,-12.5 0,-6.5 6,-0.5 12,-0.5"/>
<text text-anchor="middle" x="56" y="-46.3" font-family="Times,serif" font-size="14.00">Swedish, German</text>
<polyline fill="none" stroke="black" points="0,-38.5 112,-38.5 "/>
<text text-anchor="start" x="8" y="-23.3" font-family="Times,serif" font-size="14.00">age = 34</text>
<text text-anchor="start" x="8" y="-8.3" font-family="Times,serif" font-size="14.00">name = &#39;Peter&#39;</text>
</g>
<!-- N0&#45;&gt;N2 -->
<g id="edge1" class="edge">
<title>N0&#45;&gt;N2</title>
<path fill="none" stroke="#2e3436" d="M103.58,-113.25C95.93,-100.19 86.85,-84.68 78.68,-70.73"/>
<polygon fill="#2e3436" stroke="#2e3436" points="81.54,-68.69 73.47,-61.83 75.5,-72.23 81.54,-68.69"/>
<text text-anchor="middle" x="119" y="-83.8" font-family="Times,serif" font-size="14.00" fill="#2e3436">KNOWS</text>
</g>
<!-- N1 -->
<g id="node3" class="node">
<title>N1</title>
<path fill="none" stroke="black" d="M142,-0.5C142,-0.5 232,-0.5 232,-0.5 238,-0.5 244,-6.5 244,-12.5 244,-12.5 244,-49.5 244,-49.5 244,-55.5 238,-61.5 232,-61.5 232,-61.5 142,-61.5 142,-61.5 136,-61.5 130,-55.5 130,-49.5 130,-49.5 130,-12.5 130,-12.5 130,-6.5 136,-0.5 142,-0.5"/>
<text text-anchor="middle" x="187" y="-46.3" font-family="Times,serif" font-size="14.00">Swedish</text>
<polyline fill="none" stroke="black" points="130,-38.5 244,-38.5 "/>
<text text-anchor="start" x="138" y="-23.3" font-family="Times,serif" font-size="14.00">age = 25</text>
<text text-anchor="start" x="138" y="-8.3" font-family="Times,serif" font-size="14.00">name = &#39;Timothy&#39;</text>
</g>
<!-- N0&#45;&gt;N1 -->
<g id="edge2" class="edge">
<title>N0&#45;&gt;N1</title>
<path fill="none" stroke="#2e3436" d="M138.69,-113.25C146.45,-100.19 155.68,-84.68 163.97,-70.73"/>
<polygon fill="#2e3436" stroke="#2e3436" points="167.16,-72.21 169.26,-61.83 161.15,-68.63 167.16,-72.21"/>
<text text-anchor="middle" x="183" y="-83.8" font-family="Times,serif" font-size="14.00" fill="#2e3436">KNOWS</text>
</g>
</g>
</svg>
