<?xml version="1.0" encoding="UTF-8" standalone="no"?>
<!DOCTYPE svg PUBLIC "-//W3C//DTD SVG 1.1//EN"
 "http://www.w3.org/Graphics/SVG/1.1/DTD/svg11.dtd">
<!-- Generated by graphviz version 2.49.3 (20211027.1534)
 -->
<!-- Title: L Pages: 1 -->
<svg width="364pt" height="310pt"
 viewBox="0.00 0.00 364.00 310.00" xmlns="http://www.w3.org/2000/svg" xmlns:xlink="http://www.w3.org/1999/xlink">
<g id="graph0" class="graph" transform="scale(1 1) rotate(0) translate(4 306)">
<title>L</title>
<polygon fill="white" stroke="transparent" points="-4,4 -4,-306 360,-306 360,4 -4,4"/>
<!-- N0 -->
<g id="node1" class="node">
<title>N0</title>
<path fill="none" stroke="black" d="M75.5,-225.5C75.5,-225.5 148.5,-225.5 148.5,-225.5 154.5,-225.5 160.5,-231.5 160.5,-237.5 160.5,-237.5 160.5,-289.5 160.5,-289.5 160.5,-295.5 154.5,-301.5 148.5,-301.5 148.5,-301.5 75.5,-301.5 75.5,-301.5 69.5,-301.5 63.5,-295.5 63.5,-289.5 63.5,-289.5 63.5,-237.5 63.5,-237.5 63.5,-231.5 69.5,-225.5 75.5,-225.5"/>
<text text-anchor="middle" x="112" y="-286.3" font-family="Times,serif" font-size="14.00">Developer</text>
<polyline fill="none" stroke="black" points="63.5,-278.5 160.5,-278.5 "/>
<text text-anchor="start" x="71.5" y="-263.3" font-family="Times,serif" font-size="14.00">name = &#39;Alice&#39;</text>
<text text-anchor="start" x="71.5" y="-248.3" font-family="Times,serif" font-size="14.00">age = 38</text>
<text text-anchor="start" x="71.5" y="-233.3" font-family="Times,serif" font-size="14.00">eyes = &#39;brown&#39;</text>
</g>
<!-- N2 -->
<g id="node2" class="node">
<title>N2</title>
<path fill="none" stroke="black" d="M12,-120.5C12,-120.5 96,-120.5 96,-120.5 102,-120.5 108,-126.5 108,-132.5 108,-132.5 108,-161.5 108,-161.5 108,-167.5 102,-173.5 96,-173.5 96,-173.5 12,-173.5 12,-173.5 6,-173.5 0,-167.5 0,-161.5 0,-161.5 0,-132.5 0,-132.5 0,-126.5 6,-120.5 12,-120.5"/>
<text text-anchor="start" x="8" y="-158.3" font-family="Times,serif" font-size="14.00">name = &#39;Charlie&#39;</text>
<text text-anchor="start" x="8" y="-143.3" font-family="Times,serif" font-size="14.00">age = 53</text>
<text text-anchor="start" x="8" y="-128.3" font-family="Times,serif" font-size="14.00">eyes = &#39;green&#39;</text>
</g>
<!-- N0&#45;&gt;N2 -->
<g id="edge1" class="edge">
<title>N0&#45;&gt;N2</title>
<path fill="none" stroke="#2e3436" d="M93.17,-225.33C86.24,-211.64 78.41,-196.2 71.59,-182.73"/>
<polygon fill="#2e3436" stroke="#2e3436" points="74.7,-181.11 67.05,-173.77 68.45,-184.27 74.7,-181.11"/>
<text text-anchor="middle" x="109" y="-195.8" font-family="Times,serif" font-size="14.00" fill="#2e3436">KNOWS</text>
</g>
<!-- N1 -->
<g id="node3" class="node">
<title>N1</title>
<path fill="none" stroke="black" d="M138,-120.5C138,-120.5 204,-120.5 204,-120.5 210,-120.5 216,-126.5 216,-132.5 216,-132.5 216,-161.5 216,-161.5 216,-167.5 210,-173.5 204,-173.5 204,-173.5 138,-173.5 138,-173.5 132,-173.5 126,-167.5 126,-161.5 126,-161.5 126,-132.5 126,-132.5 126,-126.5 132,-120.5 138,-120.5"/>
<text text-anchor="start" x="134" y="-158.3" font-family="Times,serif" font-size="14.00">name = &#39;Bob&#39;</text>
<text text-anchor="start" x="134" y="-143.3" font-family="Times,serif" font-size="14.00">age = 25</text>
<text text-anchor="start" x="134" y="-128.3" font-family="Times,serif" font-size="14.00">eyes = &#39;blue&#39;</text>
</g>
<!-- N0&#45;&gt;N1 -->
<g id="edge2" class="edge">
<title>N0&#45;&gt;N1</title>
<path fill="none" stroke="#2e3436" d="M131.16,-225.33C138.21,-211.64 146.17,-196.2 153.1,-182.73"/>
<polygon fill="#2e3436" stroke="#2e3436" points="156.25,-184.26 157.72,-173.77 150.03,-181.06 156.25,-184.26"/>
<text text-anchor="middle" x="172" y="-195.8" font-family="Times,serif" font-size="14.00" fill="#2e3436">KNOWS</text>
</g>
<!-- N3 -->
<g id="node4" class="node">
<title>N3</title>
<path fill="none" stroke="black" d="M14,-8C14,-8 94,-8 94,-8 100,-8 106,-14 106,-20 106,-20 106,-49 106,-49 106,-55 100,-61 94,-61 94,-61 14,-61 14,-61 8,-61 2,-55 2,-49 2,-49 2,-20 2,-20 2,-14 8,-8 14,-8"/>
<text text-anchor="start" x="10" y="-45.8" font-family="Times,serif" font-size="14.00">name = &#39;Daniel&#39;</text>
<text text-anchor="start" x="10" y="-30.8" font-family="Times,serif" font-size="14.00">age = 54</text>
<text text-anchor="start" x="10" y="-15.8" font-family="Times,serif" font-size="14.00">eyes = &#39;brown&#39;</text>
</g>
<!-- N2&#45;&gt;N3 -->
<g id="edge5" class="edge">
<title>N2&#45;&gt;N3</title>
<path fill="none" stroke="#2e3436" d="M54,-120.37C54,-105.83 54,-87.41 54,-71.44"/>
<polygon fill="#2e3436" stroke="#2e3436" points="57.5,-71.37 54,-61.37 50.5,-71.37 57.5,-71.37"/>
<text text-anchor="middle" x="80" y="-90.8" font-family="Times,serif" font-size="14.00" fill="#2e3436">KNOWS</text>
</g>
<!-- N1&#45;&gt;N3 -->
<g id="edge3" class="edge">
<title>N1&#45;&gt;N3</title>
<path fill="none" stroke="#2e3436" d="M144.72,-120.3C134.01,-109.9 121.47,-97.82 110,-87 103.51,-80.88 96.54,-74.4 89.8,-68.18"/>
<polygon fill="#2e3436" stroke="#2e3436" points="91.77,-65.23 82.04,-61.03 87.03,-70.38 91.77,-65.23"/>
<text text-anchor="middle" x="151" y="-90.8" font-family="Times,serif" font-size="14.00" fill="#2e3436">KNOWS</text>
</g>
<!-- N4 -->
<g id="node5" class="node">
<title>N4</title>
<path fill="none" stroke="black" d="M136,-0.5C136,-0.5 344,-0.5 344,-0.5 350,-0.5 356,-6.5 356,-12.5 356,-12.5 356,-56.5 356,-56.5 356,-62.5 350,-68.5 344,-68.5 344,-68.5 136,-68.5 136,-68.5 130,-68.5 124,-62.5 124,-56.5 124,-56.5 124,-12.5 124,-12.5 124,-6.5 130,-0.5 136,-0.5"/>
<text text-anchor="start" x="132" y="-53.3" font-family="Times,serif" font-size="14.00">eyes = &#39;blue&#39;</text>
<text text-anchor="start" x="132" y="-38.3" font-family="Times,serif" font-size="14.00">liked_colors = [&#39;pink&#39;, &#39;yellow&#39;, &#39;black&#39;]</text>
<text text-anchor="start" x="132" y="-23.3" font-family="Times,serif" font-size="14.00">name = &#39;Eskil&#39;</text>
<text text-anchor="start" x="132" y="-8.3" font-family="Times,serif" font-size="14.00">age = 41</text>
</g>
<!-- N1&#45;&gt;N4 -->
<g id="edge4" class="edge">
<title>N1&#45;&gt;N4</title>
<path fill="none" stroke="#4e9a06" d="M190.48,-120.3C194.75,-114.39 199.14,-108.05 203,-102 207.96,-94.23 212.97,-85.76 217.62,-77.54"/>
<polygon fill="#4e9a06" stroke="#4e9a06" points="220.7,-79.21 222.52,-68.77 214.59,-75.8 220.7,-79.21"/>
<text text-anchor="middle" x="242.5" y="-90.8" font-family="Times,serif" font-size="14.00" fill="#4e9a06">MARRIED</text>
</g>
</g>
</svg>
