<?xml version="1.0" encoding="UTF-8" standalone="no"?>
<!DOCTYPE svg PUBLIC "-//W3C//DTD SVG 1.1//EN"
 "http://www.w3.org/Graphics/SVG/1.1/DTD/svg11.dtd">
<!-- Generated by graphviz version 2.49.3 (20211027.1534)
 -->
<!-- Title: L Pages: 1 -->
<svg width="369pt" height="183pt"
 viewBox="0.00 0.00 368.50 183.00" xmlns="http://www.w3.org/2000/svg" xmlns:xlink="http://www.w3.org/1999/xlink">
<g id="graph0" class="graph" transform="scale(1 1) rotate(0) translate(4 179)">
<title>L</title>
<polygon fill="white" stroke="transparent" points="-4,4 -4,-179 364.5,-179 364.5,4 -4,4"/>
<!-- N0 -->
<g id="node1" class="node">
<title>N0</title>
<path fill="none" stroke="black" d="M75.5,-113.5C75.5,-113.5 148.5,-113.5 148.5,-113.5 154.5,-113.5 160.5,-119.5 160.5,-125.5 160.5,-125.5 160.5,-162.5 160.5,-162.5 160.5,-168.5 154.5,-174.5 148.5,-174.5 148.5,-174.5 75.5,-174.5 75.5,-174.5 69.5,-174.5 63.5,-168.5 63.5,-162.5 63.5,-162.5 63.5,-125.5 63.5,-125.5 63.5,-119.5 69.5,-113.5 75.5,-113.5"/>
<text text-anchor="middle" x="112" y="-159.3" font-family="Times,serif" font-size="14.00">Person, Child</text>
<polyline fill="none" stroke="black" points="63.5,-151.5 160.5,-151.5 "/>
<text text-anchor="start" x="71.5" y="-136.3" font-family="Times,serif" font-size="14.00">age = 20</text>
<text text-anchor="start" x="71.5" y="-121.3" font-family="Times,serif" font-size="14.00">name = &#39;Alice&#39;</text>
</g>
<!-- N2 -->
<g id="node2" class="node">
<title>N2</title>
<path fill="none" stroke="black" d="M12,-0.5C12,-0.5 96,-0.5 96,-0.5 102,-0.5 108,-6.5 108,-12.5 108,-12.5 108,-49.5 108,-49.5 108,-55.5 102,-61.5 96,-61.5 96,-61.5 12,-61.5 12,-61.5 6,-61.5 0,-55.5 0,-49.5 0,-49.5 0,-12.5 0,-12.5 0,-6.5 6,-0.5 12,-0.5"/>
<text text-anchor="middle" x="54" y="-46.3" font-family="Times,serif" font-size="14.00">Person, Parent</text>
<polyline fill="none" stroke="black" points="0,-38.5 108,-38.5 "/>
<text text-anchor="start" x="8" y="-23.3" font-family="Times,serif" font-size="14.00">age = 65</text>
<text text-anchor="start" x="8" y="-8.3" font-family="Times,serif" font-size="14.00">name = &#39;Charlie&#39;</text>
</g>
<!-- N0&#45;&gt;N2 -->
<g id="edge1" class="edge">
<title>N0&#45;&gt;N2</title>
<path fill="none" stroke="#2e3436" d="M91.69,-113.25C87.95,-107.31 84.22,-101.04 81,-95 76.94,-87.37 73.01,-79.01 69.47,-70.93"/>
<polygon fill="#2e3436" stroke="#2e3436" points="72.65,-69.47 65.5,-61.65 66.21,-72.22 72.65,-69.47"/>
<text text-anchor="middle" x="115" y="-83.8" font-family="Times,serif" font-size="14.00" fill="#2e3436">CHILD_OF</text>
</g>
<!-- N1 -->
<g id="node3" class="node">
<title>N1</title>
<path fill="none" stroke="black" d="M138,-0.5C138,-0.5 204,-0.5 204,-0.5 210,-0.5 216,-6.5 216,-12.5 216,-12.5 216,-49.5 216,-49.5 216,-55.5 210,-61.5 204,-61.5 204,-61.5 138,-61.5 138,-61.5 132,-61.5 126,-55.5 126,-49.5 126,-49.5 126,-12.5 126,-12.5 126,-6.5 132,-0.5 138,-0.5"/>
<text text-anchor="middle" x="171" y="-46.3" font-family="Times,serif" font-size="14.00">Person</text>
<polyline fill="none" stroke="black" points="126,-38.5 216,-38.5 "/>
<text text-anchor="start" x="134" y="-23.3" font-family="Times,serif" font-size="14.00">age = 27</text>
<text text-anchor="start" x="134" y="-8.3" font-family="Times,serif" font-size="14.00">name = &#39;Bob&#39;</text>
</g>
<!-- N0&#45;&gt;N1 -->
<g id="edge2" class="edge">
<title>N0&#45;&gt;N1</title>
<path fill="none" stroke="#4e9a06" d="M137.23,-113.28C141.51,-107.44 145.64,-101.2 149,-95 153,-87.61 156.5,-79.36 159.46,-71.31"/>
<polygon fill="#4e9a06" stroke="#4e9a06" points="162.83,-72.28 162.8,-61.68 156.22,-69.98 162.83,-72.28"/>
<text text-anchor="middle" x="194" y="-83.8" font-family="Times,serif" font-size="14.00" fill="#4e9a06">FRIEND_OF</text>
</g>
<!-- N3 -->
<g id="node4" class="node">
<title>N3</title>
<path fill="none" stroke="black" d="M190.5,-113.5C190.5,-113.5 261.5,-113.5 261.5,-113.5 267.5,-113.5 273.5,-119.5 273.5,-125.5 273.5,-125.5 273.5,-162.5 273.5,-162.5 273.5,-168.5 267.5,-174.5 261.5,-174.5 261.5,-174.5 190.5,-174.5 190.5,-174.5 184.5,-174.5 178.5,-168.5 178.5,-162.5 178.5,-162.5 178.5,-125.5 178.5,-125.5 178.5,-119.5 184.5,-113.5 190.5,-113.5"/>
<text text-anchor="middle" x="226" y="-159.3" font-family="Times,serif" font-size="14.00">Person</text>
<polyline fill="none" stroke="black" points="178.5,-151.5 273.5,-151.5 "/>
<text text-anchor="start" x="186.5" y="-136.3" font-family="Times,serif" font-size="14.00">age = 30</text>
<text text-anchor="start" x="186.5" y="-121.3" font-family="Times,serif" font-size="14.00">name = &#39;Dora&#39;</text>
</g>
<!-- N4 -->
<g id="node5" class="node">
<title>N4</title>
<path fill="none" stroke="black" d="M303.5,-121C303.5,-121 348.5,-121 348.5,-121 354.5,-121 360.5,-127 360.5,-133 360.5,-133 360.5,-155 360.5,-155 360.5,-161 354.5,-167 348.5,-167 348.5,-167 303.5,-167 303.5,-167 297.5,-167 291.5,-161 291.5,-155 291.5,-155 291.5,-133 291.5,-133 291.5,-127 297.5,-121 303.5,-121"/>
<text text-anchor="middle" x="326" y="-151.8" font-family="Times,serif" font-size="14.00">Counter</text>
<polyline fill="none" stroke="black" points="291.5,-144 360.5,-144 "/>
<text text-anchor="start" x="299.5" y="-128.8" font-family="Times,serif" font-size="14.00">count = 0</text>
</g>
</g>
</svg>
