<svg xmlns="http://www.w3.org/2000/svg" width="457" height="157" viewBox="0 0 457 157"><defs><style type="text/css"/></defs><g transform="translate(-194.681396484375 4) scale(1)"><g class="relationship"><g transform="translate(268 50) rotate(0)" stroke-width="2" stroke="#000000"><path d="M 59 0 L 245.74703838070468 0"/><polygon points="-14.155129855222071,0 -15.727922061357857,5.242640687119286 0,0 -15.727922061357857,-5.242640687119286" fill="#000000" transform="translate(259.90216823592675 0) rotate(0)" stroke="none"/></g><g transform="translate(420.37351919035234 50) rotate(0) translate(0 -13)"><g transform="translate(0 0)"><g transform="translate(-67.98046875 0)" fill="#ffffff" stroke="#000000" stroke-width="0"><rect x="0" y="0" width="135.9609375" height="26" rx="5" ry="5" stroke="none"/><text xml:space="preserve" x="5" y="17.45703125" stroke="none" text-anchor="left" font-family="sans-serif" font-size="16" font-weight="normal" fill="#000000">TRAVEL_ROUTE</text></g></g></g></g><g class="node"><g fill="#ffffff" stroke="#006FD6" stroke-width="4"><circle cx="268" cy="50" r="52"/></g><g transform="translate(268 50)"><g transform="scale(0.6715432525422473) translate(0 -19)"><g transform="translate(0 0)"><g transform="translate(-64.259765625 0)"><g fill="#000000" stroke="#000000" stroke-width="4" font-family="sans-serif" font-size="24" font-weight="normal"><text xml:space="preserve" x="0" y="25.685546875" stroke="none">TrainStation</text></g></g></g></g><g transform="translate(3.429011037612589e-15 56)"><g transform="translate(0 0)"><g transform="translate(-73.318603515625 0)" fill="white"><rect x="0" y="0" width="146.63720703125" height="46.8" rx="0" ry="0" stroke="none"/><g font-family="sans-serif" font-size="13" font-weight="normal" fill="#535B66" text-anchor="end"><text xml:space="preserve" x="59.99169921875" y="11.421337890625" stroke="none">latitude:</text><text xml:space="preserve" x="63.603515625" y="11.421337890625" stroke="none" text-anchor="start">55.672874</text><text xml:space="preserve" x="59.99169921875" y="27.021337890625" stroke="none" text-anchor="end">longitude:</text><text xml:space="preserve" x="63.603515625" y="27.021337890625" stroke="none" text-anchor="start">12.564590</text><text xml:space="preserve" x="59.99169921875" y="42.621337890625" stroke="none" text-anchor="end">city:</text><text xml:space="preserve" x="63.603515625" y="42.621337890625" stroke="none" text-anchor="start">'Copenhagen'</text></g></g></g></g></g></g><g class="node"><g fill="#ffffff" stroke="#006FD6" stroke-width="4"><circle cx="586.9021682359268" cy="50" r="52"/></g><g transform="translate(586.9021682359268 50)"><g transform="scale(1) translate(0 -19)"><g transform="translate(0 0)"><g transform="translate(-31.341796875 0)"><g fill="#000000" stroke="#000000" stroke-width="4" font-family="sans-serif" font-size="24" font-weight="normal"><text xml:space="preserve" x="0" y="25.685546875" stroke="none">Office</text></g></g></g></g><g transform="translate(3.429011037612589e-15 56)"><g transform="translate(0 0)"><g transform="translate(-64.33349609375 0)" fill="white"><rect x="0" y="0" width="128.6669921875" height="46.8" rx="0" ry="0" stroke="none"/><g font-family="sans-serif" font-size="13" font-weight="normal" fill="#535B66" text-anchor="end"><text xml:space="preserve" x="59.99169921875" y="11.421337890625" stroke="none">latitude:</text><text xml:space="preserve" x="63.603515625" y="11.421337890625" stroke="none" text-anchor="start">55.611784</text><text xml:space="preserve" x="59.99169921875" y="27.021337890625" stroke="none" text-anchor="end">longitude:</text><text xml:space="preserve" x="63.603515625" y="27.021337890625" stroke="none" text-anchor="start">12.994341</text><text xml:space="preserve" x="59.99169921875" y="42.621337890625" stroke="none" text-anchor="end">city:</text><text xml:space="preserve" x="63.603515625" y="42.621337890625" stroke="none" text-anchor="start">'Malmö'</text></g></g></g></g></g></g></g></svg>