<?xml version="1.0" encoding="UTF-8" standalone="no"?>
<!DOCTYPE svg PUBLIC "-//W3C//DTD SVG 1.1//EN"
 "http://www.w3.org/Graphics/SVG/1.1/DTD/svg11.dtd">
<!-- Generated by graphviz version 2.49.3 (20211027.1534)
 -->
<!-- Title: L Pages: 1 -->
<svg width="359pt" height="168pt"
 viewBox="0.00 0.00 359.00 168.00" xmlns="http://www.w3.org/2000/svg" xmlns:xlink="http://www.w3.org/1999/xlink">
<g id="graph0" class="graph" transform="scale(1 1) rotate(0) translate(4 164)">
<title>L</title>
<polygon fill="white" stroke="transparent" points="-4,4 -4,-164 355,-164 355,4 -4,4"/>
<!-- N0 -->
<g id="node1" class="node">
<title>N0</title>
<path fill="none" stroke="black" d="M12,-113.5C12,-113.5 42,-113.5 42,-113.5 48,-113.5 54,-119.5 54,-125.5 54,-125.5 54,-147.5 54,-147.5 54,-153.5 48,-159.5 42,-159.5 42,-159.5 12,-159.5 12,-159.5 6,-159.5 0,-153.5 0,-147.5 0,-147.5 0,-125.5 0,-125.5 0,-119.5 6,-113.5 12,-113.5"/>
<text text-anchor="middle" x="27" y="-144.3" font-family="Times,serif" font-size="14.00">A, B</text>
<polyline fill="none" stroke="black" points="0,-136.5 54,-136.5 "/>
<text text-anchor="middle" x="27" y="-121.3" font-family="Times,serif" font-size="14.00"> </text>
</g>
<!-- N1 -->
<g id="node2" class="node">
<title>N1</title>
<path fill="none" stroke="black" d="M12,-0.5C12,-0.5 42,-0.5 42,-0.5 48,-0.5 54,-6.5 54,-12.5 54,-12.5 54,-34.5 54,-34.5 54,-40.5 48,-46.5 42,-46.5 42,-46.5 12,-46.5 12,-46.5 6,-46.5 0,-40.5 0,-34.5 0,-34.5 0,-12.5 0,-12.5 0,-6.5 6,-0.5 12,-0.5"/>
<text text-anchor="middle" x="27" y="-31.3" font-family="Times,serif" font-size="14.00">B</text>
<polyline fill="none" stroke="black" points="0,-23.5 54,-23.5 "/>
<text text-anchor="middle" x="27" y="-8.3" font-family="Times,serif" font-size="14.00"> </text>
</g>
<!-- N0&#45;&gt;N1 -->
<g id="edge1" class="edge">
<title>N0&#45;&gt;N1</title>
<path fill="none" stroke="#2e3436" d="M27,-113.3C27,-97.12 27,-74.94 27,-56.8"/>
<polygon fill="#2e3436" stroke="#2e3436" points="30.5,-56.66 27,-46.66 23.5,-56.66 30.5,-56.66"/>
<text text-anchor="middle" x="75" y="-83.8" font-family="Times,serif" font-size="14.00" fill="#2e3436">R1</text>
<text text-anchor="start" x="27" y="-68.8" font-family="Times,serif" font-size="14.00" fill="#2e3436">name = &#39;Teaches&#39;</text>
</g>
<!-- N2 -->
<g id="node3" class="node">
<title>N2</title>
<path fill="none" stroke="black" d="M131,-113.5C131,-113.5 161,-113.5 161,-113.5 167,-113.5 173,-119.5 173,-125.5 173,-125.5 173,-147.5 173,-147.5 173,-153.5 167,-159.5 161,-159.5 161,-159.5 131,-159.5 131,-159.5 125,-159.5 119,-153.5 119,-147.5 119,-147.5 119,-125.5 119,-125.5 119,-119.5 125,-113.5 131,-113.5"/>
<text text-anchor="middle" x="146" y="-144.3" font-family="Times,serif" font-size="14.00">C</text>
<polyline fill="none" stroke="black" points="119,-136.5 173,-136.5 "/>
<text text-anchor="middle" x="146" y="-121.3" font-family="Times,serif" font-size="14.00"> </text>
</g>
<!-- N3 -->
<g id="node4" class="node">
<title>N3</title>
<path fill="none" stroke="black" d="M131,-0.5C131,-0.5 161,-0.5 161,-0.5 167,-0.5 173,-6.5 173,-12.5 173,-12.5 173,-34.5 173,-34.5 173,-40.5 167,-46.5 161,-46.5 161,-46.5 131,-46.5 131,-46.5 125,-46.5 119,-40.5 119,-34.5 119,-34.5 119,-12.5 119,-12.5 119,-6.5 125,-0.5 131,-0.5"/>
<text text-anchor="middle" x="146" y="-31.3" font-family="Times,serif" font-size="14.00">D</text>
<polyline fill="none" stroke="black" points="119,-23.5 173,-23.5 "/>
<text text-anchor="middle" x="146" y="-8.3" font-family="Times,serif" font-size="14.00"> </text>
</g>
<!-- N2&#45;&gt;N3 -->
<g id="edge2" class="edge">
<title>N2&#45;&gt;N3</title>
<path fill="none" stroke="#4e9a06" d="M146,-113.3C146,-97.12 146,-74.94 146,-56.8"/>
<polygon fill="#4e9a06" stroke="#4e9a06" points="149.5,-56.66 146,-46.66 142.5,-56.66 149.5,-56.66"/>
<text text-anchor="middle" x="191.5" y="-83.8" font-family="Times,serif" font-size="14.00" fill="#4e9a06">R2</text>
<text text-anchor="start" x="146" y="-68.8" font-family="Times,serif" font-size="14.00" fill="#4e9a06">name = &#39;Studies&#39;</text>
</g>
<!-- N4 -->
<g id="node5" class="node">
<title>N4</title>
<path fill="none" stroke="black" d="M245,-113.5C245,-113.5 275,-113.5 275,-113.5 281,-113.5 287,-119.5 287,-125.5 287,-125.5 287,-147.5 287,-147.5 287,-153.5 281,-159.5 275,-159.5 275,-159.5 245,-159.5 245,-159.5 239,-159.5 233,-153.5 233,-147.5 233,-147.5 233,-125.5 233,-125.5 233,-119.5 239,-113.5 245,-113.5"/>
<text text-anchor="middle" x="260" y="-144.3" font-family="Times,serif" font-size="14.00">E</text>
<polyline fill="none" stroke="black" points="233,-136.5 287,-136.5 "/>
<text text-anchor="middle" x="260" y="-121.3" font-family="Times,serif" font-size="14.00"> </text>
</g>
<!-- N5 -->
<g id="node6" class="node">
<title>N5</title>
<path fill="none" stroke="black" d="M245,-0.5C245,-0.5 275,-0.5 275,-0.5 281,-0.5 287,-6.5 287,-12.5 287,-12.5 287,-34.5 287,-34.5 287,-40.5 281,-46.5 275,-46.5 275,-46.5 245,-46.5 245,-46.5 239,-46.5 233,-40.5 233,-34.5 233,-34.5 233,-12.5 233,-12.5 233,-6.5 239,-0.5 245,-0.5"/>
<text text-anchor="middle" x="260" y="-31.3" font-family="Times,serif" font-size="14.00">F</text>
<polyline fill="none" stroke="black" points="233,-23.5 287,-23.5 "/>
<text text-anchor="middle" x="260" y="-8.3" font-family="Times,serif" font-size="14.00"> </text>
</g>
<!-- N4&#45;&gt;N5 -->
<g id="edge3" class="edge">
<title>N4&#45;&gt;N5</title>
<path fill="none" stroke="#a40000" d="M260,-113.3C260,-97.12 260,-74.94 260,-56.8"/>
<polygon fill="#a40000" stroke="#a40000" points="263.5,-56.66 260,-46.66 256.5,-56.66 263.5,-56.66"/>
<text text-anchor="middle" x="305.5" y="-83.8" font-family="Times,serif" font-size="14.00" fill="#a40000">R3</text>
<text text-anchor="start" x="260" y="-68.8" font-family="Times,serif" font-size="14.00" fill="#a40000">name = &#39;Parents&#39;</text>
</g>
</g>
</svg>
