<svg xmlns="http://www.w3.org/2000/svg" width="922" height="739" viewBox="0 0 922 739"><defs><style type="text/css"/></defs><g transform="translate(-439.71379336357427 173.67186221037025) scale(1)"><g class="relationship"><g transform="translate(811.2894076738914 27.254051704353785) rotate(-155.6855342677472)" stroke-width="2" stroke="#000000"><path d="M 58 0 L 235.62294313765227 0"/><polygon points="-14.155129855222071,0 -15.727922061357857,5.242640687119286 0,0 -15.727922061357857,-5.242640687119286" fill="#000000" transform="translate(249.77807299287434 0) rotate(0)" stroke="none"/></g><g transform="translate(677.5002089663928 -33.1947571624031) rotate(24.314465732252803) translate(0 -13)"><g transform="translate(0 0)"><g transform="translate(-45.890625 0)" fill="#ffffff" stroke="#000000" stroke-width="0"><rect x="0" y="0" width="91.78125" height="26" rx="5" ry="5" stroke="none"/><text xml:space="preserve" x="5" y="17.45703125" stroke="none" text-anchor="left" font-family="sans-serif" font-size="16" font-weight="normal" fill="#000000">DIRECTED</text></g></g></g></g><g class="relationship"><g transform="translate(530.8114496135743 490.207569364652) rotate(-90)" stroke-width="2" stroke="#000000"><path d="M 58 0 L 517.5243017198002 0"/><polygon points="-14.155129855222071,0 -15.727922061357857,5.242640687119286 0,0 -15.727922061357857,-5.242640687119286" fill="#000000" transform="translate(531.6794315750222 0) rotate(0)" stroke="none"/></g><g transform="translate(530.8114496135743 202.4454185047519) rotate(90) translate(0 -22.6)"><g transform="translate(0 0)"><g transform="translate(-44.5625 0)" fill="#ffffff" stroke="#000000" stroke-width="0"><rect x="0" y="0" width="89.125" height="26" rx="5" ry="5" stroke="none"/><text xml:space="preserve" x="5" y="17.45703125" stroke="none" text-anchor="left" font-family="sans-serif" font-size="16" font-weight="normal" fill="#000000">ACTED_IN</text></g></g><g transform="translate(0 26)"><g transform="translate(-77.3125 0)" fill="white"><rect x="0" y="0" width="154.625" height="19.2" rx="0" ry="0" stroke="none"/><g font-family="sans-serif" font-size="16" font-weight="normal" fill="#717780" text-anchor="end"><text xml:space="preserve" x="35.5703125" y="14.05703125" stroke="none">role:</text><text xml:space="preserve" x="40.015625" y="14.05703125" stroke="none" text-anchor="start">'Gordon Gekko'</text></g></g></g></g></g><g class="relationship"><g transform="translate(764.0905466339738 304.57938617275113) rotate(-120.00000000000001)" stroke-width="2" stroke="#000000"><path d="M 58 0 L 394.4030641855769 0"/><polygon points="-14.155129855222071,0 -15.727922061357857,5.242640687119286 0,0 -15.727922061357857,-5.242640687119286" fill="#000000" transform="translate(408.558194040799 0) rotate(0)" stroke="none"/></g><g transform="translate(650.9897805875795 108.68311300543536) rotate(59.999999999999986) translate(0 -22.6)"><g transform="translate(0 0)"><g transform="translate(-44.5625 0)" fill="#ffffff" stroke="#000000" stroke-width="0"><rect x="0" y="0" width="89.125" height="26" rx="5" ry="5" stroke="none"/><text xml:space="preserve" x="5" y="17.45703125" stroke="none" text-anchor="left" font-family="sans-serif" font-size="16" font-weight="normal" fill="#000000">ACTED_IN</text></g></g><g transform="translate(0 26)"><g transform="translate(-55.51171875 0)" fill="white"><rect x="0" y="0" width="111.0234375" height="19.2" rx="0" ry="0" stroke="none"/><g font-family="sans-serif" font-size="16" font-weight="normal" fill="#717780" text-anchor="end"><text xml:space="preserve" x="35.5703125" y="14.05703125" stroke="none">role:</text><text xml:space="preserve" x="40.015625" y="14.05703125" stroke="none" text-anchor="start">'Carl Fox'</text></g></g></g></g></g><g class="relationship"><g transform="translate(530.8114496135743 490.207569364652) rotate(0)" stroke-width="2" stroke="#000000"><path d="M 58 0 L 437.7856196057447 0"/><polygon points="-14.155129855222071,0 -15.727922061357857,5.242640687119286 0,0 -15.727922061357857,-5.242640687119286" fill="#000000" transform="translate(451.9407494609668 0) rotate(0)" stroke="none"/></g><g transform="translate(778.7042594164466 490.207569364652) rotate(0) translate(0 -22.6)"><g transform="translate(0 0)"><g transform="translate(-44.5625 0)" fill="#ffffff" stroke="#000000" stroke-width="0"><rect x="0" y="0" width="89.125" height="26" rx="5" ry="5" stroke="none"/><text xml:space="preserve" x="5" y="17.45703125" stroke="none" text-anchor="left" font-family="sans-serif" font-size="16" font-weight="normal" fill="#000000">ACTED_IN</text></g></g><g transform="translate(0 26)"><g transform="translate(-125.34765625 0)" fill="white"><rect x="0" y="0" width="250.6953125" height="19.2" rx="0" ry="0" stroke="none"/><g font-family="sans-serif" font-size="16" font-weight="normal" fill="#717780" text-anchor="end"><text xml:space="preserve" x="35.5703125" y="14.05703125" stroke="none">role:</text><text xml:space="preserve" x="40.015625" y="14.05703125" stroke="none" text-anchor="start">'President Andrew Shepherd'</text></g></g></g></g></g><g class="relationship"><g transform="translate(764.0905466339738 304.57938617275113) rotate(33.85992822674145)" stroke-width="2" stroke="#000000"><path d="M 58 0 L 261.01073323142606 0"/><polygon points="-14.155129855222071,0 -15.727922061357857,5.242640687119286 0,0 -15.727922061357857,-5.242640687119286" fill="#000000" transform="translate(275.16586308664813 0) rotate(0)" stroke="none"/></g><g transform="translate(896.5441476488077 393.45011002158793) rotate(33.85992822674145) translate(0 -22.6)"><g transform="translate(0 0)"><g transform="translate(-44.5625 0)" fill="#ffffff" stroke="#000000" stroke-width="0"><rect x="0" y="0" width="89.125" height="26" rx="5" ry="5" stroke="none"/><text xml:space="preserve" x="5" y="17.45703125" stroke="none" text-anchor="left" font-family="sans-serif" font-size="16" font-weight="normal" fill="#000000">ACTED_IN</text></g></g><g transform="translate(0 26)"><g transform="translate(-83.0859375 0)" fill="white"><rect x="0" y="0" width="166.171875" height="19.2" rx="0" ry="0" stroke="none"/><g font-family="sans-serif" font-size="16" font-weight="normal" fill="#717780" text-anchor="end"><text xml:space="preserve" x="35.5703125" y="14.05703125" stroke="none">role:</text><text xml:space="preserve" x="40.015625" y="14.05703125" stroke="none" text-anchor="start">'A.J. MacInerney'</text></g></g></g></g></g><g class="relationship"><g transform="translate(1264.6950873125177 -99.47186221037026) rotate(180)" stroke-width="2" stroke="#000000"><path d="M 58 0 L 661.7285078437213 0"/><polygon points="-14.155129855222071,0 -15.727922061357857,5.242640687119286 0,0 -15.727922061357857,-5.242640687119286" fill="#000000" transform="translate(675.8836376989434 0) rotate(0)" stroke="none"/></g><g transform="translate(904.8308333906571 -99.47186221037022) rotate(360) translate(0 -22.6)"><g transform="translate(0 0)"><g transform="translate(-44.5625 0)" fill="#ffffff" stroke="#000000" stroke-width="0"><rect x="0" y="0" width="89.125" height="26" rx="5" ry="5" stroke="none"/><text xml:space="preserve" x="5" y="17.45703125" stroke="none" text-anchor="left" font-family="sans-serif" font-size="16" font-weight="normal" fill="#000000">ACTED_IN</text></g></g><g transform="translate(0 26)"><g transform="translate(-55.078125 0)" fill="white"><rect x="0" y="0" width="110.15625" height="19.2" rx="0" ry="0" stroke="none"/><g font-family="sans-serif" font-size="16" font-weight="normal" fill="#717780" text-anchor="end"><text xml:space="preserve" x="35.5703125" y="14.05703125" stroke="none">role:</text><text xml:space="preserve" x="40.015625" y="14.05703125" stroke="none" text-anchor="start">'Bud Fox'</text></g></g></g></g></g><g class="relationship"><g transform="translate(1264.6950873125177 490.207569364652) rotate(180)" stroke-width="2" stroke="#000000"><path d="M 58 0 L 151.78775838275453 0"/><polygon points="-14.155129855222071,0 -15.727922061357857,5.242640687119286 0,0 -15.727922061357857,-5.242640687119286" fill="#000000" transform="translate(165.9428882379766 0) rotate(0)" stroke="none"/></g><g transform="translate(1159.8012081211405 490.207569364652) rotate(360) translate(0 -13)"><g transform="translate(0 0)"><g transform="translate(-45.890625 0)" fill="#ffffff" stroke="#000000" stroke-width="0"><rect x="0" y="0" width="91.78125" height="26" rx="5" ry="5" stroke="none"/><text xml:space="preserve" x="5" y="17.45703125" stroke="none" text-anchor="left" font-family="sans-serif" font-size="16" font-weight="normal" fill="#000000">DIRECTED</text></g></g></g></g><g class="relationship"><g transform="translate(1264.6950873125177 -99.47186221037026) rotate(141.09207721099986)" stroke-width="2" stroke="#000000"><path d="M 58 0 L 280.4765416971399 0"/><polygon points="-14.155129855222071,0 -15.727922061357857,5.242640687119286 0,0 -15.727922061357857,-5.242640687119286" fill="#000000" transform="translate(294.631671552362 0) rotate(0)" stroke="none"/></g><g transform="translate(1133.0012594427883 6.821731297573592) rotate(321.09207721099983) translate(0 -32.2)"><g transform="translate(0 0)"><g transform="translate(-44.5625 0)" fill="#ffffff" stroke="#000000" stroke-width="0"><rect x="0" y="0" width="89.125" height="26" rx="5" ry="5" stroke="none"/><text xml:space="preserve" x="5" y="17.45703125" stroke="none" text-anchor="left" font-family="sans-serif" font-size="16" font-weight="normal" fill="#000000">ACTED_IN</text></g></g><g transform="translate(0 26)"><g transform="translate(-71.48828125 0)" fill="white"><rect x="0" y="0" width="142.9765625" height="38.4" rx="0" ry="0" stroke="none"/><g font-family="sans-serif" font-size="16" font-weight="normal" fill="#717780" text-anchor="end"><text xml:space="preserve" x="39.140625" y="14.05703125" stroke="none">role:</text><text xml:space="preserve" x="43.5859375" y="14.05703125" stroke="none" text-anchor="start">'New Warden</text>
<text xml:space="preserve" x="39.140625" y="33.25703125" stroke="none" text-anchor="end">lead:</text><text xml:space="preserve" x="43.5859375" y="33.25703125" stroke="none" text-anchor="start">false</text></g></g></g></g></g><g class="relationship"><g transform="translate(764.0905466339738 304.57938617275113) rotate(-38.90792278900014)" stroke-width="2" stroke="#000000"><path d="M 58 0 L 218.5345160286834 0"/><polygon points="-14.155129855222071,0 -15.727922061357857,5.242640687119286 0,0 -15.727922061357857,-5.242640687119286" fill="#000000" transform="translate(232.68964588390548 0) rotate(0)" stroke="none"/></g><g transform="translate(871.6840855283358 217.73777732657675) rotate(-38.90792278900014) translate(0 -32.2)"><g transform="translate(0 0)"><g transform="translate(-44.5625 0)" fill="#ffffff" stroke="#000000" stroke-width="0"><rect x="0" y="0" width="89.125" height="26" rx="5" ry="5" stroke="none"/><text xml:space="preserve" x="5" y="17.45703125" stroke="none" text-anchor="left" font-family="sans-serif" font-size="16" font-weight="normal" fill="#000000">ACTED_IN</text></g></g><g transform="translate(0 26)"><g transform="translate(-41.3046875 0)" fill="white"><rect x="0" y="0" width="82.609375" height="38.4" rx="0" ry="0" stroke="none"/><g font-family="sans-serif" font-size="16" font-weight="normal" fill="#717780" text-anchor="end"><text xml:space="preserve" x="39.140625" y="14.05703125" stroke="none">role:</text><text xml:space="preserve" x="43.5859375" y="14.05703125" stroke="none" text-anchor="start">'Bud'</text><text xml:space="preserve" x="39.140625" y="33.25703125" stroke="none" text-anchor="end">lead:</text><text xml:space="preserve" x="43.5859375" y="33.25703125" stroke="none" text-anchor="start">true</text></g></g></g></g></g><g class="relationship"><g transform="translate(1264.6950873125177 -99.47186221037026) rotate(90)" stroke-width="2" stroke="#000000"><path d="M 58 0 L 331.8961185278993 0"/><polygon points="-14.155129855222071,0 -15.727922061357857,5.242640687119286 0,0 -15.727922061357857,-5.242640687119286" fill="#000000" transform="translate(346.0512483831214 0) rotate(0)" stroke="none"/></g><g transform="translate(1264.6950873125177 95.4761970535794) rotate(270) translate(0 -32.2)"><g transform="translate(0 0)"><g transform="translate(-44.5625 0)" fill="#ffffff" stroke="#000000" stroke-width="0"><rect x="0" y="0" width="89.125" height="26" rx="5" ry="5" stroke="none"/><text xml:space="preserve" x="5" y="17.45703125" stroke="none" text-anchor="left" font-family="sans-serif" font-size="16" font-weight="normal" fill="#000000">ACTED_IN</text></g></g><g transform="translate(0 26)"><g transform="translate(-71.98046875 0)" fill="white"><rect x="0" y="0" width="143.9609375" height="38.4" rx="0" ry="0" stroke="none"/><g font-family="sans-serif" font-size="16" font-weight="normal" fill="#717780" text-anchor="end"><text xml:space="preserve" x="39.140625" y="14.05703125" stroke="none">role:</text><text xml:space="preserve" x="43.5859375" y="14.05703125" stroke="none" text-anchor="start">'Bill Peterson'</text><text xml:space="preserve" x="39.140625" y="33.25703125" stroke="none" text-anchor="end">lead:</text><text xml:space="preserve" x="43.5859375" y="33.25703125" stroke="none" text-anchor="start">true</text></g></g></g></g></g><g class="relationship"><g transform="translate(764.0905466339738 304.57938617275113) rotate(0)" stroke-width="2" stroke="#000000"><path d="M 58 0 L 428.44941082332184 0"/><polygon points="-14.155129855222071,0 -15.727922061357857,5.242640687119286 0,0 -15.727922061357857,-5.242640687119286" fill="#000000" transform="translate(442.6045406785439 0) rotate(0)" stroke="none"/></g><g transform="translate(1007.3152520456347 304.57938617275113) rotate(0) translate(0 -32.2)"><g transform="translate(0 0)"><g transform="translate(-44.5625 0)" fill="#ffffff" stroke="#000000" stroke-width="0"><rect x="0" y="0" width="89.125" height="26" rx="5" ry="5" stroke="none"/><text xml:space="preserve" x="5" y="17.45703125" stroke="none" text-anchor="left" font-family="sans-serif" font-size="16" font-weight="normal" fill="#000000">ACTED_IN</text></g></g><g transform="translate(0 26)"><g transform="translate(-78.2109375 0)" fill="white"><rect x="0" y="0" width="156.421875" height="38.4" rx="0" ry="0" stroke="none"/><g font-family="sans-serif" font-size="16" font-weight="normal" fill="#717780" text-anchor="end"><text xml:space="preserve" x="39.140625" y="14.05703125" stroke="none">role:</text><text xml:space="preserve" x="43.5859375" y="14.05703125" stroke="none" text-anchor="start">'Jake Peterson'</text><text xml:space="preserve" x="39.140625" y="33.25703125" stroke="none" text-anchor="end">lead:</text><text xml:space="preserve" x="43.5859375" y="33.25703125" stroke="none" text-anchor="start">true</text></g></g></g></g></g><g class="node"><g fill="#ffffff" stroke="#018BFF" stroke-width="3"><circle cx="811.2894076738914" cy="27.254051704353785" r="51.5"/></g><g transform="translate(811.2894076738914 27.254051704353785)"><g transform="scale(0.6532967767358133) translate(0 -27)"><g transform="translate(0 0)"><g transform="translate(-63.369140625 0)"><g fill="#000000" stroke="#000000" stroke-width="4" font-family="sans-serif" font-size="40" font-weight="normal"><text xml:space="preserve" x="0" y="38.142578125" stroke="none">Person</text></g></g></g></g><g transform="translate(3.3677786976552213e-15 55)"><g transform="translate(0 0)"><g transform="translate(-75.9765625 0)" fill="white"><rect x="0" y="0" width="151.953125" height="19.2" rx="0" ry="0" stroke="none"/><g font-family="sans-serif" font-size="16" font-weight="normal" fill="#717780" text-anchor="end"><text xml:space="preserve" x="48.9140625" y="14.05703125" stroke="none">name:</text><text xml:space="preserve" x="53.359375" y="14.05703125" stroke="none" text-anchor="start">'Oliver Stone'</text></g></g></g></g></g></g><g class="node"><g fill="#ffffff" stroke="#018BFF" stroke-width="3"><circle cx="530.8114496135743" cy="-99.47186221037026" r="51.5"/></g><g transform="translate(530.8114496135743 -99.47186221037026)"><g transform="scale(0.7525987763434394) translate(0 -27)"><g transform="translate(0 0)"><g transform="translate(-53.349609375 0)"><g fill="#000000" stroke="#000000" stroke-width="4" font-family="sans-serif" font-size="40" font-weight="normal"><text xml:space="preserve" x="0" y="38.142578125" stroke="none">Movie</text></g></g></g></g><g transform="translate(3.3677786976552213e-15 -74.2)"><g transform="translate(0 0)"><g transform="translate(-63.22265625 0)" fill="white"><rect x="0" y="0" width="126.4453125" height="19.2" rx="0" ry="0" stroke="none"/><g font-family="sans-serif" font-size="16" font-weight="normal" fill="#717780" text-anchor="end"><text xml:space="preserve" x="33.7890625" y="14.05703125" stroke="none">title:</text><text xml:space="preserve" x="38.234375" y="14.05703125" stroke="none" text-anchor="start">'Wall Street'</text></g></g></g></g></g></g><g class="node"><g fill="#ffffff" stroke="#018BFF" stroke-width="3"><circle cx="530.8114496135743" cy="490.207569364652" r="51.5"/></g><g transform="translate(530.8114496135743 490.207569364652)"><g transform="scale(0.6532967767358133) translate(0 -27)"><g transform="translate(0 0)"><g transform="translate(-63.369140625 0)"><g fill="#000000" stroke="#000000" stroke-width="4" font-family="sans-serif" font-size="40" font-weight="normal"><text xml:space="preserve" x="0" y="38.142578125" stroke="none">Person</text></g></g></g></g><g transform="translate(3.3677786976552213e-15 -74.2)"><g transform="translate(0 0)"><g transform="translate(-91.09765625 0)" fill="white"><rect x="0" y="0" width="182.1953125" height="19.2" rx="0" ry="0" stroke="none"/><g font-family="sans-serif" font-size="16" font-weight="normal" fill="#717780" text-anchor="end"><text xml:space="preserve" x="48.9140625" y="14.05703125" stroke="none">name:</text><text xml:space="preserve" x="53.359375" y="14.05703125" stroke="none" text-anchor="start">'Michael Douglas'</text></g></g></g></g></g></g><g class="node"><g fill="#ffffff" stroke="#018BFF" stroke-width="3"><circle cx="764.0905466339738" cy="304.57938617275113" r="51.5"/></g><g transform="translate(764.0905466339738 304.57938617275113)"><g transform="scale(0.6532967767358133) translate(0 -27)"><g transform="translate(0 0)"><g transform="translate(-63.369140625 0)"><g fill="#000000" stroke="#000000" stroke-width="4" font-family="sans-serif" font-size="40" font-weight="normal"><text xml:space="preserve" x="0" y="38.142578125" stroke="none">Person</text></g></g></g></g><g transform="translate(-38.89087296526011 -58.09087296526012)"><g transform="translate(0 0)"><g transform="translate(-159.078125 0)" fill="white"><rect x="0" y="0" width="159.078125" height="19.2" rx="0" ry="0" stroke="none"/><g font-family="sans-serif" font-size="16" font-weight="normal" fill="#717780" text-anchor="end"><text xml:space="preserve" x="48.9140625" y="14.05703125" stroke="none">name:</text><text xml:space="preserve" x="53.359375" y="14.05703125" stroke="none" text-anchor="start">'Martin Sheen'</text></g></g></g></g></g></g><g class="node"><g fill="#ffffff" stroke="#018BFF" stroke-width="3"><circle cx="1040.752199074541" cy="490.207569364652" r="51.5"/></g><g transform="translate(1040.752199074541 490.207569364652)"><g transform="scale(0.7525987763434394) translate(0 -27)"><g transform="translate(0 0)"><g transform="translate(-53.349609375 0)"><g fill="#000000" stroke="#000000" stroke-width="4" font-family="sans-serif" font-size="40" font-weight="normal"><text xml:space="preserve" x="0" y="38.142578125" stroke="none">Movie</text></g></g></g></g><g transform="translate(3.3677786976552213e-15 55)"><g transform="translate(0 0)"><g transform="translate(-110.2109375 0)" fill="white"><rect x="0" y="0" width="220.421875" height="19.2" rx="0" ry="0" stroke="none"/><g font-family="sans-serif" font-size="16" font-weight="normal" fill="#717780" text-anchor="end">
<text xml:space="preserve" x="33.7890625" y="14.05703125" stroke="none">title:</text><text xml:space="preserve" x="38.234375" y="14.05703125" stroke="none" text-anchor="start">'The American President'</text></g></g></g></g></g></g><g class="node"><g fill="#ffffff" stroke="#018BFF" stroke-width="3"><circle cx="1264.6950873125177" cy="-99.47186221037026" r="51.5"/></g><g transform="translate(1264.6950873125177 -99.47186221037026)"><g transform="scale(0.6532967767358133) translate(0 -27)"><g transform="translate(0 0)"><g transform="translate(-63.369140625 0)"><g fill="#000000" stroke="#000000" stroke-width="4" font-family="sans-serif" font-size="40" font-weight="normal"><text xml:space="preserve" x="0" y="38.142578125" stroke="none">Person</text></g></g></g></g><g transform="translate(3.3677786976552213e-15 -74.2)"><g transform="translate(0 0)"><g transform="translate(-82.65625 0)" fill="white"><rect x="0" y="0" width="165.3125" height="19.2" rx="0" ry="0" stroke="none"/><g font-family="sans-serif" font-size="16" font-weight="normal" fill="#717780" text-anchor="end"><text xml:space="preserve" x="48.9140625" y="14.05703125" stroke="none">name:</text><text xml:space="preserve" x="53.359375" y="14.05703125" stroke="none" text-anchor="start">'Charlie Sheen'</text></g></g></g></g></g></g><g class="node"><g fill="#ffffff" stroke="#018BFF" stroke-width="3"><circle cx="1264.6950873125177" cy="490.207569364652" r="51.5"/></g><g transform="translate(1264.6950873125177 490.207569364652)"><g transform="scale(0.6532967767358133) translate(0 -27)"><g transform="translate(0 0)"><g transform="translate(-63.369140625 0)"><g fill="#000000" stroke="#000000" stroke-width="4" font-family="sans-serif" font-size="40" font-weight="normal"><text xml:space="preserve" x="0" y="38.142578125" stroke="none">Person</text></g></g></g></g><g transform="translate(3.3677786976552213e-15 55)"><g transform="translate(0 0)"><g transform="translate(-72.421875 0)" fill="white"><rect x="0" y="0" width="144.84375" height="19.2" rx="0" ry="0" stroke="none"/><g font-family="sans-serif" font-size="16" font-weight="normal" fill="#717780" text-anchor="end"><text xml:space="preserve" x="48.9140625" y="14.05703125" stroke="none">name:</text><text xml:space="preserve" x="53.359375" y="14.05703125" stroke="none" text-anchor="start">'Rob Reiner'</text></g></g></g></g></g></g><g class="node"><g fill="#ffffff" stroke="#018BFF" stroke-width="3"><circle cx="990.2925279978783" cy="122.0057466429599" r="51.5"/></g><g transform="translate(990.2925279978783 122.0057466429599)"><g transform="scale(0.7525987763434394) translate(0 -27)"><g transform="translate(0 0)"><g transform="translate(-53.349609375 0)"><g fill="#000000" stroke="#000000" stroke-width="4" font-family="sans-serif" font-size="40" font-weight="normal"><text xml:space="preserve" x="0" y="38.142578125" stroke="none">Movie</text></g></g></g></g><g transform="translate(38.890872965260115 38.89087296526011)"><g transform="translate(0 0)"><g transform="translate(0 0)" fill="white"><rect x="0" y="0" width="134.15625" height="19.2" rx="0" ry="0" stroke="none"/><g font-family="sans-serif" font-size="16" font-weight="normal" fill="#717780" text-anchor="end"><text xml:space="preserve" x="33.7890625" y="14.05703125" stroke="none">title:</text><text xml:space="preserve" x="38.234375" y="14.05703125" stroke="none" text-anchor="start">'Free Money'</text></g></g></g></g></g></g><g class="node"><g fill="#ffffff" stroke="#018BFF" stroke-width="3"><circle cx="1264.6950873125177" cy="304.57938617275113" r="51.5"/></g><g transform="translate(1264.6950873125177 304.57938617275113)"><g transform="scale(0.7525987763434394) translate(0 -27)"><g transform="translate(0 0)"><g transform="translate(-53.349609375 0)"><g fill="#000000" stroke="#000000" stroke-width="4" font-family="sans-serif" font-size="40" font-weight="normal"><text xml:space="preserve" x="0" y="38.142578125" stroke="none">Movie</text></g></g></g></g><g transform="translate(3.3677786976552213e-15 55)"><g transform="translate(0 0)"><g transform="translate(-96.8828125 0)" fill="white"><rect x="0" y="0" width="193.765625" height="19.2" rx="0" ry="0" stroke="none"/><g font-family="sans-serif" font-size="16" font-weight="normal" fill="#717780" text-anchor="end"><text xml:space="preserve" x="33.7890625" y="14.05703125" stroke="none">title:</text><text xml:space="preserve" x="38.234375" y="14.05703125" stroke="none" text-anchor="start">'No Code of Conduct'</text></g></g></g></g></g></g></g></svg>