<svg xmlns="http://www.w3.org/2000/svg" width="947" height="739" viewBox="0 0 947 739"><defs><style type="text/css"/></defs><g transform="translate(-439.71379336357427 173.67186221037025) scale(1)"><g class="relationship"><g transform="translate(739.2673015792752 20.880180036179965) rotate(-150.00000000000003)" stroke-width="2" stroke="#000000"><path d="M 58 0 L 168.54895463787838 0"/><polygon points="-14.155129855222071,0 -15.727922061357857,5.242640687119286 0,0 -15.727922061357857,-5.242640687119286" fill="#000000" transform="translate(182.70408449310045 0) rotate(0)" stroke="none"/></g><g transform="translate(641.1687266206696 -35.75705862328962) rotate(29.999999999999993) translate(0 -13)"><g transform="translate(0 0)"><g transform="translate(-45.890625 0)" fill="#ffffff" stroke="#000000" stroke-width="0"><rect x="0" y="0" width="91.78125" height="26" rx="5" ry="5" stroke="none"/><text xml:space="preserve" x="5" y="17.45703125" stroke="none" text-anchor="left" font-family="sans-serif" font-size="16" font-weight="normal" fill="#000000">DIRECTED</text></g></g></g></g><g class="relationship"><g transform="translate(530.8114496135743 490.207569364652) rotate(-90)" stroke-width="2" stroke="#000000"><path d="M 58 0 L 517.5243017198002 0"/><polygon points="-14.155129855222071,0 -15.727922061357857,5.242640687119286 0,0 -15.727922061357857,-5.242640687119286" fill="#000000" transform="translate(531.6794315750222 0) rotate(0)" stroke="none"/></g><g transform="translate(530.8114496135743 202.4454185047519) rotate(90) translate(0 -22.6)"><g transform="translate(0 0)"><g transform="translate(-44.5625 0)" fill="#ffffff" stroke="#000000" stroke-width="0"><rect x="0" y="0" width="89.125" height="26" rx="5" ry="5" stroke="none"/><text xml:space="preserve" x="5" y="17.45703125" stroke="none" text-anchor="left" font-family="sans-serif" font-size="16" font-weight="normal" fill="#000000">ACTED_IN</text></g></g><g transform="translate(0 26)"><g transform="translate(-77.3125 0)" fill="white"><rect x="0" y="0" width="154.625" height="19.2" rx="0" ry="0" stroke="none"/><g font-family="sans-serif" font-size="16" font-weight="normal" fill="#717780" text-anchor="end"><text xml:space="preserve" x="35.5703125" y="14.05703125" stroke="none">role:</text><text xml:space="preserve" x="40.015625" y="14.05703125" stroke="none" text-anchor="start">'Gordon Gekko'</text></g></g></g></g></g><g class="relationship"><g transform="translate(764.7520964808089 330.8588358357963) rotate(-118.52982665545602)" stroke-width="2" stroke="#000000"><path d="M 58 0 L 417.6537470932885 0"/><polygon points="-14.155129855222071,0 -15.727922061357857,5.242640687119286 0,0 -15.727922061357857,-5.242640687119286" fill="#000000" transform="translate(431.80887694851054 0) rotate(0)" stroke="none"/></g><g transform="translate(651.1621326023824 121.91161310462601) rotate(61.47017334454398) translate(0 -22.6)"><g transform="translate(0 0)"><g transform="translate(-44.5625 0)" fill="#ffffff" stroke="#000000" stroke-width="0"><rect x="0" y="0" width="89.125" height="26" rx="5" ry="5" stroke="none"/><text xml:space="preserve" x="5" y="17.45703125" stroke="none" text-anchor="left" font-family="sans-serif" font-size="16" font-weight="normal" fill="#000000">ACTED_IN</text></g></g><g transform="translate(0 26)"><g transform="translate(-55.51171875 0)" fill="white"><rect x="0" y="0" width="111.0234375" height="19.2" rx="0" ry="0" stroke="none"/><g font-family="sans-serif" font-size="16" font-weight="normal" fill="#717780" text-anchor="end"><text xml:space="preserve" x="35.5703125" y="14.05703125" stroke="none">role:</text><text xml:space="preserve" x="40.015625" y="14.05703125" stroke="none" text-anchor="start">'Carl Fox'</text></g></g></g></g></g><g class="relationship"><g transform="translate(530.8114496135743 490.207569364652) rotate(0)" stroke-width="2" stroke="#000000"><path d="M 58 0 L 437.7856196057447 0"/><polygon points="-14.155129855222071,0 -15.727922061357857,5.242640687119286 0,0 -15.727922061357857,-5.242640687119286" fill="#000000" transform="translate(451.9407494609668 0) rotate(0)" stroke="none"/></g><g transform="translate(778.7042594164466 490.207569364652) rotate(0) translate(0 -22.6)"><g transform="translate(0 0)"><g transform="translate(-44.5625 0)" fill="#ffffff" stroke="#000000" stroke-width="0"><rect x="0" y="0" width="89.125" height="26" rx="5" ry="5" stroke="none"/><text xml:space="preserve" x="5" y="17.45703125" stroke="none" text-anchor="left" font-family="sans-serif" font-size="16" font-weight="normal" fill="#000000">ACTED_IN</text></g></g><g transform="translate(0 26)"><g transform="translate(-125.34765625 0)" fill="white"><rect x="0" y="0" width="250.6953125" height="19.2" rx="0" ry="0" stroke="none"/><g font-family="sans-serif" font-size="16" font-weight="normal" fill="#717780" text-anchor="end"><text xml:space="preserve" x="35.5703125" y="14.05703125" stroke="none">role:</text><text xml:space="preserve" x="40.015625" y="14.05703125" stroke="none" text-anchor="start">'President Andrew Shepherd'</text></g></g></g></g></g><g class="relationship"><g transform="translate(764.7520964808089 330.8588358357963) rotate(30.000000000000014)" stroke-width="2" stroke="#000000"><path d="M 58 0 L 246.5423372024892 0"/><polygon points="-14.155129855222071,0 -15.727922061357857,5.242640687119286 0,0 -15.727922061357857,-5.242640687119286" fill="#000000" transform="translate(260.69746705771126 0) rotate(0)" stroke="none"/></g><g transform="translate(896.6227967534301 406.9944201364186) rotate(30.000000000000014) translate(0 -22.6)"><g transform="translate(0 0)"><g transform="translate(-44.5625 0)" fill="#ffffff" stroke="#000000" stroke-width="0"><rect x="0" y="0" width="89.125" height="26" rx="5" ry="5" stroke="none"/><text xml:space="preserve" x="5" y="17.45703125" stroke="none" text-anchor="left" font-family="sans-serif" font-size="16" font-weight="normal" fill="#000000">ACTED_IN</text></g></g><g transform="translate(0 26)"><g transform="translate(-83.0859375 0)" fill="white"><rect x="0" y="0" width="166.171875" height="19.2" rx="0" ry="0" stroke="none"/><g font-family="sans-serif" font-size="16" font-weight="normal" fill="#717780" text-anchor="end"><text xml:space="preserve" x="35.5703125" y="14.05703125" stroke="none">role:</text><text xml:space="preserve" x="40.015625" y="14.05703125" stroke="none" text-anchor="start">'A.J. MacInerney'</text></g></g></g></g></g><g class="relationship"><g transform="translate(1279.6013069336318 -99.47186221037026) rotate(180)" stroke-width="2" stroke="#000000"><path d="M 58 0 L 676.6347274648355 0"/><polygon points="-14.155129855222071,0 -15.727922061357857,5.242640687119286 0,0 -15.727922061357857,-5.242640687119286" fill="#000000" transform="translate(690.7898573200575 0) rotate(0)" stroke="none"/></g><g transform="translate(912.283943201214 -99.47186221037022) rotate(360) translate(0 -22.6)"><g transform="translate(0 0)"><g transform="translate(-44.5625 0)" fill="#ffffff" stroke="#000000" stroke-width="0"><rect x="0" y="0" width="89.125" height="26" rx="5" ry="5" stroke="none"/><text xml:space="preserve" x="5" y="17.45703125" stroke="none" text-anchor="left" font-family="sans-serif" font-size="16" font-weight="normal" fill="#000000">ACTED_IN</text></g></g><g transform="translate(0 26)"><g transform="translate(-55.078125 0)" fill="white"><rect x="0" y="0" width="110.15625" height="19.2" rx="0" ry="0" stroke="none"/><g font-family="sans-serif" font-size="16" font-weight="normal" fill="#717780" text-anchor="end"><text xml:space="preserve" x="35.5703125" y="14.05703125" stroke="none">role:</text><text xml:space="preserve" x="40.015625" y="14.05703125" stroke="none" text-anchor="start">'Bud Fox'</text></g></g></g></g></g><g class="relationship"><g transform="translate(1289.475825672642 490.207569364652) rotate(180)" stroke-width="2" stroke="#000000"><path d="M 58 0 L 176.5684967428789 0"/><polygon points="-14.155129855222071,0 -15.727922061357857,5.242640687119286 0,0 -15.727922061357857,-5.242640687119286" fill="#000000" transform="translate(190.72362659810096 0) rotate(0)" stroke="none"/></g><g transform="translate(1172.1915773012026 490.207569364652) rotate(360) translate(0 -13)"><g transform="translate(0 0)"><g transform="translate(-45.890625 0)" fill="#ffffff" stroke="#000000" stroke-width="0"><rect x="0" y="0" width="91.78125" height="26" rx="5" ry="5" stroke="none"/><text xml:space="preserve" x="5" y="17.45703125" stroke="none" text-anchor="left" font-family="sans-serif" font-size="16" font-weight="normal" fill="#000000">DIRECTED</text></g></g></g></g><g class="relationship"><g transform="translate(1279.6013069336318 -99.47186221037026) rotate(162.55247931702857)" stroke-width="2" stroke="#000000"><path d="M 58 0 L 358.4336589726964 0"/><polygon points="-14.155129855222071,0 -15.727922061357857,5.242640687119286 0,0 -15.727922061357857,-5.242640687119286" fill="#000000" transform="translate(372.58878882791845 0) rotate(0)" stroke="none"/></g><g transform="translate(1080.9641218809331 -37.0417669382426) rotate(342.55247931702854) translate(0 -32.2)"><g transform="translate(0 0)"><g transform="translate(-44.5625 0)" fill="#ffffff" stroke="#000000" stroke-width="0"><rect x="0" y="0" width="89.125" height="26" rx="5" ry="5" stroke="none"/><text xml:space="preserve" x="5" y="17.45703125" stroke="none" text-anchor="left" font-family="sans-serif" font-size="16" font-weight="normal" fill="#000000">ACTED_IN</text></g></g><g transform="translate(0 26)"><g transform="translate(-41.3046875 0)" fill="white"><rect x="0" y="0" width="82.609375" height="38.4" rx="0" ry="0" stroke="none"/><g font-family="sans-serif" font-size="16" font-weight="normal" fill="#717780" text-anchor="end"><text xml:space="preserve" x="39.140625" y="14.05703125" stroke="none">role:</text><text xml:space="preserve" x="43.5859375" y="14.05703125" stroke="none" text-anchor="start">'Bud'</text><text xml:space="preserve" x="39.140625" y="33.25703125" stroke="none" text-anchor="end">lead:</text><text xml:space="preserve" x="43.5859375" y="33.25703125" stroke="none" text-anchor="start">true</text></g></g></g></g></g><g class="relationship"><g transform="translate(764.7520964808089 330.8588358357963) rotate(-70.94043478561832)" stroke-width="2" stroke="#000000"><path d="M 58 0 L 246.54233720248914 0"/><polygon points="-14.155129855222071,0 -15.727922061357857,5.242640687119286 0,0 -15.727922061357857,-5.242640687119286" fill="#000000" transform="translate(260.6974670577112 0) rotate(0)" stroke="none"/></g><g transform="translate(814.4763909513676 186.93523343996338) rotate(-70.94043478561832) translate(0 -32.2)"><g transform="translate(0 0)"><g transform="translate(-44.5625 0)" fill="#ffffff" stroke="#000000" stroke-width="0"><rect x="0" y="0" width="89.125" height="26" rx="5" ry="5" stroke="none"/><text xml:space="preserve" x="5" y="17.45703125" stroke="none" text-anchor="left" font-family="sans-serif" font-size="16" font-weight="normal" fill="#000000">ACTED_IN</text></g></g><g transform="translate(0 26)"><g transform="translate(-73.015625 0)" fill="white"><rect x="0" y="0" width="146.03125" height="38.4" rx="0" ry="0" stroke="none"/><g font-family="sans-serif" font-size="16" font-weight="normal" fill="#717780" text-anchor="end"><text xml:space="preserve" x="39.140625" y="14.05703125" stroke="none">role:</text><text xml:space="preserve" x="43.5859375" y="14.05703125" stroke="none" text-anchor="start">'New Warden'</text><text xml:space="preserve" x="39.140625" y="33.25703125" stroke="none" text-anchor="end">lead:</text><text xml:space="preserve" x="43.5859375" y="33.25703125" stroke="none" text-anchor="start">false</text></g></g></g></g></g><g class="relationship"><g transform="translate(1279.6013069336318 -99.47186221037026) rotate(88.68594384050702)" stroke-width="2" stroke="#000000"><path d="M 58 0 L 358.4336589726964 0"/><polygon points="-14.155129855222071,0 -15.727922061357857,5.242640687119286 0,0 -15.727922061357857,-5.242640687119286" fill="#000000" transform="translate(372.58878882791845 0) rotate(0)" stroke="none"/></g><g transform="translate(1284.376259365944 108.69020904809929) rotate(88.68594384050702) translate(0 -32.2)"><g transform="translate(0 0)"><g transform="translate(-44.5625 0)" fill="#ffffff" stroke="#000000" stroke-width="0"><rect x="0" y="0" width="89.125" height="26" rx="5" ry="5" stroke="none"/><text xml:space="preserve" x="5" y="17.45703125" stroke="none" text-anchor="left" font-family="sans-serif" font-size="16" font-weight="normal" fill="#000000">ACTED_IN</text></g></g><g transform="translate(0 26)"><g transform="translate(-71.98046875 0)" fill="white"><rect x="0" y="0" width="143.9609375" height="38.4" rx="0" ry="0" stroke="none"/><g font-family="sans-serif" font-size="16" font-weight="normal" fill="#717780" text-anchor="end"><text xml:space="preserve" x="39.140625" y="14.05703125" stroke="none">role:</text><text xml:space="preserve" x="43.5859375" y="14.05703125" stroke="none" text-anchor="start">'Bill Peterson'</text><text xml:space="preserve" x="39.140625" y="33.25703125" stroke="none" text-anchor="end">lead:</text><text xml:space="preserve" x="43.5859375" y="33.25703125" stroke="none" text-anchor="start">true</text></g></g></g></g></g><g class="relationship"><g transform="translate(764.7520964808089 330.8588358357963) rotate(0.01581668861381468)" stroke-width="2" stroke="#000000"><path d="M 58 0 L 452.568619330008 0"/><polygon points="-14.155129855222071,0 -15.727922061357857,5.242640687119286 0,0 -15.727922061357857,-5.242640687119286" fill="#000000" transform="translate(466.7237491852301 0) rotate(0)" stroke="none"/></g><g transform="translate(1020.0363964187889 330.9293079092543) rotate(0.01581668861381468) translate(0 -32.2)"><g transform="translate(0 0)"><g transform="translate(-44.5625 0)" fill="#ffffff" stroke="#000000" stroke-width="0"><rect x="0" y="0" width="89.125" height="26" rx="5" ry="5" stroke="none"/><text xml:space="preserve" x="5" y="17.45703125" stroke="none" text-anchor="left" font-family="sans-serif" font-size="16" font-weight="normal" fill="#000000">ACTED_IN</text></g></g><g transform="translate(0 26)"><g transform="translate(-78.2109375 0)" fill="white"><rect x="0" y="0" width="156.421875" height="38.4" rx="0" ry="0" stroke="none"/><g font-family="sans-serif" font-size="16" font-weight="normal" fill="#717780" text-anchor="end"><text xml:space="preserve" x="39.140625" y="14.05703125" stroke="none">role:</text><text xml:space="preserve" x="43.5859375" y="14.05703125" stroke="none" text-anchor="start">'Jake Peterson'</text><text xml:space="preserve" x="39.140625" y="33.25703125" stroke="none" text-anchor="end">lead:</text><text xml:space="preserve" x="43.5859375" y="33.25703125" stroke="none" text-anchor="start">true</text></g></g></g></g></g><g class="relationship"><g transform="translate(764.7520964808089 330.8588358357963) rotate(-39.8901701130423)" stroke-width="2" stroke="#000000"><path d="M 58 0 L 598.8547204337258 0"/><polygon points="-14.155129855222071,0 -15.727922061357857,5.242640687119286 0,0 -15.727922061357857,-5.242640687119286" fill="#000000" transform="translate(613.0098502889479 0) rotate(0)" stroke="none"/></g><g transform="translate(1016.7462617318012 120.23245662732063) rotate(-39.8901701130423) translate(0 -13)"><g transform="translate(0 0)"><g transform="translate(-51.53125 0)" fill="#ffffff" stroke="#000000" stroke-width="0"><rect x="0" y="0" width="103.0625" height="26" rx="5" ry="5" stroke="none"/><text xml:space="preserve" x="5" y="17.45703125" stroke="none" text-anchor="left" font-family="sans-serif" font-size="16" font-weight="normal" fill="#000000">FATHER_OF</text></g></g></g></g><g class="relationship"><g transform="translate(1289.475825672642 490.207569364652) rotate(-163.10745013447496)" stroke-width="2" stroke="#000000"><path d="M 58 0 L 476.23069313278563 0"/><polygon points="-14.155129855222071,0 -15.727922061357857,5.242640687119286 0,0 -15.727922061357857,-5.242640687119286" fill="#000000" transform="translate(490.3858229880077 0) rotate(0)" stroke="none"/></g><g transform="translate(1033.8861388149794 412.58978568535565) rotate(16.892549865525055) translate(0 -13)"><g transform="translate(0 0)"><g transform="translate(-58.78515625 0)" fill="#ffffff" stroke="#000000" stroke-width="0"><rect x="0" y="0" width="117.5703125" height="26" rx="5" ry="5" stroke="none"/><text xml:space="preserve" x="5" y="17.45703125" stroke="none" text-anchor="left" font-family="sans-serif" font-size="16" font-weight="normal" fill="#000000">OLD FRIENDS</text></g></g></g></g><g class="node"><g fill="#ffffff" stroke="#018BFF" stroke-width="3"><circle cx="739.2673015792752" cy="20.880180036179965" r="51.5"/></g><g transform="translate(739.2673015792752 20.880180036179965)"><g transform="scale(0.6532967767358133) translate(0 -27)"><g transform="translate(0 0)"><g transform="translate(-63.369140625 0)"><g fill="#000000" stroke="#000000" stroke-width="4" font-family="sans-serif" font-size="40" font-weight="normal"><text xml:space="preserve" x="0" y="38.142578125" stroke="none">Person</text></g></g></g></g><g transform="translate(3.3677786976552213e-15 55)"><g transform="translate(0 0)"><g transform="translate(-75.9765625 0)" fill="white"><rect x="0" y="0" width="151.953125" height="19.2" rx="0" ry="0" stroke="none"/><g font-family="sans-serif" font-size="16" font-weight="normal" fill="#717780" text-anchor="end"><text xml:space="preserve" x="48.9140625" y="14.05703125" stroke="none">name:</text><text xml:space="preserve" x="53.359375" y="14.05703125" stroke="none" text-anchor="start">'Oliver Stone'</text></g></g></g></g></g></g><g class="node"><g fill="#ffffff" stroke="#018BFF" stroke-width="3"><circle cx="530.8114496135743" cy="-99.47186221037026" r="51.5"/></g><g transform="translate(530.8114496135743 -99.47186221037026)"><g transform="scale(0.7525987763434394) translate(0 -27)"><g transform="translate(0 0)"><g transform="translate(-53.349609375 0)"><g fill="#000000" stroke="#000000" stroke-width="4" font-family="sans-serif" font-size="40" font-weight="normal"><text xml:space="preserve" x="0" y="38.142578125" stroke="none">Movie</text></g></g></g></g><g transform="translate(3.3677786976552213e-15 -74.2)"><g transform="translate(0 0)"><g transform="translate(-63.22265625 0)" fill="white"><rect x="0" y="0" width="126.4453125" height="19.2" rx="0" ry="0" stroke="none"/><g font-family="sans-serif" font-size="16" font-weight="normal" fill="#717780" text-anchor="end"><text xml:space="preserve" x="33.7890625" y="14.05703125" stroke="none">title:</text><text xml:space="preserve" x="38.234375" y="14.05703125" stroke="none" text-anchor="start">'Wall Street'</text></g></g></g></g></g></g><g class="node"><g fill="#ffffff" stroke="#018BFF" stroke-width="3"><circle cx="530.8114496135743" cy="490.207569364652" r="51.5"/></g><g transform="translate(530.8114496135743 490.207569364652)"><g transform="scale(0.6532967767358133) translate(0 -27)"><g transform="translate(0 0)"><g transform="translate(-63.369140625 0)"><g fill="#000000" stroke="#000000" stroke-width="4" font-family="sans-serif" font-size="40" font-weight="normal"><text xml:space="preserve" x="0" y="38.142578125" stroke="none">Person</text></g></g></g></g><g transform="translate(3.3677786976552213e-15 55)"><g transform="translate(0 0)"><g transform="translate(-91.09765625 0)" fill="white"><rect x="0" y="0" width="182.1953125" height="19.2" rx="0" ry="0" stroke="none"/><g font-family="sans-serif" font-size="16" font-weight="normal" fill="#717780" text-anchor="end"><text xml:space="preserve" x="48.9140625" y="14.05703125" stroke="none">name:</text><text xml:space="preserve" x="53.359375" y="14.05703125" stroke="none" text-anchor="start">'Michael Douglas'</text></g></g></g></g></g></g><g class="node"><g fill="#ffffff" stroke="#018BFF" stroke-width="3"><circle cx="764.7520964808089" cy="330.8588358357963" r="51.5"/></g><g transform="translate(764.7520964808089 330.8588358357963)"><g transform="scale(0.6532967767358133) translate(0 -27)"><g transform="translate(0 0)"><g transform="translate(-63.369140625 0)"><g fill="#000000" stroke="#000000" stroke-width="4" font-family="sans-serif" font-size="40" font-weight="normal"><text xml:space="preserve" x="0" y="38.142578125" stroke="none">Person</text></g></g></g></g><g transform="translate(-38.89087296526011 -58.09087296526012)"><g transform="translate(0 0)"><g transform="translate(-159.078125 0)" fill="white"><rect x="0" y="0" width="159.078125" height="19.2" rx="0" ry="0" stroke="none"/><g font-family="sans-serif" font-size="16" font-weight="normal" fill="#717780" text-anchor="end"><text xml:space="preserve" x="48.9140625" y="14.05703125" stroke="none">name:</text><text xml:space="preserve" x="53.359375" y="14.05703125" stroke="none" text-anchor="start">'Martin Sheen'</text></g></g></g></g></g></g><g class="node"><g fill="#ffffff" stroke="#018BFF" stroke-width="3"><circle cx="1040.752199074541" cy="490.207569364652" r="51.5"/></g><g transform="translate(1040.752199074541 490.207569364652)"><g transform="scale(0.7525987763434394) translate(0 -27)"><g transform="translate(0 0)"><g transform="translate(-53.349609375 0)"><g fill="#000000" stroke="#000000" stroke-width="4" font-family="sans-serif" font-size="40" font-weight="normal"><text xml:space="preserve" x="0" y="38.142578125" stroke="none">Movie</text></g></g></g></g><g transform="translate(3.3677786976552213e-15 55)"><g transform="translate(0 0)"><g transform="translate(-110.2109375 0)" fill="white"><rect x="0" y="0" width="220.421875" height="19.2" rx="0" ry="0" stroke="none"/><g font-family="sans-serif" font-size="16" font-weight="normal" fill="#717780" text-anchor="end"><text xml:space="preserve" x="33.7890625" y="14.05703125" stroke="none">title:</text><text xml:space="preserve" x="38.234375" y="14.05703125" stroke="none" text-anchor="start">'The American President'</text></g></g></g></g></g></g><g class="node"><g fill="#ffffff" stroke="#018BFF" stroke-width="3"><circle cx="1279.6013069336318" cy="-99.47186221037026" r="51.5"/></g><g transform="translate(1279.6013069336318 -99.47186221037026)"><g transform="scale(0.6532967767358133) translate(0 -27)"><g transform="translate(0 0)"><g transform="translate(-63.369140625 0)"><g fill="#000000" stroke="#000000" stroke-width="4" font-family="sans-serif" font-size="40" font-weight="normal"><text xml:space="preserve" x="0" y="38.142578125" stroke="none">Person</text></g></g></g></g><g transform="translate(3.3677786976552213e-15 -74.2)"><g transform="translate(0 0)"><g transform="translate(-82.65625 0)" fill="white"><rect x="0" y="0" width="165.3125" height="19.2" rx="0" ry="0" stroke="none"/><g font-family="sans-serif" font-size="16" font-weight="normal" fill="#717780" text-anchor="end"><text xml:space="preserve" x="48.9140625" y="14.05703125" stroke="none">name:</text><text xml:space="preserve" x="53.359375" y="14.05703125" stroke="none" text-anchor="start">'Charlie Sheen'</text></g></g></g></g></g></g><g class="node"><g fill="#ffffff" stroke="#018BFF" stroke-width="3"><circle cx="1289.475825672642" cy="490.207569364652" r="51.5"/></g><g transform="translate(1289.475825672642 490.207569364652)"><g transform="scale(0.6532967767358133) translate(0 -27)"><g transform="translate(0 0)"><g transform="translate(-63.369140625 0)"><g fill="#000000" stroke="#000000" stroke-width="4" font-family="sans-serif" font-size="40" font-weight="normal"><text xml:space="preserve" x="0" y="38.142578125" stroke="none">Person</text></g></g></g></g><g transform="translate(3.3677786976552213e-15 55)"><g transform="translate(0 0)"><g transform="translate(-72.421875 0)" fill="white"><rect x="0" y="0" width="144.84375" height="19.2" rx="0" ry="0" stroke="none"/><g font-family="sans-serif" font-size="16" font-weight="normal" fill="#717780" text-anchor="end"><text xml:space="preserve" x="48.9140625" y="14.05703125" stroke="none">name:</text><text xml:space="preserve" x="53.359375" y="14.05703125" stroke="none" text-anchor="start">'Rob Reiner'</text></g></g></g></g></g></g><g class="node"><g fill="#ffffff" stroke="#018BFF" stroke-width="3"><circle cx="868.8230564962122" cy="29.632491054213062" r="51.5"/></g><g transform="translate(868.8230564962122 29.632491054213062)"><g transform="scale(0.7525987763434394) translate(0 -27)"><g transform="translate(0 0)"><g transform="translate(-53.349609375 0)"><g fill="#000000" stroke="#000000" stroke-width="4" font-family="sans-serif" font-size="40" font-weight="normal"><text xml:space="preserve" x="0" y="38.142578125" stroke="none">Movie</text></g></g></g></g><g transform="translate(3.3677786976552213e-15 -74.2)"><g transform="translate(0 0)"><g transform="translate(-67.078125 0)" fill="white"><rect x="0" y="0" width="134.15625" height="19.2" rx="0" ry="0" stroke="none"/><g font-family="sans-serif" font-size="16" font-weight="normal" fill="#717780" text-anchor="end"><text xml:space="preserve" x="33.7890625" y="14.05703125" stroke="none">title:</text><text xml:space="preserve" x="38.234375" y="14.05703125" stroke="none" text-anchor="start">'Free Money'</text></g></g></g></g></g></g><g class="node"><g fill="#ffffff" stroke="#018BFF" stroke-width="3"><circle cx="1289.475825672642" cy="331.00368755287315" r="51.5"/></g><g transform="translate(1289.475825672642 331.00368755287315)"><g transform="scale(0.7525987763434394) translate(0 -27)"><g transform="translate(0 0)"><g transform="translate(-53.349609375 0)"><g fill="#000000" stroke="#000000" stroke-width="4" font-family="sans-serif" font-size="40" font-weight="normal"><text xml:space="preserve" x="0" y="38.142578125" stroke="none">Movie</text></g></g></g></g><g transform="translate(3.3677786976552213e-15 55)"><g transform="translate(0 0)"><g transform="translate(-96.8828125 0)" fill="white"><rect x="0" y="0" width="193.765625" height="19.2" rx="0" ry="0" stroke="none"/><g font-family="sans-serif" font-size="16" font-weight="normal" fill="#717780" text-anchor="end"><text xml:space="preserve" x="33.7890625" y="14.05703125" stroke="none">title:</text><text xml:space="preserve" x="38.234375" y="14.05703125" stroke="none" text-anchor="start">'No Code of Conduct'</text></g></g></g></g></g></g></g></svg>