<?xml version="1.0" encoding="UTF-8" standalone="no"?>
<!DOCTYPE svg PUBLIC "-//W3C//DTD SVG 1.1//EN"
 "http://www.w3.org/Graphics/SVG/1.1/DTD/svg11.dtd">
<!-- Generated by graphviz version 2.49.3 (20211027.1534)
 -->
<!-- Title: L Pages: 1 -->
<svg width="225pt" height="251pt"
 viewBox="0.00 0.00 225.00 251.00" xmlns="http://www.w3.org/2000/svg" xmlns:xlink="http://www.w3.org/1999/xlink">
<g id="graph0" class="graph" transform="scale(1 1) rotate(0) translate(4 247)">
<title>L</title>
<polygon fill="white" stroke="transparent" points="-4,4 -4,-247 221,-247 221,4 -4,4"/>
<!-- N0 -->
<g id="node1" class="node">
<title>N0</title>
<path fill="none" stroke="black" d="M71.5,-196.5C71.5,-196.5 140.5,-196.5 140.5,-196.5 146.5,-196.5 152.5,-202.5 152.5,-208.5 152.5,-208.5 152.5,-230.5 152.5,-230.5 152.5,-236.5 146.5,-242.5 140.5,-242.5 140.5,-242.5 71.5,-242.5 71.5,-242.5 65.5,-242.5 59.5,-236.5 59.5,-230.5 59.5,-230.5 59.5,-208.5 59.5,-208.5 59.5,-202.5 65.5,-196.5 71.5,-196.5"/>
<text text-anchor="middle" x="106" y="-227.3" font-family="Times,serif" font-size="14.00">Person</text>
<polyline fill="none" stroke="black" points="59.5,-219.5 152.5,-219.5 "/>
<text text-anchor="start" x="67.5" y="-204.3" font-family="Times,serif" font-size="14.00">name = &#39;John&#39;</text>
</g>
<!-- N3 -->
<g id="node2" class="node">
<title>N3</title>
<path fill="none" stroke="black" d="M19,-98.5C19,-98.5 87,-98.5 87,-98.5 93,-98.5 99,-104.5 99,-110.5 99,-110.5 99,-132.5 99,-132.5 99,-138.5 93,-144.5 87,-144.5 87,-144.5 19,-144.5 19,-144.5 13,-144.5 7,-138.5 7,-132.5 7,-132.5 7,-110.5 7,-110.5 7,-104.5 13,-98.5 19,-98.5"/>
<text text-anchor="middle" x="53" y="-129.3" font-family="Times,serif" font-size="14.00">Person</text>
<polyline fill="none" stroke="black" points="7,-121.5 99,-121.5 "/>
<text text-anchor="start" x="15" y="-106.3" font-family="Times,serif" font-size="14.00">name = &#39;Sara&#39;</text>
</g>
<!-- N0&#45;&gt;N3 -->
<g id="edge1" class="edge">
<title>N0&#45;&gt;N3</title>
<path fill="none" stroke="#2e3436" d="M89.55,-196.26C85.56,-190.45 81.45,-184.1 78,-178 73.71,-170.41 69.6,-161.95 65.98,-153.97"/>
<polygon fill="#2e3436" stroke="#2e3436" points="69.07,-152.31 61.84,-144.56 62.67,-155.13 69.07,-152.31"/>
<text text-anchor="middle" x="103.5" y="-166.8" font-family="Times,serif" font-size="14.00" fill="#2e3436">FRIEND</text>
</g>
<!-- N1 -->
<g id="node3" class="node">
<title>N1</title>
<path fill="none" stroke="black" d="M134,-98.5C134,-98.5 196,-98.5 196,-98.5 202,-98.5 208,-104.5 208,-110.5 208,-110.5 208,-132.5 208,-132.5 208,-138.5 202,-144.5 196,-144.5 196,-144.5 134,-144.5 134,-144.5 128,-144.5 122,-138.5 122,-132.5 122,-132.5 122,-110.5 122,-110.5 122,-104.5 128,-98.5 134,-98.5"/>
<text text-anchor="middle" x="165" y="-129.3" font-family="Times,serif" font-size="14.00">Person</text>
<polyline fill="none" stroke="black" points="122,-121.5 208,-121.5 "/>
<text text-anchor="start" x="130" y="-106.3" font-family="Times,serif" font-size="14.00">name = &#39;Joe&#39;</text>
</g>
<!-- N0&#45;&gt;N1 -->
<g id="edge2" class="edge">
<title>N0&#45;&gt;N1</title>
<path fill="none" stroke="#2e3436" d="M119.68,-196.23C127.5,-183.51 137.43,-167.37 145.99,-153.43"/>
<polygon fill="#2e3436" stroke="#2e3436" points="149.14,-155 151.39,-144.64 143.17,-151.33 149.14,-155"/>
<text text-anchor="middle" x="165.5" y="-166.8" font-family="Times,serif" font-size="14.00" fill="#2e3436">FRIEND</text>
</g>
<!-- N4 -->
<g id="node5" class="node">
<title>N4</title>
<path fill="none" stroke="black" d="M12,-0.5C12,-0.5 88,-0.5 88,-0.5 94,-0.5 100,-6.5 100,-12.5 100,-12.5 100,-34.5 100,-34.5 100,-40.5 94,-46.5 88,-46.5 88,-46.5 12,-46.5 12,-46.5 6,-46.5 0,-40.5 0,-34.5 0,-34.5 0,-12.5 0,-12.5 0,-6.5 6,-0.5 12,-0.5"/>
<text text-anchor="middle" x="50" y="-31.3" font-family="Times,serif" font-size="14.00">Person</text>
<polyline fill="none" stroke="black" points="0,-23.5 100,-23.5 "/>
<text text-anchor="start" x="8" y="-8.3" font-family="Times,serif" font-size="14.00">name = &#39;Maria&#39;</text>
</g>
<!-- N3&#45;&gt;N4 -->
<g id="edge4" class="edge">
<title>N3&#45;&gt;N4</title>
<path fill="none" stroke="#2e3436" d="M52.3,-98.23C51.92,-86 51.44,-70.59 51.02,-57.03"/>
<polygon fill="#2e3436" stroke="#2e3436" points="54.5,-56.53 50.69,-46.64 47.51,-56.75 54.5,-56.53"/>
<text text-anchor="middle" x="77.5" y="-68.8" font-family="Times,serif" font-size="14.00" fill="#2e3436">FRIEND</text>
</g>
<!-- N2 -->
<g id="node4" class="node">
<title>N2</title>
<path fill="none" stroke="black" d="M130.5,-0.5C130.5,-0.5 203.5,-0.5 203.5,-0.5 209.5,-0.5 215.5,-6.5 215.5,-12.5 215.5,-12.5 215.5,-34.5 215.5,-34.5 215.5,-40.5 209.5,-46.5 203.5,-46.5 203.5,-46.5 130.5,-46.5 130.5,-46.5 124.5,-46.5 118.5,-40.5 118.5,-34.5 118.5,-34.5 118.5,-12.5 118.5,-12.5 118.5,-6.5 124.5,-0.5 130.5,-0.5"/>
<text text-anchor="middle" x="167" y="-31.3" font-family="Times,serif" font-size="14.00">Person</text>
<polyline fill="none" stroke="black" points="118.5,-23.5 215.5,-23.5 "/>
<text text-anchor="start" x="126.5" y="-8.3" font-family="Times,serif" font-size="14.00">name = &#39;Steve&#39;</text>
</g>
<!-- N1&#45;&gt;N2 -->
<g id="edge3" class="edge">
<title>N1&#45;&gt;N2</title>
<path fill="none" stroke="#2e3436" d="M165.46,-98.23C165.72,-86 166.04,-70.59 166.32,-57.03"/>
<polygon fill="#2e3436" stroke="#2e3436" points="169.83,-56.72 166.54,-46.64 162.83,-56.57 169.83,-56.72"/>
<text text-anchor="middle" x="191.5" y="-68.8" font-family="Times,serif" font-size="14.00" fill="#2e3436">FRIEND</text>
</g>
</g>
</svg>
