<?xml version="1.0" encoding="UTF-8" standalone="no"?>
<!DOCTYPE svg PUBLIC "-//W3C//DTD SVG 1.1//EN"
 "http://www.w3.org/Graphics/SVG/1.1/DTD/svg11.dtd">
<!-- Generated by graphviz version 7.0.0 (20221023.0053)
 -->
<!-- Title: L Pages: 1 -->
<svg width="551pt" height="281pt"
 viewBox="0.00 0.00 551.00 281.00" xmlns="http://www.w3.org/2000/svg" xmlns:xlink="http://www.w3.org/1999/xlink">
<g id="graph0" class="graph" transform="scale(1 1) rotate(0) translate(4 277)">
<title>L</title>
<polygon fill="white" stroke="none" points="-4,4 -4,-277 547,-277 547,4 -4,4"/>
<!-- Andy -->
<g id="node1" class="node">
<title>Andy</title>
<path fill="none" stroke="black" d="M12,-211.5C12,-211.5 106,-211.5 106,-211.5 112,-211.5 118,-217.5 118,-223.5 118,-223.5 118,-260.5 118,-260.5 118,-266.5 112,-272.5 106,-272.5 106,-272.5 12,-272.5 12,-272.5 6,-272.5 0,-266.5 0,-260.5 0,-260.5 0,-223.5 0,-223.5 0,-217.5 6,-211.5 12,-211.5"/>
<text text-anchor="middle" x="59" y="-257.3" font-family="Bitstream Vera Sans" font-size="14.00">Swedish, Person</text>
<polyline fill="none" stroke="black" points="0,-249.5 118,-249.5"/>
<text text-anchor="middle" x="59" y="-234.3" font-family="Bitstream Vera Sans" font-size="14.00">age = 36</text>
<text text-anchor="middle" x="59" y="-219.3" font-family="Bitstream Vera Sans" font-size="14.00">name = &#39;Andy&#39;</text>
</g>
<!-- DogAndy -->
<g id="node4" class="node">
<title>DogAndy</title>
<path fill="none" stroke="black" d="M19,-98.5C19,-98.5 99,-98.5 99,-98.5 105,-98.5 111,-104.5 111,-110.5 111,-110.5 111,-132.5 111,-132.5 111,-138.5 105,-144.5 99,-144.5 99,-144.5 19,-144.5 19,-144.5 13,-144.5 7,-138.5 7,-132.5 7,-132.5 7,-110.5 7,-110.5 7,-104.5 13,-98.5 19,-98.5"/>
<text text-anchor="middle" x="59" y="-129.3" font-family="Bitstream Vera Sans" font-size="14.00">Dog</text>
<polyline fill="none" stroke="black" points="7,-121.5 111,-121.5"/>
<text text-anchor="middle" x="59" y="-106.3" font-family="Bitstream Vera Sans" font-size="14.00">name = &#39;Andy&#39;</text>
</g>
<!-- Andy&#45;&gt;DogAndy -->
<g id="edge1" class="edge">
<title>Andy&#45;&gt;DogAndy</title>
<path fill="none" stroke="black" d="M59,-211.71C59,-194.78 59,-173.42 59,-155.85"/>
<polygon fill="black" stroke="black" points="62.5,-155.9 59,-145.9 55.5,-155.9 62.5,-155.9"/>
<text text-anchor="start" x="59" y="-181.8" font-family="Bitstream Vera Sans" font-size="14.00"> &#160;HAS_DOG</text>
<text text-anchor="middle" x="98" y="-166.8" font-family="Bitstream Vera Sans" font-size="14.00">since = 2016</text>
</g>
<!-- Timothy -->
<g id="node2" class="node">
<title>Timothy</title>
<path fill="none" stroke="black" d="M148,-211.5C148,-211.5 246,-211.5 246,-211.5 252,-211.5 258,-217.5 258,-223.5 258,-223.5 258,-260.5 258,-260.5 258,-266.5 252,-272.5 246,-272.5 246,-272.5 148,-272.5 148,-272.5 142,-272.5 136,-266.5 136,-260.5 136,-260.5 136,-223.5 136,-223.5 136,-217.5 142,-211.5 148,-211.5"/>
<text text-anchor="middle" x="197" y="-257.3" font-family="Bitstream Vera Sans" font-size="14.00">Person</text>
<polyline fill="none" stroke="black" points="136,-249.5 258,-249.5"/>
<text text-anchor="middle" x="197" y="-234.3" font-family="Bitstream Vera Sans" font-size="14.00">age = 25</text>
<text text-anchor="middle" x="197" y="-219.3" font-family="Bitstream Vera Sans" font-size="14.00">name = &#39;Timothy&#39;</text>
</g>
<!-- Mittens -->
<g id="node8" class="node">
<title>Mittens</title>
<path fill="none" stroke="black" d="M150.5,-98.5C150.5,-98.5 243.5,-98.5 243.5,-98.5 249.5,-98.5 255.5,-104.5 255.5,-110.5 255.5,-110.5 255.5,-132.5 255.5,-132.5 255.5,-138.5 249.5,-144.5 243.5,-144.5 243.5,-144.5 150.5,-144.5 150.5,-144.5 144.5,-144.5 138.5,-138.5 138.5,-132.5 138.5,-132.5 138.5,-110.5 138.5,-110.5 138.5,-104.5 144.5,-98.5 150.5,-98.5"/>
<text text-anchor="middle" x="197" y="-129.3" font-family="Bitstream Vera Sans" font-size="14.00">Cat</text>
<polyline fill="none" stroke="black" points="138.5,-121.5 255.5,-121.5"/>
<text text-anchor="middle" x="197" y="-106.3" font-family="Bitstream Vera Sans" font-size="14.00">name = &#39;Mittens&#39;</text>
</g>
<!-- Timothy&#45;&gt;Mittens -->
<g id="edge5" class="edge">
<title>Timothy&#45;&gt;Mittens</title>
<path fill="none" stroke="black" d="M197,-211.71C197,-194.78 197,-173.42 197,-155.85"/>
<polygon fill="black" stroke="black" points="200.5,-155.9 197,-145.9 193.5,-155.9 200.5,-155.9"/>
<text text-anchor="start" x="197" y="-181.8" font-family="Bitstream Vera Sans" font-size="14.00"> &#160;HAS_CAT</text>
<text text-anchor="middle" x="236" y="-166.8" font-family="Bitstream Vera Sans" font-size="14.00">since = 2019</text>
</g>
<!-- Peter -->
<g id="node3" class="node">
<title>Peter</title>
<path fill="none" stroke="black" d="M337.5,-211.5C337.5,-211.5 418.5,-211.5 418.5,-211.5 424.5,-211.5 430.5,-217.5 430.5,-223.5 430.5,-223.5 430.5,-260.5 430.5,-260.5 430.5,-266.5 424.5,-272.5 418.5,-272.5 418.5,-272.5 337.5,-272.5 337.5,-272.5 331.5,-272.5 325.5,-266.5 325.5,-260.5 325.5,-260.5 325.5,-223.5 325.5,-223.5 325.5,-217.5 331.5,-211.5 337.5,-211.5"/>
<text text-anchor="middle" x="378" y="-257.3" font-family="Bitstream Vera Sans" font-size="14.00">Person</text>
<polyline fill="none" stroke="black" points="325.5,-249.5 430.5,-249.5"/>
<text text-anchor="middle" x="378" y="-234.3" font-family="Bitstream Vera Sans" font-size="14.00">age = 35</text>
<text text-anchor="middle" x="378" y="-219.3" font-family="Bitstream Vera Sans" font-size="14.00">name = &#39;Peter&#39;</text>
</g>
<!-- Ozzy -->
<g id="node5" class="node">
<title>Ozzy</title>
<path fill="none" stroke="black" d="M312,-98.5C312,-98.5 392,-98.5 392,-98.5 398,-98.5 404,-104.5 404,-110.5 404,-110.5 404,-132.5 404,-132.5 404,-138.5 398,-144.5 392,-144.5 392,-144.5 312,-144.5 312,-144.5 306,-144.5 300,-138.5 300,-132.5 300,-132.5 300,-110.5 300,-110.5 300,-104.5 306,-98.5 312,-98.5"/>
<text text-anchor="middle" x="352" y="-129.3" font-family="Bitstream Vera Sans" font-size="14.00">Dog</text>
<polyline fill="none" stroke="black" points="300,-121.5 404,-121.5"/>
<text text-anchor="middle" x="352" y="-106.3" font-family="Bitstream Vera Sans" font-size="14.00">name = &#39;Ozzy&#39;</text>
</g>
<!-- Peter&#45;&gt;Ozzy -->
<g id="edge2" class="edge">
<title>Peter&#45;&gt;Ozzy</title>
<path fill="none" stroke="black" d="M367.25,-211.54C365.3,-205.47 363.43,-199.07 362,-193 359.15,-180.91 357,-167.44 355.43,-155.55"/>
<polygon fill="black" stroke="black" points="358.93,-155.29 354.24,-145.79 351.98,-156.14 358.93,-155.29"/>
<text text-anchor="start" x="362" y="-181.8" font-family="Bitstream Vera Sans" font-size="14.00"> &#160;HAS_DOG</text>
<text text-anchor="middle" x="401" y="-166.8" font-family="Bitstream Vera Sans" font-size="14.00">since = 2018</text>
</g>
<!-- Fido -->
<g id="node6" class="node">
<title>Fido</title>
<path fill="none" stroke="black" d="M434.5,-98.5C434.5,-98.5 509.5,-98.5 509.5,-98.5 515.5,-98.5 521.5,-104.5 521.5,-110.5 521.5,-110.5 521.5,-132.5 521.5,-132.5 521.5,-138.5 515.5,-144.5 509.5,-144.5 509.5,-144.5 434.5,-144.5 434.5,-144.5 428.5,-144.5 422.5,-138.5 422.5,-132.5 422.5,-132.5 422.5,-110.5 422.5,-110.5 422.5,-104.5 428.5,-98.5 434.5,-98.5"/>
<text text-anchor="middle" x="472" y="-129.3" font-family="Bitstream Vera Sans" font-size="14.00">Dog</text>
<polyline fill="none" stroke="black" points="422.5,-121.5 521.5,-121.5"/>
<text text-anchor="middle" x="472" y="-106.3" font-family="Bitstream Vera Sans" font-size="14.00">name = &#39;Fido&#39;</text>
</g>
<!-- Peter&#45;&gt;Fido -->
<g id="edge3" class="edge">
<title>Peter&#45;&gt;Fido</title>
<path fill="none" stroke="black" d="M421.51,-211.76C428.22,-206.05 434.68,-199.73 440,-193 448.9,-181.75 455.94,-167.62 461.12,-154.98"/>
<polygon fill="black" stroke="black" points="464.34,-156.36 464.66,-145.77 457.81,-153.85 464.34,-156.36"/>
<text text-anchor="start" x="457" y="-181.8" font-family="Bitstream Vera Sans" font-size="14.00"> &#160;HAS_DOG</text>
<text text-anchor="middle" x="496" y="-166.8" font-family="Bitstream Vera Sans" font-size="14.00">since = 2010</text>
</g>
<!-- Banana -->
<g id="node7" class="node">
<title>Banana</title>
<path fill="none" stroke="black" d="M424.5,-0.5C424.5,-0.5 519.5,-0.5 519.5,-0.5 525.5,-0.5 531.5,-6.5 531.5,-12.5 531.5,-12.5 531.5,-34.5 531.5,-34.5 531.5,-40.5 525.5,-46.5 519.5,-46.5 519.5,-46.5 424.5,-46.5 424.5,-46.5 418.5,-46.5 412.5,-40.5 412.5,-34.5 412.5,-34.5 412.5,-12.5 412.5,-12.5 412.5,-6.5 418.5,-0.5 424.5,-0.5"/>
<text text-anchor="middle" x="472" y="-31.3" font-family="Bitstream Vera Sans" font-size="14.00">Toy</text>
<polyline fill="none" stroke="black" points="412.5,-23.5 531.5,-23.5"/>
<text text-anchor="middle" x="472" y="-8.3" font-family="Bitstream Vera Sans" font-size="14.00">name = &#39;Banana&#39;</text>
</g>
<!-- Fido&#45;&gt;Banana -->
<g id="edge4" class="edge">
<title>Fido&#45;&gt;Banana</title>
<path fill="none" stroke="#4e9a06" d="M472,-98.72C472,-86.56 472,-71.18 472,-57.57"/>
<polygon fill="#4e9a06" stroke="#4e9a06" points="475.5,-57.71 472,-47.71 468.5,-57.71 475.5,-57.71"/>
<text text-anchor="middle" x="507.5" y="-68.8" font-family="Bitstream Vera Sans" font-size="14.00" fill="#4e9a06"> &#160;HAS_TOY</text>
</g>
</g>
</svg>
