<?xml version="1.0" encoding="UTF-8" standalone="no"?>
<!DOCTYPE svg PUBLIC "-//W3C//DTD SVG 1.1//EN"
 "http://www.w3.org/Graphics/SVG/1.1/DTD/svg11.dtd">
<!-- Generated by graphviz version 2.49.3 (20211027.1534)
 -->
<!-- Title: L Pages: 1 -->
<svg width="103pt" height="257pt"
 viewBox="0.00 0.00 103.00 257.00" xmlns="http://www.w3.org/2000/svg" xmlns:xlink="http://www.w3.org/1999/xlink">
<g id="graph0" class="graph" transform="scale(1 1) rotate(0) translate(4 253)">
<title>L</title>
<polygon fill="white" stroke="transparent" points="-4,4 -4,-253 99,-253 99,4 -4,4"/>
<!-- N0 -->
<g id="node1" class="node">
<title>N0</title>
<path fill="none" stroke="black" d="M12,-195.5C12,-195.5 74,-195.5 74,-195.5 80,-195.5 86,-201.5 86,-207.5 86,-207.5 86,-236.5 86,-236.5 86,-242.5 80,-248.5 74,-248.5 74,-248.5 12,-248.5 12,-248.5 6,-248.5 0,-242.5 0,-236.5 0,-236.5 0,-207.5 0,-207.5 0,-201.5 6,-195.5 12,-195.5"/>
<text text-anchor="start" x="8" y="-233.3" font-family="Times,serif" font-size="14.00">name = &#39;A&#39;</text>
<text text-anchor="start" x="8" y="-218.3" font-family="Times,serif" font-size="14.00">age = 34</text>
<text text-anchor="start" x="8" y="-203.3" font-family="Times,serif" font-size="14.00">length = 170</text>
</g>
<!-- N1 -->
<g id="node2" class="node">
<title>N1</title>
<path fill="none" stroke="black" d="M16.5,-105.5C16.5,-105.5 69.5,-105.5 69.5,-105.5 75.5,-105.5 81.5,-111.5 81.5,-117.5 81.5,-117.5 81.5,-131.5 81.5,-131.5 81.5,-137.5 75.5,-143.5 69.5,-143.5 69.5,-143.5 16.5,-143.5 16.5,-143.5 10.5,-143.5 4.5,-137.5 4.5,-131.5 4.5,-131.5 4.5,-117.5 4.5,-117.5 4.5,-111.5 10.5,-105.5 16.5,-105.5"/>
<text text-anchor="start" x="12.5" y="-128.3" font-family="Times,serif" font-size="14.00">name = &#39;B&#39;</text>
<text text-anchor="start" x="12.5" y="-113.3" font-family="Times,serif" font-size="14.00">age = 36</text>
</g>
<!-- N0&#45;&gt;N1 -->
<g id="edge1" class="edge">
<title>N0&#45;&gt;N1</title>
<path fill="none" stroke="#2e3436" d="M43,-195.41C43,-182.63 43,-167.13 43,-153.98"/>
<polygon fill="#2e3436" stroke="#2e3436" points="46.5,-153.6 43,-143.6 39.5,-153.6 46.5,-153.6"/>
<text text-anchor="middle" x="69" y="-165.8" font-family="Times,serif" font-size="14.00" fill="#2e3436">KNOWS</text>
</g>
<!-- N2 -->
<g id="node3" class="node">
<title>N2</title>
<path fill="none" stroke="black" d="M12,-0.5C12,-0.5 74,-0.5 74,-0.5 80,-0.5 86,-6.5 86,-12.5 86,-12.5 86,-41.5 86,-41.5 86,-47.5 80,-53.5 74,-53.5 74,-53.5 12,-53.5 12,-53.5 6,-53.5 0,-47.5 0,-41.5 0,-41.5 0,-12.5 0,-12.5 0,-6.5 6,-0.5 12,-0.5"/>
<text text-anchor="start" x="8" y="-38.3" font-family="Times,serif" font-size="14.00">name = &#39;C&#39;</text>
<text text-anchor="start" x="8" y="-23.3" font-family="Times,serif" font-size="14.00">age = 32</text>
<text text-anchor="start" x="8" y="-8.3" font-family="Times,serif" font-size="14.00">length = 185</text>
</g>
<!-- N1&#45;&gt;N2 -->
<g id="edge2" class="edge">
<title>N1&#45;&gt;N2</title>
<path fill="none" stroke="#2e3436" d="M43,-105.09C43,-93.42 43,-77.95 43,-63.93"/>
<polygon fill="#2e3436" stroke="#2e3436" points="46.5,-63.58 43,-53.58 39.5,-63.58 46.5,-63.58"/>
<text text-anchor="middle" x="69" y="-75.8" font-family="Times,serif" font-size="14.00" fill="#2e3436">KNOWS</text>
</g>
</g>
</svg>
