<?xml version="1.0" encoding="UTF-8" standalone="no"?>
<!DOCTYPE svg PUBLIC "-//W3C//DTD SVG 1.1//EN"
 "http://www.w3.org/Graphics/SVG/1.1/DTD/svg11.dtd">
<!-- Generated by graphviz version 2.49.3 (20211027.1534)
 -->
<!-- Title: L Pages: 1 -->
<svg width="300pt" height="356pt"
 viewBox="0.00 0.00 300.00 356.00" xmlns="http://www.w3.org/2000/svg" xmlns:xlink="http://www.w3.org/1999/xlink">
<g id="graph0" class="graph" transform="scale(1 1) rotate(0) translate(4 352)">
<title>L</title>
<polygon fill="white" stroke="transparent" points="-4,4 -4,-352 296,-352 296,4 -4,4"/>
<!-- N0 -->
<g id="node1" class="node">
<title>N0</title>
<path fill="none" stroke="black" d="M75.5,-271.5C75.5,-271.5 148.5,-271.5 148.5,-271.5 154.5,-271.5 160.5,-277.5 160.5,-283.5 160.5,-283.5 160.5,-335.5 160.5,-335.5 160.5,-341.5 154.5,-347.5 148.5,-347.5 148.5,-347.5 75.5,-347.5 75.5,-347.5 69.5,-347.5 63.5,-341.5 63.5,-335.5 63.5,-335.5 63.5,-283.5 63.5,-283.5 63.5,-277.5 69.5,-271.5 75.5,-271.5"/>
<text text-anchor="middle" x="112" y="-332.3" font-family="Times,serif" font-size="14.00">A</text>
<polyline fill="none" stroke="black" points="63.5,-324.5 160.5,-324.5 "/>
<text text-anchor="start" x="71.5" y="-309.3" font-family="Times,serif" font-size="14.00">name = &#39;Alice&#39;</text>
<text text-anchor="start" x="71.5" y="-294.3" font-family="Times,serif" font-size="14.00">age = 38</text>
<text text-anchor="start" x="71.5" y="-279.3" font-family="Times,serif" font-size="14.00">eyes = &#39;brown&#39;</text>
</g>
<!-- N2 -->
<g id="node2" class="node">
<title>N2</title>
<path fill="none" stroke="black" d="M12,-143.5C12,-143.5 96,-143.5 96,-143.5 102,-143.5 108,-149.5 108,-155.5 108,-155.5 108,-207.5 108,-207.5 108,-213.5 102,-219.5 96,-219.5 96,-219.5 12,-219.5 12,-219.5 6,-219.5 0,-213.5 0,-207.5 0,-207.5 0,-155.5 0,-155.5 0,-149.5 6,-143.5 12,-143.5"/>
<text text-anchor="middle" x="54" y="-204.3" font-family="Times,serif" font-size="14.00">C</text>
<polyline fill="none" stroke="black" points="0,-196.5 108,-196.5 "/>
<text text-anchor="start" x="8" y="-181.3" font-family="Times,serif" font-size="14.00">name = &#39;Charlie&#39;</text>
<text text-anchor="start" x="8" y="-166.3" font-family="Times,serif" font-size="14.00">age = 53</text>
<text text-anchor="start" x="8" y="-151.3" font-family="Times,serif" font-size="14.00">eyes = &#39;green&#39;</text>
</g>
<!-- N0&#45;&gt;N2 -->
<g id="edge1" class="edge">
<title>N0&#45;&gt;N2</title>
<path fill="none" stroke="#2e3436" d="M94.46,-271.21C91.62,-265.13 88.72,-258.89 86,-253 82.44,-245.28 78.69,-237.07 75.05,-229.09"/>
<polygon fill="#2e3436" stroke="#2e3436" points="78.18,-227.51 70.86,-219.86 71.81,-230.41 78.18,-227.51"/>
<text text-anchor="middle" x="112" y="-241.8" font-family="Times,serif" font-size="14.00" fill="#2e3436">KNOWS</text>
</g>
<!-- N1 -->
<g id="node3" class="node">
<title>N1</title>
<path fill="none" stroke="black" d="M138,-143.5C138,-143.5 204,-143.5 204,-143.5 210,-143.5 216,-149.5 216,-155.5 216,-155.5 216,-207.5 216,-207.5 216,-213.5 210,-219.5 204,-219.5 204,-219.5 138,-219.5 138,-219.5 132,-219.5 126,-213.5 126,-207.5 126,-207.5 126,-155.5 126,-155.5 126,-149.5 132,-143.5 138,-143.5"/>
<text text-anchor="middle" x="171" y="-204.3" font-family="Times,serif" font-size="14.00">B</text>
<polyline fill="none" stroke="black" points="126,-196.5 216,-196.5 "/>
<text text-anchor="start" x="134" y="-181.3" font-family="Times,serif" font-size="14.00">name = &#39;Bob&#39;</text>
<text text-anchor="start" x="134" y="-166.3" font-family="Times,serif" font-size="14.00">age = 25</text>
<text text-anchor="start" x="134" y="-151.3" font-family="Times,serif" font-size="14.00">eyes = &#39;blue&#39;</text>
</g>
<!-- N0&#45;&gt;N1 -->
<g id="edge2" class="edge">
<title>N0&#45;&gt;N1</title>
<path fill="none" stroke="#2e3436" d="M129.38,-271.38C135.57,-258.17 142.62,-243.12 149.13,-229.21"/>
<polygon fill="#2e3436" stroke="#2e3436" points="152.47,-230.33 153.54,-219.79 146.13,-227.36 152.47,-230.33"/>
<text text-anchor="middle" x="169" y="-241.8" font-family="Times,serif" font-size="14.00" fill="#2e3436">KNOWS</text>
</g>
<!-- N3 -->
<g id="node4" class="node">
<title>N3</title>
<path fill="none" stroke="black" d="M14,-15.5C14,-15.5 94,-15.5 94,-15.5 100,-15.5 106,-21.5 106,-27.5 106,-27.5 106,-64.5 106,-64.5 106,-70.5 100,-76.5 94,-76.5 94,-76.5 14,-76.5 14,-76.5 8,-76.5 2,-70.5 2,-64.5 2,-64.5 2,-27.5 2,-27.5 2,-21.5 8,-15.5 14,-15.5"/>
<text text-anchor="middle" x="54" y="-61.3" font-family="Times,serif" font-size="14.00">D</text>
<polyline fill="none" stroke="black" points="2,-53.5 106,-53.5 "/>
<text text-anchor="start" x="10" y="-38.3" font-family="Times,serif" font-size="14.00">name = &#39;Daniel&#39;</text>
<text text-anchor="start" x="10" y="-23.3" font-family="Times,serif" font-size="14.00">eyes = &#39;brown&#39;</text>
</g>
<!-- N2&#45;&gt;N3 -->
<g id="edge5" class="edge">
<title>N2&#45;&gt;N3</title>
<path fill="none" stroke="#2e3436" d="M54,-143.31C54,-125.77 54,-104.81 54,-86.94"/>
<polygon fill="#2e3436" stroke="#2e3436" points="57.5,-86.81 54,-76.81 50.5,-86.81 57.5,-86.81"/>
<text text-anchor="middle" x="80" y="-113.8" font-family="Times,serif" font-size="14.00" fill="#2e3436">KNOWS</text>
</g>
<!-- N1&#45;&gt;N3 -->
<g id="edge3" class="edge">
<title>N1&#45;&gt;N3</title>
<path fill="none" stroke="#2e3436" d="M138.41,-143.31C122.32,-124.95 102.95,-102.85 86.82,-84.45"/>
<polygon fill="#2e3436" stroke="#2e3436" points="89.35,-82.03 80.13,-76.81 84.09,-86.64 89.35,-82.03"/>
<text text-anchor="middle" x="145" y="-113.8" font-family="Times,serif" font-size="14.00" fill="#2e3436">KNOWS</text>
</g>
<!-- N4 -->
<g id="node5" class="node">
<title>N4</title>
<path fill="none" stroke="black" d="M136,-0.5C136,-0.5 280,-0.5 280,-0.5 286,-0.5 292,-6.5 292,-12.5 292,-12.5 292,-79.5 292,-79.5 292,-85.5 286,-91.5 280,-91.5 280,-91.5 136,-91.5 136,-91.5 130,-91.5 124,-85.5 124,-79.5 124,-79.5 124,-12.5 124,-12.5 124,-6.5 130,-0.5 136,-0.5"/>
<text text-anchor="middle" x="208" y="-76.3" font-family="Times,serif" font-size="14.00">E</text>
<polyline fill="none" stroke="black" points="124,-68.5 292,-68.5 "/>
<text text-anchor="start" x="132" y="-53.3" font-family="Times,serif" font-size="14.00">eyes = &#39;blue&#39;</text>
<text text-anchor="start" x="132" y="-38.3" font-family="Times,serif" font-size="14.00">array = [&#39;one&#39;, &#39;two&#39;, &#39;three&#39;]</text>
<text text-anchor="start" x="132" y="-23.3" font-family="Times,serif" font-size="14.00">name = &#39;Eskil&#39;</text>
<text text-anchor="start" x="132" y="-8.3" font-family="Times,serif" font-size="14.00">age = 41</text>
</g>
<!-- N1&#45;&gt;N4 -->
<g id="edge4" class="edge">
<title>N1&#45;&gt;N4</title>
<path fill="none" stroke="#4e9a06" d="M181.31,-143.31C184.89,-130.4 188.98,-115.64 192.86,-101.61"/>
<polygon fill="#4e9a06" stroke="#4e9a06" points="196.35,-102.14 195.65,-91.57 189.6,-100.27 196.35,-102.14"/>
<text text-anchor="middle" x="220.5" y="-113.8" font-family="Times,serif" font-size="14.00" fill="#4e9a06">MARRIED</text>
</g>
</g>
</svg>
