<?xml version="1.0" encoding="UTF-8" standalone="no"?>
<!DOCTYPE svg PUBLIC "-//W3C//DTD SVG 1.1//EN"
 "http://www.w3.org/Graphics/SVG/1.1/DTD/svg11.dtd">
<!-- Generated by graphviz version 2.49.3 (20211027.1534)
 -->
<!-- Title: L Pages: 1 -->
<svg width="337pt" height="183pt"
 viewBox="0.00 0.00 336.50 183.00" xmlns="http://www.w3.org/2000/svg" xmlns:xlink="http://www.w3.org/1999/xlink">
<g id="graph0" class="graph" transform="scale(1 1) rotate(0) translate(4 179)">
<title>L</title>
<polygon fill="white" stroke="transparent" points="-4,4 -4,-179 332.5,-179 332.5,4 -4,4"/>
<!-- N0 -->
<g id="node1" class="node">
<title>N0</title>
<path fill="none" stroke="black" d="M81,-113.5C81,-113.5 155,-113.5 155,-113.5 161,-113.5 167,-119.5 167,-125.5 167,-125.5 167,-162.5 167,-162.5 167,-168.5 161,-174.5 155,-174.5 155,-174.5 81,-174.5 81,-174.5 75,-174.5 69,-168.5 69,-162.5 69,-162.5 69,-125.5 69,-125.5 69,-119.5 75,-113.5 81,-113.5"/>
<text text-anchor="middle" x="118" y="-159.3" font-family="Times,serif" font-size="14.00">Person</text>
<polyline fill="none" stroke="black" points="69,-151.5 167,-151.5 "/>
<text text-anchor="start" x="77" y="-136.3" font-family="Times,serif" font-size="14.00">age = 36</text>
<text text-anchor="start" x="77" y="-121.3" font-family="Times,serif" font-size="14.00">name = &#39;Andy&#39;</text>
</g>
<!-- N1 -->
<g id="node2" class="node">
<title>N1</title>
<path fill="none" stroke="black" d="M12,-0.5C12,-0.5 102,-0.5 102,-0.5 108,-0.5 114,-6.5 114,-12.5 114,-12.5 114,-49.5 114,-49.5 114,-55.5 108,-61.5 102,-61.5 102,-61.5 12,-61.5 12,-61.5 6,-61.5 0,-55.5 0,-49.5 0,-49.5 0,-12.5 0,-12.5 0,-6.5 6,-0.5 12,-0.5"/>
<text text-anchor="middle" x="57" y="-46.3" font-family="Times,serif" font-size="14.00">Person</text>
<polyline fill="none" stroke="black" points="0,-38.5 114,-38.5 "/>
<text text-anchor="start" x="8" y="-23.3" font-family="Times,serif" font-size="14.00">age = 25</text>
<text text-anchor="start" x="8" y="-8.3" font-family="Times,serif" font-size="14.00">name = &#39;Timothy&#39;</text>
</g>
<!-- N0&#45;&gt;N1 -->
<g id="edge1" class="edge">
<title>N0&#45;&gt;N1</title>
<path fill="none" stroke="#2e3436" d="M101.65,-113.25C94.47,-100.19 85.95,-84.68 78.28,-70.73"/>
<polygon fill="#2e3436" stroke="#2e3436" points="81.28,-68.91 73.39,-61.83 75.14,-72.28 81.28,-68.91"/>
<text text-anchor="middle" x="118" y="-83.8" font-family="Times,serif" font-size="14.00" fill="#2e3436">KNOWS</text>
</g>
<!-- N2 -->
<g id="node3" class="node">
<title>N2</title>
<path fill="none" stroke="black" d="M144.5,-0.5C144.5,-0.5 215.5,-0.5 215.5,-0.5 221.5,-0.5 227.5,-6.5 227.5,-12.5 227.5,-12.5 227.5,-49.5 227.5,-49.5 227.5,-55.5 221.5,-61.5 215.5,-61.5 215.5,-61.5 144.5,-61.5 144.5,-61.5 138.5,-61.5 132.5,-55.5 132.5,-49.5 132.5,-49.5 132.5,-12.5 132.5,-12.5 132.5,-6.5 138.5,-0.5 144.5,-0.5"/>
<text text-anchor="middle" x="180" y="-46.3" font-family="Times,serif" font-size="14.00">Person</text>
<polyline fill="none" stroke="black" points="132.5,-38.5 227.5,-38.5 "/>
<text text-anchor="start" x="140.5" y="-23.3" font-family="Times,serif" font-size="14.00">age = 34</text>
<text text-anchor="start" x="140.5" y="-8.3" font-family="Times,serif" font-size="14.00">name = &#39;Peter&#39;</text>
</g>
<!-- N0&#45;&gt;N2 -->
<g id="edge2" class="edge">
<title>N0&#45;&gt;N2</title>
<path fill="none" stroke="#2e3436" d="M137.14,-113.29C140.84,-107.29 144.62,-100.99 148,-95 152.38,-87.24 156.86,-78.81 161.02,-70.72"/>
<polygon fill="#2e3436" stroke="#2e3436" points="164.15,-72.27 165.56,-61.77 157.91,-69.11 164.15,-72.27"/>
<text text-anchor="middle" x="181" y="-83.8" font-family="Times,serif" font-size="14.00" fill="#2e3436">KNOWS</text>
</g>
<!-- N3 -->
<g id="node4" class="node">
<title>N3</title>
<path fill="none" stroke="black" d="M197.5,-121C197.5,-121 316.5,-121 316.5,-121 322.5,-121 328.5,-127 328.5,-133 328.5,-133 328.5,-155 328.5,-155 328.5,-161 322.5,-167 316.5,-167 316.5,-167 197.5,-167 197.5,-167 191.5,-167 185.5,-161 185.5,-155 185.5,-155 185.5,-133 185.5,-133 185.5,-127 191.5,-121 197.5,-121"/>
<text text-anchor="middle" x="257" y="-151.8" font-family="Times,serif" font-size="14.00">Person</text>
<polyline fill="none" stroke="black" points="185.5,-144 328.5,-144 "/>
<text text-anchor="start" x="193.5" y="-128.8" font-family="Times,serif" font-size="14.00">name = &#39;UNKNOWN&#39;</text>
</g>
</g>
</svg>
