<?xml version="1.0" encoding="UTF-8" standalone="no"?>
<!DOCTYPE svg PUBLIC "-//W3C//DTD SVG 1.1//EN"
 "http://www.w3.org/Graphics/SVG/1.1/DTD/svg11.dtd">
<!-- Generated by graphviz version 7.0.0 (20221023.0053)
 -->
<!-- Title: H Pages: 1 -->
<svg width="427pt" height="96pt"
 viewBox="0.00 0.00 426.50 96.00" xmlns="http://www.w3.org/2000/svg" xmlns:xlink="http://www.w3.org/1999/xlink">
<g id="graph0" class="graph" transform="scale(1 1) rotate(0) translate(4 192)">
<title>H</title>
<polygon fill="white" stroke="none" points="-4,4 -4,-192 436.5,-192 426.5,4 -4,4"/>
<!-- Alice -->
<g id="node1" class="node">
<title>Alice</title>
<path fill="none" stroke="black" d="M12,-119C12,-119 95,-119 95,-119 101,-119 107,-125 107,-131 107,-131 107,-168 107,-168 107,-174 101,-180 95,-180 95,-180 12,-180 12,-180 6,-180 0,-174 0,-168 0,-168 0,-131 0,-131 0,-125 6,-119 12,-119"/>
<text text-anchor="start" x="32" y="-164.8" font-family="Times,serif" font-size="14.00">Person</text>
<polyline fill="none" stroke="black" points="0,-157 107,-157"/>
<text text-anchor="start" x="10" y="-141.8" font-family="Times,serif" font-size="14.00"> name = &#39;Alice&#39;</text>
<text text-anchor="start" x="21" y="-126.8" font-family="Times,serif" font-size="14.00"> age = 14 </text>
</g>
<!-- Bob -->
<g id="node2" class="node">
<title>Bob</title>
<path fill="none" stroke="black" d="M137,-119C137,-119 220,-119 220,-119 226,-119 232,-125 232,-131 232,-131 232,-168 232,-168 232,-174 226,-180 220,-180 220,-180 137,-180 137,-180 131,-180 125,-174 125,-168 125,-168 125,-131 125,-131 125,-125 131,-119 137,-119"/>
<text text-anchor="start" x="157" y="-164.8" font-family="Times,serif" font-size="14.00">Person</text>
<polyline fill="none" stroke="black" points="125,-157 232,-157"/>
<text text-anchor="start" x="135" y="-141.8" font-family="Times,serif" font-size="14.00"> name = &#39;Bob&#39; </text>
<text text-anchor="start" x="146" y="-126.8" font-family="Times,serif" font-size="14.00"> age = '20' </text>
</g>
<!-- Charlie -->
<g id="node3" class="node">
<title>Charlie</title>
<path fill="none" stroke="black" d="M262,-119C262,-119 345,-119 345,-119 351,-119 357,-125 357,-131 357,-131 357,-168 357,-168 357,-174 351,-180 345,-180 245,-180 262,-180 262,-180 256,-180 250,-174 250,-168 250,-168 250,-131 250,-131 250,-125 256,-119 262,-119"/>
<text text-anchor="start" x="282" y="-164.8" font-family="Times,serif" font-size="14.00">Person</text>
<polyline fill="none" stroke="black" points="250,-157 357,-157"/>
<text text-anchor="start" x="260" y="-141.8" font-family="Times,serif" font-size="14.00"> name = &#39;Charlie&#39;</text>
<text text-anchor="start" x="271" y="-126.8" font-family="Times,serif" font-size="14.00"> age = 21 </text>
</g>
</g>
</svg>
