<?xml version="1.0" encoding="UTF-8" standalone="no"?>
<!DOCTYPE svg PUBLIC "-//W3C//DTD SVG 1.1//EN"
 "http://www.w3.org/Graphics/SVG/1.1/DTD/svg11.dtd">
<!-- Generated by graphviz version 2.49.3 (20211027.1534)
 -->
<!-- Title: L Pages: 1 -->
<svg width="437pt" height="296pt"
 viewBox="0.00 0.00 436.50 296.00" xmlns="http://www.w3.org/2000/svg" xmlns:xlink="http://www.w3.org/1999/xlink">
<g id="graph0" class="graph" transform="scale(1 1) rotate(0) translate(4 292)">
<title>L</title>
<polygon fill="white" stroke="transparent" points="-4,4 -4,-292 432.5,-292 432.5,4 -4,4"/>
<!-- N0 -->
<g id="node1" class="node">
<title>N0</title>
<path fill="none" stroke="black" d="M190,-226.5C190,-226.5 243,-226.5 243,-226.5 249,-226.5 255,-232.5 255,-238.5 255,-238.5 255,-275.5 255,-275.5 255,-281.5 249,-287.5 243,-287.5 243,-287.5 190,-287.5 190,-287.5 184,-287.5 178,-281.5 178,-275.5 178,-275.5 178,-238.5 178,-238.5 178,-232.5 184,-226.5 190,-226.5"/>
<text text-anchor="middle" x="216.5" y="-272.3" font-family="Times,serif" font-size="14.00">Person</text>
<polyline fill="none" stroke="black" points="178,-264.5 255,-264.5 "/>
<text text-anchor="start" x="186" y="-249.3" font-family="Times,serif" font-size="14.00">age = 13</text>
<text text-anchor="start" x="186" y="-234.3" font-family="Times,serif" font-size="14.00">name = &#39;A&#39;</text>
</g>
<!-- N1 -->
<g id="node2" class="node">
<title>N1</title>
<path fill="none" stroke="black" d="M12,-98.5C12,-98.5 73,-98.5 73,-98.5 79,-98.5 85,-104.5 85,-110.5 85,-110.5 85,-162.5 85,-162.5 85,-168.5 79,-174.5 73,-174.5 73,-174.5 12,-174.5 12,-174.5 6,-174.5 0,-168.5 0,-162.5 0,-162.5 0,-110.5 0,-110.5 0,-104.5 6,-98.5 12,-98.5"/>
<text text-anchor="middle" x="42.5" y="-159.3" font-family="Times,serif" font-size="14.00">Person</text>
<polyline fill="none" stroke="black" points="0,-151.5 85,-151.5 "/>
<text text-anchor="start" x="8" y="-136.3" font-family="Times,serif" font-size="14.00">eyes = &#39;blue&#39;</text>
<text text-anchor="start" x="8" y="-121.3" font-family="Times,serif" font-size="14.00">age = 33</text>
<text text-anchor="start" x="8" y="-106.3" font-family="Times,serif" font-size="14.00">name = &#39;B&#39;</text>
</g>
<!-- N0&#45;&gt;N1 -->
<g id="edge1" class="edge">
<title>N0&#45;&gt;N1</title>
<path fill="none" stroke="#2e3436" d="M177.68,-241.95C157.33,-233.65 132.54,-222.03 112.5,-208 101.69,-200.43 91.09,-191.09 81.54,-181.72"/>
<polygon fill="#2e3436" stroke="#2e3436" points="83.98,-179.21 74.45,-174.57 79.01,-184.13 83.98,-179.21"/>
<text text-anchor="middle" x="138.5" y="-196.8" font-family="Times,serif" font-size="14.00" fill="#2e3436">KNOWS</text>
</g>
<!-- N2 -->
<g id="node3" class="node">
<title>N2</title>
<path fill="none" stroke="black" d="M115,-98.5C115,-98.5 176,-98.5 176,-98.5 182,-98.5 188,-104.5 188,-110.5 188,-110.5 188,-162.5 188,-162.5 188,-168.5 182,-174.5 176,-174.5 176,-174.5 115,-174.5 115,-174.5 109,-174.5 103,-168.5 103,-162.5 103,-162.5 103,-110.5 103,-110.5 103,-104.5 109,-98.5 115,-98.5"/>
<text text-anchor="middle" x="145.5" y="-159.3" font-family="Times,serif" font-size="14.00">Person</text>
<polyline fill="none" stroke="black" points="103,-151.5 188,-151.5 "/>
<text text-anchor="start" x="111" y="-136.3" font-family="Times,serif" font-size="14.00">eyes = &#39;blue&#39;</text>
<text text-anchor="start" x="111" y="-121.3" font-family="Times,serif" font-size="14.00">age = 44</text>
<text text-anchor="start" x="111" y="-106.3" font-family="Times,serif" font-size="14.00">name = &#39;C&#39;</text>
</g>
<!-- N0&#45;&gt;N2 -->
<g id="edge2" class="edge">
<title>N0&#45;&gt;N2</title>
<path fill="none" stroke="#2e3436" d="M189.54,-226.25C184.89,-220.41 180.33,-214.18 176.5,-208 171.85,-200.48 167.53,-192.15 163.68,-183.92"/>
<polygon fill="#2e3436" stroke="#2e3436" points="166.84,-182.4 159.55,-174.72 160.45,-185.27 166.84,-182.4"/>
<text text-anchor="middle" x="202.5" y="-196.8" font-family="Times,serif" font-size="14.00" fill="#2e3436">KNOWS</text>
</g>
<!-- N3 -->
<g id="node4" class="node">
<title>N3</title>
<path fill="none" stroke="black" d="M218.5,-106C218.5,-106 290.5,-106 290.5,-106 296.5,-106 302.5,-112 302.5,-118 302.5,-118 302.5,-155 302.5,-155 302.5,-161 296.5,-167 290.5,-167 290.5,-167 218.5,-167 218.5,-167 212.5,-167 206.5,-161 206.5,-155 206.5,-155 206.5,-118 206.5,-118 206.5,-112 212.5,-106 218.5,-106"/>
<text text-anchor="middle" x="254.5" y="-151.8" font-family="Times,serif" font-size="14.00">Person</text>
<polyline fill="none" stroke="black" points="206.5,-144 302.5,-144 "/>
<text text-anchor="start" x="214.5" y="-128.8" font-family="Times,serif" font-size="14.00">eyes = &#39;brown&#39;</text>
<text text-anchor="start" x="214.5" y="-113.8" font-family="Times,serif" font-size="14.00">name = &#39;D&#39;</text>
</g>
<!-- N0&#45;&gt;N3 -->
<g id="edge3" class="edge">
<title>N0&#45;&gt;N3</title>
<path fill="none" stroke="#2e3436" d="M225.99,-226.4C230.8,-211.42 236.7,-193.02 241.88,-176.85"/>
<polygon fill="#2e3436" stroke="#2e3436" points="245.28,-177.72 245,-167.13 238.61,-175.58 245.28,-177.72"/>
<text text-anchor="middle" x="263.5" y="-196.8" font-family="Times,serif" font-size="14.00" fill="#2e3436">KNOWS</text>
</g>
<!-- N5 -->
<g id="node5" class="node">
<title>N5</title>
<path fill="none" stroke="black" d="M332.5,-113.5C332.5,-113.5 416.5,-113.5 416.5,-113.5 422.5,-113.5 428.5,-119.5 428.5,-125.5 428.5,-125.5 428.5,-147.5 428.5,-147.5 428.5,-153.5 422.5,-159.5 416.5,-159.5 416.5,-159.5 332.5,-159.5 332.5,-159.5 326.5,-159.5 320.5,-153.5 320.5,-147.5 320.5,-147.5 320.5,-125.5 320.5,-125.5 320.5,-119.5 326.5,-113.5 332.5,-113.5"/>
<text text-anchor="middle" x="374.5" y="-144.3" font-family="Times,serif" font-size="14.00">Book</text>
<polyline fill="none" stroke="black" points="320.5,-136.5 428.5,-136.5 "/>
<text text-anchor="start" x="328.5" y="-121.3" font-family="Times,serif" font-size="14.00">name = &#39;Cypher&#39;</text>
</g>
<!-- N0&#45;&gt;N5 -->
<g id="edge4" class="edge">
<title>N0&#45;&gt;N5</title>
<path fill="none" stroke="#4e9a06" d="M255.28,-233.48C267.76,-225.8 281.47,-216.9 293.5,-208 310.7,-195.28 328.75,-179.8 343.44,-166.59"/>
<polygon fill="#4e9a06" stroke="#4e9a06" points="346.18,-168.83 351.23,-159.51 341.47,-163.65 346.18,-168.83"/>
<text text-anchor="middle" x="334" y="-196.8" font-family="Times,serif" font-size="14.00" fill="#4e9a06">READS</text>
</g>
<!-- N4 -->
<g id="node6" class="node">
<title>N4</title>
<path fill="none" stroke="black" d="M67,-0.5C67,-0.5 120,-0.5 120,-0.5 126,-0.5 132,-6.5 132,-12.5 132,-12.5 132,-34.5 132,-34.5 132,-40.5 126,-46.5 120,-46.5 120,-46.5 67,-46.5 67,-46.5 61,-46.5 55,-40.5 55,-34.5 55,-34.5 55,-12.5 55,-12.5 55,-6.5 61,-0.5 67,-0.5"/>
<text text-anchor="middle" x="93.5" y="-31.3" font-family="Times,serif" font-size="14.00">Person</text>
<polyline fill="none" stroke="black" points="55,-23.5 132,-23.5 "/>
<text text-anchor="start" x="63" y="-8.3" font-family="Times,serif" font-size="14.00">name = &#39;D&#39;</text>
</g>
<!-- N1&#45;&gt;N4 -->
<g id="edge5" class="edge">
<title>N1&#45;&gt;N4</title>
<path fill="none" stroke="#2e3436" d="M51.66,-98.41C55.02,-87.37 59.3,-75.44 64.5,-65 66.14,-61.71 68.03,-58.4 70.05,-55.16"/>
<polygon fill="#2e3436" stroke="#2e3436" points="72.97,-57.09 75.6,-46.82 67.14,-53.21 72.97,-57.09"/>
<text text-anchor="middle" x="90.5" y="-68.8" font-family="Times,serif" font-size="14.00" fill="#2e3436">KNOWS</text>
</g>
<!-- N2&#45;&gt;N4 -->
<g id="edge6" class="edge">
<title>N2&#45;&gt;N4</title>
<path fill="none" stroke="#2e3436" d="M131.16,-98.16C126.74,-87.34 121.66,-75.59 116.5,-65 114.97,-61.85 113.29,-58.61 111.57,-55.39"/>
<polygon fill="#2e3436" stroke="#2e3436" points="114.56,-53.57 106.67,-46.51 108.44,-56.96 114.56,-53.57"/>
<text text-anchor="middle" x="149.5" y="-68.8" font-family="Times,serif" font-size="14.00" fill="#2e3436">KNOWS</text>
</g>
</g>
</svg>
