<?xml version="1.0" encoding="UTF-8" standalone="no"?>
<!DOCTYPE svg PUBLIC "-//W3C//DTD SVG 1.1//EN"
 "http://www.w3.org/Graphics/SVG/1.1/DTD/svg11.dtd">
<!-- Generated by graphviz version 7.0.0 (20221023.0053)
 -->
<!-- Title: H Pages: 1 -->
<svg width="527pt" height="296pt"
 viewBox="0.00 0.00 526.50 296.00" xmlns="http://www.w3.org/2000/svg" xmlns:xlink="http://www.w3.org/1999/xlink">
<g id="graph0" class="graph" transform="scale(1 1) rotate(0) translate(4 292)">
<title>H</title>
<polygon fill="white" stroke="none" points="-4,4 -4,-292 522.5,-292 522.5,4 -4,4"/>
<!-- Andy -->
<g id="node1" class="node">
<title>Andy</title>
<path fill="none" stroke="black" d="M12,-219C12,-219 95,-219 95,-219 101,-219 107,-225 107,-231 107,-231 107,-268 107,-268 107,-274 101,-280 95,-280 95,-280 12,-280 12,-280 6,-280 0,-274 0,-268 0,-268 0,-231 0,-231 0,-225 6,-219 12,-219"/>
<text text-anchor="start" x="8" y="-264.8" font-family="Times,serif" font-size="14.00">Swedish, Person</text>
<polyline fill="none" stroke="black" points="0,-257 107,-257"/>
<text text-anchor="start" x="27.5" y="-241.8" font-family="Times,serif" font-size="14.00">age = 36 </text>
<text text-anchor="start" x="11" y="-226.8" font-family="Times,serif" font-size="14.00"> name = &#39;Andy&#39;</text>
</g>
<!-- AndyDog -->
<g id="node4" class="node">
<title>AndyDog</title>
<path fill="none" stroke="black" d="M17,-98.5C17,-98.5 90,-98.5 90,-98.5 96,-98.5 102,-104.5 102,-110.5 102,-110.5 102,-132.5 102,-132.5 102,-138.5 96,-144.5 90,-144.5 90,-144.5 17,-144.5 17,-144.5 11,-144.5 5,-138.5 5,-132.5 5,-132.5 5,-110.5 5,-110.5 5,-104.5 11,-98.5 17,-98.5"/>
<text text-anchor="start" x="41.5" y="-129.3" font-family="Times,serif" font-size="14.00">Dog</text>
<polyline fill="none" stroke="black" points="5,-121.5 102,-121.5"/>
<text text-anchor="start" x="13" y="-106.3" font-family="Times,serif" font-size="14.00">name = &#39;Andy&#39;</text>
</g>
<!-- Andy&#45;&gt;AndyDog -->
<g id="edge1" class="edge">
<title>Andy&#45;&gt;AndyDog</title>
<path fill="none" stroke="black" d="M53.5,-219.28C53.5,-200.28 53.5,-175.48 53.5,-155.73"/>
<polygon fill="black" stroke="black" points="57,-156 53.5,-146 50,-156 57,-156"/>
<text text-anchor="middle" x="93" y="-181.8" font-family="Times,serif" font-size="14.00">HAS_DOG </text>
<text text-anchor="middle" x="93" y="-166.8" font-family="Times,serif" font-size="14.00"> &#160;since = 2016</text>
</g>
<!-- Timothy -->
<g id="node2" class="node">
<title>Timothy</title>
<path fill="none" stroke="black" d="M137.5,-211.5C137.5,-211.5 235.5,-211.5 235.5,-211.5 241.5,-211.5 247.5,-217.5 247.5,-223.5 247.5,-223.5 247.5,-275.5 247.5,-275.5 247.5,-281.5 241.5,-287.5 235.5,-287.5 235.5,-287.5 137.5,-287.5 137.5,-287.5 131.5,-287.5 125.5,-281.5 125.5,-275.5 125.5,-275.5 125.5,-223.5 125.5,-223.5 125.5,-217.5 131.5,-211.5 137.5,-211.5"/>
<text text-anchor="start" x="168" y="-272.3" font-family="Times,serif" font-size="14.00">Person</text>
<polyline fill="none" stroke="black" points="125.5,-264.5 247.5,-264.5"/>
<text text-anchor="start" x="160.5" y="-249.3" font-family="Times,serif" font-size="14.00">age = 25 </text>
<text text-anchor="start" x="133.5" y="-234.3" font-family="Times,serif" font-size="14.00"> name = &#39;Timothy&#39; </text>
<text text-anchor="start" x="136" y="-219.3" font-family="Times,serif" font-size="14.00"> nickname = &#39;Tim&#39;</text>
</g>
<!-- Mittens -->
<g id="node5" class="node">
<title>Mittens</title>
<path fill="none" stroke="black" d="M144,-98.5C144,-98.5 229,-98.5 229,-98.5 235,-98.5 241,-104.5 241,-110.5 241,-110.5 241,-132.5 241,-132.5 241,-138.5 235,-144.5 229,-144.5 229,-144.5 144,-144.5 144,-144.5 138,-144.5 132,-138.5 132,-132.5 132,-132.5 132,-110.5 132,-110.5 132,-104.5 138,-98.5 144,-98.5"/>
<text text-anchor="start" x="177" y="-129.3" font-family="Times,serif" font-size="14.00">Cat</text>
<polyline fill="none" stroke="black" points="132,-121.5 241,-121.5"/>
<text text-anchor="start" x="140" y="-106.3" font-family="Times,serif" font-size="14.00">name = &#39;Mittens&#39;</text>
</g>
<!-- Timothy&#45;&gt;Mittens -->
<g id="edge2" class="edge">
<title>Timothy&#45;&gt;Mittens</title>
<path fill="none" stroke="black" d="M186.5,-211.72C186.5,-193.98 186.5,-172.87 186.5,-155.63"/>
<polygon fill="black" stroke="black" points="190,-155.66 186.5,-145.66 183,-155.66 190,-155.66"/>
<text text-anchor="middle" x="226" y="-181.8" font-family="Times,serif" font-size="14.00">HAS_CAT </text>
<text text-anchor="middle" x="226" y="-166.8" font-family="Times,serif" font-size="14.00"> &#160;since = 2019</text>
</g>
<!-- Peter -->
<g id="node3" class="node">
<title>Peter</title>
<path fill="none" stroke="black" d="M320,-211.5C320,-211.5 413,-211.5 413,-211.5 419,-211.5 425,-217.5 425,-223.5 425,-223.5 425,-275.5 425,-275.5 425,-281.5 419,-287.5 413,-287.5 413,-287.5 320,-287.5 320,-287.5 314,-287.5 308,-281.5 308,-275.5 308,-275.5 308,-223.5 308,-223.5 308,-217.5 314,-211.5 320,-211.5"/>
<text text-anchor="start" x="348" y="-272.3" font-family="Times,serif" font-size="14.00">Person</text>
<polyline fill="none" stroke="black" points="308,-264.5 425,-264.5"/>
<text text-anchor="start" x="340.5" y="-249.3" font-family="Times,serif" font-size="14.00">age = 25 </text>
<text text-anchor="start" x="325.5" y="-234.3" font-family="Times,serif" font-size="14.00"> name = &#39;Peter&#39;</text>
<text text-anchor="start" x="316" y="-219.3" font-family="Times,serif" font-size="14.00"> nickname = &#39;Pete&#39;</text>
</g>
<!-- Ozzy -->
<g id="node6" class="node">
<title>Ozzy</title>
<path fill="none" stroke="black" d="M301,-98.5C301,-98.5 372,-98.5 372,-98.5 378,-98.5 384,-104.5 384,-110.5 384,-110.5 384,-132.5 384,-132.5 384,-138.5 378,-144.5 372,-144.5 372,-144.5 301,-144.5 301,-144.5 295,-144.5 289,-138.5 289,-132.5 289,-132.5 289,-110.5 289,-110.5 289,-104.5 295,-98.5 301,-98.5"/>
<text text-anchor="start" x="324.5" y="-129.3" font-family="Times,serif" font-size="14.00">Dog</text>
<polyline fill="none" stroke="black" points="289,-121.5 384,-121.5"/>
<text text-anchor="start" x="297" y="-106.3" font-family="Times,serif" font-size="14.00">name = &#39;Ozzy&#39;</text>
</g>
<!-- Peter&#45;&gt;Ozzy -->
<g id="edge3" class="edge">
<title>Peter&#45;&gt;Ozzy</title>
<path fill="none" stroke="black" d="M348.66,-211.76C346.24,-205.61 344.06,-199.21 342.5,-193 339.49,-181.03 337.92,-167.59 337.12,-155.68"/>
<polygon fill="black" stroke="black" points="340.62,-155.72 336.63,-145.91 333.63,-156.07 340.62,-155.72"/>
<text text-anchor="middle" x="382" y="-181.8" font-family="Times,serif" font-size="14.00">HAS_DOG </text>
<text text-anchor="middle" x="382" y="-166.8" font-family="Times,serif" font-size="14.00"> &#160;since = 2018</text>
</g>
<!-- Fido -->
<g id="node7" class="node">
<title>Fido</title>
<path fill="none" stroke="black" d="M414.5,-98.5C414.5,-98.5 482.5,-98.5 482.5,-98.5 488.5,-98.5 494.5,-104.5 494.5,-110.5 494.5,-110.5 494.5,-132.5 494.5,-132.5 494.5,-138.5 488.5,-144.5 482.5,-144.5 482.5,-144.5 414.5,-144.5 414.5,-144.5 408.5,-144.5 402.5,-138.5 402.5,-132.5 402.5,-132.5 402.5,-110.5 402.5,-110.5 402.5,-104.5 408.5,-98.5 414.5,-98.5"/>
<text text-anchor="start" x="436.5" y="-129.3" font-family="Times,serif" font-size="14.00">Dog</text>
<polyline fill="none" stroke="black" points="402.5,-121.5 494.5,-121.5"/>
<text text-anchor="start" x="410.5" y="-106.3" font-family="Times,serif" font-size="14.00">name = &#39;Fido&#39;</text>
</g>
<!-- Peter&#45;&gt;Fido -->
<g id="edge4" class="edge">
<title>Peter&#45;&gt;Fido</title>
<path fill="none" stroke="black" d="M406.93,-211.8C412.25,-205.85 417.31,-199.5 421.5,-193 428.96,-181.45 434.84,-167.53 439.18,-155.12"/>
<polygon fill="black" stroke="black" points="442.48,-156.29 442.26,-145.7 435.83,-154.11 442.48,-156.29"/>
<text text-anchor="middle" x="475" y="-181.8" font-family="Times,serif" font-size="14.00">HAS_DOG </text>
<text text-anchor="middle" x="475" y="-166.8" font-family="Times,serif" font-size="14.00"> &#160;since = 2010</text>
</g>
<!-- Banana -->
<g id="node8" class="node">
<title>Banana</title>
<path fill="none" stroke="black" d="M407,-0.5C407,-0.5 490,-0.5 490,-0.5 496,-0.5 502,-6.5 502,-12.5 502,-12.5 502,-34.5 502,-34.5 502,-40.5 496,-46.5 490,-46.5 490,-46.5 407,-46.5 407,-46.5 401,-46.5 395,-40.5 395,-34.5 395,-34.5 395,-12.5 395,-12.5 395,-6.5 401,-0.5 407,-0.5"/>
<text text-anchor="start" x="437.5" y="-31.3" font-family="Times,serif" font-size="14.00">Toy</text>
<polyline fill="none" stroke="black" points="395,-23.5 502,-23.5"/>
<text text-anchor="start" x="403" y="-8.3" font-family="Times,serif" font-size="14.00">name = &#39;Banana&#39;</text>
</g>
<!-- Fido&#45;&gt;Banana -->
<g id="edge5" class="edge">
<title>Fido&#45;&gt;Banana</title>
<path fill="none" stroke="#4e9a06" d="M448.5,-98.72C448.5,-86.56 448.5,-71.18 448.5,-57.57"/>
<polygon fill="#4e9a06" stroke="#4e9a06" points="452,-57.71 448.5,-47.71 445,-57.71 452,-57.71"/>
<text text-anchor="middle" x="483.5" y="-68.8" font-family="Times,serif" font-size="14.00" fill="#4e9a06"> &#160;HAS_TOY</text>
</g>
</g>
</svg>
