<?xml version="1.0" encoding="UTF-8" standalone="no"?>
<!DOCTYPE svg PUBLIC "-//W3C//DTD SVG 1.1//EN"
 "http://www.w3.org/Graphics/SVG/1.1/DTD/svg11.dtd">
<!-- Generated by graphviz version 2.49.3 (20211027.1534)
 -->
<!-- Title: L Pages: 1 -->
<svg width="440pt" height="302pt"
 viewBox="0.00 0.00 440.00 302.00" xmlns="http://www.w3.org/2000/svg" xmlns:xlink="http://www.w3.org/1999/xlink">
<g id="graph0" class="graph" transform="scale(1 1) rotate(0) translate(4 298)">
<title>L</title>
<polygon fill="white" stroke="transparent" points="-4,4 -4,-298 436,-298 436,4 -4,4"/>
<!-- N0 -->
<g id="node1" class="node">
<title>N0</title>
<path fill="none" stroke="black" d="M75.5,-233C75.5,-233 148.5,-233 148.5,-233 154.5,-233 160.5,-239 160.5,-245 160.5,-245 160.5,-274 160.5,-274 160.5,-280 154.5,-286 148.5,-286 148.5,-286 75.5,-286 75.5,-286 69.5,-286 63.5,-280 63.5,-274 63.5,-274 63.5,-245 63.5,-245 63.5,-239 69.5,-233 75.5,-233"/>
<text text-anchor="start" x="71.5" y="-270.8" font-family="Times,serif" font-size="14.00">name = &#39;Alice&#39;</text>
<text text-anchor="start" x="71.5" y="-255.8" font-family="Times,serif" font-size="14.00">age = 38</text>
<text text-anchor="start" x="71.5" y="-240.8" font-family="Times,serif" font-size="14.00">eyes = &#39;brown&#39;</text>
</g>
<!-- N2 -->
<g id="node2" class="node">
<title>N2</title>
<path fill="none" stroke="black" d="M12,-120.5C12,-120.5 96,-120.5 96,-120.5 102,-120.5 108,-126.5 108,-132.5 108,-132.5 108,-161.5 108,-161.5 108,-167.5 102,-173.5 96,-173.5 96,-173.5 12,-173.5 12,-173.5 6,-173.5 0,-167.5 0,-161.5 0,-161.5 0,-132.5 0,-132.5 0,-126.5 6,-120.5 12,-120.5"/>
<text text-anchor="start" x="8" y="-158.3" font-family="Times,serif" font-size="14.00">name = &#39;Charlie&#39;</text>
<text text-anchor="start" x="8" y="-143.3" font-family="Times,serif" font-size="14.00">age = 53</text>
<text text-anchor="start" x="8" y="-128.3" font-family="Times,serif" font-size="14.00">eyes = &#39;green&#39;</text>
</g>
<!-- N0&#45;&gt;N2 -->
<g id="edge1" class="edge">
<title>N0&#45;&gt;N2</title>
<path fill="none" stroke="#2e3436" d="M98.55,-232.87C90.77,-218.06 80.88,-199.2 72.39,-183.03"/>
<polygon fill="#2e3436" stroke="#2e3436" points="75.33,-181.1 67.58,-173.87 69.13,-184.35 75.33,-181.1"/>
<text text-anchor="middle" x="111" y="-195.8" font-family="Times,serif" font-size="14.00" fill="#2e3436">KNOWS</text>
</g>
<!-- N1 -->
<g id="node3" class="node">
<title>N1</title>
<path fill="none" stroke="black" d="M138,-120.5C138,-120.5 204,-120.5 204,-120.5 210,-120.5 216,-126.5 216,-132.5 216,-132.5 216,-161.5 216,-161.5 216,-167.5 210,-173.5 204,-173.5 204,-173.5 138,-173.5 138,-173.5 132,-173.5 126,-167.5 126,-161.5 126,-161.5 126,-132.5 126,-132.5 126,-126.5 132,-120.5 138,-120.5"/>
<text text-anchor="start" x="134" y="-158.3" font-family="Times,serif" font-size="14.00">name = &#39;Bob&#39;</text>
<text text-anchor="start" x="134" y="-143.3" font-family="Times,serif" font-size="14.00">age = 25</text>
<text text-anchor="start" x="134" y="-128.3" font-family="Times,serif" font-size="14.00">eyes = &#39;blue&#39;</text>
</g>
<!-- N0&#45;&gt;N1 -->
<g id="edge2" class="edge">
<title>N0&#45;&gt;N1</title>
<path fill="none" stroke="#2e3436" d="M125.68,-232.87C133.59,-218.06 143.66,-199.2 152.29,-183.03"/>
<polygon fill="#2e3436" stroke="#2e3436" points="155.56,-184.34 157.19,-173.87 149.39,-181.05 155.56,-184.34"/>
<text text-anchor="middle" x="173" y="-195.8" font-family="Times,serif" font-size="14.00" fill="#2e3436">KNOWS</text>
</g>
<!-- N3 -->
<g id="node4" class="node">
<title>N3</title>
<path fill="none" stroke="black" d="M12,-0.5C12,-0.5 96,-0.5 96,-0.5 102,-0.5 108,-6.5 108,-12.5 108,-12.5 108,-56.5 108,-56.5 108,-62.5 102,-68.5 96,-68.5 96,-68.5 12,-68.5 12,-68.5 6,-68.5 0,-62.5 0,-56.5 0,-56.5 0,-12.5 0,-12.5 0,-6.5 6,-0.5 12,-0.5"/>
<text text-anchor="start" x="8" y="-53.3" font-family="Times,serif" font-size="14.00">eyes = &#39;brown&#39;</text>
<text text-anchor="start" x="8" y="-38.3" font-family="Times,serif" font-size="14.00">liked_colors = []</text>
<text text-anchor="start" x="8" y="-23.3" font-family="Times,serif" font-size="14.00">name = &#39;Daniel&#39;</text>
<text text-anchor="start" x="8" y="-8.3" font-family="Times,serif" font-size="14.00">age = 54</text>
</g>
<!-- N2&#45;&gt;N3 -->
<g id="edge5" class="edge">
<title>N2&#45;&gt;N3</title>
<path fill="none" stroke="#2e3436" d="M54,-120.37C54,-107.96 54,-92.71 54,-78.58"/>
<polygon fill="#2e3436" stroke="#2e3436" points="57.5,-78.54 54,-68.54 50.5,-78.54 57.5,-78.54"/>
<text text-anchor="middle" x="80" y="-90.8" font-family="Times,serif" font-size="14.00" fill="#2e3436">KNOWS</text>
</g>
<!-- N1&#45;&gt;N3 -->
<g id="edge3" class="edge">
<title>N1&#45;&gt;N3</title>
<path fill="none" stroke="#2e3436" d="M144.72,-120.3C134.01,-109.9 121.47,-97.82 110,-87 106.04,-83.26 101.9,-79.39 97.74,-75.53"/>
<polygon fill="#2e3436" stroke="#2e3436" points="99.99,-72.84 90.27,-68.61 95.23,-77.97 99.99,-72.84"/>
<text text-anchor="middle" x="152" y="-90.8" font-family="Times,serif" font-size="14.00" fill="#2e3436">KNOWS</text>
</g>
<!-- N4 -->
<g id="node5" class="node">
<title>N4</title>
<path fill="none" stroke="black" d="M138,-0.5C138,-0.5 346,-0.5 346,-0.5 352,-0.5 358,-6.5 358,-12.5 358,-12.5 358,-56.5 358,-56.5 358,-62.5 352,-68.5 346,-68.5 346,-68.5 138,-68.5 138,-68.5 132,-68.5 126,-62.5 126,-56.5 126,-56.5 126,-12.5 126,-12.5 126,-6.5 132,-0.5 138,-0.5"/>
<text text-anchor="start" x="134" y="-53.3" font-family="Times,serif" font-size="14.00">eyes = &#39;blue&#39;</text>
<text text-anchor="start" x="134" y="-38.3" font-family="Times,serif" font-size="14.00">liked_colors = [&#39;pink&#39;, &#39;yellow&#39;, &#39;black&#39;]</text>
<text text-anchor="start" x="134" y="-23.3" font-family="Times,serif" font-size="14.00">name = &#39;Eskil&#39;</text>
<text text-anchor="start" x="134" y="-8.3" font-family="Times,serif" font-size="14.00">age = 41</text>
</g>
<!-- N1&#45;&gt;N4 -->
<g id="edge4" class="edge">
<title>N1&#45;&gt;N4</title>
<path fill="none" stroke="#4e9a06" d="M191.09,-120.33C195.49,-114.41 200.01,-108.06 204,-102 209.09,-94.25 214.23,-85.78 219.02,-77.57"/>
<polygon fill="#4e9a06" stroke="#4e9a06" points="222.11,-79.21 224.05,-68.8 216.03,-75.73 222.11,-79.21"/>
<text text-anchor="middle" x="244.5" y="-90.8" font-family="Times,serif" font-size="14.00" fill="#4e9a06">MARRIED</text>
</g>
<!-- N5 -->
<g id="node6" class="node">
<title>N5</title>
<path fill="none" stroke="black" d="M190.5,-225.5C190.5,-225.5 347.5,-225.5 347.5,-225.5 353.5,-225.5 359.5,-231.5 359.5,-237.5 359.5,-237.5 359.5,-281.5 359.5,-281.5 359.5,-287.5 353.5,-293.5 347.5,-293.5 347.5,-293.5 190.5,-293.5 190.5,-293.5 184.5,-293.5 178.5,-287.5 178.5,-281.5 178.5,-281.5 178.5,-237.5 178.5,-237.5 178.5,-231.5 184.5,-225.5 190.5,-225.5"/>
<text text-anchor="start" x="186.5" y="-278.3" font-family="Times,serif" font-size="14.00">eyes = &#39;&#39;</text>
<text text-anchor="start" x="186.5" y="-263.3" font-family="Times,serif" font-size="14.00">liked_colors = [&#39;blue&#39;, &#39;green&#39;]</text>
<text text-anchor="start" x="186.5" y="-248.3" font-family="Times,serif" font-size="14.00">alias = &#39;Frank&#39;</text>
<text text-anchor="start" x="186.5" y="-233.3" font-family="Times,serif" font-size="14.00">age = 61</text>
</g>
<!-- N6 -->
<g id="node7" class="node">
<title>N6</title>
<path fill="none" stroke="black" d="M390,-236.5C390,-236.5 420,-236.5 420,-236.5 426,-236.5 432,-242.5 432,-248.5 432,-248.5 432,-270.5 432,-270.5 432,-276.5 426,-282.5 420,-282.5 420,-282.5 390,-282.5 390,-282.5 384,-282.5 378,-276.5 378,-270.5 378,-270.5 378,-248.5 378,-248.5 378,-242.5 384,-236.5 390,-236.5"/>
<text text-anchor="middle" x="405" y="-267.3" font-family="Times,serif" font-size="14.00">Person</text>
<polyline fill="none" stroke="black" points="378,-259.5 432,-259.5 "/>
<text text-anchor="middle" x="405" y="-244.3" font-family="Times,serif" font-size="14.00"> </text>
</g>
</g>
</svg>
