<?xml version="1.0" encoding="UTF-8" standalone="no"?>
<!DOCTYPE svg PUBLIC "-//W3C//DTD SVG 1.1//EN"
 "http://www.w3.org/Graphics/SVG/1.1/DTD/svg11.dtd">
<!-- Generated by graphviz version 2.49.3 (20211027.1534)
 -->
<!-- Title: L Pages: 1 -->
<svg width="1063pt" height="168pt"
 viewBox="0.00 0.00 1062.50 168.00" xmlns="http://www.w3.org/2000/svg" xmlns:xlink="http://www.w3.org/1999/xlink">
<g id="graph0" class="graph" transform="scale(1 1) rotate(0) translate(4 164)">
<title>L</title>
<polygon fill="white" stroke="transparent" points="-4,4 -4,-164 1058.5,-164 1058.5,4 -4,4"/>
<!-- N0 -->
<g id="node1" class="node">
<title>N0</title>
<path fill="none" stroke="black" d="M346,-113.5C346,-113.5 467,-113.5 467,-113.5 473,-113.5 479,-119.5 479,-125.5 479,-125.5 479,-147.5 479,-147.5 479,-153.5 473,-159.5 467,-159.5 467,-159.5 346,-159.5 346,-159.5 340,-159.5 334,-153.5 334,-147.5 334,-147.5 334,-125.5 334,-125.5 334,-119.5 340,-113.5 346,-113.5"/>
<text text-anchor="middle" x="406.5" y="-144.3" font-family="Times,serif" font-size="14.00">Person</text>
<polyline fill="none" stroke="black" points="334,-136.5 479,-136.5 "/>
<text text-anchor="start" x="342" y="-121.3" font-family="Times,serif" font-size="14.00">name = &#39;Charlie Sheen&#39;</text>
</g>
<!-- N5 -->
<g id="node2" class="node">
<title>N5</title>
<path fill="none" stroke="black" d="M261,-0.5C261,-0.5 358,-0.5 358,-0.5 364,-0.5 370,-6.5 370,-12.5 370,-12.5 370,-34.5 370,-34.5 370,-40.5 364,-46.5 358,-46.5 358,-46.5 261,-46.5 261,-46.5 255,-46.5 249,-40.5 249,-34.5 249,-34.5 249,-12.5 249,-12.5 249,-6.5 255,-0.5 261,-0.5"/>
<text text-anchor="middle" x="309.5" y="-31.3" font-family="Times,serif" font-size="14.00">Movie</text>
<polyline fill="none" stroke="black" points="249,-23.5 370,-23.5 "/>
<text text-anchor="start" x="257" y="-8.3" font-family="Times,serif" font-size="14.00">title = &#39;Wall Street&#39;</text>
</g>
<!-- N0&#45;&gt;N5 -->
<g id="edge1" class="edge">
<title>N0&#45;&gt;N5</title>
<path fill="none" stroke="#2e3436" d="M395.05,-113.5C386.84,-98.87 374.89,-79.71 361.5,-65 357.79,-60.93 353.64,-56.96 349.34,-53.19"/>
<polygon fill="#2e3436" stroke="#2e3436" points="351.44,-50.38 341.52,-46.66 346.95,-55.75 351.44,-50.38"/>
<text text-anchor="middle" x="429" y="-83.8" font-family="Times,serif" font-size="14.00" fill="#2e3436">ACTED_IN</text>
<text text-anchor="start" x="383.5" y="-68.8" font-family="Times,serif" font-size="14.00" fill="#2e3436">role = &#39;Bud Fox&#39;</text>
</g>
<!-- N1 -->
<g id="node3" class="node">
<title>N1</title>
<path fill="none" stroke="black" d="M715,-113.5C715,-113.5 832,-113.5 832,-113.5 838,-113.5 844,-119.5 844,-125.5 844,-125.5 844,-147.5 844,-147.5 844,-153.5 838,-159.5 832,-159.5 832,-159.5 715,-159.5 715,-159.5 709,-159.5 703,-153.5 703,-147.5 703,-147.5 703,-125.5 703,-125.5 703,-119.5 709,-113.5 715,-113.5"/>
<text text-anchor="middle" x="773.5" y="-144.3" font-family="Times,serif" font-size="14.00">Person</text>
<polyline fill="none" stroke="black" points="703,-136.5 844,-136.5 "/>
<text text-anchor="start" x="711" y="-121.3" font-family="Times,serif" font-size="14.00">name = &#39;Martin Sheen&#39;</text>
</g>
<!-- N1&#45;&gt;N5 -->
<g id="edge3" class="edge">
<title>N1&#45;&gt;N5</title>
<path fill="none" stroke="#2e3436" d="M735.47,-113.31C727.73,-107.87 719.98,-101.67 713.5,-95 702.5,-83.68 707.91,-73.32 694.5,-65 643.61,-33.41 476.92,-26.18 380.38,-24.7"/>
<polygon fill="#2e3436" stroke="#2e3436" points="380.16,-21.19 370.11,-24.56 380.06,-28.19 380.16,-21.19"/>
<text text-anchor="middle" x="759.5" y="-83.8" font-family="Times,serif" font-size="14.00" fill="#2e3436">ACTED_IN</text>
<text text-anchor="start" x="713.5" y="-68.8" font-family="Times,serif" font-size="14.00" fill="#2e3436">role = &#39;Carl Fox&#39;</text>
</g>
<!-- N6 -->
<g id="node4" class="node">
<title>N6</title>
<path fill="none" stroke="black" d="M747.5,-0.5C747.5,-0.5 915.5,-0.5 915.5,-0.5 921.5,-0.5 927.5,-6.5 927.5,-12.5 927.5,-12.5 927.5,-34.5 927.5,-34.5 927.5,-40.5 921.5,-46.5 915.5,-46.5 915.5,-46.5 747.5,-46.5 747.5,-46.5 741.5,-46.5 735.5,-40.5 735.5,-34.5 735.5,-34.5 735.5,-12.5 735.5,-12.5 735.5,-6.5 741.5,-0.5 747.5,-0.5"/>
<text text-anchor="middle" x="831.5" y="-31.3" font-family="Times,serif" font-size="14.00">Movie</text>
<polyline fill="none" stroke="black" points="735.5,-23.5 927.5,-23.5 "/>
<text text-anchor="start" x="743.5" y="-8.3" font-family="Times,serif" font-size="14.00">title = &#39;The American President&#39;</text>
</g>
<!-- N1&#45;&gt;N6 -->
<g id="edge2" class="edge">
<title>N1&#45;&gt;N6</title>
<path fill="none" stroke="#2e3436" d="M796.27,-113.25C801.14,-107.64 805.89,-101.39 809.5,-95 816.16,-83.23 821.06,-69.19 824.53,-56.75"/>
<polygon fill="#2e3436" stroke="#2e3436" points="828,-57.32 827.11,-46.76 821.22,-55.57 828,-57.32"/>
<text text-anchor="middle" x="889" y="-83.8" font-family="Times,serif" font-size="14.00" fill="#2e3436">ACTED_IN</text>
<text text-anchor="start" x="821.5" y="-68.8" font-family="Times,serif" font-size="14.00" fill="#2e3436">role = &#39;A.J. MacInerney&#39;</text>
</g>
<!-- N2 -->
<g id="node5" class="node">
<title>N2</title>
<path fill="none" stroke="black" d="M167,-113.5C167,-113.5 304,-113.5 304,-113.5 310,-113.5 316,-119.5 316,-125.5 316,-125.5 316,-147.5 316,-147.5 316,-153.5 310,-159.5 304,-159.5 304,-159.5 167,-159.5 167,-159.5 161,-159.5 155,-153.5 155,-147.5 155,-147.5 155,-125.5 155,-125.5 155,-119.5 161,-113.5 167,-113.5"/>
<text text-anchor="middle" x="235.5" y="-144.3" font-family="Times,serif" font-size="14.00">Person</text>
<polyline fill="none" stroke="black" points="155,-136.5 316,-136.5 "/>
<text text-anchor="start" x="163" y="-121.3" font-family="Times,serif" font-size="14.00">name = &#39;Michael Douglas&#39;</text>
</g>
<!-- N2&#45;&gt;N5 -->
<g id="edge4" class="edge">
<title>N2&#45;&gt;N5</title>
<path fill="none" stroke="#2e3436" d="M230.37,-113.29C228.21,-98.57 227.89,-79.39 236.5,-65 239.18,-60.53 242.54,-56.51 246.35,-52.92"/>
<polygon fill="#2e3436" stroke="#2e3436" points="248.65,-55.56 254.15,-46.5 244.2,-50.15 248.65,-55.56"/>
<text text-anchor="middle" x="299" y="-83.8" font-family="Times,serif" font-size="14.00" fill="#2e3436">ACTED_IN</text>
<text text-anchor="start" x="236.5" y="-68.8" font-family="Times,serif" font-size="14.00" fill="#2e3436">role = &#39;Gordon Gekko&#39;</text>
</g>
<!-- N2&#45;&gt;N6 -->
<g id="edge5" class="edge">
<title>N2&#45;&gt;N6</title>
<path fill="none" stroke="#2e3436" d="M316.41,-114.57C319.13,-114.02 321.84,-113.49 324.5,-113 357.73,-106.85 446.91,-113.02 475.5,-95 488.85,-86.58 481.15,-73.42 494.5,-65 531.85,-41.43 641.02,-31.58 725.08,-27.46"/>
<polygon fill="#2e3436" stroke="#2e3436" points="725.38,-30.95 735.2,-26.98 725.05,-23.96 725.38,-30.95"/>
<text text-anchor="middle" x="592.5" y="-83.8" font-family="Times,serif" font-size="14.00" fill="#2e3436">ACTED_IN</text>
<text text-anchor="start" x="494.5" y="-68.8" font-family="Times,serif" font-size="14.00" fill="#2e3436">role = &#39;President Andrew Shepherd&#39;</text>
</g>
<!-- N3 -->
<g id="node6" class="node">
<title>N3</title>
<path fill="none" stroke="black" d="M12,-113.5C12,-113.5 125,-113.5 125,-113.5 131,-113.5 137,-119.5 137,-125.5 137,-125.5 137,-147.5 137,-147.5 137,-153.5 131,-159.5 125,-159.5 125,-159.5 12,-159.5 12,-159.5 6,-159.5 0,-153.5 0,-147.5 0,-147.5 0,-125.5 0,-125.5 0,-119.5 6,-113.5 12,-113.5"/>
<text text-anchor="middle" x="68.5" y="-144.3" font-family="Times,serif" font-size="14.00">Person</text>
<polyline fill="none" stroke="black" points="0,-136.5 137,-136.5 "/>
<text text-anchor="start" x="8" y="-121.3" font-family="Times,serif" font-size="14.00">name = &#39;Oliver Stone&#39;</text>
</g>
<!-- N3&#45;&gt;N5 -->
<g id="edge6" class="edge">
<title>N3&#45;&gt;N5</title>
<path fill="none" stroke="#4e9a06" d="M90.85,-113.48C107.84,-97.87 132.48,-77.56 157.5,-65 182.82,-52.29 212.58,-43.23 239.03,-36.95"/>
<polygon fill="#4e9a06" stroke="#4e9a06" points="240.01,-40.32 248.98,-34.68 238.46,-33.49 240.01,-40.32"/>
<text text-anchor="middle" x="191.5" y="-76.3" font-family="Times,serif" font-size="14.00" fill="#4e9a06">DIRECTED</text>
</g>
<!-- N4 -->
<g id="node7" class="node">
<title>N4</title>
<path fill="none" stroke="black" d="M936.5,-113.5C936.5,-113.5 1042.5,-113.5 1042.5,-113.5 1048.5,-113.5 1054.5,-119.5 1054.5,-125.5 1054.5,-125.5 1054.5,-147.5 1054.5,-147.5 1054.5,-153.5 1048.5,-159.5 1042.5,-159.5 1042.5,-159.5 936.5,-159.5 936.5,-159.5 930.5,-159.5 924.5,-153.5 924.5,-147.5 924.5,-147.5 924.5,-125.5 924.5,-125.5 924.5,-119.5 930.5,-113.5 936.5,-113.5"/>
<text text-anchor="middle" x="989.5" y="-144.3" font-family="Times,serif" font-size="14.00">Person</text>
<polyline fill="none" stroke="black" points="924.5,-136.5 1054.5,-136.5 "/>
<text text-anchor="start" x="932.5" y="-121.3" font-family="Times,serif" font-size="14.00">name = &#39;Rob Reiner&#39;</text>
</g>
<!-- N4&#45;&gt;N6 -->
<g id="edge7" class="edge">
<title>N4&#45;&gt;N6</title>
<path fill="none" stroke="#4e9a06" d="M985.53,-113.24C981.65,-97.72 974.25,-77.62 960.5,-65 953.44,-58.52 945.35,-53.08 936.74,-48.51"/>
<polygon fill="#4e9a06" stroke="#4e9a06" points="938.12,-45.29 927.6,-44.05 935.06,-51.58 938.12,-45.29"/>
<text text-anchor="middle" x="1012.5" y="-76.3" font-family="Times,serif" font-size="14.00" fill="#4e9a06">DIRECTED</text>
</g>
</g>
</svg>
