<?xml version="1.0" encoding="UTF-8" standalone="no"?>
<!DOCTYPE svg PUBLIC "-//W3C//DTD SVG 1.1//EN"
 "http://www.w3.org/Graphics/SVG/1.1/DTD/svg11.dtd">
<!-- Generated by graphviz version 2.49.3 (20211027.1534)
 -->
<!-- Title: L Pages: 1 -->
<svg width="185pt" height="213pt"
 viewBox="0.00 0.00 184.50 213.00" xmlns="http://www.w3.org/2000/svg" xmlns:xlink="http://www.w3.org/1999/xlink">
<g id="graph0" class="graph" transform="scale(1 1) rotate(0) translate(4 209)">
<title>L</title>
<polygon fill="white" stroke="transparent" points="-4,4 -4,-209 180.5,-209 180.5,4 -4,4"/>
<!-- N0 -->
<g id="node1" class="node">
<title>N0</title>
<path fill="none" stroke="black" d="M15.5,-128.5C15.5,-128.5 125.5,-128.5 125.5,-128.5 131.5,-128.5 137.5,-134.5 137.5,-140.5 137.5,-140.5 137.5,-192.5 137.5,-192.5 137.5,-198.5 131.5,-204.5 125.5,-204.5 125.5,-204.5 15.5,-204.5 15.5,-204.5 9.5,-204.5 3.5,-198.5 3.5,-192.5 3.5,-192.5 3.5,-140.5 3.5,-140.5 3.5,-134.5 9.5,-128.5 15.5,-128.5"/>
<text text-anchor="middle" x="70.5" y="-189.3" font-family="Times,serif" font-size="14.00">TrainStation</text>
<polyline fill="none" stroke="black" points="3.5,-181.5 137.5,-181.5 "/>
<text text-anchor="start" x="11.5" y="-166.3" font-family="Times,serif" font-size="14.00">latitude = 55.672874</text>
<text text-anchor="start" x="11.5" y="-151.3" font-family="Times,serif" font-size="14.00">longitude = 12.56459</text>
<text text-anchor="start" x="11.5" y="-136.3" font-family="Times,serif" font-size="14.00">city = &#39;Copenhagen&#39;</text>
</g>
<!-- N1 -->
<g id="node2" class="node">
<title>N1</title>
<path fill="none" stroke="black" d="M12,-0.5C12,-0.5 129,-0.5 129,-0.5 135,-0.5 141,-6.5 141,-12.5 141,-12.5 141,-64.5 141,-64.5 141,-70.5 135,-76.5 129,-76.5 129,-76.5 12,-76.5 12,-76.5 6,-76.5 0,-70.5 0,-64.5 0,-64.5 0,-12.5 0,-12.5 0,-6.5 6,-0.5 12,-0.5"/>
<text text-anchor="middle" x="70.5" y="-61.3" font-family="Times,serif" font-size="14.00">Office</text>
<polyline fill="none" stroke="black" points="0,-53.5 141,-53.5 "/>
<text text-anchor="start" x="8" y="-38.3" font-family="Times,serif" font-size="14.00">latitude = 55.611784</text>
<text text-anchor="start" x="8" y="-23.3" font-family="Times,serif" font-size="14.00">longitude = 12.994341</text>
<text text-anchor="start" x="8" y="-8.3" font-family="Times,serif" font-size="14.00">city = &#39;Malmo&#39;</text>
</g>
<!-- N0&#45;&gt;N1 -->
<g id="edge1" class="edge">
<title>N0&#45;&gt;N1</title>
<path fill="none" stroke="#2e3436" d="M70.5,-128.38C70.5,-115.42 70.5,-100.69 70.5,-87.01"/>
<polygon fill="#2e3436" stroke="#2e3436" points="74,-86.79 70.5,-76.79 67,-86.79 74,-86.79"/>
<text text-anchor="middle" x="123.5" y="-98.8" font-family="Times,serif" font-size="14.00" fill="#2e3436">TRAVEL_ROUTE</text>
</g>
</g>
</svg>
