<svg xmlns="http://www.w3.org/2000/svg" width="614" height="321" viewBox="0 0 614 321"><defs><style type="text/css"/></defs><g transform="translate(422.301439390568 -85.94717866949614) scale(1)"><g class="relationship"><g transform="translate(-76.97477831355795 139.94717866949614) rotate(120.00000000000001)" stroke-width="2" stroke="#000000"><path d="M 59 0 L 172.62905167379822 0"/><polygon points="-14.155129855222071,0 -15.727922061357857,5.242640687119286 0,0 -15.727922061357857,-5.242640687119286" fill="#000000" transform="translate(186.7841815290203 0) rotate(0)" stroke="none"/></g><g transform="translate(-134.88204123200754 240.24550017149997) rotate(300.00000000000006) translate(0 -13)"><g transform="translate(0 0)"><g transform="translate(-35.22265625 0)" fill="#ffffff" stroke="#000000" stroke-width="0"><rect x="0" y="0" width="70.4453125" height="26" rx="5" ry="5" stroke="none"/><text xml:space="preserve" x="5" y="17.45703125" stroke="none" text-anchor="left" font-family="sans-serif" font-size="16" font-weight="normal" fill="#000000">KNOWS</text></g></g></g></g><g class="relationship"><g transform="translate(-76.97477831355795 139.94717866949614) rotate(59.99999999999999)" stroke-width="2" stroke="#000000"><path d="M 59 0 L 172.62905167379827 0"/><polygon points="-14.155129855222071,0 -15.727922061357857,5.242640687119286 0,0 -15.727922061357857,-5.242640687119286" fill="#000000" transform="translate(186.78418152902034 0) rotate(0)" stroke="none"/></g><g transform="translate(-19.067515395108366 240.2455001715) rotate(59.99999999999999) translate(0 -13)"><g transform="translate(0 0)"><g transform="translate(-35.22265625 0)" fill="#ffffff" stroke="#000000" stroke-width="0"><rect x="0" y="0" width="70.4453125" height="26" rx="5" ry="5" stroke="none"/><text xml:space="preserve" x="5" y="17.45703125" stroke="none" text-anchor="left" font-family="sans-serif" font-size="16" font-weight="normal" fill="#000000">KNOWS</text></g></g></g></g><g class="node"><g fill="#ffffff" stroke="#006FD6" stroke-width="4"><circle cx="-76.97477831355795" cy="139.94717866949614" r="52"/></g><g transform="translate(-76.97477831355795 139.94717866949614)"><g transform="scale(0.5605889194302838) translate(0 -27)"><g transform="translate(0 0)"><g transform="translate(-75.595703125 0)"><g fill="#000000" stroke="#000000" stroke-width="4" font-family="sans-serif" font-size="40" font-weight="normal"><text xml:space="preserve" x="0" y="38.142578125" stroke="none">Swedish</text></g></g></g></g><g transform="translate(56 -23.4)"><g transform="translate(0 0)"><g transform="translate(0 0)" fill="white"><rect x="0" y="0" width="138.42333984375" height="46.8" rx="0" ry="0" stroke="none"/><g font-family="sans-serif" font-size="13" font-weight="normal" fill="#535B66" text-anchor="end"><text xml:space="preserve" x="96.60498046875" y="11.421337890625" stroke="none">name:</text><text xml:space="preserve" x="100.216796875" y="11.421337890625" stroke="none" text-anchor="start">'Andy'</text><text xml:space="preserve" x="96.60498046875" y="27.021337890625" stroke="none" text-anchor="end">age:</text><text xml:space="preserve" x="100.216796875" y="27.021337890625" stroke="none" text-anchor="start">36</text><text xml:space="preserve" x="96.60498046875" y="42.621337890625" stroke="none" text-anchor="end">propTestValue2:</text><text xml:space="preserve" x="100.216796875" y="42.621337890625" stroke="none" text-anchor="start">42</text></g></g></g></g></g></g><g class="node"><g fill="#ffffff" stroke="#006FD6" stroke-width="4"><circle cx="-199.86686907806805" cy="352.80252372199374" r="52"/></g><g transform="translate(-199.86686907806805 352.80252372199374)"><g transform="scale(0.4791541112232786) translate(0 -30.5)"><g transform="translate(0 0)"><g transform="translate(-88.824951171875 0)"><g fill="#000000" stroke="#000000" stroke-width="4" font-family="sans-serif" font-size="47" font-weight="normal"><text xml:space="preserve" x="0" y="43.592529296875" stroke="none">Swedish</text></g></g></g></g><g transform="translate(-56 -25.199999999999996)"><g transform="translate(0 0)"><g transform="translate(-166.4345703125 0)" fill="white"><rect x="0" y="0" width="166.4345703125" height="50.400000000000006" rx="0" ry="0" stroke="none"/><g font-family="sans-serif" font-size="14" font-weight="normal" fill="#535B66" text-anchor="end"><text xml:space="preserve" x="104.0361328125" y="12.29990234375" stroke="none">name:</text><text xml:space="preserve" x="107.92578125" y="12.29990234375" stroke="none" text-anchor="start">'Timothy'</text><text xml:space="preserve" x="104.0361328125" y="29.099902343750003" stroke="none" text-anchor="end">age:</text><text xml:space="preserve" x="107.92578125" y="29.099902343750003" stroke="none" text-anchor="start">25</text><text xml:space="preserve" x="104.0361328125" y="45.89990234375" stroke="none" text-anchor="end">propTestValue2:</text><text xml:space="preserve" x="107.92578125" y="45.89990234375" stroke="none" text-anchor="start">42</text></g></g></g></g></g></g><g class="node"><g fill="#ffffff" stroke="#006FD6" stroke-width="4"><circle cx="45.91731245095225" cy="352.80252372199374" r="52"/></g><g transform="translate(45.91731245095225 352.80252372199374)"><g transform="scale(0.4132290301287214) translate(0 -63)"><g transform="translate(0 0)"><g transform="translate(-88.824951171875 0)"><g fill="#000000" stroke="#000000" stroke-width="4" font-family="sans-serif" font-size="47" font-weight="normal"><text xml:space="preserve" x="0" y="43.592529296875" stroke="none">Swedish</text></g></g><g transform="translate(-84.88916015625 69)"><g fill="#000000" stroke="#000000" stroke-width="4" font-family="sans-serif" font-size="47" font-weight="normal"><text xml:space="preserve" x="0" y="43.592529296875" stroke="none">German</text></g></g></g></g><g transform="translate(56 -16.8)"><g transform="translate(0 0)"><g transform="translate(0 0)" fill="white"><rect x="0" y="0" width="89.38671875" height="33.6" rx="0" ry="0" stroke="none"/><g font-family="sans-serif" font-size="14" font-weight="normal" fill="#535B66" text-anchor="end"><text xml:space="preserve" x="42.7998046875" y="12.29990234375" stroke="none">name:</text><text xml:space="preserve" x="46.689453125" y="12.29990234375" stroke="none" text-anchor="start">'Peter'</text><text xml:space="preserve" x="42.7998046875" y="29.099902343750003" stroke="none" text-anchor="end">age:</text><text xml:space="preserve" x="46.689453125" y="29.099902343750003" stroke="none" text-anchor="start">34</text></g></g></g></g></g></g></g></svg>