<svg xmlns="http://www.w3.org/2000/svg" width="946" height="670" viewBox="0 0 946 670"><defs><style type="text/css"/></defs><g transform="translate(36.33618546526011 78.2) scale(1)"><g class="relationship"><g transform="translate(447.2268381639442 533.3315650064678) rotate(180)" stroke-width="2" stroke="#000000"><path d="M 58 0 L 246.07170830872212 0"/><polygon points="-14.155129855222071,0 -15.727922061357857,5.242640687119286 0,0 -15.727922061357857,-5.242640687119286" fill="#000000" transform="translate(260.2268381639442 0) rotate(0)" stroke="none"/></g><g transform="translate(295.19098400958313 533.3315650064678) rotate(360) translate(0 -13)"><g transform="translate(0 0)"><g transform="translate(-45.890625 0)" fill="#ffffff" stroke="#000000" stroke-width="0"><rect x="0" y="0" width="91.78125" height="26" rx="5" ry="5" stroke="none"/><text xml:space="preserve" x="5" y="17.45703125" stroke="none" text-anchor="left" font-family="sans-serif" font-size="16" font-weight="normal" fill="#000000">DIRECTED</text></g></g></g></g><g class="relationship"><g transform="translate(129 -4) rotate(90)" stroke-width="2" stroke="#000000"><path d="M 58 0 L 465.17643515124576 0"/><polygon points="-14.155129855222071,0 -15.727922061357857,5.242640687119286 0,0 -15.727922061357857,-5.242640687119286" fill="#000000" transform="translate(479.3315650064678 0) rotate(0)" stroke="none"/></g><g transform="translate(129.00000000000003 257.5882175756229) rotate(270) translate(0 -22.6)"><g transform="translate(0 0)"><g transform="translate(-44.5625 0)" fill="#ffffff" stroke="#000000" stroke-width="0"><rect x="0" y="0" width="89.125" height="26" rx="5" ry="5" stroke="none"/><text xml:space="preserve" x="5" y="17.45703125" stroke="none" text-anchor="left" font-family="sans-serif" font-size="16" font-weight="normal" fill="#000000">ACTED_IN</text></g></g><g transform="translate(0 26)"><g transform="translate(-77.3125 0)" fill="white"><rect x="0" y="0" width="154.625" height="19.2" rx="0" ry="0" stroke="none"/><g font-family="sans-serif" font-size="16" font-weight="normal" fill="#717780" text-anchor="end"><text xml:space="preserve" x="35.5703125" y="14.05703125" stroke="none">role:</text><text xml:space="preserve" x="40.015625" y="14.05703125" stroke="none" text-anchor="start">'Gordon Gekko'</text></g></g></g></g></g><g class="relationship"><g transform="translate(386.3040830573809 252.97284235243478) rotate(132.5446974362422)" stroke-width="2" stroke="#000000"><path d="M 58 0 L 308.379237221131 0"/><polygon points="-14.155129855222071,0 -15.727922061357857,5.242640687119286 0,0 -15.727922061357857,-5.242640687119286" fill="#000000" transform="translate(322.5343670763531 0) rotate(0)" stroke="none"/></g><g transform="translate(262.43764438493037 387.9378072036453) rotate(312.54469743624213) translate(0 -22.6)"><g transform="translate(0 0)"><g transform="translate(-44.5625 0)" fill="#ffffff" stroke="#000000" stroke-width="0"><rect x="0" y="0" width="89.125" height="26" rx="5" ry="5" stroke="none"/><text xml:space="preserve" x="5" y="17.45703125" stroke="none" text-anchor="left" font-family="sans-serif" font-size="16" font-weight="normal" fill="#000000">ACTED_IN</text></g></g><g transform="translate(0 26)"><g transform="translate(-55.51171875 0)" fill="white"><rect x="0" y="0" width="111.0234375" height="19.2" rx="0" ry="0" stroke="none"/><g font-family="sans-serif" font-size="16" font-weight="normal" fill="#717780" text-anchor="end"><text xml:space="preserve" x="35.5703125" y="14.05703125" stroke="none">role:</text><text xml:space="preserve" x="40.015625" y="14.05703125" stroke="none" text-anchor="start">'Carl Fox'</text></g></g></g></g></g><g class="relationship"><g transform="translate(129 -4) rotate(0)" stroke-width="2" stroke="#000000"><path d="M 58 0 L 420.9902387744843 0"/><polygon points="-14.155129855222071,0 -15.727922061357857,5.242640687119286 0,0 -15.727922061357857,-5.242640687119286" fill="#000000" transform="translate(435.14536862970635 0) rotate(0)" stroke="none"/></g><g transform="translate(368.49511938724214 -4) rotate(0) translate(0 -22.6)"><g transform="translate(0 0)"><g transform="translate(-44.5625 0)" fill="#ffffff" stroke="#000000" stroke-width="0"><rect x="0" y="0" width="89.125" height="26" rx="5" ry="5" stroke="none"/><text xml:space="preserve" x="5" y="17.45703125" stroke="none" text-anchor="left" font-family="sans-serif" font-size="16" font-weight="normal" fill="#000000">ACTED_IN</text></g></g><g transform="translate(0 26)"><g transform="translate(-125.34765625 0)" fill="white"><rect x="0" y="0" width="250.6953125" height="19.2" rx="0" ry="0" stroke="none"/><g font-family="sans-serif" font-size="16" font-weight="normal" fill="#717780" text-anchor="end"><text xml:space="preserve" x="35.5703125" y="14.05703125" stroke="none">role:</text><text xml:space="preserve" x="40.015625" y="14.05703125" stroke="none" text-anchor="start">'President Andrew Shepherd'</text></g></g></g></g></g><g class="relationship"><g transform="translate(386.3040830573809 252.97284235243478) rotate(-47.45530256375779)" stroke-width="2" stroke="#000000"><path d="M 58 0 L 276.63729220565995 0"/><polygon points="-14.155129855222071,0 -15.727922061357857,5.242640687119286 0,0 -15.727922061357857,-5.242640687119286" fill="#000000" transform="translate(290.792422060882 0) rotate(0)" stroke="none"/></g><g transform="translate(499.43912298730373 129.70081765202343) rotate(-47.45530256375779) translate(0 -22.6)"><g transform="translate(0 0)"><g transform="translate(-44.5625 0)" fill="#ffffff" stroke="#000000" stroke-width="0"><rect x="0" y="0" width="89.125" height="26" rx="5" ry="5" stroke="none"/><text xml:space="preserve" x="5" y="17.45703125" stroke="none" text-anchor="left" font-family="sans-serif" font-size="16" font-weight="normal" fill="#000000">ACTED_IN</text></g></g><g transform="translate(0 26)"><g transform="translate(-83.0859375 0)" fill="white"><rect x="0" y="0" width="166.171875" height="19.2" rx="0" ry="0" stroke="none"/><g font-family="sans-serif" font-size="16" font-weight="normal" fill="#717780" text-anchor="end"><text xml:space="preserve" x="35.5703125" y="14.05703125" stroke="none">role:</text><text xml:space="preserve" x="40.015625" y="14.05703125" stroke="none" text-anchor="start">'A.J. MacInerney'</text></g></g></g></g></g><g class="relationship"><g transform="translate(480.7010450358903 388.0291925306892) rotate(157.55243862127924)" stroke-width="2" stroke="#000000"><path d="M 58 0 L 308.37923722142875 0"/><polygon points="-14.155129855222071,0 -15.727922061357857,5.242640687119286 0,0 -15.727922061357857,-5.242640687119286" fill="#000000" transform="translate(322.5343670766508 0) rotate(0)" stroke="none"/></g><g transform="translate(311.39181601653934 457.97789756239064) rotate(337.5524386212792) translate(0 -22.6)"><g transform="translate(0 0)"><g transform="translate(-44.5625 0)" fill="#ffffff" stroke="#000000" stroke-width="0"><rect x="0" y="0" width="89.125" height="26" rx="5" ry="5" stroke="none"/><text xml:space="preserve" x="5" y="17.45703125" stroke="none" text-anchor="left" font-family="sans-serif" font-size="16" font-weight="normal" fill="#000000">ACTED_IN</text></g></g><g transform="translate(0 26)"><g transform="translate(-55.078125 0)" fill="white"><rect x="0" y="0" width="110.15625" height="19.2" rx="0" ry="0" stroke="none"/><g font-family="sans-serif" font-size="16" font-weight="normal" fill="#717780" text-anchor="end"><text xml:space="preserve" x="35.5703125" y="14.05703125" stroke="none">role:</text><text xml:space="preserve" x="40.015625" y="14.05703125" stroke="none" text-anchor="start">'Bud Fox'</text></g></g></g></g></g><g class="relationship"><g transform="translate(836.4624634091533 252.97284235243478) rotate(-129.82833567206862)" stroke-width="2" stroke="#000000"><path d="M 58 0 L 262.45936298899375 0"/><polygon points="-14.155129855222071,0 -15.727922061357857,5.242640687119286 0,0 -15.727922061357857,-5.242640687119286" fill="#000000" transform="translate(276.6144928442158 0) rotate(0)" stroke="none"/></g><g transform="translate(733.8370225818664 129.92175651068794) rotate(50.171664327931396) translate(0 -13)"><g transform="translate(0 0)"><g transform="translate(-45.890625 0)" fill="#ffffff" stroke="#000000" stroke-width="0"><rect x="0" y="0" width="91.78125" height="26" rx="5" ry="5" stroke="none"/><text xml:space="preserve" x="5" y="17.45703125" stroke="none" text-anchor="left" font-family="sans-serif" font-size="16" font-weight="normal" fill="#000000">DIRECTED</text></g></g></g></g><g class="relationship"><g transform="translate(836.4624634091533 252.97284235243478) rotate(159.21192679189357)" stroke-width="2" stroke="#000000"><path d="M 58 0 L 308.3792372214287 0"/><polygon points="-14.155129855222071,0 -15.727922061357857,5.242640687119286 0,0 -15.727922061357857,-5.242640687119286" fill="#000000" transform="translate(322.53436707665077 0) rotate(0)" stroke="none"/></g><g transform="translate(665.1985666713396 317.98910217194793) rotate(339.2119267918935) translate(0 -13)"><g transform="translate(0 0)"><g transform="translate(-111.98828125 0)" fill="#ffffff" stroke="#000000" stroke-width="0"><rect x="0" y="0" width="223.9765625" height="26" rx="5" ry="5" stroke="none"/><text xml:space="preserve" x="5" y="17.45703125" stroke="none" text-anchor="left" font-family="sans-serif" font-size="16" font-weight="normal" fill="#000000">TYPE INCLUDUNG A SPACE</text></g></g></g></g><g class="node"><g fill="#ffffff" stroke="#018BFF" stroke-width="3"><circle cx="447.2268381639442" cy="533.3315650064678" r="51.5"/></g><g transform="translate(447.2268381639442 533.3315650064678)"><g transform="scale(0.6532967767358133) translate(0 -27)"><g transform="translate(0 0)"><g transform="translate(-63.369140625 0)"><g fill="#000000" stroke="#000000" stroke-width="4" font-family="sans-serif" font-size="40" font-weight="normal"><text xml:space="preserve" x="0" y="38.142578125" stroke="none">Person</text></g></g></g></g><g transform="translate(55 -9.6)"><g transform="translate(0 0)"><g transform="translate(0 0)" fill="white"><rect x="0" y="0" width="151.953125" height="19.2" rx="0" ry="0" stroke="none"/><g font-family="sans-serif" font-size="16" font-weight="normal" fill="#717780" text-anchor="end"><text xml:space="preserve" x="48.9140625" y="14.05703125" stroke="none">name:</text><text xml:space="preserve" x="53.359375" y="14.05703125" stroke="none" text-anchor="start">'Oliver Stone'</text></g></g></g></g></g></g><g class="node"><g fill="#ffffff" stroke="#018BFF" stroke-width="3"><circle cx="129" cy="533.3315650064678" r="51.5"/></g><g transform="translate(129 533.3315650064678)"><g transform="scale(0.7525987763434394) translate(0 -27)"><g transform="translate(0 0)"><g transform="translate(-53.349609375 0)"><g fill="#000000" stroke="#000000" stroke-width="4" font-family="sans-serif" font-size="40" font-weight="normal"><text xml:space="preserve" x="0" y="38.142578125" stroke="none">Movie</text></g></g></g></g><g transform="translate(-38.89087296526011 38.890872965260115)"><g transform="translate(0 0)"><g transform="translate(-126.4453125 0)" fill="white"><rect x="0" y="0" width="126.4453125" height="19.2" rx="0" ry="0" stroke="none"/><g font-family="sans-serif" font-size="16" font-weight="normal" fill="#717780" text-anchor="end"><text xml:space="preserve" x="33.7890625" y="14.05703125" stroke="none">title:</text><text xml:space="preserve" x="38.234375" y="14.05703125" stroke="none" text-anchor="start">'Wall Street'</text></g></g></g></g></g></g><g class="node"><g fill="#ffffff" stroke="#018BFF" stroke-width="3"><circle cx="129" cy="-4" r="51.5"/></g><g transform="translate(129 -4)"><g transform="scale(0.6532967767358133) translate(0 -27)"><g transform="translate(0 0)"><g transform="translate(-63.369140625 0)"><g fill="#000000" stroke="#000000" stroke-width="4" font-family="sans-serif" font-size="40" font-weight="normal"><text xml:space="preserve" x="0" y="38.142578125" stroke="none">Person</text></g></g></g></g><g transform="translate(3.3677786976552213e-15 -74.2)"><g transform="translate(0 0)"><g transform="translate(-91.09765625 0)" fill="white"><rect x="0" y="0" width="182.1953125" height="19.2" rx="0" ry="0" stroke="none"/><g font-family="sans-serif" font-size="16" font-weight="normal" fill="#717780" text-anchor="end"><text xml:space="preserve" x="48.9140625" y="14.05703125" stroke="none">name:</text><text xml:space="preserve" x="53.359375" y="14.05703125" stroke="none" text-anchor="start">'Michael Douglas'</text></g></g></g></g></g></g><g class="node"><g fill="#ffffff" stroke="#018BFF" stroke-width="3"><circle cx="386.3040830573809" cy="252.97284235243478" r="51.5"/></g><g transform="translate(386.3040830573809 252.97284235243478)"><g transform="scale(0.6532967767358133) translate(0 -27)"><g transform="translate(0 0)"><g transform="translate(-63.369140625 0)"><g fill="#000000" stroke="#000000" stroke-width="4" font-family="sans-serif" font-size="40" font-weight="normal"><text xml:space="preserve" x="0" y="38.142578125" stroke="none">Person</text></g></g></g></g><g transform="translate(-38.89087296526011 -58.09087296526012)"><g transform="translate(0 0)"><g transform="translate(-159.078125 0)" fill="white"><rect x="0" y="0" width="159.078125" height="19.2" rx="0" ry="0" stroke="none"/><g font-family="sans-serif" font-size="16" font-weight="normal" fill="#717780" text-anchor="end"><text xml:space="preserve" x="48.9140625" y="14.05703125" stroke="none">name:</text><text xml:space="preserve" x="53.359375" y="14.05703125" stroke="none" text-anchor="start">'Martin Sheen'</text></g></g></g></g></g></g><g class="node"><g fill="#ffffff" stroke="#018BFF" stroke-width="3"><circle cx="622.1453686297064" cy="-4" r="51.5"/></g><g transform="translate(622.1453686297064 -4)"><g transform="scale(0.7525987763434394) translate(0 -27)"><g transform="translate(0 0)"><g transform="translate(-53.349609375 0)"><g fill="#000000" stroke="#000000" stroke-width="4" font-family="sans-serif" font-size="40" font-weight="normal"><text xml:space="preserve" x="0" y="38.142578125" stroke="none">Movie</text></g></g></g></g><g transform="translate(3.3677786976552213e-15 -74.2)"><g transform="translate(0 0)"><g transform="translate(-110.2109375 0)" fill="white"><rect x="0" y="0" width="220.421875" height="19.2" rx="0" ry="0" stroke="none"/><g font-family="sans-serif" font-size="16" font-weight="normal" fill="#717780" text-anchor="end"><text xml:space="preserve" x="33.7890625" y="14.05703125" stroke="none">title:</text><text xml:space="preserve" x="38.234375" y="14.05703125" stroke="none" text-anchor="start">'The American President'</text></g></g></g></g></g></g><g class="node"><g fill="#ffffff" stroke="#018BFF" stroke-width="3"><circle cx="480.7010450358903" cy="388.0291925306892" r="51.5"/></g><g transform="translate(480.7010450358903 388.0291925306892)"><g transform="scale(0.6532967767358133) translate(0 -27)"><g transform="translate(0 0)"><g transform="translate(-63.369140625 0)"><g fill="#000000" stroke="#000000" stroke-width="4" font-family="sans-serif" font-size="40" font-weight="normal"><text xml:space="preserve" x="0" y="38.142578125" stroke="none">Person</text></g></g></g></g><g transform="translate(3.3677786976552213e-15 55)"><g transform="translate(0 0)"><g transform="translate(-82.65625 0)" fill="white"><rect x="0" y="0" width="165.3125" height="19.2" rx="0" ry="0" stroke="none"/><g font-family="sans-serif" font-size="16" font-weight="normal" fill="#717780" text-anchor="end"><text xml:space="preserve" x="48.9140625" y="14.05703125" stroke="none">name:</text><text xml:space="preserve" x="53.359375" y="14.05703125" stroke="none" text-anchor="start">'Charlie Sheen'</text></g></g></g></g></g></g><g class="node"><g fill="#ffffff" stroke="#018BFF" stroke-width="3"><circle cx="836.4624634091533" cy="252.97284235243478" r="51.5"/></g><g transform="translate(836.4624634091533 252.97284235243478)"><g transform="scale(0.6532967767358133) translate(0 -27)"><g transform="translate(0 0)"><g transform="translate(-63.369140625 0)"><g fill="#000000" stroke="#000000" stroke-width="4" font-family="sans-serif" font-size="40" font-weight="normal"><text xml:space="preserve" x="0" y="38.142578125" stroke="none">Person</text></g></g></g></g><g transform="translate(3.3677786976552213e-15 55)"><g transform="translate(0 0)"><g transform="translate(-72.421875 0)" fill="white"><rect x="0" y="0" width="144.84375" height="19.2" rx="0" ry="0" stroke="none"/><g font-family="sans-serif" font-size="16" font-weight="normal" fill="#717780" text-anchor="end"><text xml:space="preserve" x="48.9140625" y="14.05703125" stroke="none">name:</text><text xml:space="preserve" x="53.359375" y="14.05703125" stroke="none" text-anchor="start">'Rob Reiner'</text></g></g></g></g></g></g></g></svg>