<svg xmlns="http://www.w3.org/2000/svg" width="695" height="686" viewBox="0 0 695 686"><defs><style type="text/css"/></defs><g transform="translate(16.097656249999996 24.200000000000003) scale(1)"><g class="relationship"><g transform="translate(455.5343670763177 587.3315650064678) rotate(180)" stroke-width="2" stroke="#535B66"><path d="M 58 0 L 308.37923722109565 0"/><polygon points="-14.155129855222071,0 -15.727922061357857,5.242640687119286 0,0 -15.727922061357857,-5.242640687119286" fill="#535B66" transform="translate(322.5343670763177 0) rotate(0)" stroke="none"/></g><g transform="translate(272.3447484657699 587.3315650064678) rotate(360) translate(0 -13)"><g transform="translate(0 0)"><g transform="translate(-45.890625 0)" fill="#ffffff" stroke="#000000" stroke-width="0"><rect x="0" y="0" width="91.78125" height="26" rx="5" ry="5" stroke="none"/><text xml:space="preserve" x="5" y="17.45703125" stroke="none" text-anchor="left" font-family="sans-serif" font-size="16" font-weight="normal" fill="#000000">DIRECTED</text></g></g></g></g><g class="relationship"><g transform="translate(75 50) rotate(90)" stroke-width="2" stroke="#535B66"><path d="M 58 0 L 465.17643515124576 0"/><polygon points="-14.155129855222071,0 -15.727922061357857,5.242640687119286 0,0 -15.727922061357857,-5.242640687119286" fill="#535B66" transform="translate(479.3315650064678 0) rotate(0)" stroke="none"/></g><g transform="translate(75.00000000000001 311.5882175756229) rotate(270) translate(0 -22.6)"><g transform="translate(0 0)"><g transform="translate(-44.5625 0)" fill="#ffffff" stroke="#000000" stroke-width="0"><rect x="0" y="0" width="89.125" height="26" rx="5" ry="5" stroke="none"/><text xml:space="preserve" x="5" y="17.45703125" stroke="none" text-anchor="left" font-family="sans-serif" font-size="16" font-weight="normal" fill="#000000">ACTED_IN</text></g></g><g transform="translate(0 26)"><g transform="translate(-77.3125 0)" fill="white"><rect x="0" y="0" width="154.625" height="19.2" rx="0" ry="0" stroke="none"/><g font-family="sans-serif" font-size="16" font-weight="normal" fill="#535B66" text-anchor="end"><text xml:space="preserve" x="35.5703125" y="14.05703125" stroke="none">role:</text><text xml:space="preserve" x="40.015625" y="14.05703125" stroke="none" text-anchor="start">'Gordon Gekko'</text></g></g></g></g></g><g class="relationship"><g transform="translate(193.58098759221045 225.74484801047697) rotate(108.1567070089425)" stroke-width="2" stroke="#535B66"><path d="M 58 0 L 308.3792372212389 0"/><polygon points="-14.155129855222071,0 -15.727922061357857,5.242640687119286 0,0 -15.727922061357857,-5.242640687119286" fill="#535B66" transform="translate(322.53436707646097 0) rotate(0)" stroke="none"/></g><g transform="translate(136.4959835270642 399.8130492351304) rotate(288.15670700894253) translate(0 -22.6)"><g transform="translate(0 0)"><g transform="translate(-44.5625 0)" fill="#ffffff" stroke="#000000" stroke-width="0"><rect x="0" y="0" width="89.125" height="26" rx="5" ry="5" stroke="none"/><text xml:space="preserve" x="5" y="17.45703125" stroke="none" text-anchor="left" font-family="sans-serif" font-size="16" font-weight="normal" fill="#000000">ACTED_IN</text></g></g><g transform="translate(0 26)"><g transform="translate(-55.51171875 0)" fill="white"><rect x="0" y="0" width="111.0234375" height="19.2" rx="0" ry="0" stroke="none"/><g font-family="sans-serif" font-size="16" font-weight="normal" fill="#535B66" text-anchor="end"><text xml:space="preserve" x="35.5703125" y="14.05703125" stroke="none">role:</text><text xml:space="preserve" x="40.015625" y="14.05703125" stroke="none" text-anchor="start">'Carl Fox'</text></g></g></g></g></g><g class="relationship"><g transform="translate(75 50) rotate(0)" stroke-width="2" stroke="#535B66"><path d="M 58 0 L 420.9902387744843 0"/><polygon points="-14.155129855222071,0 -15.727922061357857,5.242640687119286 0,0 -15.727922061357857,-5.242640687119286" fill="#535B66" transform="translate(435.14536862970635 0) rotate(0)" stroke="none"/></g><g transform="translate(314.49511938724214 50) rotate(0) translate(0 -22.6)"><g transform="translate(0 0)"><g transform="translate(-44.5625 0)" fill="#ffffff" stroke="#000000" stroke-width="0"><rect x="0" y="0" width="89.125" height="26" rx="5" ry="5" stroke="none"/><text xml:space="preserve" x="5" y="17.45703125" stroke="none" text-anchor="left" font-family="sans-serif" font-size="16" font-weight="normal" fill="#000000">ACTED_IN</text></g></g><g transform="translate(0 26)"><g transform="translate(-125.34765625 0)" fill="white"><rect x="0" y="0" width="250.6953125" height="19.2" rx="0" ry="0" stroke="none"/><g font-family="sans-serif" font-size="16" font-weight="normal" fill="#535B66" text-anchor="end"><text xml:space="preserve" x="35.5703125" y="14.05703125" stroke="none">role:</text><text xml:space="preserve" x="40.015625" y="14.05703125" stroke="none" text-anchor="start">'President Andrew Shepherd'</text></g></g></g></g></g><g class="relationship"><g transform="translate(193.58098759221045 225.74484801047697) rotate(-25.13587443165774)" stroke-width="2" stroke="#535B66"><path d="M 58 0 L 341.58963101097675 0"/><polygon points="-14.155129855222071,0 -15.727922061357857,5.242640687119286 0,0 -15.727922061357857,-5.242640687119286" fill="#535B66" transform="translate(355.7447608661988 0) rotate(0)" stroke="none"/></g><g transform="translate(374.4558372160228 140.87873535981183) rotate(-25.13587443165774) translate(0 -22.6)"><g transform="translate(0 0)"><g transform="translate(-44.5625 0)" fill="#ffffff" stroke="#000000" stroke-width="0"><rect x="0" y="0" width="89.125" height="26" rx="5" ry="5" stroke="none"/><text xml:space="preserve" x="5" y="17.45703125" stroke="none" text-anchor="left" font-family="sans-serif" font-size="16" font-weight="normal" fill="#000000">ACTED_IN</text></g></g><g transform="translate(0 26)"><g transform="translate(-83.0859375 0)" fill="white"><rect x="0" y="0" width="166.171875" height="19.2" rx="0" ry="0" stroke="none"/><g font-family="sans-serif" font-size="16" font-weight="normal" fill="#535B66" text-anchor="end"><text xml:space="preserve" x="35.5703125" y="14.05703125" stroke="none">role:</text><text xml:space="preserve" x="40.015625" y="14.05703125" stroke="none" text-anchor="start">'A.J. MacInerney'</text></g></g></g></g></g><g class="relationship"><g transform="translate(423.3672278779595 434.2084803101734) rotate(156.2723487181233)" stroke-width="2" stroke="#535B66"><path d="M 58 0 L 308.3792372212389 0"/><polygon points="-14.155129855222071,0 -15.727922061357857,5.242640687119286 0,0 -15.727922061357857,-5.242640687119286" fill="#535B66" transform="translate(322.53436707646097 0) rotate(0)" stroke="none"/></g><g transform="translate(255.66290171763842 507.92208389741404) rotate(336.27234871812334) translate(0 -22.6)"><g transform="translate(0 0)"><g transform="translate(-44.5625 0)" fill="#ffffff" stroke="#000000" stroke-width="0"><rect x="0" y="0" width="89.125" height="26" rx="5" ry="5" stroke="none"/><text xml:space="preserve" x="5" y="17.45703125" stroke="none" text-anchor="left" font-family="sans-serif" font-size="16" font-weight="normal" fill="#000000">ACTED_IN</text></g></g><g transform="translate(0 26)"><g transform="translate(-55.078125 0)" fill="white"><rect x="0" y="0" width="110.15625" height="19.2" rx="0" ry="0" stroke="none"/><g font-family="sans-serif" font-size="16" font-weight="normal" fill="#535B66" text-anchor="end"><text xml:space="preserve" x="35.5703125" y="14.05703125" stroke="none">role:</text><text xml:space="preserve" x="40.015625" y="14.05703125" stroke="none" text-anchor="start">'Bud Fox'</text></g></g></g></g></g><g class="relationship"><g transform="translate(568.1453686297064 341.770991544674) rotate(-90)" stroke-width="2" stroke="#535B66"><path d="M 58 0 L 219.61586168945195 0"/><polygon points="-14.155129855222071,0 -15.727922061357857,5.242640687119286 0,0 -15.727922061357857,-5.242640687119286" fill="#535B66" transform="translate(233.77099154467402 0) rotate(0)" stroke="none"/></g><g transform="translate(568.1453686297064 202.96306069994804) rotate(90) translate(0 -13)"><g transform="translate(0 0)"><g transform="translate(-45.890625 0)" fill="#ffffff" stroke="#000000" stroke-width="0"><rect x="0" y="0" width="91.78125" height="26" rx="5" ry="5" stroke="none"/><text xml:space="preserve" x="5" y="17.45703125" stroke="none" text-anchor="left" font-family="sans-serif" font-size="16" font-weight="normal" fill="#000000">DIRECTED</text></g></g></g></g><g class="relationship"><g transform="translate(193.58098759221045 225.74484801047697) rotate(42.2145278635329)" stroke-width="2" stroke="#535B66"><path d="M 58 0 L 238.10089702619575 0"/><polygon points="-14.155129855222071,0 -15.727922061357857,5.242640687119286 0,0 -15.727922061357857,-5.242640687119286" fill="#535B66" transform="translate(252.25602688141782 0) rotate(0)" stroke="none"/></g><g transform="translate(303.2322207314987 325.2211887954239) rotate(42.2145278635329) translate(0 -13)"><g transform="translate(0 0)"><g transform="translate(-51.53125 0)" fill="#ffffff" stroke="#000000" stroke-width="0"><rect x="0" y="0" width="103.0625" height="26" rx="5" ry="5" stroke="none"/><text xml:space="preserve" x="5" y="17.45703125" stroke="none" text-anchor="left" font-family="sans-serif" font-size="16" font-weight="normal" fill="#000000">FATHER_OF</text></g></g></g></g><g class="node"><g fill="#ffffff" stroke="#006FD6" stroke-width="3"><circle cx="455.5343670763177" cy="587.3315650064678" r="51.5"/></g><g transform="translate(455.5343670763177 587.3315650064678)"><g transform="scale(0.6532967767358133) translate(0 -27)"><g transform="translate(0 0)"><g transform="translate(-63.369140625 0)"><g fill="#000000" stroke="#000000" stroke-width="4" font-family="sans-serif" font-size="40" font-weight="normal"><text xml:space="preserve" x="0" y="38.142578125" stroke="none">Person</text></g></g></g></g><g transform="translate(3.3677786976552213e-15 55)"><g transform="translate(0 0)"><g transform="translate(-75.9765625 0)" fill="white"><rect x="0" y="0" width="151.953125" height="19.2" rx="0" ry="0" stroke="none"/><g font-family="sans-serif" font-size="16" font-weight="normal" fill="#535B66" text-anchor="end"><text xml:space="preserve" x="48.9140625" y="14.05703125" stroke="none">name:</text><text xml:space="preserve" x="53.359375" y="14.05703125" stroke="none" text-anchor="start">'Oliver Stone'</text></g></g></g></g></g></g><g class="node"><g fill="#ffffff" stroke="#006FD6" stroke-width="3"><circle cx="75" cy="587.3315650064678" r="51.5"/></g><g transform="translate(75 587.3315650064678)"><g transform="scale(0.7525987763434394) translate(0 -27)"><g transform="translate(0 0)"><g transform="translate(-53.349609375 0)"><g fill="#000000" stroke="#000000" stroke-width="4" font-family="sans-serif" font-size="40" font-weight="normal"><text xml:space="preserve" x="0" y="38.142578125" stroke="none">Movie</text></g></g></g></g><g transform="translate(3.3677786976552213e-15 55)"><g transform="translate(0 0)"><g transform="translate(-63.22265625 0)" fill="white"><rect x="0" y="0" width="126.4453125" height="19.2" rx="0" ry="0" stroke="none"/><g font-family="sans-serif" font-size="16" font-weight="normal" fill="#535B66" text-anchor="end"><text xml:space="preserve" x="33.7890625" y="14.05703125" stroke="none">title:</text><text xml:space="preserve" x="38.234375" y="14.05703125" stroke="none" text-anchor="start">'Wall Street'</text></g></g></g></g></g></g><g class="node"><g fill="#ffffff" stroke="#006FD6" stroke-width="3"><circle cx="75" cy="50" r="51.5"/></g><g transform="translate(75 50)"><g transform="scale(0.6532967767358133) translate(0 -27)"><g transform="translate(0 0)"><g transform="translate(-63.369140625 0)"><g fill="#000000" stroke="#000000" stroke-width="4" font-family="sans-serif" font-size="40" font-weight="normal"><text xml:space="preserve" x="0" y="38.142578125" stroke="none">Person</text></g></g></g></g><g transform="translate(3.3677786976552213e-15 -74.2)"><g transform="translate(0 0)"><g transform="translate(-91.09765625 0)" fill="white"><rect x="0" y="0" width="182.1953125" height="19.2" rx="0" ry="0" stroke="none"/><g font-family="sans-serif" font-size="16" font-weight="normal" fill="#535B66" text-anchor="end"><text xml:space="preserve" x="48.9140625" y="14.05703125" stroke="none">name:</text><text xml:space="preserve" x="53.359375" y="14.05703125" stroke="none" text-anchor="start">'Michael Douglas'</text></g></g></g></g></g></g><g class="node"><g fill="#ffffff" stroke="#006FD6" stroke-width="3"><circle cx="193.58098759221045" cy="225.74484801047697" r="51.5"/></g><g transform="translate(193.58098759221045 225.74484801047697)"><g transform="scale(0.6532967767358133) translate(0 -27)"><g transform="translate(0 0)"><g transform="translate(-63.369140625 0)"><g fill="#000000" stroke="#000000" stroke-width="4" font-family="sans-serif" font-size="40" font-weight="normal"><text xml:space="preserve" x="0" y="38.142578125" stroke="none">Person</text></g></g></g></g><g transform="translate(3.3677786976552213e-15 -74.2)"><g transform="translate(0 0)"><g transform="translate(-79.5390625 0)" fill="white"><rect x="0" y="0" width="159.078125" height="19.2" rx="0" ry="0" stroke="none"/><g font-family="sans-serif" font-size="16" font-weight="normal" fill="#535B66" text-anchor="end"><text xml:space="preserve" x="48.9140625" y="14.05703125" stroke="none">name:</text><text xml:space="preserve" x="53.359375" y="14.05703125" stroke="none" text-anchor="start">'Martin Sheen'</text></g></g></g></g></g></g><g class="node"><g fill="#ffffff" stroke="#006FD6" stroke-width="3"><circle cx="568.1453686297064" cy="50" r="51.5"/></g><g transform="translate(568.1453686297064 50)"><g transform="scale(0.7525987763434394) translate(0 -27)"><g transform="translate(0 0)"><g transform="translate(-53.349609375 0)"><g fill="#000000" stroke="#000000" stroke-width="4" font-family="sans-serif" font-size="40" font-weight="normal"><text xml:space="preserve" x="0" y="38.142578125" stroke="none">Movie</text></g></g></g></g><g transform="translate(3.3677786976552213e-15 -74.2)"><g transform="translate(0 0)"><g transform="translate(-110.2109375 0)" fill="white"><rect x="0" y="0" width="220.421875" height="19.2" rx="0" ry="0" stroke="none"/><g font-family="sans-serif" font-size="16" font-weight="normal" fill="#535B66" text-anchor="end"><text xml:space="preserve" x="33.7890625" y="14.05703125" stroke="none">title:</text><text xml:space="preserve" x="38.234375" y="14.05703125" stroke="none" text-anchor="start">'The American President'</text></g></g></g></g></g></g><g class="node"><g fill="#ffffff" stroke="#006FD6" stroke-width="3"><circle cx="423.3672278779595" cy="434.2084803101734" r="51.5"/></g><g transform="translate(423.3672278779595 434.2084803101734)"><g transform="scale(0.6532967767358133) translate(0 -27)"><g transform="translate(0 0)"><g transform="translate(-63.369140625 0)"><g fill="#000000" stroke="#000000" stroke-width="4" font-family="sans-serif" font-size="40" font-weight="normal"><text xml:space="preserve" x="0" y="38.142578125" stroke="none">Person</text></g></g></g></g><g transform="translate(3.3677786976552213e-15 55)"><g transform="translate(0 0)"><g transform="translate(-82.65625 0)" fill="white"><rect x="0" y="0" width="165.3125" height="19.2" rx="0" ry="0" stroke="none"/><g font-family="sans-serif" font-size="16" font-weight="normal" fill="#535B66" text-anchor="end"><text xml:space="preserve" x="48.9140625" y="14.05703125" stroke="none">name:</text><text xml:space="preserve" x="53.359375" y="14.05703125" stroke="none" text-anchor="start">'Charlie Sheen'</text></g></g></g></g></g></g><g class="node"><g fill="#ffffff" stroke="#006FD6" stroke-width="3"><circle cx="568.1453686297064" cy="341.770991544674" r="51.5"/></g><g transform="translate(568.1453686297064 341.770991544674)"><g transform="scale(0.6532967767358133) translate(0 -27)"><g transform="translate(0 0)"><g transform="translate(-63.369140625 0)"><g fill="#000000" stroke="#000000" stroke-width="4" font-family="sans-serif" font-size="40" font-weight="normal"><text xml:space="preserve" x="0" y="38.142578125" stroke="none">Person</text></g></g></g></g><g transform="translate(3.3677786976552213e-15 55)"><g transform="translate(0 0)"><g transform="translate(-72.421875 0)" fill="white"><rect x="0" y="0" width="144.84375" height="19.2" rx="0" ry="0" stroke="none"/><g font-family="sans-serif" font-size="16" font-weight="normal" fill="#535B66" text-anchor="end"><text xml:space="preserve" x="48.9140625" y="14.05703125" stroke="none">name:</text><text xml:space="preserve" x="53.359375" y="14.05703125" stroke="none" text-anchor="start">'Rob Reiner'</text></g></g></g></g></g></g></g></svg>