<?xml version="1.0" encoding="UTF-8" standalone="no"?>
<!DOCTYPE svg PUBLIC "-//W3C//DTD SVG 1.1//EN"
 "http://www.w3.org/Graphics/SVG/1.1/DTD/svg11.dtd">
<!-- Generated by graphviz version 2.49.3 (20211027.1534)
 -->
<!-- Title: L Pages: 1 -->
<svg width="1350pt" height="168pt"
 viewBox="0.00 0.00 1349.67 168.00" xmlns="http://www.w3.org/2000/svg" xmlns:xlink="http://www.w3.org/1999/xlink">
<g id="graph0" class="graph" transform="scale(1 1) rotate(0) translate(4 164)">
<title>L</title>
<polygon fill="white" stroke="transparent" points="-4,4 -4,-164 1345.67,-164 1345.67,4 -4,4"/>
<!-- N0 -->
<g id="node1" class="node">
<title>N0</title>
<path fill="none" stroke="black" d="M52.17,-113.5C52.17,-113.5 173.17,-113.5 173.17,-113.5 179.17,-113.5 185.17,-119.5 185.17,-125.5 185.17,-125.5 185.17,-147.5 185.17,-147.5 185.17,-153.5 179.17,-159.5 173.17,-159.5 173.17,-159.5 52.17,-159.5 52.17,-159.5 46.17,-159.5 40.17,-153.5 40.17,-147.5 40.17,-147.5 40.17,-125.5 40.17,-125.5 40.17,-119.5 46.17,-113.5 52.17,-113.5"/>
<text text-anchor="middle" x="112.67" y="-144.3" font-family="Times,serif" font-size="14.00">Person</text>
<polyline fill="none" stroke="black" points="40.17,-136.5 185.17,-136.5 "/>
<text text-anchor="start" x="48.17" y="-121.3" font-family="Times,serif" font-size="14.00">name = &#39;Charlie Sheen&#39;</text>
</g>
<!-- N7 -->
<g id="node2" class="node">
<title>N7</title>
<path fill="none" stroke="black" d="M71.67,-0.5C71.67,-0.5 149.67,-0.5 149.67,-0.5 155.67,-0.5 161.67,-6.5 161.67,-12.5 161.67,-12.5 161.67,-34.5 161.67,-34.5 161.67,-40.5 155.67,-46.5 149.67,-46.5 149.67,-46.5 71.67,-46.5 71.67,-46.5 65.67,-46.5 59.67,-40.5 59.67,-34.5 59.67,-34.5 59.67,-12.5 59.67,-12.5 59.67,-6.5 65.67,-0.5 71.67,-0.5"/>
<text text-anchor="middle" x="110.67" y="-31.3" font-family="Times,serif" font-size="14.00">UNBLOCKED</text>
<polyline fill="none" stroke="black" points="59.67,-23.5 161.67,-23.5 "/>
<text text-anchor="middle" x="110.67" y="-8.3" font-family="Times,serif" font-size="14.00"> </text>
</g>
<!-- N0&#45;&gt;N7 -->
<g id="edge1" class="edge">
<title>N0&#45;&gt;N7</title>
<path fill="none" stroke="#2e3436" d="M39.99,-121.53C26.49,-115.58 14.03,-107.09 5.67,-95 -1.9,-84.03 -1.87,-75.99 5.67,-65 15.93,-50.05 32.55,-40.62 49.56,-34.67"/>
<polygon fill="#2e3436" stroke="#2e3436" points="51.08,-37.86 59.59,-31.55 49,-31.18 51.08,-37.86"/>
<text text-anchor="middle" x="48.17" y="-83.8" font-family="Times,serif" font-size="14.00" fill="#2e3436">X</text>
<text text-anchor="start" x="5.67" y="-68.8" font-family="Times,serif" font-size="14.00" fill="#2e3436">blocked = false</text>
</g>
<!-- N8 -->
<g id="node3" class="node">
<title>N8</title>
<path fill="none" stroke="black" d="M377.67,-0.5C377.67,-0.5 435.67,-0.5 435.67,-0.5 441.67,-0.5 447.67,-6.5 447.67,-12.5 447.67,-12.5 447.67,-34.5 447.67,-34.5 447.67,-40.5 441.67,-46.5 435.67,-46.5 435.67,-46.5 377.67,-46.5 377.67,-46.5 371.67,-46.5 365.67,-40.5 365.67,-34.5 365.67,-34.5 365.67,-12.5 365.67,-12.5 365.67,-6.5 371.67,-0.5 377.67,-0.5"/>
<text text-anchor="middle" x="406.67" y="-31.3" font-family="Times,serif" font-size="14.00">BLOCKED</text>
<polyline fill="none" stroke="black" points="365.67,-23.5 447.67,-23.5 "/>
<text text-anchor="middle" x="406.67" y="-8.3" font-family="Times,serif" font-size="14.00"> </text>
</g>
<!-- N0&#45;&gt;N8 -->
<g id="edge2" class="edge">
<title>N0&#45;&gt;N8</title>
<path fill="none" stroke="#2e3436" d="M106.18,-113.43C103.1,-98.01 102.24,-77.93 113.67,-65 129.4,-47.21 275.33,-33.99 355.12,-28.02"/>
<polygon fill="#2e3436" stroke="#2e3436" points="355.74,-31.48 365.45,-27.26 355.22,-24.5 355.74,-31.48"/>
<text text-anchor="middle" x="153.67" y="-83.8" font-family="Times,serif" font-size="14.00" fill="#2e3436">X</text>
<text text-anchor="start" x="113.67" y="-68.8" font-family="Times,serif" font-size="14.00" fill="#2e3436">blocked = true</text>
</g>
<!-- N5 -->
<g id="node4" class="node">
<title>N5</title>
<path fill="none" stroke="black" d="M528.17,-0.5C528.17,-0.5 625.17,-0.5 625.17,-0.5 631.17,-0.5 637.17,-6.5 637.17,-12.5 637.17,-12.5 637.17,-34.5 637.17,-34.5 637.17,-40.5 631.17,-46.5 625.17,-46.5 625.17,-46.5 528.17,-46.5 528.17,-46.5 522.17,-46.5 516.17,-40.5 516.17,-34.5 516.17,-34.5 516.17,-12.5 516.17,-12.5 516.17,-6.5 522.17,-0.5 528.17,-0.5"/>
<text text-anchor="middle" x="576.67" y="-31.3" font-family="Times,serif" font-size="14.00">Movie</text>
<polyline fill="none" stroke="black" points="516.17,-23.5 637.17,-23.5 "/>
<text text-anchor="start" x="524.17" y="-8.3" font-family="Times,serif" font-size="14.00">title = &#39;Wall Street&#39;</text>
</g>
<!-- N0&#45;&gt;N5 -->
<g id="edge3" class="edge">
<title>N0&#45;&gt;N5</title>
<path fill="none" stroke="#4e9a06" d="M185.45,-130.29C222.19,-125.16 266.35,-115.02 301.67,-95 317.54,-86.01 313.5,-73.43 329.67,-65 380.23,-38.66 400.42,-56.26 456.67,-47 472.7,-44.36 489.87,-41.29 506.08,-38.28"/>
<polygon fill="#4e9a06" stroke="#4e9a06" points="506.84,-41.7 516.03,-36.41 505.55,-34.82 506.84,-41.7"/>
<text text-anchor="middle" x="375.17" y="-83.8" font-family="Times,serif" font-size="14.00" fill="#4e9a06">ACTED_IN</text>
<text text-anchor="start" x="329.67" y="-68.8" font-family="Times,serif" font-size="14.00" fill="#4e9a06">role = &#39;Bud Fox&#39;</text>
</g>
<!-- N1 -->
<g id="node5" class="node">
<title>N1</title>
<path fill="none" stroke="black" d="M412.17,-113.5C412.17,-113.5 529.17,-113.5 529.17,-113.5 535.17,-113.5 541.17,-119.5 541.17,-125.5 541.17,-125.5 541.17,-147.5 541.17,-147.5 541.17,-153.5 535.17,-159.5 529.17,-159.5 529.17,-159.5 412.17,-159.5 412.17,-159.5 406.17,-159.5 400.17,-153.5 400.17,-147.5 400.17,-147.5 400.17,-125.5 400.17,-125.5 400.17,-119.5 406.17,-113.5 412.17,-113.5"/>
<text text-anchor="middle" x="470.67" y="-144.3" font-family="Times,serif" font-size="14.00">Person</text>
<polyline fill="none" stroke="black" points="400.17,-136.5 541.17,-136.5 "/>
<text text-anchor="start" x="408.17" y="-121.3" font-family="Times,serif" font-size="14.00">name = &#39;Martin Sheen&#39;</text>
</g>
<!-- N1&#45;&gt;N7 -->
<g id="edge5" class="edge">
<title>N1&#45;&gt;N7</title>
<path fill="none" stroke="#2e3436" d="M399.91,-130.09C335.78,-124.15 246.83,-112.97 216.67,-95 202.24,-86.4 206.68,-75.63 193.67,-65 186.82,-59.4 179.06,-54.33 171.11,-49.82"/>
<polygon fill="#2e3436" stroke="#2e3436" points="172.55,-46.62 162.08,-44.97 169.23,-52.79 172.55,-46.62"/>
<text text-anchor="middle" x="259.17" y="-83.8" font-family="Times,serif" font-size="14.00" fill="#2e3436">X</text>
<text text-anchor="start" x="216.67" y="-68.8" font-family="Times,serif" font-size="14.00" fill="#2e3436">blocked = false</text>
</g>
<!-- N1&#45;&gt;N8 -->
<g id="edge4" class="edge">
<title>N1&#45;&gt;N8</title>
<path fill="none" stroke="#2e3436" d="M451.72,-113.5C447.16,-107.68 442.5,-101.27 438.67,-95 431.28,-82.86 424.53,-68.73 419.16,-56.31"/>
<polygon fill="#2e3436" stroke="#2e3436" points="422.26,-54.66 415.16,-46.79 415.81,-57.37 422.26,-54.66"/>
<text text-anchor="middle" x="481.17" y="-83.8" font-family="Times,serif" font-size="14.00" fill="#2e3436">X</text>
<text text-anchor="start" x="438.67" y="-68.8" font-family="Times,serif" font-size="14.00" fill="#2e3436">blocked = false</text>
</g>
<!-- N1&#45;&gt;N5 -->
<g id="edge7" class="edge">
<title>N1&#45;&gt;N5</title>
<path fill="none" stroke="#4e9a06" d="M503.34,-113.43C510.46,-107.86 517.65,-101.58 523.67,-95 534.33,-83.36 533.36,-77.74 542.67,-65 545.17,-61.58 547.88,-58.08 550.63,-54.64"/>
<polygon fill="#4e9a06" stroke="#4e9a06" points="553.44,-56.73 557.06,-46.77 548.02,-52.3 553.44,-56.73"/>
<text text-anchor="middle" x="588.67" y="-83.8" font-family="Times,serif" font-size="14.00" fill="#4e9a06">ACTED_IN</text>
<text text-anchor="start" x="542.67" y="-68.8" font-family="Times,serif" font-size="14.00" fill="#4e9a06">role = &#39;Carl Fox&#39;</text>
</g>
<!-- N6 -->
<g id="node6" class="node">
<title>N6</title>
<path fill="none" stroke="black" d="M973.67,-0.5C973.67,-0.5 1141.67,-0.5 1141.67,-0.5 1147.67,-0.5 1153.67,-6.5 1153.67,-12.5 1153.67,-12.5 1153.67,-34.5 1153.67,-34.5 1153.67,-40.5 1147.67,-46.5 1141.67,-46.5 1141.67,-46.5 973.67,-46.5 973.67,-46.5 967.67,-46.5 961.67,-40.5 961.67,-34.5 961.67,-34.5 961.67,-12.5 961.67,-12.5 961.67,-6.5 967.67,-0.5 973.67,-0.5"/>
<text text-anchor="middle" x="1057.67" y="-31.3" font-family="Times,serif" font-size="14.00">Movie</text>
<polyline fill="none" stroke="black" points="961.67,-23.5 1153.67,-23.5 "/>
<text text-anchor="start" x="969.67" y="-8.3" font-family="Times,serif" font-size="14.00">title = &#39;The American President&#39;</text>
</g>
<!-- N1&#45;&gt;N6 -->
<g id="edge6" class="edge">
<title>N1&#45;&gt;N6</title>
<path fill="none" stroke="#4e9a06" d="M541.37,-120.64C555.35,-117.92 569.95,-115.24 583.67,-113 646.03,-102.83 669.59,-125.92 724.67,-95 739.56,-86.64 733.8,-73.38 748.67,-65 782.62,-45.87 876.18,-35.45 951.53,-29.99"/>
<polygon fill="#4e9a06" stroke="#4e9a06" points="951.83,-33.47 961.56,-29.28 951.34,-26.49 951.83,-33.47"/>
<text text-anchor="middle" x="816.17" y="-83.8" font-family="Times,serif" font-size="14.00" fill="#4e9a06">ACTED_IN</text>
<text text-anchor="start" x="748.67" y="-68.8" font-family="Times,serif" font-size="14.00" fill="#4e9a06">role = &#39;A.J. MacInerney&#39;</text>
</g>
<!-- N2 -->
<g id="node7" class="node">
<title>N2</title>
<path fill="none" stroke="black" d="M915.17,-113.5C915.17,-113.5 1052.17,-113.5 1052.17,-113.5 1058.17,-113.5 1064.17,-119.5 1064.17,-125.5 1064.17,-125.5 1064.17,-147.5 1064.17,-147.5 1064.17,-153.5 1058.17,-159.5 1052.17,-159.5 1052.17,-159.5 915.17,-159.5 915.17,-159.5 909.17,-159.5 903.17,-153.5 903.17,-147.5 903.17,-147.5 903.17,-125.5 903.17,-125.5 903.17,-119.5 909.17,-113.5 915.17,-113.5"/>
<text text-anchor="middle" x="983.67" y="-144.3" font-family="Times,serif" font-size="14.00">Person</text>
<polyline fill="none" stroke="black" points="903.17,-136.5 1064.17,-136.5 "/>
<text text-anchor="start" x="911.17" y="-121.3" font-family="Times,serif" font-size="14.00">name = &#39;Michael Douglas&#39;</text>
</g>
<!-- N2&#45;&gt;N5 -->
<g id="edge8" class="edge">
<title>N2&#45;&gt;N5</title>
<path fill="none" stroke="#4e9a06" d="M932.3,-113.32C923.19,-108.09 914.22,-101.97 906.67,-95 895.08,-84.3 900.98,-73.49 887.67,-65 849.07,-40.37 726.94,-30.62 647.71,-26.83"/>
<polygon fill="#4e9a06" stroke="#4e9a06" points="647.46,-23.32 637.31,-26.36 647.14,-30.31 647.46,-23.32"/>
<text text-anchor="middle" x="969.17" y="-83.8" font-family="Times,serif" font-size="14.00" fill="#4e9a06">ACTED_IN</text>
<text text-anchor="start" x="906.67" y="-68.8" font-family="Times,serif" font-size="14.00" fill="#4e9a06">role = &#39;Gordon Gekko&#39;</text>
</g>
<!-- N2&#45;&gt;N6 -->
<g id="edge9" class="edge">
<title>N2&#45;&gt;N6</title>
<path fill="none" stroke="#4e9a06" d="M1018.38,-113.31C1024.82,-107.94 1030.98,-101.77 1035.67,-95 1043.57,-83.61 1048.72,-69.26 1052.03,-56.49"/>
<polygon fill="#4e9a06" stroke="#4e9a06" points="1055.46,-57.21 1054.32,-46.68 1048.64,-55.62 1055.46,-57.21"/>
<text text-anchor="middle" x="1146.67" y="-83.8" font-family="Times,serif" font-size="14.00" fill="#4e9a06">ACTED_IN</text>
<text text-anchor="start" x="1048.67" y="-68.8" font-family="Times,serif" font-size="14.00" fill="#4e9a06">role = &#39;President Andrew Shepherd&#39;</text>
</g>
<!-- N3 -->
<g id="node8" class="node">
<title>N3</title>
<path fill="none" stroke="black" d="M604.17,-113.5C604.17,-113.5 717.17,-113.5 717.17,-113.5 723.17,-113.5 729.17,-119.5 729.17,-125.5 729.17,-125.5 729.17,-147.5 729.17,-147.5 729.17,-153.5 723.17,-159.5 717.17,-159.5 717.17,-159.5 604.17,-159.5 604.17,-159.5 598.17,-159.5 592.17,-153.5 592.17,-147.5 592.17,-147.5 592.17,-125.5 592.17,-125.5 592.17,-119.5 598.17,-113.5 604.17,-113.5"/>
<text text-anchor="middle" x="660.67" y="-144.3" font-family="Times,serif" font-size="14.00">Person</text>
<polyline fill="none" stroke="black" points="592.17,-136.5 729.17,-136.5 "/>
<text text-anchor="start" x="600.17" y="-121.3" font-family="Times,serif" font-size="14.00">name = &#39;Oliver Stone&#39;</text>
</g>
<!-- N3&#45;&gt;N5 -->
<g id="edge10" class="edge">
<title>N3&#45;&gt;N5</title>
<path fill="none" stroke="#a40000" d="M657.76,-113.37C654.9,-98.5 649.35,-79.11 638.67,-65 635.38,-60.64 631.47,-56.61 627.24,-52.93"/>
<polygon fill="#a40000" stroke="#a40000" points="629.35,-50.14 619.34,-46.66 625,-55.62 629.35,-50.14"/>
<text text-anchor="middle" x="686.67" y="-76.3" font-family="Times,serif" font-size="14.00" fill="#a40000">DIRECTED</text>
</g>
<!-- N4 -->
<g id="node9" class="node">
<title>N4</title>
<path fill="none" stroke="black" d="M1223.67,-113.5C1223.67,-113.5 1329.67,-113.5 1329.67,-113.5 1335.67,-113.5 1341.67,-119.5 1341.67,-125.5 1341.67,-125.5 1341.67,-147.5 1341.67,-147.5 1341.67,-153.5 1335.67,-159.5 1329.67,-159.5 1329.67,-159.5 1223.67,-159.5 1223.67,-159.5 1217.67,-159.5 1211.67,-153.5 1211.67,-147.5 1211.67,-147.5 1211.67,-125.5 1211.67,-125.5 1211.67,-119.5 1217.67,-113.5 1223.67,-113.5"/>
<text text-anchor="middle" x="1276.67" y="-144.3" font-family="Times,serif" font-size="14.00">Person</text>
<polyline fill="none" stroke="black" points="1211.67,-136.5 1341.67,-136.5 "/>
<text text-anchor="start" x="1219.67" y="-121.3" font-family="Times,serif" font-size="14.00">name = &#39;Rob Reiner&#39;</text>
</g>
<!-- N4&#45;&gt;N6 -->
<g id="edge11" class="edge">
<title>N4&#45;&gt;N6</title>
<path fill="none" stroke="#a40000" d="M1273.47,-113.18C1270.02,-97.43 1262.97,-77.06 1248.67,-65 1235.03,-53.49 1200.27,-44.59 1164.09,-38.11"/>
<polygon fill="#a40000" stroke="#a40000" points="1164.31,-34.59 1153.86,-36.34 1163.12,-41.49 1164.31,-34.59"/>
<text text-anchor="middle" x="1300.67" y="-76.3" font-family="Times,serif" font-size="14.00" fill="#a40000">DIRECTED</text>
</g>
</g>
</svg>
