<svg xmlns="http://www.w3.org/2000/svg" width="642" height="157" viewBox="0 0 642 157"><defs><style type="text/css"/></defs><g transform="translate(369.48874088971195 485.3978133758271) scale(1)"><g class="relationship"><g transform="translate(-315.48874088971195 -431.3978133758271) rotate(0)" stroke-width="2" stroke="#000000"><path d="M 59 0 L 193.77886827950954 0"/><polygon points="-14.155129855222071,0 -15.727922061357857,5.242640687119286 0,0 -15.727922061357857,-5.242640687119286" fill="#000000" transform="translate(207.9339981347316 0) rotate(0)" stroke="none"/></g><g transform="translate(-189.09930674995718 -431.3978133758271) rotate(0) translate(0 -13)"><g transform="translate(0 0)"><g transform="translate(-35.22265625 0)" fill="#ffffff" stroke="#000000" stroke-width="0"><rect x="0" y="0" width="70.4453125" height="26" rx="5" ry="5" stroke="none"/><text xml:space="preserve" x="5" y="17.45703125" stroke="none" text-anchor="left" font-family="sans-serif" font-size="16" font-weight="normal" fill="#000000">KNOWS</text></g></g></g></g><g class="relationship"><g transform="translate(-48.55474275498037 -431.3978133758271) rotate(0)" stroke-width="2" stroke="#000000"><path d="M 59 0 L 193.77886827950954 0"/><polygon points="-14.155129855222071,0 -15.727922061357857,5.242640687119286 0,0 -15.727922061357857,-5.242640687119286" fill="#000000" transform="translate(207.9339981347316 0) rotate(0)" stroke="none"/></g><g transform="translate(77.8346913847744 -431.3978133758271) rotate(0) translate(0 -13)"><g transform="translate(0 0)"><g transform="translate(-35.22265625 0)" fill="#ffffff" stroke="#000000" stroke-width="0"><rect x="0" y="0" width="70.4453125" height="26" rx="5" ry="5" stroke="none"/><text xml:space="preserve" x="5" y="17.45703125" stroke="none" text-anchor="left" font-family="sans-serif" font-size="16" font-weight="normal" fill="#000000">KNOWS</text></g></g></g></g><g class="node"><g fill="#ffffff" stroke="#006FD6" stroke-width="4"><circle cx="218.37925537975127" cy="-431.3978133758271" r="52"/></g><g transform="translate(218.37925537975127 -431.3978133758271)"><g transform="scale(0.6532967767358133) translate(0 -27)"><g transform="translate(0 0)"><g transform="translate(-63.369140625 0)"><g fill="#000000" stroke="#000000" stroke-width="4" font-family="sans-serif" font-size="40" font-weight="normal"><text xml:space="preserve" x="0" y="38.142578125" stroke="none">Person</text></g></g></g></g><g transform="translate(3.429011037612589e-15 56)"><g transform="translate(0 0)"><g transform="translate(-53.7900390625 0)" fill="white"><rect x="0" y="0" width="107.580078125" height="46.8" rx="0" ry="0" stroke="none"/><g font-family="sans-serif" font-size="13" font-weight="normal" fill="#535B66" text-anchor="end"><text xml:space="preserve" x="42.6435546875" y="11.421337890625" stroke="none">name:</text><text xml:space="preserve" x="46.25537109375" y="11.421337890625" stroke="none" text-anchor="start">'Charlotte'</text><text xml:space="preserve" x="42.6435546875" y="27.021337890625" stroke="none" text-anchor="end">age:</text><text xml:space="preserve" x="46.25537109375" y="27.021337890625" stroke="none" text-anchor="start">32</text><text xml:space="preserve" x="42.6435546875" y="42.621337890625" stroke="none" text-anchor="end">length:</text><text xml:space="preserve" x="46.25537109375" y="42.621337890625" stroke="none" text-anchor="start">185</text></g></g></g></g></g></g><g class="node"><g fill="#ffffff" stroke="#006FD6" stroke-width="4"><circle cx="-48.55474275498037" cy="-431.3978133758271" r="52"/></g><g transform="translate(-48.55474275498037 -431.3978133758271)"><g transform="scale(0.6532967767358133) translate(0 -27)"><g transform="translate(0 0)"><g transform="translate(-63.369140625 0)"><g fill="#000000" stroke="#000000" stroke-width="4" font-family="sans-serif" font-size="40" font-weight="normal"><text xml:space="preserve" x="0" y="38.142578125" stroke="none">Person</text></g></g></g></g><g transform="translate(3.429011037612589e-15 56)"><g transform="translate(0 0)"><g transform="translate(-49.089599609375 0)" fill="white"><rect x="0" y="0" width="98.17919921875" height="31.2" rx="0" ry="0" stroke="none"/><g font-family="sans-serif" font-size="13" font-weight="normal" fill="#535B66" text-anchor="end"><text xml:space="preserve" x="39.74267578125" y="11.421337890625" stroke="none">name:</text><text xml:space="preserve" x="43.3544921875" y="11.421337890625" stroke="none" text-anchor="start">'Bernard'</text><text xml:space="preserve" x="39.74267578125" y="27.021337890625" stroke="none" text-anchor="end">age:</text><text xml:space="preserve" x="43.3544921875" y="27.021337890625" stroke="none" text-anchor="start">36</text></g></g></g></g></g></g><g class="node"><g fill="#ffffff" stroke="#006FD6" stroke-width="4"><circle cx="-315.48874088971195" cy="-431.3978133758271" r="52"/></g><g transform="translate(-315.48874088971195 -431.3978133758271)"><g transform="scale(0.6532967767358133) translate(0 -27)"><g transform="translate(0 0)"><g transform="translate(-63.369140625 0)"><g fill="#000000" stroke="#000000" stroke-width="4" font-family="sans-serif" font-size="40" font-weight="normal"><text xml:space="preserve" x="0" y="38.142578125" stroke="none">Person</text></g></g></g></g><g transform="translate(3.429011037612589e-15 56)"><g transform="translate(0 0)"><g transform="translate(-42.23095703125 0)" fill="white"><rect x="0" y="0" width="84.4619140625" height="46.8" rx="0" ry="0" stroke="none"/><g font-family="sans-serif" font-size="13" font-weight="normal" fill="#535B66" text-anchor="end"><text xml:space="preserve" x="42.6435546875" y="11.421337890625" stroke="none">name:</text><text xml:space="preserve" x="46.25537109375" y="11.421337890625" stroke="none" text-anchor="start">'Andy'</text><text xml:space="preserve" x="42.6435546875" y="27.021337890625" stroke="none" text-anchor="end">age:</text><text xml:space="preserve" x="46.25537109375" y="27.021337890625" stroke="none" text-anchor="start">34</text><text xml:space="preserve" x="42.6435546875" y="42.621337890625" stroke="none" text-anchor="end">length:</text><text xml:space="preserve" x="46.25537109375" y="42.621337890625" stroke="none" text-anchor="start">170</text></g></g></g></g></g></g></g></svg>