<?xml version="1.0" encoding="UTF-8" standalone="no"?>
<!DOCTYPE svg PUBLIC "-//W3C//DTD SVG 1.1//EN"
 "http://www.w3.org/Graphics/SVG/1.1/DTD/svg11.dtd">
<!-- Generated by graphviz version 2.49.3 (20211027.1534)
 -->
<!-- Title: L Pages: 1 -->
<svg width="477pt" height="183pt"
 viewBox="0.00 0.00 477.00 183.00" xmlns="http://www.w3.org/2000/svg" xmlns:xlink="http://www.w3.org/1999/xlink">
<g id="graph0" class="graph" transform="scale(1 1) rotate(0) translate(4 179)">
<title>L</title>
<polygon fill="white" stroke="transparent" points="-4,4 -4,-179 473,-179 473,4 -4,4"/>
<!-- N0 -->
<g id="node1" class="node">
<title>N0</title>
<path fill="none" stroke="black" d="M228.5,-113.5C228.5,-113.5 410.5,-113.5 410.5,-113.5 416.5,-113.5 422.5,-119.5 422.5,-125.5 422.5,-125.5 422.5,-162.5 422.5,-162.5 422.5,-168.5 416.5,-174.5 410.5,-174.5 410.5,-174.5 228.5,-174.5 228.5,-174.5 222.5,-174.5 216.5,-168.5 216.5,-162.5 216.5,-162.5 216.5,-125.5 216.5,-125.5 216.5,-119.5 222.5,-113.5 228.5,-113.5"/>
<text text-anchor="middle" x="319.5" y="-159.3" font-family="Times,serif" font-size="14.00">Person</text>
<polyline fill="none" stroke="black" points="216.5,-151.5 422.5,-151.5 "/>
<text text-anchor="start" x="224.5" y="-136.3" font-family="Times,serif" font-size="14.00">realName = &#39;Carlos Irwin Estévez&#39;</text>
<text text-anchor="start" x="224.5" y="-121.3" font-family="Times,serif" font-size="14.00">name = &#39;Charlie Sheen&#39;</text>
</g>
<!-- N4 -->
<g id="node2" class="node">
<title>N4</title>
<path fill="none" stroke="black" d="M179,-0.5C179,-0.5 308,-0.5 308,-0.5 314,-0.5 320,-6.5 320,-12.5 320,-12.5 320,-49.5 320,-49.5 320,-55.5 314,-61.5 308,-61.5 308,-61.5 179,-61.5 179,-61.5 173,-61.5 167,-55.5 167,-49.5 167,-49.5 167,-12.5 167,-12.5 167,-6.5 173,-0.5 179,-0.5"/>
<text text-anchor="middle" x="243.5" y="-46.3" font-family="Times,serif" font-size="14.00">Movie</text>
<polyline fill="none" stroke="black" points="167,-38.5 320,-38.5 "/>
<text text-anchor="start" x="175" y="-23.3" font-family="Times,serif" font-size="14.00">year = 1979</text>
<text text-anchor="start" x="175" y="-8.3" font-family="Times,serif" font-size="14.00">title = &#39;Apocalypse Now&#39;</text>
</g>
<!-- N0&#45;&gt;N4 -->
<g id="edge1" class="edge">
<title>N0&#45;&gt;N4</title>
<path fill="none" stroke="#2e3436" d="M312.53,-113.33C309.09,-102.29 304.2,-90.01 297.5,-80 294.96,-76.2 292.05,-72.52 288.92,-68.98"/>
<polygon fill="#2e3436" stroke="#2e3436" points="291.23,-66.34 281.8,-61.51 286.17,-71.17 291.23,-66.34"/>
<text text-anchor="middle" x="338.5" y="-83.8" font-family="Times,serif" font-size="14.00" fill="#2e3436">ACTED_IN</text>
</g>
<!-- N3 -->
<g id="node3" class="node">
<title>N3</title>
<path fill="none" stroke="black" d="M364,-0.5C364,-0.5 457,-0.5 457,-0.5 463,-0.5 469,-6.5 469,-12.5 469,-12.5 469,-49.5 469,-49.5 469,-55.5 463,-61.5 457,-61.5 457,-61.5 364,-61.5 364,-61.5 358,-61.5 352,-55.5 352,-49.5 352,-49.5 352,-12.5 352,-12.5 352,-6.5 358,-0.5 364,-0.5"/>
<text text-anchor="middle" x="410.5" y="-46.3" font-family="Times,serif" font-size="14.00">Movie</text>
<polyline fill="none" stroke="black" points="352,-38.5 469,-38.5 "/>
<text text-anchor="start" x="360" y="-23.3" font-family="Times,serif" font-size="14.00">year = 1984</text>
<text text-anchor="start" x="360" y="-8.3" font-family="Times,serif" font-size="14.00">title = &#39;Red Dawn&#39;</text>
</g>
<!-- N0&#45;&gt;N3 -->
<g id="edge2" class="edge">
<title>N0&#45;&gt;N3</title>
<path fill="none" stroke="#2e3436" d="M358.78,-113.34C365.1,-107.63 371.28,-101.42 376.5,-95 382.49,-87.64 387.93,-79.06 392.62,-70.65"/>
<polygon fill="#2e3436" stroke="#2e3436" points="395.8,-72.12 397.4,-61.65 389.62,-68.84 395.8,-72.12"/>
<text text-anchor="middle" x="420.5" y="-83.8" font-family="Times,serif" font-size="14.00" fill="#2e3436">ACTED_IN</text>
</g>
<!-- N2 -->
<g id="node4" class="node">
<title>N2</title>
<path fill="none" stroke="black" d="M12,-0.5C12,-0.5 109,-0.5 109,-0.5 115,-0.5 121,-6.5 121,-12.5 121,-12.5 121,-49.5 121,-49.5 121,-55.5 115,-61.5 109,-61.5 109,-61.5 12,-61.5 12,-61.5 6,-61.5 0,-55.5 0,-49.5 0,-49.5 0,-12.5 0,-12.5 0,-6.5 6,-0.5 12,-0.5"/>
<text text-anchor="middle" x="60.5" y="-46.3" font-family="Times,serif" font-size="14.00">Movie</text>
<polyline fill="none" stroke="black" points="0,-38.5 121,-38.5 "/>
<text text-anchor="start" x="8" y="-23.3" font-family="Times,serif" font-size="14.00">year = 1987</text>
<text text-anchor="start" x="8" y="-8.3" font-family="Times,serif" font-size="14.00">title = &#39;Wall Street&#39;</text>
</g>
<!-- N0&#45;&gt;N2 -->
<g id="edge3" class="edge">
<title>N0&#45;&gt;N2</title>
<path fill="none" stroke="#2e3436" d="M257.35,-113.45C246.52,-107.69 235.53,-101.43 225.5,-95 216.44,-89.19 215.98,-85.09 206.5,-80 199.23,-76.09 164.85,-64.74 131.29,-54.06"/>
<polygon fill="#2e3436" stroke="#2e3436" points="131.99,-50.61 121.4,-50.92 129.87,-57.28 131.99,-50.61"/>
<text text-anchor="middle" x="259.5" y="-83.8" font-family="Times,serif" font-size="14.00" fill="#2e3436">ACTED_IN</text>
</g>
<!-- N1 -->
<g id="node5" class="node">
<title>N1</title>
<path fill="none" stroke="black" d="M29,-121C29,-121 146,-121 146,-121 152,-121 158,-127 158,-133 158,-133 158,-155 158,-155 158,-161 152,-167 146,-167 146,-167 29,-167 29,-167 23,-167 17,-161 17,-155 17,-155 17,-133 17,-133 17,-127 23,-121 29,-121"/>
<text text-anchor="middle" x="87.5" y="-151.8" font-family="Times,serif" font-size="14.00">Person</text>
<polyline fill="none" stroke="black" points="17,-144 158,-144 "/>
<text text-anchor="start" x="25" y="-128.8" font-family="Times,serif" font-size="14.00">name = &#39;Martin Sheen&#39;</text>
</g>
<!-- N1&#45;&gt;N4 -->
<g id="edge5" class="edge">
<title>N1&#45;&gt;N4</title>
<path fill="none" stroke="#2e3436" d="M101.47,-120.99C110.72,-107.78 123.82,-91.38 138.5,-80 144.74,-75.16 151.54,-70.68 158.59,-66.55"/>
<polygon fill="#2e3436" stroke="#2e3436" points="160.59,-69.45 167.62,-61.52 157.18,-63.33 160.59,-69.45"/>
<text text-anchor="middle" x="172.5" y="-83.8" font-family="Times,serif" font-size="14.00" fill="#2e3436">ACTED_IN</text>
</g>
<!-- N1&#45;&gt;N2 -->
<g id="edge4" class="edge">
<title>N1&#45;&gt;N2</title>
<path fill="none" stroke="#2e3436" d="M63.47,-120.7C57.02,-113.22 50.9,-104.38 47.5,-95 44.8,-87.54 44.6,-79.37 45.72,-71.46"/>
<polygon fill="#2e3436" stroke="#2e3436" points="49.15,-72.16 47.75,-61.65 42.29,-70.74 49.15,-72.16"/>
<text text-anchor="middle" x="81.5" y="-83.8" font-family="Times,serif" font-size="14.00" fill="#2e3436">ACTED_IN</text>
</g>
</g>
</svg>
