<svg xmlns="http://www.w3.org/2000/svg" width="490" height="406" viewBox="0 0 490 406"><defs><style type="text/css"/></defs><g transform="translate(-118.82443929307169 181.78550462795107) scale(1)"><g class="relationship"><g transform="translate(172.8244392930717 -127.78550462795107) rotate(90)" stroke-width="2" stroke="#535B66"><path d="M 59 0 L 224.07562043199346 0"/><polygon points="-14.155129855222071,0 -15.727922061357857,5.242640687119286 0,0 -15.727922061357857,-5.242640687119286" fill="#535B66" transform="translate(238.23075028721553 0) rotate(0)" stroke="none"/></g><g transform="translate(172.8244392930717 13.752305588045658) rotate(270) translate(0 -22.6)"><g transform="translate(0 0)"><g transform="translate(-35.22265625 0)" fill="#ffffff" stroke="#000000" stroke-width="0"><rect x="0" y="0" width="70.4453125" height="26" rx="5" ry="5" stroke="none"/><text xml:space="preserve" x="5" y="17.45703125" stroke="none" text-anchor="left" font-family="sans-serif" font-size="16" font-weight="normal" fill="#000000">KNOWS</text></g></g><g transform="translate(0 26)"><g transform="translate(-45.36328125 0)" fill="white"><rect x="0" y="0" width="90.7265625" height="19.2" rx="0" ry="0" stroke="none"/><g font-family="sans-serif" font-size="16" font-weight="normal" fill="#535B66" text-anchor="end"><text xml:space="preserve" x="46.2421875" y="14.05703125" stroke="none">since:</text><text xml:space="preserve" x="50.6875" y="14.05703125" stroke="none" text-anchor="start">2012</text></g></g></g></g></g><g class="relationship"><g transform="translate(172.8244392930717 -127.78550462795107) rotate(0)" stroke-width="2" stroke="#535B66"><path d="M 59 0 L 247.2760793124217 0"/><polygon points="-14.155129855222071,0 -15.727922061357857,5.242640687119286 0,0 -15.727922061357857,-5.242640687119286" fill="#535B66" transform="translate(261.4312091676438 0) rotate(0)" stroke="none"/></g><g transform="translate(325.9624789492825 -127.78550462795107) rotate(0) translate(0 -22.6)"><g transform="translate(0 0)"><g transform="translate(-35.22265625 0)" fill="#ffffff" stroke="#000000" stroke-width="0"><rect x="0" y="0" width="70.4453125" height="26" rx="5" ry="5" stroke="none"/><text xml:space="preserve" x="5" y="17.45703125" stroke="none" text-anchor="left" font-family="sans-serif" font-size="16" font-weight="normal" fill="#000000">KNOWS</text></g></g><g transform="translate(0 26)"><g transform="translate(-45.36328125 0)" fill="white"><rect x="0" y="0" width="90.7265625" height="19.2" rx="0" ry="0" stroke="none"/><g font-family="sans-serif" font-size="16" font-weight="normal" fill="#535B66" text-anchor="end"><text xml:space="preserve" x="46.2421875" y="14.05703125" stroke="none">since:</text><text xml:space="preserve" x="50.6875" y="14.05703125" stroke="none" text-anchor="start">1999</text></g></g></g></g></g><g class="node"><g fill="#ffffff" stroke="#006FD6" stroke-width="4"><circle cx="172.8244392930717" cy="-127.78550462795107" r="52"/></g><g transform="translate(172.8244392930717 -127.78550462795107)"><g transform="scale(0.4783254074843021) translate(0 -56)"><g transform="translate(0 0)"><g transform="translate(-63.369140625 0)"><g fill="#000000" stroke="#000000" stroke-width="4" font-family="sans-serif" font-size="40" font-weight="normal"><text xml:space="preserve" x="0" y="38.142578125" stroke="none">Person</text></g></g><g transform="translate(-75.595703125 62)"><g fill="#000000" stroke="#000000" stroke-width="4" font-family="sans-serif" font-size="40" font-weight="normal"><text xml:space="preserve" x="0" y="38.142578125" stroke="none">Swedish</text></g></g></g></g><g transform="translate(39.59797974644666 39.597979746446654)"><g transform="translate(0 0)"><g transform="translate(0 0)" fill="white"><rect x="0" y="0" width="101.265625" height="57.599999999999994" rx="0" ry="0" stroke="none"/><g font-family="sans-serif" font-size="16" font-weight="normal" fill="#535B66" text-anchor="end"><text xml:space="preserve" x="48.9140625" y="14.05703125" stroke="none">name:</text><text xml:space="preserve" x="53.359375" y="14.05703125" stroke="none" text-anchor="start">'Andy'</text><text xml:space="preserve" x="48.9140625" y="33.25703125" stroke="none" text-anchor="end">age:</text><text xml:space="preserve" x="53.359375" y="33.25703125" stroke="none" text-anchor="start">36</text><text xml:space="preserve" x="48.9140625" y="52.45703125" stroke="none" text-anchor="end">belt:</text><text xml:space="preserve" x="53.359375" y="52.45703125" stroke="none" text-anchor="start">'white'</text></g></g></g></g></g></g><g class="node"><g fill="#ffffff" stroke="#006FD6" stroke-width="4"><circle cx="172.8244392930717" cy="169.44524565926446" r="52"/></g><g transform="translate(172.8244392930717 169.44524565926446)"><g transform="scale(0.6532967767358133) translate(0 -27)"><g transform="translate(0 0)"><g transform="translate(-63.369140625 0)"><g fill="#000000" stroke="#000000" stroke-width="4" font-family="sans-serif" font-size="40" font-weight="normal"><text xml:space="preserve" x="0" y="38.142578125" stroke="none">Person</text></g></g></g></g><g transform="translate(56 -19.2)"><g transform="translate(0 0)"><g transform="translate(0 0)" fill="white"><rect x="0" y="0" width="120.2265625" height="38.4" rx="0" ry="0" stroke="none"/><g font-family="sans-serif" font-size="16" font-weight="normal" fill="#535B66" text-anchor="end"><text xml:space="preserve" x="48.9140625" y="14.05703125" stroke="none">name:</text><text xml:space="preserve" x="53.359375" y="14.05703125" stroke="none" text-anchor="start">'Timothy'</text><text xml:space="preserve" x="48.9140625" y="33.25703125" stroke="none" text-anchor="end">age:</text><text xml:space="preserve" x="53.359375" y="33.25703125" stroke="none" text-anchor="start">25</text></g></g></g></g></g></g><g class="node"><g fill="#ffffff" stroke="#006FD6" stroke-width="4"><circle cx="493.25564846071546" cy="-127.78550462795107" r="52"/></g><g transform="translate(493.25564846071546 -127.78550462795107)"><g transform="scale(0.6532967767358133) translate(0 -27)"><g transform="translate(0 0)"><g transform="translate(-63.369140625 0)"><g fill="#000000" stroke="#000000" stroke-width="4" font-family="sans-serif" font-size="40" font-weight="normal"><text xml:space="preserve" x="0" y="38.142578125" stroke="none">Person</text></g></g></g></g><g transform="translate(3.429011037612589e-15 56)"><g transform="translate(0 0)"><g transform="translate(-114.78515625 0)" fill="white"><rect x="0" y="0" width="229.5703125" height="57.599999999999994" rx="0" ry="0" stroke="none"/><g font-family="sans-serif" font-size="16" font-weight="normal" fill="#535B66" text-anchor="end"><text xml:space="preserve" x="48.9140625" y="14.05703125" stroke="none">name:</text><text xml:space="preserve" x="53.359375" y="14.05703125" stroke="none" text-anchor="start">'Peter'</text><text xml:space="preserve" x="48.9140625" y="33.25703125" stroke="none" text-anchor="end">age:</text><text xml:space="preserve" x="53.359375" y="33.25703125" stroke="none" text-anchor="start">35</text><text xml:space="preserve" x="48.9140625" y="52.45703125" stroke="none" text-anchor="end">email:</text><text xml:space="preserve" x="53.359375" y="52.45703125" stroke="none" text-anchor="start">'peter_n@example.com'</text></g></g></g></g></g></g></g></svg>