<?xml version="1.0" encoding="UTF-8" standalone="no"?>
<!DOCTYPE svg PUBLIC "-//W3C//DTD SVG 1.1//EN"
 "http://www.w3.org/Graphics/SVG/1.1/DTD/svg11.dtd">
<!-- Generated by graphviz version 2.49.3 (20211027.1534)
 -->
<!-- Title: L Pages: 1 -->
<svg width="1501pt" height="168pt"
 viewBox="0.00 0.00 1500.50 168.00" xmlns="http://www.w3.org/2000/svg" xmlns:xlink="http://www.w3.org/1999/xlink">
<g id="graph0" class="graph" transform="scale(1 1) rotate(0) translate(4 164)">
<title>L</title>
<polygon fill="white" stroke="transparent" points="-4,4 -4,-164 1496.5,-164 1496.5,4 -4,4"/>
<!-- N0 -->
<g id="node1" class="node">
<title>N0</title>
<path fill="none" stroke="black" d="M732.5,-113.5C732.5,-113.5 853.5,-113.5 853.5,-113.5 859.5,-113.5 865.5,-119.5 865.5,-125.5 865.5,-125.5 865.5,-147.5 865.5,-147.5 865.5,-153.5 859.5,-159.5 853.5,-159.5 853.5,-159.5 732.5,-159.5 732.5,-159.5 726.5,-159.5 720.5,-153.5 720.5,-147.5 720.5,-147.5 720.5,-125.5 720.5,-125.5 720.5,-119.5 726.5,-113.5 732.5,-113.5"/>
<text text-anchor="middle" x="793" y="-144.3" font-family="Times,serif" font-size="14.00">Person</text>
<polyline fill="none" stroke="black" points="720.5,-136.5 865.5,-136.5 "/>
<text text-anchor="start" x="728.5" y="-121.3" font-family="Times,serif" font-size="14.00">name = &#39;Keanu Reeves&#39;</text>
</g>
<!-- N8 -->
<g id="node2" class="node">
<title>N8</title>
<path fill="none" stroke="black" d="M12,-0.5C12,-0.5 186,-0.5 186,-0.5 192,-0.5 198,-6.5 198,-12.5 198,-12.5 198,-49.5 198,-49.5 198,-55.5 192,-61.5 186,-61.5 186,-61.5 12,-61.5 12,-61.5 6,-61.5 0,-55.5 0,-49.5 0,-49.5 0,-12.5 0,-12.5 0,-6.5 6,-0.5 12,-0.5"/>
<text text-anchor="middle" x="99" y="-46.3" font-family="Times,serif" font-size="14.00">Movie</text>
<polyline fill="none" stroke="black" points="0,-38.5 198,-38.5 "/>
<text text-anchor="start" x="8" y="-23.3" font-family="Times,serif" font-size="14.00">title = &#39;The Matrix Resurrections&#39;</text>
<text text-anchor="start" x="8" y="-8.3" font-family="Times,serif" font-size="14.00">released = 2021</text>
</g>
<!-- N0&#45;&gt;N8 -->
<g id="edge1" class="edge">
<title>N0&#45;&gt;N8</title>
<path fill="none" stroke="#2e3436" d="M720.12,-130.6C610.49,-122.3 396.78,-102.49 207.89,-62.11"/>
<polygon fill="#2e3436" stroke="#2e3436" points="208.57,-58.67 198.06,-59.98 207.09,-65.51 208.57,-58.67"/>
<text text-anchor="middle" x="417" y="-83.8" font-family="Times,serif" font-size="14.00" fill="#2e3436">ACTED_IN</text>
</g>
<!-- N7 -->
<g id="node3" class="node">
<title>N7</title>
<path fill="none" stroke="black" d="M228,-0.5C228,-0.5 378,-0.5 378,-0.5 384,-0.5 390,-6.5 390,-12.5 390,-12.5 390,-49.5 390,-49.5 390,-55.5 384,-61.5 378,-61.5 378,-61.5 228,-61.5 228,-61.5 222,-61.5 216,-55.5 216,-49.5 216,-49.5 216,-12.5 216,-12.5 216,-6.5 222,-0.5 228,-0.5"/>
<text text-anchor="middle" x="303" y="-46.3" font-family="Times,serif" font-size="14.00">Movie</text>
<polyline fill="none" stroke="black" points="216,-38.5 390,-38.5 "/>
<text text-anchor="start" x="224" y="-23.3" font-family="Times,serif" font-size="14.00">title = &#39;The Devils Advocate&#39;</text>
<text text-anchor="start" x="224" y="-8.3" font-family="Times,serif" font-size="14.00">released = 1997</text>
</g>
<!-- N0&#45;&gt;N7 -->
<g id="edge2" class="edge">
<title>N0&#45;&gt;N7</title>
<path fill="none" stroke="#2e3436" d="M720.46,-124.98C643.1,-113.08 516.98,-91.74 399.86,-62.13"/>
<polygon fill="#2e3436" stroke="#2e3436" points="400.56,-58.7 390.01,-59.62 398.83,-65.48 400.56,-58.7"/>
<text text-anchor="middle" x="573" y="-83.8" font-family="Times,serif" font-size="14.00" fill="#2e3436">ACTED_IN</text>
</g>
<!-- N4 -->
<g id="node4" class="node">
<title>N4</title>
<path fill="none" stroke="black" d="M420,-0.5C420,-0.5 572,-0.5 572,-0.5 578,-0.5 584,-6.5 584,-12.5 584,-12.5 584,-49.5 584,-49.5 584,-55.5 578,-61.5 572,-61.5 572,-61.5 420,-61.5 420,-61.5 414,-61.5 408,-55.5 408,-49.5 408,-49.5 408,-12.5 408,-12.5 408,-6.5 414,-0.5 420,-0.5"/>
<text text-anchor="middle" x="496" y="-46.3" font-family="Times,serif" font-size="14.00">Movie</text>
<polyline fill="none" stroke="black" points="408,-38.5 584,-38.5 "/>
<text text-anchor="start" x="416" y="-23.3" font-family="Times,serif" font-size="14.00">title = &#39;The Matrix Reloaded&#39;</text>
<text text-anchor="start" x="416" y="-8.3" font-family="Times,serif" font-size="14.00">released = 2003</text>
</g>
<!-- N0&#45;&gt;N4 -->
<g id="edge3" class="edge">
<title>N0&#45;&gt;N4</title>
<path fill="none" stroke="#2e3436" d="M725.46,-113.41C707.71,-107.52 688.61,-101.09 671,-95 643.43,-85.46 613.52,-74.81 586.36,-65.02"/>
<polygon fill="#2e3436" stroke="#2e3436" points="587.47,-61.7 576.88,-61.59 585.09,-68.28 587.47,-61.7"/>
<text text-anchor="middle" x="705" y="-83.8" font-family="Times,serif" font-size="14.00" fill="#2e3436">ACTED_IN</text>
</g>
<!-- N3 -->
<g id="node5" class="node">
<title>N3</title>
<path fill="none" stroke="black" d="M614.5,-0.5C614.5,-0.5 779.5,-0.5 779.5,-0.5 785.5,-0.5 791.5,-6.5 791.5,-12.5 791.5,-12.5 791.5,-49.5 791.5,-49.5 791.5,-55.5 785.5,-61.5 779.5,-61.5 779.5,-61.5 614.5,-61.5 614.5,-61.5 608.5,-61.5 602.5,-55.5 602.5,-49.5 602.5,-49.5 602.5,-12.5 602.5,-12.5 602.5,-6.5 608.5,-0.5 614.5,-0.5"/>
<text text-anchor="middle" x="697" y="-46.3" font-family="Times,serif" font-size="14.00">Movie</text>
<polyline fill="none" stroke="black" points="602.5,-38.5 791.5,-38.5 "/>
<text text-anchor="start" x="610.5" y="-23.3" font-family="Times,serif" font-size="14.00">title = &#39;The Matrix Revolutions&#39;</text>
<text text-anchor="start" x="610.5" y="-8.3" font-family="Times,serif" font-size="14.00">released = 2003</text>
</g>
<!-- N0&#45;&gt;N3 -->
<g id="edge4" class="edge">
<title>N0&#45;&gt;N3</title>
<path fill="none" stroke="#2e3436" d="M772.41,-113.3C760.49,-100.45 745.18,-83.95 731.48,-69.17"/>
<polygon fill="#2e3436" stroke="#2e3436" points="733.85,-66.58 724.48,-61.63 728.72,-71.34 733.85,-66.58"/>
<text text-anchor="middle" x="788" y="-83.8" font-family="Times,serif" font-size="14.00" fill="#2e3436">ACTED_IN</text>
</g>
<!-- N5 -->
<g id="node6" class="node">
<title>N5</title>
<path fill="none" stroke="black" d="M822,-0.5C822,-0.5 958,-0.5 958,-0.5 964,-0.5 970,-6.5 970,-12.5 970,-12.5 970,-49.5 970,-49.5 970,-55.5 964,-61.5 958,-61.5 958,-61.5 822,-61.5 822,-61.5 816,-61.5 810,-55.5 810,-49.5 810,-49.5 810,-12.5 810,-12.5 810,-6.5 816,-0.5 822,-0.5"/>
<text text-anchor="middle" x="890" y="-46.3" font-family="Times,serif" font-size="14.00">Movie</text>
<polyline fill="none" stroke="black" points="810,-38.5 970,-38.5 "/>
<text text-anchor="start" x="818" y="-23.3" font-family="Times,serif" font-size="14.00">title = &#39;The Replacements&#39;</text>
<text text-anchor="start" x="818" y="-8.3" font-family="Times,serif" font-size="14.00">released = 2000</text>
</g>
<!-- N0&#45;&gt;N5 -->
<g id="edge5" class="edge">
<title>N0&#45;&gt;N5</title>
<path fill="none" stroke="#2e3436" d="M813.81,-113.3C825.85,-100.45 841.31,-83.95 855.16,-69.17"/>
<polygon fill="#2e3436" stroke="#2e3436" points="857.94,-71.32 862.23,-61.63 852.84,-66.53 857.94,-71.32"/>
<text text-anchor="middle" x="879" y="-83.8" font-family="Times,serif" font-size="14.00" fill="#2e3436">ACTED_IN</text>
</g>
<!-- N6 -->
<g id="node7" class="node">
<title>N6</title>
<path fill="none" stroke="black" d="M1000.5,-0.5C1000.5,-0.5 1097.5,-0.5 1097.5,-0.5 1103.5,-0.5 1109.5,-6.5 1109.5,-12.5 1109.5,-12.5 1109.5,-49.5 1109.5,-49.5 1109.5,-55.5 1103.5,-61.5 1097.5,-61.5 1097.5,-61.5 1000.5,-61.5 1000.5,-61.5 994.5,-61.5 988.5,-55.5 988.5,-49.5 988.5,-49.5 988.5,-12.5 988.5,-12.5 988.5,-6.5 994.5,-0.5 1000.5,-0.5"/>
<text text-anchor="middle" x="1049" y="-46.3" font-family="Times,serif" font-size="14.00">Movie</text>
<polyline fill="none" stroke="black" points="988.5,-38.5 1109.5,-38.5 "/>
<text text-anchor="start" x="996.5" y="-23.3" font-family="Times,serif" font-size="14.00">title = &#39;The Matrix&#39;</text>
<text text-anchor="start" x="996.5" y="-8.3" font-family="Times,serif" font-size="14.00">released = 1999</text>
</g>
<!-- N0&#45;&gt;N6 -->
<g id="edge6" class="edge">
<title>N0&#45;&gt;N6</title>
<path fill="none" stroke="#2e3436" d="M865.69,-113.5C882.68,-107.88 900.6,-101.56 917,-95 938.56,-86.37 961.57,-75.87 982.23,-65.93"/>
<polygon fill="#2e3436" stroke="#2e3436" points="983.77,-69.08 991.24,-61.56 980.72,-62.78 983.77,-69.08"/>
<text text-anchor="middle" x="985" y="-83.8" font-family="Times,serif" font-size="14.00" fill="#2e3436">ACTED_IN</text>
</g>
<!-- N2 -->
<g id="node8" class="node">
<title>N2</title>
<path fill="none" stroke="black" d="M1139,-0.5C1139,-0.5 1301,-0.5 1301,-0.5 1307,-0.5 1313,-6.5 1313,-12.5 1313,-12.5 1313,-49.5 1313,-49.5 1313,-55.5 1307,-61.5 1301,-61.5 1301,-61.5 1139,-61.5 1139,-61.5 1133,-61.5 1127,-55.5 1127,-49.5 1127,-49.5 1127,-12.5 1127,-12.5 1127,-6.5 1133,-0.5 1139,-0.5"/>
<text text-anchor="middle" x="1220" y="-46.3" font-family="Times,serif" font-size="14.00">Movie</text>
<polyline fill="none" stroke="black" points="1127,-38.5 1313,-38.5 "/>
<text text-anchor="start" x="1135" y="-23.3" font-family="Times,serif" font-size="14.00">title = &#39;Somethings Gotta Give&#39;</text>
<text text-anchor="start" x="1135" y="-8.3" font-family="Times,serif" font-size="14.00">released = 2003</text>
</g>
<!-- N0&#45;&gt;N2 -->
<g id="edge7" class="edge">
<title>N0&#45;&gt;N2</title>
<path fill="none" stroke="#2e3436" d="M865.52,-125.3C911.06,-118.27 970.84,-107.87 1023,-95 1057.27,-86.54 1094.27,-75.29 1126.84,-64.64"/>
<polygon fill="#2e3436" stroke="#2e3436" points="1127.95,-67.96 1136.35,-61.51 1125.76,-61.31 1127.95,-67.96"/>
<text text-anchor="middle" x="1107" y="-83.8" font-family="Times,serif" font-size="14.00" fill="#2e3436">ACTED_IN</text>
</g>
<!-- N1 -->
<g id="node9" class="node">
<title>N1</title>
<path fill="none" stroke="black" d="M1343.5,-0.5C1343.5,-0.5 1480.5,-0.5 1480.5,-0.5 1486.5,-0.5 1492.5,-6.5 1492.5,-12.5 1492.5,-12.5 1492.5,-49.5 1492.5,-49.5 1492.5,-55.5 1486.5,-61.5 1480.5,-61.5 1480.5,-61.5 1343.5,-61.5 1343.5,-61.5 1337.5,-61.5 1331.5,-55.5 1331.5,-49.5 1331.5,-49.5 1331.5,-12.5 1331.5,-12.5 1331.5,-6.5 1337.5,-0.5 1343.5,-0.5"/>
<text text-anchor="middle" x="1412" y="-46.3" font-family="Times,serif" font-size="14.00">Movie</text>
<polyline fill="none" stroke="black" points="1331.5,-38.5 1492.5,-38.5 "/>
<text text-anchor="start" x="1339.5" y="-23.3" font-family="Times,serif" font-size="14.00">title = &#39;Johnny Mnemonic&#39;</text>
<text text-anchor="start" x="1339.5" y="-8.3" font-family="Times,serif" font-size="14.00">released = 1995</text>
</g>
<!-- N0&#45;&gt;N1 -->
<g id="edge8" class="edge">
<title>N0&#45;&gt;N1</title>
<path fill="none" stroke="#2e3436" d="M865.9,-130.7C966.87,-122.87 1154.69,-104.07 1321.27,-62.05"/>
<polygon fill="#2e3436" stroke="#2e3436" points="1322.38,-65.38 1331.2,-59.51 1320.65,-58.6 1322.38,-65.38"/>
<text text-anchor="middle" x="1271" y="-83.8" font-family="Times,serif" font-size="14.00" fill="#2e3436">ACTED_IN</text>
</g>
</g>
</svg>
