<svg xmlns="http://www.w3.org/2000/svg" width="850" height="438" viewBox="0 0 850 438"><defs><style type="text/css"/></defs><g transform="translate(360.7138747760402 731.3978133758271) scale(1)"><g class="relationship"><g transform="translate(78.63556465461365 -674.2405068988672) rotate(90)" stroke-width="2" stroke="#000000"><path d="M 59 0 L 188.93047787151198 0"/><polygon points="-14.155129855222071,0 -15.727922061357857,5.242640687119286 0,0 -15.727922061357857,-5.242640687119286" fill="#000000" transform="translate(203.08560772673405 0) rotate(0)" stroke="none"/></g><g transform="translate(78.63556465461366 -550.2752679631112) rotate(270) translate(0 -13)"><g transform="translate(0 0)"><g transform="translate(-35.22265625 0)" fill="#ffffff" stroke="#000000" stroke-width="0"><rect x="0" y="0" width="70.4453125" height="26" rx="5" ry="5" stroke="none"/><text xml:space="preserve" x="5" y="17.45703125" stroke="none" text-anchor="left" font-family="sans-serif" font-size="16" font-weight="normal" fill="#000000">KNOWS</text></g></g></g></g><g class="relationship"><g transform="translate(78.63556465461365 -674.2405068988672) rotate(-179.40768251274395)" stroke-width="2" stroke="#000000"><path d="M 59 0 L 232.26141091488995 0"/><polygon points="-14.155129855222071,0 -15.727922061357857,5.242640687119286 0,0 -15.727922061357857,-5.242640687119286" fill="#000000" transform="translate(246.41654077011202 0) rotate(0)" stroke="none"/></g><g transform="translate(-66.98735895141313 -675.7459943502856) rotate(0.5923174872560566) translate(0 -13)"><g transform="translate(0 0)"><g transform="translate(-35.22265625 0)" fill="#ffffff" stroke="#000000" stroke-width="0"><rect x="0" y="0" width="70.4453125" height="26" rx="5" ry="5" stroke="none"/><text xml:space="preserve" x="5" y="17.45703125" stroke="none" text-anchor="left" font-family="sans-serif" font-size="16" font-weight="normal" fill="#000000">KNOWS</text></g></g></g></g><g class="relationship"><g transform="translate(78.63556465461365 -412.1548991721332) rotate(180)" stroke-width="2" stroke="#000000"><path d="M 59 0 L 232.24509082543176 0"/><polygon points="-14.155129855222071,0 -15.727922061357857,5.242640687119286 0,0 -15.727922061357857,-5.242640687119286" fill="#000000" transform="translate(246.40022068065383 0) rotate(0)" stroke="none"/></g><g transform="translate(-66.98698075810223 -412.1548991721332) rotate(360) translate(0 -13)"><g transform="translate(0 0)"><g transform="translate(-35.22265625 0)" fill="#ffffff" stroke="#000000" stroke-width="0"><rect x="0" y="0" width="70.4453125" height="26" rx="5" ry="5" stroke="none"/><text xml:space="preserve" x="5" y="17.45703125" stroke="none" text-anchor="left" font-family="sans-serif" font-size="16" font-weight="normal" fill="#000000">KNOWS</text></g></g></g></g><g class="relationship"><g transform="translate(-226.7646560260402 -677.3978133758271) rotate(90)" stroke-width="2" stroke="#000000"><path d="M 59 0 L 192.08778434847187 0"/><polygon points="-14.155129855222071,0 -15.727922061357857,5.242640687119286 0,0 -15.727922061357857,-5.242640687119286" fill="#000000" transform="translate(206.24291420369394 0) rotate(0)" stroke="none"/></g><g transform="translate(-226.7646560260402 -551.8539212015912) rotate(270) translate(0 -13)"><g transform="translate(0 0)"><g transform="translate(-35.22265625 0)" fill="#ffffff" stroke="#000000" stroke-width="0"><rect x="0" y="0" width="70.4453125" height="26" rx="5" ry="5" stroke="none"/><text xml:space="preserve" x="5" y="17.45703125" stroke="none" text-anchor="left" font-family="sans-serif" font-size="16" font-weight="normal" fill="#000000">KNOWS</text></g></g></g></g><g class="relationship"><g transform="translate(78.63556465461365 -412.1548991721332) rotate(0)" stroke-width="2" stroke="#000000"><path d="M 59 0 L 232.24509082543176 0"/><polygon points="-14.155129855222071,0 -15.727922061357857,5.242640687119286 0,0 -15.727922061357857,-5.242640687119286" fill="#000000" transform="translate(246.40022068065383 0) rotate(0)" stroke="none"/></g><g transform="translate(224.25811006732954 -412.1548991721332) rotate(0) translate(0 -13)"><g transform="translate(0 0)"><g transform="translate(-41.890625 0)" fill="#ffffff" stroke="#000000" stroke-width="0"><rect x="0" y="0" width="83.78125" height="26" rx="5" ry="5" stroke="none"/><text xml:space="preserve" x="5" y="17.45703125" stroke="none" text-anchor="left" font-family="sans-serif" font-size="16" font-weight="normal" fill="#000000">MARRIED</text></g></g></g></g><g class="node"><g fill="#ffffff" stroke="#006FD6" stroke-width="4"><circle cx="78.63556465461365" cy="-412.1548991721332" r="52"/></g><g transform="translate(78.63556465461365 -412.1548991721332)"><g transform="scale(0.37231065276914505) translate(0 -27)"><g transform="translate(0 0)"><g transform="translate(-117.8125 0)"><g fill="#000000" stroke="#000000" stroke-width="4" font-family="sans-serif" font-size="40" font-weight="normal"><text xml:space="preserve" x="0" y="38.142578125" stroke="none">Administrator</text></g></g></g></g><g transform="translate(3.429011037612589e-15 56)"><g transform="translate(0 0)"><g transform="translate(-46.556884765625 0)" fill="white"><rect x="0" y="0" width="93.11376953125" height="46.8" rx="0" ry="0" stroke="none"/><g font-family="sans-serif" font-size="13" font-weight="normal" fill="#535B66" text-anchor="end"><text xml:space="preserve" x="39.74267578125" y="11.421337890625" stroke="none">name:</text><text xml:space="preserve" x="43.3544921875" y="11.421337890625" stroke="none" text-anchor="start">'Charlie'</text><text xml:space="preserve" x="39.74267578125" y="27.021337890625" stroke="none" text-anchor="end">age:</text><text xml:space="preserve" x="43.3544921875" y="27.021337890625" stroke="none" text-anchor="start">53</text><text xml:space="preserve" x="39.74267578125" y="42.621337890625" stroke="none" text-anchor="end">eyes:</text><text xml:space="preserve" x="43.3544921875" y="42.621337890625" stroke="none" text-anchor="start">'Green'</text></g></g></g></g></g></g><g class="node"><g fill="#ffffff" stroke="#006FD6" stroke-width="4"><circle cx="-226.7646560260402" cy="-677.3978133758271" r="52"/></g><g transform="translate(-226.7646560260402 -677.3978133758271)"><g transform="scale(0.6147837780896986) translate(0 -19)"><g transform="translate(0 0)"><g transform="translate(-70.6875 0)"><g fill="#000000" stroke="#000000" stroke-width="4" font-family="sans-serif" font-size="24" font-weight="normal"><text xml:space="preserve" x="0" y="25.685546875" stroke="none">Administrator</text></g></g></g></g><g transform="translate(-56 -23.39999999999999)"><g transform="translate(0 0)"><g transform="translate(-77.94921875 0)" fill="white"><rect x="0" y="0" width="77.94921875" height="46.8" rx="0" ry="0" stroke="none"/><g font-family="sans-serif" font-size="13" font-weight="normal" fill="#535B66" text-anchor="end"><text xml:space="preserve" x="39.74267578125" y="11.421337890625" stroke="none">name:</text><text xml:space="preserve" x="43.3544921875" y="11.421337890625" stroke="none" text-anchor="start">'Bob'</text><text xml:space="preserve" x="39.74267578125" y="27.021337890625" stroke="none" text-anchor="end">age:</text><text xml:space="preserve" x="43.3544921875" y="27.021337890625" stroke="none" text-anchor="start">25</text><text xml:space="preserve" x="39.74267578125" y="42.621337890625" stroke="none" text-anchor="end">eyes:</text><text xml:space="preserve" x="43.3544921875" y="42.621337890625" stroke="none" text-anchor="start">'Blue'</text></g></g></g></g></g></g><g class="node"><g fill="#ffffff" stroke="#006FD6" stroke-width="4"><circle cx="78.63556465461365" cy="-674.2405068988672" r="52"/></g><g transform="translate(78.63556465461365 -674.2405068988672)"><g transform="scale(0.7771579273885522) translate(0 -19)"><g transform="translate(0 0)"><g transform="translate(-54.697265625 0)"><g fill="#000000" stroke="#000000" stroke-width="4" font-family="sans-serif" font-size="24" font-weight="normal"><text xml:space="preserve" x="0" y="25.685546875" stroke="none">Developer</text></g></g></g></g><g transform="translate(56 -23.4)"><g transform="translate(0 0)"><g transform="translate(0 0)" fill="white"><rect x="0" y="0" width="88.7783203125" height="46.8" rx="0" ry="0" stroke="none"/><g font-family="sans-serif" font-size="13" font-weight="normal" fill="#535B66" text-anchor="end"><text xml:space="preserve" x="39.74267578125" y="11.421337890625" stroke="none">name:</text><text xml:space="preserve" x="43.3544921875" y="11.421337890625" stroke="none" text-anchor="start">'Alice'</text><text xml:space="preserve" x="39.74267578125" y="27.021337890625" stroke="none" text-anchor="end">age:</text><text xml:space="preserve" x="43.3544921875" y="27.021337890625" stroke="none" text-anchor="start">38</text><text xml:space="preserve" x="39.74267578125" y="42.621337890625" stroke="none" text-anchor="end">eyes:</text><text xml:space="preserve" x="43.3544921875" y="42.621337890625" stroke="none" text-anchor="start">'Brown'</text></g></g></g></g></g></g><g class="node"><g fill="#ffffff" stroke="#006FD6" stroke-width="4"><circle cx="-226.7646560260402" cy="-412.1548991721332" r="52"/></g><g transform="translate(-226.7646560260402 -412.1548991721332)"><g transform="scale(0.37231065276914505) translate(0 -27)"><g transform="translate(0 0)"><g transform="translate(-117.8125 0)"><g fill="#000000" stroke="#000000" stroke-width="4" font-family="sans-serif" font-size="40" font-weight="normal"><text xml:space="preserve" x="0" y="38.142578125" stroke="none">Administrator</text></g></g></g></g><g transform="translate(3.429011037612589e-15 56)"><g transform="translate(0 0)"><g transform="translate(-44.392333984375 0)" fill="white"><rect x="0" y="0" width="88.78466796875" height="46.8" rx="0" ry="0" stroke="none"/><g font-family="sans-serif" font-size="13" font-weight="normal" fill="#535B66" text-anchor="end"><text xml:space="preserve" x="39.74267578125" y="11.421337890625" stroke="none">name:</text><text xml:space="preserve" x="43.3544921875" y="11.421337890625" stroke="none" text-anchor="start">'Daniel'</text><text xml:space="preserve" x="39.74267578125" y="27.021337890625" stroke="none" text-anchor="end">age:</text><text xml:space="preserve" x="43.3544921875" y="27.021337890625" stroke="none" text-anchor="start">53</text><text xml:space="preserve" x="39.74267578125" y="42.621337890625" stroke="none" text-anchor="end">eyes:</text><text xml:space="preserve" x="43.3544921875" y="42.621337890625" stroke="none" text-anchor="start">'Brown'</text></g></g></g></g></g></g><g class="node"><g fill="#ffffff" stroke="#006FD6" stroke-width="4"><circle cx="384.03578533526746" cy="-412.1548991721332" r="52"/></g><g transform="translate(384.03578533526746 -412.1548991721332)"><g transform="scale(0.8713258671071918) translate(0 -19)"><g transform="translate(0 0)"><g transform="translate(-48.0234375 0)"><g fill="#000000" stroke="#000000" stroke-width="4" font-family="sans-serif" font-size="24" font-weight="normal"><text xml:space="preserve" x="0" y="25.685546875" stroke="none">Designer</text></g></g></g></g><g transform="translate(3.429011037612589e-15 56)"><g transform="translate(0 0)"><g transform="translate(-104.745849609375 0)" fill="white"><rect x="0" y="0" width="209.49169921875" height="62.4" rx="0" ry="0" stroke="none"/><g font-family="sans-serif" font-size="13" font-weight="normal" fill="#535B66" text-anchor="end"><text xml:space="preserve" x="71.525390625" y="11.421337890625" stroke="none">name:</text><text xml:space="preserve" x="75.13720703125" y="11.421337890625" stroke="none" text-anchor="start">'Eskil'</text><text xml:space="preserve" x="71.525390625" y="27.021337890625" stroke="none" text-anchor="end">age:</text><text xml:space="preserve" x="75.13720703125" y="27.021337890625" stroke="none" text-anchor="start">41</text><text xml:space="preserve" x="71.525390625" y="42.621337890625" stroke="none" text-anchor="end">eyes:</text><text xml:space="preserve" x="75.13720703125" y="42.621337890625" stroke="none" text-anchor="start">'Blue'</text><text xml:space="preserve" x="71.525390625" y="58.221337890625" stroke="none" text-anchor="end">likedColors:</text><text xml:space="preserve" x="75.13720703125" y="58.221337890625" stroke="none" text-anchor="start">['Pink', 'Yellow', 'Black']</text></g></g></g></g></g></g></g></svg>