<?xml version="1.0" encoding="UTF-8" standalone="no"?>
<!DOCTYPE svg PUBLIC "-//W3C//DTD SVG 1.1//EN"
 "http://www.w3.org/Graphics/SVG/1.1/DTD/svg11.dtd">
<!-- Generated by graphviz version 2.49.3 (20211027.1534)
 -->
<!-- Title: L Pages: 1 -->
<svg width="234pt" height="263pt"
 viewBox="0.00 0.00 233.50 263.00" xmlns="http://www.w3.org/2000/svg" xmlns:xlink="http://www.w3.org/1999/xlink">
<g id="graph0" class="graph" transform="scale(1 1) rotate(0) translate(4 259)">
<title>L</title>
<polygon fill="white" stroke="transparent" points="-4,4 -4,-259 229.5,-259 229.5,4 -4,4"/>
<!-- N0 -->
<g id="node1" class="node">
<title>N0</title>
<path fill="none" stroke="black" d="M136.5,-90.5C136.5,-90.5 210.5,-90.5 210.5,-90.5 216.5,-90.5 222.5,-96.5 222.5,-102.5 222.5,-102.5 222.5,-154.5 222.5,-154.5 222.5,-160.5 216.5,-166.5 210.5,-166.5 210.5,-166.5 136.5,-166.5 136.5,-166.5 130.5,-166.5 124.5,-160.5 124.5,-154.5 124.5,-154.5 124.5,-102.5 124.5,-102.5 124.5,-96.5 130.5,-90.5 136.5,-90.5"/>
<text text-anchor="middle" x="173.5" y="-151.3" font-family="Times,serif" font-size="14.00">Swedish</text>
<polyline fill="none" stroke="black" points="124.5,-143.5 222.5,-143.5 "/>
<text text-anchor="start" x="132.5" y="-128.3" font-family="Times,serif" font-size="14.00">name = &#39;Andy&#39;</text>
<text text-anchor="start" x="132.5" y="-113.3" font-family="Times,serif" font-size="14.00">age = 36</text>
<text text-anchor="start" x="132.5" y="-98.3" font-family="Times,serif" font-size="14.00">hungry = true</text>
</g>
<!-- N2 -->
<g id="node2" class="node">
<title>N2</title>
<path fill="none" stroke="black" d="M55,-0.5C55,-0.5 126,-0.5 126,-0.5 132,-0.5 138,-6.5 138,-12.5 138,-12.5 138,-26.5 138,-26.5 138,-32.5 132,-38.5 126,-38.5 126,-38.5 55,-38.5 55,-38.5 49,-38.5 43,-32.5 43,-26.5 43,-26.5 43,-12.5 43,-12.5 43,-6.5 49,-0.5 55,-0.5"/>
<text text-anchor="start" x="51" y="-23.3" font-family="Times,serif" font-size="14.00">name = &#39;Peter&#39;</text>
<text text-anchor="start" x="51" y="-8.3" font-family="Times,serif" font-size="14.00">age = 34</text>
</g>
<!-- N0&#45;&gt;N2 -->
<g id="edge1" class="edge">
<title>N0&#45;&gt;N2</title>
<path fill="none" stroke="#2e3436" d="M152.19,-90.49C145.16,-79.34 136.97,-67.33 128.5,-57 125.4,-53.22 121.94,-49.43 118.4,-45.79"/>
<polygon fill="#2e3436" stroke="#2e3436" points="120.7,-43.14 111.13,-38.61 115.78,-48.13 120.7,-43.14"/>
<text text-anchor="middle" x="165.5" y="-60.8" font-family="Times,serif" font-size="14.00" fill="#2e3436">KNOWS</text>
</g>
<!-- N1 -->
<g id="node3" class="node">
<title>N1</title>
<path fill="none" stroke="black" d="M134.5,-218.5C134.5,-218.5 212.5,-218.5 212.5,-218.5 218.5,-218.5 224.5,-224.5 224.5,-230.5 224.5,-230.5 224.5,-242.5 224.5,-242.5 224.5,-248.5 218.5,-254.5 212.5,-254.5 212.5,-254.5 134.5,-254.5 134.5,-254.5 128.5,-254.5 122.5,-248.5 122.5,-242.5 122.5,-242.5 122.5,-230.5 122.5,-230.5 122.5,-224.5 128.5,-218.5 134.5,-218.5"/>
<text text-anchor="start" x="130.5" y="-232.8" font-family="Times,serif" font-size="14.00">name = &#39;Stefan&#39;</text>
</g>
<!-- N1&#45;&gt;N0 -->
<g id="edge2" class="edge">
<title>N1&#45;&gt;N0</title>
<path fill="none" stroke="#2e3436" d="M173.5,-218.47C173.5,-207.15 173.5,-191.69 173.5,-176.83"/>
<polygon fill="#2e3436" stroke="#2e3436" points="177,-176.7 173.5,-166.7 170,-176.7 177,-176.7"/>
<text text-anchor="middle" x="199.5" y="-188.8" font-family="Times,serif" font-size="14.00" fill="#2e3436">KNOWS</text>
</g>
<!-- N3 -->
<g id="node4" class="node">
<title>N3</title>
<path fill="none" stroke="black" d="M12,-110.5C12,-110.5 95,-110.5 95,-110.5 101,-110.5 107,-116.5 107,-122.5 107,-122.5 107,-134.5 107,-134.5 107,-140.5 101,-146.5 95,-146.5 95,-146.5 12,-146.5 12,-146.5 6,-146.5 0,-140.5 0,-134.5 0,-134.5 0,-122.5 0,-122.5 0,-116.5 6,-110.5 12,-110.5"/>
<text text-anchor="start" x="8" y="-124.8" font-family="Times,serif" font-size="14.00">name = &#39;George&#39;</text>
</g>
<!-- N3&#45;&gt;N2 -->
<g id="edge3" class="edge">
<title>N3&#45;&gt;N2</title>
<path fill="none" stroke="#2e3436" d="M58.83,-110.32C63.35,-96 70.09,-75.08 76.5,-57 77.53,-54.09 78.64,-51.06 79.77,-48.04"/>
<polygon fill="#2e3436" stroke="#2e3436" points="83.06,-49.22 83.34,-38.63 76.52,-46.73 83.06,-49.22"/>
<text text-anchor="middle" x="102.5" y="-60.8" font-family="Times,serif" font-size="14.00" fill="#2e3436">KNOWS</text>
</g>
</g>
</svg>
