<?xml version="1.0" encoding="UTF-8" standalone="no"?>
<!DOCTYPE svg PUBLIC "-//W3C//DTD SVG 1.1//EN"
 "http://www.w3.org/Graphics/SVG/1.1/DTD/svg11.dtd">
<!-- Generated by graphviz version 2.49.3 (20211027.1534)
 -->
<!-- Title: L Pages: 1 -->
<svg width="959pt" height="266pt"
 viewBox="0.00 0.00 958.50 266.00" xmlns="http://www.w3.org/2000/svg" xmlns:xlink="http://www.w3.org/1999/xlink">
<g id="graph0" class="graph" transform="scale(1 1) rotate(0) translate(4 262)">
<title>L</title>
<polygon fill="white" stroke="transparent" points="-4,4 -4,-262 954.5,-262 954.5,4 -4,4"/>
<!-- N0 -->
<g id="node1" class="node">
<title>N0</title>
<path fill="none" stroke="black" d="M817.5,-113.5C817.5,-113.5 938.5,-113.5 938.5,-113.5 944.5,-113.5 950.5,-119.5 950.5,-125.5 950.5,-125.5 950.5,-147.5 950.5,-147.5 950.5,-153.5 944.5,-159.5 938.5,-159.5 938.5,-159.5 817.5,-159.5 817.5,-159.5 811.5,-159.5 805.5,-153.5 805.5,-147.5 805.5,-147.5 805.5,-125.5 805.5,-125.5 805.5,-119.5 811.5,-113.5 817.5,-113.5"/>
<text text-anchor="middle" x="878" y="-144.3" font-family="Times,serif" font-size="14.00">Person</text>
<polyline fill="none" stroke="black" points="805.5,-136.5 950.5,-136.5 "/>
<text text-anchor="start" x="813.5" y="-121.3" font-family="Times,serif" font-size="14.00">name = &#39;Charlie Sheen&#39;</text>
</g>
<!-- N5 -->
<g id="node2" class="node">
<title>N5</title>
<path fill="none" stroke="black" d="M629.5,-0.5C629.5,-0.5 726.5,-0.5 726.5,-0.5 732.5,-0.5 738.5,-6.5 738.5,-12.5 738.5,-12.5 738.5,-34.5 738.5,-34.5 738.5,-40.5 732.5,-46.5 726.5,-46.5 726.5,-46.5 629.5,-46.5 629.5,-46.5 623.5,-46.5 617.5,-40.5 617.5,-34.5 617.5,-34.5 617.5,-12.5 617.5,-12.5 617.5,-6.5 623.5,-0.5 629.5,-0.5"/>
<text text-anchor="middle" x="678" y="-31.3" font-family="Times,serif" font-size="14.00">Movie</text>
<polyline fill="none" stroke="black" points="617.5,-23.5 738.5,-23.5 "/>
<text text-anchor="start" x="625.5" y="-8.3" font-family="Times,serif" font-size="14.00">title = &#39;Wall Street&#39;</text>
</g>
<!-- N0&#45;&gt;N5 -->
<g id="edge1" class="edge">
<title>N0&#45;&gt;N5</title>
<path fill="none" stroke="#2e3436" d="M855.53,-113.38C839.05,-98.13 815.54,-78.29 792,-65 778.42,-57.33 763.13,-50.71 748.27,-45.16"/>
<polygon fill="#2e3436" stroke="#2e3436" points="749.17,-41.77 738.58,-41.68 746.8,-48.36 749.17,-41.77"/>
<text text-anchor="middle" x="879.5" y="-83.8" font-family="Times,serif" font-size="14.00" fill="#2e3436">ACTED_IN</text>
<text text-anchor="start" x="834" y="-68.8" font-family="Times,serif" font-size="14.00" fill="#2e3436">role = &#39;Bud Fox&#39;</text>
</g>
<!-- N1 -->
<g id="node3" class="node">
<title>N1</title>
<path fill="none" stroke="black" d="M430.5,-113.5C430.5,-113.5 547.5,-113.5 547.5,-113.5 553.5,-113.5 559.5,-119.5 559.5,-125.5 559.5,-125.5 559.5,-147.5 559.5,-147.5 559.5,-153.5 553.5,-159.5 547.5,-159.5 547.5,-159.5 430.5,-159.5 430.5,-159.5 424.5,-159.5 418.5,-153.5 418.5,-147.5 418.5,-147.5 418.5,-125.5 418.5,-125.5 418.5,-119.5 424.5,-113.5 430.5,-113.5"/>
<text text-anchor="middle" x="489" y="-144.3" font-family="Times,serif" font-size="14.00">Person</text>
<polyline fill="none" stroke="black" points="418.5,-136.5 559.5,-136.5 "/>
<text text-anchor="start" x="426.5" y="-121.3" font-family="Times,serif" font-size="14.00">name = &#39;Martin Sheen&#39;</text>
</g>
<!-- N1&#45;&gt;N5 -->
<g id="edge3" class="edge">
<title>N1&#45;&gt;N5</title>
<path fill="none" stroke="#2e3436" d="M559.55,-117.31C573.53,-111.64 587.44,-104.34 599,-95 611.28,-85.08 607,-76.32 618,-65 622.15,-60.73 626.82,-56.65 631.68,-52.84"/>
<polygon fill="#2e3436" stroke="#2e3436" points="634.02,-55.46 639.97,-46.69 629.85,-49.83 634.02,-55.46"/>
<text text-anchor="middle" x="664" y="-83.8" font-family="Times,serif" font-size="14.00" fill="#2e3436">ACTED_IN</text>
<text text-anchor="start" x="618" y="-68.8" font-family="Times,serif" font-size="14.00" fill="#2e3436">role = &#39;Carl Fox&#39;</text>
</g>
<!-- N6 -->
<g id="node4" class="node">
<title>N6</title>
<path fill="none" stroke="black" d="M12,-0.5C12,-0.5 180,-0.5 180,-0.5 186,-0.5 192,-6.5 192,-12.5 192,-12.5 192,-34.5 192,-34.5 192,-40.5 186,-46.5 180,-46.5 180,-46.5 12,-46.5 12,-46.5 6,-46.5 0,-40.5 0,-34.5 0,-34.5 0,-12.5 0,-12.5 0,-6.5 6,-0.5 12,-0.5"/>
<text text-anchor="middle" x="96" y="-31.3" font-family="Times,serif" font-size="14.00">Movie</text>
<polyline fill="none" stroke="black" points="0,-23.5 192,-23.5 "/>
<text text-anchor="start" x="8" y="-8.3" font-family="Times,serif" font-size="14.00">title = &#39;The American President&#39;</text>
</g>
<!-- N1&#45;&gt;N6 -->
<g id="edge2" class="edge">
<title>N1&#45;&gt;N6</title>
<path fill="none" stroke="#2e3436" d="M472.82,-113.38C468.58,-107.46 464.06,-101.02 460,-95 451.18,-81.91 454.36,-73.4 441,-65 402.33,-40.67 288.6,-30.96 202.2,-27.08"/>
<polygon fill="#2e3436" stroke="#2e3436" points="202.21,-23.57 192.07,-26.64 201.91,-30.57 202.21,-23.57"/>
<text text-anchor="middle" x="527.5" y="-83.8" font-family="Times,serif" font-size="14.00" fill="#2e3436">ACTED_IN</text>
<text text-anchor="start" x="460" y="-68.8" font-family="Times,serif" font-size="14.00" fill="#2e3436">role = &#39;A.J. MacInerney&#39;</text>
</g>
<!-- N2 -->
<g id="node5" class="node">
<title>N2</title>
<path fill="none" stroke="black" d="M219.5,-113.5C219.5,-113.5 356.5,-113.5 356.5,-113.5 362.5,-113.5 368.5,-119.5 368.5,-125.5 368.5,-125.5 368.5,-147.5 368.5,-147.5 368.5,-153.5 362.5,-159.5 356.5,-159.5 356.5,-159.5 219.5,-159.5 219.5,-159.5 213.5,-159.5 207.5,-153.5 207.5,-147.5 207.5,-147.5 207.5,-125.5 207.5,-125.5 207.5,-119.5 213.5,-113.5 219.5,-113.5"/>
<text text-anchor="middle" x="288" y="-144.3" font-family="Times,serif" font-size="14.00">Person</text>
<polyline fill="none" stroke="black" points="207.5,-136.5 368.5,-136.5 "/>
<text text-anchor="start" x="215.5" y="-121.3" font-family="Times,serif" font-size="14.00">name = &#39;Michael Douglas&#39;</text>
</g>
<!-- N2&#45;&gt;N5 -->
<g id="edge4" class="edge">
<title>N2&#45;&gt;N5</title>
<path fill="none" stroke="#2e3436" d="M290.73,-113.43C293.95,-97.38 300.93,-76.51 316,-65 360.27,-31.2 515,-24.74 607.23,-24"/>
<polygon fill="#2e3436" stroke="#2e3436" points="607.35,-27.5 617.33,-23.94 607.31,-20.5 607.35,-27.5"/>
<text text-anchor="middle" x="378.5" y="-83.8" font-family="Times,serif" font-size="14.00" fill="#2e3436">ACTED_IN</text>
<text text-anchor="start" x="316" y="-68.8" font-family="Times,serif" font-size="14.00" fill="#2e3436">role = &#39;Gordon Gekko&#39;</text>
</g>
<!-- N2&#45;&gt;N6 -->
<g id="edge5" class="edge">
<title>N2&#45;&gt;N6</title>
<path fill="none" stroke="#2e3436" d="M207.33,-123.2C158.55,-114.94 104.37,-103.97 97,-95 88.41,-84.55 87.05,-70 88.28,-56.82"/>
<polygon fill="#2e3436" stroke="#2e3436" points="91.78,-57.05 89.73,-46.65 84.85,-56.06 91.78,-57.05"/>
<text text-anchor="middle" x="195" y="-83.8" font-family="Times,serif" font-size="14.00" fill="#2e3436">ACTED_IN</text>
<text text-anchor="start" x="97" y="-68.8" font-family="Times,serif" font-size="14.00" fill="#2e3436">role = &#39;President Andrew Shepherd&#39;</text>
</g>
<!-- N3 -->
<g id="node6" class="node">
<title>N3</title>
<path fill="none" stroke="black" d="M662.5,-113.5C662.5,-113.5 775.5,-113.5 775.5,-113.5 781.5,-113.5 787.5,-119.5 787.5,-125.5 787.5,-125.5 787.5,-147.5 787.5,-147.5 787.5,-153.5 781.5,-159.5 775.5,-159.5 775.5,-159.5 662.5,-159.5 662.5,-159.5 656.5,-159.5 650.5,-153.5 650.5,-147.5 650.5,-147.5 650.5,-125.5 650.5,-125.5 650.5,-119.5 656.5,-113.5 662.5,-113.5"/>
<text text-anchor="middle" x="719" y="-144.3" font-family="Times,serif" font-size="14.00">Person</text>
<polyline fill="none" stroke="black" points="650.5,-136.5 787.5,-136.5 "/>
<text text-anchor="start" x="658.5" y="-121.3" font-family="Times,serif" font-size="14.00">name = &#39;Oliver Stone&#39;</text>
</g>
<!-- N3&#45;&gt;N5 -->
<g id="edge6" class="edge">
<title>N3&#45;&gt;N5</title>
<path fill="none" stroke="#4e9a06" d="M721.02,-113.37C721.47,-99.04 720.43,-80.27 714,-65 712.53,-61.5 710.62,-58.1 708.46,-54.85"/>
<polygon fill="#4e9a06" stroke="#4e9a06" points="711.07,-52.5 702.25,-46.64 705.49,-56.73 711.07,-52.5"/>
<text text-anchor="middle" x="754" y="-76.3" font-family="Times,serif" font-size="14.00" fill="#4e9a06">DIRECTED</text>
</g>
<!-- N4 -->
<g id="node7" class="node">
<title>N4</title>
<path fill="none" stroke="black" d="M26,-211.5C26,-211.5 132,-211.5 132,-211.5 138,-211.5 144,-217.5 144,-223.5 144,-223.5 144,-245.5 144,-245.5 144,-251.5 138,-257.5 132,-257.5 132,-257.5 26,-257.5 26,-257.5 20,-257.5 14,-251.5 14,-245.5 14,-245.5 14,-223.5 14,-223.5 14,-217.5 20,-211.5 26,-211.5"/>
<text text-anchor="middle" x="79" y="-242.3" font-family="Times,serif" font-size="14.00">Person</text>
<polyline fill="none" stroke="black" points="14,-234.5 144,-234.5 "/>
<text text-anchor="start" x="22" y="-219.3" font-family="Times,serif" font-size="14.00">name = &#39;Rob Reiner&#39;</text>
</g>
<!-- N4&#45;&gt;N0 -->
<g id="edge7" class="edge">
<title>N4&#45;&gt;N0</title>
<path fill="none" stroke="#a40000" d="M144.38,-230.51C269.46,-223.98 551.21,-205.41 795.16,-160.22"/>
<polygon fill="#a40000" stroke="#a40000" points="796.09,-163.6 805.28,-158.32 794.81,-156.72 796.09,-163.6"/>
<text text-anchor="middle" x="768" y="-181.8" font-family="Times,serif" font-size="14.00" fill="#a40000">TYPE INCLUDING A SPACE</text>
</g>
<!-- N4&#45;&gt;N6 -->
<g id="edge8" class="edge">
<title>N4&#45;&gt;N6</title>
<path fill="none" stroke="#4e9a06" d="M77.85,-211.25C76.58,-178.84 75.69,-116.87 84,-65 84.46,-62.15 85.06,-59.22 85.75,-56.3"/>
<polygon fill="#4e9a06" stroke="#4e9a06" points="89.15,-57.11 88.35,-46.54 82.39,-55.3 89.15,-57.11"/>
<text text-anchor="middle" x="113" y="-132.8" font-family="Times,serif" font-size="14.00" fill="#4e9a06">DIRECTED</text>
</g>
</g>
</svg>
