<?xml version="1.0" encoding="UTF-8" standalone="no"?>
<!DOCTYPE svg PUBLIC "-//W3C//DTD SVG 1.1//EN"
 "http://www.w3.org/Graphics/SVG/1.1/DTD/svg11.dtd">
<!-- Generated by graphviz version 2.49.3 (20211027.1534)
 -->
<!-- Title: L Pages: 1 -->
<svg width="501pt" height="439pt"
 viewBox="0.00 0.00 501.00 439.00" xmlns="http://www.w3.org/2000/svg" xmlns:xlink="http://www.w3.org/1999/xlink">
<g id="graph0" class="graph" transform="scale(1 1) rotate(0) translate(4 435)">
<title>L</title>
<polygon fill="white" stroke="transparent" points="-4,4 -4,-435 497,-435 497,4 -4,4"/>
<!-- N0 -->
<g id="node1" class="node">
<title>N0</title>
<path fill="none" stroke="black" d="M172.5,-354.5C172.5,-354.5 253.5,-354.5 253.5,-354.5 259.5,-354.5 265.5,-360.5 265.5,-366.5 265.5,-366.5 265.5,-418.5 265.5,-418.5 265.5,-424.5 259.5,-430.5 253.5,-430.5 253.5,-430.5 172.5,-430.5 172.5,-430.5 166.5,-430.5 160.5,-424.5 160.5,-418.5 160.5,-418.5 160.5,-366.5 160.5,-366.5 160.5,-360.5 166.5,-354.5 172.5,-354.5"/>
<text text-anchor="middle" x="213" y="-415.3" font-family="Times,serif" font-size="14.00">Swedish, Person</text>
<polyline fill="none" stroke="black" points="160.5,-407.5 265.5,-407.5 "/>
<text text-anchor="start" x="168.5" y="-392.3" font-family="Times,serif" font-size="14.00">name = &#39;Andy&#39;</text>
<text text-anchor="start" x="168.5" y="-377.3" font-family="Times,serif" font-size="14.00">age = 36</text>
<text text-anchor="start" x="168.5" y="-362.3" font-family="Times,serif" font-size="14.00">belt = &#39;white&#39;</text>
</g>
<!-- N3 -->
<g id="node2" class="node">
<title>N3</title>
<path fill="none" stroke="black" d="M12,-226.5C12,-226.5 86,-226.5 86,-226.5 92,-226.5 98,-232.5 98,-238.5 98,-238.5 98,-260.5 98,-260.5 98,-266.5 92,-272.5 86,-272.5 86,-272.5 12,-272.5 12,-272.5 6,-272.5 0,-266.5 0,-260.5 0,-260.5 0,-238.5 0,-238.5 0,-232.5 6,-226.5 12,-226.5"/>
<text text-anchor="middle" x="49" y="-257.3" font-family="Times,serif" font-size="14.00">Dog</text>
<polyline fill="none" stroke="black" points="0,-249.5 98,-249.5 "/>
<text text-anchor="start" x="8" y="-234.3" font-family="Times,serif" font-size="14.00">name = &#39;Andy&#39;</text>
</g>
<!-- N0&#45;&gt;N3 -->
<g id="edge1" class="edge">
<title>N0&#45;&gt;N3</title>
<path fill="none" stroke="#2e3436" d="M161.09,-354.44C153.22,-348.44 145.3,-342.17 138,-336 117.13,-318.38 94.98,-297.11 77.99,-280.19"/>
<polygon fill="#2e3436" stroke="#2e3436" points="80.12,-277.36 70.58,-272.75 75.16,-282.3 80.12,-277.36"/>
<text text-anchor="middle" x="173.5" y="-324.8" font-family="Times,serif" font-size="14.00" fill="#2e3436">HAS_DOG</text>
<text text-anchor="start" x="138" y="-309.8" font-family="Times,serif" font-size="14.00" fill="#2e3436">since = 2016</text>
</g>
<!-- N2 -->
<g id="node3" class="node">
<title>N2</title>
<path fill="none" stroke="black" d="M127.5,-211.5C127.5,-211.5 298.5,-211.5 298.5,-211.5 304.5,-211.5 310.5,-217.5 310.5,-223.5 310.5,-223.5 310.5,-275.5 310.5,-275.5 310.5,-281.5 304.5,-287.5 298.5,-287.5 298.5,-287.5 127.5,-287.5 127.5,-287.5 121.5,-287.5 115.5,-281.5 115.5,-275.5 115.5,-275.5 115.5,-223.5 115.5,-223.5 115.5,-217.5 121.5,-211.5 127.5,-211.5"/>
<text text-anchor="middle" x="213" y="-272.3" font-family="Times,serif" font-size="14.00">Person</text>
<polyline fill="none" stroke="black" points="115.5,-264.5 310.5,-264.5 "/>
<text text-anchor="start" x="123.5" y="-249.3" font-family="Times,serif" font-size="14.00">name = &#39;Peter&#39;</text>
<text text-anchor="start" x="123.5" y="-234.3" font-family="Times,serif" font-size="14.00">email = &#39;peter_n@example.com&#39;</text>
<text text-anchor="start" x="123.5" y="-219.3" font-family="Times,serif" font-size="14.00">age = 35</text>
</g>
<!-- N0&#45;&gt;N2 -->
<g id="edge2" class="edge">
<title>N0&#45;&gt;N2</title>
<path fill="none" stroke="#4e9a06" d="M213,-354.45C213,-337.19 213,-316.43 213,-298.02"/>
<polygon fill="#4e9a06" stroke="#4e9a06" points="216.5,-297.79 213,-287.79 209.5,-297.79 216.5,-297.79"/>
<text text-anchor="middle" x="248.5" y="-324.8" font-family="Times,serif" font-size="14.00" fill="#4e9a06">KNOWS</text>
<text text-anchor="start" x="213" y="-309.8" font-family="Times,serif" font-size="14.00" fill="#4e9a06">since = 1999</text>
</g>
<!-- N1 -->
<g id="node4" class="node">
<title>N1</title>
<path fill="none" stroke="black" d="M341,-211.5C341,-211.5 481,-211.5 481,-211.5 487,-211.5 493,-217.5 493,-223.5 493,-223.5 493,-275.5 493,-275.5 493,-281.5 487,-287.5 481,-287.5 481,-287.5 341,-287.5 341,-287.5 335,-287.5 329,-281.5 329,-275.5 329,-275.5 329,-223.5 329,-223.5 329,-217.5 335,-211.5 341,-211.5"/>
<text text-anchor="middle" x="411" y="-272.3" font-family="Times,serif" font-size="14.00">Person</text>
<polyline fill="none" stroke="black" points="329,-264.5 493,-264.5 "/>
<text text-anchor="start" x="337" y="-249.3" font-family="Times,serif" font-size="14.00">age = 25</text>
<text text-anchor="start" x="337" y="-234.3" font-family="Times,serif" font-size="14.00">address = &#39;Sweden/Malmo&#39;</text>
<text text-anchor="start" x="337" y="-219.3" font-family="Times,serif" font-size="14.00">name = &#39;Timothy&#39;</text>
</g>
<!-- N0&#45;&gt;N1 -->
<g id="edge3" class="edge">
<title>N0&#45;&gt;N1</title>
<path fill="none" stroke="#4e9a06" d="M265.02,-354.45C291.29,-335.75 323.31,-312.95 350.66,-293.47"/>
<polygon fill="#4e9a06" stroke="#4e9a06" points="352.87,-296.19 358.98,-287.54 348.81,-290.49 352.87,-296.19"/>
<text text-anchor="middle" x="365.5" y="-324.8" font-family="Times,serif" font-size="14.00" fill="#4e9a06">KNOWS</text>
<text text-anchor="start" x="330" y="-309.8" font-family="Times,serif" font-size="14.00" fill="#4e9a06">since = 2012</text>
</g>
<!-- N4 -->
<g id="node5" class="node">
<title>N4</title>
<path fill="none" stroke="black" d="M117.5,-98.5C117.5,-98.5 186.5,-98.5 186.5,-98.5 192.5,-98.5 198.5,-104.5 198.5,-110.5 198.5,-110.5 198.5,-132.5 198.5,-132.5 198.5,-138.5 192.5,-144.5 186.5,-144.5 186.5,-144.5 117.5,-144.5 117.5,-144.5 111.5,-144.5 105.5,-138.5 105.5,-132.5 105.5,-132.5 105.5,-110.5 105.5,-110.5 105.5,-104.5 111.5,-98.5 117.5,-98.5"/>
<text text-anchor="middle" x="152" y="-129.3" font-family="Times,serif" font-size="14.00">Dog</text>
<polyline fill="none" stroke="black" points="105.5,-121.5 198.5,-121.5 "/>
<text text-anchor="start" x="113.5" y="-106.3" font-family="Times,serif" font-size="14.00">name = &#39;Fido&#39;</text>
</g>
<!-- N2&#45;&gt;N4 -->
<g id="edge4" class="edge">
<title>N2&#45;&gt;N4</title>
<path fill="none" stroke="#2e3436" d="M173.5,-211.3C169.04,-205.55 165.02,-199.39 162,-193 156.42,-181.22 153.74,-167.17 152.52,-154.74"/>
<polygon fill="#2e3436" stroke="#2e3436" points="156.01,-154.48 151.81,-144.75 149.03,-154.98 156.01,-154.48"/>
<text text-anchor="middle" x="197.5" y="-181.8" font-family="Times,serif" font-size="14.00" fill="#2e3436">HAS_DOG</text>
<text text-anchor="start" x="162" y="-166.8" font-family="Times,serif" font-size="14.00" fill="#2e3436">since = 2010</text>
</g>
<!-- N5 -->
<g id="node6" class="node">
<title>N5</title>
<path fill="none" stroke="black" d="M228.5,-98.5C228.5,-98.5 301.5,-98.5 301.5,-98.5 307.5,-98.5 313.5,-104.5 313.5,-110.5 313.5,-110.5 313.5,-132.5 313.5,-132.5 313.5,-138.5 307.5,-144.5 301.5,-144.5 301.5,-144.5 228.5,-144.5 228.5,-144.5 222.5,-144.5 216.5,-138.5 216.5,-132.5 216.5,-132.5 216.5,-110.5 216.5,-110.5 216.5,-104.5 222.5,-98.5 228.5,-98.5"/>
<text text-anchor="middle" x="265" y="-129.3" font-family="Times,serif" font-size="14.00">Dog</text>
<polyline fill="none" stroke="black" points="216.5,-121.5 313.5,-121.5 "/>
<text text-anchor="start" x="224.5" y="-106.3" font-family="Times,serif" font-size="14.00">name = &#39;Ozzy&#39;</text>
</g>
<!-- N2&#45;&gt;N5 -->
<g id="edge5" class="edge">
<title>N2&#45;&gt;N5</title>
<path fill="none" stroke="#2e3436" d="M229.29,-211.25C231.9,-205.16 234.55,-198.92 237,-193 242.25,-180.33 247.87,-166.3 252.68,-154.11"/>
<polygon fill="#2e3436" stroke="#2e3436" points="255.94,-155.38 256.34,-144.8 249.43,-152.82 255.94,-155.38"/>
<text text-anchor="middle" x="284.5" y="-181.8" font-family="Times,serif" font-size="14.00" fill="#2e3436">HAS_DOG</text>
<text text-anchor="start" x="249" y="-166.8" font-family="Times,serif" font-size="14.00" fill="#2e3436">since = 2018</text>
</g>
<!-- N6 -->
<g id="node7" class="node">
<title>N6</title>
<path fill="none" stroke="black" d="M110,-0.5C110,-0.5 194,-0.5 194,-0.5 200,-0.5 206,-6.5 206,-12.5 206,-12.5 206,-34.5 206,-34.5 206,-40.5 200,-46.5 194,-46.5 194,-46.5 110,-46.5 110,-46.5 104,-46.5 98,-40.5 98,-34.5 98,-34.5 98,-12.5 98,-12.5 98,-6.5 104,-0.5 110,-0.5"/>
<text text-anchor="middle" x="152" y="-31.3" font-family="Times,serif" font-size="14.00">Toy</text>
<polyline fill="none" stroke="black" points="98,-23.5 206,-23.5 "/>
<text text-anchor="start" x="106" y="-8.3" font-family="Times,serif" font-size="14.00">name = &#39;Banana&#39;</text>
</g>
<!-- N4&#45;&gt;N6 -->
<g id="edge6" class="edge">
<title>N4&#45;&gt;N6</title>
<path fill="none" stroke="#a40000" d="M152,-98.23C152,-86 152,-70.59 152,-57.03"/>
<polygon fill="#a40000" stroke="#a40000" points="155.5,-56.64 152,-46.64 148.5,-56.64 155.5,-56.64"/>
<text text-anchor="middle" x="183.5" y="-68.8" font-family="Times,serif" font-size="14.00" fill="#a40000">HAS_TOY</text>
</g>
</g>
</svg>
