<?xml version="1.0" encoding="UTF-8" standalone="no"?>
<!DOCTYPE svg PUBLIC "-//W3C//DTD SVG 1.1//EN"
 "http://www.w3.org/Graphics/SVG/1.1/DTD/svg11.dtd">
<!-- Generated by graphviz version 2.49.3 (20211027.1534)
 -->
<!-- Title: L Pages: 1 -->
<svg width="737pt" height="251pt"
 viewBox="0.00 0.00 736.50 251.00" xmlns="http://www.w3.org/2000/svg" xmlns:xlink="http://www.w3.org/1999/xlink">
<g id="graph0" class="graph" transform="scale(1 1) rotate(0) translate(4 247)">
<title>L</title>
<polygon fill="white" stroke="transparent" points="-4,4 -4,-247 732.5,-247 732.5,4 -4,4"/>
<!-- N0 -->
<g id="node1" class="node">
<title>N0</title>
<path fill="none" stroke="black" d="M308,-196.5C308,-196.5 429,-196.5 429,-196.5 435,-196.5 441,-202.5 441,-208.5 441,-208.5 441,-230.5 441,-230.5 441,-236.5 435,-242.5 429,-242.5 429,-242.5 308,-242.5 308,-242.5 302,-242.5 296,-236.5 296,-230.5 296,-230.5 296,-208.5 296,-208.5 296,-202.5 302,-196.5 308,-196.5"/>
<text text-anchor="middle" x="368.5" y="-227.3" font-family="Times,serif" font-size="14.00">Person</text>
<polyline fill="none" stroke="black" points="296,-219.5 441,-219.5 "/>
<text text-anchor="start" x="304" y="-204.3" font-family="Times,serif" font-size="14.00">name = &#39;Charlie Sheen&#39;</text>
</g>
<!-- N1 -->
<g id="node2" class="node">
<title>N1</title>
<path fill="none" stroke="black" d="M451,-98.5C451,-98.5 568,-98.5 568,-98.5 574,-98.5 580,-104.5 580,-110.5 580,-110.5 580,-132.5 580,-132.5 580,-138.5 574,-144.5 568,-144.5 568,-144.5 451,-144.5 451,-144.5 445,-144.5 439,-138.5 439,-132.5 439,-132.5 439,-110.5 439,-110.5 439,-104.5 445,-98.5 451,-98.5"/>
<text text-anchor="middle" x="509.5" y="-129.3" font-family="Times,serif" font-size="14.00">Person</text>
<polyline fill="none" stroke="black" points="439,-121.5 580,-121.5 "/>
<text text-anchor="start" x="447" y="-106.3" font-family="Times,serif" font-size="14.00">name = &#39;Martin Sheen&#39;</text>
</g>
<!-- N0&#45;&gt;N1 -->
<g id="edge1" class="edge">
<title>N0&#45;&gt;N1</title>
<path fill="none" stroke="#2e3436" d="M400.85,-196.48C420.95,-182.79 446.96,-165.08 468.5,-150.42"/>
<polygon fill="#2e3436" stroke="#2e3436" points="470.52,-153.28 476.81,-144.75 466.58,-147.49 470.52,-153.28"/>
<text text-anchor="middle" x="474" y="-166.8" font-family="Times,serif" font-size="14.00" fill="#2e3436">FATHER</text>
</g>
<!-- N5 -->
<g id="node3" class="node">
<title>N5</title>
<path fill="none" stroke="black" d="M246,-0.5C246,-0.5 343,-0.5 343,-0.5 349,-0.5 355,-6.5 355,-12.5 355,-12.5 355,-34.5 355,-34.5 355,-40.5 349,-46.5 343,-46.5 343,-46.5 246,-46.5 246,-46.5 240,-46.5 234,-40.5 234,-34.5 234,-34.5 234,-12.5 234,-12.5 234,-6.5 240,-0.5 246,-0.5"/>
<text text-anchor="middle" x="294.5" y="-31.3" font-family="Times,serif" font-size="14.00">Movie</text>
<polyline fill="none" stroke="black" points="234,-23.5 355,-23.5 "/>
<text text-anchor="start" x="242" y="-8.3" font-family="Times,serif" font-size="14.00">title = &#39;Wall Street&#39;</text>
</g>
<!-- N0&#45;&gt;N5 -->
<g id="edge2" class="edge">
<title>N0&#45;&gt;N5</title>
<path fill="none" stroke="#4e9a06" d="M365.91,-196.48C361.3,-159.62 350.96,-87.28 338.5,-65 336.39,-61.23 333.8,-57.61 330.95,-54.2"/>
<polygon fill="#4e9a06" stroke="#4e9a06" points="333.29,-51.57 323.91,-46.64 328.16,-56.34 333.29,-51.57"/>
<text text-anchor="middle" x="392.5" y="-117.8" font-family="Times,serif" font-size="14.00" fill="#4e9a06">ACTED_IN</text>
</g>
<!-- N1&#45;&gt;N5 -->
<g id="edge4" class="edge">
<title>N1&#45;&gt;N5</title>
<path fill="none" stroke="#4e9a06" d="M489.85,-98.36C477.53,-84.95 462.51,-69.57 454.5,-65 427.35,-49.49 394.27,-39.85 365.25,-33.88"/>
<polygon fill="#4e9a06" stroke="#4e9a06" points="365.65,-30.4 355.17,-31.92 364.32,-37.27 365.65,-30.4"/>
<text text-anchor="middle" x="506.5" y="-68.8" font-family="Times,serif" font-size="14.00" fill="#4e9a06">ACTED_IN</text>
</g>
<!-- N6 -->
<g id="node4" class="node">
<title>N6</title>
<path fill="none" stroke="black" d="M483.5,-0.5C483.5,-0.5 651.5,-0.5 651.5,-0.5 657.5,-0.5 663.5,-6.5 663.5,-12.5 663.5,-12.5 663.5,-34.5 663.5,-34.5 663.5,-40.5 657.5,-46.5 651.5,-46.5 651.5,-46.5 483.5,-46.5 483.5,-46.5 477.5,-46.5 471.5,-40.5 471.5,-34.5 471.5,-34.5 471.5,-12.5 471.5,-12.5 471.5,-6.5 477.5,-0.5 483.5,-0.5"/>
<text text-anchor="middle" x="567.5" y="-31.3" font-family="Times,serif" font-size="14.00">Movie</text>
<polyline fill="none" stroke="black" points="471.5,-23.5 663.5,-23.5 "/>
<text text-anchor="start" x="479.5" y="-8.3" font-family="Times,serif" font-size="14.00">title = &#39;The American President&#39;</text>
</g>
<!-- N1&#45;&gt;N6 -->
<g id="edge3" class="edge">
<title>N1&#45;&gt;N6</title>
<path fill="none" stroke="#4e9a06" d="M531.55,-98.48C536.56,-92.77 541.55,-86.41 545.5,-80 550.02,-72.66 553.93,-64.23 557.14,-56.19"/>
<polygon fill="#4e9a06" stroke="#4e9a06" points="560.47,-57.28 560.71,-46.69 553.92,-54.82 560.47,-57.28"/>
<text text-anchor="middle" x="586.5" y="-68.8" font-family="Times,serif" font-size="14.00" fill="#4e9a06">ACTED_IN</text>
</g>
<!-- N2 -->
<g id="node5" class="node">
<title>N2</title>
<path fill="none" stroke="black" d="M167,-98.5C167,-98.5 304,-98.5 304,-98.5 310,-98.5 316,-104.5 316,-110.5 316,-110.5 316,-132.5 316,-132.5 316,-138.5 310,-144.5 304,-144.5 304,-144.5 167,-144.5 167,-144.5 161,-144.5 155,-138.5 155,-132.5 155,-132.5 155,-110.5 155,-110.5 155,-104.5 161,-98.5 167,-98.5"/>
<text text-anchor="middle" x="235.5" y="-129.3" font-family="Times,serif" font-size="14.00">Person</text>
<polyline fill="none" stroke="black" points="155,-121.5 316,-121.5 "/>
<text text-anchor="start" x="163" y="-106.3" font-family="Times,serif" font-size="14.00">name = &#39;Michael Douglas&#39;</text>
</g>
<!-- N2&#45;&gt;N5 -->
<g id="edge5" class="edge">
<title>N2&#45;&gt;N5</title>
<path fill="none" stroke="#4e9a06" d="M249.18,-98.23C257,-85.51 266.93,-69.37 275.49,-55.43"/>
<polygon fill="#4e9a06" stroke="#4e9a06" points="278.64,-57 280.89,-46.64 272.67,-53.33 278.64,-57"/>
<text text-anchor="middle" x="303.5" y="-68.8" font-family="Times,serif" font-size="14.00" fill="#4e9a06">ACTED_IN</text>
</g>
<!-- N2&#45;&gt;N6 -->
<g id="edge6" class="edge">
<title>N2&#45;&gt;N6</title>
<path fill="none" stroke="#4e9a06" d="M293.41,-98.42C332.5,-83.54 377.83,-66.39 382.5,-65 407.8,-57.5 435.41,-50.72 461.41,-44.95"/>
<polygon fill="#4e9a06" stroke="#4e9a06" points="462.26,-48.35 471.28,-42.79 460.76,-41.51 462.26,-48.35"/>
<text text-anchor="middle" x="416.5" y="-68.8" font-family="Times,serif" font-size="14.00" fill="#4e9a06">ACTED_IN</text>
</g>
<!-- N3 -->
<g id="node6" class="node">
<title>N3</title>
<path fill="none" stroke="black" d="M12,-98.5C12,-98.5 125,-98.5 125,-98.5 131,-98.5 137,-104.5 137,-110.5 137,-110.5 137,-132.5 137,-132.5 137,-138.5 131,-144.5 125,-144.5 125,-144.5 12,-144.5 12,-144.5 6,-144.5 0,-138.5 0,-132.5 0,-132.5 0,-110.5 0,-110.5 0,-104.5 6,-98.5 12,-98.5"/>
<text text-anchor="middle" x="68.5" y="-129.3" font-family="Times,serif" font-size="14.00">Person</text>
<polyline fill="none" stroke="black" points="0,-121.5 137,-121.5 "/>
<text text-anchor="start" x="8" y="-106.3" font-family="Times,serif" font-size="14.00">name = &#39;Oliver Stone&#39;</text>
</g>
<!-- N3&#45;&gt;N5 -->
<g id="edge7" class="edge">
<title>N3&#45;&gt;N5</title>
<path fill="none" stroke="#a40000" d="M114.74,-98.47C137.17,-88 164.58,-75.51 189.5,-65 201.15,-60.09 213.62,-55.07 225.74,-50.32"/>
<polygon fill="#a40000" stroke="#a40000" points="227.33,-53.46 235.38,-46.57 224.79,-46.93 227.33,-53.46"/>
<text text-anchor="middle" x="223.5" y="-68.8" font-family="Times,serif" font-size="14.00" fill="#a40000">DIRECTED</text>
</g>
<!-- N4 -->
<g id="node7" class="node">
<title>N4</title>
<path fill="none" stroke="black" d="M610.5,-98.5C610.5,-98.5 716.5,-98.5 716.5,-98.5 722.5,-98.5 728.5,-104.5 728.5,-110.5 728.5,-110.5 728.5,-132.5 728.5,-132.5 728.5,-138.5 722.5,-144.5 716.5,-144.5 716.5,-144.5 610.5,-144.5 610.5,-144.5 604.5,-144.5 598.5,-138.5 598.5,-132.5 598.5,-132.5 598.5,-110.5 598.5,-110.5 598.5,-104.5 604.5,-98.5 610.5,-98.5"/>
<text text-anchor="middle" x="663.5" y="-129.3" font-family="Times,serif" font-size="14.00">Person</text>
<polyline fill="none" stroke="black" points="598.5,-121.5 728.5,-121.5 "/>
<text text-anchor="start" x="606.5" y="-106.3" font-family="Times,serif" font-size="14.00">name = &#39;Rob Reiner&#39;</text>
</g>
<!-- N4&#45;&gt;N6 -->
<g id="edge8" class="edge">
<title>N4&#45;&gt;N6</title>
<path fill="none" stroke="#a40000" d="M650.44,-98.36C643.51,-87.63 634.38,-74.94 624.5,-65 620.33,-60.81 615.69,-56.75 610.9,-52.92"/>
<polygon fill="#a40000" stroke="#a40000" points="612.83,-49.99 602.76,-46.71 608.59,-55.56 612.83,-49.99"/>
<text text-anchor="middle" x="670.5" y="-68.8" font-family="Times,serif" font-size="14.00" fill="#a40000">DIRECTED</text>
</g>
</g>
</svg>
