<svg xmlns="http://www.w3.org/2000/svg" width="491" height="405" viewBox="0 0 491 405"><defs><style type="text/css"/></defs><g transform="translate(-127.89991172775123 374.05871551466066) scale(1)"><g class="relationship"><g transform="translate(373.23844750045885 -320.05871551466066) rotate(142.2451503840746)" stroke-width="2" stroke="#000000"><path d="M 59 0 L 168.85018211821892 0"/><polygon points="-14.155129855222071,0 -15.727922061357857,5.242640687119286 0,0 -15.727922061357857,-5.242640687119286" fill="#000000" transform="translate(183.005311973441 0) rotate(0)" stroke="none"/></g><g transform="translate(283.1649696364083 -250.304181910738) rotate(322.2451503840746) translate(0 -13)"><g transform="translate(0 0)"><g transform="translate(-35.22265625 0)" fill="#ffffff" stroke="#000000" stroke-width="0"><rect x="0" y="0" width="70.4453125" height="26" rx="5" ry="5" stroke="none"/><text xml:space="preserve" x="5" y="17.45703125" stroke="none" text-anchor="left" font-family="sans-serif" font-size="16" font-weight="normal" fill="#000000">KNOWS</text></g></g></g></g><g class="relationship"><g transform="translate(181.89991172775123 -171.88268590217987) rotate(37.7548496159254)" stroke-width="2" stroke="#000000"><path d="M 59 0 L 168.85018211821892 0"/><polygon points="-14.155129855222071,0 -15.727922061357857,5.242640687119286 0,0 -15.727922061357857,-5.242640687119286" fill="#000000" transform="translate(183.005311973441 0) rotate(0)" stroke="none"/></g><g transform="translate(271.9733895918018 -102.1281522982572) rotate(37.7548496159254) translate(0 -13)"><g transform="translate(0 0)"><g transform="translate(-35.22265625 0)" fill="#ffffff" stroke="#000000" stroke-width="0"><rect x="0" y="0" width="70.4453125" height="26" rx="5" ry="5" stroke="none"/><text xml:space="preserve" x="5" y="17.45703125" stroke="none" text-anchor="left" font-family="sans-serif" font-size="16" font-weight="normal" fill="#000000">KNOWS</text></g></g></g></g><g class="relationship"><g transform="translate(564.5769832731664 -171.88268590217987) rotate(142.2451503840746)" stroke-width="2" stroke="#000000"><path d="M 59 0 L 168.8501821182189 0"/><polygon points="-14.155129855222071,0 -15.727922061357857,5.242640687119286 0,0 -15.727922061357857,-5.242640687119286" fill="#000000" transform="translate(183.00531197344097 0) rotate(0)" stroke="none"/></g><g transform="translate(474.50350540911586 -102.12815229825722) rotate(322.2451503840746) translate(0 -13)"><g transform="translate(0 0)"><g transform="translate(-35.22265625 0)" fill="#ffffff" stroke="#000000" stroke-width="0"><rect x="0" y="0" width="70.4453125" height="26" rx="5" ry="5" stroke="none"/><text xml:space="preserve" x="5" y="17.45703125" stroke="none" text-anchor="left" font-family="sans-serif" font-size="16" font-weight="normal" fill="#000000">KNOWS</text></g></g></g></g><g class="node"><g fill="#ffffff" stroke="#006FD6" stroke-width="4"><circle cx="373.23844750045885" cy="-320.05871551466066" r="52"/></g><g transform="translate(373.23844750045885 -320.05871551466066)"><g transform="translate(56 -7.8)"><g transform="translate(0 0)"><g transform="translate(0 0)" fill="white"><rect x="0" y="0" width="89.5146484375" height="15.6" rx="0" ry="0" stroke="none"/><g font-family="sans-serif" font-size="13" font-weight="normal" fill="#535B66" text-anchor="end"><text xml:space="preserve" x="39.74267578125" y="11.421337890625" stroke="none">name:</text><text xml:space="preserve" x="43.3544921875" y="11.421337890625" stroke="none" text-anchor="start">'Stefan'</text></g></g></g></g></g></g><g class="node"><g fill="#ffffff" stroke="#006FD6" stroke-width="4"><circle cx="181.89991172775123" cy="-171.88268590217987" r="52"/></g><g transform="translate(181.89991172775123 -171.88268590217987)"><g transform="scale(0.5605889194302838) translate(0 -27)"><g transform="translate(0 0)"><g transform="translate(-75.595703125 0)"><g fill="#000000" stroke="#000000" stroke-width="4" font-family="sans-serif" font-size="40" font-weight="normal"><text xml:space="preserve" x="0" y="38.142578125" stroke="none">Swedish</text></g></g></g></g><g transform="translate(56 -23.4)"><g transform="translate(0 0)"><g transform="translate(0 0)" fill="white"><rect x="0" y="0" width="88.791015625" height="46.8" rx="0" ry="0" stroke="none"/><g font-family="sans-serif" font-size="13" font-weight="normal" fill="#535B66" text-anchor="end"><text xml:space="preserve" x="46.97265625" y="11.421337890625" stroke="none">name:</text><text xml:space="preserve" x="50.58447265625" y="11.421337890625" stroke="none" text-anchor="start">'Andy'</text><text xml:space="preserve" x="46.97265625" y="27.021337890625" stroke="none" text-anchor="end">age:</text><text xml:space="preserve" x="50.58447265625" y="27.021337890625" stroke="none" text-anchor="start">36</text><text xml:space="preserve" x="46.97265625" y="42.621337890625" stroke="none" text-anchor="end">hungry:</text><text xml:space="preserve" x="50.58447265625" y="42.621337890625" stroke="none" text-anchor="start">true</text></g></g></g></g></g></g><g class="node"><g fill="#ffffff" stroke="#006FD6" stroke-width="4"><circle cx="564.5769832731664" cy="-171.88268590217987" r="52"/></g><g transform="translate(564.5769832731664 -171.88268590217987)"><g transform="translate(-56 -7.799999999999993)"><g transform="translate(0 0)"><g transform="translate(-95.291015625 0)" fill="white"><rect x="0" y="0" width="95.291015625" height="15.6" rx="0" ry="0" stroke="none"/><g font-family="sans-serif" font-size="13" font-weight="normal" fill="#535B66" text-anchor="end"><text xml:space="preserve" x="39.74267578125" y="11.421337890625" stroke="none">name:</text><text xml:space="preserve" x="43.3544921875" y="11.421337890625" stroke="none" text-anchor="start">'George'</text></g></g></g></g></g></g><g class="node"><g fill="#ffffff" stroke="#006FD6" stroke-width="4"><circle cx="373.23844750045885" cy="-23.706656289699055" r="52"/></g><g transform="translate(373.23844750045885 -23.706656289699055)"><g transform="translate(56 -15.6)"><g transform="translate(0 0)"><g transform="translate(0 0)" fill="white"><rect x="0" y="0" width="83.001953125" height="31.2" rx="0" ry="0" stroke="none"/><g font-family="sans-serif" font-size="13" font-weight="normal" fill="#535B66" text-anchor="end"><text xml:space="preserve" x="39.74267578125" y="11.421337890625" stroke="none">name:</text><text xml:space="preserve" x="43.3544921875" y="11.421337890625" stroke="none" text-anchor="start">'Peter'</text><text xml:space="preserve" x="39.74267578125" y="27.021337890625" stroke="none" text-anchor="end">age:</text><text xml:space="preserve" x="43.3544921875" y="27.021337890625" stroke="none" text-anchor="start">34</text></g></g></g></g></g></g></g></svg>