<svg xmlns="http://www.w3.org/2000/svg" width="1008" height="526" viewBox="0 0 1008 526"><defs><style type="text/css"/></defs><g transform="translate(-606.7709607308825 166.48524218721641) scale(1)"><g class="relationship"><g transform="translate(1423.563731369568 68.95387080591055) rotate(139.01584538771397)" stroke-width="2" stroke="#535B66"><path d="M 59 0 L 253.9373908473508 0"/><polygon points="-14.155129855222071,0 -15.727922061357857,5.242640687119286 0,0 -15.727922061357857,-5.242640687119286" fill="#535B66" transform="translate(268.09252070257287 0) rotate(0)" stroke="none"/></g><g transform="translate(1305.4469234104704 171.57390941991883) rotate(319.015845387714) translate(0 -13)"><g transform="translate(0 0)"><g transform="translate(-44.5625 0)" fill="#ffffff" stroke="#000000" stroke-width="0"><rect x="0" y="0" width="89.125" height="26" rx="5" ry="5" stroke="none"/><text xml:space="preserve" x="5" y="17.45703125" stroke="none" text-anchor="left" font-family="sans-serif" font-size="16" font-weight="normal" fill="#000000">ACTED_IN</text></g></g></g></g><g class="relationship"><g transform="translate(660.7709607308825 283.4775939951587) rotate(0)" stroke-width="2" stroke="#000000"><path d="M 59 0 L 442.71844491447894 0"/><polygon points="-14.155129855222071,0 -15.727922061357857,5.242640687119286 0,0 -15.727922061357857,-5.242640687119286" fill="#000000" transform="translate(456.873574769701 0) rotate(0)" stroke="none"/></g><g transform="translate(911.6301831881219 283.4775939951587) rotate(0) translate(0 -13)"><g transform="translate(0 0)"><g transform="translate(-44.5625 0)" fill="#ffffff" stroke="#000000" stroke-width="0"><rect x="0" y="0" width="89.125" height="26" rx="5" ry="5" stroke="none"/><text xml:space="preserve" x="5" y="17.45703125" stroke="none" text-anchor="left" font-family="sans-serif" font-size="16" font-weight="normal" fill="#000000">ACTED_IN</text></g></g></g></g><g class="relationship"><g transform="translate(1176.6445355005835 -107.68726244076976) rotate(90)" stroke-width="2" stroke="#000000"><path d="M 59 0 L 318.0097265807064 0"/><polygon points="-14.155129855222071,0 -15.727922061357857,5.242640687119286 0,0 -15.727922061357857,-5.242640687119286" fill="#000000" transform="translate(332.16485643592847 0) rotate(0)" stroke="none"/></g><g transform="translate(1176.6445355005835 80.81760084958344) rotate(270) translate(0 -13)"><g transform="translate(0 0)"><g transform="translate(-44.5625 0)" fill="#ffffff" stroke="#000000" stroke-width="0"><rect x="0" y="0" width="89.125" height="26" rx="5" ry="5" stroke="none"/><text xml:space="preserve" x="5" y="17.45703125" stroke="none" text-anchor="left" font-family="sans-serif" font-size="16" font-weight="normal" fill="#000000">ACTED_IN</text></g></g></g></g><g class="relationship"><g transform="translate(1503.7370562031563 283.4775939951587) rotate(180)" stroke-width="2" stroke="#000000"><path d="M 59 0 L 253.93739084735068 0"/><polygon points="-14.155129855222071,0 -15.727922061357857,5.242640687119286 0,0 -15.727922061357857,-5.242640687119286" fill="#000000" transform="translate(268.09252070257276 0) rotate(0)" stroke="none"/></g><g transform="translate(1347.2683607794809 283.4775939951587) rotate(360) translate(0 -13)"><g transform="translate(0 0)"><g transform="translate(-45.890625 0)" fill="#ffffff" stroke="#000000" stroke-width="0"><rect x="0" y="0" width="91.78125" height="26" rx="5" ry="5" stroke="none"/><text xml:space="preserve" x="5" y="17.45703125" stroke="none" text-anchor="left" font-family="sans-serif" font-size="16" font-weight="normal" fill="#000000">DIRECTED</text></g></g></g></g><g class="relationship"><g transform="translate(869.8324966773791 68.95387080591055) rotate(-139.80472683899023)" stroke-width="2" stroke="#000000"><path d="M 59 0 L 200.53961939470372 0"/><polygon points="-14.155129855222071,0 -15.727922061357857,5.242640687119286 0,0 -15.727922061357857,-5.242640687119286" fill="#000000" transform="translate(214.6947492499258 0) rotate(0)" stroke="none"/></g><g transform="translate(770.7079215470059 -14.798873113974821) rotate(40.19527316100976) translate(0 -13)"><g transform="translate(0 0)"><g transform="translate(-45.890625 0)" fill="#ffffff" stroke="#000000" stroke-width="0"><rect x="0" y="0" width="91.78125" height="26" rx="5" ry="5" stroke="none"/><text xml:space="preserve" x="5" y="17.45703125" stroke="none" text-anchor="left" font-family="sans-serif" font-size="16" font-weight="normal" fill="#000000">DIRECTED</text></g></g></g></g><g class="relationship"><g transform="translate(1176.6445355005835 -107.68726244076976) rotate(180)" stroke-width="2" stroke="#000000"><path d="M 59 0 L 442.71844491447894 0"/><polygon points="-14.155129855222071,0 -15.727922061357857,5.242640687119286 0,0 -15.727922061357857,-5.242640687119286" fill="#000000" transform="translate(456.873574769701 0) rotate(0)" stroke="none"/></g><g transform="translate(925.7853130433441 -107.68726244076973) rotate(360) translate(0 -13)"><g transform="translate(0 0)"><g transform="translate(-44.5625 0)" fill="#ffffff" stroke="#000000" stroke-width="0"><rect x="0" y="0" width="89.125" height="26" rx="5" ry="5" stroke="none"/><text xml:space="preserve" x="5" y="17.45703125" stroke="none" text-anchor="left" font-family="sans-serif" font-size="16" font-weight="normal" fill="#000000">ACTED_IN</text></g></g></g></g><g class="relationship"><g transform="translate(660.7709607308825 283.4775939951587) rotate(-90)" stroke-width="2" stroke="#000000"><path d="M 59 0 L 318.0097265807064 0"/><polygon points="-14.155129855222071,0 -15.727922061357857,5.242640687119286 0,0 -15.727922061357857,-5.242640687119286" fill="#000000" transform="translate(332.16485643592847 0) rotate(0)" stroke="none"/></g><g transform="translate(660.7709607308825 94.97273070480551) rotate(90) translate(0 -13)"><g transform="translate(0 0)"><g transform="translate(-44.5625 0)" fill="#ffffff" stroke="#000000" stroke-width="0"><rect x="0" y="0" width="89.125" height="26" rx="5" ry="5" stroke="none"/><text xml:space="preserve" x="5" y="17.45703125" stroke="none" text-anchor="left" font-family="sans-serif" font-size="16" font-weight="normal" fill="#000000">ACTED_IN</text></g></g></g></g><g class="node"><g fill="#ffffff" stroke="#006FD6" stroke-width="4"><circle cx="1423.563731369568" cy="68.95387080591055" r="52"/></g><g transform="translate(1423.563731369568 68.95387080591055)"><g transform="scale(0.6532967767358133) translate(0 -27)"><g transform="translate(0 0)"><g transform="translate(-63.369140625 0)"><g fill="#000000" stroke="#000000" stroke-width="4" font-family="sans-serif" font-size="40" font-weight="normal"><text xml:space="preserve" x="0" y="38.142578125" stroke="none">Person</text></g></g></g></g><g transform="translate(3.429011037612589e-15 -113.6)"><g transform="translate(0 0)"><g transform="translate(-117.19921875 0)" fill="white"><rect x="0" y="0" width="234.3984375" height="57.599999999999994" rx="0" ry="0" stroke="none"/><g font-family="sans-serif" font-size="16" font-weight="normal" fill="#535B66" text-anchor="end"><text xml:space="preserve" x="118" y="14.05703125" stroke="none">name:</text><text xml:space="preserve" x="122.4453125" y="14.05703125" stroke="none" text-anchor="start">'Charlie Sheen'</text><text xml:space="preserve" x="118" y="33.25703125" stroke="none" text-anchor="end">bornIn:</text><text xml:space="preserve" x="122.4453125" y="33.25703125" stroke="none" text-anchor="start">'New York'</text><text xml:space="preserve" x="118" y="52.45703125" stroke="none" text-anchor="end">chauffeurName:</text><text xml:space="preserve" x="122.4453125" y="52.45703125" stroke="none" text-anchor="start">'John Brown'</text></g></g></g></g></g></g><g class="node"><g fill="#ffffff" stroke="#006FD6" stroke-width="4"><circle cx="660.7709607308825" cy="283.4775939951587" r="52"/></g><g transform="translate(660.7709607308825 283.4775939951587)"><g transform="scale(0.6532967767358133) translate(0 -27)"><g transform="translate(0 0)"><g transform="translate(-63.369140625 0)"><g fill="#000000" stroke="#000000" stroke-width="4" font-family="sans-serif" font-size="40" font-weight="normal"><text xml:space="preserve" x="0" y="38.142578125" stroke="none">Person</text></g></g></g></g><g transform="translate(39.59797974644666 -97.19797974644665)"><g transform="translate(0 0)"><g transform="translate(0 0)" fill="white"><rect x="0" y="0" width="228.1640625" height="57.599999999999994" rx="0" ry="0" stroke="none"/><g font-family="sans-serif" font-size="16" font-weight="normal" fill="#535B66" text-anchor="end"><text xml:space="preserve" x="118" y="14.05703125" stroke="none">name:</text><text xml:space="preserve" x="122.4453125" y="14.05703125" stroke="none" text-anchor="start">'Martin Sheen'</text><text xml:space="preserve" x="118" y="33.25703125" stroke="none" text-anchor="end">bornIn:</text><text xml:space="preserve" x="122.4453125" y="33.25703125" stroke="none" text-anchor="start">'Ohio'</text><text xml:space="preserve" x="118" y="52.45703125" stroke="none" text-anchor="end">chauffeurName:</text><text xml:space="preserve" x="122.4453125" y="52.45703125" stroke="none" text-anchor="start">'Bob Brown'</text></g></g></g></g></g></g><g class="node"><g fill="#ffffff" stroke="#006FD6" stroke-width="4"><circle cx="1176.6445355005835" cy="283.4775939951587" r="52"/></g><g transform="translate(1176.6445355005835 283.4775939951587)"><g transform="scale(0.7525987763434394) translate(0 -27)"><g transform="translate(0 0)"><g transform="translate(-53.349609375 0)"><g fill="#000000" stroke="#000000" stroke-width="4" font-family="sans-serif" font-size="40" font-weight="normal"><text xml:space="preserve" x="0" y="38.142578125" stroke="none">Movie</text></g></g></g></g><g transform="translate(3.429011037612589e-15 56)"><g transform="translate(0 0)"><g transform="translate(-63.22265625 0)" fill="white"><rect x="0" y="0" width="126.4453125" height="19.2" rx="0" ry="0" stroke="none"/><g font-family="sans-serif" font-size="16" font-weight="normal" fill="#535B66" text-anchor="end"><text xml:space="preserve" x="33.7890625" y="14.05703125" stroke="none">title:</text><text xml:space="preserve" x="38.234375" y="14.05703125" stroke="none" text-anchor="start">'Wall Street'</text></g></g></g></g></g></g><g class="node"><g fill="#ffffff" stroke="#006FD6" stroke-width="4"><circle cx="1176.6445355005835" cy="-107.68726244076976" r="52"/></g><g transform="translate(1176.6445355005835 -107.68726244076976)"><g transform="scale(0.6532967767358133) translate(0 -27)"><g transform="translate(0 0)"><g transform="translate(-63.369140625 0)"><g fill="#000000" stroke="#000000" stroke-width="4" font-family="sans-serif" font-size="40" font-weight="normal"><text xml:space="preserve" x="0" y="38.142578125" stroke="none">Person</text></g></g></g></g><g transform="translate(56 -28.799999999999997)"><g transform="translate(0 0)"><g transform="translate(0 0)" fill="white"><rect x="0" y="0" width="251.28125" height="57.599999999999994" rx="0" ry="0" stroke="none"/><g font-family="sans-serif" font-size="16" font-weight="normal" fill="#535B66" text-anchor="end"><text xml:space="preserve" x="118" y="14.05703125" stroke="none">name:</text><text xml:space="preserve" x="122.4453125" y="14.05703125" stroke="none" text-anchor="start">'Michael Douglas'</text><text xml:space="preserve" x="118" y="33.25703125" stroke="none" text-anchor="end">bornIn:</text><text xml:space="preserve" x="122.4453125" y="33.25703125" stroke="none" text-anchor="start">'New Jersey'</text><text xml:space="preserve" x="118" y="52.45703125" stroke="none" text-anchor="end">chauffeurName:</text><text xml:space="preserve" x="122.4453125" y="52.45703125" stroke="none" text-anchor="start">'John Brown'</text></g></g></g></g></g></g><g class="node"><g fill="#ffffff" stroke="#006FD6" stroke-width="4"><circle cx="1503.7370562031563" cy="283.4775939951587" r="52"/></g><g transform="translate(1503.7370562031563 283.4775939951587)"><g transform="scale(0.6532967767358133) translate(0 -27)"><g transform="translate(0 0)"><g transform="translate(-63.369140625 0)"><g fill="#000000" stroke="#000000" stroke-width="4" font-family="sans-serif" font-size="40" font-weight="normal"><text xml:space="preserve" x="0" y="38.142578125" stroke="none">Person</text></g></g></g></g><g transform="translate(3.429011037612589e-15 -113.6)"><g transform="translate(0 0)"><g transform="translate(-110.51953125 0)" fill="white"><rect x="0" y="0" width="221.0390625" height="57.599999999999994" rx="0" ry="0" stroke="none"/><g font-family="sans-serif" font-size="16" font-weight="normal" fill="#535B66" text-anchor="end"><text xml:space="preserve" x="118" y="14.05703125" stroke="none">name:</text><text xml:space="preserve" x="122.4453125" y="14.05703125" stroke="none" text-anchor="start">'Oliver Stone'</text><text xml:space="preserve" x="118" y="33.25703125" stroke="none" text-anchor="end">bornIn:</text><text xml:space="preserve" x="122.4453125" y="33.25703125" stroke="none" text-anchor="start">'New York'</text><text xml:space="preserve" x="118" y="52.45703125" stroke="none" text-anchor="end">chauffeurName:</text><text xml:space="preserve" x="122.4453125" y="52.45703125" stroke="none" text-anchor="start">'Bill White'</text></g></g></g></g></g></g><g class="node"><g fill="#ffffff" stroke="#006FD6" stroke-width="4"><circle cx="869.8324966773791" cy="68.95387080591055" r="52"/></g><g transform="translate(869.8324966773791 68.95387080591055)"><g transform="scale(0.6532967767358133) translate(0 -27)"><g transform="translate(0 0)"><g transform="translate(-63.369140625 0)"><g fill="#000000" stroke="#000000" stroke-width="4" font-family="sans-serif" font-size="40" font-weight="normal"><text xml:space="preserve" x="0" y="38.142578125" stroke="none">Person</text></g></g></g></g><g transform="translate(56 -28.799999999999997)"><g transform="translate(0 0)"><g transform="translate(0 0)" fill="white"><rect x="0" y="0" width="213.9296875" height="57.599999999999994" rx="0" ry="0" stroke="none"/><g font-family="sans-serif" font-size="16" font-weight="normal" fill="#535B66" text-anchor="end"><text xml:space="preserve" x="118" y="14.05703125" stroke="none">name:</text><text xml:space="preserve" x="122.4453125" y="14.05703125" stroke="none" text-anchor="start">'Rob Reiner'</text><text xml:space="preserve" x="118" y="33.25703125" stroke="none" text-anchor="end">bornIn:</text><text xml:space="preserve" x="122.4453125" y="33.25703125" stroke="none" text-anchor="start">'New York'</text><text xml:space="preserve" x="118" y="52.45703125" stroke="none" text-anchor="end">chauffeurName:</text><text xml:space="preserve" x="122.4453125" y="52.45703125" stroke="none" text-anchor="start">'Ted Green'</text></g></g></g></g></g></g><g class="node"><g fill="#ffffff" stroke="#006FD6" stroke-width="4"><circle cx="660.7709607308825" cy="-107.68726244076976" r="52"/></g><g transform="translate(660.7709607308825 -107.68726244076976)"><g transform="scale(0.7525987763434394) translate(0 -27)"><g transform="translate(0 0)"><g transform="translate(-53.349609375 0)"><g fill="#000000" stroke="#000000" stroke-width="4" font-family="sans-serif" font-size="40" font-weight="normal"><text xml:space="preserve" x="0" y="38.142578125" stroke="none">Movie</text></g></g></g></g><g transform="translate(39.59797974644666 -58.79797974644666)"><g transform="translate(0 0)"><g transform="translate(0 0)" fill="white"><rect x="0" y="0" width="220.421875" height="19.2" rx="0" ry="0" stroke="none"/><g font-family="sans-serif" font-size="16" font-weight="normal" fill="#535B66" text-anchor="end"><text xml:space="preserve" x="33.7890625" y="14.05703125" stroke="none">title:</text><text xml:space="preserve" x="38.234375" y="14.05703125" stroke="none" text-anchor="start">'The American President'</text></g></g></g></g></g></g></g></svg>