<svg xmlns="http://www.w3.org/2000/svg" width="648" height="335" viewBox="0 0 648 335"><defs><style type="text/css"/></defs><g transform="translate(143.55474275498037 502.99781337582715) scale(1)"><g class="relationship"><g transform="translate(180.3934731360351 -431.3978133758271) rotate(0)" stroke-width="2" stroke="#000000"><path d="M 59 0 L 196.7930860357934 0"/><polygon points="-14.155129855222071,0 -15.727922061357857,5.242640687119286 0,0 -15.727922061357857,-5.242640687119286" fill="#000000" transform="translate(210.94821589101548 0) rotate(0)" stroke="none"/></g><g transform="translate(308.2900161539318 -431.3978133758271) rotate(0) translate(0 -13)"><g transform="translate(0 0)"><g transform="translate(-35.22265625 0)" fill="#ffffff" stroke="#000000" stroke-width="0"><rect x="0" y="0" width="70.4453125" height="26" rx="5" ry="5" stroke="none"/><text xml:space="preserve" x="5" y="17.45703125" stroke="none" text-anchor="left" font-family="sans-serif" font-size="16" font-weight="normal" fill="#000000">KNOWS</text></g></g></g></g><g class="relationship"><g transform="translate(180.3934731360351 -431.3978133758271) rotate(135)" stroke-width="2" stroke="#000000"><path d="M 59 0 L 196.7930860357934 0"/><polygon points="-14.155129855222071,0 -15.727922061357857,5.242640687119286 0,0 -15.727922061357857,-5.242640687119286" fill="#000000" transform="translate(210.94821589101548 0) rotate(0)" stroke="none"/></g><g transform="translate(89.95696027776337 -340.9613005175554) rotate(315) translate(0 -13)"><g transform="translate(0 0)"><g transform="translate(-35.22265625 0)" fill="#ffffff" stroke="#000000" stroke-width="0"><rect x="0" y="0" width="70.4453125" height="26" rx="5" ry="5" stroke="none"/><text xml:space="preserve" x="5" y="17.45703125" stroke="none" text-anchor="left" font-family="sans-serif" font-size="16" font-weight="normal" fill="#000000">KNOWS</text></g></g></g></g><g class="relationship"><g transform="translate(180.3934731360351 -431.3978133758271) rotate(180)" stroke-width="2" stroke="#000000"><path d="M 59 0 L 196.7930860357934 0"/><polygon points="-14.155129855222071,0 -15.727922061357857,5.242640687119286 0,0 -15.727922061357857,-5.242640687119286" fill="#000000" transform="translate(210.94821589101548 0) rotate(0)" stroke="none"/></g><g transform="translate(52.49693011813841 -431.3978133758271) rotate(360) translate(0 -13)"><g transform="translate(0 0)"><g transform="translate(-35.22265625 0)" fill="#ffffff" stroke="#000000" stroke-width="0"><rect x="0" y="0" width="70.4453125" height="26" rx="5" ry="5" stroke="none"/><text xml:space="preserve" x="5" y="17.45703125" stroke="none" text-anchor="left" font-family="sans-serif" font-size="16" font-weight="normal" fill="#000000">KNOWS</text></g></g></g></g><g class="relationship"><g transform="translate(180.3934731360351 -431.3978133758271) rotate(45)" stroke-width="2" stroke="#000000"><path d="M 59 0 L 196.79308603579346 0"/><polygon points="-14.155129855222071,0 -15.727922061357857,5.242640687119286 0,0 -15.727922061357857,-5.242640687119286" fill="#000000" transform="translate(210.94821589101554 0) rotate(0)" stroke="none"/></g><g transform="translate(270.82998599430687 -340.9613005175554) rotate(45) translate(0 -13)"><g transform="translate(0 0)"><g transform="translate(-35.22265625 0)" fill="#ffffff" stroke="#000000" stroke-width="0"><rect x="0" y="0" width="70.4453125" height="26" rx="5" ry="5" stroke="none"/><text xml:space="preserve" x="5" y="17.45703125" stroke="none" text-anchor="left" font-family="sans-serif" font-size="16" font-weight="normal" fill="#000000">KNOWS</text></g></g></g></g><g class="node"><g fill="#ffffff" stroke="#006FD6" stroke-width="4"><circle cx="450.34168902705056" cy="-431.3978133758271" r="52"/></g><g transform="translate(450.34168902705056 -431.3978133758271)"><g transform="scale(0.6532967767358133) translate(0 -27)"><g transform="translate(0 0)"><g transform="translate(-63.369140625 0)"><g fill="#000000" stroke="#000000" stroke-width="4" font-family="sans-serif" font-size="40" font-weight="normal"><text xml:space="preserve" x="0" y="38.142578125" stroke="none">Person</text></g></g></g></g><g transform="translate(3.429011037612589e-15 56)"><g transform="translate(0 0)"><g transform="translate(-40.774169921875 0)" fill="white"><rect x="0" y="0" width="81.54833984375" height="15.6" rx="0" ry="0" stroke="none"/><g font-family="sans-serif" font-size="13" font-weight="normal" fill="#535B66" text-anchor="end"><text xml:space="preserve" x="39.74267578125" y="11.421337890625" stroke="none">name:</text><text xml:space="preserve" x="43.3544921875" y="11.421337890625" stroke="none" text-anchor="start">'Erika'</text></g></g></g></g></g></g><g class="node"><g fill="#ffffff" stroke="#006FD6" stroke-width="4"><circle cx="180.3934731360351" cy="-431.3978133758271" r="52"/></g><g transform="translate(180.3934731360351 -431.3978133758271)"><g transform="scale(0.6532967767358133) translate(0 -27)"><g transform="translate(0 0)"><g transform="translate(-63.369140625 0)"><g fill="#000000" stroke="#000000" stroke-width="4" font-family="sans-serif" font-size="40" font-weight="normal"><text xml:space="preserve" x="0" y="38.142578125" stroke="none">Person</text></g></g></g></g><g transform="translate(3.429011037612589e-15 -71.6)"><g transform="translate(0 0)"><g transform="translate(-40.780517578125 0)" fill="white"><rect x="0" y="0" width="81.56103515625" height="15.6" rx="0" ry="0" stroke="none"/><g font-family="sans-serif" font-size="13" font-weight="normal" fill="#535B66" text-anchor="end"><text xml:space="preserve" x="39.74267578125" y="11.421337890625" stroke="none">name:</text><text xml:space="preserve" x="43.3544921875" y="11.421337890625" stroke="none" text-anchor="start">'Andy'</text></g></g></g></g></g></g><g class="node"><g fill="#ffffff" stroke="#006FD6" stroke-width="4"><circle cx="371.27568716178234" cy="-240.51559935007992" r="52"/></g><g transform="translate(371.27568716178234 -240.51559935007992)"><g transform="scale(0.6532967767358133) translate(0 -27)"><g transform="translate(0 0)"><g transform="translate(-63.369140625 0)"><g fill="#000000" stroke="#000000" stroke-width="4" font-family="sans-serif" font-size="40" font-weight="normal"><text xml:space="preserve" x="0" y="38.142578125" stroke="none">Person</text></g></g></g></g><g transform="translate(3.429011037612589e-15 56)"><g transform="translate(0 0)"><g transform="translate(-42.583251953125 0)" fill="white"><rect x="0" y="0" width="85.16650390625" height="15.6" rx="0" ry="0" stroke="none"/><g font-family="sans-serif" font-size="13" font-weight="normal" fill="#535B66" text-anchor="end"><text xml:space="preserve" x="39.74267578125" y="11.421337890625" stroke="none">name:</text><text xml:space="preserve" x="43.3544921875" y="11.421337890625" stroke="none" text-anchor="start">'David'</text></g></g></g></g></g></g><g class="node"><g fill="#ffffff" stroke="#006FD6" stroke-width="4"><circle cx="-10.488740889712005" cy="-240.51559935007992" r="52"/></g><g transform="translate(-10.488740889712005 -240.51559935007992)"><g transform="scale(0.6532967767358133) translate(0 -27)"><g transform="translate(0 0)"><g transform="translate(-63.369140625 0)"><g fill="#000000" stroke="#000000" stroke-width="4" font-family="sans-serif" font-size="40" font-weight="normal"><text xml:space="preserve" x="0" y="38.142578125" stroke="none">Person</text></g></g></g></g><g transform="translate(3.429011037612589e-15 56)"><g transform="translate(0 0)"><g transform="translate(-52.339599609375 0)" fill="white"><rect x="0" y="0" width="104.67919921875" height="15.6" rx="0" ry="0" stroke="none"/><g font-family="sans-serif" font-size="13" font-weight="normal" fill="#535B66" text-anchor="end"><text xml:space="preserve" x="39.74267578125" y="11.421337890625" stroke="none">name:</text><text xml:space="preserve" x="43.3544921875" y="11.421337890625" stroke="none" text-anchor="start">'Charlotte'</text></g></g></g></g></g></g><g class="node"><g fill="#ffffff" stroke="#006FD6" stroke-width="4"><circle cx="-89.55474275498037" cy="-431.3978133758271" r="52"/></g><g transform="translate(-89.55474275498037 -431.3978133758271)"><g transform="scale(0.6532967767358133) translate(0 -27)"><g transform="translate(0 0)"><g transform="translate(-63.369140625 0)"><g fill="#000000" stroke="#000000" stroke-width="4" font-family="sans-serif" font-size="40" font-weight="normal"><text xml:space="preserve" x="0" y="38.142578125" stroke="none">Person</text></g></g></g></g><g transform="translate(3.429011037612589e-15 56)"><g transform="translate(0 0)"><g transform="translate(-49.089599609375 0)" fill="white"><rect x="0" y="0" width="98.17919921875" height="15.6" rx="0" ry="0" stroke="none"/><g font-family="sans-serif" font-size="13" font-weight="normal" fill="#535B66" text-anchor="end"><text xml:space="preserve" x="39.74267578125" y="11.421337890625" stroke="none">name:</text><text xml:space="preserve" x="43.3544921875" y="11.421337890625" stroke="none" text-anchor="start">'Bernard'</text></g></g></g></g></g></g></g></svg>