<svg width="927" height="507" viewBox="0 0 927 507" fill="none" xmlns="http://www.w3.org/2000/svg">
<path d="M459.871 388.112L352.883 124.253" stroke="#A5ABB6" stroke-width="2"/>
<path d="M347.998 112.205L348.275 131.517L361.249 126.256L347.998 112.205Z" fill="#A5ABB6"/>
<path d="M411.989 230.83L403.901 234.109L403.504 233.13L411.592 229.85L411.989 230.83ZM412.785 232.793L413.259 233.962L407.66 239.433L407.699 239.528L415.527 239.554L416.001 240.723L407.913 244.002L407.541 243.086L413.686 240.595L413.654 240.516L406.485 240.48L406.126 239.595L411.246 234.576L411.214 234.497L405.069 236.989L404.698 236.073L412.785 232.793ZM408.709 245.966L416.797 242.687L417.905 245.419C418.162 246.054 418.258 246.619 418.192 247.115C418.13 247.612 417.945 248.036 417.637 248.388C417.329 248.74 416.937 249.012 416.46 249.206C415.984 249.399 415.511 249.477 415.043 249.44C414.575 249.406 414.144 249.234 413.749 248.926C413.356 248.616 413.033 248.146 412.778 247.517L411.983 245.558L412.852 245.206L413.634 247.133C413.81 247.567 414.026 247.886 414.283 248.088C414.54 248.291 414.82 248.399 415.123 248.414C415.43 248.431 415.746 248.373 416.07 248.242C416.394 248.111 416.659 247.933 416.865 247.708C417.072 247.486 417.194 247.213 417.231 246.888C417.271 246.562 417.202 246.18 417.023 245.74L416.325 244.018L409.106 246.945L408.709 245.966ZM411.571 253.025L419.659 249.746L420.056 250.725L412.837 253.652L414.362 257.412L413.493 257.764L411.571 253.025ZM422.593 256.98L414.505 260.26L414.108 259.28L422.196 256.001L422.593 256.98ZM415.301 262.223L423.389 258.944L425.368 263.825L424.499 264.177L422.917 260.276L420.184 261.384L421.664 265.033L420.795 265.385L419.316 261.736L416.567 262.851L418.175 266.815L417.306 267.168L415.301 262.223ZM425.855 270.833C426.236 270.624 426.469 270.305 426.553 269.879C426.638 269.452 426.581 268.994 426.382 268.504C426.237 268.146 426.052 267.856 425.828 267.635C425.604 267.416 425.36 267.272 425.097 267.205C424.834 267.139 424.574 267.159 424.316 267.264C424.1 267.351 423.935 267.478 423.822 267.643C423.712 267.811 423.638 267.997 423.602 268.202C423.568 268.405 423.554 268.61 423.561 268.816C423.571 269.02 423.586 269.206 423.607 269.372L423.719 270.283C423.749 270.516 423.768 270.781 423.775 271.079C423.783 271.379 423.751 271.682 423.679 271.987C423.61 272.294 423.477 272.578 423.279 272.839C423.082 273.1 422.793 273.307 422.414 273.461C421.977 273.638 421.536 273.684 421.09 273.598C420.646 273.514 420.231 273.296 419.846 272.943C419.461 272.593 419.143 272.108 418.891 271.486C418.657 270.907 418.547 270.368 418.562 269.868C418.578 269.371 418.704 268.934 418.94 268.556C419.177 268.181 419.511 267.888 419.94 267.677L420.35 268.688C420.055 268.838 419.844 269.043 419.717 269.303C419.593 269.565 419.538 269.854 419.553 270.17C419.572 270.487 419.646 270.806 419.776 271.128C419.928 271.502 420.124 271.813 420.366 272.061C420.61 272.308 420.877 272.475 421.166 272.56C421.458 272.644 421.751 272.626 422.046 272.507C422.314 272.398 422.502 272.234 422.61 272.016C422.718 271.797 422.775 271.544 422.781 271.257C422.787 270.969 422.771 270.667 422.735 270.351L422.616 269.24C422.541 268.535 422.598 267.93 422.785 267.424C422.973 266.919 423.339 266.556 423.884 266.335C424.337 266.151 424.782 266.114 425.218 266.222C425.658 266.332 426.056 266.557 426.411 266.897C426.77 267.239 427.055 267.668 427.264 268.184C427.475 268.705 427.57 269.206 427.547 269.687C427.527 270.167 427.405 270.591 427.18 270.958C426.956 271.328 426.642 271.602 426.24 271.781L425.855 270.833Z" fill="#6F757E"/>
<path d="M623.984 121.778L634.673 258.871" stroke="#A5ABB6" stroke-width="2"/>
<path d="M635.684 271.832L641.264 253.342L627.306 254.431L635.684 271.832Z" fill="#A5ABB6"/>
<path d="M642.349 167.858L633.648 168.536L633.566 167.483L642.267 166.804L642.349 167.858ZM642.514 169.971L642.612 171.228L635.62 174.748L635.628 174.85L643.081 177.244L643.179 178.501L634.478 179.18L634.401 178.194L641.012 177.679L641.005 177.594L634.183 175.39L634.108 174.439L640.507 171.204L640.5 171.119L633.89 171.635L633.813 170.649L642.514 169.971ZM634.643 181.292L643.344 180.614L643.573 183.554C643.626 184.237 643.546 184.804 643.334 185.257C643.124 185.712 642.819 186.06 642.419 186.303C642.019 186.545 641.563 186.686 641.05 186.726C640.538 186.766 640.064 186.697 639.628 186.52C639.193 186.346 638.834 186.052 638.551 185.638C638.27 185.224 638.104 184.679 638.051 184.002L637.887 181.894L638.822 181.821L638.983 183.895C639.02 184.362 639.13 184.731 639.313 185.002C639.497 185.272 639.731 185.461 640.015 185.567C640.303 185.675 640.621 185.716 640.97 185.689C641.318 185.662 641.624 185.572 641.889 185.421C642.154 185.272 642.353 185.048 642.486 184.75C642.623 184.452 642.672 184.066 642.636 183.593L642.491 181.741L634.725 182.346L634.643 181.292ZM635.235 188.887L643.936 188.208L644.018 189.262L636.252 189.867L636.567 193.912L635.632 193.985L635.235 188.887ZM644.543 195.991L635.842 196.67L635.76 195.616L644.46 194.938L644.543 195.991ZM636.006 198.782L644.707 198.104L645.117 203.355L644.182 203.428L643.855 199.23L640.915 199.46L641.221 203.385L640.286 203.458L639.98 199.533L637.023 199.763L637.356 204.029L636.421 204.101L636.006 198.782ZM643.461 210.182C643.887 210.097 644.205 209.865 644.415 209.484C644.625 209.102 644.709 208.649 644.668 208.122C644.638 207.736 644.549 207.404 644.402 207.125C644.255 206.849 644.066 206.638 643.836 206.494C643.605 206.352 643.351 206.292 643.074 206.314C642.841 206.332 642.646 206.403 642.487 206.526C642.332 206.653 642.206 206.808 642.109 206.992C642.015 207.176 641.94 207.367 641.885 207.565C641.832 207.763 641.79 207.944 641.76 208.109L641.591 209.011C641.549 209.242 641.487 209.501 641.404 209.787C641.321 210.075 641.199 210.354 641.037 210.623C640.879 210.895 640.666 211.125 640.399 211.314C640.131 211.503 639.794 211.613 639.386 211.645C638.916 211.682 638.481 211.592 638.083 211.375C637.684 211.161 637.355 210.828 637.094 210.375C636.834 209.925 636.678 209.366 636.626 208.697C636.577 208.074 636.636 207.527 636.801 207.055C636.967 206.586 637.219 206.208 637.559 205.919C637.898 205.633 638.305 205.455 638.778 205.384L638.863 206.471C638.536 206.525 638.273 206.657 638.073 206.866C637.876 207.078 637.736 207.337 637.655 207.643C637.576 207.951 637.55 208.278 637.577 208.623C637.609 209.025 637.702 209.381 637.857 209.691C638.015 210.001 638.219 210.24 638.469 210.409C638.721 210.577 639.006 210.649 639.323 210.624C639.612 210.602 639.841 210.503 640.01 210.327C640.178 210.152 640.309 209.928 640.402 209.655C640.495 209.383 640.572 209.091 640.633 208.778L640.855 207.684C640.998 206.989 641.235 206.429 641.566 206.004C641.898 205.579 642.357 205.344 642.943 205.298C643.43 205.26 643.865 205.359 644.248 205.594C644.635 205.832 644.946 206.167 645.182 206.598C645.421 207.033 645.562 207.528 645.605 208.083C645.649 208.644 645.587 209.15 645.42 209.602C645.256 210.053 645.011 210.42 644.685 210.702C644.36 210.987 643.978 211.153 643.54 211.202L643.461 210.182Z" fill="#6F757E"/>
<path d="M554.007 58.649L399.372 57.6828" stroke="#A5ABB6" stroke-width="2"/>
<path d="M386.372 57.6015L404.328 64.7139L404.415 50.7141L386.372 57.6015Z" fill="#A5ABB6"/>
<path d="M455.396 43.3053L455.341 52.0324L454.284 52.0258L454.339 43.2987L455.396 43.3053ZM457.514 43.3185L458.776 43.3264L461.696 50.5891L461.799 50.5897L464.81 43.3641L466.071 43.372L466.017 52.0991L465.028 52.0929L465.069 45.4623L464.984 45.4618L462.216 52.0753L461.261 52.0694L458.575 45.4218L458.49 45.4212L458.449 52.0518L457.46 52.0456L457.514 43.3185ZM468.136 52.1123L468.19 43.3852L471.139 43.4036C471.824 43.4079 472.382 43.535 472.816 43.7849C473.251 44.0319 473.573 44.3649 473.781 44.7838C473.988 45.2027 474.091 45.6693 474.087 46.1835C474.084 46.6977 473.976 47.1643 473.763 47.5835C473.553 48.0026 473.23 48.3358 472.794 48.5831C472.358 48.8276 471.8 48.9477 471.121 48.9434L469.008 48.9302L469.014 47.9927L471.093 48.0057C471.562 48.0086 471.939 47.93 472.224 47.7699C472.509 47.6097 472.716 47.3923 472.846 47.1175C472.978 46.8399 473.046 46.5264 473.048 46.177C473.05 45.8276 472.987 45.5147 472.858 45.2383C472.731 44.9619 472.525 44.7447 472.239 44.5867C471.954 44.4258 471.573 44.3439 471.099 44.3409L469.241 44.3293L469.192 52.1189L468.136 52.1123ZM475.753 52.1599L475.807 43.4328L476.864 43.4394L476.815 51.229L480.872 51.2544L480.866 52.1919L475.753 52.1599ZM483.614 43.4816L483.559 52.2087L482.502 52.2021L482.557 43.475L483.614 43.4816ZM485.678 52.2219L485.733 43.4948L491 43.5277L490.994 44.4652L486.784 44.4389L486.765 47.3877L490.703 47.4123L490.697 48.3498L486.759 48.3252L486.741 51.2911L491.019 51.3178L491.013 52.2553L485.678 52.2219ZM497.663 45.7512C497.615 45.3191 497.41 44.9826 497.048 44.7417C496.685 44.5008 496.24 44.3787 495.712 44.3754C495.325 44.373 494.987 44.4334 494.696 44.5565C494.409 44.6797 494.183 44.8502 494.02 45.0679C493.859 45.2857 493.778 45.5338 493.777 45.8122C493.775 46.0451 493.829 46.2458 493.939 46.4141C494.052 46.5795 494.196 46.7182 494.371 46.8301C494.547 46.9392 494.731 47.0298 494.923 47.102C495.116 47.1714 495.293 47.2279 495.455 47.2716L496.34 47.5157C496.567 47.5768 496.819 47.6608 497.097 47.7676C497.377 47.8745 497.645 48.0196 497.9 48.203C498.157 48.3836 498.369 48.6151 498.534 48.8974C498.7 49.1797 498.782 49.5253 498.779 49.9344C498.776 50.406 498.65 50.8314 498.401 51.2105C498.154 51.5896 497.794 51.89 497.321 52.1114C496.851 52.3329 496.281 52.4416 495.61 52.4374C494.985 52.4335 494.445 52.3293 493.989 52.1247C493.535 51.9202 493.179 51.6367 492.92 51.2743C492.664 50.9119 492.52 50.4919 492.489 50.0144L493.58 50.0213C493.606 50.351 493.715 50.6244 493.907 50.8415C494.102 51.0558 494.348 51.2164 494.646 51.3234C494.946 51.4276 495.27 51.4807 495.616 51.4829C496.02 51.4854 496.382 51.4223 496.704 51.2936C497.026 51.1621 497.281 50.9791 497.47 50.7444C497.659 50.507 497.755 50.2292 497.757 49.911C497.759 49.6212 497.679 49.3849 497.518 49.2021C497.357 49.0193 497.145 48.8702 496.882 48.7549C496.618 48.6397 496.333 48.5384 496.027 48.4513L494.955 48.1378C494.275 47.9375 493.737 47.6543 493.341 47.2882C492.946 46.9221 492.75 46.445 492.754 45.8569C492.757 45.3683 492.891 44.943 493.158 44.581C493.427 44.2162 493.787 43.9344 494.237 43.7355C494.69 43.5338 495.195 43.4346 495.752 43.4381C496.314 43.4416 496.814 43.5456 497.25 43.75C497.686 43.9516 498.031 44.2265 498.284 44.5747C498.541 44.9229 498.675 45.3172 498.686 45.7576L497.663 45.7512Z" fill="#6F757E"/>
<path d="M66.4216 119.981L60.2683 257.24" stroke="#A5ABB6" stroke-width="2"/>
<path d="M59.6861 270.227L67.4852 252.559L53.4992 251.932L59.6861 270.227Z" fill="#A5ABB6"/>
<path d="M47.6746 209.316L56.3932 209.707L56.3458 210.762L47.6273 210.372L47.6746 209.316ZM47.7695 207.199L47.826 205.939L55.1959 203.3L55.2005 203.198L48.0963 199.911L48.1528 198.651L56.8713 199.042L56.827 200.029L50.203 199.732L50.1992 199.817L56.701 202.839L56.6583 203.792L49.9121 206.22L49.9083 206.305L56.5323 206.602L56.4881 207.59L47.7695 207.199ZM56.9662 196.925L48.2477 196.534L48.3797 193.588C48.4104 192.904 48.5589 192.35 48.8253 191.927C49.0889 191.501 49.4341 191.192 49.8607 191.001C50.2873 190.81 50.7575 190.726 51.2711 190.749C51.7848 190.772 52.247 190.898 52.6576 191.127C53.0683 191.353 53.3889 191.688 53.6191 192.134C53.8466 192.579 53.9451 193.141 53.9147 193.819L53.82 195.931L52.8835 195.889L52.9766 193.811C52.9976 193.343 52.9336 192.963 52.7845 192.672C52.6355 192.381 52.4262 192.165 52.1566 192.025C51.8843 191.882 51.5737 191.803 51.2246 191.787C50.8755 191.772 50.5604 191.823 50.2792 191.941C49.9982 192.057 49.7732 192.254 49.6043 192.534C49.4325 192.813 49.336 193.19 49.3148 193.664L49.2315 195.52L57.0135 195.869L56.9662 196.925ZM57.3073 189.315L48.5888 188.924L48.6361 187.869L56.4181 188.217L56.5998 184.165L57.5363 184.207L57.3073 189.315ZM48.9384 181.125L57.6569 181.516L57.6096 182.572L48.8911 182.181L48.9384 181.125ZM57.7518 179.399L49.0333 179.008L49.2692 173.747L50.2058 173.789L50.0172 177.995L52.9631 178.127L53.1394 174.193L54.076 174.235L53.8997 178.169L56.8626 178.302L57.0542 174.027L57.9908 174.069L57.7518 179.399ZM51.7479 167.174C51.3142 167.205 50.97 167.397 50.7153 167.75C50.4607 168.103 50.3215 168.543 50.2978 169.071C50.2805 169.457 50.3278 169.797 50.4397 170.092C50.5517 170.385 50.7134 170.617 50.9247 170.788C51.1361 170.957 51.3808 171.047 51.659 171.06C51.8917 171.07 52.0943 171.024 52.2667 170.921C52.4364 170.815 52.5805 170.676 52.6991 170.505C52.8148 170.334 52.9125 170.153 52.9921 169.964C53.0688 169.774 53.1321 169.599 53.182 169.439L53.46 168.564C53.5298 168.34 53.6235 168.091 53.7409 167.817C53.8585 167.541 54.0139 167.279 54.207 167.032C54.3973 166.782 54.6368 166.579 54.9252 166.425C55.2137 166.27 55.5623 166.201 55.971 166.22C56.4421 166.241 56.8623 166.383 57.2315 166.647C57.6009 166.908 57.8871 167.28 58.0902 167.761C58.2934 168.239 58.38 168.813 58.3499 169.483C58.322 170.107 58.197 170.643 57.975 171.091C57.7531 171.536 57.4561 171.881 57.084 172.126C56.712 172.368 56.2868 172.496 55.8085 172.509L55.8573 171.419C56.1878 171.405 56.4652 171.307 56.6896 171.123C56.9112 170.937 57.0812 170.697 57.1996 170.404C57.3152 170.108 57.3808 169.786 57.3964 169.44C57.4144 169.037 57.3654 168.672 57.2492 168.346C57.1302 168.019 56.9571 167.757 56.7299 167.559C56.4999 167.361 56.226 167.255 55.9081 167.241C55.6187 167.228 55.3795 167.298 55.1906 167.452C55.0017 167.605 54.8446 167.811 54.7192 168.07C54.5939 168.329 54.4818 168.61 54.3829 168.913L54.0283 169.972C53.8019 170.644 53.4982 171.171 53.1171 171.552C52.736 171.933 52.2517 172.11 51.6643 172.084C51.1761 172.062 50.7563 171.911 50.4049 171.631C50.0507 171.348 49.783 170.977 49.6016 170.52C49.4174 170.059 49.3379 169.551 49.3628 168.995C49.388 168.433 49.5111 167.938 49.7322 167.51C49.9505 167.082 50.2385 166.748 50.5961 166.508C50.954 166.265 51.3531 166.146 51.7937 166.152L51.7479 167.174Z" fill="#6F757E"/>
<path d="M132.29 55.0562L253.38 55.1625" stroke="#A5ABB6" stroke-width="2"/>
<path d="M266.38 55.174L248.387 48.1581L248.374 62.1581L266.38 55.174Z" fill="#A5ABB6"/>
<path d="M171.462 40.3633L171.454 49.0906L170.397 49.0897L170.405 40.3624L171.462 40.3633ZM173.581 40.3652L174.842 40.3663L177.801 47.6132L177.904 47.6133L180.876 40.3716L182.137 40.3727L182.13 49.1L181.141 49.0991L181.147 42.4684L181.062 42.4683L178.329 49.0966L177.374 49.0958L174.653 42.4627L174.567 42.4626L174.562 49.0933L173.573 49.0925L173.581 40.3652ZM184.249 49.1018L184.256 40.3746L187.205 40.3772C187.89 40.3778 188.449 40.5018 188.884 40.7494C189.321 40.9941 189.645 41.3253 189.855 41.7431C190.064 42.1609 190.169 42.6269 190.169 43.1411C190.168 43.6553 190.063 44.1226 189.852 44.5428C189.644 44.9631 189.323 45.298 188.888 45.5477C188.453 45.7944 187.896 45.9175 187.217 45.9169L185.104 45.9151L185.105 44.9776L187.184 44.9794C187.653 44.9798 188.029 44.8992 188.314 44.7375C188.598 44.5758 188.804 44.3573 188.932 44.0818C189.063 43.8035 189.129 43.4896 189.129 43.1402C189.129 42.7908 189.064 42.4782 188.934 42.2025C188.806 41.9269 188.599 41.7108 188.312 41.5543C188.025 41.3949 187.645 41.315 187.17 41.3146L185.312 41.313L185.305 49.1028L184.249 49.1018ZM191.866 49.1085L191.874 40.3813L192.93 40.3822L192.923 48.1719L196.98 48.1755L196.979 49.113L191.866 49.1085ZM199.68 40.3881L199.673 49.1154L198.616 49.1144L198.624 40.3872L199.68 40.3881ZM201.792 49.1172L201.799 40.39L207.066 40.3946L207.066 41.3321L202.855 41.3284L202.853 44.2773L206.79 44.2807L206.789 45.2182L202.852 45.2148L202.849 48.1807L207.128 48.1844L207.127 49.1219L201.792 49.1172ZM213.742 42.5823C213.691 42.1504 213.484 41.815 213.121 41.576C212.757 41.3371 212.311 41.2174 211.783 41.2169C211.397 41.2166 211.058 41.2788 210.769 41.4035C210.482 41.5283 210.257 41.7 210.095 41.9186C209.936 42.1372 209.856 42.3857 209.856 42.6641C209.855 42.897 209.911 43.0974 210.021 43.2651C210.135 43.43 210.279 43.5679 210.456 43.6788C210.632 43.7869 210.816 43.8766 211.009 43.9478C211.202 44.0161 211.38 44.0717 211.542 44.1144L212.428 44.3538C212.655 44.4137 212.908 44.4963 213.186 44.6017C213.467 44.707 213.736 44.8507 213.991 45.0328C214.25 45.212 214.462 45.4423 214.63 45.7237C214.797 46.0051 214.881 46.3503 214.88 46.7594C214.88 47.231 214.756 47.657 214.508 48.0375C214.264 48.418 213.906 48.7202 213.434 48.9442C212.965 49.1682 212.395 49.28 211.725 49.2794C211.1 49.2788 210.559 49.1775 210.101 48.9754C209.647 48.7733 209.289 48.4917 209.028 48.1307C208.77 47.7697 208.624 47.3505 208.59 46.8732L209.681 46.8742C209.71 47.2037 209.82 47.4766 210.013 47.6926C210.209 47.9059 210.456 48.0652 210.754 48.1706C211.055 48.2731 211.379 48.3245 211.726 48.3248C212.129 48.3252 212.491 48.2602 212.812 48.1298C213.134 47.9965 213.388 47.8121 213.576 47.5764C213.763 47.338 213.857 47.0596 213.858 46.7415C213.858 46.4517 213.777 46.2158 213.615 46.0339C213.454 45.8519 213.241 45.704 212.977 45.5901C212.712 45.4763 212.427 45.3766 212.12 45.2911L211.047 44.9833C210.365 44.7867 209.826 44.5064 209.428 44.1424C209.031 43.7784 208.832 43.3024 208.833 42.7143C208.833 42.2257 208.966 41.7997 209.23 41.4363C209.498 41.07 209.856 40.7862 210.305 40.5849C210.757 40.3808 211.261 40.279 211.818 40.2794C212.38 40.2799 212.88 40.3812 213.318 40.5833C213.755 40.7826 214.101 41.0556 214.357 41.4024C214.615 41.7492 214.751 42.1428 214.765 42.5832L213.742 42.5823Z" fill="#6F757E"/>
<path d="M304.492 116.376L202.875 382.612" stroke="#A5ABB6" stroke-width="2"/>
<path d="M198.239 394.757L211.198 380.437L198.118 375.444L198.239 394.757Z" fill="#A5ABB6"/>
<path d="M216.005 331.385L207.851 328.273L208.903 325.518C209.146 324.881 209.454 324.399 209.828 324.074C210.199 323.747 210.611 323.557 211.062 323.505C211.514 323.452 211.98 323.518 212.461 323.701C212.941 323.884 213.33 324.145 213.626 324.483C213.923 324.822 214.1 325.234 214.157 325.721C214.212 326.208 214.119 326.767 213.878 327.398L213.027 329.628L212.135 329.287L212.974 327.09C213.14 326.654 213.21 326.28 213.184 325.966C213.159 325.649 213.052 325.386 212.864 325.178C212.674 324.966 212.416 324.797 212.09 324.672C211.764 324.548 211.455 324.5 211.164 324.529C210.873 324.558 210.61 324.681 210.375 324.898C210.138 325.115 209.935 325.443 209.767 325.884L209.104 327.62L216.382 330.397L216.005 331.385ZM213.807 326.149L218.236 325.54L217.798 326.687L213.382 327.264L213.807 326.149ZM218.742 324.214L210.588 321.102L212.467 316.181L213.343 316.515L211.841 320.449L214.596 321.5L216 317.821L216.876 318.156L215.472 321.834L218.243 322.892L219.769 318.895L220.645 319.229L218.742 324.214ZM221.299 317.513L213.146 314.401L213.523 313.414L220.8 316.192L222.247 312.401L223.123 312.736L221.299 317.513ZM224.03 310.358L223.635 311.393L216.625 305.287L217.014 304.268L226.31 304.386L225.915 305.421L218.121 305.238L218.097 305.302L224.03 310.358ZM220.991 308.76L222.584 304.588L223.46 304.922L221.867 309.094L220.991 308.76ZM218.983 301.737L218.107 301.402L220.441 295.287L221.317 295.622L220.339 298.185L227.616 300.963L227.239 301.951L219.962 299.173L218.983 301.737ZM221.4 292.776L229.553 295.888L229.176 296.876L221.023 293.763L221.4 292.776ZM228.858 285.473C229.718 285.801 230.402 286.24 230.91 286.79C231.418 287.339 231.738 287.95 231.871 288.621C232.004 289.292 231.938 289.975 231.673 290.671C231.407 291.366 231.001 291.919 230.455 292.331C229.908 292.743 229.263 292.985 228.518 293.056C227.773 293.128 226.971 292.999 226.111 292.671C225.251 292.343 224.567 291.904 224.059 291.354C223.551 290.805 223.231 290.194 223.098 289.523C222.964 288.852 223.031 288.169 223.296 287.473C223.561 286.778 223.967 286.224 224.514 285.813C225.06 285.401 225.706 285.159 226.451 285.088C227.196 285.016 227.998 285.145 228.858 285.473ZM228.493 286.428C227.787 286.159 227.146 286.05 226.57 286.1C225.996 286.149 225.507 286.326 225.104 286.631C224.703 286.934 224.408 287.332 224.22 287.826C224.031 288.32 223.985 288.814 224.082 289.31C224.179 289.804 224.426 290.261 224.821 290.683C225.218 291.102 225.769 291.446 226.475 291.715C227.181 291.985 227.822 292.096 228.397 292.047C228.972 291.997 229.461 291.82 229.863 291.517C230.265 291.211 230.56 290.812 230.749 290.318C230.937 289.824 230.983 289.331 230.885 288.837C230.789 288.341 230.542 287.884 230.146 287.465C229.75 287.043 229.199 286.698 228.493 286.428ZM227.883 275.791L236.036 278.903L235.671 279.859L227.574 281.858L227.543 281.938L233.945 284.381L233.568 285.369L225.415 282.257L225.78 281.301L233.899 279.292L233.93 279.212L227.512 276.763L227.883 275.791ZM232.377 270.135C231.955 270.028 231.568 270.103 231.216 270.357C230.863 270.612 230.592 270.986 230.404 271.48C230.266 271.841 230.204 272.179 230.218 272.494C230.232 272.807 230.313 273.078 230.459 273.307C230.607 273.534 230.811 273.697 231.071 273.796C231.288 273.879 231.495 273.899 231.691 273.855C231.886 273.807 232.066 273.721 232.233 273.596C232.396 273.47 232.546 273.329 232.681 273.174C232.813 273.018 232.929 272.872 233.026 272.736L233.565 271.993C233.702 271.802 233.869 271.595 234.067 271.372C234.265 271.147 234.495 270.947 234.756 270.773C235.015 270.596 235.306 270.479 235.629 270.422C235.951 270.366 236.304 270.411 236.686 270.557C237.126 270.725 237.48 270.992 237.748 271.359C238.017 271.723 238.172 272.165 238.213 272.686C238.256 273.204 238.157 273.776 237.918 274.402C237.695 274.986 237.408 275.456 237.057 275.811C236.706 276.164 236.316 276.398 235.885 276.514C235.456 276.627 235.012 276.614 234.554 276.476L234.943 275.456C235.261 275.547 235.556 275.541 235.826 275.438C236.095 275.33 236.332 275.156 236.537 274.915C236.74 274.67 236.903 274.386 237.026 274.062C237.17 273.685 237.238 273.323 237.231 272.977C237.221 272.629 237.139 272.326 236.985 272.067C236.829 271.807 236.602 271.62 236.305 271.506C236.034 271.403 235.785 271.394 235.558 271.481C235.33 271.567 235.116 271.714 234.916 271.92C234.715 272.126 234.521 272.358 234.332 272.614L233.662 273.508C233.236 274.075 232.782 274.479 232.3 274.721C231.819 274.963 231.303 274.979 230.754 274.77C230.297 274.595 229.946 274.32 229.701 273.943C229.454 273.563 229.316 273.128 229.287 272.636C229.257 272.141 229.342 271.634 229.54 271.114C229.741 270.588 230.013 270.157 230.358 269.82C230.7 269.482 231.078 269.256 231.493 269.14C231.909 269.022 232.325 269.035 232.742 269.179L232.377 270.135ZM239.519 269.778L231.365 266.666L231.742 265.679L235.373 267.065L237.033 262.717L233.402 261.331L233.778 260.344L241.932 263.456L241.555 264.443L237.908 263.052L236.249 267.399L239.896 268.791L239.519 269.778ZM234.91 257.38L243.063 260.492L242.686 261.479L234.533 258.367L234.91 257.38ZM243.819 258.512L235.665 255.4L236.717 252.645C236.961 252.006 237.276 251.527 237.662 251.209C238.046 250.887 238.471 250.703 238.936 250.655C239.401 250.608 239.874 250.676 240.354 250.859C240.835 251.042 241.234 251.307 241.552 251.654C241.871 251.997 242.069 252.417 242.148 252.912C242.224 253.406 242.141 253.971 241.899 254.605L241.145 256.58L240.269 256.245L241.011 254.302C241.178 253.864 241.236 253.484 241.186 253.161C241.136 252.838 241.005 252.567 240.794 252.349C240.58 252.128 240.31 251.955 239.984 251.831C239.657 251.706 239.342 251.656 239.038 251.679C238.735 251.701 238.459 251.817 238.211 252.03C237.96 252.241 237.75 252.568 237.581 253.012L236.918 254.747L244.196 257.525L243.819 258.512ZM248.097 247.303L248.973 247.638L247.028 252.734L246.152 252.399L248.097 247.303ZM248.47 246.327L240.316 243.215L242.195 238.294L243.07 238.628L241.569 242.562L244.324 243.613L245.728 239.935L246.604 240.269L245.2 243.948L247.971 245.005L249.497 241.008L250.372 241.342L248.47 246.327ZM251.027 239.626L242.874 236.514L243.251 235.527L250.528 238.305L251.975 234.515L252.851 234.849L251.027 239.626ZM253.434 233.32L245.281 230.208L247.159 225.287L248.035 225.622L246.534 229.555L249.289 230.607L250.693 226.928L251.568 227.262L250.164 230.941L252.935 231.999L254.461 228.001L255.337 228.336L253.434 233.32ZM247.838 223.508L248.288 222.329L256.114 222.142L256.15 222.046L250.44 216.692L250.889 215.513L259.043 218.626L258.69 219.549L252.496 217.185L252.465 217.264L257.688 222.177L257.347 223.069L250.18 223.252L250.15 223.332L256.344 225.696L255.992 226.62L247.838 223.508ZM259.799 216.646L251.645 213.534L253.523 208.613L254.399 208.947L252.898 212.881L255.653 213.932L257.057 210.254L257.933 210.588L256.529 214.267L259.3 215.324L260.825 211.327L261.701 211.661L259.799 216.646ZM256.67 200.368L264.824 203.48L264.459 204.435L256.361 206.435L256.331 206.515L262.733 208.958L262.356 209.945L254.202 206.833L254.567 205.878L262.687 203.868L262.717 203.789L256.299 201.339L256.67 200.368ZM258.13 199.172L257.254 198.838L259.588 192.723L260.464 193.057L259.485 195.621L266.763 198.399L266.386 199.386L259.109 196.608L258.13 199.172ZM269.643 190.853L270.519 191.188L268.574 196.284L267.698 195.949L269.643 190.853ZM262.326 188.18L261.45 187.846L263.784 181.731L264.66 182.065L263.681 184.629L270.959 187.407L270.582 188.394L263.304 185.616L262.326 188.18ZM264.098 180.908L264.529 179.777L269.199 178.968L269.235 178.873L266.292 175.159L266.724 174.028L270.393 178.804L273.753 180.086L273.376 181.074L270.016 179.791L264.098 180.908ZM275.365 175.863L267.211 172.751L268.263 169.996C268.507 169.356 268.822 168.878 269.208 168.56C269.592 168.238 270.017 168.054 270.482 168.006C270.947 167.959 271.42 168.026 271.9 168.21C272.38 168.393 272.78 168.658 273.097 169.004C273.416 169.348 273.615 169.768 273.694 170.263C273.769 170.757 273.686 171.321 273.444 171.956L272.691 173.93L271.815 173.596L272.556 171.653C272.723 171.215 272.782 170.835 272.732 170.512C272.682 170.188 272.551 169.918 272.339 169.7C272.126 169.479 271.856 169.306 271.529 169.181C271.203 169.057 270.888 169.006 270.584 169.03C270.28 169.051 270.005 169.168 269.757 169.38C269.506 169.592 269.295 169.919 269.126 170.362L268.464 172.098L275.741 174.876L275.365 175.863ZM278.081 168.747L269.927 165.635L271.805 160.714L272.681 161.048L271.18 164.982L273.935 166.033L275.339 162.355L276.215 162.689L274.811 166.367L277.582 167.425L279.107 163.428L279.983 163.762L278.081 168.747Z" fill="#6F757E"/>
<path d="M548.829 445.229L782.756 442.238" stroke="#A5ABB6" stroke-width="2"/>
<path d="M795.755 442.072L777.667 435.303L777.846 449.302L795.755 442.072Z" fill="#A5ABB6"/>
<path d="M575.78 438.884L575.668 430.157L578.617 430.119C579.299 430.111 579.86 430.22 580.3 430.447C580.741 430.672 581.068 430.984 581.284 431.385C581.499 431.786 581.61 432.243 581.617 432.757C581.623 433.272 581.524 433.729 581.319 434.129C581.114 434.53 580.795 434.846 580.364 435.079C579.932 435.309 579.378 435.428 578.702 435.437L576.316 435.467L576.303 434.513L578.656 434.483C579.121 434.477 579.496 434.404 579.778 434.264C580.063 434.124 580.268 433.928 580.393 433.677C580.52 433.422 580.581 433.12 580.577 432.771C580.573 432.421 580.503 432.117 580.369 431.857C580.235 431.597 580.024 431.398 579.735 431.26C579.446 431.119 579.066 431.051 578.595 431.057L576.737 431.081L576.836 438.87L575.78 438.884ZM579.837 434.911L582.035 438.804L580.808 438.819L578.644 434.926L579.837 434.911ZM583.455 438.786L583.343 430.059L588.61 429.992L588.622 430.929L584.412 430.983L584.45 433.932L588.387 433.881L588.399 434.819L584.462 434.869L584.5 437.835L588.778 437.78L588.79 438.717L583.455 438.786ZM590.626 438.694L590.515 429.967L591.571 429.954L591.671 437.743L595.727 437.691L595.739 438.628L590.626 438.694ZM598.284 438.596L597.176 438.61L600.269 429.843L601.36 429.829L604.676 438.514L603.568 438.528L600.866 431.216L600.798 431.217L598.284 438.596ZM598.65 435.182L603.115 435.125L603.127 436.062L598.662 436.119L598.65 435.182ZM604.439 430.727L604.427 429.789L610.972 429.706L610.984 430.643L608.24 430.678L608.339 438.467L607.283 438.481L607.183 430.692L604.439 430.727ZM613.659 429.671L613.771 438.398L612.714 438.411L612.603 429.685L613.659 429.671ZM623.197 433.913C623.209 434.834 623.053 435.631 622.729 436.306C622.405 436.981 621.956 437.504 621.381 437.875C620.806 438.246 620.147 438.436 619.402 438.445C618.658 438.455 617.994 438.281 617.41 437.925C616.826 437.569 616.363 437.058 616.022 436.392C615.681 435.726 615.505 434.932 615.493 434.012C615.481 433.092 615.637 432.294 615.961 431.619C616.285 430.945 616.734 430.422 617.309 430.051C617.884 429.68 618.544 429.49 619.288 429.48C620.032 429.471 620.696 429.644 621.28 430C621.865 430.356 622.327 430.868 622.668 431.534C623.009 432.2 623.185 432.993 623.197 433.913ZM622.174 433.927C622.165 433.171 622.03 432.535 621.771 432.018C621.514 431.502 621.17 431.112 620.737 430.851C620.308 430.589 619.829 430.462 619.3 430.469C618.772 430.475 618.295 430.615 617.87 430.888C617.447 431.16 617.112 431.558 616.866 432.081C616.623 432.604 616.506 433.243 616.516 433.999C616.525 434.755 616.659 435.391 616.915 435.907C617.175 436.424 617.519 436.813 617.949 437.075C618.381 437.336 618.861 437.464 619.39 437.457C619.918 437.45 620.394 437.31 620.816 437.038C621.242 436.765 621.576 436.368 621.82 435.845C622.066 435.322 622.184 434.682 622.174 433.927ZM631.838 429.439L631.95 438.166L630.927 438.179L626.084 431.388L625.999 431.389L626.086 438.241L625.03 438.254L624.918 429.528L625.941 429.514L630.801 436.322L630.886 436.321L630.798 429.452L631.838 429.439ZM638.753 431.533C638.696 431.102 638.484 430.769 638.118 430.535C637.751 430.301 637.304 430.187 636.775 430.194C636.389 430.199 636.052 430.266 635.764 430.395C635.478 430.523 635.256 430.698 635.097 430.919C634.941 431.14 634.864 431.389 634.868 431.668C634.871 431.9 634.929 432.1 635.042 432.266C635.157 432.43 635.304 432.565 635.482 432.674C635.659 432.78 635.845 432.867 636.039 432.935C636.233 433.001 636.411 433.054 636.574 433.095L637.463 433.322C637.691 433.379 637.945 433.458 638.225 433.559C638.507 433.661 638.777 433.801 639.035 433.98C639.296 434.155 639.512 434.383 639.683 434.662C639.855 434.941 639.943 435.285 639.948 435.694C639.954 436.165 639.836 436.593 639.594 436.977C639.354 437.361 639 437.668 638.532 437.898C638.066 438.129 637.498 438.248 636.827 438.257C636.202 438.265 635.66 438.171 635.2 437.975C634.743 437.779 634.381 437.502 634.115 437.145C633.852 436.787 633.701 436.37 633.66 435.894L634.751 435.88C634.784 436.209 634.898 436.48 635.094 436.693C635.293 436.904 635.542 437.06 635.841 437.161C636.144 437.26 636.468 437.307 636.815 437.302C637.218 437.297 637.58 437.227 637.899 437.092C638.218 436.955 638.47 436.767 638.655 436.529C638.839 436.288 638.929 436.008 638.925 435.69C638.921 435.4 638.838 435.165 638.673 434.986C638.509 434.806 638.294 434.661 638.028 434.551C637.763 434.44 637.476 434.345 637.168 434.263L636.09 433.97C635.406 433.783 634.863 433.51 634.461 433.152C634.058 432.793 633.853 432.32 633.846 431.732C633.84 431.243 633.966 430.815 634.226 430.448C634.488 430.079 634.842 429.79 635.289 429.582C635.738 429.372 636.241 429.263 636.797 429.256C637.36 429.249 637.861 429.344 638.301 429.54C638.741 429.733 639.091 430.001 639.351 430.345C639.614 430.688 639.756 431.079 639.775 431.52L638.753 431.533ZM641.716 438.041L641.604 429.314L642.661 429.301L642.711 433.187L647.364 433.127L647.314 429.241L648.371 429.228L648.482 437.954L647.426 437.968L647.376 434.065L642.723 434.124L642.773 438.027L641.716 438.041ZM651.543 429.187L651.655 437.914L650.598 437.927L650.486 429.201L651.543 429.187ZM653.773 437.887L653.662 429.16L656.61 429.122C657.295 429.114 657.856 429.23 658.294 429.472C658.735 429.71 659.063 430.037 659.278 430.452C659.494 430.867 659.605 431.331 659.611 431.846C659.618 432.36 659.519 432.828 659.314 433.252C659.112 433.675 658.795 434.014 658.364 434.269C657.932 434.522 657.377 434.653 656.698 434.661L654.585 434.688L654.573 433.751L656.652 433.724C657.121 433.718 657.496 433.633 657.778 433.467C658.06 433.302 658.263 433.08 658.388 432.803C658.515 432.523 658.576 432.208 658.572 431.859C658.567 431.509 658.498 431.198 658.364 430.924C658.232 430.65 658.022 430.437 657.733 430.284C657.444 430.129 657.063 430.054 656.588 430.06L654.731 430.084L654.83 437.873L653.773 437.887ZM665.77 437.733L665.782 438.671L660.328 438.74L660.316 437.803L665.77 437.733ZM666.815 437.72L666.704 428.993L671.97 428.926L671.982 429.863L667.772 429.917L667.81 432.866L671.747 432.816L671.759 433.753L667.822 433.803L667.86 436.769L672.138 436.714L672.15 437.652L666.815 437.72ZM673.987 437.628L673.875 428.902L674.932 428.888L675.031 436.677L679.088 436.625L679.1 437.563L673.987 437.628ZM680.736 437.542L680.624 428.815L685.891 428.748L685.903 429.685L681.693 429.739L681.731 432.688L685.668 432.638L685.68 433.575L681.743 433.625L681.781 436.591L686.059 436.536L686.071 437.474L680.736 437.542ZM687.796 428.724L689.057 428.708L692.115 435.913L692.218 435.912L695.091 428.63L696.352 428.614L696.463 437.341L695.475 437.354L695.39 430.723L695.305 430.724L692.663 437.389L691.708 437.402L688.896 430.806L688.811 430.807L688.896 437.438L687.907 437.45L687.796 428.724ZM698.582 437.314L698.471 428.587L703.737 428.52L703.749 429.457L699.539 429.511L699.577 432.46L703.514 432.409L703.526 433.347L699.589 433.397L699.627 436.363L703.905 436.308L703.917 437.246L698.582 437.314ZM712.562 428.407L712.673 437.134L711.651 437.147L706.808 430.356L706.723 430.357L706.81 437.209L705.754 437.222L705.642 428.496L706.665 428.483L711.525 435.29L711.61 435.289L711.522 428.42L712.562 428.407ZM714.211 429.324L714.199 428.386L720.744 428.303L720.756 429.24L718.012 429.275L718.112 437.064L717.055 437.078L716.955 429.289L714.211 429.324ZM726.187 436.961L726.199 437.898L720.745 437.968L720.733 437.031L726.187 436.961ZM725.976 429.173L725.964 428.236L732.509 428.152L732.521 429.09L729.777 429.125L729.876 436.914L728.819 436.927L728.72 429.138L725.976 429.173ZM733.39 428.141L734.6 428.125L737.072 432.168L737.174 432.167L739.543 428.062L740.753 428.047L737.665 433.217L737.711 436.814L736.654 436.827L736.608 433.231L733.39 428.141ZM742.231 436.756L742.119 428.029L745.068 427.992C745.753 427.983 746.314 428.099 746.752 428.341C747.192 428.58 747.52 428.906 747.736 429.321C747.951 429.736 748.062 430.201 748.069 430.715C748.076 431.229 747.976 431.698 747.772 432.121C747.57 432.544 747.253 432.883 746.822 433.139C746.39 433.391 745.835 433.522 745.156 433.531L743.042 433.558L743.03 432.62L745.11 432.594C745.579 432.588 745.954 432.502 746.236 432.336C746.518 432.171 746.721 431.949 746.845 431.672C746.972 431.392 747.034 431.078 747.029 430.728C747.025 430.379 746.956 430.067 746.821 429.793C746.69 429.519 746.48 429.306 746.191 429.153C745.902 428.998 745.52 428.923 745.046 428.929L743.188 428.953L743.288 436.742L742.231 436.756ZM749.848 436.658L749.736 427.932L755.003 427.865L755.015 428.802L750.805 428.856L750.842 431.804L754.78 431.754L754.792 432.692L750.854 432.742L750.892 435.708L755.17 435.653L755.182 436.59L749.848 436.658Z" fill="#6F757E"/>
<path d="M806.78 126.623C759.917 136.563 736.486 133.199 736.486 116.533C736.486 99.8658 759.917 96.5025 806.78 106.442" stroke="#A5ABB6" stroke-width="2"/>
<path d="M808.736 106.857L800.658 101.566L799.206 108.414L808.736 106.857Z" fill="#A5ABB6"/>
<path d="M730.486 157.976H721.759V155.027C721.759 154.345 721.875 153.785 722.108 153.348C722.338 152.91 722.655 152.586 723.058 152.376C723.462 152.166 723.92 152.061 724.435 152.061C724.949 152.061 725.405 152.166 725.803 152.376C726.2 152.586 726.513 152.909 726.74 153.344C726.964 153.778 727.077 154.334 727.077 155.01V157.396H726.122V155.044C726.122 154.578 726.054 154.203 725.918 153.919C725.781 153.632 725.588 153.425 725.338 153.297C725.085 153.166 724.784 153.101 724.435 153.101C724.085 153.101 723.78 153.166 723.518 153.297C723.257 153.427 723.055 153.636 722.913 153.923C722.768 154.21 722.696 154.589 722.696 155.061V156.919H730.486V157.976ZM726.565 153.868L730.486 151.72V152.947L726.565 155.061V153.868ZM730.486 150.3H721.759V145.033H722.696V149.243H725.645V145.306H726.582V149.243H729.548V144.965H730.486V150.3ZM730.486 143.128H721.759V142.071H729.548V138.014H730.486V143.128ZM730.486 135.469V136.577L721.759 133.373V132.282L730.486 129.077V130.185L723.139 132.793V132.861L730.486 135.469ZM727.077 135.06V130.594H728.014V135.06H727.077ZM722.696 129.215H721.759V122.669H722.696V125.414H730.486V126.47H722.696V129.215ZM721.759 119.981H730.486V121.038H721.759V119.981ZM726.122 110.499C727.043 110.499 727.838 110.665 728.509 110.997C729.179 111.33 729.696 111.786 730.06 112.365C730.423 112.945 730.605 113.607 730.605 114.351C730.605 115.095 730.423 115.757 730.06 116.337C729.696 116.916 729.179 117.372 728.509 117.705C727.838 118.037 727.043 118.203 726.122 118.203C725.202 118.203 724.406 118.037 723.736 117.705C723.065 117.372 722.548 116.916 722.185 116.337C721.821 115.757 721.639 115.095 721.639 114.351C721.639 113.607 721.821 112.945 722.185 112.365C722.548 111.786 723.065 111.33 723.736 110.997C724.406 110.665 725.202 110.499 726.122 110.499ZM726.122 111.522C725.366 111.522 724.729 111.648 724.209 111.901C723.689 112.151 723.295 112.49 723.028 112.919C722.761 113.345 722.628 113.823 722.628 114.351C722.628 114.879 722.761 115.358 723.028 115.787C723.295 116.213 723.689 116.553 724.209 116.806C724.729 117.056 725.366 117.181 726.122 117.181C726.878 117.181 727.516 117.056 728.035 116.806C728.555 116.553 728.949 116.213 729.216 115.787C729.483 115.358 729.616 114.879 729.616 114.351C729.616 113.823 729.483 113.345 729.216 112.919C728.949 112.49 728.555 112.151 728.035 111.901C727.516 111.648 726.878 111.522 726.122 111.522ZM721.759 101.801H730.486V102.824L723.634 107.58V107.665H730.486V108.722H721.759V107.699L728.628 102.926V102.841H721.759V101.801ZM723.94 94.9139C723.509 94.965 723.173 95.1724 722.935 95.5361C722.696 95.8997 722.577 96.3457 722.577 96.8741C722.577 97.2605 722.639 97.5986 722.764 97.8883C722.889 98.1753 723.061 98.3997 723.28 98.5616C723.499 98.7207 723.747 98.8003 724.026 98.8003C724.259 98.8003 724.459 98.7449 724.626 98.6341C724.791 98.5204 724.929 98.3756 725.04 98.1994C725.148 98.0233 725.237 97.8386 725.308 97.6454C725.376 97.4523 725.432 97.2747 725.474 97.1128L725.713 96.2264C725.773 95.9991 725.855 95.7463 725.96 95.4679C726.065 95.1866 726.209 94.9182 726.391 94.6625C726.57 94.404 726.8 94.1909 727.081 94.0233C727.362 93.8557 727.707 93.7719 728.116 93.7719C728.588 93.7719 729.014 93.8954 729.395 94.1426C729.776 94.3869 730.078 94.7449 730.303 95.2165C730.527 95.6852 730.639 96.2548 730.639 96.9253C730.639 97.5503 730.538 98.0915 730.337 98.5489C730.135 99.0034 729.854 99.3614 729.493 99.6227C729.132 99.8812 728.713 100.028 728.236 100.062V98.9707C728.565 98.9423 728.838 98.8315 729.054 98.6383C729.267 98.4423 729.426 98.1952 729.531 97.8969C729.634 97.5957 729.685 97.2719 729.685 96.9253C729.685 96.5219 729.619 96.1596 729.489 95.8386C729.355 95.5176 729.17 95.2633 728.935 95.0758C728.696 94.8883 728.418 94.7946 728.099 94.7946C727.81 94.7946 727.574 94.8756 727.392 95.0375C727.21 95.1994 727.062 95.4125 726.949 95.6767C726.835 95.9409 726.736 96.2264 726.651 96.5332L726.344 97.6071C726.148 98.2889 725.868 98.8287 725.504 99.2264C725.141 99.6241 724.665 99.823 724.077 99.823C723.588 99.823 723.162 99.6909 722.798 99.4267C722.432 99.1596 722.148 98.8017 721.946 98.3528C721.741 97.9011 721.639 97.3969 721.639 96.84C721.639 96.2775 721.74 95.7775 721.942 95.34C722.141 94.9025 722.413 94.556 722.76 94.3003C723.107 94.0417 723.5 93.9054 723.94 93.8912V94.9139ZM730.486 92.0343H721.759V90.9775H725.645V86.3241H721.759V85.2672H730.486V86.3241H726.582V90.9775H730.486V92.0343ZM730.554 82.5549C730.554 82.7651 730.479 82.9455 730.328 83.0961C730.178 83.2466 729.997 83.3219 729.787 83.3219C729.577 83.3219 729.396 83.2466 729.246 83.0961C729.095 82.9455 729.02 82.7651 729.02 82.5549C729.02 82.3447 729.095 82.1643 729.246 82.0137C729.396 81.8631 729.577 81.7878 729.787 81.7878C729.926 81.7878 730.054 81.8234 730.17 81.8944C730.287 81.9626 730.381 82.0549 730.452 82.1714C730.52 82.285 730.554 82.4128 730.554 82.5549ZM730.554 79.2502C730.554 79.4604 730.479 79.6408 730.328 79.7914C730.178 79.942 729.997 80.0172 729.787 80.0172C729.577 80.0172 729.396 79.942 729.246 79.7914C729.095 79.6408 729.02 79.4604 729.02 79.2502C729.02 79.04 729.095 78.8596 729.246 78.709C729.396 78.5584 729.577 78.4832 729.787 78.4832C729.926 78.4832 730.054 78.5187 730.17 78.5897C730.287 78.6579 730.381 78.7502 730.452 78.8667C730.52 78.9803 730.554 79.1082 730.554 79.2502ZM730.554 75.9455C730.554 76.1557 730.479 76.3361 730.328 76.4867C730.178 76.6373 729.997 76.7126 729.787 76.7126C729.577 76.7126 729.396 76.6373 729.246 76.4867C729.095 76.3361 729.02 76.1557 729.02 75.9455C729.02 75.7353 729.095 75.5549 729.246 75.4043C729.396 75.2538 729.577 75.1785 729.787 75.1785C729.926 75.1785 730.054 75.214 730.17 75.285C730.287 75.3532 730.381 75.4455 730.452 75.562C730.52 75.6756 730.554 75.8035 730.554 75.9455Z" fill="#6F757E"/>
<path d="M870.486 172.533C901.414 172.533 926.486 147.46 926.486 116.533C926.486 85.6046 901.414 60.5325 870.486 60.5325C839.558 60.5325 814.486 85.6046 814.486 116.533C814.486 147.46 839.558 172.533 870.486 172.533Z" fill="#C7E7A8"/>
<path d="M839.668 116.02H837.959L842.903 102.557H844.586L849.529 116.02H847.82L843.797 104.687H843.692L839.668 116.02ZM840.299 110.761H847.189V112.207H840.299V110.761ZM852.968 109.946V116.02H851.416V105.922H852.915V107.5H853.046C853.283 106.987 853.642 106.575 854.125 106.264C854.607 105.949 855.229 105.791 855.992 105.791C856.675 105.791 857.274 105.931 857.786 106.212C858.299 106.488 858.698 106.909 858.983 107.474C859.268 108.035 859.41 108.745 859.41 109.604V116.02H857.859V109.709C857.859 108.916 857.653 108.298 857.241 107.855C856.829 107.408 856.263 107.185 855.545 107.185C855.049 107.185 854.607 107.292 854.217 107.507C853.831 107.722 853.526 108.035 853.303 108.447C853.079 108.859 852.968 109.358 852.968 109.946ZM862.883 119.807C862.62 119.807 862.385 119.785 862.179 119.741C861.973 119.702 861.831 119.662 861.752 119.623L862.147 118.255C862.523 118.352 862.857 118.387 863.146 118.36C863.435 118.334 863.691 118.205 863.915 117.973C864.143 117.745 864.351 117.374 864.539 116.862L864.829 116.073L861.095 105.922H862.778L865.565 113.969H865.67L868.458 105.922H870.141L865.854 117.493C865.661 118.014 865.423 118.446 865.138 118.788C864.853 119.134 864.522 119.39 864.145 119.557C863.772 119.723 863.352 119.807 862.883 119.807ZM872.399 116.02V102.557H874.029V114.574H880.287V116.02H872.399ZM885.573 116.257C884.933 116.257 884.352 116.136 883.831 115.895C883.309 115.65 882.895 115.297 882.588 114.837C882.282 114.372 882.128 113.811 882.128 113.154C882.128 112.575 882.242 112.106 882.47 111.747C882.698 111.383 883.003 111.098 883.384 110.892C883.765 110.686 884.186 110.533 884.646 110.432C885.111 110.327 885.577 110.244 886.046 110.182C886.66 110.104 887.157 110.044 887.539 110.005C887.924 109.961 888.205 109.889 888.38 109.788C888.56 109.687 888.65 109.512 888.65 109.262V109.209C888.65 108.561 888.472 108.057 888.117 107.697C887.767 107.338 887.234 107.158 886.52 107.158C885.779 107.158 885.198 107.321 884.778 107.645C884.357 107.969 884.061 108.315 883.89 108.684L882.417 108.158C882.68 107.544 883.031 107.066 883.469 106.724C883.912 106.378 884.394 106.137 884.916 106.001C885.441 105.861 885.959 105.791 886.467 105.791C886.791 105.791 887.164 105.83 887.585 105.909C888.01 105.984 888.42 106.139 888.814 106.376C889.213 106.613 889.544 106.97 889.807 107.448C890.07 107.925 890.201 108.565 890.201 109.367V116.02H888.65V114.653H888.571C888.466 114.872 888.29 115.106 888.045 115.356C887.799 115.606 887.473 115.819 887.065 115.994C886.658 116.169 886.16 116.257 885.573 116.257ZM885.81 114.863C886.423 114.863 886.94 114.743 887.361 114.502C887.786 114.26 888.106 113.949 888.321 113.568C888.54 113.187 888.65 112.786 888.65 112.365V110.945C888.584 111.024 888.439 111.096 888.216 111.162C887.997 111.223 887.742 111.278 887.453 111.326C887.168 111.37 886.89 111.41 886.618 111.445C886.351 111.475 886.134 111.502 885.967 111.523C885.564 111.576 885.187 111.662 884.837 111.78C884.49 111.894 884.21 112.067 883.995 112.299C883.785 112.527 883.68 112.838 883.68 113.233C883.68 113.772 883.879 114.179 884.278 114.455C884.681 114.727 885.192 114.863 885.81 114.863ZM893.243 116.02V102.557H894.795V107.526H894.926C895.04 107.351 895.198 107.128 895.399 106.856C895.605 106.58 895.899 106.334 896.28 106.12C896.666 105.901 897.188 105.791 897.845 105.791C898.695 105.791 899.445 106.004 900.093 106.429C900.742 106.854 901.248 107.456 901.612 108.236C901.976 109.017 902.158 109.937 902.158 110.998C902.158 112.067 901.976 112.994 901.612 113.778C901.248 114.558 900.744 115.163 900.1 115.593C899.456 116.018 898.713 116.23 897.871 116.23C897.223 116.23 896.703 116.123 896.313 115.908C895.923 115.689 895.623 115.442 895.413 115.165C895.202 114.885 895.04 114.653 894.926 114.469H894.742V116.02H893.243ZM894.768 110.971C894.768 111.734 894.88 112.407 895.104 112.989C895.327 113.568 895.654 114.022 896.083 114.35C896.513 114.675 897.039 114.837 897.661 114.837C898.31 114.837 898.851 114.666 899.285 114.324C899.723 113.978 900.052 113.513 900.271 112.93C900.494 112.343 900.606 111.69 900.606 110.971C900.606 110.261 900.497 109.621 900.277 109.052C900.063 108.478 899.736 108.024 899.298 107.691C898.864 107.353 898.318 107.185 897.661 107.185C897.03 107.185 896.5 107.345 896.07 107.665C895.641 107.98 895.316 108.423 895.097 108.993C894.878 109.558 894.768 110.217 894.768 110.971Z" fill="#1A1B1D"/>
<path d="M868.139 134.743C867.166 134.743 866.327 134.528 865.622 134.099C864.92 133.665 864.379 133.06 863.998 132.284C863.621 131.504 863.432 130.597 863.432 129.563C863.432 128.528 863.621 127.617 863.998 126.828C864.379 126.035 864.909 125.417 865.589 124.974C866.272 124.527 867.07 124.303 867.982 124.303C868.508 124.303 869.027 124.391 869.54 124.566C870.052 124.742 870.519 125.027 870.94 125.421C871.361 125.811 871.696 126.328 871.946 126.972C872.196 127.617 872.32 128.41 872.32 129.352V130.01H864.537V128.669H870.743C870.743 128.099 870.629 127.59 870.401 127.143C870.177 126.696 869.857 126.343 869.441 126.085C869.029 125.826 868.543 125.697 867.982 125.697C867.364 125.697 866.829 125.85 866.378 126.157C865.931 126.46 865.587 126.854 865.345 127.341C865.104 127.827 864.984 128.349 864.984 128.905V129.799C864.984 130.562 865.115 131.208 865.378 131.739C865.646 132.264 866.016 132.665 866.489 132.942C866.963 133.213 867.513 133.349 868.139 133.349C868.547 133.349 868.915 133.292 869.244 133.178C869.577 133.06 869.864 132.885 870.105 132.652C870.346 132.416 870.532 132.122 870.664 131.771L872.163 132.192C872.005 132.701 871.74 133.148 871.367 133.533C870.995 133.915 870.535 134.213 869.987 134.427C869.439 134.638 868.823 134.743 868.139 134.743ZM876.232 121.069V134.533H874.681V121.069H876.232Z" fill="#1A1B1D"/>
<path d="M175.909 506.456C206.837 506.456 231.909 481.384 231.909 450.456C231.909 419.528 206.837 394.456 175.909 394.456C144.981 394.456 119.909 419.528 119.909 450.456C119.909 481.384 144.981 506.456 175.909 506.456Z" fill="#A1DBAB"/>
<path d="M170.874 449.944H169.243C169.147 449.475 168.978 449.063 168.737 448.708C168.5 448.353 168.211 448.055 167.869 447.814C167.532 447.569 167.157 447.384 166.745 447.262C166.333 447.139 165.904 447.078 165.457 447.078C164.642 447.078 163.903 447.284 163.241 447.696C162.584 448.108 162.06 448.715 161.67 449.517C161.284 450.319 161.092 451.303 161.092 452.468C161.092 453.634 161.284 454.618 161.67 455.42C162.06 456.222 162.584 456.829 163.241 457.241C163.903 457.653 164.642 457.859 165.457 457.859C165.904 457.859 166.333 457.798 166.745 457.675C167.157 457.552 167.532 457.37 167.869 457.129C168.211 456.884 168.5 456.584 168.737 456.229C168.978 455.869 169.147 455.457 169.243 454.993H170.874C170.751 455.681 170.527 456.297 170.203 456.84C169.879 457.384 169.476 457.846 168.994 458.227C168.511 458.604 167.97 458.891 167.37 459.088C166.774 459.286 166.136 459.384 165.457 459.384C164.308 459.384 163.287 459.104 162.393 458.543C161.499 457.982 160.796 457.184 160.283 456.15C159.77 455.116 159.514 453.888 159.514 452.468C159.514 451.048 159.77 449.821 160.283 448.787C160.796 447.753 161.499 446.955 162.393 446.394C163.287 445.833 164.308 445.553 165.457 445.553C166.136 445.553 166.774 445.651 167.37 445.848C167.97 446.046 168.511 446.335 168.994 446.716C169.476 447.093 169.879 447.553 170.203 448.097C170.527 448.636 170.751 449.252 170.874 449.944ZM173.298 459.2V449.102H174.849V459.2H173.298ZM174.087 447.42C173.784 447.42 173.524 447.317 173.304 447.111C173.09 446.905 172.982 446.657 172.982 446.368C172.982 446.078 173.09 445.831 173.304 445.625C173.524 445.419 173.784 445.316 174.087 445.316C174.389 445.316 174.648 445.419 174.862 445.625C175.082 445.831 175.191 446.078 175.191 446.368C175.191 446.657 175.082 446.905 174.862 447.111C174.648 447.317 174.389 447.42 174.087 447.42ZM182.082 449.102V450.417H176.849V449.102H182.082ZM178.375 446.683H179.926V456.308C179.926 456.746 179.99 457.075 180.117 457.294C180.248 457.508 180.415 457.653 180.616 457.728C180.822 457.798 181.039 457.833 181.267 457.833C181.438 457.833 181.578 457.824 181.688 457.806C181.798 457.785 181.885 457.767 181.951 457.754L182.266 459.148C182.161 459.187 182.014 459.226 181.826 459.266C181.638 459.31 181.399 459.332 181.109 459.332C180.671 459.332 180.242 459.237 179.821 459.049C179.405 458.861 179.058 458.573 178.782 458.188C178.511 457.802 178.375 457.316 178.375 456.728V446.683ZM185.415 462.987C185.152 462.987 184.918 462.965 184.712 462.921C184.506 462.882 184.364 462.842 184.285 462.803L184.679 461.435C185.056 461.532 185.389 461.567 185.678 461.541C185.968 461.514 186.224 461.385 186.448 461.153C186.675 460.925 186.884 460.554 187.072 460.042L187.361 459.253L183.627 449.102H185.31L188.098 457.149H188.203L190.99 449.102H192.673L188.387 460.673C188.194 461.194 187.955 461.626 187.67 461.968C187.385 462.314 187.055 462.57 186.678 462.737C186.305 462.904 185.884 462.987 185.415 462.987Z" fill="#1A1B1D"/>
<path d="M855.763 498.305C886.691 498.305 911.763 473.233 911.763 442.305C911.763 411.377 886.691 386.305 855.763 386.305C824.835 386.305 799.763 411.377 799.763 442.305C799.763 473.233 824.835 498.305 855.763 498.305Z" fill="#A1DBAB"/>
<path d="M831.227 432.536H829.597C829.5 432.068 829.332 431.656 829.09 431.301C828.854 430.946 828.565 430.648 828.223 430.407C827.885 430.161 827.511 429.977 827.099 429.854C826.687 429.732 826.257 429.67 825.81 429.67C824.995 429.67 824.256 429.876 823.595 430.288C822.937 430.7 822.413 431.307 822.023 432.109C821.638 432.911 821.445 433.895 821.445 435.061C821.445 436.227 821.638 437.211 822.023 438.013C822.413 438.815 822.937 439.422 823.595 439.834C824.256 440.246 824.995 440.452 825.81 440.452C826.257 440.452 826.687 440.39 827.099 440.268C827.511 440.145 827.885 439.963 828.223 439.722C828.565 439.476 828.854 439.176 829.09 438.821C829.332 438.462 829.5 438.05 829.597 437.585H831.227C831.104 438.273 830.881 438.889 830.556 439.433C830.232 439.976 829.829 440.438 829.347 440.82C828.865 441.197 828.323 441.484 827.723 441.681C827.127 441.878 826.489 441.977 825.81 441.977C824.662 441.977 823.641 441.696 822.747 441.135C821.852 440.574 821.149 439.777 820.636 438.742C820.124 437.708 819.867 436.481 819.867 435.061C819.867 433.641 820.124 432.414 820.636 431.379C821.149 430.345 821.852 429.548 822.747 428.987C823.641 428.426 824.662 428.145 825.81 428.145C826.489 428.145 827.127 428.244 827.723 428.441C828.323 428.638 828.865 428.927 829.347 429.309C829.829 429.686 830.232 430.146 830.556 430.689C830.881 431.228 831.104 431.844 831.227 432.536ZM837.753 442.003C836.842 442.003 836.042 441.786 835.354 441.352C834.67 440.918 834.135 440.311 833.75 439.531C833.368 438.751 833.178 437.84 833.178 436.796C833.178 435.745 833.368 434.826 833.75 434.042C834.135 433.257 834.67 432.648 835.354 432.214C836.042 431.78 836.842 431.564 837.753 431.564C838.665 431.564 839.463 431.78 840.146 432.214C840.834 432.648 841.369 433.257 841.75 434.042C842.136 434.826 842.329 435.745 842.329 436.796C842.329 437.84 842.136 438.751 841.75 439.531C841.369 440.311 840.834 440.918 840.146 441.352C839.463 441.786 838.665 442.003 837.753 442.003ZM837.753 440.609C838.446 440.609 839.016 440.432 839.463 440.077C839.91 439.722 840.241 439.255 840.455 438.677C840.67 438.098 840.777 437.471 840.777 436.796C840.777 436.122 840.67 435.493 840.455 434.91C840.241 434.327 839.91 433.856 839.463 433.496C839.016 433.137 838.446 432.957 837.753 432.957C837.061 432.957 836.491 433.137 836.044 433.496C835.597 433.856 835.266 434.327 835.051 434.91C834.837 435.493 834.729 436.122 834.729 436.796C834.729 437.471 834.837 438.098 835.051 438.677C835.266 439.255 835.597 439.722 836.044 440.077C836.491 440.432 837.061 440.609 837.753 440.609ZM844.697 441.793V431.695H846.196V433.273H846.327C846.538 432.734 846.878 432.315 847.346 432.017C847.815 431.715 848.379 431.564 849.036 431.564C849.702 431.564 850.257 431.715 850.699 432.017C851.146 432.315 851.495 432.734 851.744 433.273H851.85C852.108 432.751 852.496 432.337 853.013 432.03C853.53 431.719 854.151 431.564 854.874 431.564C855.777 431.564 856.515 431.846 857.089 432.412C857.663 432.973 857.95 433.847 857.95 435.035V441.793H856.399V435.035C856.399 434.29 856.195 433.757 855.787 433.437C855.38 433.117 854.9 432.957 854.348 432.957C853.638 432.957 853.088 433.172 852.698 433.601C852.308 434.027 852.113 434.566 852.113 435.219V441.793H850.535V434.877C850.535 434.303 850.349 433.84 849.976 433.49C849.604 433.135 849.124 432.957 848.536 432.957C848.133 432.957 847.756 433.065 847.406 433.279C847.059 433.494 846.779 433.792 846.564 434.173C846.354 434.55 846.249 434.986 846.249 435.482V441.793H844.697ZM860.787 445.579V431.695H862.286V433.299H862.47C862.584 433.124 862.742 432.9 862.943 432.629C863.149 432.352 863.443 432.107 863.824 431.892C864.21 431.673 864.731 431.564 865.389 431.564C866.239 431.564 866.988 431.776 867.637 432.201C868.286 432.626 868.792 433.229 869.156 434.009C869.519 434.789 869.701 435.71 869.701 436.77C869.701 437.84 869.519 438.766 869.156 439.551C868.792 440.331 868.288 440.936 867.644 441.365C866.999 441.791 866.257 442.003 865.415 442.003C864.766 442.003 864.247 441.896 863.857 441.681C863.467 441.462 863.167 441.214 862.956 440.938C862.746 440.658 862.584 440.425 862.47 440.241H862.338V445.579H860.787ZM862.312 436.744C862.312 437.506 862.424 438.179 862.647 438.762C862.871 439.341 863.197 439.794 863.627 440.123C864.056 440.447 864.582 440.609 865.205 440.609C865.853 440.609 866.395 440.438 866.829 440.097C867.267 439.75 867.595 439.286 867.815 438.703C868.038 438.116 868.15 437.463 868.15 436.744C868.15 436.034 868.04 435.394 867.821 434.824C867.606 434.25 867.28 433.797 866.842 433.463C866.408 433.126 865.862 432.957 865.205 432.957C864.574 432.957 864.043 433.117 863.614 433.437C863.184 433.753 862.86 434.195 862.641 434.765C862.422 435.33 862.312 435.99 862.312 436.744ZM875.039 442.029C874.4 442.029 873.819 441.909 873.297 441.668C872.776 441.422 872.362 441.07 872.055 440.609C871.748 440.145 871.595 439.584 871.595 438.926C871.595 438.348 871.709 437.879 871.937 437.52C872.164 437.156 872.469 436.871 872.85 436.665C873.232 436.459 873.652 436.306 874.113 436.205C874.577 436.1 875.044 436.016 875.513 435.955C876.126 435.876 876.624 435.817 877.005 435.777C877.391 435.734 877.671 435.661 877.847 435.561C878.026 435.46 878.116 435.284 878.116 435.035V434.982C878.116 434.333 877.939 433.829 877.584 433.47C877.233 433.111 876.7 432.931 875.986 432.931C875.245 432.931 874.665 433.093 874.244 433.417C873.823 433.742 873.527 434.088 873.357 434.456L871.884 433.93C872.147 433.317 872.498 432.839 872.936 432.497C873.378 432.151 873.861 431.91 874.382 431.774C874.908 431.634 875.425 431.564 875.934 431.564C876.258 431.564 876.63 431.603 877.051 431.682C877.476 431.756 877.886 431.912 878.28 432.149C878.679 432.385 879.01 432.742 879.273 433.22C879.536 433.698 879.668 434.338 879.668 435.14V441.793H878.116V440.425H878.037C877.932 440.644 877.757 440.879 877.511 441.129C877.266 441.379 876.939 441.591 876.532 441.766C876.124 441.942 875.627 442.029 875.039 442.029ZM875.276 440.636C875.89 440.636 876.407 440.515 876.828 440.274C877.253 440.033 877.573 439.722 877.787 439.341C878.007 438.959 878.116 438.558 878.116 438.138V436.718C878.05 436.796 877.906 436.869 877.682 436.935C877.463 436.996 877.209 437.051 876.92 437.099C876.635 437.143 876.356 437.182 876.085 437.217C875.817 437.248 875.6 437.274 875.434 437.296C875.031 437.349 874.654 437.434 874.303 437.552C873.957 437.666 873.676 437.84 873.462 438.072C873.251 438.3 873.146 438.611 873.146 439.005C873.146 439.544 873.346 439.952 873.744 440.228C874.148 440.5 874.658 440.636 875.276 440.636ZM884.051 435.718V441.793H882.499V431.695H883.998V433.273H884.13C884.366 432.76 884.726 432.348 885.208 432.037C885.69 431.721 886.312 431.564 887.075 431.564C887.759 431.564 888.357 431.704 888.87 431.984C889.382 432.26 889.781 432.681 890.066 433.246C890.351 433.807 890.493 434.517 890.493 435.376V441.793H888.942V435.482C888.942 434.688 888.736 434.07 888.324 433.628C887.912 433.181 887.347 432.957 886.628 432.957C886.133 432.957 885.69 433.065 885.3 433.279C884.914 433.494 884.61 433.807 884.386 434.219C884.163 434.631 884.051 435.131 884.051 435.718Z" fill="#1A1B1D"/>
<path d="M852.682 464.092C852.419 464.092 852.184 464.07 851.979 464.026C851.773 463.987 851.63 463.947 851.551 463.908L851.946 462.54C852.323 462.637 852.656 462.672 852.945 462.645C853.234 462.619 853.491 462.49 853.714 462.258C853.942 462.03 854.15 461.659 854.339 461.147L854.628 460.358L850.894 450.207H852.577L855.364 458.254H855.469L858.257 450.207H859.94L855.653 461.778C855.461 462.299 855.222 462.731 854.937 463.073C854.652 463.419 854.321 463.675 853.944 463.842C853.572 464.008 853.151 464.092 852.682 464.092Z" fill="#1A1B1D"/>
<path d="M484.847 503.047C515.775 503.047 540.847 477.975 540.847 447.047C540.847 416.119 515.775 391.047 484.847 391.047C453.919 391.047 428.847 416.119 428.847 447.047C428.847 477.975 453.919 503.047 484.847 503.047Z" fill="#A1DBAB"/>
<path d="M455.977 455.79V442.327H460.526C461.583 442.327 462.446 442.518 463.116 442.899C463.791 443.276 464.291 443.786 464.615 444.431C464.94 445.075 465.102 445.794 465.102 446.587C465.102 447.38 464.94 448.101 464.615 448.75C464.295 449.398 463.8 449.915 463.13 450.301C462.459 450.682 461.6 450.873 460.553 450.873H457.292V449.427H460.5C461.223 449.427 461.804 449.302 462.242 449.052C462.68 448.802 462.998 448.465 463.195 448.04C463.397 447.61 463.498 447.126 463.498 446.587C463.498 446.048 463.397 445.566 463.195 445.141C462.998 444.715 462.678 444.382 462.236 444.141C461.793 443.896 461.206 443.773 460.474 443.773H457.607V455.79H455.977ZM471.643 456.001C470.67 456.001 469.831 455.786 469.125 455.357C468.424 454.923 467.883 454.318 467.501 453.542C467.124 452.762 466.936 451.855 466.936 450.82C466.936 449.786 467.124 448.875 467.501 448.086C467.883 447.292 468.413 446.674 469.092 446.232C469.776 445.785 470.574 445.561 471.485 445.561C472.011 445.561 472.53 445.649 473.043 445.824C473.556 446 474.023 446.284 474.443 446.679C474.864 447.069 475.199 447.586 475.449 448.23C475.699 448.875 475.824 449.668 475.824 450.61V451.268H468.04V449.926H474.246C474.246 449.357 474.132 448.848 473.904 448.401C473.681 447.954 473.361 447.601 472.945 447.343C472.533 447.084 472.046 446.955 471.485 446.955C470.867 446.955 470.333 447.108 469.881 447.415C469.434 447.718 469.09 448.112 468.849 448.598C468.608 449.085 468.487 449.606 468.487 450.163V451.057C468.487 451.82 468.619 452.466 468.882 452.996C469.149 453.522 469.52 453.923 469.993 454.2C470.466 454.471 471.016 454.607 471.643 454.607C472.051 454.607 472.419 454.55 472.747 454.436C473.08 454.318 473.368 454.143 473.609 453.91C473.85 453.674 474.036 453.38 474.167 453.029L475.666 453.45C475.508 453.958 475.243 454.406 474.871 454.791C474.498 455.172 474.038 455.471 473.49 455.685C472.942 455.896 472.327 456.001 471.643 456.001ZM478.184 455.79V445.693H479.683V447.218H479.788C479.972 446.718 480.305 446.313 480.787 446.002C481.269 445.691 481.813 445.535 482.418 445.535C482.532 445.535 482.674 445.537 482.845 445.542C483.016 445.546 483.145 445.553 483.233 445.561V447.139C483.18 447.126 483.06 447.106 482.871 447.08C482.687 447.049 482.492 447.034 482.286 447.034C481.795 447.034 481.357 447.137 480.971 447.343C480.59 447.544 480.288 447.825 480.064 448.184C479.845 448.539 479.736 448.945 479.736 449.401V455.79H478.184ZM492.225 447.954L490.831 448.349C490.743 448.116 490.614 447.891 490.443 447.672C490.276 447.448 490.049 447.264 489.759 447.119C489.47 446.975 489.1 446.902 488.648 446.902C488.03 446.902 487.515 447.045 487.103 447.33C486.696 447.61 486.492 447.967 486.492 448.401C486.492 448.787 486.632 449.092 486.913 449.315C487.193 449.539 487.631 449.725 488.228 449.874L489.726 450.242C490.629 450.461 491.302 450.796 491.745 451.248C492.187 451.695 492.409 452.271 492.409 452.977C492.409 453.555 492.242 454.072 491.909 454.528C491.58 454.984 491.12 455.343 490.528 455.606C489.937 455.869 489.249 456.001 488.464 456.001C487.434 456.001 486.582 455.777 485.907 455.33C485.232 454.883 484.805 454.23 484.625 453.371L486.098 453.003C486.238 453.547 486.503 453.954 486.893 454.226C487.287 454.498 487.802 454.633 488.438 454.633C489.161 454.633 489.735 454.48 490.16 454.173C490.59 453.862 490.805 453.49 490.805 453.056C490.805 452.705 490.682 452.411 490.436 452.175C490.191 451.934 489.814 451.754 489.306 451.636L487.623 451.241C486.698 451.022 486.019 450.682 485.585 450.222C485.155 449.758 484.941 449.177 484.941 448.48C484.941 447.91 485.1 447.406 485.42 446.968C485.745 446.53 486.185 446.186 486.742 445.936C487.303 445.686 487.938 445.561 488.648 445.561C489.648 445.561 490.432 445.78 491.002 446.219C491.576 446.657 491.983 447.235 492.225 447.954ZM498.846 456.001C497.935 456.001 497.135 455.784 496.447 455.35C495.763 454.916 495.228 454.309 494.843 453.529C494.461 452.749 494.271 451.837 494.271 450.794C494.271 449.742 494.461 448.824 494.843 448.04C495.228 447.255 495.763 446.646 496.447 446.212C497.135 445.778 497.935 445.561 498.846 445.561C499.758 445.561 500.555 445.778 501.239 446.212C501.927 446.646 502.462 447.255 502.843 448.04C503.229 448.824 503.422 449.742 503.422 450.794C503.422 451.837 503.229 452.749 502.843 453.529C502.462 454.309 501.927 454.916 501.239 455.35C500.555 455.784 499.758 456.001 498.846 456.001ZM498.846 454.607C499.539 454.607 500.108 454.43 500.555 454.075C501.002 453.72 501.333 453.253 501.548 452.674C501.763 452.096 501.87 451.469 501.87 450.794C501.87 450.119 501.763 449.49 501.548 448.907C501.333 448.325 501.002 447.853 500.555 447.494C500.108 447.135 499.539 446.955 498.846 446.955C498.154 446.955 497.584 447.135 497.137 447.494C496.69 447.853 496.359 448.325 496.144 448.907C495.93 449.49 495.822 450.119 495.822 450.794C495.822 451.469 495.93 452.096 496.144 452.674C496.359 453.253 496.69 453.72 497.137 454.075C497.584 454.43 498.154 454.607 498.846 454.607ZM507.341 449.716V455.79H505.79V445.693H507.289V447.271H507.42C507.657 446.758 508.016 446.346 508.498 446.035C508.981 445.719 509.603 445.561 510.365 445.561C511.049 445.561 511.647 445.702 512.16 445.982C512.673 446.258 513.072 446.679 513.357 447.244C513.642 447.805 513.784 448.515 513.784 449.374V455.79H512.233V449.479C512.233 448.686 512.027 448.068 511.615 447.626C511.203 447.178 510.637 446.955 509.918 446.955C509.423 446.955 508.981 447.062 508.591 447.277C508.205 447.492 507.9 447.805 507.677 448.217C507.453 448.629 507.341 449.129 507.341 449.716Z" fill="#1A1B1D"/>
<path d="M618.012 114.049C648.94 114.049 674.012 88.9769 674.012 58.0489C674.012 27.121 648.94 2.04895 618.012 2.04895C587.084 2.04895 562.012 27.121 562.012 58.0489C562.012 88.9769 587.084 114.049 618.012 114.049Z" fill="#A1DBAB"/>
<path d="M604.643 66.7927V53.3292H609.192C610.248 53.3292 611.111 53.5198 611.782 53.9011C612.457 54.278 612.956 54.7886 613.281 55.4329C613.605 56.0771 613.767 56.7959 613.767 57.5891C613.767 58.3824 613.605 59.1033 613.281 59.752C612.961 60.4006 612.466 60.9178 611.795 61.3034C611.125 61.6847 610.266 61.8754 609.218 61.8754H605.957V60.4291H609.165C609.889 60.4291 610.469 60.3042 610.908 60.0544C611.346 59.8046 611.664 59.4671 611.861 59.042C612.062 58.6125 612.163 58.1282 612.163 57.5891C612.163 57.0501 612.062 56.568 611.861 56.1429C611.664 55.7177 611.344 55.3847 610.901 55.1436C610.458 54.8982 609.871 54.7755 609.139 54.7755H606.273V66.7927H604.643ZM620.308 67.0031C619.335 67.0031 618.496 66.7884 617.791 66.3589C617.089 65.925 616.548 65.3202 616.167 64.5444C615.79 63.7643 615.601 62.8571 615.601 61.8228C615.601 60.7885 615.79 59.8769 616.167 59.088C616.548 58.2947 617.078 57.6768 617.758 57.2341C618.441 56.7871 619.239 56.5636 620.151 56.5636C620.677 56.5636 621.196 56.6512 621.709 56.8265C622.221 57.0019 622.688 57.2867 623.109 57.6812C623.53 58.0712 623.865 58.5884 624.115 59.2326C624.365 59.8769 624.489 60.6702 624.489 61.6124V62.2698H616.706V60.9287H622.912C622.912 60.359 622.798 59.8506 622.57 59.4036C622.346 58.9565 622.026 58.6037 621.61 58.3451C621.198 58.0866 620.712 57.9573 620.151 57.9573C619.533 57.9573 618.998 58.1107 618.547 58.4175C618.1 58.7199 617.755 59.1143 617.514 59.6008C617.273 60.0873 617.153 60.6088 617.153 61.1654V62.0595C617.153 62.822 617.284 63.4685 617.547 63.9988C617.815 64.5247 618.185 64.9257 618.658 65.2018C619.132 65.4736 619.682 65.6094 620.308 65.6094C620.716 65.6094 621.084 65.5524 621.413 65.4385C621.746 65.3202 622.033 65.1449 622.274 64.9126C622.515 64.6759 622.701 64.3823 622.833 64.0317L624.332 64.4524C624.174 64.9608 623.909 65.4078 623.536 65.7935C623.164 66.1748 622.704 66.4728 622.156 66.6876C621.608 66.8979 620.992 67.0031 620.308 67.0031ZM631.241 56.6951V58.0099H626.008V56.6951H631.241ZM627.533 54.2758H629.085V63.9002C629.085 64.3384 629.148 64.6671 629.275 64.8863C629.407 65.101 629.573 65.2457 629.775 65.3202C629.981 65.3903 630.198 65.4253 630.426 65.4253C630.597 65.4253 630.737 65.4166 630.847 65.3991C630.956 65.3771 631.044 65.3596 631.109 65.3465L631.425 66.7401C631.32 66.7796 631.173 66.819 630.985 66.8585C630.796 66.9023 630.557 66.9242 630.268 66.9242C629.83 66.9242 629.4 66.83 628.98 66.6415C628.563 66.4531 628.217 66.166 627.941 65.7803C627.669 65.3947 627.533 64.9082 627.533 64.3209V54.2758Z" fill="#1A1B1D"/>
<path d="M68.2888 112C99.2168 112 124.289 86.9279 124.289 56C124.289 25.0721 99.2168 0 68.2888 0C37.3609 0 12.2888 25.0721 12.2888 56C12.2888 86.9279 37.3609 112 68.2888 112Z" fill="#A1DBAB"/>
<path d="M43.4192 64.7438V51.2802H47.9684C49.0202 51.2802 49.8836 51.4599 50.5585 51.8193C51.2335 52.1743 51.7331 52.663 52.0574 53.2853C52.3817 53.9077 52.5439 54.6155 52.5439 55.4087C52.5439 56.202 52.3817 56.9054 52.0574 57.519C51.7331 58.1325 51.2357 58.6146 50.5651 58.9653C49.8946 59.3115 49.0378 59.4846 47.9947 59.4846H44.3132V58.012H47.9421C48.6608 58.012 49.2394 57.9068 49.6776 57.6965C50.1203 57.4861 50.4402 57.1881 50.6374 56.8024C50.839 56.4123 50.9398 55.9478 50.9398 55.4087C50.9398 54.8697 50.839 54.3985 50.6374 53.9953C50.4358 53.5921 50.1137 53.2809 49.671 53.0618C49.2284 52.8383 48.6433 52.7265 47.9158 52.7265H45.0495V64.7438H43.4192ZM49.7565 58.6957L53.0698 64.7438H51.1765L47.9158 58.6957H49.7565ZM59.0439 64.9542C58.1323 64.9542 57.3325 64.7372 56.6444 64.3033C55.9607 63.8695 55.426 63.2625 55.0404 62.4823C54.6591 61.7022 54.4684 60.7906 54.4684 59.7476C54.4684 58.6957 54.6591 57.7776 55.0404 56.9931C55.426 56.2086 55.9607 55.5994 56.6444 55.1655C57.3325 54.7316 58.1323 54.5147 59.0439 54.5147C59.9555 54.5147 60.7532 54.7316 61.4369 55.1655C62.125 55.5994 62.6596 56.2086 63.0409 56.9931C63.4266 57.7776 63.6194 58.6957 63.6194 59.7476C63.6194 60.7906 63.4266 61.7022 63.0409 62.4823C62.6596 63.2625 62.125 63.8695 61.4369 64.3033C60.7532 64.7372 59.9555 64.9542 59.0439 64.9542ZM59.0439 63.5605C59.7364 63.5605 60.3061 63.383 60.7532 63.028C61.2002 62.673 61.5311 62.2062 61.7459 61.6277C61.9606 61.0492 62.068 60.4225 62.068 59.7476C62.068 59.0726 61.9606 58.4437 61.7459 57.8608C61.5311 57.2779 61.2002 56.8068 60.7532 56.4474C60.3061 56.088 59.7364 55.9083 59.0439 55.9083C58.3515 55.9083 57.7817 56.088 57.3347 56.4474C56.8877 56.8068 56.5568 57.2779 56.342 57.8608C56.1273 58.4437 56.0199 59.0726 56.0199 59.7476C56.0199 60.4225 56.1273 61.0492 56.342 61.6277C56.5568 62.2062 56.8877 62.673 57.3347 63.028C57.7817 63.383 58.3515 63.5605 59.0439 63.5605ZM66.1981 64.7438V51.2802H67.7496V56.2502H67.881C67.995 56.0749 68.1528 55.8514 68.3544 55.5796C68.5604 55.3035 68.854 55.0581 69.2353 54.8434C69.621 54.6242 70.1425 54.5147 70.7999 54.5147C71.6501 54.5147 72.3996 54.7272 73.0482 55.1523C73.6968 55.5775 74.203 56.1801 74.5668 56.9602C74.9306 57.7403 75.1124 58.6607 75.1124 59.7213C75.1124 60.7906 74.9306 61.7176 74.5668 62.5021C74.203 63.2822 73.699 63.887 73.0548 64.3165C72.4105 64.7416 71.6677 64.9542 70.8262 64.9542C70.1776 64.9542 69.6582 64.8468 69.2682 64.632C68.8781 64.4129 68.5779 64.1653 68.3675 63.8892C68.1571 63.6087 67.995 63.3764 67.881 63.1923H67.697V64.7438H66.1981ZM67.7233 59.695C67.7233 60.4576 67.835 61.1303 68.0585 61.7132C68.2821 62.2917 68.6086 62.7453 69.0381 63.074C69.4676 63.3983 69.9935 63.5605 70.6158 63.5605C71.2645 63.5605 71.8057 63.3896 72.2396 63.0477C72.6779 62.7015 73.0066 62.2369 73.2257 61.654C73.4492 61.0667 73.561 60.4137 73.561 59.695C73.561 58.985 73.4514 58.3451 73.2323 57.7754C73.0175 57.2012 72.691 56.7476 72.2528 56.4145C71.8189 56.0771 71.2732 55.9083 70.6158 55.9083C69.9847 55.9083 69.4544 56.0683 69.0249 56.3882C68.5954 56.7038 68.2711 57.1464 68.052 57.7162C67.8328 58.2816 67.7233 58.9412 67.7233 59.695ZM81.5878 64.9542C80.6762 64.9542 79.8764 64.7372 79.1883 64.3033C78.5046 63.8695 77.9699 63.2625 77.5843 62.4823C77.203 61.7022 77.0123 60.7906 77.0123 59.7476C77.0123 58.6957 77.203 57.7776 77.5843 56.9931C77.9699 56.2086 78.5046 55.5994 79.1883 55.1655C79.8764 54.7316 80.6762 54.5147 81.5878 54.5147C82.4994 54.5147 83.2971 54.7316 83.9808 55.1655C84.6689 55.5994 85.2035 56.2086 85.5848 56.9931C85.9705 57.7776 86.1633 58.6957 86.1633 59.7476C86.1633 60.7906 85.9705 61.7022 85.5848 62.4823C85.2035 63.2625 84.6689 63.8695 83.9808 64.3033C83.2971 64.7372 82.4994 64.9542 81.5878 64.9542ZM81.5878 63.5605C82.2803 63.5605 82.85 63.383 83.2971 63.028C83.7441 62.673 84.075 62.2062 84.2898 61.6277C84.5045 61.0492 84.6119 60.4225 84.6119 59.7476C84.6119 59.0726 84.5045 58.4437 84.2898 57.8608C84.075 57.2779 83.7441 56.8068 83.2971 56.4474C82.85 56.088 82.2803 55.9083 81.5878 55.9083C80.8954 55.9083 80.3256 56.088 79.8786 56.4474C79.4316 56.8068 79.1007 57.2779 78.8859 57.8608C78.6712 58.4437 78.5638 59.0726 78.5638 59.7476C78.5638 60.4225 78.6712 61.0492 78.8859 61.6277C79.1007 62.2062 79.4316 62.673 79.8786 63.028C80.3256 63.383 80.8954 63.5605 81.5878 63.5605ZM92.9231 54.6461V55.9609H87.6902V54.6461H92.9231ZM89.2153 52.2269H90.7668V61.8512C90.7668 62.2895 90.8303 62.6182 90.9574 62.8373C91.0889 63.0521 91.2555 63.1967 91.4571 63.2712C91.6631 63.3414 91.88 63.3764 92.1079 63.3764C92.2788 63.3764 92.4191 63.3676 92.5286 63.3501C92.6382 63.3282 92.7258 63.3107 92.7916 63.2975L93.1071 64.6912C93.002 64.7307 92.8551 64.7701 92.6667 64.8095C92.4782 64.8534 92.2394 64.8753 91.9501 64.8753C91.5118 64.8753 91.0823 64.7811 90.6616 64.5926C90.2453 64.4041 89.899 64.1171 89.6229 63.7314C89.3512 63.3457 89.2153 62.8593 89.2153 62.272V52.2269Z" fill="#1A1B1D"/>
<path d="M639.351 387.728C670.279 387.728 695.351 362.656 695.351 331.728C695.351 300.8 670.279 275.728 639.351 275.728C608.423 275.728 583.351 300.8 583.351 331.728C583.351 362.656 608.423 387.728 639.351 387.728Z" fill="#939CEF"/>
<path d="M612.034 340.472H610.324L615.268 327.008H616.951L621.895 340.472H620.185L616.162 329.138H616.057L612.034 340.472ZM612.665 335.213H619.554V336.659H612.665V335.213ZM625.333 334.398V340.472H623.781V330.374H625.28V331.952H625.412C625.648 331.439 626.008 331.027 626.49 330.716C626.972 330.401 627.594 330.243 628.357 330.243C629.041 330.243 629.639 330.383 630.152 330.664C630.664 330.94 631.063 331.36 631.348 331.926C631.633 332.487 631.775 333.197 631.775 334.056V340.472H630.224V334.161C630.224 333.368 630.018 332.75 629.606 332.307C629.194 331.86 628.629 331.637 627.91 331.637C627.415 331.637 626.972 331.744 626.582 331.959C626.196 332.173 625.892 332.487 625.668 332.899C625.445 333.311 625.333 333.81 625.333 334.398ZM634.61 340.472V330.374H636.162V340.472H634.61ZM635.399 328.691C635.097 328.691 634.836 328.588 634.617 328.382C634.402 328.176 634.295 327.929 634.295 327.64C634.295 327.35 634.402 327.103 634.617 326.897C634.836 326.691 635.097 326.588 635.399 326.588C635.702 326.588 635.96 326.691 636.175 326.897C636.394 327.103 636.504 327.35 636.504 327.64C636.504 327.929 636.394 328.176 636.175 328.382C635.96 328.588 635.702 328.691 635.399 328.691ZM639.004 340.472V330.374H640.502V331.952H640.634C640.844 331.413 641.184 330.995 641.653 330.697C642.122 330.394 642.685 330.243 643.342 330.243C644.009 330.243 644.563 330.394 645.006 330.697C645.453 330.995 645.801 331.413 646.051 331.952H646.156C646.415 331.431 646.803 331.016 647.32 330.71C647.837 330.398 648.457 330.243 649.18 330.243C650.083 330.243 650.821 330.526 651.396 331.091C651.97 331.652 652.257 332.526 652.257 333.714V340.472H650.705V333.714C650.705 332.969 650.501 332.436 650.094 332.116C649.686 331.797 649.206 331.637 648.654 331.637C647.944 331.637 647.394 331.851 647.004 332.281C646.614 332.706 646.419 333.245 646.419 333.898V340.472H644.841V333.556C644.841 332.982 644.655 332.52 644.282 332.169C643.91 331.814 643.43 331.637 642.843 331.637C642.44 331.637 642.063 331.744 641.712 331.959C641.366 332.173 641.085 332.471 640.871 332.853C640.66 333.23 640.555 333.666 640.555 334.161V340.472H639.004ZM658.065 340.709C657.425 340.709 656.844 340.588 656.323 340.347C655.801 340.102 655.387 339.749 655.08 339.289C654.773 338.824 654.62 338.263 654.62 337.606C654.62 337.027 654.734 336.558 654.962 336.199C655.19 335.835 655.494 335.55 655.876 335.344C656.257 335.138 656.678 334.985 657.138 334.884C657.603 334.779 658.069 334.696 658.538 334.634C659.152 334.555 659.649 334.496 660.031 334.457C660.416 334.413 660.697 334.341 660.872 334.24C661.052 334.139 661.142 333.964 661.142 333.714V333.661C661.142 333.013 660.964 332.509 660.609 332.149C660.258 331.79 659.726 331.61 659.012 331.61C658.271 331.61 657.69 331.772 657.269 332.097C656.849 332.421 656.553 332.767 656.382 333.135L654.909 332.61C655.172 331.996 655.523 331.518 655.961 331.176C656.404 330.83 656.886 330.589 657.407 330.453C657.933 330.313 658.451 330.243 658.959 330.243C659.283 330.243 659.656 330.282 660.077 330.361C660.502 330.436 660.911 330.591 661.306 330.828C661.705 331.065 662.036 331.422 662.299 331.9C662.561 332.377 662.693 333.017 662.693 333.819V340.472H661.142V339.105H661.063C660.957 339.324 660.782 339.558 660.537 339.808C660.291 340.058 659.965 340.27 659.557 340.446C659.15 340.621 658.652 340.709 658.065 340.709ZM658.302 339.315C658.915 339.315 659.432 339.194 659.853 338.953C660.278 338.712 660.598 338.401 660.813 338.02C661.032 337.639 661.142 337.238 661.142 336.817V335.397C661.076 335.476 660.931 335.548 660.708 335.614C660.488 335.675 660.234 335.73 659.945 335.778C659.66 335.822 659.382 335.861 659.11 335.897C658.843 335.927 658.626 335.954 658.459 335.975C658.056 336.028 657.679 336.113 657.329 336.232C656.982 336.346 656.702 336.519 656.487 336.751C656.277 336.979 656.172 337.29 656.172 337.685C656.172 338.224 656.371 338.631 656.77 338.907C657.173 339.179 657.684 339.315 658.302 339.315ZM667.076 327.008V340.472H665.525V327.008H667.076Z" fill="#1A1B1D"/>
<path d="M56 386.122C86.9279 386.122 112 361.05 112 330.122C112 299.194 86.9279 274.122 56 274.122C25.0721 274.122 0 299.194 0 330.122C0 361.05 25.0721 386.122 56 386.122Z" fill="#939CEF"/>
<path d="M20.1304 325.402H22.0763L26.6518 336.578H26.8095L31.385 325.402H33.331V338.866H31.8058V328.637H31.6743L27.4669 338.866H25.9944L21.787 328.637H21.6555V338.866H20.1304V325.402ZM39.361 339.103C38.7211 339.103 38.1404 338.982 37.6188 338.741C37.0973 338.496 36.6831 338.143 36.3764 337.683C36.0696 337.218 35.9162 336.657 35.9162 336C35.9162 335.421 36.0301 334.952 36.258 334.593C36.4859 334.229 36.7905 333.944 37.1718 333.738C37.5531 333.532 37.9738 333.379 38.434 333.278C38.8986 333.173 39.3653 333.09 39.8343 333.028C40.4479 332.949 40.9453 332.89 41.3266 332.851C41.7123 332.807 41.9928 332.735 42.1681 332.634C42.3477 332.533 42.4376 332.358 42.4376 332.108V332.055C42.4376 331.407 42.2601 330.903 41.9051 330.543C41.5545 330.184 41.022 330.004 40.3076 330.004C39.5669 330.004 38.9862 330.166 38.5655 330.491C38.1448 330.815 37.8489 331.161 37.678 331.529L36.2054 331.004C36.4684 330.39 36.819 329.912 37.2573 329.57C37.6999 329.224 38.182 328.983 38.7036 328.847C39.2295 328.707 39.7466 328.637 40.255 328.637C40.5793 328.637 40.9519 328.676 41.3726 328.755C41.7977 328.83 42.2075 328.985 42.6019 329.222C43.0008 329.459 43.3317 329.816 43.5946 330.294C43.8576 330.771 43.9891 331.411 43.9891 332.213V338.866H42.4376V337.499H42.3587C42.2535 337.718 42.0782 337.952 41.8328 338.202C41.5874 338.452 41.2608 338.664 40.8533 338.84C40.4457 339.015 39.9482 339.103 39.361 339.103ZM39.5976 337.709C40.2112 337.709 40.7284 337.588 41.1491 337.347C41.5742 337.106 41.8941 336.795 42.1089 336.414C42.328 336.033 42.4376 335.632 42.4376 335.211V333.791C42.3719 333.87 42.2272 333.942 42.0037 334.008C41.7846 334.069 41.5304 334.124 41.2411 334.172C40.9563 334.216 40.678 334.255 40.4062 334.291C40.1389 334.321 39.9219 334.348 39.7554 334.369C39.3522 334.422 38.9753 334.507 38.6247 334.626C38.2784 334.74 37.9979 334.913 37.7832 335.145C37.5728 335.373 37.4676 335.684 37.4676 336.079C37.4676 336.618 37.6671 337.025 38.0659 337.301C38.4691 337.573 38.9797 337.709 39.5976 337.709ZM50.923 339.076C49.9763 339.076 49.1612 338.853 48.4775 338.406C47.7938 337.959 47.2678 337.343 46.8997 336.559C46.5316 335.774 46.3475 334.878 46.3475 333.87C46.3475 332.844 46.5359 331.939 46.9128 331.155C47.2941 330.366 47.8244 329.75 48.5038 329.307C49.1875 328.86 49.9851 328.637 50.8967 328.637C51.6067 328.637 52.2466 328.768 52.8163 329.031C53.386 329.294 53.8528 329.662 54.2166 330.136C54.5803 330.609 54.806 331.161 54.8937 331.792H53.3422C53.2239 331.332 52.9609 330.925 52.5533 330.57C52.1501 330.21 51.6067 330.031 50.923 330.031C50.3182 330.031 49.7879 330.188 49.3321 330.504C48.8807 330.815 48.5279 331.256 48.2737 331.825C48.0239 332.391 47.8989 333.055 47.8989 333.817C47.8989 334.597 48.0217 335.277 48.2671 335.855C48.5169 336.434 48.8675 336.883 49.3189 337.203C49.7747 337.523 50.3094 337.683 50.923 337.683C51.3262 337.683 51.6921 337.613 52.0208 337.472C52.3495 337.332 52.6278 337.131 52.8557 336.868C53.0836 336.605 53.2458 336.289 53.3422 335.921H54.8937C54.806 336.517 54.5891 337.054 54.2429 337.532C53.901 338.005 53.4474 338.382 52.882 338.662C52.3211 338.938 51.668 339.076 50.923 339.076ZM58.7132 332.792V338.866H57.1617V325.402H58.7132V330.346H58.8447C59.0813 329.825 59.4363 329.41 59.9097 329.104C60.3874 328.792 61.0229 328.637 61.8161 328.637C62.5042 328.637 63.1068 328.775 63.624 329.051C64.1411 329.323 64.5421 329.741 64.827 330.307C65.1163 330.868 65.2609 331.582 65.2609 332.45V338.866H63.7094V332.555C63.7094 331.753 63.5013 331.133 63.0849 330.695C62.6729 330.252 62.101 330.031 61.3691 330.031C60.8607 330.031 60.4049 330.138 60.0017 330.353C59.6029 330.567 59.2873 330.881 59.055 331.293C58.8271 331.705 58.7132 332.204 58.7132 332.792ZM68.0992 338.866V328.768H69.6507V338.866H68.0992ZM68.8881 327.085C68.5857 327.085 68.3249 326.982 68.1058 326.776C67.891 326.57 67.7837 326.323 67.7837 326.034C67.7837 325.744 67.891 325.497 68.1058 325.291C68.3249 325.085 68.5857 324.982 68.8881 324.982C69.1905 324.982 69.4491 325.085 69.6638 325.291C69.883 325.497 69.9925 325.744 69.9925 326.034C69.9925 326.323 69.883 326.57 69.6638 326.776C69.4491 326.982 69.1905 327.085 68.8881 327.085ZM74.0438 332.792V338.866H72.4923V328.768H73.9912V330.346H74.1226C74.3593 329.833 74.7187 329.421 75.2008 329.11C75.6829 328.795 76.3052 328.637 77.0678 328.637C77.7515 328.637 78.3497 328.777 78.8625 329.058C79.3753 329.334 79.7741 329.754 80.059 330.32C80.3438 330.881 80.4863 331.591 80.4863 332.45V338.866H78.9348V332.555C78.9348 331.762 78.7288 331.144 78.3169 330.701C77.9049 330.254 77.3395 330.031 76.6208 330.031C76.1255 330.031 75.6829 330.138 75.2928 330.353C74.9071 330.567 74.6026 330.881 74.379 331.293C74.1555 331.705 74.0438 332.204 74.0438 332.792ZM87.555 339.076C86.582 339.076 85.7428 338.862 85.0371 338.432C84.3359 337.998 83.7947 337.393 83.4134 336.618C83.0365 335.838 82.848 334.93 82.848 333.896C82.848 332.862 83.0365 331.95 83.4134 331.161C83.7947 330.368 84.325 329.75 85.0043 329.307C85.688 328.86 86.4856 328.637 87.3972 328.637C87.9231 328.637 88.4425 328.725 88.9552 328.9C89.468 329.075 89.9348 329.36 90.3555 329.754C90.7762 330.145 91.1115 330.662 91.3613 331.306C91.6111 331.95 91.7361 332.743 91.7361 333.686V334.343H83.9524V333.002H90.1583C90.1583 332.432 90.0443 331.924 89.8164 331.477C89.5929 331.03 89.273 330.677 88.8566 330.418C88.4447 330.16 87.9582 330.031 87.3972 330.031C86.7793 330.031 86.2446 330.184 85.7932 330.491C85.3461 330.793 85.0021 331.188 84.761 331.674C84.52 332.161 84.3995 332.682 84.3995 333.239V334.133C84.3995 334.895 84.5309 335.542 84.7939 336.072C85.0612 336.598 85.4316 336.999 85.9049 337.275C86.3782 337.547 86.9283 337.683 87.555 337.683C87.9626 337.683 88.3307 337.626 88.6594 337.512C88.9925 337.393 89.2796 337.218 89.5206 336.986C89.7617 336.749 89.9479 336.456 90.0794 336.105L91.5783 336.526C91.4205 337.034 91.1553 337.481 90.7828 337.867C90.4103 338.248 89.9501 338.546 89.4023 338.761C88.8544 338.971 88.2387 339.076 87.555 339.076Z" fill="#1A1B1D"/>
<path d="M326.379 112.227C357.307 112.227 382.379 87.1546 382.379 56.2266C382.379 25.2987 357.307 0.226624 326.379 0.226624C295.452 0.226624 270.379 25.2987 270.379 56.2266C270.379 87.1546 295.452 112.227 326.379 112.227Z" fill="#939CEF"/>
<path d="M293.01 55.7142V42.2507H297.559C298.611 42.2507 299.474 42.4304 300.149 42.7897C300.824 43.1447 301.324 43.6334 301.648 44.2557C301.972 44.8781 302.135 45.5859 302.135 46.3791C302.135 47.1724 301.972 47.8758 301.648 48.4894C301.324 49.103 300.826 49.5851 300.156 49.9357C299.485 50.2819 298.628 50.455 297.585 50.455H293.904V48.9825H297.533C298.251 48.9825 298.83 48.8773 299.268 48.6669C299.711 48.4565 300.031 48.1585 300.228 47.7728C300.43 47.3828 300.53 46.9182 300.53 46.3791C300.53 45.8401 300.43 45.3689 300.228 44.9657C300.026 44.5625 299.704 44.2514 299.262 44.0322C298.819 43.8087 298.234 43.697 297.506 43.697H294.64V55.7142H293.01ZM299.347 49.6661L302.66 55.7142H300.767L297.506 49.6661H299.347ZM308.766 55.9246C307.793 55.9246 306.954 55.7099 306.248 55.2803C305.547 54.8465 305.006 54.2417 304.624 53.4659C304.248 52.6858 304.059 51.7786 304.059 50.7443C304.059 49.71 304.248 48.7984 304.624 48.0095C305.006 47.2162 305.536 46.5983 306.215 46.1556C306.899 45.7086 307.697 45.4851 308.608 45.4851C309.134 45.4851 309.654 45.5727 310.166 45.748C310.679 45.9233 311.146 46.2082 311.567 46.6027C311.987 46.9927 312.323 47.5099 312.572 48.1541C312.822 48.7984 312.947 49.5916 312.947 50.5339V51.1913H305.163V49.8502H311.369C311.369 49.2805 311.255 48.7721 311.028 48.3251C310.804 47.878 310.484 47.5252 310.068 47.2666C309.656 47.0081 309.169 46.8788 308.608 46.8788C307.99 46.8788 307.456 47.0322 307.004 47.339C306.557 47.6414 306.213 48.0358 305.972 48.5223C305.731 49.0087 305.611 49.5303 305.611 50.0869V50.981C305.611 51.7435 305.742 52.39 306.005 52.9203C306.272 53.4462 306.643 53.8472 307.116 54.1233C307.589 54.395 308.139 54.5309 308.766 54.5309C309.174 54.5309 309.542 54.4739 309.87 54.36C310.204 54.2417 310.491 54.0663 310.732 53.8341C310.973 53.5974 311.159 53.3038 311.29 52.9532L312.789 53.3739C312.632 53.8823 312.366 54.3293 311.994 54.715C311.621 55.0963 311.161 55.3943 310.613 55.609C310.066 55.8194 309.45 55.9246 308.766 55.9246ZM322.46 47.878L321.066 48.2725C320.978 48.0402 320.849 47.8145 320.678 47.5953C320.512 47.3718 320.284 47.1877 319.994 47.0431C319.705 46.8985 319.335 46.8262 318.883 46.8262C318.265 46.8262 317.751 46.9686 317.339 47.2535C316.931 47.534 316.727 47.8912 316.727 48.3251C316.727 48.7107 316.867 49.0153 317.148 49.2388C317.428 49.4624 317.867 49.6486 318.463 49.7976L319.962 50.1658C320.864 50.3849 321.537 50.7202 321.98 51.1716C322.422 51.6186 322.644 52.1949 322.644 52.9006C322.644 53.4791 322.477 53.9962 322.144 54.452C321.815 54.9078 321.355 55.2672 320.764 55.5302C320.172 55.7931 319.484 55.9246 318.699 55.9246C317.669 55.9246 316.817 55.7011 316.142 55.2541C315.467 54.807 315.04 54.154 314.86 53.295L316.333 52.9269C316.473 53.4703 316.738 53.8779 317.128 54.1496C317.523 54.4213 318.038 54.5572 318.673 54.5572C319.396 54.5572 319.97 54.4038 320.395 54.097C320.825 53.7859 321.04 53.4133 321.04 52.9794C321.04 52.6288 320.917 52.3352 320.672 52.0985C320.426 51.8575 320.049 51.6778 319.541 51.5595L317.858 51.165C316.933 50.9459 316.254 50.6062 315.82 50.1461C315.39 49.6815 315.176 49.1008 315.176 48.4039C315.176 47.8342 315.336 47.3302 315.656 46.8919C315.98 46.4537 316.42 46.1096 316.977 45.8598C317.538 45.61 318.173 45.4851 318.883 45.4851C319.883 45.4851 320.667 45.7042 321.237 46.1425C321.811 46.5807 322.219 47.1593 322.46 47.878ZM324.979 55.7142V45.6166H326.531V55.7142H324.979ZM325.768 43.9336C325.466 43.9336 325.205 43.8306 324.986 43.6246C324.771 43.4187 324.664 43.171 324.664 42.8818C324.664 42.5925 324.771 42.3449 324.986 42.1389C325.205 41.9329 325.466 41.8299 325.768 41.8299C326.07 41.8299 326.329 41.9329 326.544 42.1389C326.763 42.3449 326.873 42.5925 326.873 42.8818C326.873 43.171 326.763 43.4187 326.544 43.6246C326.329 43.8306 326.07 43.9336 325.768 43.9336ZM333.185 55.9246C332.344 55.9246 331.601 55.712 330.957 55.2869C330.312 54.8574 329.808 54.2526 329.445 53.4725C329.081 52.688 328.899 51.7611 328.899 50.6917C328.899 49.6311 329.081 48.7107 329.445 47.9306C329.808 47.1505 330.315 46.5479 330.963 46.1228C331.612 45.6976 332.361 45.4851 333.211 45.4851C333.869 45.4851 334.388 45.5946 334.77 45.8138C335.155 46.0285 335.449 46.274 335.65 46.5501C335.856 46.8218 336.016 47.0453 336.13 47.2206H336.262V42.2507H337.813V55.7142H336.314V54.1628H336.13C336.016 54.3468 335.854 54.5791 335.644 54.8596C335.434 55.1357 335.133 55.3833 334.743 55.6025C334.353 55.8172 333.834 55.9246 333.185 55.9246ZM333.396 54.5309C334.018 54.5309 334.544 54.3688 334.973 54.0444C335.403 53.7157 335.729 53.2621 335.953 52.6836C336.176 52.1007 336.288 51.428 336.288 50.6654C336.288 49.9116 336.179 49.252 335.959 48.6866C335.74 48.1169 335.416 47.6742 334.986 47.3587C334.557 47.0387 334.027 46.8788 333.396 46.8788C332.738 46.8788 332.19 47.0475 331.752 47.385C331.318 47.7181 330.992 48.1717 330.773 48.7458C330.558 49.3155 330.45 49.9554 330.45 50.6654C330.45 51.3842 330.56 52.0372 330.779 52.6245C331.003 53.2073 331.331 53.6719 331.765 54.0181C332.203 54.36 332.747 54.5309 333.396 54.5309ZM345.104 55.9246C344.131 55.9246 343.292 55.7099 342.586 55.2803C341.885 54.8465 341.344 54.2417 340.962 53.4659C340.585 52.6858 340.397 51.7786 340.397 50.7443C340.397 49.71 340.585 48.7984 340.962 48.0095C341.344 47.2162 341.874 46.5983 342.553 46.1556C343.237 45.7086 344.034 45.4851 344.946 45.4851C345.472 45.4851 345.991 45.5727 346.504 45.748C347.017 45.9233 347.484 46.2082 347.904 46.6027C348.325 46.9927 348.66 47.5099 348.91 48.1541C349.16 48.7984 349.285 49.5916 349.285 50.5339V51.1913H341.501V49.8502H347.707C347.707 49.2805 347.593 48.7721 347.365 48.3251C347.142 47.878 346.822 47.5252 346.406 47.2666C345.994 47.0081 345.507 46.8788 344.946 46.8788C344.328 46.8788 343.793 47.0322 343.342 47.339C342.895 47.6414 342.551 48.0358 342.31 48.5223C342.069 49.0087 341.948 49.5303 341.948 50.0869V50.981C341.948 51.7435 342.08 52.39 342.343 52.9203C342.61 53.4462 342.98 53.8472 343.454 54.1233C343.927 54.395 344.477 54.5309 345.104 54.5309C345.511 54.5309 345.88 54.4739 346.208 54.36C346.541 54.2417 346.828 54.0663 347.069 53.8341C347.311 53.5974 347.497 53.3038 347.628 52.9532L349.127 53.3739C348.969 53.8823 348.704 54.3293 348.332 54.715C347.959 55.0963 347.499 55.3943 346.951 55.609C346.403 55.8194 345.788 55.9246 345.104 55.9246ZM353.196 49.6399V55.7142H351.645V45.6166H353.144V47.1943H353.275C353.512 46.6816 353.871 46.2696 354.353 45.9584C354.836 45.6429 355.458 45.4851 356.221 45.4851C356.904 45.4851 357.502 45.6253 358.015 45.9058C358.528 46.1819 358.927 46.6027 359.212 47.168C359.497 47.729 359.639 48.439 359.639 49.298V55.7142H358.088V49.4032C358.088 48.6099 357.882 47.992 357.47 47.5493C357.058 47.1023 356.492 46.8788 355.773 46.8788C355.278 46.8788 354.836 46.9861 354.446 47.2009C354.06 47.4156 353.755 47.729 353.532 48.141C353.308 48.553 353.196 49.0526 353.196 49.6399Z" fill="#1A1B1D"/>
<path d="M328.691 64.129V65.4438H323.458V64.129H328.691ZM324.983 61.7097H326.535V71.3341C326.535 71.7723 326.598 72.101 326.725 72.3202C326.857 72.5349 327.023 72.6796 327.225 72.7541C327.431 72.8242 327.648 72.8592 327.876 72.8592C328.047 72.8592 328.187 72.8505 328.296 72.8329C328.406 72.811 328.494 72.7935 328.559 72.7804L328.875 74.174C328.77 74.2135 328.623 74.2529 328.434 74.2924C328.246 74.3362 328.007 74.3581 327.718 74.3581C327.28 74.3581 326.85 74.2639 326.429 74.0754C326.013 73.887 325.667 73.5999 325.391 73.2142C325.119 72.8286 324.983 72.3421 324.983 71.7548V61.7097Z" fill="#1A1B1D"/>
</svg>
