<?xml version="1.0" encoding="UTF-8" standalone="no"?>
<!DOCTYPE svg PUBLIC "-//W3C//DTD SVG 1.1//EN"
 "http://www.w3.org/Graphics/SVG/1.1/DTD/svg11.dtd">
<!-- Generated by graphviz version 2.49.3 (20211027.1534)
 -->
<!-- Title: L Pages: 1 -->
<svg width="99pt" height="349pt"
 viewBox="0.00 0.00 98.50 349.00" xmlns="http://www.w3.org/2000/svg" xmlns:xlink="http://www.w3.org/1999/xlink">
<g id="graph0" class="graph" transform="scale(1 1) rotate(0) translate(4 345)">
<title>L</title>
<polygon fill="white" stroke="transparent" points="-4,4 -4,-345 94.5,-345 94.5,4 -4,4"/>
<!-- N0 -->
<g id="node1" class="node">
<title>N0</title>
<path fill="none" stroke="black" d="M12,-294.5C12,-294.5 65,-294.5 65,-294.5 71,-294.5 77,-300.5 77,-306.5 77,-306.5 77,-328.5 77,-328.5 77,-334.5 71,-340.5 65,-340.5 65,-340.5 12,-340.5 12,-340.5 6,-340.5 0,-334.5 0,-328.5 0,-328.5 0,-306.5 0,-306.5 0,-300.5 6,-294.5 12,-294.5"/>
<text text-anchor="middle" x="38.5" y="-325.3" font-family="Times,serif" font-size="14.00">Person</text>
<polyline fill="none" stroke="black" points="0,-317.5 77,-317.5 "/>
<text text-anchor="start" x="8" y="-302.3" font-family="Times,serif" font-size="14.00">name = &#39;A&#39;</text>
</g>
<!-- N1 -->
<g id="node2" class="node">
<title>N1</title>
<path fill="none" stroke="black" d="M12,-196.5C12,-196.5 65,-196.5 65,-196.5 71,-196.5 77,-202.5 77,-208.5 77,-208.5 77,-230.5 77,-230.5 77,-236.5 71,-242.5 65,-242.5 65,-242.5 12,-242.5 12,-242.5 6,-242.5 0,-236.5 0,-230.5 0,-230.5 0,-208.5 0,-208.5 0,-202.5 6,-196.5 12,-196.5"/>
<text text-anchor="middle" x="38.5" y="-227.3" font-family="Times,serif" font-size="14.00">Person</text>
<polyline fill="none" stroke="black" points="0,-219.5 77,-219.5 "/>
<text text-anchor="start" x="8" y="-204.3" font-family="Times,serif" font-size="14.00">name = &#39;B&#39;</text>
</g>
<!-- N0&#45;&gt;N1 -->
<g id="edge1" class="edge">
<title>N0&#45;&gt;N1</title>
<path fill="none" stroke="#2e3436" d="M38.5,-294.23C38.5,-282 38.5,-266.59 38.5,-253.03"/>
<polygon fill="#2e3436" stroke="#2e3436" points="42,-252.64 38.5,-242.64 35,-252.64 42,-252.64"/>
<text text-anchor="middle" x="64.5" y="-264.8" font-family="Times,serif" font-size="14.00" fill="#2e3436">KNOWS</text>
</g>
<!-- N2 -->
<g id="node3" class="node">
<title>N2</title>
<path fill="none" stroke="black" d="M12,-98.5C12,-98.5 65,-98.5 65,-98.5 71,-98.5 77,-104.5 77,-110.5 77,-110.5 77,-132.5 77,-132.5 77,-138.5 71,-144.5 65,-144.5 65,-144.5 12,-144.5 12,-144.5 6,-144.5 0,-138.5 0,-132.5 0,-132.5 0,-110.5 0,-110.5 0,-104.5 6,-98.5 12,-98.5"/>
<text text-anchor="middle" x="38.5" y="-129.3" font-family="Times,serif" font-size="14.00">Person</text>
<polyline fill="none" stroke="black" points="0,-121.5 77,-121.5 "/>
<text text-anchor="start" x="8" y="-106.3" font-family="Times,serif" font-size="14.00">name = &#39;C&#39;</text>
</g>
<!-- N1&#45;&gt;N2 -->
<g id="edge2" class="edge">
<title>N1&#45;&gt;N2</title>
<path fill="none" stroke="#2e3436" d="M38.5,-196.23C38.5,-184 38.5,-168.59 38.5,-155.03"/>
<polygon fill="#2e3436" stroke="#2e3436" points="42,-154.64 38.5,-144.64 35,-154.64 42,-154.64"/>
<text text-anchor="middle" x="64.5" y="-166.8" font-family="Times,serif" font-size="14.00" fill="#2e3436">KNOWS</text>
</g>
<!-- N3 -->
<g id="node4" class="node">
<title>N3</title>
<path fill="none" stroke="black" d="M12,-0.5C12,-0.5 65,-0.5 65,-0.5 71,-0.5 77,-6.5 77,-12.5 77,-12.5 77,-34.5 77,-34.5 77,-40.5 71,-46.5 65,-46.5 65,-46.5 12,-46.5 12,-46.5 6,-46.5 0,-40.5 0,-34.5 0,-34.5 0,-12.5 0,-12.5 0,-6.5 6,-0.5 12,-0.5"/>
<text text-anchor="middle" x="38.5" y="-31.3" font-family="Times,serif" font-size="14.00">Person</text>
<polyline fill="none" stroke="black" points="0,-23.5 77,-23.5 "/>
<text text-anchor="start" x="8" y="-8.3" font-family="Times,serif" font-size="14.00">name = &#39;D&#39;</text>
</g>
<!-- N2&#45;&gt;N3 -->
<g id="edge3" class="edge">
<title>N2&#45;&gt;N3</title>
<path fill="none" stroke="#2e3436" d="M38.5,-98.23C38.5,-86 38.5,-70.59 38.5,-57.03"/>
<polygon fill="#2e3436" stroke="#2e3436" points="42,-56.64 38.5,-46.64 35,-56.64 42,-56.64"/>
<text text-anchor="middle" x="64.5" y="-68.8" font-family="Times,serif" font-size="14.00" fill="#2e3436">KNOWS</text>
</g>
</g>
</svg>
