<svg xmlns="http://www.w3.org/2000/svg" width="410.3473205566406" height="399.532958984375" viewBox="-291.4632263183594 -188.4498291015625 410.3473205566406 399.532958984375"><title>Neo4j Graph Visualization</title><desc>Created using Neo4j (http://www.neo4j.com/)</desc><g class="layer relationships"><g class="relationship" transform="translate(-80.85469401964224 23.864608026842717) rotate(321.626690078454)"><path class="b-outline" fill="#A5ABB6" stroke="none" d="M 25 0.5 L 65.62477603612928 0.5 L 65.62477603612928 -0.5 L 25 -0.5 Z M 111.18727603612928 0.5 L 151.81205207225855 0.5 L 151.81205207225855 3.5 L 158.81205207225855 0 L 151.81205207225855 -3.5 L 151.81205207225855 -0.5 L 111.18727603612928 -0.5 Z"/><text text-anchor="middle" pointer-events="none" font-size="8px" fill="#000000" x="88.40602603612928" y="3" font-family="Helvetica Neue, Helvetica, Arial, sans-serif">ACTED_IN</text></g><g class="relationship" transform="translate(-80.85469401964224 23.864608026842717) rotate(480.1210526266791)"><path class="b-outline" fill="#A5ABB6" stroke="none" d="M 25 0.5 L 57.62369329636583 0.5 L 57.62369329636583 -0.5 L 25 -0.5 Z M 103.18619329636583 0.5 L 135.80988659273166 0.5 L 135.80988659273166 3.5 L 142.80988659273166 0 L 135.80988659273166 -3.5 L 135.80988659273166 -0.5 L 103.18619329636583 -0.5 Z"/><text text-anchor="middle" pointer-events="none" font-size="8px" fill="#000000" x="80.40494329636583" y="3" transform="rotate(180 80.40494329636583 0)" font-family="Helvetica Neue, Helvetica, Arial, sans-serif">ACTED_IN</text></g><g class="relationship" transform="translate(-80.85469401964224 23.864608026842717) rotate(294.48095476889944)"><path class="b-outline" fill="#A5ABB6" stroke="none" d="M 25 0.5 L 71.96169990719349 0.5 L 71.96169990719349 -0.5 L 25 -0.5 Z M 117.52419990719349 0.5 L 164.48589981438698 0.5 L 164.48589981438698 3.5 L 171.48589981438698 0 L 164.48589981438698 -3.5 L 164.48589981438698 -0.5 L 117.52419990719349 -0.5 Z"/><text text-anchor="middle" pointer-events="none" font-size="8px" fill="#000000" x="94.74294990719349" y="3" font-family="Helvetica Neue, Helvetica, Arial, sans-serif">ACTED_IN</text></g><g class="relationship" transform="translate(-80.85469401964224 23.864608026842717) rotate(232.14728110877593)"><path class="b-outline" fill="#A5ABB6" stroke="none" d="M 24.018736134675446,-6.953439040707552 L 24.277555179777966,-5.987513214418485 A 268.0324821511256 268.0324821511256 0 0 1 68.47241790378645,-13.935402998885706 L 68.37848507832909,-14.930981536371121 A 269.0324821511256 269.0324821511256 0 0 0 24.018736134675446,-6.953439040707552 Z M 113.96914130668577,-15.352041698851451 L 113.8936126014617,-14.354898070938589 A 268.0324821511256 268.0324821511256 0 0 1 158.22773216095632,-7.2246325706624015 L 157.50492873008758,-4.313008419037679 L 165.1419890865588,-6.023361923906137 L 159.19147006878129,-11.106798106162032 L 158.46866663791255,-8.195173954537308 A 269.0324821511256 269.0324821511256 0 0 0 113.96914130668577,-15.352041698851451"/><text text-anchor="middle" pointer-events="none" font-size="8px" fill="#000000" x="91.1694951935389" y="-12.609046720930337" transform="rotate(180 91.1694951935389 -15.609046720930337)" font-family="Helvetica Neue, Helvetica, Arial, sans-serif">ACTED_IN</text></g><g class="relationship" transform="translate(-80.85469401964224 23.864608026842717) rotate(232.14728110877593)"><path class="b-outline" fill="#A5ABB6" stroke="none" d="M 24.018736134675446,6.953439040707552 L 24.277555179777966,5.987513214418485 A 268.0324821511256 268.0324821511256 0 0 0 67.81260018642284,13.872326002478417 L 67.71620565292147,14.86766920655981 A 269.0324821511256 269.0324821511256 0 0 1 24.018736134675446,6.953439040707552 Z M 114.63247712365477,15.300972311246255 L 114.55448278375465,14.304018509436162 A 268.0324821511256 268.0324821511256 0 0 0 158.22773216095632,7.2246325706624015 L 157.50492873008758,4.313008419037679 L 165.1419890865588,6.023361923906137 L 159.19147006878129,11.106798106162032 L 158.46866663791255,8.195173954537308 A 269.0324821511256 269.0324821511256 0 0 1 114.63247712365477,15.300972311246255"/><text text-anchor="middle" pointer-events="none" font-size="8px" fill="#000000" x="91.16949519353886" y="18.609046720930337" transform="rotate(180 91.16949519353886 15.609046720930337)" font-family="Helvetica Neue, Helvetica, Arial, sans-serif">DIRECTED</text></g><g class="relationship" transform="translate(-80.85469401964224 23.864608026842717) rotate(203.09786925337517)"><path class="b-outline" fill="#A5ABB6" stroke="none" d="M 25 0.5 L 63.807299718482426 0.5 L 63.807299718482426 -0.5 L 25 -0.5 Z M 109.36979971848243 0.5 L 148.17709943696485 0.5 L 148.17709943696485 3.5 L 155.17709943696485 0 L 148.17709943696485 -3.5 L 148.17709943696485 -0.5 L 109.36979971848243 -0.5 Z"/><text text-anchor="middle" pointer-events="none" font-size="8px" fill="#000000" x="86.58854971848243" y="3" transform="rotate(180 86.58854971848243 0)" font-family="Helvetica Neue, Helvetica, Arial, sans-serif">ACTED_IN</text></g><g class="relationship" transform="translate(-80.85469401964224 23.864608026842717) rotate(266.16422649281463)"><path class="b-outline" fill="#A5ABB6" stroke="none" d="M 25 0.5 L 65.58175140793486 0.5 L 65.58175140793486 -0.5 L 25 -0.5 Z M 111.14425140793486 0.5 L 151.72600281586972 0.5 L 151.72600281586972 3.5 L 158.72600281586972 0 L 151.72600281586972 -3.5 L 151.72600281586972 -0.5 L 111.14425140793486 -0.5 Z"/><text text-anchor="middle" pointer-events="none" font-size="8px" fill="#000000" x="88.36300140793486" y="3" transform="rotate(180 88.36300140793486 0)" font-family="Helvetica Neue, Helvetica, Arial, sans-serif">ACTED_IN</text></g><g class="relationship" transform="translate(-80.85469401964224 23.864608026842717) rotate(510.514320300881)"><path class="b-outline" fill="#A5ABB6" stroke="none" d="M 25 0.5 L 64.01354841534004 0.5 L 64.01354841534004 -0.5 L 25 -0.5 Z M 109.57604841534004 0.5 L 148.58959683068008 0.5 L 148.58959683068008 3.5 L 155.58959683068008 0 L 148.58959683068008 -3.5 L 148.58959683068008 -0.5 L 109.57604841534004 -0.5 Z"/><text text-anchor="middle" pointer-events="none" font-size="8px" fill="#000000" x="86.79479841534004" y="3" transform="rotate(180 86.79479841534004 0)" font-family="Helvetica Neue, Helvetica, Arial, sans-serif">ACTED_IN</text></g><g class="relationship" transform="translate(-80.85469401964224 23.864608026842717) rotate(377.22729069180025)"><path class="b-outline" fill="#A5ABB6" stroke="none" d="M 25 0.5 L 63.09792422550534 0.5 L 63.09792422550534 -0.5 L 25 -0.5 Z M 108.66042422550534 0.5 L 146.75834845101068 0.5 L 146.75834845101068 3.5 L 153.75834845101068 0 L 146.75834845101068 -3.5 L 146.75834845101068 -0.5 L 108.66042422550534 -0.5 Z"/><text text-anchor="middle" pointer-events="none" font-size="8px" fill="#000000" x="85.87917422550534" y="3" font-family="Helvetica Neue, Helvetica, Arial, sans-serif">ACTED_IN</text></g><g class="relationship" transform="translate(-80.85469401964224 23.864608026842717) rotate(537.411779793098)"><path class="b-outline" fill="#A5ABB6" stroke="none" d="M 25 0.5 L 64.61574935956651 0.5 L 64.61574935956651 -0.5 L 25 -0.5 Z M 110.17824935956651 0.5 L 149.79399871913301 0.5 L 149.79399871913301 3.5 L 156.79399871913301 0 L 149.79399871913301 -3.5 L 149.79399871913301 -0.5 L 110.17824935956651 -0.5 Z"/><text text-anchor="middle" pointer-events="none" font-size="8px" fill="#000000" x="87.39699935956651" y="3" transform="rotate(180 87.39699935956651 0)" font-family="Helvetica Neue, Helvetica, Arial, sans-serif">ACTED_IN</text></g><g class="relationship" transform="translate(-80.85469401964224 23.864608026842717) rotate(408.4158085353444)"><path class="b-outline" fill="#A5ABB6" stroke="none" d="M 25 0.5 L 61.21879992435653 0.5 L 61.21879992435653 -0.5 L 25 -0.5 Z M 106.78129992435653 0.5 L 143.00009984871306 0.5 L 143.00009984871306 3.5 L 150.00009984871306 0 L 143.00009984871306 -3.5 L 143.00009984871306 -0.5 L 106.78129992435653 -0.5 Z"/><text text-anchor="middle" pointer-events="none" font-size="8px" fill="#000000" x="84.00004992435653" y="3" font-family="Helvetica Neue, Helvetica, Arial, sans-serif">ACTED_IN</text></g><g class="relationship" transform="translate(-80.85469401964224 23.864608026842717) rotate(444.21728199731956)"><path class="b-outline" fill="#A5ABB6" stroke="none" d="M 25 0.5 L 53.23263656354064 0.5 L 53.23263656354064 -0.5 L 25 -0.5 Z M 98.79513656354064 0.5 L 127.02777312708128 0.5 L 127.02777312708128 3.5 L 134.02777312708128 0 L 127.02777312708128 -3.5 L 127.02777312708128 -0.5 L 98.79513656354064 -0.5 Z"/><text text-anchor="middle" pointer-events="none" font-size="8px" fill="#000000" x="76.01388656354064" y="3" font-family="Helvetica Neue, Helvetica, Arial, sans-serif">ACTED_IN</text></g><g class="relationship" transform="translate(-80.85469401964224 23.864608026842717) rotate(346.72877092762303)"><path class="b-outline" fill="#A5ABB6" stroke="none" d="M 25 0.5 L 60.24014730627627 0.5 L 60.24014730627627 -0.5 L 25 -0.5 Z M 105.80264730627627 0.5 L 141.04279461255254 0.5 L 141.04279461255254 3.5 L 148.04279461255254 0 L 141.04279461255254 -3.5 L 141.04279461255254 -0.5 L 105.80264730627627 -0.5 Z"/><text text-anchor="middle" pointer-events="none" font-size="8px" fill="#000000" x="83.02139730627627" y="3" font-family="Helvetica Neue, Helvetica, Arial, sans-serif">ACTED_IN</text></g></g><g class="layer nodes"><g class="node" aria-label="graph-node71" transform="translate(-80.85469401964224,23.864608026842717)"><circle class="b-outline" cx="0" cy="0" r="25" fill="#F79767" stroke="#f36924" stroke-width="2px"/><text class="caption" text-anchor="middle" pointer-events="none" x="0" y="0" font-size="10px" fill="#FFFFFF" font-family="Helvetica Neue, Helvetica, Arial, sans-serif"> Tom</text><text class="caption" text-anchor="middle" pointer-events="none" x="0" y="10" font-size="10px" fill="#FFFFFF" font-family="Helvetica Neue, Helvetica, Arial, sans-serif"> Hanks</text></g><g class="node" aria-label="graph-node144" transform="translate(89.88409092484935,76.80622168388581)"><circle class="b-outline" cx="0" cy="0" r="25" fill="#C990C0" stroke="#b261a5" stroke-width="2px"/><text class="caption" text-anchor="middle" pointer-events="none" x="0" y="5" font-size="10px" fill="#FFFFFF" font-family="Helvetica Neue, Helvetica, Arial, sans-serif"> Apollo 13</text></g><g class="node" aria-label="graph-node67" transform="translate(63.25077878986227,-90.24272387327599)"><circle class="b-outline" cx="0" cy="0" r="25" fill="#C990C0" stroke="#b261a5" stroke-width="2px"/><text class="caption" text-anchor="middle" pointer-events="none" x="0" y="0" font-size="10px" fill="#FFFFFF" font-family="Helvetica Neue, Helvetica, Arial, sans-serif"> You've</text><text class="caption" text-anchor="middle" pointer-events="none" x="0" y="10" font-size="10px" fill="#FFFFFF" font-family="Helvetica Neue, Helvetica, Arial, sans-serif"> M…</text></g><g class="node" aria-label="graph-node162" transform="translate(87.56686626136552,-15.85927395658014)"><circle class="b-outline" cx="0" cy="0" r="25" fill="#C990C0" stroke="#b261a5" stroke-width="2px"/><text class="caption" text-anchor="middle" pointer-events="none" x="0" y="0" font-size="10px" fill="#FFFFFF" font-family="Helvetica Neue, Helvetica, Arial, sans-serif"> A League</text><text class="caption" text-anchor="middle" pointer-events="none" x="0" y="10" font-size="10px" fill="#FFFFFF" font-family="Helvetica Neue, Helvetica, Arial, sans-serif">O…</text></g><g class="node" aria-label="graph-node78" transform="translate(0.5672447430671674,-154.95702577061178)"><circle class="b-outline" cx="0" cy="0" r="25" fill="#C990C0" stroke="#b261a5" stroke-width="2px"/><text class="caption" text-anchor="middle" pointer-events="none" x="0" y="-5" font-size="10px" fill="#FFFFFF" font-family="Helvetica Neue, Helvetica, Arial, sans-serif"> Joe</text><text class="caption" text-anchor="middle" pointer-events="none" x="0" y="5" font-size="10px" fill="#FFFFFF" font-family="Helvetica Neue, Helvetica, Arial, sans-serif"> Versus</text><text class="caption" text-anchor="middle" pointer-events="none" x="0" y="15" font-size="10px" fill="#FFFFFF" font-family="Helvetica Neue, Helvetica, Arial, sans-serif">Vo…</text></g><g class="node" aria-label="graph-node85" transform="translate(-197.0803309658102,-125.68823787804965)"><circle class="b-outline" cx="0" cy="0" r="25" fill="#C990C0" stroke="#b261a5" stroke-width="2px"/><text class="caption" text-anchor="middle" pointer-events="none" x="0" y="-5" font-size="10px" fill="#FFFFFF" font-family="Helvetica Neue, Helvetica, Arial, sans-serif"> That</text><text class="caption" text-anchor="middle" pointer-events="none" x="0" y="5" font-size="10px" fill="#FFFFFF" font-family="Helvetica Neue, Helvetica, Arial, sans-serif"> Thing You</text><text class="caption" text-anchor="middle" pointer-events="none" x="0" y="15" font-size="10px" fill="#FFFFFF" font-family="Helvetica Neue, Helvetica, Arial, sans-serif"> Do</text></g><g class="node" aria-label="graph-node111" transform="translate(-93.1453904269388,-159.44982919107156)"><circle class="b-outline" cx="0" cy="0" r="25" fill="#C990C0" stroke="#b261a5" stroke-width="2px"/><text class="caption" text-anchor="middle" pointer-events="none" x="0" y="-5" font-size="10px" fill="#FFFFFF" font-family="Helvetica Neue, Helvetica, Arial, sans-serif"> The Da</text><text class="caption" text-anchor="middle" pointer-events="none" x="0" y="5" font-size="10px" fill="#FFFFFF" font-family="Helvetica Neue, Helvetica, Arial, sans-serif"> Vinci</text><text class="caption" text-anchor="middle" pointer-events="none" x="0" y="15" font-size="10px" fill="#FFFFFF" font-family="Helvetica Neue, Helvetica, Arial, sans-serif"> Code</text></g><g class="node" aria-label="graph-node105" transform="translate(-246.58809215650763,-46.81939230933794)"><circle class="b-outline" cx="0" cy="0" r="25" fill="#C990C0" stroke="#b261a5" stroke-width="2px"/><text class="caption" text-anchor="middle" pointer-events="none" x="0" y="0" font-size="10px" fill="#FFFFFF" font-family="Helvetica Neue, Helvetica, Arial, sans-serif"> Cloud</text><text class="caption" text-anchor="middle" pointer-events="none" x="0" y="10" font-size="10px" fill="#FFFFFF" font-family="Helvetica Neue, Helvetica, Arial, sans-serif"> Atlas</text></g><g class="node" aria-label="graph-node150" transform="translate(-262.4632401602555,32.073989184084574)"><circle class="b-outline" cx="0" cy="0" r="25" fill="#C990C0" stroke="#b261a5" stroke-width="2px"/><text class="caption" text-anchor="middle" pointer-events="none" x="0" y="0" font-size="10px" fill="#FFFFFF" font-family="Helvetica Neue, Helvetica, Arial, sans-serif"> Cast</text><text class="caption" text-anchor="middle" pointer-events="none" x="0" y="10" font-size="10px" fill="#FFFFFF" font-family="Helvetica Neue, Helvetica, Arial, sans-serif"> Away</text></g><g class="node" aria-label="graph-node130" transform="translate(-238.0540993265346,112.75189313909574)"><circle class="b-outline" cx="0" cy="0" r="25" fill="#C990C0" stroke="#b261a5" stroke-width="2px"/><text class="caption" text-anchor="middle" pointer-events="none" x="0" y="-5" font-size="10px" fill="#FFFFFF" font-family="Helvetica Neue, Helvetica, Arial, sans-serif"> The</text><text class="caption" text-anchor="middle" pointer-events="none" x="0" y="5" font-size="10px" fill="#FFFFFF" font-family="Helvetica Neue, Helvetica, Arial, sans-serif"> Green</text><text class="caption" text-anchor="middle" pointer-events="none" x="0" y="15" font-size="10px" fill="#FFFFFF" font-family="Helvetica Neue, Helvetica, Arial, sans-serif"> Mile</text></g><g class="node" aria-label="graph-node73" transform="translate(-165.06649321674402,169.01463701151934)"><circle class="b-outline" cx="0" cy="0" r="25" fill="#C990C0" stroke="#b261a5" stroke-width="2px"/><text class="caption" text-anchor="middle" pointer-events="none" x="0" y="0" font-size="10px" fill="#FFFFFF" font-family="Helvetica Neue, Helvetica, Arial, sans-serif"> Sleepless</text><text class="caption" text-anchor="middle" pointer-events="none" x="0" y="10" font-size="10px" fill="#FFFFFF" font-family="Helvetica Neue, Helvetica, Arial, sans-serif"> in Seattl</text></g><g class="node" aria-label="graph-node161" transform="translate(-64.83165848060537,182.08311186843895)"><circle class="b-outline" cx="0" cy="0" r="25" fill="#C990C0" stroke="#b261a5" stroke-width="2px"/><text class="caption" text-anchor="middle" pointer-events="none" x="0" y="0" font-size="10px" fill="#FFFFFF" font-family="Helvetica Neue, Helvetica, Arial, sans-serif"> The Polar</text><text class="caption" text-anchor="middle" pointer-events="none" x="0" y="10" font-size="10px" fill="#FFFFFF" font-family="Helvetica Neue, Helvetica, Arial, sans-serif"> Express</text></g><g class="node" aria-label="graph-node159" transform="translate(35.29634804432557,154.76140086193826)"><circle class="b-outline" cx="0" cy="0" r="25" fill="#C990C0" stroke="#b261a5" stroke-width="2px"/><text class="caption" text-anchor="middle" pointer-events="none" x="0" y="-5" font-size="10px" fill="#FFFFFF" font-family="Helvetica Neue, Helvetica, Arial, sans-serif"> Charlie</text><text class="caption" text-anchor="middle" pointer-events="none" x="0" y="5" font-size="10px" fill="#FFFFFF" font-family="Helvetica Neue, Helvetica, Arial, sans-serif"> Wilson's</text><text class="caption" text-anchor="middle" pointer-events="none" x="0" y="15" font-size="10px" fill="#FFFFFF" font-family="Helvetica Neue, Helvetica, Arial, sans-serif"> Wa</text></g></g></svg>