<svg xmlns="http://www.w3.org/2000/svg" width="330.2030029296875" height="207.41746520996094" viewBox="-240.15057373046875 -160.3489990234375 330.2030029296875 207.41746520996094"><title>Neo4j Graph Visualization</title><desc>Created using Neo4j (http://www.neo4j.com/)</desc><g class="layer relationships"><g class="relationship" transform="translate(-211.15057344342335 -131.3489964103844) rotate(448.583255406687)"><path class="b-outline" fill="#A5ABB6" stroke="none" d="M 25 0.5 L 47.773466492368584 0.5 L 47.773466492368584 -0.5 L 25 -0.5 Z M 93.33596649236858 0.5 L 116.10943298473717 0.5 L 116.10943298473717 3.5 L 123.10943298473717 0 L 116.10943298473717 -3.5 L 116.10943298473717 -0.5 L 93.33596649236858 -0.5 Z"/><text text-anchor="middle" pointer-events="none" font-size="8px" fill="#000000" x="70.55471649236858" y="3" font-family="Helvetica Neue, Helvetica, Arial, sans-serif">ACTED_IN</text></g><g class="relationship" transform="translate(-70.29781391896717 18.06846719680901) rotate(180.56517066841843)"><path class="b-outline" fill="#A5ABB6" stroke="none" d="M 25 0.5 L 40.76282572138264 0.5 L 40.76282572138264 -0.5 L 25 -0.5 Z M 89.43470072138264 0.5 L 105.19752644276528 0.5 L 105.19752644276528 3.5 L 112.19752644276528 0 L 105.19752644276528 -3.5 L 105.19752644276528 -0.5 L 89.43470072138264 -0.5 Z"/><text text-anchor="middle" pointer-events="none" font-size="8px" fill="#000000" x="65.09876322138264" y="3" transform="rotate(180 65.09876322138264 0)" font-family="Helvetica Neue, Helvetica, Arial, sans-serif">REVIEWED</text></g><g class="relationship" transform="translate(-70.29781391896717 18.06846719680901) rotate(359.95411222789755)"><path class="b-outline" fill="#A5ABB6" stroke="none" d="M 25 0.5 L 37.83919718437576 0.5 L 37.83919718437576 -0.5 L 25 -0.5 Z M 86.51107218437576 0.5 L 99.35026936875153 0.5 L 99.35026936875153 3.5 L 106.35026936875153 0 L 99.35026936875153 -3.5 L 99.35026936875153 -0.5 L 86.51107218437576 -0.5 Z"/><text text-anchor="middle" pointer-events="none" font-size="8px" fill="#000000" x="62.17513468437576" y="3" font-family="Helvetica Neue, Helvetica, Arial, sans-serif">REVIEWED</text></g><g class="relationship" transform="translate(60.36032991157066 -131.26079690676522) rotate(449.7342709177161)"><path class="b-outline" fill="#A5ABB6" stroke="none" d="M 25 0.5 L 48.331585766592596 0.5 L 48.331585766592596 -0.5 L 25 -0.5 Z M 93.8940857665926 0.5 L 117.22567153318519 0.5 L 117.22567153318519 3.5 L 124.22567153318519 0 L 117.22567153318519 -3.5 L 117.22567153318519 -0.5 L 93.8940857665926 -0.5 Z"/><text text-anchor="middle" pointer-events="none" font-size="8px" fill="#000000" x="71.1128357665926" y="3" font-family="Helvetica Neue, Helvetica, Arial, sans-serif">ACTED_IN</text></g></g><g class="layer nodes"><g class="node" aria-label="graph-node1" transform="translate(-211.15057344342335,-131.3489964103844)"><circle class="b-outline" cx="0" cy="0" r="25" fill="#F79767" stroke="#f36924" stroke-width="2px"/><text class="caption" text-anchor="middle" pointer-events="none" x="0" y="0" font-size="10px" fill="#FFFFFF" font-family="Helvetica Neue, Helvetica, Arial, sans-serif"> Keanu</text><text class="caption" text-anchor="middle" pointer-events="none" x="0" y="10" font-size="10px" fill="#FFFFFF" font-family="Helvetica Neue, Helvetica, Arial, sans-serif"> Reeves</text></g><g class="node" aria-label="graph-node71" transform="translate(60.36032991157066,-131.26079690676522)"><circle class="b-outline" cx="0" cy="0" r="25" fill="#F79767" stroke="#f36924" stroke-width="2px"/><text class="caption" text-anchor="middle" pointer-events="none" x="0" y="0" font-size="10px" fill="#FFFFFF" font-family="Helvetica Neue, Helvetica, Arial, sans-serif"> Tom</text><text class="caption" text-anchor="middle" pointer-events="none" x="0" y="10" font-size="10px" fill="#FFFFFF" font-family="Helvetica Neue, Helvetica, Arial, sans-serif"> Hanks</text></g><g class="node" aria-label="graph-node87" transform="translate(-207.48866573891885,16.715160531881835)"><circle class="b-outline" cx="0" cy="0" r="25" fill="#C990C0" stroke="#b261a5" stroke-width="2px"/><text class="caption" text-anchor="middle" pointer-events="none" x="0" y="0" font-size="10px" fill="#FFFFFF" font-family="Helvetica Neue, Helvetica, Arial, sans-serif"> The</text><text class="caption" text-anchor="middle" pointer-events="none" x="0" y="10" font-size="10px" fill="#FFFFFF" font-family="Helvetica Neue, Helvetica, Arial, sans-serif"> Repla…</text></g><g class="node" aria-label="graph-node169" transform="translate(-70.29781391896717,18.06846719680901)"><circle class="b-outline" cx="0" cy="0" r="25" fill="#F79767" stroke="#f36924" stroke-width="2px"/><text class="caption" text-anchor="middle" pointer-events="none" x="0" y="0" font-size="10px" fill="#FFFFFF" font-family="Helvetica Neue, Helvetica, Arial, sans-serif"> Jessica</text><text class="caption" text-anchor="middle" pointer-events="none" x="0" y="10" font-size="10px" fill="#FFFFFF" font-family="Helvetica Neue, Helvetica, Arial, sans-serif"> Thom…</text></g><g class="node" aria-label="graph-node111" transform="translate(61.05241332384195,17.963269734914704)"><circle class="b-outline" cx="0" cy="0" r="25" fill="#C990C0" stroke="#b261a5" stroke-width="2px"/><text class="caption" text-anchor="middle" pointer-events="none" x="0" y="-5" font-size="10px" fill="#FFFFFF" font-family="Helvetica Neue, Helvetica, Arial, sans-serif"> The Da</text><text class="caption" text-anchor="middle" pointer-events="none" x="0" y="5" font-size="10px" fill="#FFFFFF" font-family="Helvetica Neue, Helvetica, Arial, sans-serif"> Vinci</text><text class="caption" text-anchor="middle" pointer-events="none" x="0" y="15" font-size="10px" fill="#FFFFFF" font-family="Helvetica Neue, Helvetica, Arial, sans-serif"> Code</text></g></g></svg>