<svg xmlns="http://www.w3.org/2000/svg" width="1092" height="500" viewBox="0 0 1092 500"><defs><style type="text/css"/></defs><g transform="translate(-80.94906628842736 47.199999999999946) scale(1)"><g class="relationship"><g transform="translate(551.9495348435456 28.000000000000057) rotate(153.791301257257)" stroke-width="2" stroke="#000000"><path d="M 59 0 L 280.31799494989616 0"/><polygon points="-14.155129855222071,0 -15.727922061357857,5.242640687119286 0,0 -15.727922061357857,-5.242640687119286" fill="#000000" transform="translate(294.47312480511823 0) rotate(0)" stroke="none"/></g><g transform="translate(399.73295339438204 102.92855100784077) rotate(333.79130125725703) translate(0 -13)"><g transform="translate(0 0)"><g transform="translate(-44.5625 0)" fill="#ffffff" stroke="#000000" stroke-width="0"><rect x="0" y="0" width="89.125" height="26" rx="5" ry="5" stroke="none"/><text xml:space="preserve" x="5" y="17.45703125" stroke="none" text-anchor="left" font-family="sans-serif" font-size="16" font-weight="normal" fill="#000000">ACTED_IN</text></g></g></g></g><g class="relationship"><g transform="translate(551.9495348435456 28.000000000000057) rotate(90)" stroke-width="2" stroke="#000000"><path d="M 59 0 L 256.64753701075375 0"/><polygon points="-14.155129855222071,0 -15.727922061357857,5.242640687119286 0,0 -15.727922061357857,-5.242640687119286" fill="#000000" transform="translate(270.8026668659758 0) rotate(0)" stroke="none"/></g><g transform="translate(551.9495348435456 185.82376850537693) rotate(270) translate(0 -13)"><g transform="translate(0 0)"><g transform="translate(-44.5625 0)" fill="#ffffff" stroke="#000000" stroke-width="0"><rect x="0" y="0" width="89.125" height="26" rx="5" ry="5" stroke="none"/><text xml:space="preserve" x="5" y="17.45703125" stroke="none" text-anchor="left" font-family="sans-serif" font-size="16" font-weight="normal" fill="#000000">ACTED_IN</text></g></g></g></g><g class="relationship"><g transform="translate(551.9495348435456 28.000000000000057) rotate(120.00000000000001)" stroke-width="2" stroke="#000000"><path d="M 59 0 L 280.31799494989605 0"/><polygon points="-14.155129855222071,0 -15.727922061357857,5.242640687119286 0,0 -15.727922061357857,-5.242640687119286" fill="#000000" transform="translate(294.4731248051181 0) rotate(0)" stroke="none"/></g><g transform="translate(467.12003610607155 174.92900179390494) rotate(300.00000000000006) translate(0 -13)"><g transform="translate(0 0)"><g transform="translate(-44.5625 0)" fill="#ffffff" stroke="#000000" stroke-width="0"><rect x="0" y="0" width="89.125" height="26" rx="5" ry="5" stroke="none"/><text xml:space="preserve" x="5" y="17.45703125" stroke="none" text-anchor="left" font-family="sans-serif" font-size="16" font-weight="normal" fill="#000000">ACTED_IN</text></g></g></g></g><g class="relationship"><g transform="translate(551.9495348435456 28.000000000000057) rotate(54.880633559925705)" stroke-width="2" stroke="#000000"><path d="M 59 0 L 280.31799494989616 0"/><polygon points="-14.155129855222071,0 -15.727922061357857,5.242640687119286 0,0 -15.727922061357857,-5.242640687119286" fill="#000000" transform="translate(294.47312480511823 0) rotate(0)" stroke="none"/></g><g transform="translate(649.5512615885112 166.77347859229266) rotate(54.880633559925705) translate(0 -13)"><g transform="translate(0 0)"><g transform="translate(-44.5625 0)" fill="#ffffff" stroke="#000000" stroke-width="0"><rect x="0" y="0" width="89.125" height="26" rx="5" ry="5" stroke="none"/><text xml:space="preserve" x="5" y="17.45703125" stroke="none" text-anchor="left" font-family="sans-serif" font-size="16" font-weight="normal" fill="#000000">ACTED_IN</text></g></g></g></g><g class="relationship"><g transform="translate(551.9495348435456 28.000000000000057) rotate(26.20869874274299)" stroke-width="2" stroke="#000000"><path d="M 59 0 L 280.31799494989616 0"/><polygon points="-14.155129855222071,0 -15.727922061357857,5.242640687119286 0,0 -15.727922061357857,-5.242640687119286" fill="#000000" transform="translate(294.47312480511823 0) rotate(0)" stroke="none"/></g><g transform="translate(704.1661162927091 102.92855100784075) rotate(26.20869874274299) translate(0 -13)"><g transform="translate(0 0)"><g transform="translate(-44.5625 0)" fill="#ffffff" stroke="#000000" stroke-width="0"><rect x="0" y="0" width="89.125" height="26" rx="5" ry="5" stroke="none"/><text xml:space="preserve" x="5" y="17.45703125" stroke="none" text-anchor="left" font-family="sans-serif" font-size="16" font-weight="normal" fill="#000000">ACTED_IN</text></g></g></g></g><g class="relationship"><g transform="translate(551.9495348435456 28.000000000000057) rotate(180)" stroke-width="2" stroke="#000000"><path d="M 59 0 L 280.31799494989616 0"/><polygon points="-14.155129855222071,0 -15.727922061357857,5.242640687119286 0,0 -15.727922061357857,-5.242640687119286" fill="#000000" transform="translate(294.47312480511823 0) rotate(0)" stroke="none"/></g><g transform="translate(382.29053736859754 28.000000000000078) rotate(360) translate(0 -13)"><g transform="translate(0 0)"><g transform="translate(-44.5625 0)" fill="#ffffff" stroke="#000000" stroke-width="0"><rect x="0" y="0" width="89.125" height="26" rx="5" ry="5" stroke="none"/><text xml:space="preserve" x="5" y="17.45703125" stroke="none" text-anchor="left" font-family="sans-serif" font-size="16" font-weight="normal" fill="#000000">ACTED_IN</text></g></g></g></g><g class="relationship"><g transform="translate(551.9495348435456 28.000000000000057) rotate(0)" stroke-width="2" stroke="#000000"><path d="M 59 0 L 280.31799494989616 0"/><polygon points="-14.155129855222071,0 -15.727922061357857,5.242640687119286 0,0 -15.727922061357857,-5.242640687119286" fill="#000000" transform="translate(294.47312480511823 0) rotate(0)" stroke="none"/></g><g transform="translate(721.6085323184936 28.000000000000057) rotate(0) translate(0 -13)"><g transform="translate(0 0)"><g transform="translate(-44.5625 0)" fill="#ffffff" stroke="#000000" stroke-width="0"><rect x="0" y="0" width="89.125" height="26" rx="5" ry="5" stroke="none"/><text xml:space="preserve" x="5" y="17.45703125" stroke="none" text-anchor="left" font-family="sans-serif" font-size="16" font-weight="normal" fill="#000000">ACTED_IN</text></g></g></g></g><g class="node"><g fill="#ffffff" stroke="#006FD6" stroke-width="4"><circle cx="375.2129724409866" cy="334.1167056362998" r="52"/></g><g transform="translate(375.2129724409866 334.1167056362998)"><g transform="scale(0.7525987763434394) translate(0 -27)"><g transform="translate(0 0)"><g transform="translate(-53.349609375 0)"><g fill="#000000" stroke="#000000" stroke-width="4" font-family="sans-serif" font-size="40" font-weight="normal"><text xml:space="preserve" x="0" y="38.142578125" stroke="none">Movie</text></g></g></g></g><g transform="translate(3.429011037612589e-15 56)"><g transform="translate(0 0)"><g transform="translate(-116.890625 0)" fill="white"><rect x="0" y="0" width="233.78125" height="38.4" rx="0" ry="0" stroke="none"/><g font-family="sans-serif" font-size="16" font-weight="normal" fill="#535B66" text-anchor="end"><text xml:space="preserve" x="70.265625" y="14.05703125" stroke="none">name:</text><text xml:space="preserve" x="74.7109375" y="14.05703125" stroke="none" text-anchor="start">'The Matrix Reloaded'</text><text xml:space="preserve" x="70.265625" y="33.25703125" stroke="none" text-anchor="end">released:</text><text xml:space="preserve" x="74.7109375" y="33.25703125" stroke="none" text-anchor="start">2003</text></g></g></g></g></g></g><g class="node"><g fill="#ffffff" stroke="#006FD6" stroke-width="4"><circle cx="234.81651217592412" cy="184.10860288015064" r="52"/></g><g transform="translate(234.81651217592412 184.10860288015064)"><g transform="scale(0.7525987763434394) translate(0 -27)"><g transform="translate(0 0)"><g transform="translate(-53.349609375 0)"><g fill="#000000" stroke="#000000" stroke-width="4" font-family="sans-serif" font-size="40" font-weight="normal"><text xml:space="preserve" x="0" y="38.142578125" stroke="none">Movie</text></g></g></g></g><g transform="translate(3.429011037612589e-15 56)"><g transform="translate(0 0)"><g transform="translate(-107.5546875 0)" fill="white"><rect x="0" y="0" width="215.109375" height="38.4" rx="0" ry="0" stroke="none"/><g font-family="sans-serif" font-size="16" font-weight="normal" fill="#535B66" text-anchor="end"><text xml:space="preserve" x="70.265625" y="14.05703125" stroke="none">title:</text><text xml:space="preserve" x="74.7109375" y="14.05703125" stroke="none" text-anchor="start">'Johnny Mnemonic'</text><text xml:space="preserve" x="70.265625" y="33.25703125" stroke="none" text-anchor="end">released:</text><text xml:space="preserve" x="74.7109375" y="33.25703125" stroke="none" text-anchor="start">1995</text></g></g></g></g></g></g><g class="node"><g fill="#ffffff" stroke="#006FD6" stroke-width="4"><circle cx="551.9495348435456" cy="28.000000000000057" r="52"/></g><g transform="translate(551.9495348435456 28.000000000000057)"><g transform="scale(0.6532967767358133) translate(0 -27)"><g transform="translate(0 0)"><g transform="translate(-63.369140625 0)"><g fill="#000000" stroke="#000000" stroke-width="4" font-family="sans-serif" font-size="40" font-weight="normal"><text xml:space="preserve" x="0" y="38.142578125" stroke="none">Person</text></g></g></g></g><g transform="translate(3.429011037612589e-15 -75.2)"><g transform="translate(0 0)"><g transform="translate(-84.4375 0)" fill="white"><rect x="0" y="0" width="168.875" height="19.2" rx="0" ry="0" stroke="none"/><g font-family="sans-serif" font-size="16" font-weight="normal" fill="#535B66" text-anchor="end"><text xml:space="preserve" x="48.9140625" y="14.05703125" stroke="none">name:</text><text xml:space="preserve" x="53.359375" y="14.05703125" stroke="none" text-anchor="start">'Keanu Reeves'</text></g></g></g></g></g></g><g class="node"><g fill="#ffffff" stroke="#006FD6" stroke-width="4"><circle cx="551.9495348435456" cy="357.8026668659759" r="52"/></g><g transform="translate(551.9495348435456 357.8026668659759)"><g transform="scale(0.7525987763434394) translate(0 -27)"><g transform="translate(0 0)"><g transform="translate(-53.349609375 0)"><g fill="#000000" stroke="#000000" stroke-width="4" font-family="sans-serif" font-size="40" font-weight="normal"><text xml:space="preserve" x="0" y="38.142578125" stroke="none">Movie</text></g></g></g></g><g transform="translate(3.429011037612589e-15 56)"><g transform="translate(0 0)"><g transform="translate(-80.41796875 0)" fill="white"><rect x="0" y="0" width="160.8359375" height="38.4" rx="0" ry="0" stroke="none"/><g font-family="sans-serif" font-size="16" font-weight="normal" fill="#535B66" text-anchor="end"><text xml:space="preserve" x="70.265625" y="14.05703125" stroke="none">title:</text><text xml:space="preserve" x="74.7109375" y="14.05703125" stroke="none" text-anchor="start">'The Matrix'</text><text xml:space="preserve" x="70.265625" y="33.25703125" stroke="none" text-anchor="end">released:</text><text xml:space="preserve" x="74.7109375" y="33.25703125" stroke="none" text-anchor="start">1999</text></g></g></g></g></g></g><g class="node"><g fill="#ffffff" stroke="#006FD6" stroke-width="4"><circle cx="755.2961763561038" cy="317.12522087334037" r="52"/></g><g transform="translate(755.2961763561038 317.12522087334037)"><g transform="scale(0.7525987763434394) translate(0 -27)"><g transform="translate(0 0)"><g transform="translate(-53.349609375 0)"><g fill="#000000" stroke="#000000" stroke-width="4" font-family="sans-serif" font-size="40" font-weight="normal"><text xml:space="preserve" x="0" y="38.142578125" stroke="none">Movie</text></g></g></g></g><g transform="translate(3.429011037612589e-15 56)"><g transform="translate(0 0)"><g transform="translate(-124.44140625 0)" fill="white"><rect x="0" y="0" width="248.8828125" height="38.4" rx="0" ry="0" stroke="none"/><g font-family="sans-serif" font-size="16" font-weight="normal" fill="#535B66" text-anchor="end"><text xml:space="preserve" x="70.265625" y="14.05703125" stroke="none">title:</text><text xml:space="preserve" x="74.7109375" y="14.05703125" stroke="none" text-anchor="start">'The Matrix Revolutions'</text><text xml:space="preserve" x="70.265625" y="33.25703125" stroke="none" text-anchor="end">released:</text><text xml:space="preserve" x="74.7109375" y="33.25703125" stroke="none" text-anchor="start">2003</text></g></g></g></g></g></g><g class="node"><g fill="#ffffff" stroke="#006FD6" stroke-width="4"><circle cx="869.0825575111671" cy="184.10860288015064" r="52"/></g><g transform="translate(869.0825575111671 184.10860288015064)"><g transform="scale(0.7525987763434394) translate(0 -27)"><g transform="translate(0 0)"><g transform="translate(-53.349609375 0)"><g fill="#000000" stroke="#000000" stroke-width="4" font-family="sans-serif" font-size="40" font-weight="normal"><text xml:space="preserve" x="0" y="38.142578125" stroke="none">Movie</text></g></g></g></g><g transform="translate(39.59797974644666 39.597979746446654)"><g transform="translate(0 0)"><g transform="translate(0 0)" fill="white"><rect x="0" y="0" width="263.984375" height="38.4" rx="0" ry="0" stroke="none"/><g font-family="sans-serif" font-size="16" font-weight="normal" fill="#535B66" text-anchor="end"><text xml:space="preserve" x="70.265625" y="14.05703125" stroke="none">title:</text><text xml:space="preserve" x="74.7109375" y="14.05703125" stroke="none" text-anchor="start">'The Matrix Resurrections'</text><text xml:space="preserve" x="70.265625" y="33.25703125" stroke="none" text-anchor="end">released:</text><text xml:space="preserve" x="74.7109375" y="33.25703125" stroke="none" text-anchor="start">2021</text></g></g></g></g></g></g><g class="node"><g fill="#ffffff" stroke="#006FD6" stroke-width="4"><circle cx="905.4226596486639" cy="28.000000000000057" r="52"/></g><g transform="translate(905.4226596486639 28.000000000000057)"><g transform="scale(0.7525987763434394) translate(0 -27)"><g transform="translate(0 0)"><g transform="translate(-53.349609375 0)"><g fill="#000000" stroke="#000000" stroke-width="4" font-family="sans-serif" font-size="40" font-weight="normal"><text xml:space="preserve" x="0" y="38.142578125" stroke="none">Movie</text></g></g></g></g><g transform="translate(3.429011037612589e-15 56)"><g transform="translate(0 0)"><g transform="translate(-109.77734375 0)" fill="white"><rect x="0" y="0" width="219.5546875" height="38.4" rx="0" ry="0" stroke="none"/><g font-family="sans-serif" font-size="16" font-weight="normal" fill="#535B66" text-anchor="end"><text xml:space="preserve" x="70.265625" y="14.05703125" stroke="none">title:</text><text xml:space="preserve" x="74.7109375" y="14.05703125" stroke="none" text-anchor="start">'The Replacements'</text><text xml:space="preserve" x="70.265625" y="33.25703125" stroke="none" text-anchor="end">released:</text><text xml:space="preserve" x="74.7109375" y="33.25703125" stroke="none" text-anchor="start">2000</text></g></g></g></g></g></g><g class="node"><g fill="#ffffff" stroke="#006FD6" stroke-width="4"><circle cx="198.47641003842736" cy="28.000000000000057" r="52"/></g><g transform="translate(198.47641003842736 28.000000000000057)"><g transform="scale(0.7525987763434394) translate(0 -27)"><g transform="translate(0 0)"><g transform="translate(-53.349609375 0)"><g fill="#000000" stroke="#000000" stroke-width="4" font-family="sans-serif" font-size="40" font-weight="normal"><text xml:space="preserve" x="0" y="38.142578125" stroke="none">Movie</text></g></g></g></g><g transform="translate(3.429011037612589e-15 56)"><g transform="translate(0 0)"><g transform="translate(-117.52734375 0)" fill="white"><rect x="0" y="0" width="235.0546875" height="38.4" rx="0" ry="0" stroke="none"/><g font-family="sans-serif" font-size="16" font-weight="normal" fill="#535B66" text-anchor="end"><text xml:space="preserve" x="70.265625" y="14.05703125" stroke="none">title:</text><text xml:space="preserve" x="74.7109375" y="14.05703125" stroke="none" text-anchor="start">'The Devil's Advocate'</text><text xml:space="preserve" x="70.265625" y="33.25703125" stroke="none" text-anchor="end">released:</text><text xml:space="preserve" x="74.7109375" y="33.25703125" stroke="none" text-anchor="start">1997</text></g></g></g></g></g></g></g></svg>