<svg xmlns="http://www.w3.org/2000/svg" width="248.03152465820312" height="213.9314727783203" viewBox="-388.1087341308594 -154.2522735595703 248.03152465820312 213.9314727783203"><title>Neo4j Graph Visualization</title><desc>Created using Neo4j (http://www.neo4j.com/)</desc><g class="layer relationships"><g class="relationship" transform="translate(-359.10872842331287 30.19362840214491) rotate(270.0979796020116)"><path class="b-outline" fill="#A5ABB6" stroke="none" d="M 25 0.5 L 44.33048672699208 0.5 L 44.33048672699208 -0.5 L 25 -0.5 Z M 104.11564297699208 0.5 L 123.44612970398416 0.5 L 123.44612970398416 3.5 L 130.44612970398416 0 L 123.44612970398416 -3.5 L 123.44612970398416 -0.5 L 104.11564297699208 -0.5 Z"/><text text-anchor="middle" pointer-events="none" font-size="8px" fill="#000000" x="74.22306485199208" y="3" font-family="Helvetica Neue, Helvetica, Arial, sans-serif">OLD FRIENDS</text></g><g class="relationship" transform="translate(-358.84290530983253 -125.25227401416262) rotate(360.5633309175071)"><path class="b-outline" fill="#A5ABB6" stroke="none" d="M 25 0.5 L 68.0988297502679 0.5 L 68.0988297502679 -0.5 L 25 -0.5 Z M 113.6613297502679 0.5 L 156.7601595005358 0.5 L 156.7601595005358 3.5 L 163.7601595005358 0 L 156.7601595005358 -3.5 L 156.7601595005358 -0.5 L 113.6613297502679 -0.5 Z"/><text text-anchor="middle" pointer-events="none" font-size="8px" fill="#000000" x="90.8800797502679" y="3" font-family="Helvetica Neue, Helvetica, Arial, sans-serif">ACTED_IN</text></g><g class="relationship" transform="translate(-169.0772145824057 30.679200411844818) rotate(269.6226879341785)"><path class="b-outline" fill="#A5ABB6" stroke="none" d="M 25 0.5 L 50.75822964091263 0.5 L 50.75822964091263 -0.5 L 25 -0.5 Z M 96.32072964091263 0.5 L 122.07895928182526 0.5 L 122.07895928182526 3.5 L 129.07895928182526 0 L 122.07895928182526 -3.5 L 122.07895928182526 -0.5 L 96.32072964091263 -0.5 Z"/><text text-anchor="middle" pointer-events="none" font-size="8px" fill="#000000" x="73.53947964091263" y="3" transform="rotate(180 73.53947964091263 0)" font-family="Helvetica Neue, Helvetica, Arial, sans-serif">ACTED_IN</text></g></g><g class="layer nodes"><g class="node" aria-label="graph-node0" transform="translate(-359.10872842331287,30.19362840214491)"><circle class="b-outline" cx="0" cy="0" r="25" fill="#F79767" stroke="#f36924" stroke-width="2px"/><text class="caption" text-anchor="middle" pointer-events="none" x="0" y="0" font-size="10px" fill="#FFFFFF" font-family="Helvetica Neue, Helvetica, Arial, sans-serif"> Rob</text><text class="caption" text-anchor="middle" pointer-events="none" x="0" y="10" font-size="10px" fill="#FFFFFF" font-family="Helvetica Neue, Helvetica, Arial, sans-serif"> Reiner</text></g><g class="node" aria-label="graph-node24" transform="translate(-169.0772145824057,30.679200411844818)"><circle class="b-outline" cx="0" cy="0" r="25" fill="#F79767" stroke="#f36924" stroke-width="2px"/><text class="caption" text-anchor="middle" pointer-events="none" x="0" y="0" font-size="10px" fill="#FFFFFF" font-family="Helvetica Neue, Helvetica, Arial, sans-serif"> Michael</text><text class="caption" text-anchor="middle" pointer-events="none" x="0" y="10" font-size="10px" fill="#FFFFFF" font-family="Helvetica Neue, Helvetica, Arial, sans-serif"> Douglas</text></g><g class="node" aria-label="graph-node23" transform="translate(-358.84290530983253,-125.25227401416262)"><circle class="b-outline" cx="0" cy="0" r="25" fill="#F79767" stroke="#f36924" stroke-width="2px"/><text class="caption" text-anchor="middle" pointer-events="none" x="0" y="0" font-size="10px" fill="#FFFFFF" font-family="Helvetica Neue, Helvetica, Arial, sans-serif"> Martin</text><text class="caption" text-anchor="middle" pointer-events="none" x="0" y="10" font-size="10px" fill="#FFFFFF" font-family="Helvetica Neue, Helvetica, Arial, sans-serif"> Sheen</text></g><g class="node" aria-label="graph-node2" transform="translate(-170.09186925205384,-123.39641793600323)"><circle class="b-outline" cx="0" cy="0" r="25" fill="#C990C0" stroke="#b261a5" stroke-width="2px"/><text class="caption" text-anchor="middle" pointer-events="none" x="0" y="-5" font-size="10px" fill="#FFFFFF" font-family="Helvetica Neue, Helvetica, Arial, sans-serif"> The</text><text class="caption" text-anchor="middle" pointer-events="none" x="0" y="5" font-size="10px" fill="#FFFFFF" font-family="Helvetica Neue, Helvetica, Arial, sans-serif"> American</text><text class="caption" text-anchor="middle" pointer-events="none" x="0" y="15" font-size="10px" fill="#FFFFFF" font-family="Helvetica Neue, Helvetica, Arial, sans-serif"> Pre…</text></g></g></svg>