<svg xmlns="http://www.w3.org/2000/svg" width="209.36148071289062" height="206.61965942382812" viewBox="-113.12958526611328 -107.32030487060547 209.36148071289062 206.61965942382812"><title>Neo4j Graph Visualization</title><desc>Created using Neo4j (http://www.neo4j.com/)</desc><g class="layer relationships"><g class="relationship" transform="translate(67.23188438777572 69.5694043015043) rotate(539.7174104818421)"><path class="b-outline" fill="#A5ABB6" stroke="none" d="M 25 0.5 L 47.719586992963 0.5 L 47.719586992963 -0.5 L 25 -0.5 Z M 93.282086992963 0.5 L 116.001673985926 0.5 L 116.001673985926 3.5 L 123.001673985926 0 L 116.001673985926 -3.5 L 116.001673985926 -0.5 L 93.282086992963 -0.5 Z"/><text text-anchor="middle" pointer-events="none" font-size="8px" fill="#000000" x="70.500836992963" y="3" transform="rotate(180 70.500836992963 0)" font-family="Helvetica Neue, Helvetica, Arial, sans-serif">ACTED_IN</text></g><g class="relationship" transform="translate(-84.12958899905699 -78.32030830952935) rotate(448.70425881511665)"><path class="b-outline" fill="#A5ABB6" stroke="none" d="M 25 0.5 L 48.04759206195574 0.5 L 48.04759206195574 -0.5 L 25 -0.5 Z M 93.61009206195574 0.5 L 116.65768412391148 0.5 L 116.65768412391148 3.5 L 123.65768412391148 0 L 116.65768412391148 -3.5 L 116.65768412391148 -0.5 L 93.61009206195574 -0.5 Z"/><text text-anchor="middle" pointer-events="none" font-size="8px" fill="#000000" x="70.82884206195574" y="3" font-family="Helvetica Neue, Helvetica, Arial, sans-serif">ACTED_IN</text></g><g class="relationship" transform="translate(67.23188438777572 69.5694043015043) rotate(267.88553143250994)"><path class="b-outline" fill="#A5ABB6" stroke="none" d="M 25 0.5 L 47.47022561488545 0.5 L 47.47022561488545 -0.5 L 25 -0.5 Z M 93.03272561488545 0.5 L 115.5029512297709 0.5 L 115.5029512297709 3.5 L 122.5029512297709 0 L 115.5029512297709 -3.5 L 115.5029512297709 -0.5 L 93.03272561488545 -0.5 Z"/><text text-anchor="middle" pointer-events="none" font-size="8px" fill="#000000" x="70.25147561488545" y="3" transform="rotate(180 70.25147561488545 0)" font-family="Helvetica Neue, Helvetica, Arial, sans-serif">ACTED_IN</text></g><g class="relationship" transform="translate(-84.12958899905699 -78.32030830952935) rotate(360.1912983900272)"><path class="b-outline" fill="#A5ABB6" stroke="none" d="M 25 0.5 L 46.67875433101398 0.5 L 46.67875433101398 -0.5 L 25 -0.5 Z M 92.24125433101398 0.5 L 113.92000866202795 0.5 L 113.92000866202795 3.5 L 120.92000866202795 0 L 113.92000866202795 -3.5 L 113.92000866202795 -0.5 L 92.24125433101398 -0.5 Z"/><text text-anchor="middle" pointer-events="none" font-size="8px" fill="#000000" x="69.46000433101398" y="3" font-family="Helvetica Neue, Helvetica, Arial, sans-serif">ACTED_IN</text></g></g><g class="layer nodes"><g class="node" aria-label="graph-node1" transform="translate(67.23188438777572,69.5694043015043)"><circle class="b-outline" cx="0" cy="0" r="25" fill="#F79767" stroke="#f36924" stroke-width="2px"/><text class="caption" text-anchor="middle" pointer-events="none" x="0" y="0" font-size="10px" fill="#FFFFFF" font-family="Helvetica Neue, Helvetica, Arial, sans-serif"> Martin</text><text class="caption" text-anchor="middle" pointer-events="none" x="0" y="10" font-size="10px" fill="#FFFFFF" font-family="Helvetica Neue, Helvetica, Arial, sans-serif"> Sheen</text></g><g class="node" aria-label="graph-node2" transform="translate(-84.12958899905699,-78.32030830952935)"><circle class="b-outline" cx="0" cy="0" r="25" fill="#F79767" stroke="#f36924" stroke-width="2px"/><text class="caption" text-anchor="middle" pointer-events="none" x="0" y="0" font-size="10px" fill="#FFFFFF" font-family="Helvetica Neue, Helvetica, Arial, sans-serif"> Michael</text><text class="caption" text-anchor="middle" pointer-events="none" x="0" y="10" font-size="10px" fill="#FFFFFF" font-family="Helvetica Neue, Helvetica, Arial, sans-serif"> Douglas</text></g><g class="node" aria-label="graph-node5" transform="translate(-80.76798947347727,70.29936299179691)"><circle class="b-outline" cx="0" cy="0" r="25" fill="#C990C0" stroke="#b261a5" stroke-width="2px"/><text class="caption" text-anchor="middle" pointer-events="none" x="0" y="0" font-size="10px" fill="#FFFFFF" font-family="Helvetica Neue, Helvetica, Arial, sans-serif"> Wall</text><text class="caption" text-anchor="middle" pointer-events="none" x="0" y="10" font-size="10px" fill="#FFFFFF" font-family="Helvetica Neue, Helvetica, Arial, sans-serif"> Street</text></g><g class="node" aria-label="graph-node6" transform="translate(61.78960634229513,-77.83311342179599)"><circle class="b-outline" cx="0" cy="0" r="25" fill="#C990C0" stroke="#b261a5" stroke-width="2px"/><text class="caption" text-anchor="middle" pointer-events="none" x="0" y="-5" font-size="10px" fill="#FFFFFF" font-family="Helvetica Neue, Helvetica, Arial, sans-serif"> The</text><text class="caption" text-anchor="middle" pointer-events="none" x="0" y="5" font-size="10px" fill="#FFFFFF" font-family="Helvetica Neue, Helvetica, Arial, sans-serif"> American</text><text class="caption" text-anchor="middle" pointer-events="none" x="0" y="15" font-size="10px" fill="#FFFFFF" font-family="Helvetica Neue, Helvetica, Arial, sans-serif"> Pre…</text></g></g></svg>