<svg xmlns="http://www.w3.org/2000/svg" width="199.57302856445312" height="208.59873962402344" viewBox="-109.79950714111328 -98.67344665527344 199.57302856445312 208.59873962402344"><title>Neo4j Graph Visualization</title><desc>Created using Neo4j (http://www.neo4j.com/)</desc><g class="layer relationships"><g class="relationship" transform="translate(-22.52920563671446 80.92529580431705) rotate(245.89361328402242)"><path class="b-outline" fill="#A5ABB6" stroke="none" d="M 25 0.5 L 45.05286492725956 0.5 L 45.05286492725956 -0.5 L 25 -0.5 Z M 90.61536492725956 0.5 L 110.66822985451913 0.5 L 110.66822985451913 3.5 L 117.66822985451913 0 L 110.66822985451913 -3.5 L 110.66822985451913 -0.5 L 90.61536492725956 -0.5 Z"/><text text-anchor="middle" pointer-events="none" font-size="8px" fill="#000000" x="67.83411492725956" y="3" transform="rotate(180 67.83411492725956 0)" font-family="Helvetica Neue, Helvetica, Arial, sans-serif">ACTED_IN</text></g><g class="relationship" transform="translate(60.773522054078306 -69.67344467509902) rotate(531.8111754531826)"><path class="b-outline" fill="#A5ABB6" stroke="none" d="M 25 0.5 L 45.23443577767847 0.5 L 45.23443577767847 -0.5 L 25 -0.5 Z M 90.79693577767847 0.5 L 111.03137155535694 0.5 L 111.03137155535694 3.5 L 118.03137155535694 0 L 111.03137155535694 -3.5 L 111.03137155535694 -0.5 L 90.79693577767847 -0.5 Z"/><text text-anchor="middle" pointer-events="none" font-size="8px" fill="#000000" x="68.01568577767847" y="3" transform="rotate(180 68.01568577767847 0)" font-family="Helvetica Neue, Helvetica, Arial, sans-serif">ACTED_IN</text></g></g><g class="layer nodes"><g class="node" aria-label="graph-node0" transform="translate(-22.52920563671446,80.92529580431705)"><circle class="b-outline" cx="0" cy="0" r="25" fill="#F79767" stroke="#f36924" stroke-width="2px"/><text class="caption" text-anchor="middle" pointer-events="none" x="0" y="0" font-size="10px" fill="#FFFFFF" font-family="Helvetica Neue, Helvetica, Arial, sans-serif"> Charlie</text><text class="caption" text-anchor="middle" pointer-events="none" x="0" y="10" font-size="10px" fill="#FFFFFF" font-family="Helvetica Neue, Helvetica, Arial, sans-serif"> Sheen</text></g><g class="node" aria-label="graph-node1" transform="translate(60.773522054078306,-69.67344467509902)"><circle class="b-outline" cx="0" cy="0" r="25" fill="#F79767" stroke="#f36924" stroke-width="2px"/><text class="caption" text-anchor="middle" pointer-events="none" x="0" y="0" font-size="10px" fill="#FFFFFF" font-family="Helvetica Neue, Helvetica, Arial, sans-serif"> Martin</text><text class="caption" text-anchor="middle" pointer-events="none" x="0" y="10" font-size="10px" fill="#FFFFFF" font-family="Helvetica Neue, Helvetica, Arial, sans-serif"> Sheen</text></g><g class="node" aria-label="graph-node5" transform="translate(-80.79950616142217,-49.30064587621814)"><circle class="b-outline" cx="0" cy="0" r="25" fill="#C990C0" stroke="#b261a5" stroke-width="2px"/><text class="caption" text-anchor="middle" pointer-events="none" x="0" y="0" font-size="10px" fill="#FFFFFF" font-family="Helvetica Neue, Helvetica, Arial, sans-serif"> Wall</text><text class="caption" text-anchor="middle" pointer-events="none" x="0" y="10" font-size="10px" fill="#FFFFFF" font-family="Helvetica Neue, Helvetica, Arial, sans-serif"> Street</text></g></g></svg>