<svg xmlns="http://www.w3.org/2000/svg" width="195.6799774169922" height="197.66436767578125" viewBox="-184.1672821044922 -96.54796600341797 195.6799774169922 197.66436767578125"><title>Neo4j Graph Visualization</title><desc>Created using Neo4j (http://www.neo4j.com/)</desc><g class="layer relationships"><g class="relationship" transform="translate(-42.45136819906039 72.11640294607994) rotate(219.16014406878583)"><path class="b-outline" fill="#A5ABB6" stroke="none" d="M 25 0.5 L 46.40268122989622 0.5 L 46.40268122989622 -0.5 L 25 -0.5 Z M 91.96518122989622 0.5 L 113.36786245979243 0.5 L 113.36786245979243 3.5 L 120.36786245979243 0 L 113.36786245979243 -3.5 L 113.36786245979243 -0.5 L 91.96518122989622 -0.5 Z"/><text text-anchor="middle" pointer-events="none" font-size="8px" fill="#000000" x="69.18393122989622" y="3" transform="rotate(180 69.18393122989622 0)" font-family="Helvetica Neue, Helvetica, Arial, sans-serif">ACTED_IN</text></g><g class="relationship" transform="translate(-17.487304502374542 -67.54796412197382) rotate(520.8294129973742)"><path class="b-outline" fill="#A5ABB6" stroke="none" d="M 25 0.5 L 46.60038138333151 0.5 L 46.60038138333151 -0.5 L 25 -0.5 Z M 92.16288138333151 0.5 L 113.76326276666302 0.5 L 113.76326276666302 3.5 L 120.76326276666302 0 L 113.76326276666302 -3.5 L 113.76326276666302 -0.5 L 92.16288138333151 -0.5 Z"/><text text-anchor="middle" pointer-events="none" font-size="8px" fill="#000000" x="69.38163138333151" y="3" transform="rotate(180 69.38163138333151 0)" font-family="Helvetica Neue, Helvetica, Arial, sans-serif">ACTED_IN</text></g></g><g class="layer nodes"><g class="node" aria-label="graph-node1" transform="translate(-42.45136819906039,72.11640294607994)"><circle class="b-outline" cx="0" cy="0" r="25" fill="#F79767" stroke="#f36924" stroke-width="2px"/><text class="caption" text-anchor="middle" pointer-events="none" x="0" y="0" font-size="10px" fill="#FFFFFF" font-family="Helvetica Neue, Helvetica, Arial, sans-serif"> Charlie</text><text class="caption" text-anchor="middle" pointer-events="none" x="0" y="10" font-size="10px" fill="#FFFFFF" font-family="Helvetica Neue, Helvetica, Arial, sans-serif"> Sheen</text></g><g class="node" aria-label="graph-node2" transform="translate(-17.487304502374542,-67.54796412197382)"><circle class="b-outline" cx="0" cy="0" r="25" fill="#F79767" stroke="#f36924" stroke-width="2px"/><text class="caption" text-anchor="middle" pointer-events="none" x="0" y="0" font-size="10px" fill="#FFFFFF" font-family="Helvetica Neue, Helvetica, Arial, sans-serif"> Martin</text><text class="caption" text-anchor="middle" pointer-events="none" x="0" y="10" font-size="10px" fill="#FFFFFF" font-family="Helvetica Neue, Helvetica, Arial, sans-serif"> Sheen</text></g><g class="node" aria-label="graph-node9" transform="translate(-155.1672758357178,-19.681960883422228)"><circle class="b-outline" cx="0" cy="0" r="25" fill="#C990C0" stroke="#b261a5" stroke-width="2px"/><text class="caption" text-anchor="middle" pointer-events="none" x="0" y="-5" font-size="10px" fill="#FFFFFF" font-family="Helvetica Neue, Helvetica, Arial, sans-serif"> No Code</text><text class="caption" text-anchor="middle" pointer-events="none" x="0" y="5" font-size="10px" fill="#FFFFFF" font-family="Helvetica Neue, Helvetica, Arial, sans-serif"> of</text><text class="caption" text-anchor="middle" pointer-events="none" x="0" y="15" font-size="10px" fill="#FFFFFF" font-family="Helvetica Neue, Helvetica, Arial, sans-serif"> Con…</text></g></g></svg>