<svg xmlns="http://www.w3.org/2000/svg" width="244.12112426757812" height="171.1475830078125" viewBox="-116.75489807128906 -51.95478057861328 244.12112426757812 171.1475830078125"><title>Neo4j Graph Visualization</title><desc>Created using Neo4j (http://www.neo4j.com/)</desc><g class="layer relationships"><g class="relationship" transform="translate(-0.6131510154109785 90.19279478414778) rotate(313.6861735350019)"><path class="b-outline" fill="#A5ABB6" stroke="none" d="M 25 0.5 L 45.369426310519685 0.5 L 45.369426310519685 -0.5 L 25 -0.5 Z M 90.93192631051969 0.5 L 111.30135262103937 0.5 L 111.30135262103937 3.5 L 118.30135262103937 0 L 111.30135262103937 -3.5 L 111.30135262103937 -0.5 L 90.93192631051969 -0.5 Z"/><text text-anchor="middle" pointer-events="none" font-size="8px" fill="#000000" x="68.15067631051969" y="3" font-family="Helvetica Neue, Helvetica, Arial, sans-serif">ACTED_IN</text></g><g class="relationship" transform="translate(-0.6131510154109785 90.19279478414778) rotate(232.39797007340127)"><path class="b-outline" fill="#A5ABB6" stroke="none" d="M 25 0.5 L 45.12613474865988 0.5 L 45.12613474865988 -0.5 L 25 -0.5 Z M 90.68863474865988 0.5 L 110.81476949731976 0.5 L 110.81476949731976 3.5 L 117.81476949731976 0 L 110.81476949731976 -3.5 L 110.81476949731976 -0.5 L 90.68863474865988 -0.5 Z"/><text text-anchor="middle" pointer-events="none" font-size="8px" fill="#000000" x="67.90738474865988" y="3" transform="rotate(180 67.90738474865988 0)" font-family="Helvetica Neue, Helvetica, Arial, sans-serif">ACTED_IN</text></g></g><g class="layer nodes"><g class="node" aria-label="graph-node2" transform="translate(-0.6131510154109785,90.19279478414778)"><circle class="b-outline" cx="0" cy="0" r="25" fill="#F79767" stroke="#f36924" stroke-width="2px"/><text class="caption" text-anchor="middle" pointer-events="none" x="0" y="0" font-size="10px" fill="#FFFFFF" font-family="Helvetica Neue, Helvetica, Arial, sans-serif"> Michael</text><text class="caption" text-anchor="middle" pointer-events="none" x="0" y="10" font-size="10px" fill="#FFFFFF" font-family="Helvetica Neue, Helvetica, Arial, sans-serif"> Douglas</text></g><g class="node" aria-label="graph-node5" transform="translate(98.36622911165011,-13.433263582858602)"><circle class="b-outline" cx="0" cy="0" r="25" fill="#C990C0" stroke="#b261a5" stroke-width="2px"/><text class="caption" text-anchor="middle" pointer-events="none" x="0" y="0" font-size="10px" fill="#FFFFFF" font-family="Helvetica Neue, Helvetica, Arial, sans-serif"> Wall</text><text class="caption" text-anchor="middle" pointer-events="none" x="0" y="10" font-size="10px" fill="#FFFFFF" font-family="Helvetica Neue, Helvetica, Arial, sans-serif"> Street</text></g><g class="node" aria-label="graph-node6" transform="translate(-87.754900707011,-22.954780741177093)"><circle class="b-outline" cx="0" cy="0" r="25" fill="#C990C0" stroke="#b261a5" stroke-width="2px"/><text class="caption" text-anchor="middle" pointer-events="none" x="0" y="-5" font-size="10px" fill="#FFFFFF" font-family="Helvetica Neue, Helvetica, Arial, sans-serif"> The</text><text class="caption" text-anchor="middle" pointer-events="none" x="0" y="5" font-size="10px" fill="#FFFFFF" font-family="Helvetica Neue, Helvetica, Arial, sans-serif"> American</text><text class="caption" text-anchor="middle" pointer-events="none" x="0" y="15" font-size="10px" fill="#FFFFFF" font-family="Helvetica Neue, Helvetica, Arial, sans-serif"> Pre…</text></g></g></svg>