<svg xmlns="http://www.w3.org/2000/svg" width="200.4791259765625" height="201.03819274902344" viewBox="-92.81436920166016 -87.11289978027344 200.4791259765625 201.03819274902344"><title>Neo4j Graph Visualization</title><desc>Created using Neo4j (http://www.neo4j.com/)</desc><g class="layer relationships"><g class="relationship" transform="translate(-63.529205636714465 84.92529580431709) rotate(269.88577473740105)"><path class="b-outline" fill="#A5ABB6" stroke="none" d="M 25 0.5 L 38.12666272192523 0.5 L 38.12666272192523 -0.5 L 25 -0.5 Z M 97.91181897192523 0.5 L 111.03848169385046 0.5 L 111.03848169385046 3.5 L 118.03848169385046 0 L 111.03848169385046 -3.5 L 111.03848169385046 -0.5 L 97.91181897192523 -0.5 Z"/><text text-anchor="middle" pointer-events="none" font-size="8px" fill="#000000" x="68.01924084692523" y="3" transform="rotate(180 68.01924084692523 0)" font-family="Helvetica Neue, Helvetica, Arial, sans-serif">OLD FRIENDS</text></g><g class="relationship" transform="translate(-63.81436795493768 -58.11290163865358) rotate(360.73661776136214)"><path class="b-outline" fill="#A5ABB6" stroke="none" d="M 25 0.5 L 44.96420456864803 0.5 L 44.96420456864803 -0.5 L 25 -0.5 Z M 90.52670456864803 0.5 L 110.49090913729606 0.5 L 110.49090913729606 3.5 L 117.49090913729606 0 L 110.49090913729606 -3.5 L 110.49090913729606 -0.5 L 90.52670456864803 -0.5 Z"/><text text-anchor="middle" pointer-events="none" font-size="8px" fill="#000000" x="67.74545456864803" y="3" font-family="Helvetica Neue, Helvetica, Arial, sans-serif">ACTED_IN</text></g></g><g class="layer nodes"><g class="node" aria-label="graph-node12" transform="translate(-63.529205636714465,84.92529580431709)"><circle class="b-outline" cx="0" cy="0" r="25" fill="#F79767" stroke="#f36924" stroke-width="2px"/><text class="caption" text-anchor="middle" pointer-events="none" x="0" y="0" font-size="10px" fill="#FFFFFF" font-family="Helvetica Neue, Helvetica, Arial, sans-serif"> Rob</text><text class="caption" text-anchor="middle" pointer-events="none" x="0" y="10" font-size="10px" fill="#FFFFFF" font-family="Helvetica Neue, Helvetica, Arial, sans-serif"> Reiner</text></g><g class="node" aria-label="graph-node14" transform="translate(78.66476538597207,-56.28103122936777)"><circle class="b-outline" cx="0" cy="0" r="25" fill="#C990C0" stroke="#b261a5" stroke-width="2px"/><text class="caption" text-anchor="middle" pointer-events="none" x="0" y="-5" font-size="10px" fill="#FFFFFF" font-family="Helvetica Neue, Helvetica, Arial, sans-serif"> The</text><text class="caption" text-anchor="middle" pointer-events="none" x="0" y="5" font-size="10px" fill="#FFFFFF" font-family="Helvetica Neue, Helvetica, Arial, sans-serif"> American</text><text class="caption" text-anchor="middle" pointer-events="none" x="0" y="15" font-size="10px" fill="#FFFFFF" font-family="Helvetica Neue, Helvetica, Arial, sans-serif"> Pre…</text></g><g class="node" aria-label="graph-node9" transform="translate(-63.81436795493768,-58.11290163865358)"><circle class="b-outline" cx="0" cy="0" r="25" fill="#F79767" stroke="#f36924" stroke-width="2px"/><text class="caption" text-anchor="middle" pointer-events="none" x="0" y="0" font-size="10px" fill="#FFFFFF" font-family="Helvetica Neue, Helvetica, Arial, sans-serif"> Martin</text><text class="caption" text-anchor="middle" pointer-events="none" x="0" y="10" font-size="10px" fill="#FFFFFF" font-family="Helvetica Neue, Helvetica, Arial, sans-serif"> Sheen</text></g></g></svg>