<svg xmlns="http://www.w3.org/2000/svg" width="200.09730529785156" height="208.6195068359375" viewBox="-105.66728210449219 -93.19420623779297 200.09730529785156 208.6195068359375"><title>Neo4j Graph Visualization</title><desc>Created using Neo4j (http://www.neo4j.com/)</desc><g class="layer relationships"><g class="relationship" transform="translate(-30.02920563671446 86.42529580431705) rotate(250.95568488174865)"><path class="b-outline" fill="#A5ABB6" stroke="none" d="M 25 0.5 L 45.18391828710047 0.5 L 45.18391828710047 -0.5 L 25 -0.5 Z M 90.74641828710047 0.5 L 110.93033657420094 0.5 L 110.93033657420094 3.5 L 117.93033657420094 0 L 110.93033657420094 -3.5 L 110.93033657420094 -0.5 L 90.74641828710047 -0.5 Z"/><text text-anchor="middle" pointer-events="none" font-size="8px" fill="#000000" x="67.96516828710047" y="3" transform="rotate(180 67.96516828710047 0)" font-family="Helvetica Neue, Helvetica, Arial, sans-serif">ACTED_IN</text></g><g class="relationship" transform="translate(65.43002715493073 -64.19420824003528) rotate(533.7698983197613)"><path class="b-outline" fill="#A5ABB6" stroke="none" d="M 25 0.5 L 44.52544288900815 0.5 L 44.52544288900815 -0.5 L 25 -0.5 Z M 91.41606788900815 0.5 L 110.9415107780163 0.5 L 110.9415107780163 3.5 L 117.9415107780163 0 L 110.9415107780163 -3.5 L 110.9415107780163 -0.5 L 91.41606788900815 -0.5 Z"/><text text-anchor="middle" pointer-events="none" font-size="8px" fill="#000000" x="67.97075538900815" y="3" transform="rotate(180 67.97075538900815 0)" font-family="Helvetica Neue, Helvetica, Arial, sans-serif">DIRECTED</text></g></g><g class="layer nodes"><g class="node" aria-label="graph-node1" transform="translate(-30.02920563671446,86.42529580431705)"><circle class="b-outline" cx="0" cy="0" r="25" fill="#F79767" stroke="#f36924" stroke-width="2px"/><text class="caption" text-anchor="middle" pointer-events="none" x="0" y="0" font-size="10px" fill="#FFFFFF" font-family="Helvetica Neue, Helvetica, Arial, sans-serif"> Martin</text><text class="caption" text-anchor="middle" pointer-events="none" x="0" y="10" font-size="10px" fill="#FFFFFF" font-family="Helvetica Neue, Helvetica, Arial, sans-serif"> Sheen</text></g><g class="node" aria-label="graph-node3" transform="translate(65.43002715493073,-64.19420824003528)"><circle class="b-outline" cx="0" cy="0" r="25" fill="#F79767" stroke="#f36924" stroke-width="2px"/><text class="caption" text-anchor="middle" pointer-events="none" x="0" y="0" font-size="10px" fill="#FFFFFF" font-family="Helvetica Neue, Helvetica, Arial, sans-serif"> Oliver</text><text class="caption" text-anchor="middle" pointer-events="none" x="0" y="10" font-size="10px" fill="#FFFFFF" font-family="Helvetica Neue, Helvetica, Arial, sans-serif"> Stone</text></g><g class="node" aria-label="graph-node5" transform="translate(-76.66728346511232,-48.68196088342223)"><circle class="b-outline" cx="0" cy="0" r="25" fill="#C990C0" stroke="#b261a5" stroke-width="2px"/><text class="caption" text-anchor="middle" pointer-events="none" x="0" y="0" font-size="10px" fill="#FFFFFF" font-family="Helvetica Neue, Helvetica, Arial, sans-serif"> Wall</text><text class="caption" text-anchor="middle" pointer-events="none" x="0" y="10" font-size="10px" fill="#FFFFFF" font-family="Helvetica Neue, Helvetica, Arial, sans-serif"> Street</text></g></g></svg>