<svg xmlns="http://www.w3.org/2000/svg" width="1126" height="769" viewBox="0 0 1126 769"><defs><style type="text/css"/></defs><g transform="translate(-104.91236153860059 651.224305617558) scale(1)"><g class="relationship"><g transform="translate(992.2848707622977 -376.6318617845846) rotate(89.8223670035674)" stroke-width="3" stroke="#848484"><path d="M 44 0 L 163.14619193536825 0"/><polygon points="-18.079611541307905,0 -20.088457268119896,6.696152422706632 0,0 -20.088457268119896,-6.696152422706632" fill="#848484" transform="translate(181.22580347667616 0) rotate(0)" stroke="none"/></g><g transform="translate(992.6059759129756 -273.05926357534145) rotate(89.8223670035674) translate(0 -33)"><g transform="translate(0 0)"><g transform="translate(-54.287109375 0)" fill="#ffffff" stroke="#000000" stroke-width="0"><rect x="0" y="0" width="108.57421875" height="30" rx="5" ry="5" stroke="none"/><text xml:space="preserve" x="5" y="20.5712890625" stroke="none" text-anchor="left" font-family="sans-serif" font-size="20" font-weight="normal" fill="#848484">CALLS_AT</text></g></g></g></g><g class="relationship"><g transform="translate(992.2848707622977 -376.6318617845846) rotate(180)" stroke-width="3" stroke="#4C8EDA"><path d="M 44 0 L 413.18690864401054 0"/><polygon points="-18.079611541307905,0 -20.088457268119896,6.696152422706632 0,0 -20.088457268119896,-6.696152422706632" fill="#4C8EDA" transform="translate(431.2665201853184 0) rotate(0)" stroke="none"/></g><g transform="translate(763.6914164402924 -376.6318617845846) rotate(360) translate(0 -33)"><g transform="translate(0 0)"><g transform="translate(-31.669921875 0)" fill="#ffffff" stroke="#000000" stroke-width="0"><rect x="0" y="0" width="63.33984375" height="30" rx="5" ry="5" stroke="none"/><text xml:space="preserve" x="5" y="20.5712890625" stroke="none" text-anchor="left" font-family="sans-serif" font-size="20" font-weight="normal" fill="#848484">NEXT</text></g></g></g></g><g class="relationship"><g transform="translate(517.0183505769793 -376.6318617845846) rotate(90)" stroke-width="3" stroke="#848484"><path d="M 44 0 L 161.14510953029227 0"/><polygon points="-18.079611541307905,0 -20.088457268119896,6.696152422706632 0,0 -20.088457268119896,-6.696152422706632" fill="#848484" transform="translate(179.2247210716002 0) rotate(0)" stroke="none"/></g><g transform="translate(517.0183505769793 -274.05930701943845) rotate(270) translate(0 -33)"><g transform="translate(0 0)"><g transform="translate(-54.287109375 0)" fill="#ffffff" stroke="#000000" stroke-width="0"><rect x="0" y="0" width="108.57421875" height="30" rx="5" ry="5" stroke="none"/><text xml:space="preserve" x="5" y="20.5712890625" stroke="none" text-anchor="left" font-family="sans-serif" font-size="20" font-weight="normal" fill="#848484">CALLS_AT</text></g></g></g></g><g class="relationship"><g transform="translate(797.5022830591488 -277.27262002089196) rotate(155.83212813086385)" stroke-width="3" stroke="#848484"><path d="M 44 0 L 243.35063300543723 0"/><polygon points="-18.079611541307905,0 -20.088457268119896,6.696152422706632 0,0 -20.088457268119896,-6.696152422706632" fill="#848484" transform="translate(261.43024454674514 0) rotate(0)" stroke="none"/></g><g transform="translate(666.4201319431567 -218.45029236412057) rotate(335.8321281308639) translate(0 -33)"><g transform="translate(0 0)"><g transform="translate(-54.287109375 0)" fill="#ffffff" stroke="#000000" stroke-width="0"><rect x="0" y="0" width="108.57421875" height="30" rx="5" ry="5" stroke="none"/><text xml:space="preserve" x="5" y="20.5712890625" stroke="none" text-anchor="left" font-family="sans-serif" font-size="20" font-weight="normal" fill="#848484">CALLS_AT</text></g></g></g></g><g class="relationship"><g transform="translate(517.0183505769793 52.36100211606225) rotate(-90)" stroke-width="3" stroke="#848484"><path d="M 44 0 L 139.68853128773875 0"/><polygon points="-18.079611541307905,0 -20.088457268119896,6.696152422706632 0,0 -20.088457268119896,-6.696152422706632" fill="#848484" transform="translate(157.76814282904667 0) rotate(0)" stroke="none"/></g><g transform="translate(517.0183505769793 -39.483263527807125) rotate(90) translate(0 -33)"><g transform="translate(0 0)"><g transform="translate(-54.287109375 0)" fill="#ffffff" stroke="#000000" stroke-width="0"><rect x="0" y="0" width="108.57421875" height="30" rx="5" ry="5" stroke="none"/><text xml:space="preserve" x="5" y="20.5712890625" stroke="none" text-anchor="left" font-family="sans-serif" font-size="20" font-weight="normal" fill="#848484">CALLS_AT</text></g></g></g></g><g class="relationship"><g transform="translate(517.0183505769793 -376.6318617845846) rotate(180)" stroke-width="3" stroke="#4C8EDA"><path d="M 44 0 L 183.52523384342234 0"/><polygon points="-18.079611541307905,0 -20.088457268119896,6.696152422706632 0,0 -20.088457268119896,-6.696152422706632" fill="#4C8EDA" transform="translate(201.60484538473025 0) rotate(0)" stroke="none"/></g><g transform="translate(403.2557336552681 -376.6318617845846) rotate(360) translate(0 -33)"><g transform="translate(0 0)"><g transform="translate(-31.669921875 0)" fill="#ffffff" stroke="#000000" stroke-width="0"><rect x="0" y="0" width="63.33984375" height="30" rx="5" ry="5" stroke="none"/><text xml:space="preserve" x="5" y="20.5712890625" stroke="none" text-anchor="left" font-family="sans-serif" font-size="20" font-weight="normal" fill="#848484">NEXT</text></g></g></g></g><g class="relationship"><g transform="translate(271.41350519224903 -376.6318617845846) rotate(-90)" stroke-width="3" stroke="#848484"><path d="M 44 0 L 147.5128322916655 0"/><polygon points="-18.079611541307905,0 -20.088457268119896,6.696152422706632 0,0 -20.088457268119896,-6.696152422706632" fill="#848484" transform="translate(165.5924438329734 0) rotate(0)" stroke="none"/></g><g transform="translate(271.41350519224903 -472.38827793041736) rotate(90) translate(0 -33)"><g transform="translate(0 0)"><g transform="translate(-54.287109375 0)" fill="#ffffff" stroke="#000000" stroke-width="0"><rect x="0" y="0" width="108.57421875" height="30" rx="5" ry="5" stroke="none"/><text xml:space="preserve" x="5" y="20.5712890625" stroke="none" text-anchor="left" font-family="sans-serif" font-size="20" font-weight="normal" fill="#848484">CALLS_AT</text></g></g></g></g><g class="relationship"><g transform="translate(992.9831328436446 52.36100211606225) rotate(-90)" stroke-width="3" stroke="#848484"><path d="M 44 0 L 141.68853128773875 0"/><polygon points="-18.079611541307905,0 -20.088457268119896,6.696152422706632 0,0 -20.088457268119896,-6.696152422706632" fill="#848484" transform="translate(159.76814282904667 0) rotate(0)" stroke="none"/></g><g transform="translate(992.9831328436446 -40.483263527807125) rotate(90) translate(0 -33)"><g transform="translate(0 0)"><g transform="translate(-54.287109375 0)" fill="#ffffff" stroke="#000000" stroke-width="0"><rect x="0" y="0" width="108.57421875" height="30" rx="5" ry="5" stroke="none"/><text xml:space="preserve" x="5" y="20.5712890625" stroke="none" text-anchor="left" font-family="sans-serif" font-size="20" font-weight="normal" fill="#848484">CALLS_AT</text></g></g></g></g><g class="relationship"><g transform="translate(992.9831328436446 52.36100211606225) rotate(180)" stroke-width="3" stroke="#F79767"><path d="M 44 0 L 413.88517072535745 0"/><polygon points="-18.079611541307905,0 -20.088457268119896,6.696152422706632 0,0 -20.088457268119896,-6.696152422706632" fill="#F79767" transform="translate(431.96478226666534 0) rotate(0)" stroke="none"/></g><g transform="translate(764.0405474809659 52.36100211606228) rotate(360) translate(0 -33)"><g transform="translate(0 0)"><g transform="translate(-31.669921875 0)" fill="#ffffff" stroke="#000000" stroke-width="0"><rect x="0" y="0" width="63.33984375" height="30" rx="5" ry="5" stroke="none"/><text xml:space="preserve" x="5" y="20.5712890625" stroke="none" text-anchor="left" font-family="sans-serif" font-size="20" font-weight="normal" fill="#848484">NEXT</text></g></g></g></g><g class="relationship"><g transform="translate(271.41350519224903 52.36100211606225) rotate(-90)" stroke-width="3" stroke="#848484"><path d="M 44 0 L 141.68853128773875 0"/><polygon points="-18.079611541307905,0 -20.088457268119896,6.696152422706632 0,0 -20.088457268119896,-6.696152422706632" fill="#848484" transform="translate(159.76814282904667 0) rotate(0)" stroke="none"/></g><g transform="translate(271.41350519224903 -40.483263527807125) rotate(90) translate(0 -33)"><g transform="translate(0 0)"><g transform="translate(-54.287109375 0)" fill="#ffffff" stroke="#000000" stroke-width="0"><rect x="0" y="0" width="108.57421875" height="30" rx="5" ry="5" stroke="none"/><text xml:space="preserve" x="5" y="20.5712890625" stroke="none" text-anchor="left" font-family="sans-serif" font-size="20" font-weight="normal" fill="#848484">CALLS_AT</text></g></g></g></g><g class="relationship"><g transform="translate(517.0183505769793 52.36100211606225) rotate(180)" stroke-width="3" stroke="#F79767"><path d="M 44 0 L 183.52523384342234 0"/><polygon points="-18.079611541307905,0 -20.088457268119896,6.696152422706632 0,0 -20.088457268119896,-6.696152422706632" fill="#F79767" transform="translate(201.60484538473025 0) rotate(0)" stroke="none"/></g><g transform="translate(403.2557336552681 52.36100211606227) rotate(360) translate(0 -33)"><g transform="translate(0 0)"><g transform="translate(-31.669921875 0)" fill="#ffffff" stroke="#000000" stroke-width="0"><rect x="0" y="0" width="63.33984375" height="30" rx="5" ry="5" stroke="none"/><text xml:space="preserve" x="5" y="20.5712890625" stroke="none" text-anchor="left" font-family="sans-serif" font-size="20" font-weight="normal" fill="#848484">NEXT</text></g></g></g></g><g class="relationship"><g transform="translate(797.5022830591488 -77.67155084536124) rotate(-90)" stroke-width="3" stroke="#C990C0"><path d="M 44 0 L 137.5214576342228 0"/><polygon points="-18.079611541307905,0 -20.088457268119896,6.696152422706632 0,0 -20.088457268119896,-6.696152422706632" fill="#C990C0" transform="translate(155.6010691755307 0) rotate(0)" stroke="none"/></g><g transform="translate(797.5022830591488 -168.43227966247264) rotate(90) translate(0 -33)"><g transform="translate(0 0)"><g transform="translate(-31.669921875 0)" fill="#ffffff" stroke="#000000" stroke-width="0"><rect x="0" y="0" width="63.33984375" height="30" rx="5" ry="5" stroke="none"/><text xml:space="preserve" x="5" y="20.5712890625" stroke="none" text-anchor="left" font-family="sans-serif" font-size="20" font-weight="normal" fill="#848484">NEXT</text></g></g></g></g><g class="relationship"><g transform="translate(797.5022830591488 -277.27262002089196) rotate(-90)" stroke-width="3" stroke="#C990C0"><path d="M 44 0 L 246.87207405535813 0"/><polygon points="-18.079611541307905,0 -20.088457268119896,6.696152422706632 0,0 -20.088457268119896,-6.696152422706632" fill="#C990C0" transform="translate(264.95168559666604 0) rotate(0)" stroke="none"/></g><g transform="translate(797.5022830591488 -422.708657048571) rotate(90) translate(0 -33)"><g transform="translate(0 0)"><g transform="translate(-31.669921875 0)" fill="#ffffff" stroke="#000000" stroke-width="0"><rect x="0" y="0" width="63.33984375" height="30" rx="5" ry="5" stroke="none"/><text xml:space="preserve" x="5" y="20.5712890625" stroke="none" text-anchor="left" font-family="sans-serif" font-size="20" font-weight="normal" fill="#848484">NEXT</text></g></g></g></g><g class="relationship"><g transform="translate(797.5022830591488 -77.67155084536124) rotate(-20.66653016458915)" stroke-width="3" stroke="#848484"><path d="M 44 0 L 146.84549428753917 0"/><polygon points="-18.079611541307905,0 -20.088457268119896,6.696152422706632 0,0 -20.088457268119896,-6.696152422706632" fill="#848484" transform="translate(164.92510582884708 0) rotate(0)" stroke="none"/></g><g transform="translate(886.7846104579253 -111.34894217428504) rotate(-20.66653016458915) translate(0 -33)"><g transform="translate(0 0)"><g transform="translate(-54.287109375 0)" fill="#ffffff" stroke="#000000" stroke-width="0"><rect x="0" y="0" width="108.57421875" height="30" rx="5" ry="5" stroke="none"/><text xml:space="preserve" x="5" y="20.5712890625" stroke="none" text-anchor="left" font-family="sans-serif" font-size="20" font-weight="normal" fill="#848484">CALLS_AT</text></g></g></g></g><g class="relationship"><g transform="translate(797.5022830591488 -586.224305617558) rotate(180)" stroke-width="3" stroke="#848484"><path d="M 44 0 L 155.20771862949655 0"/><polygon points="-18.079611541307905,0 -20.088457268119896,6.696152422706632 0,0 -20.088457268119896,-6.696152422706632" fill="#848484" transform="translate(173.28733017080447 0) rotate(0)" stroke="none"/></g><g transform="translate(697.8984237444005 -586.224305617558) rotate(360) translate(0 -33)"><g transform="translate(0 0)"><g transform="translate(-54.287109375 0)" fill="#ffffff" stroke="#000000" stroke-width="0"><rect x="0" y="0" width="108.57421875" height="30" rx="5" ry="5" stroke="none"/><text xml:space="preserve" x="5" y="20.5712890625" stroke="none" text-anchor="left" font-family="sans-serif" font-size="20" font-weight="normal" fill="#848484">CALLS_AT</text></g></g></g></g><g class="node"><g fill="#57C7E3" stroke="#57C7E3" stroke-width="4"><circle cx="1049.9976146897302" cy="-586.224305617558" r="22"/></g><g transform="translate(1049.9976146897302 -586.224305617558)"><g transform="translate(1.592040838891559e-15 26)"><g transform="translate(0 0)"><g fill="#000000" font-family="sans-serif" font-size="20" font-weight="normal" text-anchor="middle"><text xml:space="preserve" x="0" y="17.5712890625" stroke="none">Stop</text></g></g></g></g></g><g class="node"><g fill="#FDDF8D" stroke="#FDDF8D" stroke-width="4"><circle cx="271.41350519224903" cy="-586.224305617558" r="37"/></g><g transform="translate(271.41350519224903 -586.224305617558)"><g transform="scale(0.770741062734654) translate(0 -18.5)"><g transform="translate(0 0)"><g transform="translate(-34.24609375 0)"><g fill="#FDDF8D" stroke="#000000" stroke-width="3" font-family="sans-serif" font-size="22" font-weight="normal"><text xml:space="preserve" x="0" y="24.62841796875" stroke="none">Station</text></g></g></g></g><g transform="translate(2.510525938252074e-15 -65)"><g transform="translate(0 0)"><g transform="translate(-105.4443359375 0)" fill="white"><rect x="0" y="0" width="210.888671875" height="24" rx="0" ry="0" stroke="none"/><g font-family="sans-serif" font-size="20" font-weight="normal" fill="#000000" text-anchor="end"><text xml:space="preserve" x="61.142578125" y="17.5712890625" stroke="none">name:</text><text xml:space="preserve" x="66.69921875" y="17.5712890625" stroke="none" text-anchor="start">London Victoria</text></g></g></g></g></g></g><g class="node"><g fill="#FDDF8D" stroke="#FDDF8D" stroke-width="4"><circle cx="271.41350519224903" cy="-151.40714071298441" r="37"/></g><g transform="translate(271.41350519224903 -151.40714071298441)"><g transform="scale(0.770741062734654) translate(0 -18.5)"><g transform="translate(0 0)"><g transform="translate(-34.24609375 0)"><g fill="#FDDF8D" stroke="#000000" stroke-width="3" font-family="sans-serif" font-size="22" font-weight="normal"><text xml:space="preserve" x="0" y="24.62841796875" stroke="none">Station</text></g></g></g></g><g transform="translate(2.510525938252074e-15 -65)"><g transform="translate(0 0)"><g transform="translate(-128.9501953125 0)" fill="white"><rect x="0" y="0" width="257.900390625" height="24" rx="0" ry="0" stroke="none"/><g font-family="sans-serif" font-size="20" font-weight="normal" fill="#000000" text-anchor="end"><text xml:space="preserve" x="61.142578125" y="17.5712890625" stroke="none">name:</text><text xml:space="preserve" x="66.69921875" y="17.5712890625" stroke="none" text-anchor="start">Clapham High Street</text></g></g></g></g></g></g><g class="node"><g fill="#FDDF8D" stroke="#FDDF8D" stroke-width="4"><circle cx="580.2149528883443" cy="-586.224305617558" r="37"/></g><g transform="translate(580.2149528883443 -586.224305617558)"><g transform="scale(0.770741062734654) translate(0 -18.5)"><g transform="translate(0 0)"><g transform="translate(-34.24609375 0)"><g fill="#FDDF8D" stroke="#FDDF8D" stroke-width="3" font-family="sans-serif" font-size="22" font-weight="normal"><text xml:space="preserve" x="0" y="24.62841796875" stroke="none">Station</text></g></g></g></g><g transform="translate(2.510525938252074e-15 -65)"><g transform="translate(0 0)"><g transform="translate(-116.1767578125 0)" fill="white"><rect x="0" y="0" width="232.353515625" height="24" rx="0" ry="0" stroke="none"/><g font-family="sans-serif" font-size="20" font-weight="normal" fill="#000000" text-anchor="end"><text xml:space="preserve" x="61.142578125" y="17.5712890625" stroke="none">name:</text><text xml:space="preserve" x="66.69921875" y="17.5712890625" stroke="none" text-anchor="start">Elephant &amp; Castle</text></g></g></g></g></g></g><g class="node"><g fill="#57C7E3" stroke="#F79767" stroke-width="4"><circle cx="517.0183505769793" cy="52.36100211606225" r="37"/></g><g transform="translate(517.0183505769793 52.36100211606225)"><g transform="scale(1) translate(0 -18.5)"><g transform="translate(0 0)"><g transform="translate(-22.62841796875 0)"><g fill="#57C7E3" stroke="#000000" stroke-width="3" font-family="sans-serif" font-size="22" font-weight="normal"><text xml:space="preserve" x="0" y="24.62841796875" stroke="none">Stop</text></g></g></g></g><g transform="translate(2.510525938252074e-15 41)"><g transform="translate(0 0)"><g transform="translate(-68.7548828125 0)" fill="white"><rect x="0" y="0" width="137.509765625" height="24" rx="0" ry="0" stroke="none"/><g font-family="sans-serif" font-size="20" font-weight="normal" fill="#000000" text-anchor="end"><text xml:space="preserve" x="77.822265625" y="17.5712890625" stroke="none">departs:</text><text xml:space="preserve" x="83.37890625" y="17.5712890625" stroke="none" text-anchor="start">11:37</text></g></g></g></g></g></g><g class="node"><g fill="#57C7E3" stroke="#C990C0" stroke-width="4"><circle cx="797.5022830591488" cy="-277.27262002089196" r="37"/></g><g transform="translate(797.5022830591488 -277.27262002089196)"><g transform="scale(1) translate(0 -18.5)"><g transform="translate(0 0)"><g transform="translate(-22.62841796875 0)"><g fill="#57C7E3" stroke="#000000" stroke-width="3" font-family="sans-serif" font-size="22" font-weight="normal"><text xml:space="preserve" x="0" y="24.62841796875" stroke="none">Stop</text></g></g></g></g><g transform="translate(41 -12)"><g transform="translate(0 0)"><g transform="translate(0 0)" fill="white"><rect x="0" y="0" width="137.509765625" height="24" rx="0" ry="0" stroke="none"/><g font-family="sans-serif" font-size="20" font-weight="normal" fill="#000000" text-anchor="end"><text xml:space="preserve" x="77.822265625" y="17.5712890625" stroke="none">departs:</text><text xml:space="preserve" x="83.37890625" y="17.5712890625" stroke="none" text-anchor="start">11:47</text></g></g></g></g></g></g><g class="node"><g fill="#FDDF8D" stroke="#4CC0F5" stroke-width="6"><circle cx="517.0183505769793" cy="-151.40714071298441" r="38"/></g><g transform="translate(517.0183505769793 -151.40714071298441)"><g transform="scale(0.770741062734654) translate(0 -18.5)"><g transform="translate(0 0)"><g transform="translate(-34.24609375 0)"><g fill="#FDDF8D" stroke="#FDDF8D" stroke-width="3" font-family="sans-serif" font-size="22" font-weight="normal"><text xml:space="preserve" x="0" y="24.62841796875" stroke="none">Station</text></g></g></g></g><g transform="translate(30.405591591021544 30.40559159102154)"><g transform="translate(0 0)"><g transform="translate(0 0)" fill="white"><rect x="0" y="0" width="186.71875" height="24" rx="0" ry="0" stroke="none"/><g font-family="sans-serif" font-size="20" font-weight="normal" fill="#000000" text-anchor="end"><text xml:space="preserve" x="61.142578125" y="17.5712890625" stroke="none">name:</text><text xml:space="preserve" x="66.69921875" y="17.5712890625" stroke="none" text-anchor="start">Denmark Hill</text></g></g></g></g></g></g><g class="node"><g fill="#FDDF8D" stroke="#FDDF8D" stroke-width="4"><circle cx="992.9831328436446" cy="-151.40714071298441" r="37"/></g><g transform="translate(992.9831328436446 -151.40714071298441)"><g transform="scale(0.770741062734654) translate(0 -18.5)"><g transform="translate(0 0)"><g transform="translate(-34.24609375 0)"><g fill="#FDDF8D" stroke="#FDDF8D" stroke-width="3" font-family="sans-serif" font-size="22" font-weight="normal"><text xml:space="preserve" x="0" y="24.62841796875" stroke="none">Station</text></g></g></g></g><g transform="translate(41 -12)"><g transform="translate(0 0)"><g transform="translate(0 0)" fill="white"><rect x="0" y="0" width="196.748046875" height="24" rx="0" ry="0" stroke="none"/><g font-family="sans-serif" font-size="20" font-weight="normal" fill="#000000" text-anchor="end"><text xml:space="preserve" x="61.142578125" y="17.5712890625" stroke="none">name:</text><text xml:space="preserve" x="66.69921875" y="17.5712890625" stroke="none" text-anchor="start">Peckham Rye</text></g></g></g></g></g></g><g class="node"><g fill="#FDDF8D" stroke="#FDDF8D" stroke-width="4"><circle cx="1124.0447584357996" cy="-586.224305617558" r="22"/></g><g transform="translate(1124.0447584357996 -586.224305617558)"><g transform="translate(1.592040838891559e-15 26)"><g transform="translate(0 0)"><g fill="#000000" font-family="sans-serif" font-size="20" font-weight="normal" text-anchor="middle"><text xml:space="preserve" x="0" y="17.5712890625" stroke="none">Station</text></g></g></g></g></g><g class="node"><g fill="#57C7E3" stroke="#4C8EDA" stroke-width="4"><circle cx="517.0183505769793" cy="-376.6318617845846" r="37"/></g><g transform="translate(517.0183505769793 -376.6318617845846)"><g transform="scale(1) translate(0 -18.5)"><g transform="translate(0 0)"><g transform="translate(-22.62841796875 0)"><g fill="#57C7E3" stroke="#000000" stroke-width="3" font-family="sans-serif" font-size="22" font-weight="normal"><text xml:space="preserve" x="0" y="24.62841796875" stroke="none">Stop</text></g></g></g></g><g transform="translate(2.510525938252074e-15 -65)"><g transform="translate(0 0)"><g transform="translate(-68.7548828125 0)" fill="white"><rect x="0" y="0" width="137.509765625" height="24" rx="0" ry="0" stroke="none"/><g font-family="sans-serif" font-size="20" font-weight="normal" fill="#000000" text-anchor="end"><text xml:space="preserve" x="77.822265625" y="17.5712890625" stroke="none">departs:</text><text xml:space="preserve" x="83.37890625" y="17.5712890625" stroke="none" text-anchor="start">11:44</text></g></g></g></g></g></g><g class="node"><g fill="#57C7E3" stroke="#4C8EDA" stroke-width="4"><circle cx="992.2848707622977" cy="-376.6318617845846" r="37"/></g><g transform="translate(992.2848707622977 -376.6318617845846)"><g transform="scale(1) translate(0 -18.5)"><g transform="translate(0 0)"><g transform="translate(-22.62841796875 0)"><g fill="#57C7E3" stroke="#000000" stroke-width="3" font-family="sans-serif" font-size="22" font-weight="normal"><text xml:space="preserve" x="0" y="24.62841796875" stroke="none">Stop</text></g></g></g></g><g transform="translate(28.99137802864845 -52.99137802864844)"><g transform="translate(0 0)"><g transform="translate(0 0)" fill="white"><rect x="0" y="0" width="137.509765625" height="24" rx="0" ry="0" stroke="none"/><g font-family="sans-serif" font-size="20" font-weight="normal" fill="#000000" text-anchor="end"><text xml:space="preserve" x="77.822265625" y="17.5712890625" stroke="none">departs:</text><text xml:space="preserve" x="83.37890625" y="17.5712890625" stroke="none" text-anchor="start">11:40</text></g></g></g></g></g></g><g class="node"><g fill="#57C7E3" stroke="#4C8EDA" stroke-width="4"><circle cx="271.41350519224903" cy="-376.6318617845846" r="37"/></g><g transform="translate(271.41350519224903 -376.6318617845846)"><g transform="scale(1) translate(0 -18.5)"><g transform="translate(0 0)"><g transform="translate(-22.62841796875 0)"><g fill="#57C7E3" stroke="#000000" stroke-width="3" font-family="sans-serif" font-size="22" font-weight="normal"><text xml:space="preserve" x="0" y="24.62841796875" stroke="none">Stop</text></g></g></g></g><g transform="translate(-28.991378028648445 28.99137802864845)"><g transform="translate(0 0)"><g transform="translate(-130.810546875 0)" fill="white"><rect x="0" y="0" width="130.810546875" height="24" rx="0" ry="0" stroke="none"/><g font-family="sans-serif" font-size="20" font-weight="normal" fill="#000000" text-anchor="end"><text xml:space="preserve" x="71.123046875" y="17.5712890625" stroke="none">arrives:</text><text xml:space="preserve" x="76.6796875" y="17.5712890625" stroke="none" text-anchor="start">11:55</text></g></g></g></g></g></g><g class="node"><g fill="#57C7E3" stroke="#F79767" stroke-width="4"><circle cx="992.9831328436446" cy="52.36100211606225" r="37"/></g><g transform="translate(992.9831328436446 52.36100211606225)"><g transform="scale(1) translate(0 -18.5)"><g transform="translate(0 0)"><g transform="translate(-22.62841796875 0)"><g fill="#57C7E3" stroke="#000000" stroke-width="3" font-family="sans-serif" font-size="22" font-weight="normal"><text xml:space="preserve" x="0" y="24.62841796875" stroke="none">Stop</text></g></g></g></g><g transform="translate(28.99137802864845 28.991378028648445)"><g transform="translate(0 0)"><g transform="translate(0 0)" fill="white"><rect x="0" y="0" width="137.509765625" height="24" rx="0" ry="0" stroke="none"/><g font-family="sans-serif" font-size="20" font-weight="normal" fill="#000000" text-anchor="end"><text xml:space="preserve" x="77.822265625" y="17.5712890625" stroke="none">departs:</text><text xml:space="preserve" x="83.37890625" y="17.5712890625" stroke="none" text-anchor="start">11:33</text></g></g></g></g></g></g><g class="node"><g fill="#57C7E3" stroke="#F79767" stroke-width="4"><circle cx="271.41350519224903" cy="52.36100211606225" r="37"/></g><g transform="translate(271.41350519224903 52.36100211606225)"><g transform="scale(1) translate(0 -18.5)"><g transform="translate(0 0)"><g transform="translate(-22.62841796875 0)"><g fill="#57C7E3" stroke="#000000" stroke-width="3" font-family="sans-serif" font-size="22" font-weight="normal"><text xml:space="preserve" x="0" y="24.62841796875" stroke="none">Stop</text></g></g></g></g><g transform="translate(-28.991378028648445 28.99137802864845)"><g transform="translate(0 0)"><g transform="translate(-137.509765625 0)" fill="white"><rect x="0" y="0" width="137.509765625" height="24" rx="0" ry="0" stroke="none"/><g font-family="sans-serif" font-size="20" font-weight="normal" fill="#000000" text-anchor="end"><text xml:space="preserve" x="77.822265625" y="17.5712890625" stroke="none">departs:</text><text xml:space="preserve" x="83.37890625" y="17.5712890625" stroke="none" text-anchor="start">11:41</text></g></g></g></g></g></g><g class="node"><g fill="#57C7E3" stroke="#C990C0" stroke-width="4"><circle cx="797.5022830591488" cy="-77.67155084536124" r="37"/></g><g transform="translate(797.5022830591488 -77.67155084536124)"><g transform="scale(1) translate(0 -18.5)"><g transform="translate(0 0)"><g transform="translate(-22.62841796875 0)"><g fill="#57C7E3" stroke="#000000" stroke-width="3" font-family="sans-serif" font-size="22" font-weight="normal"><text xml:space="preserve" x="0" y="24.62841796875" stroke="none">Stop</text></g></g></g></g><g transform="translate(-28.991378028648445 28.99137802864845)"><g transform="translate(0 0)"><g transform="translate(-137.509765625 0)" fill="white"><rect x="0" y="0" width="137.509765625" height="24" rx="0" ry="0" stroke="none"/><g font-family="sans-serif" font-size="20" font-weight="normal" fill="#000000" text-anchor="end"><text xml:space="preserve" x="77.822265625" y="17.5712890625" stroke="none">departs:</text><text xml:space="preserve" x="83.37890625" y="17.5712890625" stroke="none" text-anchor="start">11:44</text></g></g></g></g></g></g><g class="node"><g fill="#57C7E3" stroke="#C990C0" stroke-width="4"><circle cx="797.5022830591488" cy="-586.224305617558" r="37"/></g><g transform="translate(797.5022830591488 -586.224305617558)"><g transform="scale(1) translate(0 -18.5)"><g transform="translate(0 0)"><g transform="translate(-22.62841796875 0)"><g fill="#57C7E3" stroke="#000000" stroke-width="3" font-family="sans-serif" font-size="22" font-weight="normal"><text xml:space="preserve" x="0" y="24.62841796875" stroke="none">Stop</text></g></g></g></g><g transform="translate(28.99137802864845 -52.99137802864844)"><g transform="translate(0 0)"><g transform="translate(0 0)" fill="white"><rect x="0" y="0" width="137.509765625" height="24" rx="0" ry="0" stroke="none"/><g font-family="sans-serif" font-size="20" font-weight="normal" fill="#000000" text-anchor="end"><text xml:space="preserve" x="77.822265625" y="17.5712890625" stroke="none">departs:</text><text xml:space="preserve" x="83.37890625" y="17.5712890625" stroke="none" text-anchor="start">11:54</text></g></g></g></g></g></g></g></svg>