<svg xmlns="http://www.w3.org/2000/svg" width="1733" height="1097" viewBox="0 0 1733 1097"><defs><style type="text/css"/></defs><g transform="translate(1159.2069994205945 765.594831484005) scale(1)"><g class="relationship"><g transform="translate(-106.51262519942394 226.86253799539713) rotate(180)" stroke-width="3" stroke="#848484"><path d="M 59 0 L 226.36816946031908 0"/><polygon points="-18.079611541307905,0 -20.088457268119896,6.696152422706632 0,0 -20.088457268119896,-6.696152422706632" fill="#848484" transform="translate(244.447781001627 0) rotate(0)" stroke="none"/></g><g transform="translate(-249.1967099295835 226.86253799539716) rotate(360) translate(0 -33)"><g transform="translate(0 0)"><g transform="translate(-31.669921875 0)" fill="#ffffff" stroke="#000000" stroke-width="0"><rect x="0" y="0" width="63.33984375" height="30" rx="5" ry="5" stroke="none"/><text xml:space="preserve" x="5" y="20.5712890625" stroke="none" text-anchor="left" font-family="sans-serif" font-size="20" font-weight="normal" fill="#848484">NEXT</text></g></g></g></g><g class="relationship"><g transform="translate(500.38293680383015 226.86253799539685) rotate(-90)" stroke-width="3" stroke="#848484"><path d="M 59 0 L 165.2759106762627 0"/><polygon points="-18.079611541307905,0 -20.088457268119896,6.696152422706632 0,0 -20.088457268119896,-6.696152422706632" fill="#848484" transform="translate(183.3555222175706 0) rotate(0)" stroke="none"/></g><g transform="translate(500.38293680383015 114.7245826572655) rotate(90) translate(0 -33)"><g transform="translate(0 0)"><g transform="translate(-54.287109375 0)" fill="#ffffff" stroke="#000000" stroke-width="0"><rect x="0" y="0" width="108.57421875" height="30" rx="5" ry="5" stroke="none"/><text xml:space="preserve" x="5" y="20.5712890625" stroke="none" text-anchor="left" font-family="sans-serif" font-size="20" font-weight="normal" fill="#848484">CALLS_AT</text></g></g></g></g><g class="relationship"><g transform="translate(500.38293680383015 226.86253799539685) rotate(179.99999999999997)" stroke-width="3" stroke="#848484"><path d="M 59 0 L 226.36816946031914 0"/><polygon points="-18.079611541307905,0 -20.088457268119896,6.696152422706632 0,0 -20.088457268119896,-6.696152422706632" fill="#848484" transform="translate(244.44778100162705 0) rotate(0)" stroke="none"/></g><g transform="translate(357.6988520736706 226.86253799539693) rotate(360) translate(0 -33)"><g transform="translate(0 0)"><g transform="translate(-31.669921875 0)" fill="#ffffff" stroke="#000000" stroke-width="0"><rect x="0" y="0" width="63.33984375" height="30" rx="5" ry="5" stroke="none"/><text xml:space="preserve" x="5" y="20.5712890625" stroke="none" text-anchor="left" font-family="sans-serif" font-size="20" font-weight="normal" fill="#848484">NEXT</text></g></g></g></g><g class="relationship"><g transform="translate(196.9351558022031 226.86253799539702) rotate(179.99999999999997)" stroke-width="3" stroke="#848484"><path d="M 59 0 L 226.36816946031914 0"/><polygon points="-18.079611541307905,0 -20.088457268119896,6.696152422706632 0,0 -20.088457268119896,-6.696152422706632" fill="#848484" transform="translate(244.44778100162705 0) rotate(0)" stroke="none"/></g><g transform="translate(54.251071072043544 226.8625379953971) rotate(360) translate(0 -33)"><g transform="translate(0 0)"><g transform="translate(-31.669921875 0)" fill="#ffffff" stroke="#000000" stroke-width="0"><rect x="0" y="0" width="63.33984375" height="30" rx="5" ry="5" stroke="none"/><text xml:space="preserve" x="5" y="20.5712890625" stroke="none" text-anchor="left" font-family="sans-serif" font-size="20" font-weight="normal" fill="#848484">NEXT</text></g></g></g></g><g class="relationship"><g transform="translate(196.9351558022031 226.86253799539702) rotate(-90)" stroke-width="3" stroke="#848484"><path d="M 59 0 L 167.27591067626284 0"/><polygon points="-18.079611541307905,0 -20.088457268119896,6.696152422706632 0,0 -20.088457268119896,-6.696152422706632" fill="#848484" transform="translate(185.35552221757075 0) rotate(0)" stroke="none"/></g><g transform="translate(196.9351558022031 113.7245826572656) rotate(90) translate(0 -33)"><g transform="translate(0 0)"><g transform="translate(-54.287109375 0)" fill="#ffffff" stroke="#000000" stroke-width="0"><rect x="0" y="0" width="108.57421875" height="30" rx="5" ry="5" stroke="none"/><text xml:space="preserve" x="5" y="20.5712890625" stroke="none" text-anchor="left" font-family="sans-serif" font-size="20" font-weight="normal" fill="#848484">CALLS_AT</text></g></g></g></g><g class="relationship"><g transform="translate(-713.4081872026779 -17.492984222173686) rotate(126.36425752204357)" stroke-width="3" stroke="#848484"><path d="M 59 0 L 226.36816946031936 0"/><polygon points="-18.079611541307905,0 -20.088457268119896,6.696152422706632 0,0 -20.088457268119896,-6.696152422706632" fill="#848484" transform="translate(244.44778100162728 0) rotate(0)" stroke="none"/></g><g transform="translate(-798.0079580366905 97.40534827275829) rotate(306.36425752204354) translate(0 -57)"><g transform="translate(0 0)"><g transform="translate(-27.2314453125 0)" fill="#ffffff" stroke="#000000" stroke-width="0"><rect x="0" y="0" width="54.462890625" height="30" rx="5" ry="5" stroke="none"/><text xml:space="preserve" x="5" y="20.5712890625" stroke="none" text-anchor="left" font-family="sans-serif" font-size="20" font-weight="normal" fill="#848484">LINK</text></g></g><g transform="translate(0 30)"><g transform="translate(-67.822265625 0)" fill="white"><rect x="0" y="0" width="135.64453125" height="24" rx="0" ry="0" stroke="none"/><g font-family="sans-serif" font-size="20" font-weight="normal" fill="#848484" text-anchor="end"><text xml:space="preserve" x="85.60546875" y="17.5712890625" stroke="none">distance:</text><text xml:space="preserve" x="91.162109375" y="17.5712890625" stroke="none" text-anchor="start">1.45</text></g></g></g></g></g><g class="relationship"><g transform="translate(-713.4081872026779 -17.492984222173686) rotate(-53.63574247795645)" stroke-width="3" stroke="#848484"><path d="M 59 0 L 493.19432583421957 0"/><polygon points="-18.079611541307905,0 -20.088457268119896,6.696152422706632 0,0 -20.088457268119896,-6.696152422706632" fill="#848484" transform="translate(511.27393737552745 0) rotate(0)" stroke="none"/></g><g transform="translate(-549.7055797613359 -239.8240429786662) rotate(-53.63574247795645) translate(0 -57)"><g transform="translate(0 0)"><g transform="translate(-27.2314453125 0)" fill="#ffffff" stroke="#000000" stroke-width="0"><rect x="0" y="0" width="54.462890625" height="30" rx="5" ry="5" stroke="none"/><text xml:space="preserve" x="5" y="20.5712890625" stroke="none" text-anchor="left" font-family="sans-serif" font-size="20" font-weight="normal" fill="#848484">LINK</text></g></g><g transform="translate(0 30)"><g transform="translate(-67.822265625 0)" fill="white"><rect x="0" y="0" width="135.64453125" height="24" rx="0" ry="0" stroke="none"/><g font-family="sans-serif" font-size="20" font-weight="normal" fill="#848484" text-anchor="end"><text xml:space="preserve" x="85.60546875" y="17.5712890625" stroke="none">distance:</text><text xml:space="preserve" x="91.162109375" y="17.5712890625" stroke="none" text-anchor="start">1.24</text></g></g></g></g></g><g class="relationship"><g transform="translate(-106.51262519942394 226.86253799539713) rotate(-90)" stroke-width="3" stroke="#848484"><path d="M 59 0 L 167.2759106762629 0"/><polygon points="-18.079611541307905,0 -20.088457268119896,6.696152422706632 0,0 -20.088457268119896,-6.696152422706632" fill="#848484" transform="translate(185.3555222175708 0) rotate(0)" stroke="none"/></g><g transform="translate(-106.51262519942394 113.72458265726569) rotate(90) translate(0 -33)"><g transform="translate(0 0)"><g transform="translate(-54.287109375 0)" fill="#ffffff" stroke="#000000" stroke-width="0"><rect x="0" y="0" width="108.57421875" height="30" rx="5" ry="5" stroke="none"/><text xml:space="preserve" x="5" y="20.5712890625" stroke="none" text-anchor="left" font-family="sans-serif" font-size="20" font-weight="normal" fill="#848484">CALLS_AT</text></g></g></g></g><g class="relationship"><g transform="translate(-409.96040620105094 226.86253799539713) rotate(-90)" stroke-width="3" stroke="#848484"><path d="M 59 0 L 167.2759106762629 0"/><polygon points="-18.079611541307905,0 -20.088457268119896,6.696152422706632 0,0 -20.088457268119896,-6.696152422706632" fill="#848484" transform="translate(185.3555222175708 0) rotate(0)" stroke="none"/></g><g transform="translate(-409.96040620105094 113.72458265726569) rotate(90) translate(0 -33)"><g transform="translate(0 0)"><g transform="translate(-54.287109375 0)" fill="#ffffff" stroke="#000000" stroke-width="0"><rect x="0" y="0" width="108.57421875" height="30" rx="5" ry="5" stroke="none"/><text xml:space="preserve" x="5" y="20.5712890625" stroke="none" text-anchor="left" font-family="sans-serif" font-size="20" font-weight="normal" fill="#848484">CALLS_AT</text></g></g></g></g><g class="relationship"><g transform="translate(-409.96040620105094 226.86253799539713) rotate(-179.99999999999997)" stroke-width="3" stroke="#848484"><path d="M 59 0 L 226.36816946031908 0"/><polygon points="-18.079611541307905,0 -20.088457268119896,6.696152422706632 0,0 -20.088457268119896,-6.696152422706632" fill="#848484" transform="translate(244.447781001627 0) rotate(0)" stroke="none"/></g><g transform="translate(-552.6444909312105 226.86253799539705) rotate(2.5444437451708134e-14) translate(0 -33)"><g transform="translate(0 0)"><g transform="translate(-31.669921875 0)" fill="#ffffff" stroke="#000000" stroke-width="0"><rect x="0" y="0" width="63.33984375" height="30" rx="5" ry="5" stroke="none"/><text xml:space="preserve" x="5" y="20.5712890625" stroke="none" text-anchor="left" font-family="sans-serif" font-size="20" font-weight="normal" fill="#848484">NEXT</text></g></g></g></g><g class="relationship"><g transform="translate(-713.4081872026779 -17.492984222173686) rotate(0)" stroke-width="3" stroke="#848484"><path d="M 59 0 L 226.36816946031908 0"/><polygon points="-18.079611541307905,0 -20.088457268119896,6.696152422706632 0,0 -20.088457268119896,-6.696152422706632" fill="#848484" transform="translate(244.447781001627 0) rotate(0)" stroke="none"/></g><g transform="translate(-570.7241024725183 -17.492984222173686) rotate(0) translate(0 -57)"><g transform="translate(0 0)"><g transform="translate(-27.2314453125 0)" fill="#ffffff" stroke="#000000" stroke-width="0"><rect x="0" y="0" width="54.462890625" height="30" rx="5" ry="5" stroke="none"/><text xml:space="preserve" x="5" y="20.5712890625" stroke="none" text-anchor="left" font-family="sans-serif" font-size="20" font-weight="normal" fill="#848484">LINK</text></g></g><g transform="translate(0 30)"><g transform="translate(-62.2607421875 0)" fill="white"><rect x="0" y="0" width="124.521484375" height="24" rx="0" ry="0" stroke="none"/><g font-family="sans-serif" font-size="20" font-weight="normal" fill="#848484" text-anchor="end"><text xml:space="preserve" x="85.60546875" y="17.5712890625" stroke="none">distance:</text><text xml:space="preserve" x="91.162109375" y="17.5712890625" stroke="none" text-anchor="start">0.7</text></g></g></g></g></g><g class="relationship"><g transform="translate(-106.51262519942394 -17.492984222173686) rotate(180)" stroke-width="3" stroke="#848484"><path d="M 59 0 L 226.36816946031908 0"/><polygon points="-18.079611541307905,0 -20.088457268119896,6.696152422706632 0,0 -20.088457268119896,-6.696152422706632" fill="#848484" transform="translate(244.447781001627 0) rotate(0)" stroke="none"/></g><g transform="translate(-249.1967099295835 -17.492984222173668) rotate(360) translate(0 -57)"><g transform="translate(0 0)"><g transform="translate(-27.2314453125 0)" fill="#ffffff" stroke="#000000" stroke-width="0"><rect x="0" y="0" width="54.462890625" height="30" rx="5" ry="5" stroke="none"/><text xml:space="preserve" x="5" y="20.5712890625" stroke="none" text-anchor="left" font-family="sans-serif" font-size="20" font-weight="normal" fill="#848484">LINK</text></g></g><g transform="translate(0 30)"><g transform="translate(-67.822265625 0)" fill="white"><rect x="0" y="0" width="135.64453125" height="24" rx="0" ry="0" stroke="none"/><g font-family="sans-serif" font-size="20" font-weight="normal" fill="#848484" text-anchor="end"><text xml:space="preserve" x="85.60546875" y="17.5712890625" stroke="none">distance:</text><text xml:space="preserve" x="91.162109375" y="17.5712890625" stroke="none" text-anchor="start">0.39</text></g></g></g></g></g><g class="relationship"><g transform="translate(-106.51262519942394 -17.492984222173686) rotate(-6.708089904027791e-15)" stroke-width="3" stroke="#848484"><path d="M 59 0 L 226.36816946031914 0"/><polygon points="-18.079611541307905,0 -20.088457268119896,6.696152422706632 0,0 -20.088457268119896,-6.696152422706632" fill="#848484" transform="translate(244.44778100162705 0) rotate(0)" stroke="none"/></g><g transform="translate(36.17145953073562 -17.492984222173703) rotate(-6.708089904027791e-15) translate(0 -57)"><g transform="translate(0 0)"><g transform="translate(-27.2314453125 0)" fill="#ffffff" stroke="#000000" stroke-width="0"><rect x="0" y="0" width="54.462890625" height="30" rx="5" ry="5" stroke="none"/><text xml:space="preserve" x="5" y="20.5712890625" stroke="none" text-anchor="left" font-family="sans-serif" font-size="20" font-weight="normal" fill="#848484">LINK</text></g></g><g transform="translate(0 30)"><g transform="translate(-67.822265625 0)" fill="white"><rect x="0" y="0" width="135.64453125" height="24" rx="0" ry="0" stroke="none"/><g font-family="sans-serif" font-size="20" font-weight="normal" fill="#848484" text-anchor="end"><text xml:space="preserve" x="85.60546875" y="17.5712890625" stroke="none">distance:</text><text xml:space="preserve" x="91.162109375" y="17.5712890625" stroke="none" text-anchor="start">1.96</text></g></g></g></g></g><g class="relationship"><g transform="translate(196.9351558022031 -17.49298422217372) rotate(-6.708089904027791e-15)" stroke-width="3" stroke="#848484"><path d="M 59 0 L 224.36816946031914 0"/><polygon points="-18.079611541307905,0 -20.088457268119896,6.696152422706632 0,0 -20.088457268119896,-6.696152422706632" fill="#848484" transform="translate(242.44778100162705 0) rotate(0)" stroke="none"/></g><g transform="translate(338.61924053236265 -17.49298422217374) rotate(-6.708089904027791e-15) translate(0 -57)"><g transform="translate(0 0)"><g transform="translate(-27.2314453125 0)" fill="#ffffff" stroke="#000000" stroke-width="0"><rect x="0" y="0" width="54.462890625" height="30" rx="5" ry="5" stroke="none"/><text xml:space="preserve" x="5" y="20.5712890625" stroke="none" text-anchor="left" font-family="sans-serif" font-size="20" font-weight="normal" fill="#848484">LINK</text></g></g><g transform="translate(0 30)"><g transform="translate(-67.822265625 0)" fill="white"><rect x="0" y="0" width="135.64453125" height="24" rx="0" ry="0" stroke="none"/><g font-family="sans-serif" font-size="20" font-weight="normal" fill="#848484" text-anchor="end"><text xml:space="preserve" x="85.60546875" y="17.5712890625" stroke="none">distance:</text><text xml:space="preserve" x="91.162109375" y="17.5712890625" stroke="none" text-anchor="start">0.86</text></g></g></g></g></g><g class="relationship"><g transform="translate(-1105.2069994205945 34.46579589059898) rotate(42.240944669325685)" stroke-width="3" stroke="#848484"><path d="M 59 0 L 209.1186721206369 0"/><polygon points="-18.079611541307905,0 -20.088457268119896,6.696152422706632 0,0 -20.088457268119896,-6.696152422706632" fill="#848484" transform="translate(227.1982836619448 0) rotate(0)" stroke="none"/></g><g transform="translate(-1005.9596042093704 124.58715922205606) rotate(42.240944669325685) translate(0 -33)"><g transform="translate(0 0)"><g transform="translate(-54.287109375 0)" fill="#ffffff" stroke="#000000" stroke-width="0"><rect x="0" y="0" width="108.57421875" height="30" rx="5" ry="5" stroke="none"/><text xml:space="preserve" x="5" y="20.5712890625" stroke="none" text-anchor="left" font-family="sans-serif" font-size="20" font-weight="normal" fill="#848484">CALLS_AT</text></g></g></g></g><g class="relationship"><g transform="translate(-929.4983573199286 -191.44553773873258) rotate(38.83405957562957)" stroke-width="3" stroke="#848484"><path d="M 59 0 L 200.3270439236135 0"/><polygon points="-18.079611541307905,0 -20.088457268119896,6.696152422706632 0,0 -20.088457268119896,-6.696152422706632" fill="#848484" transform="translate(218.4066554649214 0) rotate(0)" stroke="none"/></g><g transform="translate(-828.4949676508161 -110.13782467970377) rotate(38.83405957562957) translate(0 -33)"><g transform="translate(0 0)"><g transform="translate(-54.287109375 0)" fill="#ffffff" stroke="#000000" stroke-width="0"><rect x="0" y="0" width="108.57421875" height="30" rx="5" ry="5" stroke="none"/><text xml:space="preserve" x="5" y="20.5712890625" stroke="none" text-anchor="left" font-family="sans-serif" font-size="20" font-weight="normal" fill="#848484">CALLS_AT</text></g></g></g></g><g class="relationship"><g transform="translate(-580.179003602094 -640.5708631494236) rotate(38.21307674532878)" stroke-width="3" stroke="#848484"><path d="M 59 0 L 183.20553700695373 0"/><polygon points="-18.079611541307905,0 -20.088457268119896,6.696152422706632 0,0 -20.088457268119896,-6.696152422706632" fill="#848484" transform="translate(201.28514854826165 0) rotate(0)" stroke="none"/></g><g transform="translate(-485.02665320470703 -565.6581756188083) rotate(38.21307674532878) translate(0 -33)"><g transform="translate(0 0)"><g transform="translate(-54.287109375 0)" fill="#ffffff" stroke="#000000" stroke-width="0"><rect x="0" y="0" width="108.57421875" height="30" rx="5" ry="5" stroke="none"/><text xml:space="preserve" x="5" y="20.5712890625" stroke="none" text-anchor="left" font-family="sans-serif" font-size="20" font-weight="normal" fill="#848484">CALLS_AT</text></g></g></g></g><g class="relationship"><g transform="translate(-1105.2069994205945 34.46579589059898) rotate(-52.125043678476224)" stroke-width="3" stroke="#848484"><path d="M 59 0 L 209.11867212063694 0"/><polygon points="-18.079611541307905,0 -20.088457268119896,6.696152422706632 0,0 -20.088457268119896,-6.696152422706632" fill="#848484" transform="translate(227.19828366194486 0) rotate(0)" stroke="none"/></g><g transform="translate(-1022.902578867539 -71.35427754709606) rotate(-52.125043678476224) translate(0 -33)"><g transform="translate(0 0)"><g transform="translate(-31.669921875 0)" fill="#ffffff" stroke="#000000" stroke-width="0"><rect x="0" y="0" width="63.33984375" height="30" rx="5" ry="5" stroke="none"/><text xml:space="preserve" x="5" y="20.5712890625" stroke="none" text-anchor="left" font-family="sans-serif" font-size="20" font-weight="normal" fill="#848484">NEXT</text></g></g></g></g><g class="relationship"><g transform="translate(-929.4983573199286 -191.44553773873258) rotate(-52.125043678476224)" stroke-width="3" stroke="#848484"><path d="M 59 0 L 491.89979828571285 0"/><polygon points="-18.079611541307905,0 -20.088457268119896,6.696152422706632 0,0 -20.088457268119896,-6.696152422706632" fill="#848484" transform="translate(509.97940982702073 0) rotate(0)" stroke="none"/></g><g transform="translate(-760.3885809582887 -408.8726070671074) rotate(-52.125043678476224) translate(0 -33)"><g transform="translate(0 0)"><g transform="translate(-31.669921875 0)" fill="#ffffff" stroke="#000000" stroke-width="0"><rect x="0" y="0" width="63.33984375" height="30" rx="5" ry="5" stroke="none"/><text xml:space="preserve" x="5" y="20.5712890625" stroke="none" text-anchor="left" font-family="sans-serif" font-size="20" font-weight="normal" fill="#848484">NEXT</text></g></g></g></g><g class="relationship"><g transform="translate(-86.95133004873475 -252.25664457211954) rotate(39.5894941450822)" stroke-width="3" stroke="#848484"><path d="M 59 0 L 291.3026804729791 0"/><polygon points="-18.079611541307905,0 -20.088457268119896,6.696152422706632 0,0 -20.088457268119896,-6.696152422706632" fill="#848484" transform="translate(309.38229201428703 0) rotate(0)" stroke="none"/></g><g transform="translate(48.025566370299885 -140.63572619333303) rotate(39.5894941450822) translate(0 -57)"><g transform="translate(0 0)"><g transform="translate(-27.2314453125 0)" fill="#ffffff" stroke="#000000" stroke-width="0"><rect x="0" y="0" width="54.462890625" height="30" rx="5" ry="5" stroke="none"/><text xml:space="preserve" x="5" y="20.5712890625" stroke="none" text-anchor="left" font-family="sans-serif" font-size="20" font-weight="normal" fill="#848484">LINK</text></g></g><g transform="translate(0 30)"><g transform="translate(-67.0849609375 0)" fill="white"><rect x="0" y="0" width="134.169921875" height="24" rx="0" ry="0" stroke="none"/><g font-family="sans-serif" font-size="20" font-weight="normal" fill="#848484" text-anchor="end"><text xml:space="preserve" x="85.60546875" y="17.5712890625" stroke="none">distance:</text><text xml:space="preserve" x="91.162109375" y="17.5712890625" stroke="none" text-anchor="start">1.11</text></g></g></g></g></g><g class="relationship"><g transform="translate(-86.95133004873475 -252.25664457211954) rotate(-141.78692325467125)" stroke-width="3" stroke="#848484"><path d="M 59 0 L 286.37839623167736 0"/><polygon points="-18.079611541307905,0 -20.088457268119896,6.696152422706632 0,0 -20.088457268119896,-6.696152422706632" fill="#848484" transform="translate(304.4580077729853 0) rotate(0)" stroke="none"/></g><g transform="translate(-222.6359497483273 -359.0800648640589) rotate(38.213076745328756) translate(0 -57)"><g transform="translate(0 0)"><g transform="translate(-27.2314453125 0)" fill="#ffffff" stroke="#000000" stroke-width="0"><rect x="0" y="0" width="54.462890625" height="30" rx="5" ry="5" stroke="none"/><text xml:space="preserve" x="5" y="20.5712890625" stroke="none" text-anchor="left" font-family="sans-serif" font-size="20" font-weight="normal" fill="#848484">LINK</text></g></g><g transform="translate(0 30)"><g transform="translate(-67.822265625 0)" fill="white"><rect x="0" y="0" width="135.64453125" height="24" rx="0" ry="0" stroke="none"/><g font-family="sans-serif" font-size="20" font-weight="normal" fill="#848484" text-anchor="end"><text xml:space="preserve" x="85.60546875" y="17.5712890625" stroke="none">distance:</text><text xml:space="preserve" x="91.162109375" y="17.5712890625" stroke="none" text-anchor="start">3.18</text></g></g></g></g></g><g class="relationship"><g transform="translate(355.2071910953141 -215.6802209090431) rotate(128.61081227831193)" stroke-width="3" stroke="#848484"><path d="M 59 0 L 176.55046936669666 0"/><polygon points="-18.079611541307905,0 -20.088457268119896,6.696152422706632 0,0 -20.088457268119896,-6.696152422706632" fill="#848484" transform="translate(194.63008090800457 0) rotate(0)" stroke="none"/></g><g transform="translate(281.71225692298094 -123.6503314397941) rotate(308.6108122783119) translate(0 -33)"><g transform="translate(0 0)"><g transform="translate(-54.287109375 0)" fill="#ffffff" stroke="#000000" stroke-width="0"><rect x="0" y="0" width="108.57421875" height="30" rx="5" ry="5" stroke="none"/><text xml:space="preserve" x="5" y="20.5712890625" stroke="none" text-anchor="left" font-family="sans-serif" font-size="20" font-weight="normal" fill="#848484">CALLS_AT</text></g></g></g></g><g class="relationship"><g transform="translate(-221.48404918592755 -685.594831484005) rotate(126.36425752204357)" stroke-width="3" stroke="#848484"><path d="M 59 0 L 178.31471965693274 0"/><polygon points="-18.079611541307905,0 -20.088457268119896,6.696152422706632 0,0 -20.088457268119896,-6.696152422706632" fill="#848484" transform="translate(196.39433119824065 0) rotate(0)" stroke="none"/></g><g transform="translate(-291.8379745605869 -590.0443514965187) rotate(306.36425752204354) translate(0 -33)"><g transform="translate(0 0)"><g transform="translate(-54.287109375 0)" fill="#ffffff" stroke="#000000" stroke-width="0"><rect x="0" y="0" width="108.57421875" height="30" rx="5" ry="5" stroke="none"/><text xml:space="preserve" x="5" y="20.5712890625" stroke="none" text-anchor="left" font-family="sans-serif" font-size="20" font-weight="normal" fill="#848484">CALLS_AT</text></g></g></g></g><g class="relationship"><g transform="translate(355.2071910953141 -215.6802209090431) rotate(-140.82526461639827)" stroke-width="3" stroke="#848484"><path d="M 59 0 L 666.8239627537313 0"/><polygon points="-18.079611541307905,0 -20.088457268119896,6.696152422706632 0,0 -20.088457268119896,-6.696152422706632" fill="#848484" transform="translate(684.9035742950392 0) rotate(0)" stroke="none"/></g><g transform="translate(73.86943727220654 -444.92719362766155) rotate(39.174735383601735) translate(0 -33)"><g transform="translate(0 0)"><g transform="translate(-31.669921875 0)" fill="#ffffff" stroke="#000000" stroke-width="0"><rect x="0" y="0" width="63.33984375" height="30" rx="5" ry="5" stroke="none"/><text xml:space="preserve" x="5" y="20.5712890625" stroke="none" text-anchor="left" font-family="sans-serif" font-size="20" font-weight="normal" fill="#848484">NEXT</text></g></g></g></g><g class="relationship"><g transform="translate(-713.4081872026779 226.86253799539702) rotate(-90)" stroke-width="3" stroke="#848484"><path d="M 59 0 L 167.27591067626278 0"/><polygon points="-18.079611541307905,0 -20.088457268119896,6.696152422706632 0,0 -20.088457268119896,-6.696152422706632" fill="#848484" transform="translate(185.3555222175707 0) rotate(0)" stroke="none"/></g><g transform="translate(-713.4081872026779 113.72458265726563) rotate(90) translate(0 -33)"><g transform="translate(0 0)"><g transform="translate(-54.287109375 0)" fill="#ffffff" stroke="#000000" stroke-width="0"><rect x="0" y="0" width="108.57421875" height="30" rx="5" ry="5" stroke="none"/><text xml:space="preserve" x="5" y="20.5712890625" stroke="none" text-anchor="left" font-family="sans-serif" font-size="20" font-weight="normal" fill="#848484">CALLS_AT</text></g></g></g></g><g class="node"><g fill="#57C7E3" stroke="#57C7E3" stroke-width="4"><circle cx="-106.51262519942394" cy="226.86253799539713" r="52"/></g><g transform="translate(-106.51262519942394 226.86253799539713)"><g transform="scale(1) translate(0 -14)"><g transform="translate(0 0)"><g transform="translate(-24.685546875 0)"><g fill="#ffffff" stroke="#000000" stroke-width="4" font-family="sans-serif" font-size="24" font-weight="normal"><text xml:space="preserve" x="0" y="20.685546875" stroke="none">Stop</text></g></g></g></g><g transform="translate(3.429011037612589e-15 56)"><g transform="translate(0 0)"><g transform="translate(-69.4921875 0)" fill="white"><rect x="0" y="0" width="138.984375" height="48" rx="0" ry="0" stroke="none"/><g font-family="sans-serif" font-size="20" font-weight="normal" fill="#000000" text-anchor="end"><text xml:space="preserve" x="77.822265625" y="17.5712890625" stroke="none">departs:</text><text xml:space="preserve" x="83.37890625" y="17.5712890625" stroke="none" text-anchor="start">22:41</text><text xml:space="preserve" x="77.822265625" y="41.5712890625" stroke="none" text-anchor="end">arrives:</text><text xml:space="preserve" x="83.37890625" y="41.5712890625" stroke="none" text-anchor="start">22:41</text></g></g></g></g></g></g><g class="node"><g fill="#FFE081" stroke="#FFE081" stroke-width="4"><circle cx="196.9351558022031" cy="-17.49298422217372" r="52"/></g><g transform="translate(196.9351558022031 -17.49298422217372)"><g transform="scale(1) translate(0 -14)"><g transform="translate(0 0)"><g transform="translate(-37.359375 0)"><g fill="#4d4d4d" stroke="#000000" stroke-width="4" font-family="sans-serif" font-size="24" font-weight="normal"><text xml:space="preserve" x="0" y="20.685546875" stroke="none">Station</text></g></g></g></g><g transform="translate(39.59797974644666 39.597979746446654)"><g transform="translate(0 0)"><g fill="#000000" font-family="sans-serif" font-size="20" font-weight="normal" text-anchor="start"><text xml:space="preserve" x="0" y="17.5712890625" stroke="none">DENMARK HILL</text></g></g></g></g></g><g class="node"><g fill="#57C7E3" stroke="#57C7E3" stroke-width="4"><circle cx="-409.96040620105094" cy="226.86253799539713" r="52"/></g><g transform="translate(-409.96040620105094 226.86253799539713)"><g transform="scale(1) translate(0 -14)"><g transform="translate(0 0)"><g transform="translate(-24.685546875 0)"><g fill="#ffffff" stroke="#000000" stroke-width="4" font-family="sans-serif" font-size="24" font-weight="normal"><text xml:space="preserve" x="0" y="20.685546875" stroke="none">Stop</text></g></g></g></g><g transform="translate(3.429011037612589e-15 56)"><g transform="translate(0 0)"><g transform="translate(-69.4921875 0)" fill="white"><rect x="0" y="0" width="138.984375" height="48" rx="0" ry="0" stroke="none"/><g font-family="sans-serif" font-size="20" font-weight="normal" fill="#000000" text-anchor="end"><text xml:space="preserve" x="77.822265625" y="17.5712890625" stroke="none">departs:</text><text xml:space="preserve" x="83.37890625" y="17.5712890625" stroke="none" text-anchor="start">22:43</text><text xml:space="preserve" x="77.822265625" y="41.5712890625" stroke="none" text-anchor="end">arrives:</text><text xml:space="preserve" x="83.37890625" y="41.5712890625" stroke="none" text-anchor="start">22:43</text></g></g></g></g></g></g><g class="node"><g fill="#57C7E3" stroke="#57C7E3" stroke-width="4"><circle cx="-713.4081872026779" cy="226.86253799539702" r="52"/></g><g transform="translate(-713.4081872026779 226.86253799539702)"><g transform="scale(1) translate(0 -14)"><g transform="translate(0 0)"><g transform="translate(-24.685546875 0)"><g fill="#ffffff" stroke="#000000" stroke-width="4" font-family="sans-serif" font-size="24" font-weight="normal"><text xml:space="preserve" x="0" y="20.685546875" stroke="none">Stop</text></g></g></g></g><g transform="translate(3.429011037612589e-15 56)"><g transform="translate(0 0)"><g transform="translate(-66.142578125 0)" fill="white"><rect x="0" y="0" width="132.28515625" height="24" rx="0" ry="0" stroke="none"/><g font-family="sans-serif" font-size="20" font-weight="normal" fill="#000000" text-anchor="end"><text xml:space="preserve" x="71.123046875" y="17.5712890625" stroke="none">arrives:</text><text xml:space="preserve" x="76.6796875" y="17.5712890625" stroke="none" text-anchor="start">22:48</text></g></g></g></g></g></g><g class="node"><g fill="#FFE081" stroke="#FDDF8D" stroke-width="4"><circle cx="-713.4081872026779" cy="-17.492984222173686" r="52"/></g><g transform="translate(-713.4081872026779 -17.492984222173686)"><g transform="scale(1) translate(0 -14)"><g transform="translate(0 0)"><g transform="translate(-37.359375 0)"><g fill="#4d4d4d" stroke="#000000" stroke-width="4" font-family="sans-serif" font-size="24" font-weight="normal"><text xml:space="preserve" x="0" y="20.685546875" stroke="none">Station</text></g></g></g></g><g transform="translate(39.59797974644666 39.597979746446654)"><g transform="translate(0 0)"><g fill="#000000" font-family="sans-serif" font-size="20" font-weight="normal" text-anchor="start"><text xml:space="preserve" x="0" y="17.5712890625" stroke="none">BATTERSEA PARK</text></g></g></g></g></g><g class="node"><g fill="#FFE081" stroke="#FDDF8D" stroke-width="4"><circle cx="-409.96040620105094" cy="-17.492984222173686" r="52"/></g><g transform="translate(-409.96040620105094 -17.492984222173686)"><g transform="scale(1) translate(0 -14)"><g transform="translate(0 0)"><g transform="translate(-37.359375 0)"><g fill="#4d4d4d" stroke="#000000" stroke-width="4" font-family="sans-serif" font-size="24" font-weight="normal"><text xml:space="preserve" x="0" y="20.685546875" stroke="none">Station</text></g></g></g></g><g transform="translate(3.429011037612589e-15 -104)"><g transform="translate(0 0)"><g fill="#000000" font-family="sans-serif" font-size="20" font-weight="normal" text-anchor="middle"><text xml:space="preserve" x="0" y="17.5712890625" stroke="none">WANDSWORTH</text><text xml:space="preserve" x="0" y="41.5712890625" stroke="none" text-anchor="middle">ROAD</text></g></g></g></g></g><g class="node"><g fill="#FFE081" stroke="#5BBEF3" stroke-width="6"><circle cx="500.38293680383015" cy="-17.492984222173757" r="53"/></g><g transform="translate(500.38293680383015 -17.492984222173757)"><g transform="scale(1) translate(0 -14)"><g transform="translate(0 0)"><g transform="translate(-37.359375 0)"><g fill="#4d4d4d" stroke="#000000" stroke-width="4" font-family="sans-serif" font-size="24" font-weight="normal"><text xml:space="preserve" x="0" y="20.685546875" stroke="none">Station</text></g></g></g></g><g transform="translate(3.5514757175273244e-15 -82)"><g transform="translate(0 0)"><g fill="#000000" font-family="sans-serif" font-size="20" font-weight="normal" text-anchor="middle"><text xml:space="preserve" x="0" y="17.5712890625" stroke="none">PECKHAM RYE</text></g></g></g></g></g><g class="node"><g fill="#FFE081" stroke="#FFE081" stroke-width="4"><circle cx="-893.3274317447498" cy="226.86253799539702" r="52"/></g><g transform="translate(-893.3274317447498 226.86253799539702)"><g transform="scale(1) translate(0 -14)"><g transform="translate(0 0)"><g transform="translate(-37.359375 0)"><g fill="#4d4d4d" stroke="#000000" stroke-width="4" font-family="sans-serif" font-size="24" font-weight="normal"><text xml:space="preserve" x="0" y="20.685546875" stroke="none">Station</text></g></g></g></g><g transform="translate(3.429011037612589e-15 56)"><g transform="translate(0 0)"><g fill="#000000" font-family="sans-serif" font-size="20" font-weight="normal" text-anchor="middle"><text xml:space="preserve" x="0" y="17.5712890625" stroke="none">CLAPHAM</text><text xml:space="preserve" x="0" y="41.5712890625" stroke="none" text-anchor="middle">JUNCTION</text></g></g></g></g></g><g class="node"><g fill="#57C7E3" stroke="#57C7E3" stroke-width="4"><circle cx="500.38293680383015" cy="226.86253799539685" r="52"/></g><g transform="translate(500.38293680383015 226.86253799539685)"><g transform="scale(1) translate(0 -14)"><g transform="translate(0 0)"><g transform="translate(-24.685546875 0)"><g fill="#ffffff" stroke="#000000" stroke-width="4" font-family="sans-serif" font-size="24" font-weight="normal"><text xml:space="preserve" x="0" y="20.685546875" stroke="none">Stop</text></g></g></g></g><g transform="translate(3.429011037612589e-15 56)"><g transform="translate(0 0)"><g transform="translate(-69.4921875 0)" fill="white"><rect x="0" y="0" width="138.984375" height="24" rx="0" ry="0" stroke="none"/><g font-family="sans-serif" font-size="20" font-weight="normal" fill="#000000" text-anchor="end"><text xml:space="preserve" x="77.822265625" y="17.5712890625" stroke="none">departs:</text><text xml:space="preserve" x="83.37890625" y="17.5712890625" stroke="none" text-anchor="start">22:33</text></g></g></g></g></g></g><g class="node"><g fill="#57C7E3" stroke="#57C7E3" stroke-width="4"><circle cx="196.9351558022031" cy="226.86253799539702" r="52"/></g><g transform="translate(196.9351558022031 226.86253799539702)"><g transform="scale(1) translate(0 -14)"><g transform="translate(0 0)"><g transform="translate(-24.685546875 0)"><g fill="#ffffff" stroke="#000000" stroke-width="4" font-family="sans-serif" font-size="24" font-weight="normal"><text xml:space="preserve" x="0" y="20.685546875" stroke="none">Stop</text></g></g></g></g><g transform="translate(3.429011037612589e-15 56)"><g transform="translate(0 0)"><g transform="translate(-69.4921875 0)" fill="white"><rect x="0" y="0" width="138.984375" height="48" rx="0" ry="0" stroke="none"/><g font-family="sans-serif" font-size="20" font-weight="normal" fill="#000000" text-anchor="end"><text xml:space="preserve" x="77.822265625" y="17.5712890625" stroke="none">departs:</text><text xml:space="preserve" x="83.37890625" y="17.5712890625" stroke="none" text-anchor="start">22:37</text><text xml:space="preserve" x="77.822265625" y="41.5712890625" stroke="none" text-anchor="end">arrives:</text><text xml:space="preserve" x="83.37890625" y="41.5712890625" stroke="none" text-anchor="start">22:36</text></g></g></g></g></g></g><g class="node"><g fill="#57C7E3" stroke="#57C7E3" stroke-width="4"><circle cx="-580.179003602094" cy="-640.5708631494236" r="52"/></g><g transform="translate(-580.179003602094 -640.5708631494236)"><g transform="scale(1) translate(0 -14)"><g transform="translate(0 0)"><g transform="translate(-24.685546875 0)"><g fill="#ffffff" stroke="#6BC5E0" stroke-width="4" font-family="sans-serif" font-size="24" font-weight="normal"><text xml:space="preserve" x="0" y="20.685546875" stroke="none">Stop</text></g></g></g></g><g transform="translate(-39.597979746446654 -63.59797974644666)"><g transform="translate(0 0)"><g transform="translate(-132.28515625 0)" fill="white"><rect x="0" y="0" width="132.28515625" height="24" rx="0" ry="0" stroke="none"/><g font-family="sans-serif" font-size="20" font-weight="normal" fill="#000000" text-anchor="end"><text xml:space="preserve" x="71.123046875" y="17.5712890625" stroke="none">arrives:</text><text xml:space="preserve" x="76.6796875" y="17.5712890625" stroke="none" text-anchor="start">22:55</text></g></g></g></g></g></g><g class="node"><g fill="#FFE081" stroke="#5BBEF3" stroke-width="6"><circle cx="-374.09743612762" cy="-478.3244866220956" r="53"/></g><g transform="translate(-374.09743612762 -478.3244866220956)"><g transform="scale(1) translate(0 -14)"><g transform="translate(0 0)"><g transform="translate(-37.359375 0)"><g fill="#4d4d4d" stroke="#000000" stroke-width="4" font-family="sans-serif" font-size="24" font-weight="normal"><text xml:space="preserve" x="0" y="20.685546875" stroke="none">Station</text></g></g></g></g><g transform="translate(58 -12)"><g transform="translate(0 0)"><g fill="#000000" font-family="sans-serif" font-size="20" font-weight="normal" text-anchor="start"><text xml:space="preserve" x="0" y="17.5712890625" stroke="none">LONDON VICTORIA</text></g></g></g></g></g><g class="node"><g fill="#FFE081" stroke="#FDDF8D" stroke-width="4"><circle cx="-106.51262519942394" cy="-17.492984222173686" r="52"/></g><g transform="translate(-106.51262519942394 -17.492984222173686)"><g transform="scale(1) translate(0 -14)"><g transform="translate(0 0)"><g transform="translate(-37.359375 0)"><g fill="#4d4d4d" stroke="#000000" stroke-width="4" font-family="sans-serif" font-size="24" font-weight="normal"><text xml:space="preserve" x="0" y="20.685546875" stroke="none">Station</text></g></g></g></g><g transform="translate(3.429011037612589e-15 -104)"><g transform="translate(0 0)"><g fill="#000000" font-family="sans-serif" font-size="20" font-weight="normal" text-anchor="middle"><text xml:space="preserve" x="0" y="17.5712890625" stroke="none">CLAPHAM</text><text xml:space="preserve" x="0" y="41.5712890625" stroke="none" text-anchor="middle">HIGH STREET</text></g></g></g></g></g><g class="node"><g fill="#FFE081" stroke="#FDDF8D" stroke-width="4"><circle cx="-86.95133004873475" cy="-252.25664457211954" r="52"/></g><g transform="translate(-86.95133004873475 -252.25664457211954)"><g transform="scale(1) translate(0 -14)"><g transform="translate(0 0)"><g transform="translate(-37.359375 0)"><g fill="#4d4d4d" stroke="#000000" stroke-width="4" font-family="sans-serif" font-size="24" font-weight="normal"><text xml:space="preserve" x="0" y="20.685546875" stroke="none">Station</text></g></g></g></g><g transform="translate(39.59797974644666 -63.597979746446654)"><g transform="translate(0 0)"><g fill="#000000" font-family="sans-serif" font-size="20" font-weight="normal" text-anchor="start"><text xml:space="preserve" x="0" y="17.5712890625" stroke="none">BRIXTON</text></g></g></g></g></g><g class="node"><g fill="#57C7E3" stroke="#57C7E3" stroke-width="4"><circle cx="-929.4983573199286" cy="-191.44553773873258" r="52"/></g><g transform="translate(-929.4983573199286 -191.44553773873258)"><g transform="scale(1) translate(0 -14)"><g transform="translate(0 0)"><g transform="translate(-24.685546875 0)"><g fill="#ffffff" stroke="#6BC5E0" stroke-width="4" font-family="sans-serif" font-size="24" font-weight="normal"><text xml:space="preserve" x="0" y="20.685546875" stroke="none">Stop</text></g></g></g></g><g transform="translate(-39.597979746446654 -87.59797974644667)"><g transform="translate(0 0)"><g transform="translate(-138.984375 0)" fill="white"><rect x="0" y="0" width="138.984375" height="48" rx="0" ry="0" stroke="none"/><g font-family="sans-serif" font-size="20" font-weight="normal" fill="#000000" text-anchor="end"><text xml:space="preserve" x="77.822265625" y="17.5712890625" stroke="none">arrives:</text><text xml:space="preserve" x="83.37890625" y="17.5712890625" stroke="none" text-anchor="start">22:50</text><text xml:space="preserve" x="77.822265625" y="41.5712890625" stroke="none" text-anchor="end">departs:</text><text xml:space="preserve" x="83.37890625" y="41.5712890625" stroke="none" text-anchor="start">22:50</text></g></g></g></g></g></g><g class="node"><g fill="#57C7E3" stroke="#57C7E3" stroke-width="4"><circle cx="-1105.2069994205945" cy="34.46579589059898" r="52"/></g><g transform="translate(-1105.2069994205945 34.46579589059898)"><g transform="scale(1) translate(0 -14)"><g transform="translate(0 0)"><g transform="translate(-24.685546875 0)"><g fill="#ffffff" stroke="#6BC5E0" stroke-width="4" font-family="sans-serif" font-size="24" font-weight="normal"><text xml:space="preserve" x="0" y="20.685546875" stroke="none">Stop</text></g></g></g></g><g transform="translate(56 -12)"><g transform="translate(0 0)"><g transform="translate(0 0)" fill="white"><rect x="0" y="0" width="138.984375" height="24" rx="0" ry="0" stroke="none"/><g font-family="sans-serif" font-size="20" font-weight="normal" fill="#000000" text-anchor="end"><text xml:space="preserve" x="77.822265625" y="17.5712890625" stroke="none">departs:</text><text xml:space="preserve" x="83.37890625" y="17.5712890625" stroke="none" text-anchor="start">22:46</text></g></g></g></g></g></g><g class="node"><g fill="#57C7E3" stroke="#57C7E3" stroke-width="4"><circle cx="-221.48404918592755" cy="-685.594831484005" r="52"/></g><g transform="translate(-221.48404918592755 -685.594831484005)"><g transform="scale(1) translate(0 -14)"><g transform="translate(0 0)"><g transform="translate(-24.685546875 0)"><g fill="#ffffff" stroke="#000000" stroke-width="4" font-family="sans-serif" font-size="24" font-weight="normal"><text xml:space="preserve" x="0" y="20.685546875" stroke="none">Stop</text></g></g></g></g><g transform="translate(3.429011037612589e-15 -80)"><g transform="translate(0 0)"><g transform="translate(-66.142578125 0)" fill="white"><rect x="0" y="0" width="132.28515625" height="24" rx="0" ry="0" stroke="none"/><g font-family="sans-serif" font-size="20" font-weight="normal" fill="#000000" text-anchor="end"><text xml:space="preserve" x="71.123046875" y="17.5712890625" stroke="none">arrives:</text><text xml:space="preserve" x="76.6796875" y="17.5712890625" stroke="none" text-anchor="start">22:55</text></g></g></g></g></g></g><g class="node"><g fill="#57C7E3" stroke="#57C7E3" stroke-width="4"><circle cx="355.2071910953141" cy="-215.6802209090431" r="52"/></g><g transform="translate(355.2071910953141 -215.6802209090431)"><g transform="scale(1) translate(0 -14)"><g transform="translate(0 0)"><g transform="translate(-24.685546875 0)"><g fill="#ffffff" stroke="#000000" stroke-width="4" font-family="sans-serif" font-size="24" font-weight="normal"><text xml:space="preserve" x="0" y="20.685546875" stroke="none">Stop</text></g></g></g></g><g transform="translate(56 -12)"><g transform="translate(0 0)"><g transform="translate(0 0)" fill="white"><rect x="0" y="0" width="138.984375" height="24" rx="0" ry="0" stroke="none"/><g font-family="sans-serif" font-size="20" font-weight="normal" fill="#000000" text-anchor="end"><text xml:space="preserve" x="77.822265625" y="17.5712890625" stroke="none">departs:</text><text xml:space="preserve" x="83.37890625" y="17.5712890625" stroke="none" text-anchor="start">22:44</text></g></g></g></g></g></g></g></svg>