<svg xmlns="http://www.w3.org/2000/svg" width="1009" height="355" viewBox="0 0 1009 355"><defs><style type="text/css"/></defs><g transform="translate(511.6379696613551 51.63849916156741) scale(1)"><g class="relationship"><g transform="translate(333.967668414506 232.9306888569579) rotate(-71.85634550706581)" stroke-width="3" stroke="#848484"><path d="M 49 0 L 154.61179345511528 0"/><polygon points="-18.079611541307905,0 -20.088457268119896,6.696152422706632 0,0 -20.088457268119896,-6.696152422706632" fill="#848484" transform="translate(172.6914049964232 0) rotate(0)" stroke="none"/></g><g transform="translate(365.67008077407326 136.18670889393337) rotate(-71.85634550706581) translate(0 -33)"><g transform="translate(0 0)"><g transform="translate(-13.8916015625 0)" fill="#ffffff" stroke="#000000" stroke-width="0"><rect x="0" y="0" width="27.783203125" height="30" rx="5" ry="5" stroke="none"/><text xml:space="preserve" x="5" y="20.5712890625" stroke="none" text-anchor="left" font-family="sans-serif" font-size="20" font-weight="normal" fill="#848484">r6</text></g></g></g></g><g class="relationship"><g transform="translate(333.967668414506 232.9306888569579) rotate(180)" stroke-width="3" stroke="#848484"><path d="M 49 0 L 635.9269347297522 0"/><polygon points="-18.079611541307905,0 -20.088457268119896,6.696152422706632 0,0 -20.088457268119896,-6.696152422706632" fill="#848484" transform="translate(654.0065462710602 0) rotate(0)" stroke="none"/></g><g transform="translate(-8.495798950370101 232.93068885695791) rotate(360) translate(0 3)"><g transform="translate(0 0)"><g transform="translate(-13.8916015625 0)" fill="#ffffff" stroke="#000000" stroke-width="0"><rect x="0" y="0" width="27.783203125" height="30" rx="5" ry="5" stroke="none"/><text xml:space="preserve" x="5" y="20.5712890625" stroke="none" text-anchor="left" font-family="sans-serif" font-size="20" font-weight="normal" fill="#848484">r8</text></g></g><g transform="translate(0 30)"><g transform="translate(-62.2607421875 0)" fill="white"><rect x="0" y="0" width="124.521484375" height="24" rx="0" ry="0" stroke="none"/><g font-family="sans-serif" font-size="20" font-weight="normal" fill="#000000" text-anchor="end"><text xml:space="preserve" x="85.60546875" y="17.5712890625" stroke="none">distance:</text><text xml:space="preserve" x="91.162109375" y="17.5712890625" stroke="none" text-anchor="start">1.4</text></g></g></g></g></g><g class="relationship"><g transform="translate(-369.03887785655417 232.9306888569579) rotate(-97.45605630938931)" stroke-width="3" stroke="#848484"><path d="M 49 0 L 134.57363390877916 0"/><polygon points="-18.079611541307905,0 -20.088457268119896,6.696152422706632 0,0 -20.088457268119896,-6.696152422706632" fill="#848484" transform="translate(152.65324545008707 0) rotate(0)" stroke="none"/></g><g transform="translate(-380.9496633002889 141.9199589580502) rotate(82.5439436906107) translate(0 -33)"><g transform="translate(0 0)"><g transform="translate(-13.8916015625 0)" fill="#ffffff" stroke="#000000" stroke-width="0"><rect x="0" y="0" width="27.783203125" height="30" rx="5" ry="5" stroke="none"/><text xml:space="preserve" x="5" y="20.5712890625" stroke="none" text-anchor="left" font-family="sans-serif" font-size="20" font-weight="normal" fill="#848484">r7</text></g></g></g></g><g class="node"><g fill="#FFE081" stroke="#5BBEF3" stroke-width="6"><circle cx="403.6252952361159" cy="20.36150083843259" r="43"/></g><g transform="translate(403.6252952361159 20.36150083843259)"><g transform="scale(1) translate(0 0)"><g transform="translate(0 0)"><g font-family="sans-serif" font-size="20" font-weight="normal" fill="#000000" text-anchor="middle"><text xml:space="preserve" x="0" y="5.5712890625" stroke="none">n1</text></g></g></g><g transform="translate(2.9391523179536475e-15 -72)"><g transform="translate(0 0)"><g transform="translate(-93.359375 0)" fill="white"><rect x="0" y="0" width="186.71875" height="24" rx="0" ry="0" stroke="none"/><g font-family="sans-serif" font-size="20" font-weight="normal" fill="#000000" text-anchor="end"><text xml:space="preserve" x="61.142578125" y="17.5712890625" stroke="none">name:</text><text xml:space="preserve" x="66.69921875" y="17.5712890625" stroke="none" text-anchor="start">Denmark Hill</text></g></g></g></g></g></g><g class="node"><g fill="#FFE081" stroke="#5BBEF3" stroke-width="6"><circle cx="-395.4660946613551" cy="30.999397090908275" r="43"/></g><g transform="translate(-395.4660946613551 30.999397090908275)"><g transform="scale(1) translate(0 0)"><g transform="translate(0 0)"><g font-family="sans-serif" font-size="20" font-weight="normal" fill="#000000" text-anchor="middle"><text xml:space="preserve" x="0" y="5.5712890625" stroke="none">n6</text></g></g></g><g transform="translate(2.9391523179536475e-15 -72)"><g transform="translate(0 0)"><g transform="translate(-116.171875 0)" fill="white"><rect x="0" y="0" width="232.34375" height="24" rx="0" ry="0" stroke="none"/><g font-family="sans-serif" font-size="20" font-weight="normal" fill="#000000" text-anchor="end"><text xml:space="preserve" x="61.142578125" y="17.5712890625" stroke="none">name:</text><text xml:space="preserve" x="66.69921875" y="17.5712890625" stroke="none" text-anchor="start">Clapham Junction</text></g></g></g></g></g></g><g class="node"><g fill="#57C7E3" stroke="#57C7E3" stroke-width="4"><circle cx="333.967668414506" cy="232.9306888569579" r="42"/></g><g transform="translate(333.967668414506 232.9306888569579)"><g transform="scale(1) translate(0 0)"><g transform="translate(0 0)"><g font-family="sans-serif" font-size="20" font-weight="normal" fill="#000000" text-anchor="middle"><text xml:space="preserve" x="0" y="5.5712890625" stroke="none">n7</text></g></g></g><g transform="translate(2.8166876380389124e-15 46)"><g transform="translate(0 0)"><g transform="translate(-69.4921875 0)" fill="white"><rect x="0" y="0" width="138.984375" height="24" rx="0" ry="0" stroke="none"/><g font-family="sans-serif" font-size="20" font-weight="normal" fill="#000000" text-anchor="end"><text xml:space="preserve" x="77.822265625" y="17.5712890625" stroke="none">departs:</text><text xml:space="preserve" x="83.37890625" y="17.5712890625" stroke="none" text-anchor="start">17:10</text></g></g></g></g></g></g><g class="node"><g fill="#57C7E3" stroke="#57C7E3" stroke-width="4"><circle cx="-369.03887785655417" cy="232.9306888569579" r="42"/></g><g transform="translate(-369.03887785655417 232.9306888569579)"><g transform="scale(1) translate(0 0)"><g transform="translate(0 0)"><g font-family="sans-serif" font-size="20" font-weight="normal" fill="#000000" text-anchor="middle"><text xml:space="preserve" x="0" y="5.5712890625" stroke="none">n8</text></g></g></g><g transform="translate(2.8166876380389124e-15 46)"><g transform="translate(0 0)"><g transform="translate(-69.4921875 0)" fill="white"><rect x="0" y="0" width="138.984375" height="24" rx="0" ry="0" stroke="none"/><g font-family="sans-serif" font-size="20" font-weight="normal" fill="#000000" text-anchor="end"><text xml:space="preserve" x="77.822265625" y="17.5712890625" stroke="none">departs:</text><text xml:space="preserve" x="83.37890625" y="17.5712890625" stroke="none" text-anchor="start">17:17</text></g></g></g></g></g></g></g></svg>