<svg xmlns="http://www.w3.org/2000/svg" width="769" height="1628" viewBox="0 0 769 1628">
    <defs>
        <style type="text/css" />
    </defs>
    <g transform="translate(-828.634198221964 1277.503357367617) scale(1)">


        <g class="relationship">
            <g transform="translate(1562.8491934944657 -1081.9162233345912) rotate(180)" stroke-width="6"
                stroke="#f79767" fill="none">
                <path d="M 39 0 L 158.10417570832 0" />
                <polygon
                    points="-27.94086691654374,0 -31.0454076850486,10.348469228349533 0,0 -31.0454076850486,-10.348469228349533"
                    fill="#F79767" transform="translate(186.04504262486375 0) rotate(0)" stroke="none" />
            </g>
        </g>
        <g class="relationship">
            <g transform="translate(1562.8491934944657 -1241.503357367617) rotate(180)" stroke-width="6"
                stroke="#F16667" fill="none">
                <path d="M 39 0 L 156.10417570831999 0" />
                <polygon
                    points="-27.94086691654374,0 -31.0454076850486,10.348469228349533 0,0 -31.0454076850486,-10.348469228349533"
                    fill="#F16667" transform="translate(184.04504262486375 0) rotate(0)" stroke="none" />
            </g>
        </g>
        <g class="relationship">
            <g transform="translate(1562.8491934944657 -1241.503357367617) rotate(90)" stroke-width="6"
                stroke="#F16667" fill="none">
                <path d="M 39 0 L 92.64626711648194 0" />
                <polygon
                    points="-27.94086691654374,0 -31.0454076850486,10.348469228349533 0,0 -31.0454076850486,-10.348469228349533"
                    fill="#F16667" transform="translate(120.58713403302568 0) rotate(0)" stroke="none" />
            </g>
        </g>
        <g class="relationship">
            <g transform="translate(1562.8491934944657 -1081.9162233345912) rotate(90)" stroke-width="6"
                stroke="#F16667" fill="none">
                <path d="M 39 0 L 92.64626711648205 0" />
                <polygon
                    points="-27.94086691654374,0 -31.0454076850486,10.348469228349533 0,0 -31.0454076850486,-10.348469228349533"
                    fill="#F16667" transform="translate(120.58713403302579 0) rotate(0)" stroke="none" />
            </g>
        </g>
        <g class="relationship">
            <g transform="translate(1562.8491934944657 -603.1548212355139) rotate(90)" stroke-width="6"
                stroke="#F16667" fill="none">
                <path d="M 39 0 L 92.64626711648205 0" />
                <polygon
                    points="-27.94086691654374,0 -31.0454076850486,10.348469228349533 0,0 -31.0454076850486,-10.348469228349533"
                    fill="#F16667" transform="translate(120.58713403302579 0) rotate(0)" stroke="none" />
            </g>
        </g>
        <g class="relationship">
            <g transform="translate(1562.8491934944657 -443.56768720248806) rotate(90)" stroke-width="6"
                stroke="#F16667" fill="none">
                <path d="M 39 0 L 92.64626711648205 0" />
                <polygon
                    points="-27.94086691654374,0 -31.0454076850486,10.348469228349533 0,0 -31.0454076850486,-10.348469228349533"
                    fill="#F16667" transform="translate(120.58713403302579 0) rotate(0)" stroke="none" />
            </g>
        </g>
        <g class="relationship">
            <g transform="translate(1562.8491934944657 -283.98055316946227) rotate(90)" stroke-width="6"
                stroke="#F16667">
                <path d="M 39 0 L 92.64626711648208 0" />
                <polygon
                    points="-27.94086691654374,0 -31.0454076850486,10.348469228349533 0,0 -31.0454076850486,-10.348469228349533"
                    fill="#F16667" transform="translate(120.58713403302582 0) rotate(0)" stroke="none" />
            </g>
        </g>
        <g class="relationship">
            <g transform="translate(1562.8491934944657 -124.39341913643645) rotate(90)" stroke-width="6"
                stroke="#F16667" fill="none">
                <path d="M 39 0 L 92.64626711648208 0" />
                <polygon
                    points="-27.94086691654374,0 -31.0454076850486,10.348469228349533 0,0 -31.0454076850486,-10.348469228349533"
                    fill="#F16667" transform="translate(120.58713403302582 0) rotate(0)" stroke="none" />
            </g>
        </g>
        <g class="relationship">
            <g transform="translate(1562.8491934944657 -922.3290893015654) rotate(180)" stroke-width="3"
                stroke="#cccccc" fill="none">
                <path d="M 39 0 L 167.96543108355584 0" />
                <polygon
                    points="-18.079611541307905,0 -20.088457268119896,6.696152422706632 0,0 -20.088457268119896,-6.696152422706632"
                    fill="#cccccc" transform="translate(186.04504262486375 0) rotate(0)" stroke="none" />
            </g>
        </g>
        <g class="relationship">
            <g transform="translate(1562.8491934944657 -603.1548212355139) rotate(180)" stroke-width="3"
                stroke="#cccccc" fill="none">
                <path d="M 39 0 L 167.96543108355584 0" />
                <polygon
                    points="-18.079611541307905,0 -20.088457268119896,6.696152422706632 0,0 -20.088457268119896,-6.696152422706632"
                    fill="#cccccc" transform="translate(186.04504262486375 0) rotate(0)" stroke="none" />
            </g>
        </g>
        <g class="relationship">
            <g transform="translate(1562.8491934944657 -443.56768720248806) rotate(180)" stroke-width="3"
                stroke="#cccccc" fill="none">
                <path d="M 39 0 L 167.96543108355584 0" />
                <polygon
                    points="-18.079611541307905,0 -20.088457268119896,6.696152422706632 0,0 -20.088457268119896,-6.696152422706632"
                    fill="#cccccc" transform="translate(186.04504262486375 0) rotate(0)" stroke="none" />
            </g>
        </g>
        <g class="relationship">
            <g transform="translate(1562.8491934944657 -283.98055316946227) rotate(180)" stroke-width="3"
                stroke="#cccccc" fill="none">
                <path d="M 39 0 L 167.96543108355584 0" />
                <polygon
                    points="-18.079611541307905,0 -20.088457268119896,6.696152422706632 0,0 -20.088457268119896,-6.696152422706632"
                    fill="#cccccc" transform="translate(186.04504262486375 0) rotate(0)" stroke="none" />
            </g>
        </g>
        <g class="relationship">
            <g transform="translate(1562.8491934944657 -124.39341913643645) rotate(180)" stroke-width="3"
                stroke="#cccccc" fill="none">
                <path d="M 39 0 L 167.96543108355584 0" />
                <polygon
                    points="-18.079611541307905,0 -20.088457268119896,6.696152422706632 0,0 -20.088457268119896,-6.696152422706632"
                    fill="#cccccc" transform="translate(186.04504262486375 0) rotate(0)" stroke="none" />
            </g>
        </g>
        <g class="relationship">
            <g stroke-width="6" stroke="#f16667" fill="none">
                <path d="M 39 0 L 158.10417570832 0" />
                <path
                    d="M 1403.85 35 L 1525 35" />
                <polygon
                    points="-27.94086691654374,0 -31.0454076850486,10.348469228349533 0,0 -31.0454076850486,-10.348469228349533"
                    fill="#f16667"
                    transform="translate(1406.7450177861456 35.19371489658937) rotate(180) translate(27.94086691654374 0)"
                    stroke="none" />
            </g>
        </g>
        <g class="relationship">
            <g transform="translate(1562.8491934944657 -922.3290893015654) rotate(90)" stroke-width="6"
                stroke="#F16667" fill="none">
                <path d="M 39 0 L 92.64626711648205 0" />
                <polygon
                    points="-27.94086691654374,0 -31.0454076850486,10.348469228349533 0,0 -31.0454076850486,-10.348469228349533"
                    fill="#F16667" transform="translate(120.58713403302579 0) rotate(0)" stroke="none" />
            </g>
        </g>
        <g class="relationship">
            <g transform="translate(1562.8491934944657 -762.7419552685396) rotate(90)" stroke-width="6"
                stroke="#F16667" fill="none">
                <path d="M 39 0 L 92.64626711648205 0" />
                <polygon
                    points="-27.94086691654374,0 -31.0454076850486,10.348469228349533 0,0 -31.0454076850486,-10.348469228349533"
                    fill="#F16667" transform="translate(120.58713403302579 0) rotate(0)" stroke="none" />
            </g>
        </g>
        <g class="relationship">
            <g transform="translate(1562.8491934944657 -762.7419552685396) rotate(180)" stroke-width="3"
                stroke="#cccccc" fill="none">
                <path d="M 39 0 L 167.96543108355584 0" />
                <polygon
                    points="-18.079611541307905,0 -20.088457268119896,6.696152422706632 0,0 -20.088457268119896,-6.696152422706632"
                    fill="#cccccc" transform="translate(186.04504262486375 0) rotate(0)" stroke="none" />
            </g>
        </g>
        <g class="relationship">
            <g stroke-width="3" stroke="#cccccc" fill="none">
                <path
                    d="M 1079.506827757296 -169.95117511706502 L 1079.506827757296 -14.806285103410623 A 40 40 0 0 0 1119.506827757296 25.19371489658937 L 1278.724539328294 25.193714896589377 L 1278.724539328294 25.193714896589377" />
                <polygon
                    points="-18.079611541307905,0 -20.088457268119896,6.696152422706632 0,0 -20.088457268119896,-6.696152422706632"
                    fill="#cccccc"
                    transform="translate(1278.724539328294 25.193714896589377) rotate(0) translate(18.079611541307905 0)"
                    stroke="none" />
            </g>
        </g>
        <g class="relationship">
            <g stroke-width="3" stroke="#cccccc" fill="none">
                <path
                    d="M 1082.2254421154157 -865.337514580405 L 1082.2254421154157 -1031.9162233345912 A 40 40 0 0 1 1122.2254421154157 -1071.9162233345912 L 1280.724539328294 -1071.9162233345912 L 1280.724539328294 -1071.9162233345912" />
                <polygon
                    points="-18.079611541307905,0 -20.088457268119896,6.696152422706632 0,0 -20.088457268119896,-6.696152422706632"
                    fill="#cccccc"
                    transform="translate(1280.724539328294 -1071.9162233345912) rotate(0) translate(18.079611541307905 0)"
                    stroke="none" />
            </g>
        </g>
        <g class="relationship">
            <g transform="translate(1082.2254421154157 -826.337514580405) rotate(90.25229602945424)" stroke-width="3"
                stroke="#cccccc" fill="none">
                <path d="M 39 0 L 560.3127135000474 0" />
                <polygon
                    points="-18.079611541307905,0 -20.088457268119896,6.696152422706632 0,0 -20.088457268119896,-6.696152422706632"
                    fill="#cccccc" transform="translate(578.3923250413553 0) rotate(0)" stroke="none" />
            </g>
        </g>
        <g class="relationship">
            <g transform="translate(862.634198221964 -826.337514580405) rotate(90)" stroke-width="3" stroke="#cccccc">
                <path d="M 39 0 L 560.306727922032 0" />
                <polygon
                    points="-18.079611541307905,0 -20.088457268119896,6.696152422706632 0,0 -20.088457268119896,-6.696152422706632"
                    fill="#cccccc" transform="translate(578.3863394633399 0) rotate(0)" stroke="none" />
            </g>
        </g>
        <g class="relationship">
            <g stroke-width="3" stroke="#cccccc" fill="none">
                <path
                    d="M 862.634198221964 -169.95117511706502 L 862.634198221964 -14.806285103410595 A 60 60 0 0 0 922.634198221964 45.1937148965894 L 1278.724539328294 45.19371489658938 L 1278.724539328294 45.19371489658938" />
                <polygon
                    points="-18.079611541307905,0 -20.088457268119896,6.696152422706632 0,0 -20.088457268119896,-6.696152422706632"
                    fill="#cccccc"
                    transform="translate(1278.724539328294 45.19371489658938) rotate(0) translate(18.079611541307905 0)"
                    stroke="none" />
            </g>
        </g>
        <g class="relationship">
            <g stroke-width="3" stroke="#cccccc" fill="none">
                <path
                    d="M 862.634198221964 -865.337514580405 L 862.634198221964 -1031.9162233345912 A 60 60 0 0 1 922.634198221964 -1091.9162233345912 L 1280.724539328294 -1091.9162233345912 L 1280.724539328294 -1091.9162233345912" />
                <polygon
                    points="-18.079611541307905,0 -20.088457268119896,6.696152422706632 0,0 -20.088457268119896,-6.696152422706632"
                    fill="#cccccc"
                    transform="translate(1280.724539328294 -1091.9162233345912) rotate(0) translate(18.079611541307905 0)"
                    stroke="none" />
            </g>
        </g>
        <g class="relationship">
            <g stroke-width="6" stroke="#C990C0" fill="none">
                <path
                    d="M 1151.7591082447384 160.22542898893653 L 1292.804150869602 160.22542898893653 A 40 40 0 0 0 1332.804150869602 120.22542898893653 L 1332.804150869602 104.13458181313311 L 1332.804150869602 104.13458181313311" />
                <polygon
                    points="-27.94086691654374,0 -31.0454076850486,10.348469228349533 0,0 -31.0454076850486,-10.348469228349533"
                    fill="#C990C0"
                    transform="translate(1332.804150869602 104.13458181313311) rotate(-90) translate(27.94086691654374 0)"
                    stroke="none" />
            </g>
        </g>
        <g class="relationship">
            <g stroke-width="3" stroke="#cccccc" fill="none">
                <path
                    d="M 1523.8491934944657 160.22542898893653 L 1382.804150869602 160.22542898893656 A 40 40 0 0 1 1342.804150869602 120.22542898893656 L 1342.804150869602 94.27332643789728 L 1342.804150869602 94.27332643789728" />
                <polygon
                    points="-18.079611541307905,0 -20.088457268119896,6.696152422706632 0,0 -20.088457268119896,-6.696152422706632"
                    fill="#cccccc"
                    transform="translate(1342.804150869602 94.27332643789728) rotate(-90) translate(18.079611541307905 0)"
                    stroke="none" />
            </g>
        </g>
        <g class="relationship">
            <g stroke-width="6" stroke="#C990C0">
                <path d="M 1151.7591082447384 314.44391662707557 L 1268.8632839530583 314.44391662707557" />
                <polygon
                    points="-27.94086691654374,0 -31.0454076850486,10.348469228349533 0,0 -31.0454076850486,-10.348469228349533"
                    fill="#C990C0"
                    transform="translate(1268.8632839530583 314.44391662707557) rotate(0) translate(27.94086691654374 0)"
                    stroke="none" />
            </g>
        </g>
        <g class="relationship">
            <g transform="translate(1562.8491934944657 314.44391662707557) rotate(180)" stroke-width="3"
                stroke="#cccccc">
                <path d="M 39 0 L 165.96543108355584 0" />
                <polygon
                    points="-18.079611541307905,0 -20.088457268119896,6.696152422706632 0,0 -20.088457268119896,-6.696152422706632"
                    fill="#cccccc" transform="translate(184.04504262486375 0) rotate(0)" stroke="none" />
            </g>
        </g>
        <g class="relationship">
            <g transform="translate(1112.7591082447384 160.22542898893653) rotate(90)" stroke-width="6"
                stroke="#C990C0">
                <path d="M 39 0 L 87.2776207215953 0" />
                <polygon
                    points="-27.94086691654374,0 -31.0454076850486,10.348469228349533 0,0 -31.0454076850486,-10.348469228349533"
                    fill="#C990C0" transform="translate(115.21848763813904 0) rotate(0)" stroke="none" />
            </g>
        </g>
        <g class="relationship">
            <g transform="translate(1562.8491934944657 160.22542898893653) rotate(90)" stroke-width="3"
                stroke="#cccccc">
                <path d="M 39 0 L 97.13887609683113 0" />
                <polygon
                    points="-18.079611541307905,0 -20.088457268119896,6.696152422706632 0,0 -20.088457268119896,-6.696152422706632"
                    fill="#cccccc" transform="translate(115.21848763813904 0) rotate(0)" stroke="none" />
            </g>
        </g>
        <g class="node">
            <g fill="#57C7E3" stroke="#57C7E3" stroke-width="4">
                <circle cx="1562.8491934944657" cy="-1081.9162233345912" r="32" />
            </g>
            <g transform="translate(1562.8491934944657 -1081.9162233345912)">
                <g transform="scale(1) translate(0 0)">
                    <g transform="translate(0 0)">
                        <g font-family="sans-serif" font-size="35" font-weight="normal" fill="#000000"
                            text-anchor="middle"><text xml:space="preserve" x="0" y="9.749755859375"
                                stroke="none">b</text></g>
                    </g>
                </g>
            </g>
        </g>
        <g class="node">
            <g fill="#57C7E3" stroke="#57C7E3" stroke-width="4">
                <circle cx="972.4298201686898" cy="-826.337514580405" r="32" />
            </g>
            <g transform="translate(972.4298201686898 -826.337514580405)">
                <g transform="scale(0.9765625234374999) translate(0 0)">
                    <g transform="translate(0 0)">
                        <g font-family="sans-serif" font-size="35" font-weight="normal" fill="#000000"
                            text-anchor="middle"><text xml:space="preserve" x="0" y="9.749755859375"
                                stroke="none">m</text></g>
                    </g>
                </g>
            </g>
        </g>
        <g class="node">
            <g fill="#57C7E3" stroke="#57C7E3" stroke-width="4">
                <circle cx="1562.8491934944657" cy="-443.56768720248806" r="32" />
            </g>
        </g>
        <g class="node">
            <g fill="#cccccc" stroke="#cccccc" stroke-width="4">
                <circle cx="1337.804150869602" cy="-603.1548212355139" r="32" />
            </g>
        </g>
        <g class="node">
            <g fill="#57C7E3" stroke="#57C7E3" stroke-width="4">
                <circle cx="1562.8491934944657" cy="-283.98055316946227" r="32" />
            </g>
        </g>
        <g class="node">
            <g fill="#57C7E3" stroke="#57C7E3" stroke-width="4">
                <circle cx="1562.8491934944657" cy="-124.39341913643645" r="32" />
            </g>
        </g>
        <g class="node">
            <g fill="#FFE081" stroke="#FFE081" stroke-width="4">
                <circle cx="1337.804150869602" cy="-1081.9162233345912" r="32" />
            </g>
            <g transform="translate(1337.804150869602 -1081.9162233345912)">
                <g transform="scale(1) translate(0 0)">
                    <g transform="translate(0 0)">
                        <g font-family="sans-serif" font-size="35" font-weight="normal" fill="#000000"
                            text-anchor="middle"><text xml:space="preserve" x="0" y="9.749755859375"
                                stroke="none">l</text></g>
                    </g>
                </g>
            </g>
        </g>
        <g class="node">
            <g fill="#57C7E3" stroke="#57C7E3" stroke-width="4">
                <circle cx="972.4298201686898" cy="-208.95117511706502" r="32" />
            </g>
            <g transform="translate(972.4298201686898 -208.95117511706502)">
                <g transform="scale(1) translate(0 0)">
                    <g transform="translate(0 0)">
                        <g font-family="sans-serif" font-size="35" font-weight="normal" fill="#000000"
                            text-anchor="middle"><text xml:space="preserve" x="0" y="9.749755859375"
                                stroke="none">n</text></g>
                    </g>
                </g>
            </g>
        </g>
        <g class="node">
            <g fill="#cccccc" stroke="#cccccc" stroke-width="4">
                <circle cx="1337.804150869602" cy="-922.3290893015654" r="32" />
            </g>
        </g>
        <g class="node">
            <g fill="#FFE081" stroke="#4CC0F5" stroke-width="6">
                <circle cx="1337.804150869602" cy="-1241.503357367617" r="33" />
            </g>
            <g transform="translate(1337.804150869602 -1241.503357367617)">
                <g transform="scale(0.7070315429687499) translate(0 0)">
                    <g transform="translate(0 0)">
                        <g font-family="sans-serif" font-size="35" font-weight="normal" fill="#000000"
                            text-anchor="middle"><text xml:space="preserve" x="0" y="9.749755859375"
                                stroke="none">sbe</text></g>
                    </g>
                </g>
            </g>
        </g>
        <g class="node">
            <g fill="#57C7E3" stroke="#57C7E3" stroke-width="4">
                <circle cx="1562.8491934944657" cy="-1241.503357367617" r="32" />
            </g>
            <g transform="translate(1562.8491934944657 -1241.503357367617)">
                <g transform="scale(1) translate(0 0)">
                    <g transform="translate(0 0)">
                        <g font-family="sans-serif" font-size="35" font-weight="normal" fill="#000000"
                            text-anchor="middle"><text xml:space="preserve" x="0" y="9.749755859375"
                                stroke="none">a</text></g>
                    </g>
                </g>
            </g>
        </g>
        <g class="node">
            <g fill="#57C7E3" stroke="#57C7E3" stroke-width="4">
                <circle cx="1562.8491934944657" cy="-603.1548212355139" r="32" />
            </g>
        </g>
        <g class="node">
            <g fill="#57C7E3" stroke="#57C7E3" stroke-width="4">
                <circle cx="1562.8491934944657" cy="-922.3290893015654" r="32" />
            </g>
        </g>
        <g class="node">
            <g fill="#cccccc" stroke="#cccccc" stroke-width="4">
                <circle cx="1337.804150869602" cy="-283.98055316946227" r="32" />
            </g>
        </g>
        <g class="node">
            <g fill="#cccccc" stroke="#cccccc" stroke-width="4">
                <circle cx="1337.804150869602" cy="-443.56768720248806" r="32" />
            </g>
        </g>
        <g class="node">
            <g fill="#cccccc" stroke="#cccccc" stroke-width="4">
                <circle cx="1337.804150869602" cy="-124.39341913643645" r="32" />
            </g>
        </g>
        <g class="node">
            <g fill="#FFE081" stroke="#FFE081" stroke-width="6">
                <circle cx="1337.804150869602" cy="35.19371489658937" r="33" />
            </g>
            <g transform="translate(1337.804150869602 35.19371489658937)">
                <g transform="scale(0.8125001875) translate(0 0)">
                    <g transform="translate(0 0)">
                        <g font-family="sans-serif" font-size="35" font-weight="normal" fill="#000000"
                            text-anchor="middle"><text xml:space="preserve" x="0" y="9.749755859375"
                                stroke="none">lds</text></g>
                    </g>
                </g>
            </g>
        </g>
        <g class="node">
            <g fill="#57C7E3" stroke="#57C7E3" stroke-width="4">
                <circle cx="1562.8491934944657" cy="35.19371489658937" r="32" />
            </g>
            <g transform="translate(1562.8491934944657 35.19371489658937)">
                <g transform="scale(1) translate(0 0)">
                    <g transform="translate(0 0)">
                        <g font-family="sans-serif" font-size="35" font-weight="normal" fill="#000000"
                            text-anchor="middle"><text xml:space="preserve" x="0" y="9.749755859375"
                                stroke="none">c</text></g>
                    </g>
                </g>
            </g>
        </g>
        <g class="node">
            <g fill="#cccccc" stroke="#cccccc" stroke-width="4">
                <circle cx="1079.506827757296" cy="-208.95117511706502" r="32" />
            </g>
        </g>
        <g class="node">
            <g fill="#cccccc" stroke="#cccccc" stroke-width="4">
                <circle cx="1082.2254421154157" cy="-826.337514580405" r="32" />
            </g>
        </g>
        <g class="node">
            <g fill="#cccccc" stroke="#cccccc" stroke-width="4">
                <circle cx="1337.804150869602" cy="-762.7419552685396" r="32" />
            </g>
        </g>
        <g class="node">
            <g fill="#57C7E3" stroke="#57C7E3" stroke-width="4">
                <circle cx="1562.8491934944657" cy="-762.7419552685396" r="32" />
            </g>
        </g>
        <g class="node">
            <g fill="#cccccc" stroke="#cccccc" stroke-width="4">
                <circle cx="862.634198221964" cy="-208.95117511706502" r="32" />
            </g>
        </g>
        <g class="node">
            <g fill="#cccccc" stroke="#cccccc" stroke-width="4">
                <circle cx="862.634198221964" cy="-826.337514580405" r="32" />
            </g>
        </g>
        <g class="node">
            <g fill="#57C7E3" stroke="#57C7E3" stroke-width="4">
                <circle cx="1112.7591082447384" cy="160.22542898893653" r="32" />
            </g>
            <g transform="translate(1112.7591082447384 160.22542898893653)">
                <g transform="scale(1) translate(0 0)">
                    <g transform="translate(0 0)">
                        <g font-family="sans-serif" font-size="35" font-weight="normal" fill="#000000"
                            text-anchor="middle"><text xml:space="preserve" x="0" y="9.749755859375"
                                stroke="none">x</text></g>
                    </g>
                </g>
            </g>
        </g>
        <g class="node">
            <g fill="#cccccc" stroke="#cccccc" stroke-width="4">
                <circle cx="1562.8491934944657" cy="160.22542898893653" r="32" />
            </g>
        </g>
        <g class="node">
            <g fill="#FFE081" stroke="#4CC0F5" stroke-width="6">
                <circle cx="1337.804150869602" cy="314.44391662707557" r="33" />
            </g>
            <g transform="translate(1337.804150869602 314.44391662707557)">
                <g transform="scale(0.6914065585937499) translate(0 0)">
                    <g transform="translate(0 0)">
                        <g font-family="sans-serif" font-size="35" font-weight="normal" fill="#000000"
                            text-anchor="middle"><text xml:space="preserve" x="0" y="9.749755859375"
                                stroke="none">hud</text></g>
                    </g>
                </g>
            </g>
        </g>
        <g class="node">
            <g fill="#57C7E3" stroke="#57C7E3" stroke-width="4">
                <circle cx="1112.7591082447384" cy="314.44391662707557" r="32" />
            </g>
            <g transform="translate(1112.7591082447384 314.44391662707557)">
                <g transform="scale(1) translate(0 0)">
                    <g transform="translate(0 0)">
                        <g font-family="sans-serif" font-size="35" font-weight="normal" fill="#000000"
                            text-anchor="middle"><text xml:space="preserve" x="0" y="9.749755859375"
                                stroke="none">y</text></g>
                    </g>
                </g>
            </g>
        </g>
        <g class="node">
            <g fill="#cccccc" stroke="#cccccc" stroke-width="4">
                <circle cx="1562.8491934944657" cy="314.44391662707557" r="32" />
            </g>
        </g>
                <g class="relationship">
            <g stroke-width="6" stroke="#F79767" fill="none">
                <path
                    d="M 972.4298201686898 -169.95117511706502 L 972.4298201686898 -14.806285103410595 A 50 50 0 0 0 1022.4298201686898 35.19371489658939 L 1268.8632839530583 35.19371489658938 L 1268.8632839530583 35.19371489658938" />
                <polygon
                    points="-27.94086691654374,0 -31.0454076850486,10.348469228349533 0,0 -31.0454076850486,-10.348469228349533"
                    fill="#F79767"
                    transform="translate(1268.8632839530583 35.19371489658938) rotate(0) translate(27.94086691654374 0)"
                    stroke="none" />
            </g>
        </g>
        <g class="relationship">
            <g transform="translate(972.4298201686898 -826.337514580405) rotate(90)" stroke-width="6" stroke="#F79767">
                <path d="M 39 0 L 550.4454725467963 0" />
                <polygon
                    points="-27.94086691654374,0 -31.0454076850486,10.348469228349533 0,0 -31.0454076850486,-10.348469228349533"
                    fill="#F79767" transform="translate(578.3863394633399 0) rotate(0)" stroke="none" />
            </g>
        </g>
        <g class="relationship">
            <g stroke-width="6" stroke="#f79767" fill="none">
                <path
                    d="M 972.4298201686898 -865.337514580405 L 972.4298201686898 -1031.9162233345912 A 50 50 0 0 1 1022.4298201686898 -1081.9162233345912 L 1270.8632839530583 -1081.9162233345912 L 1270.8632839530583 -1081.9162233345912" />
                <polygon
                    points="-27.94086691654374,0 -31.0454076850486,10.348469228349533 0,0 -31.0454076850486,-10.348469228349533"
                    fill="#F79767"
                    transform="translate(1270.8632839530583 -1081.9162233345912) rotate(0) translate(27.94086691654374 0)"
                    stroke="none" />
            </g>
        </g>
    </g>
</svg>