<svg xmlns="http://www.w3.org/2000/svg" width="1326" height="1374" viewBox="0 0 1326 1374"><defs><style type="text/css"/></defs><g transform="translate(539.3808315451822 727.9943350171335) scale(1)"><g class="relationship"><g transform="translate(52.286453837705935 -377.01345994918563) rotate(109.37530338798348)" stroke-width="5" stroke="#999999"><path d="M 69 0 L 277.24453152300623 0"/><polygon points="-24.8621506177483,0 -27.62461179749811,9.20820393249937 0,0 -27.62461179749811,-9.20820393249937" fill="#999999" transform="translate(302.1066821407545 0) rotate(0)" stroke="none"/></g><g transform="translate(-5.147643283022859 -213.69584488478662) rotate(289.3753033879835) translate(0 -13)"><g transform="translate(0 0)"><g transform="translate(-16.12109375 0)" fill="#ffffff" stroke="#000000" stroke-width="0"><rect x="0" y="0" width="32.2421875" height="26" rx="5" ry="5" stroke="none"/><text xml:space="preserve" x="5" y="17.45703125" stroke="none" text-anchor="left" font-family="sans-serif" font-size="16" font-weight="normal" fill="#666666">2.6</text></g></g></g></g><g class="relationship"><g transform="translate(-70.82987167057028 -26.924128602371894) rotate(4.802982384227195)" stroke-width="5" stroke="#999999"><path d="M 69 0 L 372.3035322935946 0"/><polygon points="-24.8621506177483,0 -27.62461179749811,9.20820393249937 0,0 -27.62461179749811,-9.20820393249937" fill="#999999" transform="translate(397.1656829113429 0) rotate(0)" stroke="none"/></g><g transform="translate(149.0470762991617 -8.449019530523096) rotate(4.802982384227195) translate(0 -13)"><g transform="translate(0 0)"><g transform="translate(-20.5703125 0)" fill="#ffffff" stroke="#000000" stroke-width="0"><rect x="0" y="0" width="41.140625" height="26" rx="5" ry="5" stroke="none"/><text xml:space="preserve" x="5" y="17.45703125" stroke="none" text-anchor="left" font-family="sans-serif" font-size="16" font-weight="normal" fill="#666666">0.86</text></g></g></g></g><g class="relationship"><g transform="translate(393.69887150105853 12.107790279302321) rotate(-7.5749735289747075)" stroke-width="5" stroke="#999999"><path d="M 69 0 L 202.23029473010624 0"/><polygon points="-24.8621506177483,0 -27.62461179749811,9.20820393249937 0,0 -27.62461179749811,-9.20820393249937" fill="#999999" transform="translate(227.09244534785455 0) rotate(0)" stroke="none"/></g><g transform="translate(528.1305345689875 -5.769462295853266) rotate(-7.5749735289747075) translate(0 -13)"><g transform="translate(0 0)"><g transform="translate(-20.5703125 0)" fill="#ffffff" stroke="#000000" stroke-width="0"><rect x="0" y="0" width="41.140625" height="26" rx="5" ry="5" stroke="none"/><text xml:space="preserve" x="5" y="17.45703125" stroke="none" text-anchor="left" font-family="sans-serif" font-size="16" font-weight="normal" fill="#666666">0.71</text></g></g></g></g><g class="relationship"><g transform="translate(52.286453837705935 -377.01345994918563) rotate(-98.87631153433544)" stroke-width="5" stroke="#999999"><path d="M 69 0 L 192.57309852826623 0"/><polygon points="-24.8621506177483,0 -27.62461179749811,9.20820393249937 0,0 -27.62461179749811,-9.20820393249937" fill="#999999" transform="translate(217.43524914601454 0) rotate(0)" stroke="none"/></g><g transform="translate(32.10583958050232 -506.2336761563313) rotate(81.12368846566454) translate(0 -13)"><g transform="translate(0 0)"><g transform="translate(-20.5703125 0)" fill="#ffffff" stroke="#000000" stroke-width="0"><rect x="0" y="0" width="41.140625" height="26" rx="5" ry="5" stroke="none"/><text xml:space="preserve" x="5" y="17.45703125" stroke="none" text-anchor="left" font-family="sans-serif" font-size="16" font-weight="normal" fill="#666666">1.21</text></g></g></g></g><g class="relationship"><g transform="translate(29.74693935928618 336.6701010199994) rotate(-41.72570070465128)" stroke-width="5" stroke="#999999"><path d="M 71 0 L 149.9624289794849 0"/><polygon points="-24.8621506177483,0 -27.62461179749811,9.20820393249937 0,0 -27.62461179749811,-9.20820393249937" fill="#999999" transform="translate(174.8245795972332 0) rotate(0)" stroke="none"/></g><g transform="translate(112.20345696168056 263.13764927239) rotate(-41.72570070465128) translate(0 -13)"><g transform="translate(0 0)"><g transform="translate(-20.5703125 0)" fill="#ffffff" stroke="#000000" stroke-width="0"><rect x="0" y="0" width="41.140625" height="26" rx="5" ry="5" stroke="none"/><text xml:space="preserve" x="5" y="17.45703125" stroke="none" text-anchor="left" font-family="sans-serif" font-size="16" font-weight="normal" fill="#666666">0.53</text></g></g></g></g><g class="relationship"><g transform="translate(211.72290543017235 174.38894564965088) rotate(-41.72570070465128)" stroke-width="5" stroke="#999999"><path d="M 69 0 L 149.9624289794849 0"/><polygon points="-24.8621506177483,0 -27.62461179749811,9.20820393249937 0,0 -27.62461179749811,-9.20820393249937" fill="#999999" transform="translate(174.82457959723322 0) rotate(0)" stroke="none"/></g><g transform="translate(293.43308332238865 101.52205910321364) rotate(-41.72570070465128) translate(0 -13)"><g transform="translate(0 0)"><g transform="translate(-20.5703125 0)" fill="#ffffff" stroke="#000000" stroke-width="0"><rect x="0" y="0" width="41.140625" height="26" rx="5" ry="5" stroke="none"/><text xml:space="preserve" x="5" y="17.45703125" stroke="none" text-anchor="left" font-family="sans-serif" font-size="16" font-weight="normal" fill="#666666">0.84</text></g></g></g></g><g class="relationship"><g transform="translate(722.0181152554594 -286.47335790123714) rotate(97.63892223360199)" stroke-width="5" stroke="#999999"><path d="M 69 0 L 168.01108132333405 0"/><polygon points="-24.8621506177483,0 -27.62461179749811,9.20820393249937 0,0 -27.62461179749811,-9.20820393249937" fill="#999999" transform="translate(192.87323194108234 0) rotate(0)" stroke="none"/></g><g transform="translate(706.2652077051359 -169.01949857245654) rotate(277.63892223360205) translate(0 -13)"><g transform="translate(0 0)"><g transform="translate(-20.5703125 0)" fill="#ffffff" stroke="#000000" stroke-width="0"><rect x="0" y="0" width="41.140625" height="26" rx="5" ry="5" stroke="none"/><text xml:space="preserve" x="5" y="17.45703125" stroke="none" text-anchor="left" font-family="sans-serif" font-size="16" font-weight="normal" fill="#666666">0.95</text></g></g></g></g><g class="relationship"><g transform="translate(7.780344196105119 -661.9943350171335) rotate(25.21890170920239)" stroke-width="5" stroke="#999999"><path d="M 71 0 L 288.96358095225776 0"/><polygon points="-24.8621506177483,0 -27.62461179749811,9.20820393249937 0,0 -27.62461179749811,-9.20820393249937" fill="#999999" transform="translate(313.82573157000604 0) rotate(0)" stroke="none"/></g><g transform="translate(170.60744746606835 -585.3080954189769) rotate(25.21890170920239) translate(0 -13)"><g transform="translate(0 0)"><g transform="translate(-20.5703125 0)" fill="#ffffff" stroke="#000000" stroke-width="0"><rect x="0" y="0" width="41.140625" height="26" rx="5" ry="5" stroke="none"/><text xml:space="preserve" x="5" y="17.45703125" stroke="none" text-anchor="left" font-family="sans-serif" font-size="16" font-weight="normal" fill="#666666">1.13</text></g></g></g></g><g class="relationship"><g transform="translate(354.1176306729615 -498.88080170993607) rotate(30.000000000000004)" stroke-width="5" stroke="#999999"><path d="M 69 0 L 330.9527369996496 0"/><polygon points="-24.8621506177483,0 -27.62461179749811,9.20820393249937 0,0 -27.62461179749811,-9.20820393249937" fill="#999999" transform="translate(355.81488761739786 0) rotate(0)" stroke="none"/></g><g transform="translate(527.3022459503679 -398.89261746002364) rotate(30.000000000000004) translate(0 -13)"><g transform="translate(0 0)"><g transform="translate(-16.12109375 0)" fill="#ffffff" stroke="#000000" stroke-width="0"><rect x="0" y="0" width="32.2421875" height="26" rx="5" ry="5" stroke="none"/><text xml:space="preserve" x="5" y="17.45703125" stroke="none" text-anchor="left" font-family="sans-serif" font-size="16" font-weight="normal" fill="#666666">1.8</text></g></g></g></g><g class="relationship"><g transform="translate(29.74693935928618 336.6701010199994) rotate(132.7407875062315)" stroke-width="5" stroke="#999999"><path d="M 71 0 L 239.9819385215907 0"/><polygon points="-24.8621506177483,0 -27.62461179749811,9.20820393249937 0,0 -27.62461179749811,-9.20820393249937" fill="#999999" transform="translate(264.844089139339 0) rotate(0)" stroke="none"/></g><g transform="translate(-75.78208623725936 450.86758907602115) rotate(312.7407875062315) translate(0 -13)"><g transform="translate(0 0)"><g transform="translate(-20.5703125 0)" fill="#ffffff" stroke="#000000" stroke-width="0"><rect x="0" y="0" width="41.140625" height="26" rx="5" ry="5" stroke="none"/><text xml:space="preserve" x="5" y="17.45703125" stroke="none" text-anchor="left" font-family="sans-serif" font-size="16" font-weight="normal" fill="#666666">1.29</text></g></g></g></g><g class="relationship"><g transform="translate(-243.55218974480815 280.8992667729713) rotate(81.17501263677933)" stroke-width="5" stroke="#999999"><path d="M 69 0 L 210.69988334810748 0"/><polygon points="-24.8621506177483,0 -27.62461179749811,9.20820393249937 0,0 -27.62461179749811,-9.20820393249937" fill="#999999" transform="translate(235.5620339658558 0) rotate(0)" stroke="none"/></g><g transform="translate(-222.09685924931625 419.09360449910776) rotate(81.17501263677933) translate(0 -13)"><g transform="translate(0 0)"><g transform="translate(-20.5703125 0)" fill="#ffffff" stroke="#000000" stroke-width="0"><rect x="0" y="0" width="41.140625" height="26" rx="5" ry="5" stroke="none"/><text xml:space="preserve" x="5" y="17.45703125" stroke="none" text-anchor="left" font-family="sans-serif" font-size="16" font-weight="normal" fill="#666666">1.08</text></g></g></g></g><g class="relationship"><g transform="translate(52.286453837705935 -377.01345994918563) rotate(139.17040818521932)" stroke-width="5" stroke="#999999"><path d="M 69 0 L 429.9602321684206 0"/><polygon points="-24.8621506177483,0 -27.62461179749811,9.20820393249937 0,0 -27.62461179749811,-9.20820393249937" fill="#999999" transform="translate(454.8223827861689 0) rotate(0)" stroke="none"/></g><g transform="translate(-136.4845419987251 -213.90049463890387) rotate(319.1704081852193) translate(0 -13)"><g transform="translate(0 0)"><g transform="translate(-20.5703125 0)" fill="#ffffff" stroke="#000000" stroke-width="0"><rect x="0" y="0" width="41.140625" height="26" rx="5" ry="5" stroke="none"/><text xml:space="preserve" x="5" y="17.45703125" stroke="none" text-anchor="left" font-family="sans-serif" font-size="16" font-weight="normal" fill="#666666">2.01</text></g></g></g></g><g class="relationship"><g transform="translate(-344.0676700580044 -34.532369699455955) rotate(72.32499438836936)" stroke-width="5" stroke="#999999"><path d="M 69 0 L 237.19748006872797 0"/><polygon points="-24.8621506177483,0 -27.62461179749811,9.20820393249937 0,0 -27.62461179749811,-9.20820393249937" fill="#999999" transform="translate(262.0596306864763 0) rotate(0)" stroke="none"/></g><g transform="translate(-297.5842212666508 111.33919431687784) rotate(72.32499438836936) translate(0 -13)"><g transform="translate(0 0)"><g transform="translate(-20.5703125 0)" fill="#ffffff" stroke="#000000" stroke-width="0"><rect x="0" y="0" width="41.140625" height="26" rx="5" ry="5" stroke="none"/><text xml:space="preserve" x="5" y="17.45703125" stroke="none" text-anchor="left" font-family="sans-serif" font-size="16" font-weight="normal" fill="#666666">0.88</text></g></g></g></g><g class="relationship"><g transform="translate(-70.82987167057028 -26.924128602371894) rotate(156.72988629138047)" stroke-width="5" stroke="#999999"><path d="M 69 0 L 346.51212070979943 0"/><polygon points="-24.8621506177483,0 -27.62461179749811,9.20820393249937 0,0 -27.62461179749811,-9.20820393249937" fill="#999999" transform="translate(371.3742713275477 0) rotate(0)" stroke="none"/></g><g transform="translate(-261.68551222144197 55.153304862041395) rotate(336.72988629138047) translate(0 -13)"><g transform="translate(0 0)"><g transform="translate(-19.98046875 0)" fill="#ffffff" stroke="#000000" stroke-width="0"><rect x="0" y="0" width="39.9609375" height="26" rx="5" ry="5" stroke="none"/><text xml:space="preserve" x="5" y="17.45703125" stroke="none" text-anchor="left" font-family="sans-serif" font-size="16" font-weight="normal" fill="#666666">1.11</text></g></g></g></g><g class="relationship"><g transform="translate(-475.3808315451822 147.05293802366003) rotate(29.999999999999996)" stroke-width="5" stroke="#999999"><path d="M 69 0 L 173.83050688087428 0"/><polygon points="-24.8621506177483,0 -27.62461179749811,9.20820393249937 0,0 -27.62461179749811,-9.20820393249937" fill="#999999" transform="translate(198.69265749862257 0) rotate(0)" stroke="none"/></g><g transform="translate(-370.2321376588377 207.7605647438786) rotate(29.999999999999996) translate(0 -13)"><g transform="translate(0 0)"><g transform="translate(-20.5703125 0)" fill="#ffffff" stroke="#000000" stroke-width="0"><rect x="0" y="0" width="41.140625" height="26" rx="5" ry="5" stroke="none"/><text xml:space="preserve" x="5" y="17.45703125" stroke="none" text-anchor="left" font-family="sans-serif" font-size="16" font-weight="normal" fill="#666666">0.51</text></g></g></g></g><g class="node"><g fill="#FFE081" stroke="#53C1F3" stroke-width="6"><circle cx="7.780344196105119" cy="-661.9943350171335" r="63"/></g><g transform="translate(7.780344196105119 -661.9943350171335)"><g transform="scale(1) translate(0 0)"><g transform="translate(0 0)"><g font-family="sans-serif" font-size="19" font-weight="normal" fill="#333333" text-anchor="middle"><text xml:space="preserve" x="0" y="-6.107275390625" stroke="none">London</text><text xml:space="preserve" x="0" y="16.692724609375002" stroke="none" text-anchor="middle">Blackfriars</text></g></g></g></g></g><g class="node"><g fill="#FFE081" stroke="#FFE081" stroke-width="4"><circle cx="52.286453837705935" cy="-377.01345994918563" r="62"/></g><g transform="translate(52.286453837705935 -377.01345994918563)"><g transform="scale(1) translate(0 0)"><g transform="translate(0 0)"><g font-family="sans-serif" font-size="19" font-weight="normal" fill="#333333" text-anchor="middle"><text xml:space="preserve" x="0" y="-6.107275390625" stroke="none">Elephant</text><text xml:space="preserve" x="0" y="16.692724609375002" stroke="none" text-anchor="middle">&amp; Castle</text></g></g></g></g></g><g class="node"><g fill="#FFE081" stroke="#FFE081" stroke-width="4"><circle cx="687.2073815999765" cy="-26.924128602371894" r="62"/></g><g transform="translate(687.2073815999765 -26.924128602371894)"><g transform="scale(1) translate(0 0)"><g transform="translate(0 0)"><g font-family="sans-serif" font-size="19" font-weight="normal" fill="#333333" text-anchor="middle"><text xml:space="preserve" x="0" y="-6.107275390625" stroke="none">Queens Rd</text><text xml:space="preserve" x="0" y="16.692724609375002" stroke="none" text-anchor="middle">Peckham</text></g></g></g></g></g><g class="node"><g fill="#FFE081" stroke="#FFE081" stroke-width="4"><circle cx="-70.82987167057028" cy="-26.924128602371894" r="62"/></g><g transform="translate(-70.82987167057028 -26.924128602371894)"><g transform="scale(1) translate(0 0)"><g transform="translate(0 0)"><g font-family="sans-serif" font-size="19" font-weight="normal" fill="#333333" text-anchor="middle"><text xml:space="preserve" x="0" y="5.292724609375" stroke="none">Denmark Hill</text></g></g></g></g></g><g class="node"><g fill="#FFE081" stroke="#FFE081" stroke-width="4"><circle cx="393.69887150105853" cy="12.107790279302321" r="62"/></g><g transform="translate(393.69887150105853 12.107790279302321)"><g transform="scale(1) translate(0 0)"><g transform="translate(0 0)"><g font-family="sans-serif" font-size="19" font-weight="normal" fill="#333333" text-anchor="middle"><text xml:space="preserve" x="0" y="-6.107275390625" stroke="none">Peckham</text><text xml:space="preserve" x="0" y="16.692724609375002" stroke="none" text-anchor="middle">Rye</text></g></g></g></g></g><g class="node"><g fill="#FFE081" stroke="#FFE081" stroke-width="4"><circle cx="722.0181152554594" cy="-286.47335790123714" r="62"/></g><g transform="translate(722.0181152554594 -286.47335790123714)"><g transform="scale(1) translate(0 0)"><g transform="translate(0 0)"><g font-family="sans-serif" font-size="19" font-weight="normal" fill="#333333" text-anchor="middle"><text xml:space="preserve" x="0" y="-6.107275390625" stroke="none">South</text><text xml:space="preserve" x="0" y="16.692724609375002" stroke="none" text-anchor="middle">Bermondsey</text></g></g></g></g></g><g class="node"><g fill="#FFE081" stroke="#53C1F3" stroke-width="6"><circle cx="29.74693935928618" cy="336.6701010199994" r="63"/></g><g transform="translate(29.74693935928618 336.6701010199994)"><g transform="scale(1) translate(0 0)"><g transform="translate(0 0)"><g font-family="sans-serif" font-size="19" font-weight="normal" fill="#333333" text-anchor="middle"><text xml:space="preserve" x="0" y="-6.107275390625" stroke="none">North</text><text xml:space="preserve" x="0" y="16.692724609375002" stroke="none" text-anchor="middle">Dulwich</text></g></g></g></g></g><g class="node"><g fill="#FFE081" stroke="#FFE081" stroke-width="4"><circle cx="211.72290543017235" cy="174.38894564965088" r="62"/></g><g transform="translate(211.72290543017235 174.38894564965088)"><g transform="scale(1) translate(0 0)"><g transform="translate(0 0)"><g font-family="sans-serif" font-size="19" font-weight="normal" fill="#333333" text-anchor="middle"><text xml:space="preserve" x="0" y="5.292724609375" stroke="none">East Dulwich</text></g></g></g></g></g><g class="node"><g fill="#FFE081" stroke="#FFE081" stroke-width="4"><circle cx="354.1176306729615" cy="-498.88080170993607" r="62"/></g><g transform="translate(354.1176306729615 -498.88080170993607)"><g transform="scale(1) translate(0 0)"><g transform="translate(0 0)"><g font-family="sans-serif" font-size="19" font-weight="normal" fill="#333333" text-anchor="middle"><text xml:space="preserve" x="0" y="-6.107275390625" stroke="none">London</text><text xml:space="preserve" x="0" y="16.692724609375002" stroke="none" text-anchor="middle">Bridge</text></g></g></g></g></g><g class="node"><g fill="#FFE081" stroke="#FFE081" stroke-width="4"><circle cx="-344.0676700580044" cy="-34.532369699455955" r="62"/></g><g transform="translate(-344.0676700580044 -34.532369699455955)"><g transform="scale(0.9140625859375) translate(0 0)"><g transform="translate(0 0)"><g font-family="sans-serif" font-size="19" font-weight="normal" fill="#333333" text-anchor="middle"><text xml:space="preserve" x="0" y="5.292724609375" stroke="none">Loughborough</text><text xml:space="preserve" x="0" y="28.092724609375004" stroke="none" text-anchor="middle">Jn</text></g></g></g></g></g><g class="node"><g fill="#FFE081" stroke="#FFE081" stroke-width="4"><circle cx="-196.82725717138973" cy="581.8557639771828" r="62"/></g><g transform="translate(-196.82725717138973 581.8557639771828)"><g transform="scale(1) translate(0 0)"><g transform="translate(0 0)"><g font-family="sans-serif" font-size="19" font-weight="normal" fill="#333333" text-anchor="middle"><text xml:space="preserve" x="0" y="5.292724609375" stroke="none">Tulse Hill</text></g></g></g></g></g><g class="node"><g fill="#FFE081" stroke="#FFE081" stroke-width="4"><circle cx="-243.55218974480815" cy="280.8992667729713" r="62"/></g><g transform="translate(-243.55218974480815 280.8992667729713)"><g transform="scale(1) translate(0 0)"><g transform="translate(0 0)"><g font-family="sans-serif" font-size="19" font-weight="normal" fill="#333333" text-anchor="middle"><text xml:space="preserve" x="0" y="5.292724609375" stroke="none">Herne Hill</text></g></g></g></g></g><g class="node"><g fill="#FFE081" stroke="#FFE081" stroke-width="4"><circle cx="-475.3808315451822" cy="147.05293802366003" r="62"/></g><g transform="translate(-475.3808315451822 147.05293802366003)"><g transform="scale(1) translate(0 0)"><g transform="translate(0 0)"><g font-family="sans-serif" font-size="19" font-weight="normal" fill="#333333" text-anchor="middle"><text xml:space="preserve" x="0" y="5.292724609375" stroke="none">Brixton</text></g></g></g></g></g></g></svg>