<svg xmlns="http://www.w3.org/2000/svg" width="1113" height="88" viewBox="0 0 1113 88"><defs><style type="text/css"/></defs><g transform="translate(713.8000396796515 520.1468883381424) scale(1)"><g class="relationship"><g transform="translate(-449.7733593447279 -476.1468883381424) rotate(180)" stroke-width="3" stroke="#848484"><path d="M 49 0 L 152.94706879361567 0"/><polygon points="-18.079611541307905,0 -20.088457268119896,6.696152422706632 0,0 -20.088457268119896,-6.696152422706632" fill="#848484" transform="translate(171.02668033492358 0) rotate(0)" stroke="none"/></g><g transform="translate(-550.7468937415357 -476.1468883381424) rotate(360) translate(0 -29)"><g transform="translate(0 0)"><g transform="translate(-46.65234375 0)" fill="#ffffff" stroke="#000000" stroke-width="0"><rect x="0" y="0" width="93.3046875" height="26" rx="5" ry="5" stroke="none"/><text xml:space="preserve" x="5" y="17.45703125" stroke="none" text-anchor="left" font-family="sans-serif" font-size="16" font-weight="normal" fill="#848484">CALLS_ AT</text></g></g></g></g><g class="relationship"><g transform="translate(135.30668166004284 -476.1468883381424) rotate(0)" stroke-width="3" stroke="#848484"><path d="M 49 0 L 151.94706879361567 0"/><polygon points="-18.079611541307905,0 -20.088457268119896,6.696152422706632 0,0 -20.088457268119896,-6.696152422706632" fill="#848484" transform="translate(170.02668033492358 0) rotate(0)" stroke="none"/></g><g transform="translate(235.7802160568507 -476.1468883381424) rotate(0) translate(0 -29)"><g transform="translate(0 0)"><g transform="translate(-44.4296875 0)" fill="#ffffff" stroke="#000000" stroke-width="0"><rect x="0" y="0" width="88.859375" height="26" rx="5" ry="5" stroke="none"/><text xml:space="preserve" x="5" y="17.45703125" stroke="none" text-anchor="left" font-family="sans-serif" font-size="16" font-weight="normal" fill="#848484">CALLS_AT</text></g></g></g></g><g class="relationship"><g transform="translate(-254.74667900980432 -476.1468883381424) rotate(0)" stroke-width="3" stroke="#848484"><path d="M 49 0 L 127.94706879361567 0"/><polygon points="-18.079611541307905,0 -20.088457268119896,6.696152422706632 0,0 -20.088457268119896,-6.696152422706632" fill="#848484" transform="translate(146.02668033492358 0) rotate(0)" stroke="none"/></g><g transform="translate(-166.27314461299648 -476.1468883381424) rotate(0) translate(0 -29)"><g transform="translate(0 0)"><g transform="translate(-26.3359375 0)" fill="#ffffff" stroke="#000000" stroke-width="0"><rect x="0" y="0" width="52.671875" height="26" rx="5" ry="5" stroke="none"/><text xml:space="preserve" x="5" y="17.45703125" stroke="none" text-anchor="left" font-family="sans-serif" font-size="16" font-weight="normal" fill="#848484">NEXT</text></g></g></g></g><g class="relationship"><g transform="translate(-449.7733593447279 -476.1468883381424) rotate(0)" stroke-width="3" stroke="#848484"><path d="M 49 0 L 127.94706879361567 0"/><polygon points="-18.079611541307905,0 -20.088457268119896,6.696152422706632 0,0 -20.088457268119896,-6.696152422706632" fill="#848484" transform="translate(146.02668033492358 0) rotate(0)" stroke="none"/></g><g transform="translate(-361.29982494792006 -476.1468883381424) rotate(0) translate(0 -29)"><g transform="translate(0 0)"><g transform="translate(-26.3359375 0)" fill="#ffffff" stroke="#000000" stroke-width="0"><rect x="0" y="0" width="52.671875" height="26" rx="5" ry="5" stroke="none"/><text xml:space="preserve" x="5" y="17.45703125" stroke="none" text-anchor="left" font-family="sans-serif" font-size="16" font-weight="normal" fill="#848484">NEXT</text></g></g></g></g><g class="relationship"><g transform="translate(-59.71999867488074 -476.1468883381424) rotate(0)" stroke-width="3" stroke="#848484"><path d="M 49 0 L 127.94706879361567 0"/><polygon points="-18.079611541307905,0 -20.088457268119896,6.696152422706632 0,0 -20.088457268119896,-6.696152422706632" fill="#848484" transform="translate(146.02668033492358 0) rotate(0)" stroke="none"/></g><g transform="translate(28.753535721927094 -476.1468883381424) rotate(0) translate(0 -29)"><g transform="translate(0 0)"><g transform="translate(-26.3359375 0)" fill="#ffffff" stroke="#000000" stroke-width="0"><rect x="0" y="0" width="52.671875" height="26" rx="5" ry="5" stroke="none"/><text xml:space="preserve" x="5" y="17.45703125" stroke="none" text-anchor="left" font-family="sans-serif" font-size="16" font-weight="normal" fill="#848484">NEXT</text></g></g></g></g><g class="node"><g fill="#FFE081" stroke="#FFE081" stroke-width="4"><circle cx="-669.8000396796515" cy="-476.1468883381424" r="42"/></g></g><g class="node"><g fill="#FFE081" stroke="#FFE081" stroke-width="4"><circle cx="354.3333619949664" cy="-476.1468883381424" r="42"/></g></g><g class="node"><g fill="#57C7E3" stroke="#57C7E3" stroke-width="4"><circle cx="-449.7733593447279" cy="-476.1468883381424" r="42"/></g><g transform="translate(-449.7733593447279 -476.1468883381424)"><g transform="scale(1) translate(0 -4.5)"><g transform="translate(0 0)"><g transform="translate(-13.341064453125 0)"><g fill="#6BC5E0" stroke="#000000" stroke-width="4" font-family="sans-serif" font-size="5" font-weight="normal"><text xml:space="preserve" x="0" y="5.892822265625" stroke="none">CallingPoint</text></g></g></g></g></g></g><g class="node"><g fill="#57C7E3" stroke="#57C7E3" stroke-width="4"><circle cx="135.30668166004284" cy="-476.1468883381424" r="42"/></g><g transform="translate(135.30668166004284 -476.1468883381424)"><g transform="scale(1) translate(0 -4.5)"><g transform="translate(0 0)"><g transform="translate(-13.341064453125 0)"><g fill="#6BC5E0" stroke="#000000" stroke-width="4" font-family="sans-serif" font-size="5" font-weight="normal"><text xml:space="preserve" x="0" y="5.892822265625" stroke="none">CallingPoint</text></g></g></g></g></g></g><g class="node"><g fill="#57C7E3" stroke="#57C7E3" stroke-width="4"><circle cx="-254.74667900980432" cy="-476.1468883381424" r="42"/></g><g transform="translate(-254.74667900980432 -476.1468883381424)"><g transform="scale(1) translate(0 -4.5)"><g transform="translate(0 0)"><g transform="translate(-13.341064453125 0)"><g fill="#6BC5E0" stroke="#000000" stroke-width="4" font-family="sans-serif" font-size="5" font-weight="normal"><text xml:space="preserve" x="0" y="5.892822265625" stroke="none">CallingPoint</text></g></g></g></g></g></g><g class="node"><g fill="#57C7E3" stroke="#57C7E3" stroke-width="4"><circle cx="-59.71999867488074" cy="-476.1468883381424" r="42"/></g><g transform="translate(-59.71999867488074 -476.1468883381424)"><g transform="scale(1) translate(0 -4.5)"><g transform="translate(0 0)"><g transform="translate(-13.341064453125 0)"><g fill="#6BC5E0" stroke="#000000" stroke-width="4" font-family="sans-serif" font-size="5" font-weight="normal"><text xml:space="preserve" x="0" y="5.892822265625" stroke="none">CallingPoint</text></g></g></g></g></g></g></g></svg>