<svg xmlns="http://www.w3.org/2000/svg" width="981" height="850" viewBox="0 0 981 850"><defs><style type="text/css"/></defs><g transform="translate(-337.0841643793443 985.9163217767111) scale(1)"><g class="relationship"><g transform="translate(653.2038198660653 -257.8767968561043) rotate(11.143423818553126)" stroke-width="3" stroke="#848484"><path d="M 44 0 L 216.88818101304892 0"/><polygon points="-18.079611541307905,0 -20.088457268119896,6.696152422706632 0,0 -20.088457268119896,-6.696152422706632" fill="#848484" transform="translate(234.96779255435683 0) rotate(0)" stroke="none"/></g><g transform="translate(781.1885790566893 -232.66643860810794) rotate(11.143423818553126) translate(0 -33)"><g transform="translate(0 0)"><g transform="translate(-54.287109375 0)" fill="#ffffff" stroke="#000000" stroke-width="0"><rect x="0" y="0" width="108.57421875" height="30" rx="5" ry="5" stroke="none"/><text xml:space="preserve" x="5" y="20.5712890625" stroke="none" text-anchor="left" font-family="sans-serif" font-size="20" font-weight="normal" fill="#848484">CALLS_AT</text></g></g></g></g><g class="relationship"><g transform="translate(1138.0316421216326 -324.33238434008217) rotate(149.99999999999997)" stroke-width="3" stroke="#848484"><path d="M 44 0 L 177.43439363442585 0"/><polygon points="-18.079611541307905,0 -20.088457268119896,6.696152422706632 0,0 -20.088457268119896,-6.696152422706632" fill="#848484" transform="translate(195.51400517573376 0) rotate(0)" stroke="none"/></g><g transform="translate(1042.1477370421246 -268.9737859314757) rotate(329.99999999999994) translate(0 -33)"><g transform="translate(0 0)"><g transform="translate(-54.287109375 0)" fill="#ffffff" stroke="#000000" stroke-width="0"><rect x="0" y="0" width="108.57421875" height="30" rx="5" ry="5" stroke="none"/><text xml:space="preserve" x="5" y="20.5712890625" stroke="none" text-anchor="left" font-family="sans-serif" font-size="20" font-weight="normal" fill="#848484">CALLS_AT</text></g></g></g></g><g class="relationship"><g transform="translate(653.2038198660653 -257.8767968561043) rotate(-109.72512407648885)" stroke-width="3" stroke="#848484"><path d="M 44 0 L 218.8881810130491 0"/><polygon points="-18.079611541307905,0 -20.088457268119896,6.696152422706632 0,0 -20.088457268119896,-6.696152422706632" fill="#848484" transform="translate(236.967792554357 0) rotate(0)" stroke="none"/></g><g transform="translate(608.8403800362319 -381.6080949805165) rotate(70.27487592351113) translate(0 -33)"><g transform="translate(0 0)"><g transform="translate(-31.669921875 0)" fill="#ffffff" stroke="#000000" stroke-width="0"><rect x="0" y="0" width="63.33984375" height="30" rx="5" ry="5" stroke="none"/><text xml:space="preserve" x="5" y="20.5712890625" stroke="none" text-anchor="left" font-family="sans-serif" font-size="20" font-weight="normal" fill="#848484">NEXT</text></g></g></g></g><g class="relationship"><g transform="translate(558.3749256109247 -522.3581407486662) rotate(-40.20981169452754)" stroke-width="3" stroke="#848484"><path d="M 44 0 L 187.24548054769102 0"/><polygon points="-18.079611541307905,0 -20.088457268119896,6.696152422706632 0,0 -20.088457268119896,-6.696152422706632" fill="#848484" transform="translate(205.32509208899893 0) rotate(0)" stroke="none"/></g><g transform="translate(646.6743341109649 -597.0028493821397) rotate(-40.20981169452754) translate(0 -33)"><g transform="translate(0 0)"><g transform="translate(-54.287109375 0)" fill="#ffffff" stroke="#000000" stroke-width="0"><rect x="0" y="0" width="108.57421875" height="30" rx="5" ry="5" stroke="none"/><text xml:space="preserve" x="5" y="20.5712890625" stroke="none" text-anchor="left" font-family="sans-serif" font-size="20" font-weight="normal" fill="#848484">CALLS_AT</text></g></g></g></g><g class="relationship"><g transform="translate(876.5190013647898 -920.9163217767111) rotate(167.72921977476224)" stroke-width="3" stroke="#848484"><path d="M 44 0 L 227.97195206041587 0"/><polygon points="-18.079611541307905,0 -20.088457268119896,6.696152422706632 0,0 -20.088457268119896,-6.696152422706632" fill="#848484" transform="translate(246.05156360172379 0) rotate(0)" stroke="none"/></g><g transform="translate(743.6397488560733 -892.0149389445172) rotate(347.72921977476227) translate(0 -33)"><g transform="translate(0 0)"><g transform="translate(-54.287109375 0)" fill="#ffffff" stroke="#000000" stroke-width="0"><rect x="0" y="0" width="108.57421875" height="30" rx="5" ry="5" stroke="none"/><text xml:space="preserve" x="5" y="20.5712890625" stroke="none" text-anchor="left" font-family="sans-serif" font-size="20" font-weight="normal" fill="#848484">CALLS_AT</text></g></g></g></g><g class="relationship"><g transform="translate(1027.7628732415149 -594.4323693598529) rotate(-161.99479206440023)" stroke-width="3" stroke="#848484"><path d="M 44 0 L 227.66206065863204 0"/><polygon points="-18.079611541307905,0 -20.088457268119896,6.696152422706632 0,0 -20.088457268119896,-6.696152422706632" fill="#848484" transform="translate(245.74167219993996 0) rotate(0)" stroke="none"/></g><g transform="translate(898.5837025270762 -636.4182080897567) rotate(18.005207935599756) translate(0 -33)"><g transform="translate(0 0)"><g transform="translate(-54.287109375 0)" fill="#ffffff" stroke="#000000" stroke-width="0"><rect x="0" y="0" width="108.57421875" height="30" rx="5" ry="5" stroke="none"/><text xml:space="preserve" x="5" y="20.5712890625" stroke="none" text-anchor="left" font-family="sans-serif" font-size="20" font-weight="normal" fill="#848484">CALLS_AT</text></g></g></g></g><g class="relationship"><g transform="translate(1027.7628732415149 -594.4323693598529) rotate(67.79217992508762)" stroke-width="3" stroke="#848484"><path d="M 44 0 L 229.66206065863204 0"/><polygon points="-18.079611541307905,0 -20.088457268119896,6.696152422706632 0,0 -20.088457268119896,-6.696152422706632" fill="#848484" transform="translate(247.74167219993996 0) rotate(0)" stroke="none"/></g><g transform="translate(1079.4805080423166 -467.75160084468683) rotate(67.79217992508762) translate(0 -33)"><g transform="translate(0 0)"><g transform="translate(-31.669921875 0)" fill="#ffffff" stroke="#000000" stroke-width="0"><rect x="0" y="0" width="63.33984375" height="30" rx="5" ry="5" stroke="none"/><text xml:space="preserve" x="5" y="20.5712890625" stroke="none" text-anchor="left" font-family="sans-serif" font-size="20" font-weight="normal" fill="#848484">NEXT</text></g></g></g></g><g class="relationship"><g transform="translate(1030.0655409282192 -767.3697822132817) rotate(-135)" stroke-width="3" stroke="#848484"><path d="M 44 0 L 155.06798716475097 0"/><polygon points="-18.079611541307905,0 -20.088457268119896,6.696152422706632 0,0 -20.088457268119896,-6.696152422706632" fill="#848484" transform="translate(173.1475987060589 0) rotate(0)" stroke="none"/></g><g transform="translate(959.6843791075432 -837.7509440339577) rotate(45) translate(0 -33)"><g transform="translate(0 0)"><g transform="translate(-31.669921875 0)" fill="#ffffff" stroke="#000000" stroke-width="0"><rect x="0" y="0" width="63.33984375" height="30" rx="5" ry="5" stroke="none"/><text xml:space="preserve" x="5" y="20.5712890625" stroke="none" text-anchor="left" font-family="sans-serif" font-size="20" font-weight="normal" fill="#848484">NEXT</text></g></g></g></g><g class="relationship"><g transform="translate(1030.0655409282192 -767.3697822132817) rotate(163.5204925118198)" stroke-width="3" stroke="#848484"><path d="M 44 0 L 227.66206065863153 0"/><polygon points="-18.079611541307905,0 -20.088457268119896,6.696152422706632 0,0 -20.088457268119896,-6.696152422706632" fill="#848484" transform="translate(245.74167219993944 0) rotate(0)" stroke="none"/></g><g transform="translate(899.8142788596983 -728.8382687485737) rotate(343.5204925118198) translate(0 -33)"><g transform="translate(0 0)"><g transform="translate(-54.287109375 0)" fill="#ffffff" stroke="#000000" stroke-width="0"><rect x="0" y="0" width="108.57421875" height="30" rx="5" ry="5" stroke="none"/><text xml:space="preserve" x="5" y="20.5712890625" stroke="none" text-anchor="left" font-family="sans-serif" font-size="20" font-weight="normal" fill="#848484">CALLS_AT</text></g></g></g></g><g class="node"><g fill="#FDDF8D" stroke="#4CC0F5" stroke-width="6"><circle cx="750.3082504924892" cy="-684.6107238204054" r="38"/></g><g transform="translate(750.3082504924892 -684.6107238204054)"><g transform="translate(-30.40559159102154 -54.40559159102155)"><g transform="translate(0 0)"><g transform="translate(-152.28515625 0)" fill="white"><rect x="0" y="0" width="152.28515625" height="24" rx="0" ry="0" stroke="none"/><g font-family="sans-serif" font-size="20" font-weight="normal" fill="#000000" text-anchor="end"><text xml:space="preserve" x="61.142578125" y="17.5712890625" stroke="none">name:</text><text xml:space="preserve" x="66.69921875" y="17.5712890625" stroke="none" text-anchor="start">Coventry</text></g></g></g></g></g></g><g class="node"><g fill="#57C7E3" stroke="#57C7E3" stroke-width="4"><circle cx="1138.0316421216326" cy="-324.33238434008217" r="37"/></g><g transform="translate(1138.0316421216326 -324.33238434008217)"><g transform="translate(41 -12)"><g transform="translate(0 0)"><g transform="translate(0 0)" fill="white"><rect x="0" y="0" width="138.984375" height="24" rx="0" ry="0" stroke="none"/><g font-family="sans-serif" font-size="20" font-weight="normal" fill="#000000" text-anchor="end"><text xml:space="preserve" x="77.822265625" y="17.5712890625" stroke="none">departs:</text><text xml:space="preserve" x="83.37890625" y="17.5712890625" stroke="none" text-anchor="start">15:54</text></g></g></g></g></g></g><g class="node"><g fill="#FDDF8D" stroke="#4CC0F5" stroke-width="6"><circle cx="928.8743782697208" cy="-203.5753817522152" r="38"/></g><g transform="translate(928.8743782697208 -203.5753817522152)"><g transform="translate(2.6329906181668092e-15 43)"><g transform="translate(0 0)"><g transform="translate(-103.408203125 0)" fill="white"><rect x="0" y="0" width="206.81640625" height="24" rx="0" ry="0" stroke="none"/><g font-family="sans-serif" font-size="20" font-weight="normal" fill="#000000" text-anchor="end"><text xml:space="preserve" x="61.142578125" y="17.5712890625" stroke="none">name:</text><text xml:space="preserve" x="66.69921875" y="17.5712890625" stroke="none" text-anchor="start">London Euston</text></g></g></g></g></g></g><g class="node"><g fill="#FDDF8D" stroke="#FDDF8D" stroke-width="4"><circle cx="593.0939300043443" cy="-859.2710585999575" r="37"/></g><g transform="translate(593.0939300043443 -859.2710585999575)"><g transform="translate(-41 -11.999999999999995)"><g transform="translate(0 0)"><g transform="translate(-215.009765625 0)" fill="white"><rect x="0" y="0" width="215.009765625" height="24" rx="0" ry="0" stroke="none"/><g font-family="sans-serif" font-size="20" font-weight="normal" fill="#000000" text-anchor="end"><text xml:space="preserve" x="61.142578125" y="17.5712890625" stroke="none">name:</text><text xml:space="preserve" x="66.69921875" y="17.5712890625" stroke="none" text-anchor="start">Birmingham Int'l</text></g></g></g></g></g></g><g class="node"><g fill="#57C7E3" stroke="#57C7E3" stroke-width="4"><circle cx="653.2038198660653" cy="-257.8767968561043" r="37"/></g><g transform="translate(653.2038198660653 -257.8767968561043)"><g transform="translate(-28.991378028648445 28.99137802864845)"><g transform="translate(0 0)"><g transform="translate(-138.984375 0)" fill="white"><rect x="0" y="0" width="138.984375" height="24" rx="0" ry="0" stroke="none"/><g font-family="sans-serif" font-size="20" font-weight="normal" fill="#000000" text-anchor="end"><text xml:space="preserve" x="77.822265625" y="17.5712890625" stroke="none">departs:</text><text xml:space="preserve" x="83.37890625" y="17.5712890625" stroke="none" text-anchor="start">08:40</text></g></g></g></g></g></g><g class="node"><g fill="#57C7E3" stroke="#57C7E3" stroke-width="4"><circle cx="1027.7628732415149" cy="-594.4323693598529" r="37"/></g><g transform="translate(1027.7628732415149 -594.4323693598529)"><g transform="translate(28.99137802864845 -52.99137802864844)"><g transform="translate(0 0)"><g transform="translate(0 0)" fill="white"><rect x="0" y="0" width="138.984375" height="24" rx="0" ry="0" stroke="none"/><g font-family="sans-serif" font-size="20" font-weight="normal" fill="#000000" text-anchor="end"><text xml:space="preserve" x="77.822265625" y="17.5712890625" stroke="none">departs:</text><text xml:space="preserve" x="83.37890625" y="17.5712890625" stroke="none" text-anchor="start">14:45</text></g></g></g></g></g></g><g class="node"><g fill="#57C7E3" stroke="#57C7E3" stroke-width="4"><circle cx="558.3749256109247" cy="-522.3581407486662" r="37"/></g><g transform="translate(558.3749256109247 -522.3581407486662)"><g transform="translate(-41 -11.999999999999995)"><g transform="translate(0 0)"><g transform="translate(-132.28515625 0)" fill="white"><rect x="0" y="0" width="132.28515625" height="24" rx="0" ry="0" stroke="none"/><g font-family="sans-serif" font-size="20" font-weight="normal" fill="#000000" text-anchor="end"><text xml:space="preserve" x="71.123046875" y="17.5712890625" stroke="none">arrives:</text><text xml:space="preserve" x="76.6796875" y="17.5712890625" stroke="none" text-anchor="start">09:34</text></g></g></g></g></g></g><g class="node"><g fill="#57C7E3" stroke="#57C7E3" stroke-width="4"><circle cx="1030.0655409282192" cy="-767.3697822132817" r="37"/></g><g transform="translate(1030.0655409282192 -767.3697822132817)"><g transform="translate(41 -12)"><g transform="translate(0 0)"><g transform="translate(0 0)" fill="white"><rect x="0" y="0" width="137.509765625" height="24" rx="0" ry="0" stroke="none"/><g font-family="sans-serif" font-size="20" font-weight="normal" fill="#000000" text-anchor="end"><text xml:space="preserve" x="77.822265625" y="17.5712890625" stroke="none">departs:</text><text xml:space="preserve" x="83.37890625" y="17.5712890625" stroke="none" text-anchor="start">11:33</text></g></g></g></g></g></g><g class="node"><g fill="#57C7E3" stroke="#57C7E3" stroke-width="4"><circle cx="876.5190013647898" cy="-920.9163217767111" r="37"/></g><g transform="translate(876.5190013647898 -920.9163217767111)"><g transform="translate(2.510525938252074e-15 -65)"><g transform="translate(0 0)"><g transform="translate(-69.4921875 0)" fill="white"><rect x="0" y="0" width="138.984375" height="24" rx="0" ry="0" stroke="none"/><g font-family="sans-serif" font-size="20" font-weight="normal" fill="#000000" text-anchor="end"><text xml:space="preserve" x="77.822265625" y="17.5712890625" stroke="none">departs:</text><text xml:space="preserve" x="83.37890625" y="17.5712890625" stroke="none" text-anchor="start">12:03</text></g></g></g></g></g></g></g></svg>