<svg xmlns="http://www.w3.org/2000/svg" width="1343" height="690" viewBox="0 0 1343 690"><defs><style type="text/css"/></defs><g transform="translate(596.8321958955725 392.742510238018) scale(1)"><g class="relationship"><g transform="translate(64.95691575748893 -170.93189467514136) rotate(-150.00000000000003)" stroke-width="3" stroke="#848484"><path d="M 59 0 L 196.80835774407146 0"/><polygon points="-18.079611541307905,0 -20.088457268119896,6.696152422706632 0,0 -20.088457268119896,-6.696152422706632" fill="#848484" transform="translate(214.88796928537937 0) rotate(0)" stroke="none"/></g><g transform="translate(-45.81135239588289 -234.88398411115924) rotate(29.999999999999993) translate(0 -29)"><g transform="translate(0 0)"><g transform="translate(-26.3359375 0)" fill="#ffffff" stroke="#000000" stroke-width="0"><rect x="0" y="0" width="52.671875" height="26" rx="5" ry="5" stroke="none"/><text xml:space="preserve" x="5" y="17.45703125" stroke="none" text-anchor="left" font-family="sans-serif" font-size="16" font-weight="normal" fill="#848484">NEXT</text></g></g></g></g><g class="relationship"><g transform="translate(-172.23702343458166 -307.87587931783105) rotate(155.7959237176925)" stroke-width="3" stroke="#848484"><path d="M 59 0 L 199.989288707857 0"/><polygon points="-18.079611541307905,0 -20.088457268119896,6.696152422706632 0,0 -20.088457268119896,-6.696152422706632" fill="#848484" transform="translate(218.06890024916493 0) rotate(0)" stroke="none"/></g><g transform="translate(-290.3479166330029 -254.78463875762614) rotate(335.79592371769246) translate(0 -29)"><g transform="translate(0 0)"><g transform="translate(-26.3359375 0)" fill="#ffffff" stroke="#000000" stroke-width="0"><rect x="0" y="0" width="52.671875" height="26" rx="5" ry="5" stroke="none"/><text xml:space="preserve" x="5" y="17.45703125" stroke="none" text-anchor="left" font-family="sans-serif" font-size="16" font-weight="normal" fill="#848484">NEXT</text></g></g></g></g><g class="relationship"><g transform="translate(64.95691575748893 -170.93189467514136) rotate(80.36438152649811)" stroke-width="3" stroke="#848484"><path d="M 59 0 L 127.74125758070977 0"/><polygon points="-18.079611541307905,0 -20.088457268119896,6.696152422706632 0,0 -20.088457268119896,-6.696152422706632" fill="#848484" transform="translate(145.82086912201768 0) rotate(0)" stroke="none"/></g><g transform="translate(80.58544738308564 -78.87852254823896) rotate(80.36438152649811) translate(0 -29)"><g transform="translate(0 0)"><g transform="translate(-44.4296875 0)" fill="#ffffff" stroke="#000000" stroke-width="0"><rect x="0" y="0" width="88.859375" height="26" rx="5" ry="5" stroke="none"/><text xml:space="preserve" x="5" y="17.45703125" stroke="none" text-anchor="left" font-family="sans-serif" font-size="16" font-weight="normal" fill="#848484">CALLS_AT</text></g></g></g></g><g class="relationship"><g transform="translate(-172.23702343458166 -307.87587931783105) rotate(80.15515216917186)" stroke-width="3" stroke="#848484"><path d="M 59 0 L 133.51323317711376 0"/><polygon points="-18.079611541307905,0 -20.088457268119896,6.696152422706632 0,0 -20.088457268119896,-6.696152422706632" fill="#848484" transform="translate(151.59284471842167 0) rotate(0)" stroke="none"/></g><g transform="translate(-155.77899326295233 -213.03670239212073) rotate(80.15515216917186) translate(0 -29)"><g transform="translate(0 0)"><g transform="translate(-44.4296875 0)" fill="#ffffff" stroke="#000000" stroke-width="0"><rect x="0" y="0" width="88.859375" height="26" rx="5" ry="5" stroke="none"/><text xml:space="preserve" x="5" y="17.45703125" stroke="none" text-anchor="left" font-family="sans-serif" font-size="16" font-weight="normal" fill="#848484">CALLS_AT</text></g></g></g></g><g class="relationship"><g transform="translate(-424.9490598991258 -194.28097577359364) rotate(82.5439436906107)" stroke-width="3" stroke="#848484"><path d="M 59 0 L 148.12182251486306 0"/><polygon points="-18.079611541307905,0 -20.088457268119896,6.696152422706632 0,0 -20.088457268119896,-6.696152422706632" fill="#848484" transform="translate(166.20143405617097 0) rotate(0)" stroke="none"/></g><g transform="translate(-411.5104002389062 -91.59570532545978) rotate(82.5439436906107) translate(0 -29)"><g transform="translate(0 0)"><g transform="translate(-44.4296875 0)" fill="#ffffff" stroke="#000000" stroke-width="0"><rect x="0" y="0" width="88.859375" height="26" rx="5" ry="5" stroke="none"/><text xml:space="preserve" x="5" y="17.45703125" stroke="none" text-anchor="left" font-family="sans-serif" font-size="16" font-weight="normal" fill="#848484">CALLS_AT</text></g></g></g></g><g class="relationship"><g transform="translate(562.8415507966073 -329.14453049157135) rotate(75.33580835540732)" stroke-width="3" stroke="#848484"><path d="M 59 0 L 159.38327654176962 0"/><polygon points="-18.079611541307905,0 -20.088457268119896,6.696152422706632 0,0 -20.088457268119896,-6.696152422706632" fill="#848484" transform="translate(177.46288808307753 0) rotate(0)" stroke="none"/></g><g transform="translate(590.4837828915274 -223.5096836223193) rotate(75.33580835540732) translate(0 -29)"><g transform="translate(0 0)"><g transform="translate(-44.4296875 0)" fill="#ffffff" stroke="#000000" stroke-width="0"><rect x="0" y="0" width="88.859375" height="26" rx="5" ry="5" stroke="none"/><text xml:space="preserve" x="5" y="17.45703125" stroke="none" text-anchor="left" font-family="sans-serif" font-size="16" font-weight="normal" fill="#848484">CALLS_AT</text></g></g></g></g><g class="relationship"><g transform="translate(562.8415507966073 -329.14453049157135) rotate(154.99385686187824)" stroke-width="3" stroke="#848484"><path d="M 59 0 L 175.46740444202163 0"/><polygon points="-18.079611541307905,0 -20.088457268119896,6.696152422706632 0,0 -20.088457268119896,-6.696152422706632" fill="#848484" transform="translate(193.54701598332954 0) rotate(0)" stroke="none"/></g><g transform="translate(456.5970463075063 -279.5880354348178) rotate(334.9938568618782) translate(0 -29)"><g transform="translate(0 0)"><g transform="translate(-26.3359375 0)" fill="#ffffff" stroke="#000000" stroke-width="0"><rect x="0" y="0" width="52.671875" height="26" rx="5" ry="5" stroke="none"/><text xml:space="preserve" x="5" y="17.45703125" stroke="none" text-anchor="left" font-family="sans-serif" font-size="16" font-weight="normal" fill="#848484">NEXT</text></g></g></g></g><g class="relationship"><g transform="translate(333.967668414506 -222.38900957846732) rotate(169.17111457450642)" stroke-width="3" stroke="#848484"><path d="M 59 0 L 196.80835774407146 0"/><polygon points="-18.079611541307905,0 -20.088457268119896,6.696152422706632 0,0 -20.088457268119896,-6.696152422706632" fill="#848484" transform="translate(214.88796928537937 0) rotate(0)" stroke="none"/></g><g transform="translate(208.34112294732324 -198.35881925646677) rotate(349.1711145745064) translate(0 -29)"><g transform="translate(0 0)"><g transform="translate(-26.3359375 0)" fill="#ffffff" stroke="#000000" stroke-width="0"><rect x="0" y="0" width="52.671875" height="26" rx="5" ry="5" stroke="none"/><text xml:space="preserve" x="5" y="17.45703125" stroke="none" text-anchor="left" font-family="sans-serif" font-size="16" font-weight="normal" fill="#848484">NEXT</text></g></g></g></g><g class="relationship"><g transform="translate(333.967668414506 -222.38900957846732) rotate(73.98908754233051)" stroke-width="3" stroke="#848484"><path d="M 59 0 L 173.4674044420216 0"/><polygon points="-18.079611541307905,0 -20.088457268119896,6.696152422706632 0,0 -20.088457268119896,-6.696152422706632" fill="#848484" transform="translate(191.54701598332952 0) rotate(0)" stroke="none"/></g><g transform="translate(366.02729826948615 -110.66410785300471) rotate(73.98908754233051) translate(0 -29)"><g transform="translate(0 0)"><g transform="translate(-44.4296875 0)" fill="#ffffff" stroke="#000000" stroke-width="0"><rect x="0" y="0" width="88.859375" height="26" rx="5" ry="5" stroke="none"/><text xml:space="preserve" x="5" y="17.45703125" stroke="none" text-anchor="left" font-family="sans-serif" font-size="16" font-weight="normal" fill="#848484">CALLS_AT</text></g></g></g></g><g class="relationship"><g transform="translate(333.967668414506 232.9306888569579) rotate(-71.85634550706581)" stroke-width="3" stroke="#848484"><path d="M 59 0 L 144.61179345511528 0"/><polygon points="-18.079611541307905,0 -20.088457268119896,6.696152422706632 0,0 -20.088457268119896,-6.696152422706632" fill="#848484" transform="translate(162.6914049964232 0) rotate(0)" stroke="none"/></g><g transform="translate(365.67008077407326 136.18670889393337) rotate(-71.85634550706581) translate(0 -29)"><g transform="translate(0 0)"><g transform="translate(-44.4296875 0)" fill="#ffffff" stroke="#000000" stroke-width="0"><rect x="0" y="0" width="88.859375" height="26" rx="5" ry="5" stroke="none"/><text xml:space="preserve" x="5" y="17.45703125" stroke="none" text-anchor="left" font-family="sans-serif" font-size="16" font-weight="normal" fill="#848484">CALLS_AT</text></g></g></g></g><g class="relationship"><g transform="translate(333.967668414506 232.9306888569579) rotate(180)" stroke-width="3" stroke="#848484"><path d="M 59 0 L 625.9269347297522 0"/><polygon points="-18.079611541307905,0 -20.088457268119896,6.696152422706632 0,0 -20.088457268119896,-6.696152422706632" fill="#848484" transform="translate(644.0065462710602 0) rotate(0)" stroke="none"/></g><g transform="translate(-8.495798950370101 232.93068885695791) rotate(360) translate(0 -29)"><g transform="translate(0 0)"><g transform="translate(-26.3359375 0)" fill="#ffffff" stroke="#000000" stroke-width="0"><rect x="0" y="0" width="52.671875" height="26" rx="5" ry="5" stroke="none"/><text xml:space="preserve" x="5" y="17.45703125" stroke="none" text-anchor="left" font-family="sans-serif" font-size="16" font-weight="normal" fill="#848484">NEXT</text></g></g></g></g><g class="relationship"><g transform="translate(-369.03887785655417 232.9306888569579) rotate(-97.45605630938931)" stroke-width="3" stroke="#848484"><path d="M 59 0 L 124.57363390877916 0"/><polygon points="-18.079611541307905,0 -20.088457268119896,6.696152422706632 0,0 -20.088457268119896,-6.696152422706632" fill="#848484" transform="translate(142.65324545008707 0) rotate(0)" stroke="none"/></g><g transform="translate(-380.9496633002889 141.9199589580502) rotate(82.5439436906107) translate(0 -29)"><g transform="translate(0 0)"><g transform="translate(-44.4296875 0)" fill="#ffffff" stroke="#000000" stroke-width="0"><rect x="0" y="0" width="88.859375" height="26" rx="5" ry="5" stroke="none"/><text xml:space="preserve" x="5" y="17.45703125" stroke="none" text-anchor="left" font-family="sans-serif" font-size="16" font-weight="normal" fill="#848484">CALLS_AT</text></g></g></g></g><g class="node"><g fill="#57C7E3" stroke="#57C7E3" stroke-width="4"><circle cx="64.95691575748893" cy="-170.93189467514136" r="52"/></g><g transform="translate(64.95691575748893 -170.93189467514136)"><g transform="translate(3.429011037612589e-15 -80)"><g transform="translate(0 0)"><g transform="translate(-68.7548828125 0)" fill="white"><rect x="0" y="0" width="137.509765625" height="24" rx="0" ry="0" stroke="none"/><g font-family="sans-serif" font-size="20" font-weight="normal" fill="#000000" text-anchor="end"><text xml:space="preserve" x="77.822265625" y="17.5712890625" stroke="none">departs:</text><text xml:space="preserve" x="83.37890625" y="17.5712890625" stroke="none" text-anchor="start">17:11</text></g></g></g></g></g></g><g class="node"><g fill="#FFE081" stroke="#4CC0F5" stroke-width="6"><circle cx="403.6252952361159" cy="20.36150083843259" r="53"/></g><g transform="translate(403.6252952361159 20.36150083843259)"><g transform="translate(58 -12)"><g transform="translate(0 0)"><g transform="translate(0 0)" fill="white"><rect x="0" y="0" width="186.71875" height="24" rx="0" ry="0" stroke="none"/><g font-family="sans-serif" font-size="20" font-weight="normal" fill="#000000" text-anchor="end"><text xml:space="preserve" x="61.142578125" y="17.5712890625" stroke="none">name:</text><text xml:space="preserve" x="66.69921875" y="17.5712890625" stroke="none" text-anchor="start">Denmark Hill</text></g></g></g></g></g></g><g class="node"><g fill="#57C7E3" stroke="#57C7E3" stroke-width="4"><circle cx="-172.23702343458166" cy="-307.87587931783105" r="52"/></g><g transform="translate(-172.23702343458166 -307.87587931783105)"><g transform="translate(3.429011037612589e-15 -80)"><g transform="translate(0 0)"><g transform="translate(-69.4921875 0)" fill="white"><rect x="0" y="0" width="138.984375" height="24" rx="0" ry="0" stroke="none"/><g font-family="sans-serif" font-size="20" font-weight="normal" fill="#000000" text-anchor="end"><text xml:space="preserve" x="77.822265625" y="17.5712890625" stroke="none">departs:</text><text xml:space="preserve" x="83.37890625" y="17.5712890625" stroke="none" text-anchor="start">17:13</text></g></g></g></g></g></g><g class="node"><g fill="#57C7E3" stroke="#57C7E3" stroke-width="4"><circle cx="-424.9490598991258" cy="-194.28097577359364" r="52"/></g><g transform="translate(-424.9490598991258 -194.28097577359364)"><g transform="translate(-39.597979746446654 -63.59797974644666)"><g transform="translate(0 0)"><g transform="translate(-132.28515625 0)" fill="white"><rect x="0" y="0" width="132.28515625" height="24" rx="0" ry="0" stroke="none"/><g font-family="sans-serif" font-size="20" font-weight="normal" fill="#000000" text-anchor="end"><text xml:space="preserve" x="71.123046875" y="17.5712890625" stroke="none">arrives:</text><text xml:space="preserve" x="76.6796875" y="17.5712890625" stroke="none" text-anchor="start">17:19</text></g></g></g></g></g></g><g class="node"><g fill="#FFE081" stroke="#FDDF8D" stroke-width="4"><circle cx="-136.22969723569807" cy="-100.38414765942386" r="52"/></g><g transform="translate(-136.22969723569807 -100.38414765942386)"><g transform="translate(3.429011037612589e-15 56)"><g transform="translate(0 0)"><g transform="translate(-118.0224609375 0)" fill="white"><rect x="0" y="0" width="236.044921875" height="24" rx="0" ry="0" stroke="none"/><g font-family="sans-serif" font-size="20" font-weight="normal" fill="#000000" text-anchor="end"><text xml:space="preserve" x="61.142578125" y="17.5712890625" stroke="none">name:</text><text xml:space="preserve" x="66.69921875" y="17.5712890625" stroke="none" text-anchor="start">Wandsworth Road</text></g></g></g></g></g></g><g class="node"><g fill="#FFE081" stroke="#FDDF8D" stroke-width="4"><circle cx="99.24017455231802" cy="30.999397090908275" r="52"/></g><g transform="translate(99.24017455231802 30.999397090908275)"><g transform="translate(3.429011037612589e-15 56)"><g transform="translate(0 0)"><g transform="translate(-128.9501953125 0)" fill="white"><rect x="0" y="0" width="257.900390625" height="24" rx="0" ry="0" stroke="none"/><g font-family="sans-serif" font-size="20" font-weight="normal" fill="#000000" text-anchor="end"><text xml:space="preserve" x="61.142578125" y="17.5712890625" stroke="none">name:</text><text xml:space="preserve" x="66.69921875" y="17.5712890625" stroke="none" text-anchor="start">Clapham High Street</text></g></g></g></g></g></g><g class="node"><g fill="#FFE081" stroke="#FDDF8D" stroke-width="4"><circle cx="622.7029297239204" cy="-100.38414765942386" r="52"/></g><g transform="translate(622.7029297239204 -100.38414765942386)"><g transform="translate(3.429011037612589e-15 56)"><g transform="translate(0 0)"><g transform="translate(-98.3740234375 0)" fill="white"><rect x="0" y="0" width="196.748046875" height="24" rx="0" ry="0" stroke="none"/><g font-family="sans-serif" font-size="20" font-weight="normal" fill="#000000" text-anchor="end"><text xml:space="preserve" x="61.142578125" y="17.5712890625" stroke="none">name:</text><text xml:space="preserve" x="66.69921875" y="17.5712890625" stroke="none" text-anchor="start">Peckham Rye</text></g></g></g></g></g></g><g class="node"><g fill="#FFE081" stroke="#4CC0F5" stroke-width="6"><circle cx="-395.4660946613551" cy="30.999397090908275" r="53"/></g><g transform="translate(-395.4660946613551 30.999397090908275)"><g transform="translate(58 -12)"><g transform="translate(0 0)"><g transform="translate(0 0)" fill="white"><rect x="0" y="0" width="232.34375" height="24" rx="0" ry="0" stroke="none"/><g font-family="sans-serif" font-size="20" font-weight="normal" fill="#000000" text-anchor="end"><text xml:space="preserve" x="61.142578125" y="17.5712890625" stroke="none">name:</text><text xml:space="preserve" x="66.69921875" y="17.5712890625" stroke="none" text-anchor="start">Clapham Junction</text></g></g></g></g></g></g><g class="node"><g fill="#57C7E3" stroke="#57C7E3" stroke-width="4"><circle cx="562.8415507966073" cy="-329.14453049157135" r="52"/></g><g transform="translate(562.8415507966073 -329.14453049157135)"><g transform="translate(39.59797974644666 -63.597979746446654)"><g transform="translate(0 0)"><g transform="translate(0 0)" fill="white"><rect x="0" y="0" width="138.984375" height="24" rx="0" ry="0" stroke="none"/><g font-family="sans-serif" font-size="20" font-weight="normal" fill="#000000" text-anchor="end"><text xml:space="preserve" x="77.822265625" y="17.5712890625" stroke="none">departs:</text><text xml:space="preserve" x="83.37890625" y="17.5712890625" stroke="none" text-anchor="start">17:01</text></g></g></g></g></g></g><g class="node"><g fill="#57C7E3" stroke="#57C7E3" stroke-width="4"><circle cx="333.967668414506" cy="-222.38900957846732" r="52"/></g><g transform="translate(333.967668414506 -222.38900957846732)"><g transform="translate(3.429011037612589e-15 -80)"><g transform="translate(0 0)"><g transform="translate(-69.4921875 0)" fill="white"><rect x="0" y="0" width="138.984375" height="24" rx="0" ry="0" stroke="none"/><g font-family="sans-serif" font-size="20" font-weight="normal" fill="#000000" text-anchor="end"><text xml:space="preserve" x="77.822265625" y="17.5712890625" stroke="none">departs:</text><text xml:space="preserve" x="83.37890625" y="17.5712890625" stroke="none" text-anchor="start">17:07</text></g></g></g></g></g></g><g class="node"><g fill="#57C7E3" stroke="#57C7E3" stroke-width="4"><circle cx="333.967668414506" cy="232.9306888569579" r="52"/></g><g transform="translate(333.967668414506 232.9306888569579)"><g transform="translate(39.59797974644666 39.597979746446654)"><g transform="translate(0 0)"><g transform="translate(0 0)" fill="white"><rect x="0" y="0" width="138.984375" height="24" rx="0" ry="0" stroke="none"/><g font-family="sans-serif" font-size="20" font-weight="normal" fill="#000000" text-anchor="end"><text xml:space="preserve" x="77.822265625" y="17.5712890625" stroke="none">departs:</text><text xml:space="preserve" x="83.37890625" y="17.5712890625" stroke="none" text-anchor="start">17:10</text></g></g></g></g></g></g><g class="node"><g fill="#57C7E3" stroke="#57C7E3" stroke-width="4"><circle cx="-369.03887785655417" cy="232.9306888569579" r="52"/></g><g transform="translate(-369.03887785655417 232.9306888569579)"><g transform="translate(-39.597979746446654 39.59797974644666)"><g transform="translate(0 0)"><g transform="translate(-132.28515625 0)" fill="white"><rect x="0" y="0" width="132.28515625" height="24" rx="0" ry="0" stroke="none"/><g font-family="sans-serif" font-size="20" font-weight="normal" fill="#000000" text-anchor="end"><text xml:space="preserve" x="71.123046875" y="17.5712890625" stroke="none">arrives:</text><text xml:space="preserve" x="76.6796875" y="17.5712890625" stroke="none" text-anchor="start">17:17</text></g></g></g></g></g></g><g class="node"><g fill="#FFE081" stroke="#FDDF8D" stroke-width="4"><circle cx="711.3350647124668" cy="118.73457340934188" r="32"/></g><g transform="translate(711.3350647124668 118.73457340934188)"><g transform="translate(-25.45584412271571 -49.45584412271572)"><g transform="translate(0 0)"><g fill="#000000" font-family="sans-serif" font-size="20" font-weight="normal" text-anchor="end"><text xml:space="preserve" x="0" y="17.5712890625" stroke="none">Station</text></g></g></g></g></g><g class="node"><g fill="#57C7E3" stroke="#57C7E3" stroke-width="4"><circle cx="711.3350647124668" cy="209.62549569722873" r="32"/></g><g transform="translate(711.3350647124668 209.62549569722873)"><g transform="translate(-25.45584412271571 -49.45584412271572)"><g transform="translate(0 0)"><g fill="#000000" font-family="sans-serif" font-size="20" font-weight="normal" text-anchor="end"><text xml:space="preserve" x="0" y="17.5712890625" stroke="none">Stop</text></g></g></g></g></g></g></svg>