<svg xmlns="http://www.w3.org/2000/svg" width="1184" height="959" viewBox="0 0 1184 959"><defs><style type="text/css"/></defs><g transform="translate(536.85346008234 398.2778457772339) scale(1)"><g class="relationship"><g transform="translate(52.22239884941598 -231.25524288901624) rotate(167.0612310030202)" stroke-width="15" stroke="#4682b4"><path d="M 35 0 L 538.6406468036279 0"/></g></g><g class="relationship"><g transform="translate(-506.85346008234 -102.8115757621243) rotate(15.823126256029948)" stroke-width="15" stroke="#4682b4"><path d="M 35 0 L 339.89588823174137 0"/></g></g><g class="relationship"><g transform="translate(52.22239884941598 -231.25524288901624) rotate(130.69735227314087)" stroke-width="15" stroke="#c0c0c0"><path d="M 35 0 L 269.24270045991386 0"/></g></g><g class="relationship"><g transform="translate(161.7166323576562 48.560403038965504) rotate(-170.92988730532528)" stroke-width="15" stroke="#c0c0c0"><path d="M 35 0 L 276.77817407764087 0"/></g></g><g class="relationship"><g transform="translate(52.22239884941598 -231.25524288901624) rotate(-150.00000000000003)" stroke-width="15" stroke="#c0c0c0"><path d="M 35 0 L 239.0452057764353 0"/></g></g><g class="relationship"><g transform="translate(616.7865556696206 -290.8431480725609) rotate(173.97492462985673)" stroke-width="15" stroke="#4682b4"><path d="M 35 0 L 532.7001018233763 0"/></g></g><g class="relationship"><g transform="translate(616.7865556696206 -290.8431480725609) rotate(102.15287771809908)" stroke-width="15" stroke="#d2691e"><path d="M 35 0 L 805.105152934038 0"/></g></g><g class="relationship"><g transform="translate(439.92689625432973 530.434715295149) rotate(-120.00000000000001)" stroke-width="15" stroke="#d2691e"><path d="M 35 0 L 209.6423537157059 0"/></g></g><g class="relationship"><g transform="translate(317.60571939647673 318.56822213572934) rotate(-120.00000000000001)" stroke-width="15" stroke="#a52a2a"><path d="M 35 0 L 276.77817407764087 0"/></g></g><g class="relationship"><g transform="translate(317.60571939647673 318.56822213572934) rotate(-145.46494365266267)" stroke-width="15" stroke="#a52a2a"><path d="M 34.199498759491014 -7.442733677861443 L 53.23393895772955 -11.585141439418297 A 40 40 0 0 1 61.73992030385691 -12.5 L 281.4884639809867 -12.5 L 501.23700765811645 -12.5 A 40 40 0 0 1 509.74298900424384 -11.585141439418297 L 528.7774292024824 -7.442733677861443 L 528.7774292024824 -7.442733677861443"/></g></g><g class="relationship"><g transform="translate(-146.16312127539717 -0.589237183909674) rotate(34.535056347337346)" stroke-width="15" stroke="#d2691e"><path d="M 34.199498759491014 -7.442733677861443 L 53.23393895772955 -11.585141439418297 A 40 40 0 0 1 61.73992030385691 -12.5 L 281.4884639809867 -12.5 L 501.23700765811645 -12.5 A 40 40 0 0 1 509.74298900424384 -11.585141439418297 L 528.7774292024824 -7.442733677861443 L 528.7774292024824 -7.442733677861443"/></g></g><g class="relationship"><g transform="translate(616.7865556696206 -290.8431480725609) rotate(143.28342075714735)" stroke-width="15" stroke="#a52a2a"><path d="M 35 0 L 532.7001018233763 0"/></g></g><g class="relationship"><g transform="translate(439.92689625432973 118.36082769690358) rotate(-165.91572421321413)" stroke-width="15" stroke="#c0c0c0"><path d="M 35 0 L 251.83279139576285 0"/></g></g><g class="node"><g fill="#c0c0c0" stroke="#c0c0c0" stroke-width="5"><circle cx="-185.107711138311" cy="-368.2778457772339" r="27.5"/></g></g><g class="node"><g fill="#c0c0c0" stroke="#c0c0c0" stroke-width="5"><circle cx="52.22239884941598" cy="-231.25524288901624" r="27.5"/></g></g><g class="node"><g fill="#c0c0c0" stroke="#c0c0c0" stroke-width="5"><circle cx="161.7166323576562" cy="48.560403038965504" r="27.5"/></g></g><g class="node"><g fill="#c0c0c0" stroke="#c0c0c0" stroke-width="5"><circle cx="439.92689625432973" cy="118.36082769690358" r="27.5"/></g></g><g class="node"><g fill="#c0c0c0" stroke="#c0c0c0" stroke-width="5"><circle cx="-506.85346008234" cy="-102.8115757621243" r="27.5"/></g></g><g class="node"><g fill="#708090" stroke="#708090" stroke-width="5"><circle cx="-146.16312127539717" cy="-0.589237183909674" r="27.5"/></g></g><g class="node"><g fill="#708090" stroke="#708090" stroke-width="5"><circle cx="616.7865556696206" cy="-290.8431480725609" r="27.5"/></g></g><g class="node"><g fill="#c0c0c0" stroke="#c0c0c0" stroke-width="5"><circle cx="439.92689625432973" cy="530.434715295149" r="27.5"/></g></g><g class="node"><g fill="#c0c0c0" stroke="#c0c0c0" stroke-width="5"><circle cx="317.60571939647673" cy="318.56822213572934" r="27.5"/></g></g></g></svg>