<svg xmlns="http://www.w3.org/2000/svg" width="714" height="88" viewBox="0 0 714 88"><defs><style type="text/css"/></defs><g transform="translate(619.8000396796516 520.1468883381424) scale(1)"><g class="relationship"><g transform="translate(-356.7733593447279 -476.1468883381424) rotate(180)" stroke-width="3" stroke="#848484"><path d="M 49 0 L 151.94706879361578 0"/><polygon points="-18.079611541307905,0 -20.088457268119896,6.696152422706632 0,0 -20.088457268119896,-6.696152422706632" fill="#848484" transform="translate(170.0266803349237 0) rotate(0)" stroke="none"/></g><g transform="translate(-457.2468937415358 -476.1468883381424) rotate(360) translate(0 -29)"><g transform="translate(0 0)"><g transform="translate(-46.65234375 0)" fill="#ffffff" stroke="#000000" stroke-width="0"><rect x="0" y="0" width="93.3046875" height="26" rx="5" ry="5" stroke="none"/><text xml:space="preserve" x="5" y="17.45703125" stroke="none" text-anchor="left" font-family="sans-serif" font-size="16" font-weight="normal" fill="#848484">CALLS_ AT</text></g></g></g></g><g class="relationship"><g transform="translate(-158.8401141258651 -476.1468883381424) rotate(0)" stroke-width="3" stroke="#848484"><path d="M 49 0 L 141.90369976340784 0"/><polygon points="-18.079611541307905,0 -20.088457268119896,6.696152422706632 0,0 -20.088457268119896,-6.696152422706632" fill="#848484" transform="translate(159.98331130471576 0) rotate(0)" stroke="none"/></g><g transform="translate(-63.38826424416119 -476.1468883381424) rotate(0) translate(0 -29)"><g transform="translate(0 0)"><g transform="translate(-44.4296875 0)" fill="#ffffff" stroke="#000000" stroke-width="0"><rect x="0" y="0" width="88.859375" height="26" rx="5" ry="5" stroke="none"/><text xml:space="preserve" x="5" y="17.45703125" stroke="none" text-anchor="left" font-family="sans-serif" font-size="16" font-weight="normal" fill="#848484">CALLS_AT</text></g></g></g></g><g class="relationship"><g transform="translate(-356.7733593447279 -476.1468883381424) rotate(0)" stroke-width="3" stroke="#848484"><path d="M 49 0 L 130.85363367755488 0"/><polygon points="-18.079611541307905,0 -20.088457268119896,6.696152422706632 0,0 -20.088457268119896,-6.696152422706632" fill="#848484" transform="translate(148.9332452188628 0) rotate(0)" stroke="none"/></g><g transform="translate(-266.8465425059505 -476.1468883381424) rotate(0) translate(0 -29)"><g transform="translate(0 0)"><g transform="translate(-26.3359375 0)" fill="#ffffff" stroke="#000000" stroke-width="0"><rect x="0" y="0" width="52.671875" height="26" rx="5" ry="5" stroke="none"/><text xml:space="preserve" x="5" y="17.45703125" stroke="none" text-anchor="left" font-family="sans-serif" font-size="16" font-weight="normal" fill="#848484">NEXT</text></g></g></g></g><g class="node"><g fill="#FFE081" stroke="#FFE081" stroke-width="4"><circle cx="-575.8000396796516" cy="-476.1468883381424" r="42"/></g></g><g class="node"><g fill="#FFE081" stroke="#FFE081" stroke-width="4"><circle cx="50.14319717885064" cy="-476.1468883381424" r="42"/></g></g><g class="node"><g fill="#57C7E3" stroke="#57C7E3" stroke-width="4"><circle cx="-356.7733593447279" cy="-476.1468883381424" r="42"/></g><g transform="translate(-356.7733593447279 -476.1468883381424)"><g transform="scale(1) translate(0 -4.5)"><g transform="translate(0 0)"><g transform="translate(-13.341064453125 0)"><g fill="#6BC5E0" stroke="#000000" stroke-width="4" font-family="sans-serif" font-size="5" font-weight="normal"><text xml:space="preserve" x="0" y="5.892822265625" stroke="none">CallingPoint</text></g></g></g></g></g></g><g class="node"><g fill="#57C7E3" stroke="#57C7E3" stroke-width="4"><circle cx="-158.8401141258651" cy="-476.1468883381424" r="42"/></g><g transform="translate(-158.8401141258651 -476.1468883381424)"><g transform="scale(1) translate(0 -4.5)"><g transform="translate(0 0)"><g transform="translate(-13.341064453125 0)"><g fill="#6BC5E0" stroke="#000000" stroke-width="4" font-family="sans-serif" font-size="5" font-weight="normal"><text xml:space="preserve" x="0" y="5.892822265625" stroke="none">CallingPoint</text></g></g></g></g></g></g></g></svg>