<svg xmlns="http://www.w3.org/2000/svg" width="658" height="798" viewBox="0 0 658 798"><defs><style type="text/css"/></defs><g transform="translate(-519.3749256109247 959.9163217767111) scale(1)"><g class="relationship"><g transform="translate(653.2038198660653 -257.8767968561043) rotate(11.143423818553126)" stroke-width="6" stroke="#4CC0F5"><path d="M 44 0 L 207.0269256378131 0"/><polygon points="-27.94086691654374,0 -31.0454076850486,10.348469228349533 0,0 -31.0454076850486,-10.348469228349533" fill="#4CC0F5" transform="translate(234.96779255435683 0) rotate(0)" stroke="none"/></g></g><g class="relationship"><g transform="translate(1138.0316421216326 -324.33238434008217) rotate(149.99999999999997)" stroke-width="6" stroke="#4CC0F5"><path d="M 44 0 L 167.57313825919002 0"/><polygon points="-27.94086691654374,0 -31.0454076850486,10.348469228349533 0,0 -31.0454076850486,-10.348469228349533" fill="#4CC0F5" transform="translate(195.51400517573376 0) rotate(0)" stroke="none"/></g></g><g class="relationship"><g transform="translate(653.2038198660653 -257.8767968561043) rotate(-109.72512407648885)" stroke-width="6" stroke="#4CC0F5"><path d="M 44 0 L 209.02692563781326 0"/><polygon points="-27.94086691654374,0 -31.0454076850486,10.348469228349533 0,0 -31.0454076850486,-10.348469228349533" fill="#4CC0F5" transform="translate(236.967792554357 0) rotate(0)" stroke="none"/></g></g><g class="relationship"><g transform="translate(558.3749256109247 -522.3581407486662) rotate(-40.20981169452754)" stroke-width="6" stroke="#4CC0F5"><path d="M 44 0 L 177.3842251724552 0"/><polygon points="-27.94086691654374,0 -31.0454076850486,10.348469228349533 0,0 -31.0454076850486,-10.348469228349533" fill="#4CC0F5" transform="translate(205.32509208899893 0) rotate(0)" stroke="none"/></g></g><g class="relationship"><g transform="translate(876.5190013647898 -920.9163217767111) rotate(167.72921977476224)" stroke-width="2" stroke="#cccccc"><path d="M 44 0 L 231.8964337465017 0"/><polygon points="-14.155129855222071,0 -15.727922061357857,5.242640687119286 0,0 -15.727922061357857,-5.242640687119286" fill="#cccccc" transform="translate(246.05156360172379 0) rotate(0)" stroke="none"/></g></g><g class="relationship"><g transform="translate(1027.7628732415149 -594.4323693598529) rotate(-161.99479206440023)" stroke-width="6" stroke="#4CC0F5"><path d="M 44 0 L 217.80080528339622 0"/><polygon points="-27.94086691654374,0 -31.0454076850486,10.348469228349533 0,0 -31.0454076850486,-10.348469228349533" fill="#4CC0F5" transform="translate(245.74167219993996 0) rotate(0)" stroke="none"/></g></g><g class="relationship"><g transform="translate(1027.7628732415149 -594.4323693598529) rotate(67.79217992508762)" stroke-width="6" stroke="#4CC0F5"><path d="M 44 0 L 219.80080528339622 0"/><polygon points="-27.94086691654374,0 -31.0454076850486,10.348469228349533 0,0 -31.0454076850486,-10.348469228349533" fill="#4CC0F5" transform="translate(247.74167219993996 0) rotate(0)" stroke="none"/></g></g><g class="relationship"><g transform="translate(1030.0655409282192 -767.3697822132817) rotate(-135)" stroke-width="2" stroke="#cccccc"><path d="M 44 0 L 158.99246885083681 0"/><polygon points="-14.155129855222071,0 -15.727922061357857,5.242640687119286 0,0 -15.727922061357857,-5.242640687119286" fill="#cccccc" transform="translate(173.1475987060589 0) rotate(0)" stroke="none"/></g></g><g class="relationship"><g transform="translate(1030.0655409282192 -767.3697822132817) rotate(163.5204925118198)" stroke-width="2" stroke="#cccccc"><path d="M 44 0 L 231.58654234471737 0"/><polygon points="-14.155129855222071,0 -15.727922061357857,5.242640687119286 0,0 -15.727922061357857,-5.242640687119286" fill="#cccccc" transform="translate(245.74167219993944 0) rotate(0)" stroke="none"/></g></g><g class="node"><g fill="#FDDF8D" stroke="#4CC0F5" stroke-width="6"><circle cx="750.3082504924892" cy="-684.6107238204054" r="38"/></g></g><g class="node"><g fill="#57C7E3" stroke="#57C7E3" stroke-width="4"><circle cx="1138.0316421216326" cy="-324.33238434008217" r="37"/></g></g><g class="node"><g fill="#FDDF8D" stroke="#4CC0F5" stroke-width="6"><circle cx="928.8743782697208" cy="-203.5753817522152" r="38"/></g></g><g class="node"><g fill="#cccccc" stroke="#cccccc" stroke-width="4"><circle cx="593.0939300043443" cy="-859.2710585999575" r="37"/></g></g><g class="node"><g fill="#57C7E3" stroke="#57C7E3" stroke-width="4"><circle cx="653.2038198660653" cy="-257.8767968561043" r="37"/></g></g><g class="node"><g fill="#57C7E3" stroke="#57C7E3" stroke-width="4"><circle cx="1027.7628732415149" cy="-594.4323693598529" r="37"/></g></g><g class="node"><g fill="#57C7E3" stroke="#57C7E3" stroke-width="4"><circle cx="558.3749256109247" cy="-522.3581407486662" r="37"/></g></g><g class="node"><g fill="#cccccc" stroke="#cccccc" stroke-width="4"><circle cx="1030.0655409282192" cy="-767.3697822132817" r="37"/></g></g><g class="node"><g fill="#cccccc" stroke="#cccccc" stroke-width="4"><circle cx="876.5190013647898" cy="-920.9163217767111" r="37"/></g></g></g></svg>