<svg xmlns="http://www.w3.org/2000/svg" width="428.4632568359375" height="374.58343505859375" viewBox="-211.29196166992188 -200.71884155273438 428.4632568359375 374.58343505859375"><title>Neo4j Graph Visualization</title><desc>Created using Neo4j (http://www.neo4j.com/)</desc><g class="layer relationships"><g class="relationship" transform="translate(188.17132088847674 21.501131512784582) rotate(481.7701041118812)"><path class="b-outline" fill="#A5ABB6" stroke="none" d="M 25 0.5 L 46.23932567292401 0.5 L 46.23932567292401 -0.5 L 25 -0.5 Z M 91.66901317292401 0.5 L 112.90833884584802 0.5 L 112.90833884584802 3.5 L 119.90833884584802 0 L 112.90833884584802 -3.5 L 112.90833884584802 -0.5 L 91.66901317292401 -0.5 Z"/><text text-anchor="middle" pointer-events="none" font-size="8px" fill="#000000" x="68.95416942292401" y="3" transform="rotate(180 68.95416942292401 0)" font-family="Helvetica Neue, Helvetica, Arial, sans-serif">CALLS_AT</text></g><g class="relationship" transform="translate(128.60349823247225 -113.11191834039519) rotate(426.13005891105604)"><path class="b-outline" fill="#A5ABB6" stroke="none" d="M 25 0.5 L 56.43399910200763 0.5 L 56.43399910200763 -0.5 L 25 -0.5 Z M 83.76993660200763 0.5 L 115.20393570401527 0.5 L 115.20393570401527 3.5 L 122.20393570401527 0 L 115.20393570401527 -3.5 L 115.20393570401527 -0.5 L 83.76993660200763 -0.5 Z"/><text text-anchor="middle" pointer-events="none" font-size="8px" fill="#000000" x="70.10196785200763" y="3" font-family="Helvetica Neue, Helvetica, Arial, sans-serif">NEXT</text></g><g class="relationship" transform="translate(128.60349823247225 -113.11191834039519) rotate(203.4683495718645)"><path class="b-outline" fill="#A5ABB6" stroke="none" d="M 25 0.5 L 47.36711744408464 0.5 L 47.36711744408464 -0.5 L 25 -0.5 Z M 92.79680494408464 0.5 L 115.16392238816928 0.5 L 115.16392238816928 3.5 L 122.16392238816928 0 L 115.16392238816928 -3.5 L 115.16392238816928 -0.5 L 92.79680494408464 -0.5 Z"/><text text-anchor="middle" pointer-events="none" font-size="8px" fill="#000000" x="70.08196119408464" y="3" transform="rotate(180 70.08196119408464 0)" font-family="Helvetica Neue, Helvetica, Arial, sans-serif">CALLS_AT</text></g><g class="relationship" transform="translate(-139.72767842505738 -109.34011346589466) rotate(334.9291097403973)"><path class="b-outline" fill="#A5ABB6" stroke="none" d="M 25 0.5 L 47.390228829061186 0.5 L 47.390228829061186 -0.5 L 25 -0.5 Z M 92.81991632906119 0.5 L 115.21014515812237 0.5 L 115.21014515812237 3.5 L 122.21014515812237 0 L 115.21014515812237 -3.5 L 115.21014515812237 -0.5 L 92.81991632906119 -0.5 Z"/><text text-anchor="middle" pointer-events="none" font-size="8px" fill="#000000" x="70.10507257906119" y="3" font-family="Helvetica Neue, Helvetica, Arial, sans-serif">CALLS_AT</text></g><g class="relationship" transform="translate(-139.72767842505738 -109.34011346589466) rotate(466.79566758134655)"><path class="b-outline" fill="#A5ABB6" stroke="none" d="M 25 0.5 L 56.483008314891535 0.5 L 56.483008314891535 -0.5 L 25 -0.5 Z M 83.81894581489153 0.5 L 115.30195412978307 0.5 L 115.30195412978307 3.5 L 122.30195412978307 0 L 115.30195412978307 -3.5 L 115.30195412978307 -0.5 L 83.81894581489153 -0.5 Z"/><text text-anchor="middle" pointer-events="none" font-size="8px" fill="#000000" x="70.15097706489153" y="3" transform="rotate(180 70.15097706489153 0)" font-family="Helvetica Neue, Helvetica, Arial, sans-serif">NEXT</text></g><g class="relationship" transform="translate(-182.29196395143802 31.6781381474389) rotate(411.7630067325333)"><path class="b-outline" fill="#A5ABB6" stroke="none" d="M 25 0.5 L 45.83645913121492 0.5 L 45.83645913121492 -0.5 L 25 -0.5 Z M 91.26614663121492 0.5 L 112.10260576242985 0.5 L 112.10260576242985 3.5 L 119.10260576242985 0 L 112.10260576242985 -3.5 L 112.10260576242985 -0.5 L 91.26614663121492 -0.5 Z"/><text text-anchor="middle" pointer-events="none" font-size="8px" fill="#000000" x="68.55130288121492" y="3" font-family="Helvetica Neue, Helvetica, Arial, sans-serif">CALLS_AT</text></g></g><g class="layer nodes"><g class="node" aria-label="graph-node177" transform="translate(111.87530313525889,144.69749648376808)"><circle class="b-outline" cx="0" cy="0" r="25" fill="#4C8EDA" stroke="#2870c2" stroke-width="2px"/><text class="caption" text-anchor="middle" pointer-events="none" x="0" y="-5" font-size="10px" fill="#FFFFFF" font-family="Helvetica Neue, Helvetica, Arial, sans-serif"> Clapham</text><text class="caption" text-anchor="middle" pointer-events="none" x="0" y="5" font-size="10px" fill="#FFFFFF" font-family="Helvetica Neue, Helvetica, Arial, sans-serif"> High</text><text class="caption" text-anchor="middle" pointer-events="none" x="0" y="15" font-size="10px" fill="#FFFFFF" font-family="Helvetica Neue, Helvetica, Arial, sans-serif"> Street</text></g><g class="node" aria-label="graph-node178" transform="translate(-93.10460484018313,144.8646036028207)"><circle class="b-outline" cx="0" cy="0" r="25" fill="#4C8EDA" stroke="#2870c2" stroke-width="2px"/><text class="caption" text-anchor="middle" pointer-events="none" x="0" y="0" font-size="10px" fill="#FFFFFF" font-family="Helvetica Neue, Helvetica, Arial, sans-serif"> Elephant</text><text class="caption" text-anchor="middle" pointer-events="none" x="0" y="10" font-size="10px" fill="#FFFFFF" font-family="Helvetica Neue, Helvetica, Arial, sans-serif"> Cas…</text></g><g class="node" aria-label="graph-node182" transform="translate(188.17132088847674,21.501131512784582)"><circle class="b-outline" cx="0" cy="0" r="25" fill="#FFC454" stroke="#d7a013" stroke-width="2px"/><text class="caption" text-anchor="middle" pointer-events="none" x="0" y="5" font-size="10px" fill="#2A2C34" font-family="Helvetica Neue, Helvetica, Arial, sans-serif"> "11:41:0…</text></g><g class="node" aria-label="graph-node183" transform="translate(128.60349823247225,-113.11191834039519)"><circle class="b-outline" cx="0" cy="0" r="25" fill="#FFC454" stroke="#d7a013" stroke-width="2px"/><text class="caption" text-anchor="middle" pointer-events="none" x="0" y="5" font-size="10px" fill="#2A2C34" font-family="Helvetica Neue, Helvetica, Arial, sans-serif"> "11:37:0…</text></g><g class="node" aria-label="graph-node175" transform="translate(-6.387054679952198,-171.71883497204414)"><circle class="b-outline" cx="0" cy="0" r="25" fill="#4C8EDA" stroke="#2870c2" stroke-width="2px"/><text class="caption" text-anchor="middle" pointer-events="none" x="0" y="0" font-size="10px" fill="#FFFFFF" font-family="Helvetica Neue, Helvetica, Arial, sans-serif"> Denmark</text><text class="caption" text-anchor="middle" pointer-events="none" x="0" y="10" font-size="10px" fill="#FFFFFF" font-family="Helvetica Neue, Helvetica, Arial, sans-serif"> Hill</text></g><g class="node" aria-label="graph-node186" transform="translate(-139.72767842505738,-109.34011346589466)"><circle class="b-outline" cx="0" cy="0" r="25" fill="#FFC454" stroke="#d7a013" stroke-width="2px"/><text class="caption" text-anchor="middle" pointer-events="none" x="0" y="5" font-size="10px" fill="#2A2C34" font-family="Helvetica Neue, Helvetica, Arial, sans-serif"> "11:47:0…</text></g><g class="node" aria-label="graph-node185" transform="translate(-182.29196395143802,31.6781381474389)"><circle class="b-outline" cx="0" cy="0" r="25" fill="#FFC454" stroke="#d7a013" stroke-width="2px"/><text class="caption" text-anchor="middle" pointer-events="none" x="0" y="5" font-size="10px" fill="#2A2C34" font-family="Helvetica Neue, Helvetica, Arial, sans-serif"> "11:54:0…</text></g></g></svg>