<svg xmlns="http://www.w3.org/2000/svg" width="1242" height="1025" viewBox="0 0 1242 1025"><defs><style type="text/css"/></defs><g transform="translate(565.85346008234 431.2778457772339) scale(1)"><g class="relationship"><g transform="translate(52.22239884941598 -231.25524288901624) rotate(167.0612310030202)" stroke-width="5" stroke="#848484"><path d="M 64 0 L 484.7784961858796 0"/><polygon points="-24.8621506177483,0 -27.62461179749811,9.20820393249937 0,0 -27.62461179749811,-9.20820393249937" fill="#848484" transform="translate(509.6406468036279 0) rotate(0)" stroke="none"/></g><g transform="translate(-215.200081433285 -169.81684684503347) rotate(347.0612310030202) translate(0 -13)"><g transform="translate(0 0)"><g transform="translate(-20.5703125 0)" fill="#ffffff" stroke="#000000" stroke-width="0"><rect x="0" y="0" width="41.140625" height="26" rx="5" ry="5" stroke="none"/><text xml:space="preserve" x="5" y="17.45703125" stroke="none" text-anchor="left" font-family="sans-serif" font-size="16" font-weight="normal" fill="#848484">6.03</text></g></g></g></g><g class="relationship"><g transform="translate(-506.85346008234 -102.8115757621243) rotate(15.823126256029948)" stroke-width="5" stroke="#848484"><path d="M 64 0 L 286.033737613993 0"/><polygon points="-24.8621506177483,0 -27.62461179749811,9.20820393249937 0,0 -27.62461179749811,-9.20820393249937" fill="#848484" transform="translate(310.89588823174137 0) rotate(0)" stroke="none"/></g><g transform="translate(-338.46832786690203 -55.08997042664862) rotate(15.823126256029948) translate(0 -13)"><g transform="translate(0 0)"><g transform="translate(-20.5703125 0)" fill="#ffffff" stroke="#000000" stroke-width="0"><rect x="0" y="0" width="41.140625" height="26" rx="5" ry="5" stroke="none"/><text xml:space="preserve" x="5" y="17.45703125" stroke="none" text-anchor="left" font-family="sans-serif" font-size="16" font-weight="normal" fill="#848484">0.65</text></g></g></g></g><g class="relationship"><g transform="translate(52.22239884941598 -231.25524288901624) rotate(130.69735227314087)" stroke-width="5" stroke="#848484"><path d="M 64 0 L 215.38054984216555 0"/><polygon points="-24.8621506177483,0 -27.62461179749811,9.20820393249937 0,0 -27.62461179749811,-9.20820393249937" fill="#848484" transform="translate(240.24270045991386 0) rotate(0)" stroke="none"/></g><g transform="translate(-38.86451237213515 -125.34703965789276) rotate(310.69735227314084) translate(0 -13)"><g transform="translate(0 0)"><g transform="translate(-20.5703125 0)" fill="#ffffff" stroke="#000000" stroke-width="0"><rect x="0" y="0" width="41.140625" height="26" rx="5" ry="5" stroke="none"/><text xml:space="preserve" x="5" y="17.45703125" stroke="none" text-anchor="left" font-family="sans-serif" font-size="16" font-weight="normal" fill="#848484">5.76</text></g></g></g></g><g class="relationship"><g transform="translate(161.7166323576562 48.560403038965504) rotate(-170.92988730532528)" stroke-width="5" stroke="#848484"><path d="M 64 0 L 222.91602345989256 0"/><polygon points="-24.8621506177483,0 -27.62461179749811,9.20820393249937 0,0 -27.62461179749811,-9.20820393249937" fill="#848484" transform="translate(247.77817407764087 0) rotate(0)" stroke="none"/></g><g transform="translate(20.05239483118774 25.94525467434647) rotate(9.0701126946747) translate(0 -13)"><g transform="translate(0 0)"><g transform="translate(-20.5703125 0)" fill="#ffffff" stroke="#000000" stroke-width="0"><rect x="0" y="0" width="41.140625" height="26" rx="5" ry="5" stroke="none"/><text xml:space="preserve" x="5" y="17.45703125" stroke="none" text-anchor="left" font-family="sans-serif" font-size="16" font-weight="normal" fill="#848484">3.71</text></g></g></g></g><g class="relationship"><g transform="translate(52.22239884941598 -231.25524288901624) rotate(-150.00000000000003)" stroke-width="5" stroke="#848484"><path d="M 64 0 L 181.183055158687 0"/><polygon points="-24.8621506177483,0 -27.62461179749811,9.20820393249937 0,0 -27.62461179749811,-9.20820393249937" fill="#848484" transform="translate(206.0452057764353 0) rotate(0)" stroke="none"/></g><g transform="translate(-53.94497832303614 -292.551006678688) rotate(29.999999999999993) translate(0 -13)"><g transform="translate(0 0)"><g transform="translate(-20.5703125 0)" fill="#ffffff" stroke="#000000" stroke-width="0"><rect x="0" y="0" width="41.140625" height="26" rx="5" ry="5" stroke="none"/><text xml:space="preserve" x="5" y="17.45703125" stroke="none" text-anchor="left" font-family="sans-serif" font-size="16" font-weight="normal" fill="#848484">5.64</text></g></g></g></g><g class="relationship"><g transform="translate(616.7865556696206 -290.8431480725609) rotate(173.97492462985673)" stroke-width="5" stroke="#848484"><path d="M 64 0 L 478.837951205628 0"/><polygon points="-24.8621506177483,0 -27.62461179749811,9.20820393249937 0,0 -27.62461179749811,-9.20820393249937" fill="#848484" transform="translate(503.70010182337626 0) rotate(0)" stroke="none"/></g><g transform="translate(346.86688397317164 -262.3540071841079) rotate(353.9749246298568) translate(0 -13)"><g transform="translate(0 0)"><g transform="translate(-20.5703125 0)" fill="#ffffff" stroke="#000000" stroke-width="0"><rect x="0" y="0" width="41.140625" height="26" rx="5" ry="5" stroke="none"/><text xml:space="preserve" x="5" y="17.45703125" stroke="none" text-anchor="left" font-family="sans-serif" font-size="16" font-weight="normal" fill="#848484">6.16</text></g></g></g></g><g class="relationship"><g transform="translate(616.7865556696206 -290.8431480725609) rotate(102.15287771809908)" stroke-width="5" stroke="#848484"><path d="M 64 0 L 747.2430023162897 0"/><polygon points="-24.8621506177483,0 -27.62461179749811,9.20820393249937 0,0 -27.62461179749811,-9.20820393249937" fill="#848484" transform="translate(772.105152934038 0) rotate(0)" stroke="none"/></g><g transform="translate(531.3947683489432 105.68811785733664) rotate(282.1528777180991) translate(0 -13)"><g transform="translate(0 0)"><g transform="translate(-25.01953125 0)" fill="#ffffff" stroke="#000000" stroke-width="0"><rect x="0" y="0" width="50.0390625" height="26" rx="5" ry="5" stroke="none"/><text xml:space="preserve" x="5" y="17.45703125" stroke="none" text-anchor="left" font-family="sans-serif" font-size="16" font-weight="normal" fill="#848484">31.14</text></g></g></g></g><g class="relationship"><g transform="translate(439.92689625432973 530.434715295149) rotate(-120.00000000000001)" stroke-width="5" stroke="#848484"><path d="M 68 0 L 155.7802030979576 0"/><polygon points="-24.8621506177483,0 -27.62461179749811,9.20820393249937 0,0 -27.62461179749811,-9.20820393249937" fill="#848484" transform="translate(180.6423537157059 0) rotate(0)" stroke="none"/></g><g transform="translate(383.98184547984033 433.53504492171277) rotate(59.999999999999986) translate(0 -13)"><g transform="translate(0 0)"><g transform="translate(-20.5703125 0)" fill="#ffffff" stroke="#000000" stroke-width="0"><rect x="0" y="0" width="41.140625" height="26" rx="5" ry="5" stroke="none"/><text xml:space="preserve" x="5" y="17.45703125" stroke="none" text-anchor="left" font-family="sans-serif" font-size="16" font-weight="normal" fill="#848484">7.25</text></g></g></g></g><g class="relationship"><g transform="translate(317.60571939647673 318.56822213572934) rotate(-120.00000000000001)" stroke-width="5" stroke="#848484"><path d="M 64 0 L 222.91602345989256 0"/><polygon points="-24.8621506177483,0 -27.62461179749811,9.20820393249937 0,0 -27.62461179749811,-9.20820393249937" fill="#848484" transform="translate(247.77817407764087 0) rotate(0)" stroke="none"/></g><g transform="translate(245.87671353150355 194.3299396011899) rotate(59.999999999999986) translate(0 -13)"><g transform="translate(0 0)"><g transform="translate(-24.4296875 0)" fill="#ffffff" stroke="#000000" stroke-width="0"><rect x="0" y="0" width="48.859375" height="26" rx="5" ry="5" stroke="none"/><text xml:space="preserve" x="5" y="17.45703125" stroke="none" text-anchor="left" font-family="sans-serif" font-size="16" font-weight="normal" fill="#848484">11.29</text></g></g></g></g><g class="relationship"><g transform="translate(317.60571939647673 318.56822213572934) rotate(-145.46494365266267)" stroke-width="5" stroke="#848484"><path d="M 64 0 L 474.1147773442251 0"/><polygon points="-24.8621506177483,0 -27.62461179749811,9.20820393249937 0,0 -27.62461179749811,-9.20820393249937" fill="#848484" transform="translate(498.9769279619734 0) rotate(0)" stroke="none"/></g><g transform="translate(95.96176380777493 166.03679799614483) rotate(34.535056347337346) translate(0 -13)"><g transform="translate(0 0)"><g transform="translate(-25.01953125 0)" fill="#ffffff" stroke="#000000" stroke-width="0"><rect x="0" y="0" width="50.0390625" height="26" rx="5" ry="5" stroke="none"/><text xml:space="preserve" x="5" y="17.45703125" stroke="none" text-anchor="left" font-family="sans-serif" font-size="16" font-weight="normal" fill="#848484">14.75</text></g></g></g></g><g class="relationship"><g transform="translate(616.7865556696206 -290.8431480725609) rotate(143.28342075714735)" stroke-width="5" stroke="#848484"><path d="M 64 0 L 478.837951205628 0"/><polygon points="-24.8621506177483,0 -27.62461179749811,9.20820393249937 0,0 -27.62461179749811,-9.20820393249937" fill="#848484" transform="translate(503.70010182337626 0) rotate(0)" stroke="none"/></g><g transform="translate(399.21637730207726 -128.57337946979158) rotate(323.2834207571474) translate(0 -13)"><g transform="translate(0 0)"><g transform="translate(-20.5703125 0)" fill="#ffffff" stroke="#000000" stroke-width="0"><rect x="0" y="0" width="41.140625" height="26" rx="5" ry="5" stroke="none"/><text xml:space="preserve" x="5" y="17.45703125" stroke="none" text-anchor="left" font-family="sans-serif" font-size="16" font-weight="normal" fill="#848484">12.6</text></g></g></g></g><g class="relationship"><g transform="translate(439.92689625432973 118.36082769690358) rotate(-165.91572421321413)" stroke-width="5" stroke="#848484"><path d="M 64 0 L 197.97064077801454 0"/><polygon points="-24.8621506177483,0 -27.62461179749811,9.20820393249937 0,0 -27.62461179749811,-9.20820393249937" fill="#848484" transform="translate(222.83279139576285 0) rotate(0)" stroke="none"/></g><g transform="translate(312.8791470249355 86.48570302019328) rotate(14.08427578678587) translate(0 -13)"><g transform="translate(0 0)"><g transform="translate(-20.5703125 0)" fill="#ffffff" stroke="#000000" stroke-width="0"><rect x="0" y="0" width="41.140625" height="26" rx="5" ry="5" stroke="none"/><text xml:space="preserve" x="5" y="17.45703125" stroke="none" text-anchor="left" font-family="sans-serif" font-size="16" font-weight="normal" fill="#848484">4.16</text></g></g></g></g><g class="node"><g fill="#FFE081" stroke="#57C7E3" stroke-width="8"><circle cx="-185.107711138311" cy="-368.2778457772339" r="59"/></g><g transform="translate(-185.107711138311 -368.2778457772339)"><g transform="scale(1) translate(0 0)"><g transform="translate(0 0)"><g font-family="sans-serif" font-size="19" font-weight="normal" fill="#333333" text-anchor="middle"><text xml:space="preserve" x="0" y="5.292724609375" stroke="none">Hartlebury</text></g></g></g></g></g><g class="node"><g fill="#FFE081" stroke="#FFE081" stroke-width="4"><circle cx="52.22239884941598" cy="-231.25524288901624" r="57"/></g><g transform="translate(52.22239884941598 -231.25524288901624)"><g transform="scale(1) translate(0 0)"><g transform="translate(0 0)"><g font-family="sans-serif" font-size="19" font-weight="normal" fill="#333333" text-anchor="middle"><text xml:space="preserve" x="0" y="-6.107275390625" stroke="none">Droitwich</text><text xml:space="preserve" x="0" y="16.692724609375002" stroke="none" text-anchor="middle">Spa</text></g></g></g></g></g><g class="node"><g fill="#FFE081" stroke="#FFE081" stroke-width="4"><circle cx="161.7166323576562" cy="48.560403038965504" r="57"/></g><g transform="translate(161.7166323576562 48.560403038965504)"><g transform="scale(0.7695314804687501) translate(0 0)"><g transform="translate(0 0)"><g font-family="sans-serif" font-size="19" font-weight="normal" fill="#333333" text-anchor="middle"><text xml:space="preserve" x="0" y="5.292724609375" stroke="none">Worcestershire</text><text xml:space="preserve" x="0" y="28.092724609375004" stroke="none" text-anchor="middle">Parkway</text></g></g></g></g></g><g class="node"><g fill="#FFE081" stroke="#FFE081" stroke-width="4"><circle cx="439.92689625432973" cy="118.36082769690358" r="57"/></g><g transform="translate(439.92689625432973 118.36082769690358)"><g transform="scale(1) translate(0 0)"><g transform="translate(0 0)"><g font-family="sans-serif" font-size="19" font-weight="normal" fill="#333333" text-anchor="middle"><text xml:space="preserve" x="0" y="5.292724609375" stroke="none">Pershore</text></g></g></g></g></g><g class="node"><g fill="#FFE081" stroke="#FFE081" stroke-width="4"><circle cx="-506.85346008234" cy="-102.8115757621243" r="57"/></g><g transform="translate(-506.85346008234 -102.8115757621243)"><g transform="scale(0.9531250468750001) translate(0 0)"><g transform="translate(0 0)"><g font-family="sans-serif" font-size="19" font-weight="normal" fill="#333333" text-anchor="middle"><text xml:space="preserve" x="0" y="-6.107275390625" stroke="none">Worcester</text><text xml:space="preserve" x="0" y="16.692724609375002" stroke="none" text-anchor="middle">Foregate</text><text xml:space="preserve" x="0" y="39.492724609375" stroke="none" text-anchor="middle">Street</text></g></g></g></g></g><g class="node"><g fill="#FFE081" stroke="#FFE081" stroke-width="4"><circle cx="-146.16312127539717" cy="-0.589237183909674" r="57"/></g><g transform="translate(-146.16312127539717 -0.589237183909674)"><g transform="scale(1) translate(0 0)"><g transform="translate(0 0)"><g font-family="sans-serif" font-size="19" font-weight="normal" fill="#333333" text-anchor="middle"><text xml:space="preserve" x="0" y="-6.107275390625" stroke="none">Worcester</text><text xml:space="preserve" x="0" y="16.692724609375002" stroke="none" text-anchor="middle">Shrub Hill</text></g></g></g></g></g><g class="node"><g fill="#FFE081" stroke="#FFE081" stroke-width="4"><circle cx="616.7865556696206" cy="-290.8431480725609" r="57"/></g><g transform="translate(616.7865556696206 -290.8431480725609)"><g transform="scale(0.9453125546875001) translate(0 0)"><g transform="translate(0 0)"><g font-family="sans-serif" font-size="19" font-weight="normal" fill="#333333" text-anchor="middle"><text xml:space="preserve" x="0" y="5.292724609375" stroke="none">Bromsgrove</text></g></g></g></g></g><g class="node"><g fill="#FFE081" stroke="#57C7E3" stroke-width="8"><circle cx="439.92689625432973" cy="530.434715295149" r="59"/></g><g transform="translate(439.92689625432973 530.434715295149)"><g transform="scale(0.9453125546875001) translate(0 0)"><g transform="translate(0 0)"><g font-family="sans-serif" font-size="19" font-weight="normal" fill="#333333" text-anchor="middle"><text xml:space="preserve" x="0" y="5.292724609375" stroke="none">Cheltenham</text><text xml:space="preserve" x="0" y="28.092724609375004" stroke="none" text-anchor="middle">Spa</text></g></g></g></g></g><g class="node"><g fill="#FFE081" stroke="#FFE081" stroke-width="4"><circle cx="317.60571939647673" cy="318.56822213572934" r="57"/></g><g transform="translate(317.60571939647673 318.56822213572934)"><g transform="scale(1) translate(0 0)"><g transform="translate(0 0)"><g font-family="sans-serif" font-size="19" font-weight="normal" fill="#333333" text-anchor="middle"><text xml:space="preserve" x="0" y="5.292724609375" stroke="none">Ashchurch</text></g></g></g></g></g></g></svg>