<svg xmlns="http://www.w3.org/2000/svg" width="1378" height="104" viewBox="0 0 1378 104"><defs><style type="text/css"/></defs><g transform="translate(250.64740130088384 754.4424094194894) scale(1)"><g class="relationship"><g transform="translate(62.37869084150208 -715.4424094194894) rotate(180)" stroke-width="3" stroke="#848484"><path d="M 44 0 L 147.538277476078 0"/><polygon points="-18.079611541307905,0 -20.088457268119896,6.696152422706632 0,0 -20.088457268119896,-6.696152422706632" fill="#848484" transform="translate(165.61788901738592 0) rotate(0)" stroke="none"/></g><g transform="translate(-33.39044789653693 -715.4424094194894) rotate(360) translate(0 -33)"><g transform="translate(0 0)"><g transform="translate(-54.287109375 0)" fill="#ffffff" stroke="#000000" stroke-width="0"><rect x="0" y="0" width="108.57421875" height="30" rx="5" ry="5" stroke="none"/><text xml:space="preserve" x="5" y="20.5712890625" stroke="none" text-anchor="left" font-family="sans-serif" font-size="20" font-weight="normal" fill="#848484">CALLS_AT</text></g></g></g></g><g class="relationship"><g transform="translate(62.37869084150208 -715.4424094194894) rotate(0)" stroke-width="3" stroke="#848484"><path d="M 44 0 L 122.23679679849027 0"/><polygon points="-18.079611541307905,0 -20.088457268119896,6.696152422706632 0,0 -20.088457268119896,-6.696152422706632" fill="#848484" transform="translate(140.3164083397982 0) rotate(0)" stroke="none"/></g><g transform="translate(145.49708924074721 -715.4424094194894) rotate(0) translate(0 -33)"><g transform="translate(0 0)"><g transform="translate(-31.669921875 0)" fill="#ffffff" stroke="#000000" stroke-width="0"><rect x="0" y="0" width="63.33984375" height="30" rx="5" ry="5" stroke="none"/><text xml:space="preserve" x="5" y="20.5712890625" stroke="none" text-anchor="left" font-family="sans-serif" font-size="20" font-weight="normal" fill="#848484">NEXT</text></g></g></g></g><g class="relationship"><g transform="translate(246.69509918130026 -715.4424094194894) rotate(0)" stroke-width="3" stroke="#848484"><path d="M 44 0 L 157.02633273017346 0"/><polygon points="-18.079611541307905,0 -20.088457268119896,6.696152422706632 0,0 -20.088457268119896,-6.696152422706632" fill="#848484" transform="translate(175.10594427148138 0) rotate(0)" stroke="none"/></g><g transform="translate(347.208265546387 -715.4424094194894) rotate(0) translate(0 -33)"><g transform="translate(0 0)"><g transform="translate(-54.287109375 0)" fill="#ffffff" stroke="#000000" stroke-width="0"><rect x="0" y="0" width="108.57421875" height="30" rx="5" ry="5" stroke="none"/><text xml:space="preserve" x="5" y="20.5712890625" stroke="none" text-anchor="left" font-family="sans-serif" font-size="20" font-weight="normal" fill="#848484">CALLS_AT</text></g></g></g></g><g class="relationship"><g transform="translate(870.2776244256273 -715.4424094194894) rotate(0)" stroke-width="3" stroke="#848484"><path d="M 44 0 L 155.9721043686067 0"/><polygon points="-18.079611541307905,0 -20.088457268119896,6.696152422706632 0,0 -20.088457268119896,-6.696152422706632" fill="#848484" transform="translate(174.0517159099146 0) rotate(0)" stroke="none"/></g><g transform="translate(970.2636766099307 -715.4424094194894) rotate(0) translate(0 -33)"><g transform="translate(0 0)"><g transform="translate(-54.287109375 0)" fill="#ffffff" stroke="#000000" stroke-width="0"><rect x="0" y="0" width="108.57421875" height="30" rx="5" ry="5" stroke="none"/><text xml:space="preserve" x="5" y="20.5712890625" stroke="none" text-anchor="left" font-family="sans-serif" font-size="20" font-weight="normal" fill="#848484">CALLS_AT</text></g></g></g></g><g class="relationship"><g transform="translate(684.906987724263 -715.4424094194894) rotate(0)" stroke-width="3" stroke="#848484"><path d="M 44 0 L 123.29102516005642 0"/><polygon points="-18.079611541307905,0 -20.088457268119896,6.696152422706632 0,0 -20.088457268119896,-6.696152422706632" fill="#848484" transform="translate(141.37063670136433 0) rotate(0)" stroke="none"/></g><g transform="translate(768.5525003042912 -715.4424094194894) rotate(0) translate(0 -33)"><g transform="translate(0 0)"><g transform="translate(-31.669921875 0)" fill="#ffffff" stroke="#000000" stroke-width="0"><rect x="0" y="0" width="63.33984375" height="30" rx="5" ry="5" stroke="none"/><text xml:space="preserve" x="5" y="20.5712890625" stroke="none" text-anchor="left" font-family="sans-serif" font-size="20" font-weight="normal" fill="#848484">NEXT</text></g></g></g></g><g class="relationship"><g transform="translate(684.906987724263 -715.4424094194894) rotate(180)" stroke-width="3" stroke="#848484"><path d="M 44 0 L 157.02633273017344 0"/><polygon points="-18.079611541307905,0 -20.088457268119896,6.696152422706632 0,0 -20.088457268119896,-6.696152422706632" fill="#848484" transform="translate(175.10594427148135 0) rotate(0)" stroke="none"/></g><g transform="translate(584.3938213591763 -715.4424094194894) rotate(360) translate(0 -33)"><g transform="translate(0 0)"><g transform="translate(-54.287109375 0)" fill="#ffffff" stroke="#000000" stroke-width="0"><rect x="0" y="0" width="108.57421875" height="30" rx="5" ry="5" stroke="none"/><text xml:space="preserve" x="5" y="20.5712890625" stroke="none" text-anchor="left" font-family="sans-serif" font-size="20" font-weight="normal" fill="#848484">CALLS_AT</text></g></g></g></g><g class="node"><g fill="#FDDF8D" stroke="#FDDF8D" stroke-width="4"><circle cx="465.80104345278164" cy="-715.4424094194894" r="37"/></g><g transform="translate(465.80104345278164 -715.4424094194894)"><g transform="translate(2.510525938252074e-15 41)"><g transform="translate(0 0)"><g transform="translate(-76.142578125 0)" fill="white"><rect x="0" y="0" width="152.28515625" height="24" rx="0" ry="0" stroke="none"/><g font-family="sans-serif" font-size="20" font-weight="normal" fill="#000000" text-anchor="end"><text xml:space="preserve" x="61.142578125" y="17.5712890625" stroke="none">name:</text><text xml:space="preserve" x="66.69921875" y="17.5712890625" stroke="none" text-anchor="start">Coventry</text></g></g></g></g></g></g><g class="node"><g fill="#FDDF8D" stroke="#FDDF8D" stroke-width="4"><circle cx="-147.23919817588384" cy="-715.4424094194894" r="37"/></g><g transform="translate(-147.23919817588384 -715.4424094194894)"><g transform="translate(2.510525938252074e-15 41)"><g transform="translate(0 0)"><g transform="translate(-103.408203125 0)" fill="white"><rect x="0" y="0" width="206.81640625" height="24" rx="0" ry="0" stroke="none"/><g font-family="sans-serif" font-size="20" font-weight="normal" fill="#000000" text-anchor="end"><text xml:space="preserve" x="61.142578125" y="17.5712890625" stroke="none">name:</text><text xml:space="preserve" x="66.69921875" y="17.5712890625" stroke="none" text-anchor="start">London Euston</text></g></g></g></g></g></g><g class="node"><g fill="#FDDF8D" stroke="#FDDF8D" stroke-width="4"><circle cx="1088.329340335542" cy="-715.4424094194894" r="37"/></g></g><g class="node"><g fill="#57C7E3" stroke="#57C7E3" stroke-width="4"><circle cx="62.37869084150208" cy="-715.4424094194894" r="37"/></g></g><g class="node"><g fill="#57C7E3" stroke="#57C7E3" stroke-width="4"><circle cx="246.69509918130026" cy="-715.4424094194894" r="37"/></g></g><g class="node"><g fill="#57C7E3" stroke="#57C7E3" stroke-width="4"><circle cx="684.906987724263" cy="-715.4424094194894" r="37"/></g></g><g class="node"><g fill="#57C7E3" stroke="#57C7E3" stroke-width="4"><circle cx="870.2776244256273" cy="-715.4424094194894" r="37"/></g></g></g></svg>