<svg xmlns="http://www.w3.org/2000/svg" width="881" height="940" viewBox="0 0 881 940"><defs><style type="text/css"/></defs><g transform="translate(205.16312127539717 349.8431480725609) scale(1)"><g class="relationship"><g transform="translate(52.22239884941598 -231.25524288901624) rotate(130.69735227314087)" stroke-width="15" stroke="#4c9900"><path d="M 64 0 L 240.24270045991386 0"/></g></g><g class="relationship"><g transform="translate(-146.16312127539717 -0.589237183909674) rotate(9.070112694674707)" stroke-width="15" stroke="#4c9900"><path d="M 64 0 L 196.15700897336077 0"/><polygon points="-51.62116510428008,0 -57.356850115866756,19.118950038622252 0,0 -57.356850115866756,-19.118950038622252" fill="#4c9900" transform="translate(247.77817407764087 0) rotate(0)" stroke="none"/></g></g><g class="relationship"><g transform="translate(616.7865556696206 -290.8431480725609) rotate(173.97492462985673)" stroke-width="15" stroke="#4c9900"><path d="M 64 0 L 503.70010182337626 0"/></g></g><g class="relationship"><g transform="translate(616.7865556696206 -290.8431480725609) rotate(102.15287771809908)" stroke-width="15" stroke="#4c9900"><path d="M 64 0 L 724.4839878297579 0"/><polygon points="-51.62116510428008,0 -57.356850115866756,19.118950038622252 0,0 -57.356850115866756,-19.118950038622252" fill="#4c9900" transform="translate(776.105152934038 0) rotate(0)" stroke="none"/></g></g><g class="relationship"><g transform="translate(616.7865556696206 -290.8431480725609) rotate(143.28342075714735)" stroke-width="15" stroke="#cccccc"><path d="M 64 0 L 503.70010182337626 0"/></g></g><g class="node"><g fill="#FFE081" stroke="#FFE081" stroke-width="4"><circle cx="52.22239884941598" cy="-231.25524288901624" r="57"/></g><g transform="translate(52.22239884941598 -231.25524288901624)"><g transform="scale(1) translate(0 0)"><g transform="translate(0 0)"><g font-family="sans-serif" font-size="19" font-weight="normal" fill="#333333" text-anchor="middle"><text xml:space="preserve" x="0" y="-6.107275390625" stroke="none">Droitwich</text><text xml:space="preserve" x="0" y="16.692724609375002" stroke="none" text-anchor="middle">Spa</text></g></g></g></g></g><g class="node"><g fill="#FFE081" stroke="#FFE081" stroke-width="4"><circle cx="161.7166323576562" cy="48.560403038965504" r="57"/></g><g transform="translate(161.7166323576562 48.560403038965504)"><g transform="scale(0.7695314804687501) translate(0 0)"><g transform="translate(0 0)"><g font-family="sans-serif" font-size="19" font-weight="normal" fill="#333333" text-anchor="middle"><text xml:space="preserve" x="0" y="5.292724609375" stroke="none">Worcestershire</text><text xml:space="preserve" x="0" y="28.092724609375004" stroke="none" text-anchor="middle">Parkway</text></g></g></g></g></g><g class="node"><g fill="#FFE081" stroke="#FFE081" stroke-width="4"><circle cx="-146.16312127539717" cy="-0.589237183909674" r="57"/></g><g transform="translate(-146.16312127539717 -0.589237183909674)"><g transform="scale(1) translate(0 0)"><g transform="translate(0 0)"><g font-family="sans-serif" font-size="19" font-weight="normal" fill="#333333" text-anchor="middle"><text xml:space="preserve" x="0" y="-6.107275390625" stroke="none">Worcester</text><text xml:space="preserve" x="0" y="16.692724609375002" stroke="none" text-anchor="middle">Shrub Hill</text></g></g></g></g></g><g class="node"><g fill="#FFE081" stroke="#FFE081" stroke-width="4"><circle cx="616.7865556696206" cy="-290.8431480725609" r="57"/></g><g transform="translate(616.7865556696206 -290.8431480725609)"><g transform="scale(0.9453125546875001) translate(0 0)"><g transform="translate(0 0)"><g font-family="sans-serif" font-size="19" font-weight="normal" fill="#333333" text-anchor="middle"><text xml:space="preserve" x="0" y="5.292724609375" stroke="none">Bromsgrove</text></g></g></g></g></g><g class="node"><g fill="#FFE081" stroke="#FFE081" stroke-width="4"><circle cx="439.92689625432973" cy="530.434715295149" r="57"/></g><g transform="translate(439.92689625432973 530.434715295149)"><g transform="scale(0.9453125546875001) translate(0 0)"><g transform="translate(0 0)"><g font-family="sans-serif" font-size="19" font-weight="normal" fill="#333333" text-anchor="middle"><text xml:space="preserve" x="0" y="5.292724609375" stroke="none">Cheltenham</text><text xml:space="preserve" x="0" y="28.092724609375004" stroke="none" text-anchor="middle">Spa</text></g></g></g></g></g></g></svg>