<svg xmlns="http://www.w3.org/2000/svg" width="1158" height="703" viewBox="0 0 1158 703"><defs><style type="text/css"/></defs><g transform="translate(491.0916380241258 399.14453049157135) scale(1)"><g class="relationship"><g transform="translate(64.95691575748893 -170.93189467514136) rotate(-150.00000000000003)" stroke-width="3" stroke="#848484"><path d="M 49 0 L 206.80835774407146 0"/><polygon points="-18.079611541307905,0 -20.088457268119896,6.696152422706632 0,0 -20.088457268119896,-6.696152422706632" fill="#848484" transform="translate(224.88796928537937 0) rotate(0)" stroke="none"/></g><g transform="translate(-45.81135239588289 -234.88398411115924) rotate(29.999999999999993) translate(0 3)"><g transform="translate(0 0)"><g transform="translate(-67.822265625 0)" fill="white"><rect x="0" y="0" width="135.64453125" height="24" rx="0" ry="0" stroke="none"/><g font-family="sans-serif" font-size="20" font-weight="normal" fill="#000000" text-anchor="end"><text xml:space="preserve" x="85.60546875" y="17.5712890625" stroke="none">distance:</text><text xml:space="preserve" x="91.162109375" y="17.5712890625" stroke="none" text-anchor="start">0.76</text></g></g></g></g></g><g class="relationship"><g transform="translate(-172.23702343458166 -307.87587931783105) rotate(155.7959237176925)" stroke-width="3" stroke="#848484"><path d="M 49 0 L 209.989288707857 0"/><polygon points="-18.079611541307905,0 -20.088457268119896,6.696152422706632 0,0 -20.088457268119896,-6.696152422706632" fill="#848484" transform="translate(228.06890024916493 0) rotate(0)" stroke="none"/></g><g transform="translate(-290.3479166330029 -254.78463875762614) rotate(335.79592371769246) translate(0 -27)"><g transform="translate(0 0)"><g transform="translate(-62.2607421875 0)" fill="white"><rect x="0" y="0" width="124.521484375" height="24" rx="0" ry="0" stroke="none"/><g font-family="sans-serif" font-size="20" font-weight="normal" fill="#000000" text-anchor="end"><text xml:space="preserve" x="85.60546875" y="17.5712890625" stroke="none">distance:</text><text xml:space="preserve" x="91.162109375" y="17.5712890625" stroke="none" text-anchor="start">0.3</text></g></g></g></g></g><g class="relationship"><g transform="translate(64.95691575748893 -170.93189467514136) rotate(80.36438152649811)" stroke-width="3" stroke="#848484"><path d="M 49 0 L 137.74125758070977 0"/><polygon points="-18.079611541307905,0 -20.088457268119896,6.696152422706632 0,0 -20.088457268119896,-6.696152422706632" fill="#848484" transform="translate(155.82086912201768 0) rotate(0)" stroke="none"/></g></g><g class="relationship"><g transform="translate(-172.23702343458166 -307.87587931783105) rotate(80.15515216917186)" stroke-width="3" stroke="#848484"><path d="M 49 0 L 143.51323317711376 0"/><polygon points="-18.079611541307905,0 -20.088457268119896,6.696152422706632 0,0 -20.088457268119896,-6.696152422706632" fill="#848484" transform="translate(161.59284471842167 0) rotate(0)" stroke="none"/></g></g><g class="relationship"><g transform="translate(-424.9490598991258 -194.28097577359364) rotate(82.5439436906107)" stroke-width="3" stroke="#848484"><path d="M 49 0 L 158.12182251486306 0"/><polygon points="-18.079611541307905,0 -20.088457268119896,6.696152422706632 0,0 -20.088457268119896,-6.696152422706632" fill="#848484" transform="translate(176.20143405617097 0) rotate(0)" stroke="none"/></g></g><g class="relationship"><g transform="translate(562.8415507966073 -329.14453049157135) rotate(75.33580835540732)" stroke-width="3" stroke="#848484"><path d="M 49 0 L 169.38327654176962 0"/><polygon points="-18.079611541307905,0 -20.088457268119896,6.696152422706632 0,0 -20.088457268119896,-6.696152422706632" fill="#848484" transform="translate(187.46288808307753 0) rotate(0)" stroke="none"/></g></g><g class="relationship"><g transform="translate(562.8415507966073 -329.14453049157135) rotate(154.99385686187824)" stroke-width="3" stroke="#848484"><path d="M 49 0 L 185.46740444202163 0"/><polygon points="-18.079611541307905,0 -20.088457268119896,6.696152422706632 0,0 -20.088457268119896,-6.696152422706632" fill="#848484" transform="translate(203.54701598332954 0) rotate(0)" stroke="none"/></g><g transform="translate(456.5970463075063 -279.5880354348178) rotate(334.9938568618782) translate(0 3)"><g transform="translate(0 0)"><g transform="translate(-62.2607421875 0)" fill="white"><rect x="0" y="0" width="124.521484375" height="24" rx="0" ry="0" stroke="none"/><g font-family="sans-serif" font-size="20" font-weight="normal" fill="#000000" text-anchor="end"><text xml:space="preserve" x="85.60546875" y="17.5712890625" stroke="none">distance:</text><text xml:space="preserve" x="91.162109375" y="17.5712890625" stroke="none" text-anchor="start">1.2</text></g></g></g></g></g><g class="relationship"><g transform="translate(333.967668414506 -222.38900957846732) rotate(169.17111457450642)" stroke-width="3" stroke="#848484"><path d="M 49 0 L 206.80835774407146 0"/><polygon points="-18.079611541307905,0 -20.088457268119896,6.696152422706632 0,0 -20.088457268119896,-6.696152422706632" fill="#848484" transform="translate(224.88796928537937 0) rotate(0)" stroke="none"/></g><g transform="translate(208.34112294732324 -198.35881925646677) rotate(349.1711145745064) translate(0 3)"><g transform="translate(0 0)"><g transform="translate(-67.822265625 0)" fill="white"><rect x="0" y="0" width="135.64453125" height="24" rx="0" ry="0" stroke="none"/><g font-family="sans-serif" font-size="20" font-weight="normal" fill="#000000" text-anchor="end"><text xml:space="preserve" x="85.60546875" y="17.5712890625" stroke="none">distance:</text><text xml:space="preserve" x="91.162109375" y="17.5712890625" stroke="none" text-anchor="start">0.34</text></g></g></g></g></g><g class="relationship"><g transform="translate(333.967668414506 -222.38900957846732) rotate(73.98908754233051)" stroke-width="3" stroke="#848484"><path d="M 49 0 L 183.4674044420216 0"/><polygon points="-18.079611541307905,0 -20.088457268119896,6.696152422706632 0,0 -20.088457268119896,-6.696152422706632" fill="#848484" transform="translate(201.54701598332952 0) rotate(0)" stroke="none"/></g></g><g class="relationship"><g transform="translate(333.967668414506 232.9306888569579) rotate(-71.85634550706581)" stroke-width="3" stroke="#848484"><path d="M 49 0 L 154.61179345511528 0"/><polygon points="-18.079611541307905,0 -20.088457268119896,6.696152422706632 0,0 -20.088457268119896,-6.696152422706632" fill="#848484" transform="translate(172.6914049964232 0) rotate(0)" stroke="none"/></g></g><g class="relationship"><g transform="translate(333.967668414506 232.9306888569579) rotate(180)" stroke-width="3" stroke="#848484"><path d="M 49 0 L 635.9269347297522 0"/><polygon points="-18.079611541307905,0 -20.088457268119896,6.696152422706632 0,0 -20.088457268119896,-6.696152422706632" fill="#848484" transform="translate(654.0065462710602 0) rotate(0)" stroke="none"/></g><g transform="translate(-8.495798950370101 232.93068885695791) rotate(360) translate(0 -27)"><g transform="translate(0 0)"><g transform="translate(-62.2607421875 0)" fill="white"><rect x="0" y="0" width="124.521484375" height="24" rx="0" ry="0" stroke="none"/><g font-family="sans-serif" font-size="20" font-weight="normal" fill="#000000" text-anchor="end"><text xml:space="preserve" x="85.60546875" y="17.5712890625" stroke="none">distance:</text><text xml:space="preserve" x="91.162109375" y="17.5712890625" stroke="none" text-anchor="start">1.4</text></g></g></g></g></g><g class="relationship"><g transform="translate(-369.03887785655417 232.9306888569579) rotate(-97.45605630938931)" stroke-width="3" stroke="#848484"><path d="M 49 0 L 134.57363390877916 0"/><polygon points="-18.079611541307905,0 -20.088457268119896,6.696152422706632 0,0 -20.088457268119896,-6.696152422706632" fill="#848484" transform="translate(152.65324545008707 0) rotate(0)" stroke="none"/></g></g><g class="node"><g fill="#57C7E3" stroke="#57C7E3" stroke-width="4"><circle cx="64.95691575748893" cy="-170.93189467514136" r="42"/></g><g transform="translate(64.95691575748893 -170.93189467514136)"><g transform="scale(1) translate(0 -4.5)"><g transform="translate(0 0)"><g transform="translate(-5.142822265625 0)"><g fill="#6BC5E0" stroke="#000000" stroke-width="4" font-family="sans-serif" font-size="5" font-weight="normal"><text xml:space="preserve" x="0" y="5.892822265625" stroke="none">Stop</text></g></g></g></g><g transform="translate(2.8166876380389124e-15 -70)"><g transform="translate(0 0)"><g transform="translate(-68.7548828125 0)" fill="white"><rect x="0" y="0" width="137.509765625" height="24" rx="0" ry="0" stroke="none"/><g font-family="sans-serif" font-size="20" font-weight="normal" fill="#000000" text-anchor="end"><text xml:space="preserve" x="77.822265625" y="17.5712890625" stroke="none">departs:</text><text xml:space="preserve" x="83.37890625" y="17.5712890625" stroke="none" text-anchor="start">17:11</text></g></g></g></g></g></g><g class="node"><g fill="#FFE081" stroke="#5BBEF3" stroke-width="6"><circle cx="403.6252952361159" cy="20.36150083843259" r="43"/></g><g transform="translate(403.6252952361159 20.36150083843259)"><g transform="scale(1) translate(0 -4.5)"><g transform="translate(0 0)"><g transform="translate(-7.783203125 0)"><g fill="#FDDF8D" stroke="#000000" stroke-width="4" font-family="sans-serif" font-size="5" font-weight="normal"><text xml:space="preserve" x="0" y="5.892822265625" stroke="none">Station</text></g></g></g></g><g transform="translate(48 -12)"><g transform="translate(0 0)"><g transform="translate(0 0)" fill="white"><rect x="0" y="0" width="186.71875" height="24" rx="0" ry="0" stroke="none"/><g font-family="sans-serif" font-size="20" font-weight="normal" fill="#000000" text-anchor="end"><text xml:space="preserve" x="61.142578125" y="17.5712890625" stroke="none">name:</text><text xml:space="preserve" x="66.69921875" y="17.5712890625" stroke="none" text-anchor="start">Denmark Hill</text></g></g></g></g></g></g><g class="node"><g fill="#57C7E3" stroke="#57C7E3" stroke-width="4"><circle cx="-172.23702343458166" cy="-307.87587931783105" r="42"/></g><g transform="translate(-172.23702343458166 -307.87587931783105)"><g transform="scale(1) translate(0 -4.5)"><g transform="translate(0 0)"><g transform="translate(-5.142822265625 0)"><g fill="#6BC5E0" stroke="#000000" stroke-width="4" font-family="sans-serif" font-size="5" font-weight="normal"><text xml:space="preserve" x="0" y="5.892822265625" stroke="none">Stop</text></g></g></g></g><g transform="translate(2.8166876380389124e-15 -70)"><g transform="translate(0 0)"><g transform="translate(-69.4921875 0)" fill="white"><rect x="0" y="0" width="138.984375" height="24" rx="0" ry="0" stroke="none"/><g font-family="sans-serif" font-size="20" font-weight="normal" fill="#000000" text-anchor="end"><text xml:space="preserve" x="77.822265625" y="17.5712890625" stroke="none">departs:</text><text xml:space="preserve" x="83.37890625" y="17.5712890625" stroke="none" text-anchor="start">17:13</text></g></g></g></g></g></g><g class="node"><g fill="#57C7E3" stroke="#57C7E3" stroke-width="4"><circle cx="-424.9490598991258" cy="-194.28097577359364" r="42"/></g><g transform="translate(-424.9490598991258 -194.28097577359364)"><g transform="scale(1) translate(0 -4.5)"><g transform="translate(0 0)"><g transform="translate(-5.142822265625 0)"><g fill="#6BC5E0" stroke="#000000" stroke-width="4" font-family="sans-serif" font-size="5" font-weight="normal"><text xml:space="preserve" x="0" y="5.892822265625" stroke="none">Stop</text></g></g></g></g><g transform="translate(2.8166876380389124e-15 -70)"><g transform="translate(0 0)"><g transform="translate(-66.142578125 0)" fill="white"><rect x="0" y="0" width="132.28515625" height="24" rx="0" ry="0" stroke="none"/><g font-family="sans-serif" font-size="20" font-weight="normal" fill="#000000" text-anchor="end"><text xml:space="preserve" x="71.123046875" y="17.5712890625" stroke="none">arrives:</text><text xml:space="preserve" x="76.6796875" y="17.5712890625" stroke="none" text-anchor="start">17:19</text></g></g></g></g></g></g><g class="node"><g fill="#FFE081" stroke="#FDDF8D" stroke-width="4"><circle cx="-136.22969723569807" cy="-100.38414765942386" r="42"/></g><g transform="translate(-136.22969723569807 -100.38414765942386)"><g transform="scale(1) translate(0 -4.5)"><g transform="translate(0 0)"><g transform="translate(-7.783203125 0)"><g fill="#FDDF8D" stroke="#000000" stroke-width="4" font-family="sans-serif" font-size="5" font-weight="normal"><text xml:space="preserve" x="0" y="5.892822265625" stroke="none">Station</text></g></g></g></g></g></g><g class="node"><g fill="#FFE081" stroke="#FDDF8D" stroke-width="4"><circle cx="99.24017455231802" cy="30.999397090908275" r="42"/></g><g transform="translate(99.24017455231802 30.999397090908275)"><g transform="scale(1) translate(0 -4.5)"><g transform="translate(0 0)"><g transform="translate(-7.783203125 0)"><g fill="#FDDF8D" stroke="#000000" stroke-width="4" font-family="sans-serif" font-size="5" font-weight="normal"><text xml:space="preserve" x="0" y="5.892822265625" stroke="none">Station</text></g></g></g></g></g></g><g class="node"><g fill="#FFE081" stroke="#FDDF8D" stroke-width="4"><circle cx="622.7029297239204" cy="-100.38414765942386" r="42"/></g><g transform="translate(622.7029297239204 -100.38414765942386)"><g transform="scale(1) translate(0 -4.5)"><g transform="translate(0 0)"><g transform="translate(-7.783203125 0)"><g fill="#FDDF8D" stroke="#000000" stroke-width="4" font-family="sans-serif" font-size="5" font-weight="normal"><text xml:space="preserve" x="0" y="5.892822265625" stroke="none">Station</text></g></g></g></g></g></g><g class="node"><g fill="#FFE081" stroke="#5BBEF3" stroke-width="6"><circle cx="-395.4660946613551" cy="30.999397090908275" r="43"/></g><g transform="translate(-395.4660946613551 30.999397090908275)"><g transform="scale(1) translate(0 -4.5)"><g transform="translate(0 0)"><g transform="translate(-7.783203125 0)"><g fill="#FDDF8D" stroke="#000000" stroke-width="4" font-family="sans-serif" font-size="5" font-weight="normal"><text xml:space="preserve" x="0" y="5.892822265625" stroke="none">Station</text></g></g></g></g><g transform="translate(48 -12)"><g transform="translate(0 0)"><g transform="translate(0 0)" fill="white"><rect x="0" y="0" width="232.34375" height="24" rx="0" ry="0" stroke="none"/><g font-family="sans-serif" font-size="20" font-weight="normal" fill="#000000" text-anchor="end"><text xml:space="preserve" x="61.142578125" y="17.5712890625" stroke="none">name:</text><text xml:space="preserve" x="66.69921875" y="17.5712890625" stroke="none" text-anchor="start">Clapham Junction</text></g></g></g></g></g></g><g class="node"><g fill="#57C7E3" stroke="#57C7E3" stroke-width="4"><circle cx="562.8415507966073" cy="-329.14453049157135" r="42"/></g><g transform="translate(562.8415507966073 -329.14453049157135)"><g transform="scale(1) translate(0 -4.5)"><g transform="translate(0 0)"><g transform="translate(-5.142822265625 0)"><g fill="#6BC5E0" stroke="#000000" stroke-width="4" font-family="sans-serif" font-size="5" font-weight="normal"><text xml:space="preserve" x="0" y="5.892822265625" stroke="none">Stop</text></g></g></g></g><g transform="translate(2.8166876380389124e-15 -70)"><g transform="translate(0 0)"><g transform="translate(-69.4921875 0)" fill="white"><rect x="0" y="0" width="138.984375" height="24" rx="0" ry="0" stroke="none"/><g font-family="sans-serif" font-size="20" font-weight="normal" fill="#000000" text-anchor="end"><text xml:space="preserve" x="77.822265625" y="17.5712890625" stroke="none">departs:</text><text xml:space="preserve" x="83.37890625" y="17.5712890625" stroke="none" text-anchor="start">17:01</text></g></g></g></g></g></g><g class="node"><g fill="#57C7E3" stroke="#57C7E3" stroke-width="4"><circle cx="333.967668414506" cy="-222.38900957846732" r="42"/></g><g transform="translate(333.967668414506 -222.38900957846732)"><g transform="scale(1) translate(0 -4.5)"><g transform="translate(0 0)"><g transform="translate(-5.142822265625 0)"><g fill="#6BC5E0" stroke="#000000" stroke-width="4" font-family="sans-serif" font-size="5" font-weight="normal"><text xml:space="preserve" x="0" y="5.892822265625" stroke="none">Stop</text></g></g></g></g><g transform="translate(2.8166876380389124e-15 -70)"><g transform="translate(0 0)"><g transform="translate(-69.4921875 0)" fill="white"><rect x="0" y="0" width="138.984375" height="24" rx="0" ry="0" stroke="none"/><g font-family="sans-serif" font-size="20" font-weight="normal" fill="#000000" text-anchor="end"><text xml:space="preserve" x="77.822265625" y="17.5712890625" stroke="none">departs:</text><text xml:space="preserve" x="83.37890625" y="17.5712890625" stroke="none" text-anchor="start">17:07</text></g></g></g></g></g></g><g class="node"><g fill="#57C7E3" stroke="#57C7E3" stroke-width="4"><circle cx="333.967668414506" cy="232.9306888569579" r="42"/></g><g transform="translate(333.967668414506 232.9306888569579)"><g transform="scale(1) translate(0 -4.5)"><g transform="translate(0 0)"><g transform="translate(-5.142822265625 0)"><g fill="#6BC5E0" stroke="#000000" stroke-width="4" font-family="sans-serif" font-size="5" font-weight="normal"><text xml:space="preserve" x="0" y="5.892822265625" stroke="none">Stop</text></g></g></g></g><g transform="translate(2.8166876380389124e-15 46)"><g transform="translate(0 0)"><g transform="translate(-69.4921875 0)" fill="white"><rect x="0" y="0" width="138.984375" height="24" rx="0" ry="0" stroke="none"/><g font-family="sans-serif" font-size="20" font-weight="normal" fill="#000000" text-anchor="end"><text xml:space="preserve" x="77.822265625" y="17.5712890625" stroke="none">departs:</text><text xml:space="preserve" x="83.37890625" y="17.5712890625" stroke="none" text-anchor="start">17:10</text></g></g></g></g></g></g><g class="node"><g fill="#57C7E3" stroke="#57C7E3" stroke-width="4"><circle cx="-369.03887785655417" cy="232.9306888569579" r="42"/></g><g transform="translate(-369.03887785655417 232.9306888569579)"><g transform="scale(1) translate(0 -4.5)"><g transform="translate(0 0)"><g transform="translate(-5.142822265625 0)"><g fill="#6BC5E0" stroke="#6BC5E0" stroke-width="4" font-family="sans-serif" font-size="5" font-weight="normal"><text xml:space="preserve" x="0" y="5.892822265625" stroke="none">Stop</text></g></g></g></g><g transform="translate(2.8166876380389124e-15 46)"><g transform="translate(0 0)"><g transform="translate(-66.142578125 0)" fill="white"><rect x="0" y="0" width="132.28515625" height="24" rx="0" ry="0" stroke="none"/><g font-family="sans-serif" font-size="20" font-weight="normal" fill="#000000" text-anchor="end"><text xml:space="preserve" x="71.123046875" y="17.5712890625" stroke="none">arrives:</text><text xml:space="preserve" x="76.6796875" y="17.5712890625" stroke="none" text-anchor="start">17:17</text></g></g></g></g></g></g></g></svg>