<svg xmlns="http://www.w3.org/2000/svg" width="199.7117919921875" height="201.63687133789062" viewBox="-103.28177642822266 -84.6942138671875 199.7117919921875 201.63687133789062"><title>Neo4j Graph Visualization</title><desc>Created using Neo4j (http://www.neo4j.com/)</desc><g class="layer relationships"><g class="relationship" transform="translate(-70.50238126309111 87.94265540313405) rotate(268.4875669040276)"><path class="b-outline" fill="#A5ABB6" stroke="none" d="M 25 0.5 L 49.98478599247893 0.5 L 49.98478599247893 -0.5 L 25 -0.5 Z M 86.20744224247893 0.5 L 111.19222823495787 0.5 L 111.19222823495787 3.5 L 118.19222823495787 0 L 111.19222823495787 -3.5 L 111.19222823495787 -0.5 L 86.20744224247893 -0.5 Z"/><text text-anchor="middle" pointer-events="none" font-size="8px" fill="#000000" x="68.09611411747893" y="3" transform="rotate(180 68.09611411747893 0)" font-family="Helvetica Neue, Helvetica, Arial, sans-serif">KNOWS</text></g><g class="relationship" transform="translate(-74.28177857656908 -55.19968767828662) rotate(359.80006022847965)"><path class="b-outline" fill="#A5ABB6" stroke="none" d="M 25 0.5 L 49.245006161830574 0.5 L 49.245006161830574 -0.5 L 25 -0.5 Z M 85.46766241183057 0.5 L 109.71266857366115 0.5 L 109.71266857366115 3.5 L 116.71266857366115 0 L 109.71266857366115 -3.5 L 109.71266857366115 -0.5 L 85.46766241183057 -0.5 Z"/><text text-anchor="middle" pointer-events="none" font-size="8px" fill="#000000" x="67.35633428683057" y="3" font-family="Helvetica Neue, Helvetica, Arial, sans-serif">KNOWS</text></g></g><g class="layer nodes"><g class="node" aria-label="graph-node8" transform="translate(-70.50238126309111,87.94265540313405)"><circle class="b-outline" cx="0" cy="0" r="25" fill="#F79767" stroke="#f36924" stroke-width="2px"/><text class="caption" text-anchor="middle" pointer-events="none" x="0" y="0" font-size="10px" fill="#FFFFFF" font-family="Helvetica Neue, Helvetica, Arial, sans-serif"> Keanu</text><text class="caption" text-anchor="middle" pointer-events="none" x="0" y="10" font-size="10px" fill="#FFFFFF" font-family="Helvetica Neue, Helvetica, Arial, sans-serif"> Reeves</text></g><g class="node" aria-label="graph-node11" transform="translate(67.43002715493073,-55.69420824003528)"><circle class="b-outline" cx="0" cy="0" r="25" fill="#F79767" stroke="#f36924" stroke-width="2px"/><text class="caption" text-anchor="middle" pointer-events="none" x="0" y="0" font-size="10px" fill="#FFFFFF" font-family="Helvetica Neue, Helvetica, Arial, sans-serif"> Guy</text><text class="caption" text-anchor="middle" pointer-events="none" x="0" y="10" font-size="10px" fill="#FFFFFF" font-family="Helvetica Neue, Helvetica, Arial, sans-serif"> Pearce</text></g><g class="node" aria-label="graph-node9" transform="translate(-74.28177857656908,-55.19968767828662)"><circle class="b-outline" cx="0" cy="0" r="25" fill="#F79767" stroke="#f36924" stroke-width="2px"/><text class="caption" text-anchor="middle" pointer-events="none" x="0" y="-5" font-size="10px" fill="#FFFFFF" font-family="Helvetica Neue, Helvetica, Arial, sans-serif"> Carrie</text><text class="caption" text-anchor="middle" pointer-events="none" x="0" y="5" font-size="10px" fill="#FFFFFF" font-family="Helvetica Neue, Helvetica, Arial, sans-serif"> Anne</text><text class="caption" text-anchor="middle" pointer-events="none" x="0" y="15" font-size="10px" fill="#FFFFFF" font-family="Helvetica Neue, Helvetica, Arial, sans-serif"> Moss</text></g></g></svg>