<svg version="1.1" viewBox="0.0 0.0 714.0734908136483 131.28608923884514" fill="none" stroke="none" stroke-linecap="square" stroke-miterlimit="10" xmlns:xlink="http://www.w3.org/1999/xlink" xmlns="http://www.w3.org/2000/svg"><clipPath id="p.0"><path d="m0 0l714.0735 0l0 131.28609l-714.0735 0l0 -131.28609z" clip-rule="nonzero"/></clipPath><g clip-path="url(#p.0)"><path fill="#000000" fill-opacity="0.0" d="m0 0l714.0735 0l0 131.28609l-714.0735 0z" fill-rule="evenodd"/><path fill="#f3f3f3" d="m517.25104 49.834717l0 0c0 -2.0091362 1.6287231 -3.637867 3.6378174 -3.637867l122.96051 0c0.96484375 0 1.8901367 0.38327408 2.5723877 1.065506c0.68218994 0.6822357 1.0654907 1.6075401 1.0654907 2.572361l0 14.551041c0 2.0091324 -1.6287231 3.6378632 -3.6378784 3.6378632l-122.96051 0c-2.0090942 0 -3.6378174 -1.6287308 -3.6378174 -3.6378632z" fill-rule="evenodd"/><path stroke="#2794b8" stroke-width="1.0" stroke-linejoin="round" stroke-linecap="butt" d="m517.25104 49.834717l0 0c0 -2.0091362 1.6287231 -3.637867 3.6378174 -3.637867l122.96051 0c0.96484375 0 1.8901367 0.38327408 2.5723877 1.065506c0.68218994 0.6822357 1.0654907 1.6075401 1.0654907 2.572361l0 14.551041c0 2.0091324 -1.6287231 3.6378632 -3.6378784 3.6378632l-122.96051 0c-2.0090942 0 -3.6378174 -1.6287308 -3.6378174 -3.6378632z" fill-rule="evenodd"/><path fill="#000000" d="m535.02155 55.36336l0 5.21875l0.90625 0q0.484375 0 0.6875 0.1875q0.203125 0.171875 0.203125 0.484375q0 0.28125 -0.203125 0.46875q-0.203125 0.1875 -0.6875 0.1875l-3.125 0q-0.484375 0 -0.6875 -0.1875q-0.203125 -0.1875 -0.203125 -0.484375q0 -0.296875 0.203125 -0.46875q0.203125 -0.1875 0.6875 -0.1875l0.890625 0l0 -5.21875l-1.4375 0l0 1.25q0 0.484375 -0.1875 0.6875q-0.1875 0.203125 -0.484375 0.203125q-0.296875 0 -0.484375 -0.203125q-0.1875 -0.203125 -0.1875 -0.6875l0 -2.59375l6.90625 0l0 2.59375q0 0.484375 -0.1875 0.6875q-0.171875 0.203125 -0.46875 0.203125q-0.296875 0 -0.484375 -0.203125q-0.1875 -0.203125 -0.1875 -0.6875l0 -1.25l-1.46875 0zm11.107544 2.609375q0 1.765625 -1.140625 2.953125q-1.125 1.171875 -2.609375 1.171875q-1.328125 0 -2.40625 -0.96875q-1.328125 -1.21875 -1.328125 -3.15625q0 -1.953125 1.328125 -3.171875q1.078125 -0.984375 2.40625 -0.984375q1.484375 0 2.609375 1.1875q1.140625 1.171875 1.140625 2.96875zm-1.34375 0q0 -1.21875 -0.734375 -2.015625q-0.734375 -0.796875 -1.671875 -0.796875q-0.921875 0 -1.671875 0.796875q-0.734375 0.796875 -0.734375 2.015625q0 1.203125 0.734375 2.0q0.75 0.796875 1.671875 0.796875q0.9375 0 1.671875 -0.796875q0.734375 -0.796875 0.734375 -2.0z" fill-rule="nonzero"/><path fill="#000000" d="m559.35986 56.003986l-0.171875 0.828125q0.96875 -0.609375 1.484375 -0.796875q0.53125 -0.203125 0.953125 -0.203125q0.578125 0 1.015625 0.359375q0.4375 0.34375 0.4375 0.640625q0 0.3125 -0.265625 0.578125q-0.25 0.25 -0.5625 0.25q-0.25 0 -0.484375 -0.25q-0.21875 -0.25 -0.421875 -0.25q-0.25 0 -0.796875 0.28125q-0.53125 0.265625 -1.734375 1.125l-0.421875 2.015625l1.890625 0q0.453125 0 0.609375 0.140625q0.15625 0.125 0.15625 0.375q0 0.40625 -0.390625 0.671875q-0.203125 0.140625 -0.65625 0.140625l-4.03125 0q-0.4375 0 -0.609375 -0.140625q-0.15625 -0.140625 -0.15625 -0.390625q0 -0.40625 0.375 -0.65625q0.21875 -0.140625 0.671875 -0.140625l0.8125 0l0.671875 -3.25l-0.46875 0q-0.453125 0 -0.625 -0.140625q-0.15625 -0.140625 -0.15625 -0.390625q0 -0.390625 0.375 -0.65625q0.203125 -0.140625 0.6875 -0.140625l1.8125 0zm6.982544 6.125q-0.8125 0 -1.5 -0.328125q-0.671875 -0.34375 -1.015625 -0.90625q-0.34375 -0.578125 -0.34375 -1.265625q0 -0.84375 0.5625 -1.765625q0.578125 -0.9375 1.59375 -1.484375q1.03125 -0.546875 2.09375 -0.546875q0.765625 0 1.421875 0.359375q0.671875 0.34375 1.015625 0.9375q0.34375 0.578125 0.34375 1.28125q0 0.90625 -0.546875 1.78125q-0.53125 0.859375 -1.5625 1.40625q-1.015625 0.53125 -2.0625 0.53125zm0.28125 -1.34375q1.015625 0 1.765625 -0.640625q0.75 -0.65625 0.75 -1.375q0 -0.703125 -0.484375 -1.15625q-0.46875 -0.453125 -1.25 -0.453125q-1.125 0 -1.921875 0.828125q-0.640625 0.671875 -0.640625 1.34375q0 0.5625 0.484375 1.015625q0.5 0.4375 1.296875 0.4375zm10.216919 -7.3125l-1.515625 7.109375l1.609375 0q0.4375 0 0.59375 0.140625q0.171875 0.125 0.171875 0.375q0 0.40625 -0.390625 0.671875q-0.203125 0.140625 -0.65625 0.140625l-4.546875 0q-0.453125 0 -0.609375 -0.140625q-0.15625 -0.140625 -0.15625 -0.390625q0 -0.40625 0.375 -0.65625q0.21875 -0.140625 0.671875 -0.140625l1.609375 0l1.21875 -5.78125l-1.0625 0q-0.453125 0 -0.609375 -0.140625q-0.15625 -0.140625 -0.15625 -0.390625q0 -0.390625 0.375 -0.65625q0.203125 -0.140625 0.65625 -0.140625l2.421875 0zm9.357605 6.15625l-5.46875 0q0.09375 0.515625 0.546875 0.84375q0.453125 0.3125 1.375 0.3125q0.75 0 2.046875 -0.3125q0.53125 -0.125 0.734375 -0.125q0.21875 0 0.359375 0.140625q0.140625 0.140625 0.140625 0.359375q0 0.328125 -0.296875 0.59375q-0.296875 0.25 -1.390625 0.46875q-1.09375 0.21875 -1.984375 0.21875q-1.390625 0 -2.15625 -0.703125q-0.75 -0.703125 -0.75 -1.78125q0 -0.90625 0.546875 -1.8125q0.546875 -0.921875 1.5625 -1.453125q1.03125 -0.546875 2.09375 -0.546875q1.265625 0 2.046875 0.703125q0.796875 0.6875 0.796875 1.9375q0 0.265625 -0.078125 0.59375l-0.125 0.5625zm-1.1875 -1.328125q-0.171875 -0.546875 -0.609375 -0.84375q-0.4375 -0.296875 -1.125 -0.296875q-0.6875 0 -1.234375 0.28125q-0.546875 0.28125 -0.984375 0.859375l3.953125 0z" fill-rule="nonzero"/><path fill="#000000" d="m591.0245 54.816486l0 7.84375l0.796875 0q0.484375 0 0.6875 0.171875q0.21875 0.1875 0.21875 0.484375q0 0.3125 -0.21875 0.484375q-0.203125 0.1875 -0.6875 0.1875l-2.140625 0l0 -10.5l2.140625 0q0.484375 0 0.6875 0.1875q0.203125 0.1875 0.203125 0.484375q0 0.296875 -0.203125 0.484375q-0.203125 0.171875 -0.6875 0.171875l-0.796875 0zm7.029419 5.296875l1.78125 0l-1.921875 3.625q-0.171875 0.3124962 -0.421875 0.3124962q-0.171875 0 -0.296875 -0.109371185q-0.109375 -0.109375 -0.109375 -0.25q0 -0.09375 0.046875 -0.265625l0.921875 -3.3125zm9.326294 1.125q0 0.375 -0.265625 0.640625q-0.265625 0.25 -0.734375 0.25q-0.46875 0 -0.734375 -0.25q-0.265625 -0.265625 -0.265625 -0.640625q0 -0.375 0.265625 -0.625q0.265625 -0.265625 0.734375 -0.265625q0.46875 0 0.734375 0.265625q0.265625 0.25 0.265625 0.625zm7.99823 0q0 0.375 -0.265625 0.640625q-0.265625 0.25 -0.734375 0.25q-0.46875 0 -0.734375 -0.25q-0.265625 -0.265625 -0.265625 -0.640625q0 -0.375 0.265625 -0.625q0.265625 -0.265625 0.734375 -0.265625q0.46875 0 0.734375 0.265625q0.265625 0.25 0.265625 0.625zm7.998169 0q0 0.375 -0.265625 0.640625q-0.265625 0.25 -0.734375 0.25q-0.46875 0 -0.734375 -0.25q-0.265625 -0.265625 -0.265625 -0.640625q0 -0.375 0.265625 -0.625q0.265625 -0.265625 0.734375 -0.265625q0.46875 0 0.734375 0.265625q0.265625 0.25 0.265625 0.625zm6.326294 1.421875l0 -7.84375l-0.8125 0q-0.46875 0 -0.6875 -0.171875q-0.203125 -0.1875 -0.203125 -0.484375q0 -0.296875 0.203125 -0.484375q0.21875 -0.1875 0.6875 -0.1875l2.140625 0l0 10.5l-2.125 0q-0.484375 0 -0.6875 -0.1875q-0.203125 -0.171875 -0.203125 -0.484375q0 -0.28125 0.203125 -0.46875q0.203125 -0.1875 0.6875 -0.1875l0.796875 0z" fill-rule="nonzero"/><path fill="#d9ead3" d="m31.80302 41.63386l0 0c0 -2.2900696 1.8564682 -4.146538 4.146534 -4.146538l53.061256 0c1.0997314 0 2.154419 0.43686676 2.932045 1.2144928c0.77762604 0.77762604 1.2144928 1.8323135 1.2144928 2.932045l0 30.888027c0 2.2900696 -1.8564682 4.146538 -4.146538 4.146538l-53.061256 0l0 0c-2.2900658 0 -4.146534 -1.8564682 -4.146534 -4.146538z" fill-rule="evenodd"/><path stroke="#2794b8" stroke-width="1.0" stroke-linejoin="round" stroke-linecap="butt" d="m31.80302 41.63386l0 0c0 -2.2900696 1.8564682 -4.146538 4.146534 -4.146538l53.061256 0c1.0997314 0 2.154419 0.43686676 2.932045 1.2144928c0.77762604 0.77762604 1.2144928 1.8323135 1.2144928 2.932045l0 30.888027c0 2.2900696 -1.8564682 4.146538 -4.146538 4.146538l-53.061256 0l0 0c-2.2900658 0 -4.146534 -1.8564682 -4.146534 -4.146538z" fill-rule="evenodd"/><path fill="#000000" d="m47.32003 50.500374l0 2.15625q-1.09375 0.578125 -1.859375 0.796875q-0.75 0.21875 -1.640625 0.21875q-1.21875 0 -2.265625 -0.375q-0.828125 -0.28125 -1.296875 -0.703125q-0.46875 -0.4375 -0.875 -1.265625q-0.390625 -0.84375 -0.390625 -1.890625l0 -1.15625q0 -1.59375 0.96875 -2.859375q1.3125 -1.703125 3.578125 -1.703125q0.65625 0 1.234375 0.140625q0.59375 0.125 1.125 0.390625q0.328125 -0.28125 0.625 -0.28125q0.359375 0 0.578125 0.25q0.21875 0.234375 0.21875 0.8125l0 1.03125q0 0.578125 -0.234375 0.828125q-0.21875 0.25 -0.5625 0.25q-0.28125 0 -0.484375 -0.171875q-0.15625 -0.125 -0.265625 -0.515625q-0.109375 -0.40625 -0.234375 -0.546875q-0.21875 -0.234375 -0.75 -0.40625q-0.53125 -0.171875 -1.203125 -0.171875q-0.953125 0 -1.65625 0.390625q-0.5 0.28125 -0.921875 1.0q-0.421875 0.71875 -0.421875 1.5625l0 1.15625q0 1.296875 0.75 1.96875q0.75 0.65625 2.375 0.65625q1.09375 0 2.0 -0.40625l0 -1.15625l-1.625 0q-0.578125 0 -0.828125 -0.21875q-0.25 -0.21875 -0.25 -0.578125q0 -0.359375 0.25 -0.578125q0.25 -0.234375 0.828125 -0.234375l2.84375 0.015625q0.578125 0 0.8125 0.21875q0.25 0.21875 0.25 0.578125q0 0.28125 -0.171875 0.5q-0.15625 0.203125 -0.5 0.296875zm3.9140625 -0.6875l0 2.015625l0.578125 0q0.578125 0 0.8125 0.234375q0.25 0.21875 0.25 0.578125q0 0.34375 -0.25 0.578125q-0.234375 0.21875 -0.8125 0.21875l-2.4375 0q-0.578125 0 -0.828125 -0.21875q-0.234375 -0.234375 -0.234375 -0.59375q0 -0.34375 0.25 -0.5625q0.25 -0.234375 0.8125 -0.234375l0.25 0l0 -6.265625l-0.25 0q-0.578125 0 -0.828125 -0.21875q-0.234375 -0.21875 -0.234375 -0.578125q0 -0.359375 0.234375 -0.578125q0.25 -0.234375 0.828125 -0.234375l3.625 0.015625q1.703125 0 2.625 0.84375q0.9375 0.828125 0.9375 2.03125q0 0.75 -0.4375 1.375q-0.4375 0.609375 -1.3125 1.078125q0.5 0.453125 1.078125 1.140625q0.359375 0.453125 0.96875 1.390625q0.609375 0 0.8125 0.125q0.34375 0.25 0.34375 0.6875q0 0.34375 -0.25 0.578125q-0.234375 0.21875 -0.8125 0.21875l-0.90625 0q-1.953125 -3.015625 -3.234375 -3.625l-1.578125 0zm0 -1.59375l1.25 0q0.6875 0 1.234375 -0.21875q0.734375 -0.28125 0.984375 -0.59375q0.265625 -0.3125 0.265625 -0.609375q0 -0.453125 -0.484375 -0.84375q-0.484375 -0.390625 -1.421875 -0.390625l-1.828125 0l0 2.65625zm13.2109375 2.640625l-3.890625 0l-0.390625 0.96875l0.390625 0q0.578125 0 0.8125 0.234375q0.25 0.21875 0.25 0.578125q0 0.34375 -0.25 0.578125q-0.234375 0.21875 -0.8125 0.21875l-2.15625 0q-0.578125 0 -0.828125 -0.21875q-0.25 -0.234375 -0.25 -0.59375q0 -0.359375 0.265625 -0.578125q0.25 -0.234375 0.84375 -0.21875l2.515625 -6.265625l-1.046875 0q-0.578125 0 -0.828125 -0.21875q-0.234375 -0.21875 -0.234375 -0.578125q0 -0.359375 0.234375 -0.578125q0.25 -0.234375 0.828125 -0.234375l3.46875 0.015625l3.1875 7.859375q0.5625 0 0.734375 0.125q0.359375 0.265625 0.359375 0.6875q0 0.34375 -0.25 0.578125q-0.234375 0.21875 -0.8125 0.21875l-2.15625 0q-0.578125 0 -0.828125 -0.21875q-0.234375 -0.234375 -0.234375 -0.59375q0 -0.34375 0.234375 -0.5625q0.25 -0.234375 0.828125 -0.234375l0.390625 0l-0.375 -0.96875zm-0.671875 -1.609375l-1.28125 -3.171875l-1.296875 3.171875l2.578125 0zm6.3046875 -2.265625l0 4.84375l0.578125 0q0.578125 0 0.828125 0.234375q0.25 0.21875 0.25 0.578125q0 0.34375 -0.25 0.578125q-0.25 0.21875 -0.828125 0.21875l-2.09375 0q-0.578125 0 -0.828125 -0.21875q-0.25 -0.234375 -0.25 -0.59375q0 -0.34375 0.234375 -0.5625q0.25 -0.234375 0.765625 -0.234375l0 -6.265625l-0.25 0q-0.578125 0 -0.828125 -0.21875q-0.25 -0.21875 -0.25 -0.578125q0 -0.359375 0.25 -0.578125q0.25 -0.234375 0.828125 -0.234375l1.84375 0.015625l4.09375 6.421875l0 -4.828125l-0.578125 0q-0.578125 0 -0.828125 -0.21875q-0.234375 -0.21875 -0.234375 -0.578125q0 -0.359375 0.234375 -0.578125q0.25 -0.234375 0.828125 -0.234375l2.109375 0.015625q0.578125 0 0.8125 0.21875q0.25 0.21875 0.25 0.578125q0 0.34375 -0.25 0.578125q-0.234375 0.21875 -0.734375 0.21875l0 7.875l-1.578125 0l-4.125 -6.453125zm12.3828125 -1.421875l0 6.265625l1.078125 0q0.578125 0 0.828125 0.234375q0.25 0.21875 0.25 0.578125q0 0.34375 -0.25 0.578125q-0.25 0.21875 -0.828125 0.21875l-3.75 0q-0.578125 0 -0.828125 -0.21875q-0.234375 -0.234375 -0.234375 -0.59375q0 -0.34375 0.234375 -0.5625q0.25 -0.234375 0.828125 -0.234375l1.078125 0l0 -6.265625l-1.734375 0l0 1.515625q0 0.578125 -0.234375 0.828125q-0.21875 0.25 -0.578125 0.25q-0.34375 0 -0.578125 -0.25q-0.21875 -0.25 -0.21875 -0.828125l0 -3.125l8.296875 0.015625l0 3.109375q0 0.578125 -0.21875 0.828125q-0.21875 0.25 -0.578125 0.25q-0.359375 0 -0.578125 -0.25q-0.21875 -0.25 -0.21875 -0.828125l0 -1.515625l-1.765625 0z" fill-rule="nonzero"/><path fill="#000000" d="m44.49581 70.8285l0 -6.265625q-0.5 0 -0.75 -0.21875q-0.234375 -0.234375 -0.234375 -0.578125q0 -0.359375 0.234375 -0.578125q0.25 -0.234375 0.828125 -0.234375l3.359375 0.015625q0.78125 0 1.515625 0.296875q0.75 0.28125 1.203125 0.71875q0.34375 0.34375 0.71875 0.9375q0.375 0.578125 0.5625 1.15625q0.1875 0.578125 0.1875 1.40625l0 0.765625q0 1.015625 -0.34375 1.8125q-0.34375 0.78125 -0.90625 1.28125q-0.5625 0.484375 -1.046875 0.71875q-0.78125 0.375 -2.03125 0.375l-3.21875 0q-0.578125 0 -0.828125 -0.21875q-0.234375 -0.234375 -0.234375 -0.59375q0 -0.34375 0.234375 -0.5625q0.25 -0.234375 0.75 -0.234375zm1.609375 0l1.703125 0q0.953125 0 1.4375 -0.265625q0.625 -0.359375 0.9375 -0.90625q0.328125 -0.5625 0.328125 -1.453125l0 -0.75q0 -0.765625 -0.28125 -1.328125q-0.453125 -0.890625 -1.03125 -1.21875q-0.5625 -0.34375 -1.40625 -0.34375l-1.6875 0l0 6.265625zm9.9296875 -2.34375l0 2.34375l4.09375 0l0 -0.859375q0 -0.578125 0.21875 -0.828125q0.21875 -0.25 0.578125 -0.25q0.359375 0 0.578125 0.25q0.21875 0.25 0.21875 0.828125l0 2.46875l-7.53125 0q-0.578125 0 -0.828125 -0.21875q-0.25 -0.234375 -0.25 -0.59375q0 -0.34375 0.25 -0.5625q0.25 -0.234375 0.828125 -0.234375l0.25 0l0 -6.265625l-0.25 0q-0.578125 0 -0.828125 -0.21875q-0.25 -0.21875 -0.25 -0.578125q0 -0.359375 0.25 -0.578125q0.25 -0.234375 0.828125 -0.234375l7.1875 0.015625l0 2.4375q0 0.5625 -0.21875 0.8125q-0.21875 0.25 -0.578125 0.25q-0.359375 0 -0.59375 -0.234375q-0.21875 -0.25 -0.21875 -0.828125l0 -0.84375l-3.734375 0l0 2.3125l1.40625 0q0 -0.625 0.125 -0.796875q0.234375 -0.390625 0.6875 -0.390625q0.34375 0 0.5625 0.25q0.234375 0.25 0.234375 0.828125l0 1.84375q0 0.515625 -0.125 0.703125q-0.25 0.359375 -0.671875 0.359375q-0.453125 0 -0.6875 -0.375q-0.125 -0.1875 -0.125 -0.8125l-1.40625 0zm9.2421875 -2.5l0 4.84375l0.578125 0q0.578125 0 0.828125 0.234375q0.25 0.21875 0.25 0.578125q0 0.34375 -0.25 0.578125q-0.25 0.21875 -0.828125 0.21875l-2.09375 0q-0.578125 0 -0.828125 -0.21875q-0.25 -0.234375 -0.25 -0.59375q0 -0.34375 0.234375 -0.5625q0.25 -0.234375 0.765625 -0.234375l0 -6.265625l-0.25 0q-0.578125 0 -0.828125 -0.21875q-0.25 -0.21875 -0.25 -0.578125q0 -0.359375 0.25 -0.578125q0.25 -0.234375 0.828125 -0.234375l1.84375 0.015625l4.09375 6.421875l0 -4.828125l-0.578125 0q-0.578125 0 -0.828125 -0.21875q-0.234375 -0.21875 -0.234375 -0.578125q0 -0.359375 0.234375 -0.578125q0.25 -0.234375 0.828125 -0.234375l2.109375 0.015625q0.578125 0 0.8125 0.21875q0.25 0.21875 0.25 0.578125q0 0.34375 -0.25 0.578125q-0.234375 0.21875 -0.734375 0.21875l0 7.875l-1.578125 0l-4.125 -6.453125zm12.4140625 2.46875l0 2.375l1.078125 0q0.578125 0 0.828125 0.234375q0.25 0.21875 0.25 0.578125q0 0.34375 -0.25 0.578125q-0.25 0.21875 -0.828125 0.21875l-3.75 0q-0.578125 0 -0.828125 -0.21875q-0.234375 -0.234375 -0.234375 -0.59375q0 -0.34375 0.234375 -0.5625q0.25 -0.234375 0.828125 -0.234375l1.078125 0l0 -2.375l-2.65625 -3.890625q-0.53125 0 -0.78125 -0.21875q-0.234375 -0.234375 -0.234375 -0.578125q0 -0.359375 0.234375 -0.578125q0.25 -0.234375 0.828125 -0.234375l1.453125 0.015625q0.578125 0 0.828125 0.21875q0.25 0.21875 0.25 0.578125q0 0.53125 -0.640625 0.796875l1.515625 2.234375l1.484375 -2.234375q-0.34375 -0.125 -0.5 -0.328125q-0.140625 -0.203125 -0.140625 -0.46875q0 -0.359375 0.234375 -0.578125q0.25 -0.21875 0.828125 -0.234375l1.515625 0.015625q0.578125 0 0.8125 0.21875q0.25 0.21875 0.25 0.578125q0 0.359375 -0.25 0.578125q-0.25 0.21875 -0.8125 0.21875l-2.625 3.890625z" fill-rule="nonzero"/><path fill="#f3f3f3" d="m222.41092 56.502995l0 0c0 -0.0869751 0.070510864 -0.15748215 0.15748596 -0.15748215l0.62991333 0l0 0c0.041763306 0 0.08181763 0.016590118 0.11135864 0.046123505c0.029525757 0.0295372 0.04612732 0.06959152 0.04612732 0.11135864l0 0.62991714c0 0.0869751 -0.070510864 0.15748215 -0.15748596 0.15748215l-0.62991333 0c-0.0869751 0 -0.15748596 -0.07050705 -0.15748596 -0.15748215z" fill-rule="evenodd"/><path stroke="#2794b8" stroke-width="1.0" stroke-linejoin="round" stroke-linecap="butt" d="m222.41092 56.502995l0 0c0 -0.0869751 0.070510864 -0.15748215 0.15748596 -0.15748215l0.62991333 0l0 0c0.041763306 0 0.08181763 0.016590118 0.11135864 0.046123505c0.029525757 0.0295372 0.04612732 0.06959152 0.04612732 0.11135864l0 0.62991714c0 0.0869751 -0.070510864 0.15748215 -0.15748596 0.15748215l-0.62991333 0c-0.0869751 0 -0.15748596 -0.07050705 -0.15748596 -0.15748215z" fill-rule="evenodd"/><path fill="#f3f3f3" d="m123.53092 49.74023l0 0c0 -2.00914 1.6287231 -3.637867 3.6378632 -3.637867l77.13372 0c0.96481323 0 1.8901215 0.38327408 2.5723572 1.065506c0.6822357 0.6822319 1.065506 1.6075363 1.065506 2.572361l0 14.551037c0 2.00914 -1.6287231 3.6378632 -3.6378632 3.6378632l-77.13372 0c-2.00914 0 -3.6378632 -1.6287231 -3.6378632 -3.6378632z" fill-rule="evenodd"/><path stroke="#2794b8" stroke-width="1.0" stroke-linejoin="round" stroke-linecap="butt" d="m123.53092 49.74023l0 0c0 -2.00914 1.6287231 -3.637867 3.6378632 -3.637867l77.13372 0c0.96481323 0 1.8901215 0.38327408 2.5723572 1.065506c0.6822357 0.6822319 1.065506 1.6075363 1.065506 2.572361l0 14.551037c0 2.00914 -1.6287231 3.6378632 -3.6378632 3.6378632l-77.13372 0c-2.00914 0 -3.6378632 -1.6287231 -3.6378632 -3.6378632z" fill-rule="evenodd"/><path fill="#000000" d="m134.4157 55.26887l0 5.21875l1.34375 0q0.484375 0 0.6875 0.1875q0.203125 0.171875 0.203125 0.484375q0 0.28125 -0.203125 0.46875q-0.203125 0.1875 -0.6875 0.1875l-4.03125 0q-0.484375 0 -0.6875 -0.1875q-0.203125 -0.1875 -0.203125 -0.484375q0 -0.296875 0.203125 -0.46875q0.203125 -0.1875 0.6875 -0.1875l1.34375 0l0 -5.21875l-1.34375 0q-0.484375 0 -0.6875 -0.1875q-0.203125 -0.1875 -0.203125 -0.484375q0 -0.296875 0.203125 -0.484375q0.203125 -0.1875 0.6875 -0.1875l4.03125 0q0.484375 0 0.6875 0.1875q0.203125 0.1875 0.203125 0.484375q0 0.296875 -0.203125 0.484375q-0.203125 0.1875 -0.6875 0.1875l-1.34375 0zm5.232559 1.234375l0 3.984375l0.484375 0q0.484375 0 0.6875 0.1875q0.203125 0.171875 0.203125 0.484375q0 0.28125 -0.203125 0.46875q-0.203125 0.1875 -0.6875 0.1875l-1.75 0q-0.484375 0 -0.6875 -0.1875q-0.203125 -0.1875 -0.203125 -0.484375q0 -0.296875 0.203125 -0.46875q0.203125 -0.1875 0.625 -0.1875l0 -5.21875q-0.34375 -0.046875 -0.53125 -0.21875q-0.171875 -0.1875 -0.171875 -0.453125q0 -0.296875 0.203125 -0.484375q0.203125 -0.1875 0.6875 -0.1875l1.453125 0l1.828125 4.015625l1.78125 -4.015625l1.46875 0q0.484375 0 0.6875 0.1875q0.203125 0.1875 0.203125 0.484375q0 0.265625 -0.1875 0.453125q-0.171875 0.171875 -0.515625 0.21875l0 5.21875q0.421875 0 0.625 0.1875q0.203125 0.1875 0.203125 0.484375q0 0.28125 -0.203125 0.46875q-0.203125 0.1875 -0.6875 0.1875l-1.765625 0q-0.46875 0 -0.671875 -0.1875q-0.203125 -0.1875 -0.203125 -0.484375q0 -0.296875 0.203125 -0.46875q0.203125 -0.1875 0.671875 -0.1875l0.5 0l0 -3.984375l-1.53125 3.4375l-1.15625 0l-1.5625 -3.4375zm7.998184 0l0 3.984375l0.484375 0q0.484375 0 0.6875 0.1875q0.203125 0.171875 0.203125 0.484375q0 0.28125 -0.203125 0.46875q-0.203125 0.1875 -0.6875 0.1875l-1.75 0q-0.484375 0 -0.6875 -0.1875q-0.203125 -0.1875 -0.203125 -0.484375q0 -0.296875 0.203125 -0.46875q0.203125 -0.1875 0.625 -0.1875l0 -5.21875q-0.34375 -0.046875 -0.53125 -0.21875q-0.171875 -0.1875 -0.171875 -0.453125q0 -0.296875 0.203125 -0.484375q0.203125 -0.1875 0.6875 -0.1875l1.453125 0l1.828125 4.015625l1.78125 -4.015625l1.46875 0q0.484375 0 0.6875 0.1875q0.203125 0.1875 0.203125 0.484375q0 0.265625 -0.1875 0.453125q-0.171875 0.171875 -0.515625 0.21875l0 5.21875q0.421875 0 0.625 0.1875q0.203125 0.1875 0.203125 0.484375q0 0.28125 -0.203125 0.46875q-0.203125 0.1875 -0.6875 0.1875l-1.765625 0q-0.46875 0 -0.671875 -0.1875q-0.203125 -0.1875 -0.203125 -0.484375q0 -0.296875 0.203125 -0.46875q0.203125 -0.1875 0.671875 -0.1875l0.5 0l0 -3.984375l-1.53125 3.4375l-1.15625 0l-1.5625 -3.4375zm13.138809 -1.234375l0 3.78125q0 1.234375 -0.890625 2.09375q-0.890625 0.859375 -2.140625 0.859375q-0.609375 0 -1.15625 -0.203125q-0.546875 -0.21875 -0.984375 -0.640625q-0.421875 -0.4375 -0.671875 -0.890625q-0.234375 -0.453125 -0.234375 -1.21875l0 -3.78125q-0.421875 0 -0.625 -0.1875q-0.203125 -0.203125 -0.203125 -0.484375q0 -0.296875 0.203125 -0.484375q0.203125 -0.1875 0.6875 -0.1875l1.75 0q0.484375 0 0.6875 0.1875q0.203125 0.1875 0.203125 0.484375q0 0.296875 -0.203125 0.484375q-0.203125 0.1875 -0.6875 0.1875l-0.484375 0l0 3.890625q0 0.59375 0.5 1.0625q0.5 0.453125 1.203125 0.453125q0.46875 0 0.875 -0.21875q0.421875 -0.21875 0.671875 -0.640625q0.171875 -0.265625 0.171875 -0.65625l0 -3.890625l-0.484375 0q-0.484375 0 -0.6875 -0.1875q-0.203125 -0.1875 -0.203125 -0.484375q0 -0.296875 0.203125 -0.484375q0.203125 -0.1875 0.6875 -0.1875l1.75 0q0.484375 0 0.6875 0.1875q0.203125 0.1875 0.203125 0.484375q0 0.28125 -0.203125 0.484375q-0.203125 0.1875 -0.625 0.1875zm5.591934 0l0 5.21875l0.90625 0q0.484375 0 0.6875 0.1875q0.203125 0.171875 0.203125 0.484375q0 0.28125 -0.203125 0.46875q-0.203125 0.1875 -0.6875 0.1875l-3.125 0q-0.484375 0 -0.6875 -0.1875q-0.203125 -0.1875 -0.203125 -0.484375q0 -0.296875 0.203125 -0.46875q0.203125 -0.1875 0.6875 -0.1875l0.890625 0l0 -5.21875l-1.4375 0l0 1.25q0 0.484375 -0.1875 0.6875q-0.1875 0.203125 -0.484375 0.203125q-0.296875 0 -0.484375 -0.203125q-0.1875 -0.203125 -0.1875 -0.6875l0 -2.59375l6.90625 0l0 2.59375q0 0.484375 -0.1875 0.6875q-0.171875 0.203125 -0.46875 0.203125q-0.296875 0 -0.484375 -0.203125q-0.1875 -0.203125 -0.1875 -0.6875l0 -1.25l-1.46875 0zm8.982559 4.40625l-3.234375 0l-0.328125 0.8125l0.328125 0q0.484375 0 0.6875 0.1875q0.203125 0.171875 0.203125 0.484375q0 0.28125 -0.203125 0.46875q-0.203125 0.1875 -0.6875 0.1875l-1.796875 0q-0.484375 0 -0.6875 -0.1875q-0.203125 -0.1875 -0.203125 -0.484375q0 -0.296875 0.21875 -0.484375q0.203125 -0.1875 0.703125 -0.171875l2.09375 -5.21875l-0.875 0q-0.484375 0 -0.6875 -0.1875q-0.203125 -0.1875 -0.203125 -0.484375q0 -0.296875 0.203125 -0.484375q0.203125 -0.1875 0.6875 -0.1875l2.890625 0l2.65625 6.5625q0.46875 0 0.609375 0.09375q0.296875 0.21875 0.296875 0.578125q0 0.28125 -0.203125 0.46875q-0.1875 0.1875 -0.671875 0.1875l-1.796875 0q-0.484375 0 -0.6875 -0.1875q-0.203125 -0.1875 -0.203125 -0.484375q0 -0.296875 0.203125 -0.46875q0.203125 -0.1875 0.6875 -0.1875l0.328125 0l-0.328125 -0.8125zm-0.546875 -1.34375l-1.078125 -2.640625l-1.078125 2.640625l2.15625 0zm4.201309 2.15625l0 -5.21875l-0.21875 0q-0.484375 0 -0.6875 -0.1875q-0.203125 -0.1875 -0.203125 -0.484375q0 -0.296875 0.203125 -0.484375q0.203125 -0.1875 0.6875 -0.1875l3.34375 0q1.203125 0 1.921875 0.671875q0.734375 0.65625 0.734375 1.578125q0 0.4375 -0.171875 0.828125q-0.15625 0.375 -0.5 0.703125q0.625 0.375 0.9375 0.875q0.3125 0.5 0.3125 1.140625q0 0.515625 -0.21875 0.953125q-0.171875 0.328125 -0.421875 0.515625q-0.328125 0.28125 -0.8125 0.453125q-0.484375 0.171875 -1.203125 0.171875l-3.921875 0q-0.484375 0 -0.6875 -0.1875q-0.203125 -0.1875 -0.203125 -0.484375q0 -0.296875 0.203125 -0.46875q0.21875 -0.1875 0.6875 -0.1875l0.21875 0zm1.328125 -3.28125l1.46875 0q0.78125 0 1.296875 -0.40625q0.359375 -0.265625 0.359375 -0.65625q0 -0.359375 -0.34375 -0.609375q-0.328125 -0.265625 -1.046875 -0.265625l-1.734375 0l0 1.9375zm0 3.28125l2.296875 0q0.828125 0 1.15625 -0.25q0.25 -0.171875 0.25 -0.515625q0 -0.40625 -0.5 -0.796875q-0.5 -0.390625 -1.4375 -0.390625l-1.765625 0l0 1.953125zm8.826309 -5.21875l0 5.21875l2.875 0l0 -1.265625q0 -0.484375 0.1875 -0.6875q0.1875 -0.203125 0.484375 -0.203125q0.296875 0 0.484375 0.203125q0.1875 0.203125 0.1875 0.6875l0 2.59375l-6.328125 0q-0.46875 0 -0.6875 -0.1875q-0.203125 -0.1875 -0.203125 -0.484375q0 -0.296875 0.203125 -0.46875q0.21875 -0.1875 0.6875 -0.1875l0.78125 0l0 -5.21875l-0.78125 0q-0.46875 0 -0.6875 -0.1875q-0.203125 -0.1875 -0.203125 -0.484375q0 -0.296875 0.203125 -0.484375q0.21875 -0.1875 0.6875 -0.1875l2.890625 0q0.484375 0 0.6875 0.1875q0.203125 0.1875 0.203125 0.484375q0 0.296875 -0.203125 0.484375q-0.203125 0.1875 -0.6875 0.1875l-0.78125 0zm7.185684 3.25l0 1.96875l3.40625 0l0 -0.734375q0 -0.46875 0.1875 -0.671875q0.1875 -0.21875 0.484375 -0.21875q0.296875 0 0.46875 0.21875q0.1875 0.203125 0.1875 0.671875l0 2.0625l-6.265625 0q-0.484375 0 -0.703125 -0.1875q-0.203125 -0.1875 -0.203125 -0.484375q0 -0.296875 0.203125 -0.46875q0.21875 -0.1875 0.703125 -0.1875l0.203125 0l0 -5.21875l-0.203125 0q-0.484375 0 -0.703125 -0.1875q-0.203125 -0.1875 -0.203125 -0.484375q0 -0.296875 0.203125 -0.484375q0.21875 -0.1875 0.703125 -0.1875l5.984375 0l0 2.03125q0 0.484375 -0.1875 0.6875q-0.1875 0.203125 -0.484375 0.203125q-0.296875 0 -0.484375 -0.203125q-0.1875 -0.203125 -0.1875 -0.6875l0 -0.6875l-3.109375 0l0 1.921875l1.171875 0q0 -0.515625 0.09375 -0.671875q0.203125 -0.3125 0.578125 -0.3125q0.296875 0 0.484375 0.203125q0.1875 0.203125 0.1875 0.6875l0 1.53125q0 0.4375 -0.109375 0.578125q-0.203125 0.3125 -0.5625 0.3125q-0.375 0 -0.578125 -0.3125q-0.09375 -0.15625 -0.09375 -0.6875l-1.171875 0z" fill-rule="nonzero"/><path fill="#000000" fill-opacity="0.0" d="m93.15735 57.077873l30.362206 -0.062992096" fill-rule="evenodd"/><path stroke="#2794b8" stroke-width="1.0" stroke-linejoin="round" stroke-linecap="butt" d="m93.15735 57.077873l30.362206 -0.062992096" fill-rule="evenodd"/><path fill="#000000" fill-opacity="0.0" d="m207.94037 57.015747l14.456696 -0.18897629" fill-rule="evenodd"/><path stroke="#2794b8" stroke-width="1.0" stroke-linejoin="round" stroke-linecap="butt" d="m207.94037 57.015747l14.456696 -0.18897629" fill-rule="evenodd"/><path fill="#000000" fill-opacity="0.0" d="m93.15735 57.077873c10.913727 0 11.723473 5.89027 21.827461 12.606262c10.103981 6.715988 29.502205 14.257698 53.952415 12.606255c24.45021 -1.6514359 53.952408 -12.496017 53.952408 -24.992043" fill-rule="evenodd"/><path stroke="#2794b8" stroke-width="1.0" stroke-linejoin="round" stroke-linecap="butt" d="m93.15735 57.077873c10.913727 0 11.723473 5.89027 21.827461 12.606262c10.103981 6.715988 29.502205 14.257698 53.952415 12.606255c24.45021 -1.6514359 53.952408 -12.496017 53.952408 -24.992043" fill-rule="evenodd"/><path fill="#f3f3f3" d="m249.07611 49.557816l0 0c0 -2.00914 1.6287384 -3.637867 3.6378784 -3.637867l56.661255 0c0.96484375 0 1.8901367 0.38327408 2.5723572 1.065506c0.682251 0.6822319 1.0655212 1.6075401 1.0655212 2.572361l0 14.551033c0 2.00914 -1.6287231 3.6378708 -3.6378784 3.6378708l-56.661255 0l0 0c-2.00914 0 -3.6378784 -1.6287308 -3.6378784 -3.6378708z" fill-rule="evenodd"/><path stroke="#2794b8" stroke-width="1.0" stroke-linejoin="round" stroke-linecap="butt" d="m249.07611 49.557816l0 0c0 -2.00914 1.6287384 -3.637867 3.6378784 -3.637867l56.661255 0c0.96484375 0 1.8901367 0.38327408 2.5723572 1.065506c0.682251 0.6822319 1.0655212 1.6075401 1.0655212 2.572361l0 14.551033c0 2.00914 -1.6287231 3.6378708 -3.6378784 3.6378708l-56.661255 0l0 0c-2.00914 0 -3.6378784 -1.6287308 -3.6378784 -3.6378708z" fill-rule="evenodd"/><path fill="#000000" d="m268.48575 55.086456l0 5.21875l2.875 0l0 -1.265625q0 -0.484375 0.1875 -0.6875q0.1875 -0.203125 0.484375 -0.203125q0.296875 0 0.484375 0.203125q0.1875 0.203125 0.1875 0.6875l0 2.59375l-6.328125 0q-0.46875 0 -0.6875 -0.1875q-0.203125 -0.1875 -0.203125 -0.484375q0 -0.296875 0.203125 -0.46875q0.21875 -0.1875 0.6875 -0.1875l0.78125 0l0 -5.21875l-0.78125 0q-0.46875 0 -0.6875 -0.1875q-0.203125 -0.1875 -0.203125 -0.484375q0 -0.296875 0.203125 -0.484375q0.21875 -0.1875 0.6875 -0.1875l2.890625 0q0.484375 0 0.6875 0.1875q0.203125 0.1875 0.203125 0.484375q0 0.296875 -0.203125 0.484375q-0.203125 0.1875 -0.6875 0.1875l-0.78125 0zm12.310699 2.609375q0 1.765625 -1.140625 2.953125q-1.125 1.171875 -2.609375 1.171875q-1.328125 0 -2.40625 -0.96875q-1.328125 -1.21875 -1.328125 -3.15625q0 -1.953125 1.328125 -3.171875q1.078125 -0.984375 2.40625 -0.984375q1.484375 0 2.609375 1.1875q1.140625 1.171875 1.140625 2.96875zm-1.34375 0q0 -1.21875 -0.734375 -2.015625q-0.734375 -0.796875 -1.671875 -0.796875q-0.921875 0 -1.671875 0.796875q-0.734375 0.796875 -0.734375 2.015625q0 1.203125 0.734375 2.0q0.75 0.796875 1.671875 0.796875q0.9375 0 1.671875 -0.796875q0.734375 -0.796875 0.734375 -2.0zm7.216919 1.796875l-3.234375 0l-0.328125 0.8125l0.328125 0q0.484375 0 0.6875 0.1875q0.203125 0.171875 0.203125 0.484375q0 0.28125 -0.203125 0.46875q-0.203125 0.1875 -0.6875 0.1875l-1.796875 0q-0.484375 0 -0.6875 -0.1875q-0.203125 -0.1875 -0.203125 -0.484375q0 -0.296875 0.21875 -0.484375q0.203125 -0.1875 0.703125 -0.171875l2.09375 -5.21875l-0.875 0q-0.484375 0 -0.6875 -0.1875q-0.203125 -0.1875 -0.203125 -0.484375q0 -0.296875 0.203125 -0.484375q0.203125 -0.1875 0.6875 -0.1875l2.890625 0l2.65625 6.5625q0.46875 0 0.609375 0.09375q0.296875 0.21875 0.296875 0.578125q0 0.28125 -0.203125 0.46875q-0.1875 0.1875 -0.671875 0.1875l-1.796875 0q-0.484375 0 -0.6875 -0.1875q-0.203125 -0.1875 -0.203125 -0.484375q0 -0.296875 0.203125 -0.46875q0.203125 -0.1875 0.6875 -0.1875l0.328125 0l-0.328125 -0.8125zm-0.546875 -1.34375l-1.078125 -2.640625l-1.078125 2.640625l2.15625 0zm3.9356995 2.15625l0 -5.21875q-0.421875 -0.015625 -0.625 -0.203125q-0.203125 -0.1875 -0.203125 -0.46875q0 -0.296875 0.203125 -0.484375q0.203125 -0.1875 0.6875 -0.1875l2.796875 0q0.640625 0 1.265625 0.25q0.625 0.234375 1.0 0.609375q0.296875 0.28125 0.59375 0.765625q0.3125 0.484375 0.46875 0.96875q0.15625 0.484375 0.15625 1.171875l0 0.640625q0 0.84375 -0.296875 1.5q-0.28125 0.65625 -0.75 1.078125q-0.453125 0.40625 -0.859375 0.59375q-0.65625 0.3125 -1.6875 0.3125l-2.6875 0q-0.484375 0 -0.6875 -0.1875q-0.203125 -0.1875 -0.203125 -0.484375q0 -0.296875 0.203125 -0.484375q0.203125 -0.1875 0.625 -0.171875zm1.328125 0l1.421875 0q0.796875 0 1.203125 -0.234375q0.53125 -0.296875 0.796875 -0.75q0.265625 -0.46875 0.265625 -1.203125l0 -0.640625q0 -0.625 -0.25 -1.109375q-0.375 -0.734375 -0.84375 -1.0q-0.46875 -0.28125 -1.1875 -0.28125l-1.40625 0l0 5.21875z" fill-rule="nonzero"/><path fill="#f3f3f3" d="m338.7323 49.803223l0 0c0 -2.00914 1.6287231 -3.637867 3.637848 -3.637867l19.842377 0c0.96481323 0 1.8901367 0.38327408 2.5723572 1.065506c0.682251 0.6822319 1.0655212 1.6075363 1.0655212 2.572361l0 14.551033c0 2.00914 -1.6287231 3.6378708 -3.6378784 3.6378708l-19.842377 0l0 0c-2.0091248 0 -3.637848 -1.6287308 -3.637848 -3.6378708z" fill-rule="evenodd"/><path stroke="#2794b8" stroke-width="1.0" stroke-linejoin="round" stroke-linecap="butt" d="m338.7323 49.803223l0 0c0 -2.00914 1.6287231 -3.637867 3.637848 -3.637867l19.842377 0c0.96481323 0 1.8901367 0.38327408 2.5723572 1.065506c0.682251 0.6822319 1.0655212 1.6075363 1.0655212 2.572361l0 14.551033c0 2.00914 -1.6287231 3.6378708 -3.6378784 3.6378708l-19.842377 0l0 0c-2.0091248 0 -3.637848 -1.6287308 -3.637848 -3.6378708z" fill-rule="evenodd"/><path fill="#000000" d="m352.04315 57.94124q0 1.765625 -1.140625 2.953125q-1.125 1.171875 -2.609375 1.171875q-1.328125 0 -2.40625 -0.96875q-1.328125 -1.21875 -1.328125 -3.15625q0 -1.953125 1.328125 -3.171875q1.078125 -0.984375 2.40625 -0.984375q1.484375 0 2.609375 1.1875q1.140625 1.171875 1.140625 2.96875zm-1.34375 0q0 -1.21875 -0.734375 -2.015625q-0.734375 -0.796875 -1.671875 -0.796875q-0.921875 0 -1.671875 0.796875q-0.734375 0.796875 -0.734375 2.015625q0 1.203125 0.734375 2.0q0.75 0.796875 1.671875 0.796875q0.9375 0 1.671875 -0.796875q0.734375 -0.796875 0.734375 -2.0zm3.9200745 -1.4375l0 4.046875l0.484375 0q0.484375 0 0.6875 0.1875q0.203125 0.171875 0.203125 0.484375q0 0.28125 -0.203125 0.46875q-0.203125 0.1875 -0.6875 0.1875l-1.75 0q-0.484375 0 -0.6875 -0.1875q-0.203125 -0.1875 -0.203125 -0.484375q0 -0.28125 0.203125 -0.46875q0.203125 -0.1875 0.625 -0.1875l0 -5.21875l-0.21875 0q-0.46875 0 -0.6875 -0.1875q-0.203125 -0.1875 -0.203125 -0.484375q0 -0.296875 0.203125 -0.484375q0.21875 -0.1875 0.6875 -0.1875l1.546875 0l3.40625 5.359375l0 -4.015625l-0.46875 0q-0.484375 0 -0.703125 -0.1875q-0.203125 -0.1875 -0.203125 -0.484375q0 -0.296875 0.203125 -0.484375q0.21875 -0.1875 0.703125 -0.1875l1.75 0q0.46875 0 0.671875 0.1875q0.21875 0.1875 0.21875 0.484375q0 0.28125 -0.203125 0.484375q-0.203125 0.1875 -0.625 0.1875l0 6.546875l-1.3125 0l-3.4375 -5.375z" fill-rule="nonzero"/><path fill="#f3f3f3" d="m402.66885 49.80191l0 0c0 -2.00914 1.6287231 -3.637867 3.637848 -3.637867l70.48807 0c0.96481323 0 1.8901062 0.38327408 2.5723572 1.065506c0.68222046 0.6822319 1.0654907 1.6075363 1.0654907 2.572361l0 14.551033c0 2.00914 -1.6287231 3.6378708 -3.637848 3.6378708l-70.48807 0c-2.0091248 0 -3.637848 -1.6287308 -3.637848 -3.6378708z" fill-rule="evenodd"/><path stroke="#2794b8" stroke-width="1.0" stroke-linejoin="round" stroke-linecap="butt" d="m402.66885 49.80191l0 0c0 -2.00914 1.6287231 -3.637867 3.637848 -3.637867l70.48807 0c0.96481323 0 1.8901062 0.38327408 2.5723572 1.065506c0.68222046 0.6822319 1.0654907 1.6075363 1.0654907 2.572361l0 14.551033c0 2.00914 -1.6287231 3.6378708 -3.637848 3.6378708l-70.48807 0c-2.0091248 0 -3.637848 -1.6287308 -3.637848 -3.6378708z" fill-rule="evenodd"/><path fill="#000000" d="m411.35934 59.7368l-3.234375 0l-0.328125 0.8125l0.328125 0q0.484375 0 0.6875 0.1875q0.203125 0.171875 0.203125 0.484375q0 0.28125 -0.203125 0.46875q-0.203125 0.1875 -0.6875 0.1875l-1.796875 0q-0.484375 0 -0.6875 -0.1875q-0.203125 -0.1875 -0.203125 -0.484375q0 -0.296875 0.21875 -0.484375q0.203125 -0.1875 0.703125 -0.171875l2.09375 -5.21875l-0.875 0q-0.484375 0 -0.6875 -0.1875q-0.203125 -0.1875 -0.203125 -0.484375q0 -0.296875 0.203125 -0.484375q0.203125 -0.1875 0.6875 -0.1875l2.890625 0l2.65625 6.5625q0.46875 0 0.609375 0.09375q0.296875 0.21875 0.296875 0.578125q0 0.28125 -0.203125 0.46875q-0.1875 0.1875 -0.671875 0.1875l-1.796875 0q-0.484375 0 -0.6875 -0.1875q-0.203125 -0.1875 -0.203125 -0.484375q0 -0.296875 0.203125 -0.46875q0.203125 -0.1875 0.6875 -0.1875l0.328125 0l-0.328125 -0.8125zm-0.546875 -1.34375l-1.078125 -2.640625l-1.078125 2.640625l2.15625 0zm6.357544 -3.0625l0 5.21875l2.875 0l0 -1.265625q0 -0.484375 0.1875 -0.6875q0.1875 -0.203125 0.484375 -0.203125q0.296875 0 0.484375 0.203125q0.1875 0.203125 0.1875 0.6875l0 2.59375l-6.328125 0q-0.46875 0 -0.6875 -0.1875q-0.203125 -0.1875 -0.203125 -0.484375q0 -0.296875 0.203125 -0.46875q0.21875 -0.1875 0.6875 -0.1875l0.78125 0l0 -5.21875l-0.78125 0q-0.46875 0 -0.6875 -0.1875q-0.203125 -0.1875 -0.203125 -0.484375q0 -0.296875 0.203125 -0.484375q0.21875 -0.1875 0.6875 -0.1875l2.890625 0q0.484375 0 0.6875 0.1875q0.203125 0.1875 0.203125 0.484375q0 0.296875 -0.203125 0.484375q-0.203125 0.1875 -0.6875 0.1875l-0.78125 0zm7.9981995 0l0 5.21875l2.875 0l0 -1.265625q0 -0.484375 0.1875 -0.6875q0.1875 -0.203125 0.484375 -0.203125q0.296875 0 0.484375 0.203125q0.1875 0.203125 0.1875 0.6875l0 2.59375l-6.328125 0q-0.46875 0 -0.6875 -0.1875q-0.203125 -0.1875 -0.203125 -0.484375q0 -0.296875 0.203125 -0.46875q0.21875 -0.1875 0.6875 -0.1875l0.78125 0l0 -5.21875l-0.78125 0q-0.46875 0 -0.6875 -0.1875q-0.203125 -0.1875 -0.203125 -0.484375q0 -0.296875 0.203125 -0.484375q0.21875 -0.1875 0.6875 -0.1875l2.890625 0q0.484375 0 0.6875 0.1875q0.203125 0.1875 0.203125 0.484375q0 0.296875 -0.203125 0.484375q-0.203125 0.1875 -0.6875 0.1875l-0.78125 0zm13.574493 5.21875l0 -5.21875q-0.421875 -0.015625 -0.625 -0.203125q-0.203125 -0.1875 -0.203125 -0.46875q0 -0.296875 0.203125 -0.484375q0.203125 -0.1875 0.6875 -0.1875l2.796875 0q0.640625 0 1.265625 0.25q0.625 0.234375 1.0 0.609375q0.296875 0.28125 0.59375 0.765625q0.3125 0.484375 0.46875 0.96875q0.15625 0.484375 0.15625 1.171875l0 0.640625q0 0.84375 -0.296875 1.5q-0.28125 0.65625 -0.75 1.078125q-0.453125 0.40625 -0.859375 0.59375q-0.65625 0.3125 -1.6875 0.3125l-2.6875 0q-0.484375 0 -0.6875 -0.1875q-0.203125 -0.1875 -0.203125 -0.484375q0 -0.296875 0.203125 -0.484375q0.203125 -0.1875 0.625 -0.171875zm1.328125 0l1.421875 0q0.796875 0 1.203125 -0.234375q0.53125 -0.296875 0.796875 -0.75q0.265625 -0.46875 0.265625 -1.203125l0 -0.640625q0 -0.625 -0.25 -1.109375q-0.375 -0.734375 -0.84375 -1.0q-0.46875 -0.28125 -1.1875 -0.28125l-1.40625 0l0 5.21875zm11.279419 -0.8125l-3.234375 0l-0.328125 0.8125l0.328125 0q0.484375 0 0.6875 0.1875q0.203125 0.171875 0.203125 0.484375q0 0.28125 -0.203125 0.46875q-0.203125 0.1875 -0.6875 0.1875l-1.796875 0q-0.484375 0 -0.6875 -0.1875q-0.203125 -0.1875 -0.203125 -0.484375q0 -0.296875 0.21875 -0.484375q0.203125 -0.1875 0.703125 -0.171875l2.09375 -5.21875l-0.875 0q-0.484375 0 -0.6875 -0.1875q-0.203125 -0.1875 -0.203125 -0.484375q0 -0.296875 0.203125 -0.484375q0.203125 -0.1875 0.6875 -0.1875l2.890625 0l2.65625 6.5625q0.46875 0 0.609375 0.09375q0.296875 0.21875 0.296875 0.578125q0 0.28125 -0.203125 0.46875q-0.1875 0.1875 -0.671875 0.1875l-1.796875 0q-0.484375 0 -0.6875 -0.1875q-0.203125 -0.1875 -0.203125 -0.484375q0 -0.296875 0.203125 -0.46875q0.203125 -0.1875 0.6875 -0.1875l0.328125 0l-0.328125 -0.8125zm-0.546875 -1.34375l-1.078125 -2.640625l-1.078125 2.640625l2.15625 0zm7.5606995 -3.0625l0 5.21875l0.90625 0q0.484375 0 0.6875 0.1875q0.203125 0.171875 0.203125 0.484375q0 0.28125 -0.203125 0.46875q-0.203125 0.1875 -0.6875 0.1875l-3.125 0q-0.484375 0 -0.6875 -0.1875q-0.203125 -0.1875 -0.203125 -0.484375q0 -0.296875 0.203125 -0.46875q0.203125 -0.1875 0.6875 -0.1875l0.890625 0l0 -5.21875l-1.4375 0l0 1.25q0 0.484375 -0.1875 0.6875q-0.1875 0.203125 -0.484375 0.203125q-0.296875 0 -0.484375 -0.203125q-0.1875 -0.203125 -0.1875 -0.6875l0 -2.59375l6.90625 0l0 2.59375q0 0.484375 -0.1875 0.6875q-0.171875 0.203125 -0.46875 0.203125q-0.296875 0 -0.484375 -0.203125q-0.1875 -0.203125 -0.1875 -0.6875l0 -1.25l-1.46875 0zm8.982544 4.40625l-3.234375 0l-0.328125 0.8125l0.328125 0q0.484375 0 0.6875 0.1875q0.203125 0.171875 0.203125 0.484375q0 0.28125 -0.203125 0.46875q-0.203125 0.1875 -0.6875 0.1875l-1.796875 0q-0.484375 0 -0.6875 -0.1875q-0.203125 -0.1875 -0.203125 -0.484375q0 -0.296875 0.21875 -0.484375q0.203125 -0.1875 0.703125 -0.171875l2.09375 -5.21875l-0.875 0q-0.484375 0 -0.6875 -0.1875q-0.203125 -0.1875 -0.203125 -0.484375q0 -0.296875 0.203125 -0.484375q0.203125 -0.1875 0.6875 -0.1875l2.890625 0l2.65625 6.5625q0.46875 0 0.609375 0.09375q0.296875 0.21875 0.296875 0.578125q0 0.28125 -0.203125 0.46875q-0.1875 0.1875 -0.671875 0.1875l-1.796875 0q-0.484375 0 -0.6875 -0.1875q-0.203125 -0.1875 -0.203125 -0.484375q0 -0.296875 0.203125 -0.46875q0.203125 -0.1875 0.6875 -0.1875l0.328125 0l-0.328125 -0.8125zm-0.546875 -1.34375l-1.078125 -2.640625l-1.078125 2.640625l2.15625 0z" fill-rule="nonzero"/><path fill="#000000" fill-opacity="0.0" d="m223.3558 56.81795c6.4301147 0 9.643677 0.015750885 12.860214 0.031497955c3.2165375 0.01574707 6.436035 0.03149414 12.87207 0.03149414" fill-rule="evenodd"/><path stroke="#2794b8" stroke-width="1.0" stroke-linejoin="round" stroke-linecap="butt" d="m223.3558 56.81795c6.4301147 0 9.643677 0.015750885 12.860214 0.031497955c3.2165375 0.01574707 6.436035 0.03149414 12.87207 0.03149414" fill-rule="evenodd"/><path fill="#000000" fill-opacity="0.0" d="m313.01312 56.833332c6.42984 0 9.643188 0.062992096 12.859711 0.12598419c3.2165222 0.062992096 6.4362793 0.12598419 12.872559 0.12598419" fill-rule="evenodd"/><path stroke="#2794b8" stroke-width="1.0" stroke-linejoin="round" stroke-linecap="butt" d="m313.01312 56.833332c6.42984 0 9.643188 0.062992096 12.859711 0.12598419c3.2165222 0.062992096 6.4362793 0.12598419 12.872559 0.12598419" fill-rule="evenodd"/><path fill="#000000" fill-opacity="0.0" d="m365.8504 57.07874c9.204529 0 13.806702 0.015750885 18.409088 0.031497955c4.602356 0.01574707 9.204895 0.03149414 18.40979 0.03149414" fill-rule="evenodd"/><path stroke="#2794b8" stroke-width="1.0" stroke-linejoin="round" stroke-linecap="butt" d="m365.8504 57.07874c9.204529 0 13.806702 0.015750885 18.409088 0.031497955c4.602356 0.01574707 9.204895 0.03149414 18.40979 0.03149414" fill-rule="evenodd"/><path fill="#000000" fill-opacity="0.0" d="m480.43262 57.077427c9.204559 0 13.806732 0.01574707 18.409088 0.031497955c4.602356 0.01574707 9.204926 0.03149414 18.40982 0.03149414" fill-rule="evenodd"/><path stroke="#2794b8" stroke-width="1.0" stroke-linejoin="round" stroke-linecap="butt" d="m480.43262 57.077427c9.204559 0 13.806732 0.01574707 18.409088 0.031497955c4.602356 0.01574707 9.204926 0.03149414 18.40982 0.03149414" fill-rule="evenodd"/></g></svg>