<svg xmlns="http://www.w3.org/2000/svg" width="942" height="493" viewBox="0 0 942 493"><defs><style type="text/css"/></defs><g transform="translate(312.13345699570823 289.3573498500605) scale(1)"><g class="relationship"><g transform="translate(-258.13345699570823 -231.35734985006047) rotate(90)" stroke-width="2" stroke="#000000"><path d="M 59 0 L 285.84487014477793 0"/><polygon points="-14.155129855222071,0 -15.727922061357857,5.242640687119286 0,0 -15.727922061357857,-5.242640687119286" fill="#000000" transform="translate(300 0) rotate(0)" stroke="none"/></g><g transform="translate(-258.13345699570823 -58.93491477767151) rotate(270) translate(0 -22.6)"><g transform="translate(0 0)"><g transform="translate(-44.12109375 0)" fill="#ffffff" stroke="#000000" stroke-width="0"><rect x="0" y="0" width="88.2421875" height="26" rx="5" ry="5" stroke="none"/><text xml:space="preserve" x="5" y="17.45703125" stroke="none" text-anchor="left" font-family="sans-serif" font-size="16" font-weight="normal" fill="#000000">HAS_DOG</text></g></g><g transform="translate(0 26)"><g transform="translate(-45.36328125 0)" fill="white"><rect x="0" y="0" width="90.7265625" height="19.2" rx="0" ry="0" stroke="none"/><g font-family="sans-serif" font-size="16" font-weight="normal" fill="#535B66" text-anchor="end"><text xml:space="preserve" x="46.2421875" y="14.05703125" stroke="none">since:</text><text xml:space="preserve" x="50.6875" y="14.05703125" stroke="none" text-anchor="start">2016</text></g></g></g></g></g><g class="relationship"><g transform="translate(-31.79361324570823 -231.35734985006047) rotate(90)" stroke-width="2" stroke="#000000"><path d="M 59 0 L 285.84487014477793 0"/><polygon points="-14.155129855222071,0 -15.727922061357857,5.242640687119286 0,0 -15.727922061357857,-5.242640687119286" fill="#000000" transform="translate(300 0) rotate(0)" stroke="none"/></g><g transform="translate(-31.79361324570822 -58.93491477767151) rotate(270) translate(0 -22.6)"><g transform="translate(0 0)"><g transform="translate(-41.30859375 0)" fill="#ffffff" stroke="#000000" stroke-width="0"><rect x="0" y="0" width="82.6171875" height="26" rx="5" ry="5" stroke="none"/><text xml:space="preserve" x="5" y="17.45703125" stroke="none" text-anchor="left" font-family="sans-serif" font-size="16" font-weight="normal" fill="#000000">HAS_CAT</text></g></g><g transform="translate(0 26)"><g transform="translate(-45.36328125 0)" fill="white"><rect x="0" y="0" width="90.7265625" height="19.2" rx="0" ry="0" stroke="none"/><g font-family="sans-serif" font-size="16" font-weight="normal" fill="#535B66" text-anchor="end"><text xml:space="preserve" x="46.2421875" y="14.05703125" stroke="none">since:</text><text xml:space="preserve" x="50.6875" y="14.05703125" stroke="none" text-anchor="start">2019</text></g></g></g></g></g><g class="relationship"><g transform="translate(239.54623050429177 -235.35734985006047) rotate(90)" stroke-width="2" stroke="#000000"><path d="M 59 0 L 289.84487014477793 0"/><polygon points="-14.155129855222071,0 -15.727922061357857,5.242640687119286 0,0 -15.727922061357857,-5.242640687119286" fill="#000000" transform="translate(304 0) rotate(0)" stroke="none"/></g><g transform="translate(239.54623050429177 -60.93491477767151) rotate(270) translate(0 -22.6)"><g transform="translate(0 0)"><g transform="translate(-44.12109375 0)" fill="#ffffff" stroke="#000000" stroke-width="0"><rect x="0" y="0" width="88.2421875" height="26" rx="5" ry="5" stroke="none"/><text xml:space="preserve" x="5" y="17.45703125" stroke="none" text-anchor="left" font-family="sans-serif" font-size="16" font-weight="normal" fill="#000000">HAS_DOG</text></g></g><g transform="translate(0 26)"><g transform="translate(-45.36328125 0)" fill="white"><rect x="0" y="0" width="90.7265625" height="19.2" rx="0" ry="0" stroke="none"/><g font-family="sans-serif" font-size="16" font-weight="normal" fill="#535B66" text-anchor="end"><text xml:space="preserve" x="46.2421875" y="14.05703125" stroke="none">since:</text><text xml:space="preserve" x="50.6875" y="14.05703125" stroke="none" text-anchor="start">2018</text></g></g></g></g></g><g class="relationship"><g transform="translate(239.54623050429177 -235.35734985006047) rotate(0)" stroke-width="2" stroke="#000000"><path d="M 59 0 L 257.33838823062126 0"/><polygon points="-14.155129855222071,0 -15.727922061357857,5.242640687119286 0,0 -15.727922061357857,-5.242640687119286" fill="#000000" transform="translate(271.49351808584333 0) rotate(0)" stroke="none"/></g><g transform="translate(397.7154246196024 -235.35734985006047) rotate(0) translate(0 -22.6)"><g transform="translate(0 0)"><g transform="translate(-44.12109375 0)" fill="#ffffff" stroke="#000000" stroke-width="0"><rect x="0" y="0" width="88.2421875" height="26" rx="5" ry="5" stroke="none"/><text xml:space="preserve" x="5" y="17.45703125" stroke="none" text-anchor="left" font-family="sans-serif" font-size="16" font-weight="normal" fill="#000000">HAS_DOG</text></g></g><g transform="translate(0 26)"><g transform="translate(-45.36328125 0)" fill="white"><rect x="0" y="0" width="90.7265625" height="19.2" rx="0" ry="0" stroke="none"/><g font-family="sans-serif" font-size="16" font-weight="normal" fill="#535B66" text-anchor="end"><text xml:space="preserve" x="46.2421875" y="14.05703125" stroke="none">since:</text><text xml:space="preserve" x="50.6875" y="14.05703125" stroke="none" text-anchor="start">2010</text></g></g></g></g></g><g class="relationship"><g transform="translate(570.0397485901351 -235.35734985006047) rotate(90)" stroke-width="2" stroke="#000000"><path d="M 59 0 L 289.84487014477793 0"/><polygon points="-14.155129855222071,0 -15.727922061357857,5.242640687119286 0,0 -15.727922061357857,-5.242640687119286" fill="#000000" transform="translate(304 0) rotate(0)" stroke="none"/></g><g transform="translate(570.0397485901351 -60.93491477767151) rotate(270) translate(0 -13)"><g transform="translate(0 0)"><g transform="translate(-39.9765625 0)" fill="#ffffff" stroke="#000000" stroke-width="0"><rect x="0" y="0" width="79.953125" height="26" rx="5" ry="5" stroke="none"/><text xml:space="preserve" x="5" y="17.45703125" stroke="none" text-anchor="left" font-family="sans-serif" font-size="16" font-weight="normal" fill="#000000">HAS TOY</text></g></g></g></g><g class="node"><g fill="#ffffff" stroke="#006FD6" stroke-width="4"><circle cx="-258.13345699570823" cy="-231.35734985006047" r="52"/></g><g transform="translate(-258.13345699570823 -231.35734985006047)"><g transform="scale(0.4783254074843021) translate(0 -56)"><g transform="translate(0 0)"><g transform="translate(-63.369140625 0)"><g fill="#000000" stroke="#000000" stroke-width="4" font-family="sans-serif" font-size="40" font-weight="normal"><text xml:space="preserve" x="0" y="38.142578125" stroke="none">Person</text></g></g><g transform="translate(-75.595703125 62)"><g fill="#000000" stroke="#000000" stroke-width="4" font-family="sans-serif" font-size="40" font-weight="normal"><text xml:space="preserve" x="0" y="38.142578125" stroke="none">Swedish</text></g></g></g></g><g transform="translate(39.59797974644666 39.597979746446654)"><g transform="translate(0 0)"><g transform="translate(0 0)" fill="white"><rect x="0" y="0" width="100.3828125" height="38.4" rx="0" ry="0" stroke="none"/><g font-family="sans-serif" font-size="16" font-weight="normal" fill="#535B66" text-anchor="end"><text xml:space="preserve" x="48.9140625" y="14.05703125" stroke="none">name:</text><text xml:space="preserve" x="53.359375" y="14.05703125" stroke="none" text-anchor="start">'Andy'</text><text xml:space="preserve" x="48.9140625" y="33.25703125" stroke="none" text-anchor="end">age:</text><text xml:space="preserve" x="53.359375" y="33.25703125" stroke="none" text-anchor="start">36</text></g></g></g></g></g></g><g class="node"><g fill="#ffffff" stroke="#006FD6" stroke-width="4"><circle cx="-258.13345699570823" cy="127.64265014993953" r="52"/></g><g transform="translate(-258.13345699570823 127.64265014993953)"><g transform="scale(1) translate(0 -20)"><g transform="translate(0 0)"><g transform="translate(-23.84814453125 0)"><g fill="#000000" stroke="#000000" stroke-width="4" font-family="sans-serif" font-size="26" font-weight="normal"><text xml:space="preserve" x="0" y="27.24267578125" stroke="none">Dog</text></g></g></g></g><g transform="translate(3.429011037612589e-15 56)"><g transform="translate(0 0)"><g transform="translate(-50.19140625 0)" fill="white"><rect x="0" y="0" width="100.3828125" height="19.2" rx="0" ry="0" stroke="none"/><g font-family="sans-serif" font-size="16" font-weight="normal" fill="#535B66" text-anchor="end"><text xml:space="preserve" x="48.9140625" y="14.05703125" stroke="none">name:</text><text xml:space="preserve" x="53.359375" y="14.05703125" stroke="none" text-anchor="start">'Andy'</text></g></g></g></g></g></g><g class="node"><g fill="#ffffff" stroke="#006FD6" stroke-width="4"><circle cx="-31.79361324570823" cy="-231.35734985006047" r="52"/></g><g transform="translate(-31.79361324570823 -231.35734985006047)"><g transform="scale(0.6532967767358133) translate(0 -27)"><g transform="translate(0 0)"><g transform="translate(-63.369140625 0)"><g fill="#000000" stroke="#000000" stroke-width="4" font-family="sans-serif" font-size="40" font-weight="normal"><text xml:space="preserve" x="0" y="38.142578125" stroke="none">Person</text></g></g></g></g><g transform="translate(39.59797974644666 39.597979746446654)"><g transform="translate(0 0)"><g transform="translate(0 0)" fill="white"><rect x="0" y="0" width="148.6796875" height="57.599999999999994" rx="0" ry="0" stroke="none"/><g font-family="sans-serif" font-size="16" font-weight="normal" fill="#535B66" text-anchor="end"><text xml:space="preserve" x="77.3671875" y="14.05703125" stroke="none">name:</text><text xml:space="preserve" x="81.8125" y="14.05703125" stroke="none" text-anchor="start">'Timothy'</text><text xml:space="preserve" x="77.3671875" y="33.25703125" stroke="none" text-anchor="end">age:</text><text xml:space="preserve" x="81.8125" y="33.25703125" stroke="none" text-anchor="start">25</text><text xml:space="preserve" x="77.3671875" y="52.45703125" stroke="none" text-anchor="end">nickname:</text><text xml:space="preserve" x="81.8125" y="52.45703125" stroke="none" text-anchor="start">'Tim'</text></g></g></g></g></g></g><g class="node"><g fill="#ffffff" stroke="#006FD6" stroke-width="4"><circle cx="-31.79361324570823" cy="127.64265014993953" r="52"/></g><g transform="translate(-31.79361324570823 127.64265014993953)"><g transform="scale(1) translate(0 -20)"><g transform="translate(0 0)"><g transform="translate(-20.22998046875 0)"><g fill="#000000" stroke="#000000" stroke-width="4" font-family="sans-serif" font-size="26" font-weight="normal"><text xml:space="preserve" x="0" y="27.24267578125" stroke="none">Cat</text></g></g></g></g><g transform="translate(3.429011037612589e-15 56)"><g transform="translate(0 0)"><g transform="translate(-57.7421875 0)" fill="white"><rect x="0" y="0" width="115.484375" height="19.2" rx="0" ry="0" stroke="none"/><g font-family="sans-serif" font-size="16" font-weight="normal" fill="#535B66" text-anchor="end"><text xml:space="preserve" x="48.9140625" y="14.05703125" stroke="none">name:</text><text xml:space="preserve" x="53.359375" y="14.05703125" stroke="none" text-anchor="start">'Mittens'</text></g></g></g></g></g></g><g class="node"><g fill="#ffffff" stroke="#006FD6" stroke-width="4"><circle cx="239.54623050429177" cy="-235.35734985006047" r="52"/></g><g transform="translate(239.54623050429177 -235.35734985006047)"><g transform="scale(0.6532967767358133) translate(0 -27)"><g transform="translate(0 0)"><g transform="translate(-63.369140625 0)"><g fill="#000000" stroke="#000000" stroke-width="4" font-family="sans-serif" font-size="40" font-weight="normal"><text xml:space="preserve" x="0" y="38.142578125" stroke="none">Person</text></g></g></g></g><g transform="translate(39.59797974644666 39.597979746446654)"><g transform="translate(0 0)"><g transform="translate(0 0)" fill="white"><rect x="0" y="0" width="127.5546875" height="57.599999999999994" rx="0" ry="0" stroke="none"/><g font-family="sans-serif" font-size="16" font-weight="normal" fill="#535B66" text-anchor="end"><text xml:space="preserve" x="77.3671875" y="14.05703125" stroke="none">name:</text><text xml:space="preserve" x="81.8125" y="14.05703125" stroke="none" text-anchor="start">'Peter</text><text xml:space="preserve" x="77.3671875" y="33.25703125" stroke="none" text-anchor="end">age:</text><text xml:space="preserve" x="81.8125" y="33.25703125" stroke="none" text-anchor="start">35</text><text xml:space="preserve" x="77.3671875" y="52.45703125" stroke="none" text-anchor="end">nickname:</text><text xml:space="preserve" x="81.8125" y="52.45703125" stroke="none" text-anchor="start">'Pete'</text></g></g></g></g></g></g><g class="node"><g fill="#ffffff" stroke="#006FD6" stroke-width="4"><circle cx="239.54623050429177" cy="127.64265014993953" r="52"/></g><g transform="translate(239.54623050429177 127.64265014993953)"><g transform="scale(1) translate(0 -20)"><g transform="translate(0 0)"><g transform="translate(-23.84814453125 0)"><g fill="#000000" stroke="#000000" stroke-width="4" font-family="sans-serif" font-size="26" font-weight="normal"><text xml:space="preserve" x="0" y="27.24267578125" stroke="none">Dog</text></g></g></g></g><g transform="translate(3.429011037612589e-15 56)"><g transform="translate(0 0)"><g transform="translate(-50.1796875 0)" fill="white"><rect x="0" y="0" width="100.359375" height="19.2" rx="0" ry="0" stroke="none"/><g font-family="sans-serif" font-size="16" font-weight="normal" fill="#535B66" text-anchor="end"><text xml:space="preserve" x="48.9140625" y="14.05703125" stroke="none">name:</text><text xml:space="preserve" x="53.359375" y="14.05703125" stroke="none" text-anchor="start">'Ozzy'</text></g></g></g></g></g></g><g class="node"><g fill="#ffffff" stroke="#006FD6" stroke-width="4"><circle cx="570.0397485901351" cy="-235.35734985006047" r="52"/></g><g transform="translate(570.0397485901351 -235.35734985006047)"><g transform="scale(1) translate(0 -20)"><g transform="translate(0 0)"><g transform="translate(-23.84814453125 0)"><g fill="#000000" stroke="#000000" stroke-width="4" font-family="sans-serif" font-size="26" font-weight="normal"><text xml:space="preserve" x="0" y="27.24267578125" stroke="none">Dog</text></g></g></g></g><g transform="translate(-39.597979746446654 39.59797974644666)"><g transform="translate(0 0)"><g transform="translate(-95.0390625 0)" fill="white"><rect x="0" y="0" width="95.0390625" height="19.2" rx="0" ry="0" stroke="none"/><g font-family="sans-serif" font-size="16" font-weight="normal" fill="#535B66" text-anchor="end"><text xml:space="preserve" x="48.9140625" y="14.05703125" stroke="none">name:</text><text xml:space="preserve" x="53.359375" y="14.05703125" stroke="none" text-anchor="start">'Fido'</text></g></g></g></g></g></g><g class="node"><g fill="#ffffff" stroke="#006FD6" stroke-width="4"><circle cx="570.0397485901351" cy="127.64265014993953" r="52"/></g><g transform="translate(570.0397485901351 127.64265014993953)"><g transform="scale(1) translate(0 -20)"><g transform="translate(0 0)"><g transform="translate(-20.22998046875 0)"><g fill="#000000" stroke="#000000" stroke-width="4" font-family="sans-serif" font-size="26" font-weight="normal"><text xml:space="preserve" x="0" y="27.24267578125" stroke="none">Toy</text></g></g></g></g><g transform="translate(3.429011037612589e-15 56)"><g transform="translate(0 0)"><g transform="translate(-59.5390625 0)" fill="white"><rect x="0" y="0" width="119.078125" height="19.2" rx="0" ry="0" stroke="none"/><g font-family="sans-serif" font-size="16" font-weight="normal" fill="#535B66" text-anchor="end"><text xml:space="preserve" x="48.9140625" y="14.05703125" stroke="none">name:</text><text xml:space="preserve" x="53.359375" y="14.05703125" stroke="none" text-anchor="start">'Banana'</text></g></g></g></g></g></g></g></svg>