<svg xmlns="http://www.w3.org/2000/svg" width="473" height="157" viewBox="0 0 473 157"><defs><style type="text/css"/></defs><g transform="translate(-553.48828125 20) scale(1)"><g class="node"><g fill="#ffffff" stroke="#006FD6" stroke-width="4"><circle cx="607.48828125" cy="42" r="52"/></g><g transform="translate(607.48828125 42)"><g transform="scale(0.6532967767358133) translate(0 -27)"><g transform="translate(0 0)"><g transform="translate(-63.369140625 0)"><g fill="#000000" stroke="#000000" stroke-width="4" font-family="sans-serif" font-size="40" font-weight="normal"><text xml:space="preserve" x="0" y="38.142578125" stroke="none">Person</text></g></g></g></g><g transform="translate(3.429011037612589e-15 56)"><g transform="translate(0 0)"><g transform="translate(-49.296875 0)" fill="white"><rect x="0" y="0" width="98.59375" height="38.4" rx="0" ry="0" stroke="none"/><g font-family="sans-serif" font-size="16" font-weight="normal" fill="#535B66" text-anchor="end"><text xml:space="preserve" x="48.9140625" y="14.05703125" stroke="none">name:</text><text xml:space="preserve" x="53.359375" y="14.05703125" stroke="none" text-anchor="start">'Alice'</text><text xml:space="preserve" x="48.9140625" y="33.25703125" stroke="none" text-anchor="end">age:</text><text xml:space="preserve" x="53.359375" y="33.25703125" stroke="none" text-anchor="start">18</text></g></g></g></g></g></g><g class="node"><g fill="#ffffff" stroke="#006FD6" stroke-width="4"><circle cx="787.9065734964466" cy="38" r="52"/></g><g transform="translate(787.9065734964466 38)"><g transform="scale(0.6532967767358133) translate(0 -27)"><g transform="translate(0 0)"><g transform="translate(-63.369140625 0)"><g fill="#000000" stroke="#000000" stroke-width="4" font-family="sans-serif" font-size="40" font-weight="normal"><text xml:space="preserve" x="0" y="38.142578125" stroke="none">Person</text></g></g></g></g><g transform="translate(3.429011037612589e-15 56)"><g transform="translate(0 0)"><g transform="translate(-46.19140625 0)" fill="white"><rect x="0" y="0" width="92.3828125" height="38.4" rx="0" ry="0" stroke="none"/><g font-family="sans-serif" font-size="16" font-weight="normal" fill="#535B66" text-anchor="end"><text xml:space="preserve" x="48.9140625" y="14.05703125" stroke="none">name:</text><text xml:space="preserve" x="53.359375" y="14.05703125" stroke="none" text-anchor="start">'Bob'</text><text xml:space="preserve" x="48.9140625" y="33.25703125" stroke="none" text-anchor="end">age:</text><text xml:space="preserve" x="53.359375" y="33.25703125" stroke="none" text-anchor="start">'20'</text></g></g></g></g></g></g><g class="node"><g fill="#ffffff" stroke="#006FD6" stroke-width="4"><circle cx="968.3248657428933" cy="34" r="52"/></g><g transform="translate(968.3248657428933 34)"><g transform="scale(0.6532967767358133) translate(0 -27)"><g transform="translate(0 0)"><g transform="translate(-63.369140625 0)"><g fill="#000000" stroke="#000000" stroke-width="4" font-family="sans-serif" font-size="40" font-weight="normal"><text xml:space="preserve" x="0" y="38.142578125" stroke="none">Person</text></g></g></g></g><g transform="translate(3.429011037612589e-15 56)"><g transform="translate(0 0)"><g transform="translate(-57.30078125 0)" fill="white"><rect x="0" y="0" width="114.6015625" height="38.4" rx="0" ry="0" stroke="none"/><g font-family="sans-serif" font-size="16" font-weight="normal" fill="#535B66" text-anchor="end"><text xml:space="preserve" x="48.9140625" y="14.05703125" stroke="none">name:</text><text xml:space="preserve" x="53.359375" y="14.05703125" stroke="none" text-anchor="start">'Charlie'</text><text xml:space="preserve" x="48.9140625" y="33.25703125" stroke="none" text-anchor="end">age:</text><text xml:space="preserve" x="53.359375" y="33.25703125" stroke="none" text-anchor="start">21</text></g></g></g></g></g></g></g></svg>