<svg xmlns="http://www.w3.org/2000/svg" width="1142" height="498" viewBox="0 0 1142 498"><defs><style type="text/css"/></defs><g transform="translate(6.503413622700307 47.199999999999946) scale(1)"><g class="relationship"><g transform="translate(551.9495348435456 28.000000000000057) rotate(180)" stroke-width="2" stroke="#000000"><path d="M 59 0 L 254.54920766146324 0"/><polygon points="-14.155129855222071,0 -15.727922061357857,5.242640687119286 0,0 -15.727922061357857,-5.242640687119286" fill="#000000" transform="translate(268.7043375166853 0) rotate(0)" stroke="none"/></g><g transform="translate(395.174931012814 28.000000000000075) rotate(360) translate(0 -13)"><g transform="translate(0 0)"><g transform="translate(-44.5625 0)" fill="#ffffff" stroke="#000000" stroke-width="0"><rect x="0" y="0" width="89.125" height="26" rx="5" ry="5" stroke="none"/><text xml:space="preserve" x="5" y="17.45703125" stroke="none" text-anchor="left" font-family="sans-serif" font-size="16" font-weight="normal" fill="#000000">ACTED_IN</text></g></g></g></g><g class="relationship"><g transform="translate(551.9495348435456 28.000000000000057) rotate(124.11728096393811)" stroke-width="2" stroke="#000000"><path d="M 59 0 L 254.54920766146324 0"/><polygon points="-14.155129855222071,0 -15.727922061357857,5.242640687119286 0,0 -15.727922061357857,-5.242640687119286" fill="#000000" transform="translate(268.7043375166853 0) rotate(0)" stroke="none"/></g><g transform="translate(464.0164279561503 157.7923153326605) rotate(304.11728096393813) translate(0 -13)"><g transform="translate(0 0)"><g transform="translate(-44.5625 0)" fill="#ffffff" stroke="#000000" stroke-width="0"><rect x="0" y="0" width="89.125" height="26" rx="5" ry="5" stroke="none"/><text xml:space="preserve" x="5" y="17.45703125" stroke="none" text-anchor="left" font-family="sans-serif" font-size="16" font-weight="normal" fill="#000000">ACTED_IN</text></g></g></g></g><g class="relationship"><g transform="translate(551.9495348435456 28.000000000000057) rotate(52.87349883818961)" stroke-width="2" stroke="#000000"><path d="M 59 0 L 267.12066488070536 0"/><polygon points="-14.155129855222071,0 -15.727922061357857,5.242640687119286 0,0 -15.727922061357857,-5.242640687119286" fill="#000000" transform="translate(281.27579473592743 0) rotate(0)" stroke="none"/></g><g transform="translate(650.3689736770906 158.0087922997843) rotate(52.87349883818961) translate(0 -13)"><g transform="translate(0 0)"><g transform="translate(-44.5625 0)" fill="#ffffff" stroke="#000000" stroke-width="0"><rect x="0" y="0" width="89.125" height="26" rx="5" ry="5" stroke="none"/><text xml:space="preserve" x="5" y="17.45703125" stroke="none" text-anchor="left" font-family="sans-serif" font-size="16" font-weight="normal" fill="#000000">ACTED_IN</text></g></g></g></g><g class="relationship"><g transform="translate(551.9495348435456 28.000000000000057) rotate(29.999999999999996)" stroke-width="2" stroke="#000000"><path d="M 59 0 L 267.1206648807054 0"/><polygon points="-14.155129855222071,0 -15.727922061357857,5.242640687119286 0,0 -15.727922061357857,-5.242640687119286" fill="#000000" transform="translate(281.2757947359275 0) rotate(0)" stroke="none"/></g><g transform="translate(693.1639250864268 109.5301662201764) rotate(29.999999999999996) translate(0 -13)"><g transform="translate(0 0)"><g transform="translate(-44.5625 0)" fill="#ffffff" stroke="#000000" stroke-width="0"><rect x="0" y="0" width="89.125" height="26" rx="5" ry="5" stroke="none"/><text xml:space="preserve" x="5" y="17.45703125" stroke="none" text-anchor="left" font-family="sans-serif" font-size="16" font-weight="normal" fill="#000000">ACTED_IN</text></g></g></g></g><g class="relationship"><g transform="translate(551.9495348435456 28.000000000000057) rotate(0)" stroke-width="2" stroke="#000000"><path d="M 59 0 L 254.54920766146324 0"/><polygon points="-14.155129855222071,0 -15.727922061357857,5.242640687119286 0,0 -15.727922061357857,-5.242640687119286" fill="#000000" transform="translate(268.7043375166853 0) rotate(0)" stroke="none"/></g><g transform="translate(708.7241386742772 28.000000000000057) rotate(0) translate(0 -13)"><g transform="translate(0 0)"><g transform="translate(-44.5625 0)" fill="#ffffff" stroke="#000000" stroke-width="0"><rect x="0" y="0" width="89.125" height="26" rx="5" ry="5" stroke="none"/><text xml:space="preserve" x="5" y="17.45703125" stroke="none" text-anchor="left" font-family="sans-serif" font-size="16" font-weight="normal" fill="#000000">ACTED_IN</text></g></g></g></g><g class="relationship"><g transform="translate(551.9495348435456 28.000000000000057) rotate(149.99999999999997)" stroke-width="2" stroke="#000000"><path d="M 59 0 L 254.54920766146324 0"/><polygon points="-14.155129855222071,0 -15.727922061357857,5.242640687119286 0,0 -15.727922061357857,-5.242640687119286" fill="#000000" transform="translate(268.7043375166853 0) rotate(0)" stroke="none"/></g><g transform="translate(416.1787452578909 106.38730191536592) rotate(329.99999999999994) translate(0 -13)"><g transform="translate(0 0)"><g transform="translate(-44.5625 0)" fill="#ffffff" stroke="#000000" stroke-width="0"><rect x="0" y="0" width="89.125" height="26" rx="5" ry="5" stroke="none"/><text xml:space="preserve" x="5" y="17.45703125" stroke="none" text-anchor="left" font-family="sans-serif" font-size="16" font-weight="normal" fill="#000000">ACTED_IN</text></g></g></g></g><g class="relationship"><g transform="translate(551.9495348435456 28.000000000000057) rotate(90)" stroke-width="2" stroke="#000000"><path d="M 59 0 L 254.54920766146324 0"/><polygon points="-14.155129855222071,0 -15.727922061357857,5.242640687119286 0,0 -15.727922061357857,-5.242640687119286" fill="#000000" transform="translate(268.7043375166853 0) rotate(0)" stroke="none"/></g><g transform="translate(551.9495348435456 184.77460383073168) rotate(270) translate(0 -13)"><g transform="translate(0 0)"><g transform="translate(-44.5625 0)" fill="#ffffff" stroke="#000000" stroke-width="0"><rect x="0" y="0" width="89.125" height="26" rx="5" ry="5" stroke="none"/><text xml:space="preserve" x="5" y="17.45703125" stroke="none" text-anchor="left" font-family="sans-serif" font-size="16" font-weight="normal" fill="#000000">ACTED_IN</text></g></g></g></g><g class="node"><g fill="#ffffff" stroke="#006FD6" stroke-width="4"><circle cx="757.3321209412345" cy="299.3035381468374" r="52"/></g><g transform="translate(757.3321209412345 299.3035381468374)"><g transform="scale(0.7525987763434394) translate(0 -27)"><g transform="translate(0 0)"><g transform="translate(-53.349609375 0)"><g fill="#000000" stroke="#000000" stroke-width="4" font-family="sans-serif" font-size="40" font-weight="normal"><text xml:space="preserve" x="0" y="38.142578125" stroke="none">Movie</text></g></g></g></g><g transform="translate(3.429011037612589e-15 56)"><g transform="translate(0 0)"><g transform="translate(-116.890625 0)" fill="white"><rect x="0" y="0" width="233.78125" height="38.4" rx="0" ry="0" stroke="none"/><g font-family="sans-serif" font-size="16" font-weight="normal" fill="#535B66" text-anchor="end"><text xml:space="preserve" x="70.265625" y="14.05703125" stroke="none">title:</text><text xml:space="preserve" x="74.7109375" y="14.05703125" stroke="none" text-anchor="start">'The Matrix Reloaded'</text><text xml:space="preserve" x="70.265625" y="33.25703125" stroke="none" text-anchor="end">released:</text><text xml:space="preserve" x="74.7109375" y="33.25703125" stroke="none" text-anchor="start">2003</text></g></g></g></g></g></g><g class="node"><g fill="#ffffff" stroke="#006FD6" stroke-width="4"><circle cx="224.2451973268603" cy="28.000000000000057" r="52"/></g><g transform="translate(224.2451973268603 28.000000000000057)"><g transform="scale(0.7525987763434394) translate(0 -27)"><g transform="translate(0 0)"><g transform="translate(-53.349609375 0)"><g fill="#000000" stroke="#000000" stroke-width="4" font-family="sans-serif" font-size="40" font-weight="normal"><text xml:space="preserve" x="0" y="38.142578125" stroke="none">Movie</text></g></g></g></g><g transform="translate(3.429011037612589e-15 56)"><g transform="translate(0 0)"><g transform="translate(-107.5546875 0)" fill="white"><rect x="0" y="0" width="215.109375" height="38.4" rx="0" ry="0" stroke="none"/><g font-family="sans-serif" font-size="16" font-weight="normal" fill="#535B66" text-anchor="end"><text xml:space="preserve" x="70.265625" y="14.05703125" stroke="none">title:</text><text xml:space="preserve" x="74.7109375" y="14.05703125" stroke="none" text-anchor="start">'Johnny Mnemonic'</text><text xml:space="preserve" x="70.265625" y="33.25703125" stroke="none" text-anchor="end">released:</text><text xml:space="preserve" x="74.7109375" y="33.25703125" stroke="none" text-anchor="start">1995</text></g></g></g></g></g></g><g class="node"><g fill="#ffffff" stroke="#006FD6" stroke-width="4"><circle cx="551.9495348435456" cy="28.000000000000057" r="52"/></g><g transform="translate(551.9495348435456 28.000000000000057)"><g transform="scale(0.6532967767358133) translate(0 -27)"><g transform="translate(0 0)"><g transform="translate(-63.369140625 0)"><g fill="#000000" stroke="#000000" stroke-width="4" font-family="sans-serif" font-size="40" font-weight="normal"><text xml:space="preserve" x="0" y="38.142578125" stroke="none">Person</text></g></g></g></g><g transform="translate(3.429011037612589e-15 -75.2)"><g transform="translate(0 0)"><g transform="translate(-84.4375 0)" fill="white"><rect x="0" y="0" width="168.875" height="19.2" rx="0" ry="0" stroke="none"/><g font-family="sans-serif" font-size="16" font-weight="normal" fill="#535B66" text-anchor="end"><text xml:space="preserve" x="48.9140625" y="14.05703125" stroke="none">name:</text><text xml:space="preserve" x="53.359375" y="14.05703125" stroke="none" text-anchor="start">'Keanu Reeves'</text></g></g></g></g></g></g><g class="node"><g fill="#ffffff" stroke="#006FD6" stroke-width="4"><circle cx="368.1438684013568" cy="299.3035381468374" r="52"/></g><g transform="translate(368.1438684013568 299.3035381468374)"><g transform="scale(0.7525987763434394) translate(0 -27)"><g transform="translate(0 0)"><g transform="translate(-53.349609375 0)"><g fill="#000000" stroke="#000000" stroke-width="4" font-family="sans-serif" font-size="40" font-weight="normal"><text xml:space="preserve" x="0" y="38.142578125" stroke="none">Movie</text></g></g></g></g><g transform="translate(3.429011037612589e-15 56)"><g transform="translate(0 0)"><g transform="translate(-80.41796875 0)" fill="white"><rect x="0" y="0" width="160.8359375" height="38.4" rx="0" ry="0" stroke="none"/><g font-family="sans-serif" font-size="16" font-weight="normal" fill="#535B66" text-anchor="end"><text xml:space="preserve" x="70.265625" y="14.05703125" stroke="none">title:</text><text xml:space="preserve" x="74.7109375" y="14.05703125" stroke="none" text-anchor="start">'The Matrix'</text><text xml:space="preserve" x="70.265625" y="33.25703125" stroke="none" text-anchor="end">released:</text><text xml:space="preserve" x="74.7109375" y="33.25703125" stroke="none" text-anchor="start">1999</text></g></g></g></g></g></g><g class="node"><g fill="#ffffff" stroke="#006FD6" stroke-width="4"><circle cx="846.637017377798" cy="198.13789736796377" r="52"/></g><g transform="translate(846.637017377798 198.13789736796377)"><g transform="scale(0.7525987763434394) translate(0 -27)"><g transform="translate(0 0)"><g transform="translate(-53.349609375 0)"><g fill="#000000" stroke="#000000" stroke-width="4" font-family="sans-serif" font-size="40" font-weight="normal"><text xml:space="preserve" x="0" y="38.142578125" stroke="none">Movie</text></g></g></g></g><g transform="translate(39.59797974644666 39.597979746446654)"><g transform="translate(0 0)"><g transform="translate(0 0)" fill="white"><rect x="0" y="0" width="248.8828125" height="38.4" rx="0" ry="0" stroke="none"/><g font-family="sans-serif" font-size="16" font-weight="normal" fill="#535B66" text-anchor="end"><text xml:space="preserve" x="70.265625" y="14.05703125" stroke="none">title:</text><text xml:space="preserve" x="74.7109375" y="14.05703125" stroke="none" text-anchor="start">'The Matrix Revolutions'</text><text xml:space="preserve" x="70.265625" y="33.25703125" stroke="none" text-anchor="end">released:</text><text xml:space="preserve" x="74.7109375" y="33.25703125" stroke="none" text-anchor="start">2003</text></g></g></g></g></g></g><g class="node"><g fill="#ffffff" stroke="#006FD6" stroke-width="4"><circle cx="879.6538723602309" cy="28.000000000000057" r="52"/></g><g transform="translate(879.6538723602309 28.000000000000057)"><g transform="scale(0.7525987763434394) translate(0 -27)"><g transform="translate(0 0)"><g transform="translate(-53.349609375 0)"><g fill="#000000" stroke="#000000" stroke-width="4" font-family="sans-serif" font-size="40" font-weight="normal"><text xml:space="preserve" x="0" y="38.142578125" stroke="none">Movie</text></g></g></g></g><g transform="translate(3.429011037612589e-15 56)"><g transform="translate(0 0)"><g transform="translate(-131.9921875 0)" fill="white"><rect x="0" y="0" width="263.984375" height="38.4" rx="0" ry="0" stroke="none"/><g font-family="sans-serif" font-size="16" font-weight="normal" fill="#535B66" text-anchor="end"><text xml:space="preserve" x="70.265625" y="14.05703125" stroke="none">title:</text><text xml:space="preserve" x="74.7109375" y="14.05703125" stroke="none" text-anchor="start">'The Matrix Resurrections'</text><text xml:space="preserve" x="70.265625" y="33.25703125" stroke="none" text-anchor="end">released:</text><text xml:space="preserve" x="74.7109375" y="33.25703125" stroke="none" text-anchor="start">2021</text></g></g></g></g></g></g><g class="node"><g fill="#ffffff" stroke="#006FD6" stroke-width="4"><circle cx="551.9495348435456" cy="355.70433751668537" r="52"/></g><g transform="translate(551.9495348435456 355.70433751668537)"><g transform="scale(0.7525987763434394) translate(0 -27)"><g transform="translate(0 0)"><g transform="translate(-53.349609375 0)"><g fill="#000000" stroke="#000000" stroke-width="4" font-family="sans-serif" font-size="40" font-weight="normal"><text xml:space="preserve" x="0" y="38.142578125" stroke="none">Movie</text></g></g></g></g><g transform="translate(3.429011037612589e-15 56)"><g transform="translate(0 0)"><g transform="translate(-109.77734375 0)" fill="white"><rect x="0" y="0" width="219.5546875" height="38.4" rx="0" ry="0" stroke="none"/><g font-family="sans-serif" font-size="16" font-weight="normal" fill="#535B66" text-anchor="end"><text xml:space="preserve" x="70.265625" y="14.05703125" stroke="none">title:</text><text xml:space="preserve" x="74.7109375" y="14.05703125" stroke="none" text-anchor="start">'The Replacements'</text><text xml:space="preserve" x="70.265625" y="33.25703125" stroke="none" text-anchor="end">released:</text><text xml:space="preserve" x="74.7109375" y="33.25703125" stroke="none" text-anchor="start">2000</text></g></g></g></g></g></g><g class="node"><g fill="#ffffff" stroke="#006FD6" stroke-width="4"><circle cx="268.14925362374635" cy="191.85216875834283" r="52"/></g><g transform="translate(268.14925362374635 191.85216875834283)"><g transform="scale(0.7525987763434394) translate(0 -27)"><g transform="translate(0 0)"><g transform="translate(-53.349609375 0)"><g fill="#000000" stroke="#000000" stroke-width="4" font-family="sans-serif" font-size="40" font-weight="normal"><text xml:space="preserve" x="0" y="38.142578125" stroke="none">Movie</text></g></g></g></g><g transform="translate(-39.597979746446654 39.59797974644666)"><g transform="translate(0 0)"><g transform="translate(-235.0546875 0)" fill="white"><rect x="0" y="0" width="235.0546875" height="38.4" rx="0" ry="0" stroke="none"/><g font-family="sans-serif" font-size="16" font-weight="normal" fill="#535B66" text-anchor="end"><text xml:space="preserve" x="70.265625" y="14.05703125" stroke="none">title:</text><text xml:space="preserve" x="74.7109375" y="14.05703125" stroke="none" text-anchor="start">'The Devil's Advocate'</text><text xml:space="preserve" x="70.265625" y="33.25703125" stroke="none" text-anchor="end">released:</text><text xml:space="preserve" x="74.7109375" y="33.25703125" stroke="none" text-anchor="start">1997</text></g></g></g></g></g></g></g></svg>