<svg xmlns="http://www.w3.org/2000/svg" width="531" height="168" viewBox="0 0 531 168"><defs><style type="text/css"/></defs><g transform="translate(10.324218749999996 63.599999999999994) scale(1)"><g class="relationship"><g transform="translate(75 50) rotate(0)" stroke-width="2" stroke="#000000"><path d="M 59 0 L 274.28237014477793 0"/><polygon points="-14.155129855222071,0 -15.727922061357857,5.242640687119286 0,0 -15.727922061357857,-5.242640687119286" fill="#000000" transform="translate(288.4375 0) rotate(0)" stroke="none"/></g><g transform="translate(241.64118507238896 50) rotate(0) translate(0 -22.6)"><g transform="translate(0 0)"><g transform="translate(-35.22265625 0)" fill="#ffffff" stroke="#000000" stroke-width="0"><rect x="0" y="0" width="70.4453125" height="26" rx="5" ry="5" stroke="none"/><text xml:space="preserve" x="5" y="17.45703125" stroke="none" text-anchor="left" font-family="sans-serif" font-size="16" font-weight="normal" fill="#000000">KNOWS</text></g></g><g transform="translate(0 26)"><g transform="translate(-45.36328125 0)" fill="white"><rect x="0" y="0" width="90.7265625" height="19.2" rx="0" ry="0" stroke="none"/><g font-family="sans-serif" font-size="16" font-weight="normal" fill="#535B66" text-anchor="end"><text xml:space="preserve" x="46.2421875" y="14.05703125" stroke="none">since:</text><text xml:space="preserve" x="50.6875" y="14.05703125" stroke="none" text-anchor="start">1999</text></g></g></g></g></g><g class="node"><g fill="#ffffff" stroke="#006FD6" stroke-width="4"><circle cx="75" cy="50" r="52"/></g><g transform="translate(75 50)"><g transform="scale(0.6532967767358133) translate(0 -27)"><g transform="translate(0 0)"><g transform="translate(-63.369140625 0)"><g fill="#000000" stroke="#000000" stroke-width="4" font-family="sans-serif" font-size="40" font-weight="normal"><text xml:space="preserve" x="0" y="38.142578125" stroke="none">Person</text></g></g></g></g><g transform="translate(3.429011037612589e-15 -113.6)"><g transform="translate(0 0)"><g transform="translate(-85.32421875 0)" fill="white"><rect x="0" y="0" width="170.6484375" height="57.599999999999994" rx="0" ry="0" stroke="none"/><g font-family="sans-serif" font-size="16" font-weight="normal" fill="#535B66" text-anchor="end"><text xml:space="preserve" x="50.6875" y="14.05703125" stroke="none">name:</text><text xml:space="preserve" x="55.1328125" y="14.05703125" stroke="none" text-anchor="start">'Keanu Reeves'</text><text xml:space="preserve" x="50.6875" y="33.25703125" stroke="none" text-anchor="end">age:</text><text xml:space="preserve" x="55.1328125" y="33.25703125" stroke="none" text-anchor="start">58</text><text xml:space="preserve" x="50.6875" y="52.45703125" stroke="none" text-anchor="end">active:</text><text xml:space="preserve" x="55.1328125" y="52.45703125" stroke="none" text-anchor="start">true</text></g></g></g></g></g></g><g class="node"><g fill="#ffffff" stroke="#006FD6" stroke-width="4"><circle cx="422.4375" cy="50" r="52"/></g><g transform="translate(422.4375 50)"><g transform="scale(0.6532967767358133) translate(0 -27)"><g transform="translate(0 0)"><g transform="translate(-63.369140625 0)"><g fill="#000000" stroke="#000000" stroke-width="4" font-family="sans-serif" font-size="40" font-weight="normal"><text xml:space="preserve" x="0" y="38.142578125" stroke="none">Person</text></g></g></g></g><g transform="translate(3.429011037612589e-15 -113.6)"><g transform="translate(0 0)"><g transform="translate(-97.30859375 0)" fill="white"><rect x="0" y="0" width="194.6171875" height="57.599999999999994" rx="0" ry="0" stroke="none"/><g font-family="sans-serif" font-size="16" font-weight="normal" fill="#535B66" text-anchor="end"><text xml:space="preserve" x="50.6875" y="14.05703125" stroke="none">name:</text><text xml:space="preserve" x="55.1328125" y="14.05703125" stroke="none" text-anchor="start">'Carrie-Anne Moss'</text><text xml:space="preserve" x="50.6875" y="33.25703125" stroke="none" text-anchor="end">age:</text><text xml:space="preserve" x="55.1328125" y="33.25703125" stroke="none" text-anchor="start">55</text><text xml:space="preserve" x="50.6875" y="52.45703125" stroke="none" text-anchor="end">active:</text><text xml:space="preserve" x="55.1328125" y="52.45703125" stroke="none" text-anchor="start">true</text></g></g></g></g></g></g></g></svg>