<svg xmlns="http://www.w3.org/2000/svg" width="1075" height="754" viewBox="0 0 1075 754"><defs><style type="text/css"/></defs><g transform="translate(-103.63271448821381 350.7499947352479) scale(1)"><g class="relationship"><g transform="translate(344.12913173466046 4.112688213221427) rotate(-44.99999999999999)" stroke-width="2" stroke="#000000"><path d="M 59 0 L 352.32895678245984 0"/><polygon points="-14.155129855222071,0 -15.727922061357857,5.242640687119286 0,0 -15.727922061357857,-5.242640687119286" fill="#000000" transform="translate(366.4840866376819 0) rotate(0)" stroke="none"/></g><g transform="translate(489.5558790542933 -141.3140591064114) rotate(-44.99999999999999) translate(0 -13)"><g transform="translate(0 0)"><g transform="translate(-44.5625 0)" fill="#ffffff" stroke="#000000" stroke-width="0"><rect x="0" y="0" width="89.125" height="26" rx="5" ry="5" stroke="none"/><text xml:space="preserve" x="5" y="17.45703125" stroke="none" text-anchor="left" font-family="sans-serif" font-size="16" font-weight="normal" fill="#000000">ACTED_IN</text></g></g></g></g><g class="relationship"><g transform="translate(344.12913173466046 4.112688213221427) rotate(14.373462265743447)" stroke-width="2" stroke="#000000"><path d="M 59 0 L 241.29358067639282 0"/><polygon points="-14.155129855222071,0 -15.727922061357857,5.242640687119286 0,0 -15.727922061357857,-5.242640687119286" fill="#000000" transform="translate(255.4487105316149 0) rotate(0)" stroke="none"/></g><g transform="translate(489.57606374754397 41.38531378349695) rotate(14.373462265743447) translate(0 -13)"><g transform="translate(0 0)"><g transform="translate(-44.5625 0)" fill="#ffffff" stroke="#000000" stroke-width="0"><rect x="0" y="0" width="89.125" height="26" rx="5" ry="5" stroke="none"/><text xml:space="preserve" x="5" y="17.45703125" stroke="none" text-anchor="left" font-family="sans-serif" font-size="16" font-weight="normal" fill="#000000">ACTED_IN</text></g></g></g></g><g class="relationship"><g transform="translate(344.12913173466046 4.112688213221427) rotate(-16.903832281196976)" stroke-width="2" stroke="#000000"><path d="M 59 0 L 241.29358067639282 0"/><polygon points="-14.155129855222071,0 -15.727922061357857,5.242640687119286 0,0 -15.727922061357857,-5.242640687119286" fill="#000000" transform="translate(255.4487105316149 0) rotate(0)" stroke="none"/></g><g transform="translate(487.7887005746138 -39.5449220005891) rotate(-16.903832281196976) translate(0 -13)"><g transform="translate(0 0)"><g transform="translate(-44.5625 0)" fill="#ffffff" stroke="#000000" stroke-width="0"><rect x="0" y="0" width="89.125" height="26" rx="5" ry="5" stroke="none"/><text xml:space="preserve" x="5" y="17.45703125" stroke="none" text-anchor="left" font-family="sans-serif" font-size="16" font-weight="normal" fill="#000000">ACTED_IN</text></g></g></g></g><g class="relationship"><g transform="translate(344.12913173466046 4.112688213221427) rotate(44.99999999999999)" stroke-width="2" stroke="#000000"><path d="M 59 0 L 357.62268412178696 0"/><polygon points="-14.155129855222071,0 -15.727922061357857,5.242640687119286 0,0 -15.727922061357857,-5.242640687119286" fill="#000000" transform="translate(371.77781397700903 0) rotate(0)" stroke="none"/></g><g transform="translate(491.42749430398874 151.41105078254967) rotate(44.99999999999999) translate(0 -13)"><g transform="translate(0 0)"><g transform="translate(-44.5625 0)" fill="#ffffff" stroke="#000000" stroke-width="0"><rect x="0" y="0" width="89.125" height="26" rx="5" ry="5" stroke="none"/><text xml:space="preserve" x="5" y="17.45703125" stroke="none" text-anchor="left" font-family="sans-serif" font-size="16" font-weight="normal" fill="#000000">ACTED_IN</text></g></g></g></g><g class="relationship"><g transform="translate(344.12913173466046 4.112688213221427) rotate(90)" stroke-width="2" stroke="#000000"><path d="M 59 0 L 231.45078359263812 0"/><polygon points="-14.155129855222071,0 -15.727922061357857,5.242640687119286 0,0 -15.727922061357857,-5.242640687119286" fill="#000000" transform="translate(245.6059134478602 0) rotate(0)" stroke="none"/></g><g transform="translate(344.12913173466046 149.33808000954048) rotate(270) translate(0 -13)"><g transform="translate(0 0)"><g transform="translate(-44.5625 0)" fill="#ffffff" stroke="#000000" stroke-width="0"><rect x="0" y="0" width="89.125" height="26" rx="5" ry="5" stroke="none"/><text xml:space="preserve" x="5" y="17.45703125" stroke="none" text-anchor="left" font-family="sans-serif" font-size="16" font-weight="normal" fill="#000000">ACTED_IN</text></g></g></g></g><g class="relationship"><g transform="translate(945.8544976315993 4.112688213221427) rotate(134.28718230544683)" stroke-width="2" stroke="#000000"><path d="M 59 0 L 352.3618868797677 0"/><polygon points="-14.155129855222071,0 -15.727922061357857,5.242640687119286 0,0 -15.727922061357857,-5.242640687119286" fill="#000000" transform="translate(366.5170167349898 0) rotate(0)" stroke="none"/></g><g transform="translate(802.2367176354392 151.34917745177677) rotate(314.28718230544683) translate(0 -13)"><g transform="translate(0 0)"><g transform="translate(-44.5625 0)" fill="#ffffff" stroke="#000000" stroke-width="0"><rect x="0" y="0" width="89.125" height="26" rx="5" ry="5" stroke="none"/><text xml:space="preserve" x="5" y="17.45703125" stroke="none" text-anchor="left" font-family="sans-serif" font-size="16" font-weight="normal" fill="#000000">ACTED_IN</text></g></g></g></g><g class="relationship"><g transform="translate(945.8544976315993 4.112688213221427) rotate(165.2799194681695)" stroke-width="2" stroke="#000000"><path d="M 59 0 L 234.04708053921877 0"/><polygon points="-14.155129855222071,0 -15.727922061357857,5.242640687119286 0,0 -15.727922061357857,-5.242640687119286" fill="#000000" transform="translate(248.20221039444084 0) rotate(0)" stroke="none"/></g><g transform="translate(804.1400418667502 41.34386977401081) rotate(345.27991946816957) translate(0 -13)"><g transform="translate(0 0)"><g transform="translate(-44.5625 0)" fill="#ffffff" stroke="#000000" stroke-width="0"><rect x="0" y="0" width="89.125" height="26" rx="5" ry="5" stroke="none"/><text xml:space="preserve" x="5" y="17.45703125" stroke="none" text-anchor="left" font-family="sans-serif" font-size="16" font-weight="normal" fill="#000000">ACTED_IN</text></g></g></g></g><g class="relationship"><g transform="translate(945.8544976315993 4.112688213221427) rotate(-163.09616771880306)" stroke-width="2" stroke="#000000"><path d="M 59 0 L 241.29358067639288 0"/><polygon points="-14.155129855222071,0 -15.727922061357857,5.242640687119286 0,0 -15.727922061357857,-5.242640687119286" fill="#000000" transform="translate(255.44871053161495 0) rotate(0)" stroke="none"/></g><g transform="translate(802.1949287916459 -39.5449220005891) rotate(16.903832281196966) translate(0 -13)"><g transform="translate(0 0)"><g transform="translate(-44.5625 0)" fill="#ffffff" stroke="#000000" stroke-width="0"><rect x="0" y="0" width="89.125" height="26" rx="5" ry="5" stroke="none"/><text xml:space="preserve" x="5" y="17.45703125" stroke="none" text-anchor="left" font-family="sans-serif" font-size="16" font-weight="normal" fill="#000000">ACTED_IN</text></g></g></g></g><g class="relationship"><g transform="translate(945.8544976315993 4.112688213221427) rotate(-135)" stroke-width="2" stroke="#000000"><path d="M 59 0 L 352.3289567824599 0"/><polygon points="-14.155129855222071,0 -15.727922061357857,5.242640687119286 0,0 -15.727922061357857,-5.242640687119286" fill="#000000" transform="translate(366.48408663768197 0) rotate(0)" stroke="none"/></g><g transform="translate(800.4277503119665 -141.31405910641146) rotate(45) translate(0 -13)"><g transform="translate(0 0)"><g transform="translate(-44.5625 0)" fill="#ffffff" stroke="#000000" stroke-width="0"><rect x="0" y="0" width="89.125" height="26" rx="5" ry="5" stroke="none"/><text xml:space="preserve" x="5" y="17.45703125" stroke="none" text-anchor="left" font-family="sans-serif" font-size="16" font-weight="normal" fill="#000000">ACTED_IN</text></g></g></g></g><g class="node"><g fill="#ffffff" stroke="#006FD6" stroke-width="4"><circle cx="648.7350451825207" cy="82.17182635597835" r="52"/></g><g transform="translate(648.7350451825207 82.17182635597835)"><g transform="scale(0.7525987763434394) translate(0 -27)"><g transform="translate(0 0)"><g transform="translate(-53.349609375 0)"><g fill="#000000" stroke="#000000" stroke-width="4" font-family="sans-serif" font-size="40" font-weight="normal"><text xml:space="preserve" x="0" y="38.142578125" stroke="none">Movie</text></g></g></g></g><g transform="translate(3.429011037612589e-15 56)"><g transform="translate(0 0)"><g transform="translate(-116.890625 0)" fill="white"><rect x="0" y="0" width="233.78125" height="38.4" rx="0" ry="0" stroke="none"/><g font-family="sans-serif" font-size="16" font-weight="normal" fill="#535B66" text-anchor="end"><text xml:space="preserve" x="70.265625" y="14.05703125" stroke="none">title:</text><text xml:space="preserve" x="74.7109375" y="14.05703125" stroke="none" text-anchor="start">'The Matrix Reloaded'</text><text xml:space="preserve" x="70.265625" y="33.25703125" stroke="none" text-anchor="end">released:</text><text xml:space="preserve" x="74.7109375" y="33.25703125" stroke="none" text-anchor="start">2003</text></g></g></g></g></g></g><g class="node"><g fill="#ffffff" stroke="#006FD6" stroke-width="4"><circle cx="344.12913173466046" cy="4.112688213221427" r="52"/></g><g transform="translate(344.12913173466046 4.112688213221427)"><g transform="scale(0.6532967767358133) translate(0 -27)"><g transform="translate(0 0)"><g transform="translate(-63.369140625 0)"><g fill="#000000" stroke="#000000" stroke-width="4" font-family="sans-serif" font-size="40" font-weight="normal"><text xml:space="preserve" x="0" y="38.142578125" stroke="none">Person</text></g></g></g></g><g transform="translate(-39.597979746446654 -77.99797974644666)"><g transform="translate(0 0)"><g transform="translate(-200.8984375 0)" fill="white"><rect x="0" y="0" width="200.8984375" height="38.4" rx="0" ry="0" stroke="none"/><g font-family="sans-serif" font-size="16" font-weight="normal" fill="#535B66" text-anchor="end"><text xml:space="preserve" x="80.9375" y="14.05703125" stroke="none">name:</text><text xml:space="preserve" x="85.3828125" y="14.05703125" stroke="none" text-anchor="start">'Keanu Reeves'</text><text xml:space="preserve" x="80.9375" y="33.25703125" stroke="none" text-anchor="end">nationality:</text><text xml:space="preserve" x="85.3828125" y="33.25703125" stroke="none" text-anchor="start">'Canadian'</text></g></g></g></g></g></g><g class="node"><g fill="#ffffff" stroke="#006FD6" stroke-width="4"><circle cx="644.9918146831299" cy="-296.7499947352479" r="52"/></g><g transform="translate(644.9918146831299 -296.7499947352479)"><g transform="scale(0.7525987763434394) translate(0 -27)"><g transform="translate(0 0)"><g transform="translate(-53.349609375 0)"><g fill="#000000" stroke="#000000" stroke-width="4" font-family="sans-serif" font-size="40" font-weight="normal"><text xml:space="preserve" x="0" y="38.142578125" stroke="none">Movie</text></g></g></g></g><g transform="translate(-56 -19.199999999999992)"><g transform="translate(0 0)"><g transform="translate(-160.8359375 0)" fill="white"><rect x="0" y="0" width="160.8359375" height="38.4" rx="0" ry="0" stroke="none"/><g font-family="sans-serif" font-size="16" font-weight="normal" fill="#535B66" text-anchor="end"><text xml:space="preserve" x="70.265625" y="14.05703125" stroke="none">title:</text><text xml:space="preserve" x="74.7109375" y="14.05703125" stroke="none" text-anchor="start">'The Matrix'</text><text xml:space="preserve" x="70.265625" y="33.25703125" stroke="none" text-anchor="end">released:</text><text xml:space="preserve" x="74.7109375" y="33.25703125" stroke="none" text-anchor="start">1999</text></g></g></g></g></g></g><g class="node"><g fill="#ffffff" stroke="#006FD6" stroke-width="4"><circle cx="644.9918146831299" cy="-87.31836539573632" r="52"/></g><g transform="translate(644.9918146831299 -87.31836539573632)"><g transform="scale(0.7525987763434394) translate(0 -27)"><g transform="translate(0 0)"><g transform="translate(-53.349609375 0)"><g fill="#000000" stroke="#000000" stroke-width="4" font-family="sans-serif" font-size="40" font-weight="normal"><text xml:space="preserve" x="0" y="38.142578125" stroke="none">Movie</text></g></g></g></g><g transform="translate(3.429011037612589e-15 56)"><g transform="translate(0 0)"><g transform="translate(-124.44140625 0)" fill="white"><rect x="0" y="0" width="248.8828125" height="38.4" rx="0" ry="0" stroke="none"/><g font-family="sans-serif" font-size="16" font-weight="normal" fill="#535B66" text-anchor="end"><text xml:space="preserve" x="70.265625" y="14.05703125" stroke="none">title:</text><text xml:space="preserve" x="74.7109375" y="14.05703125" stroke="none" text-anchor="start">'The Matrix Revolutions'</text><text xml:space="preserve" x="70.265625" y="33.25703125" stroke="none" text-anchor="end">released:</text><text xml:space="preserve" x="74.7109375" y="33.25703125" stroke="none" text-anchor="start">2003</text></g></g></g></g></g></g><g class="node"><g fill="#ffffff" stroke="#006FD6" stroke-width="4"><circle cx="648.7350451825207" cy="308.7186016610816" r="52"/></g><g transform="translate(648.7350451825207 308.7186016610816)"><g transform="scale(0.7525987763434394) translate(0 -27)"><g transform="translate(0 0)"><g transform="translate(-53.349609375 0)"><g fill="#000000" stroke="#000000" stroke-width="4" font-family="sans-serif" font-size="40" font-weight="normal"><text xml:space="preserve" x="0" y="38.142578125" stroke="none">Movie</text></g></g></g></g><g transform="translate(39.59797974644666 39.597979746446654)"><g transform="translate(0 0)"><g transform="translate(0 0)" fill="white"><rect x="0" y="0" width="263.984375" height="38.4" rx="0" ry="0" stroke="none"/><g font-family="sans-serif" font-size="16" font-weight="normal" fill="#535B66" text-anchor="end"><text xml:space="preserve" x="70.265625" y="14.05703125" stroke="none">title:</text><text xml:space="preserve" x="74.7109375" y="14.05703125" stroke="none" text-anchor="start">'The Matrix Resurrections'</text><text xml:space="preserve" x="70.265625" y="33.25703125" stroke="none" text-anchor="end">released:</text><text xml:space="preserve" x="74.7109375" y="33.25703125" stroke="none" text-anchor="start">2021</text></g></g></g></g></g></g><g class="node"><g fill="#ffffff" stroke="#006FD6" stroke-width="4"><circle cx="344.12913173466046" cy="308.7186016610816" r="52"/></g><g transform="translate(344.12913173466046 308.7186016610816)"><g transform="scale(0.7525987763434394) translate(0 -27)"><g transform="translate(0 0)"><g transform="translate(-53.349609375 0)"><g fill="#000000" stroke="#000000" stroke-width="4" font-family="sans-serif" font-size="40" font-weight="normal"><text xml:space="preserve" x="0" y="38.142578125" stroke="none">Movie</text></g></g></g></g><g transform="translate(3.429011037612589e-15 56)"><g transform="translate(0 0)"><g transform="translate(-117.52734375 0)" fill="white"><rect x="0" y="0" width="235.0546875" height="38.4" rx="0" ry="0" stroke="none"/><g font-family="sans-serif" font-size="16" font-weight="normal" fill="#535B66" text-anchor="end"><text xml:space="preserve" x="70.265625" y="14.05703125" stroke="none">title:</text><text xml:space="preserve" x="74.7109375" y="14.05703125" stroke="none" text-anchor="start">'The Devil's Advocate'</text><text xml:space="preserve" x="70.265625" y="33.25703125" stroke="none" text-anchor="end">released:</text><text xml:space="preserve" x="74.7109375" y="33.25703125" stroke="none" text-anchor="start">1997</text></g></g></g></g></g></g><g class="node"><g fill="#ffffff" stroke="#006FD6" stroke-width="4"><circle cx="945.8544976315993" cy="4.112688213221427" r="52"/></g><g transform="translate(945.8544976315993 4.112688213221427)"><g transform="scale(0.6532967767358133) translate(0 -27)"><g transform="translate(0 0)"><g transform="translate(-63.369140625 0)"><g fill="#000000" stroke="#000000" stroke-width="4" font-family="sans-serif" font-size="40" font-weight="normal"><text xml:space="preserve" x="0" y="38.142578125" stroke="none">Person</text></g></g></g></g><g transform="translate(39.59797974644666 -58.79797974644666)"><g transform="translate(0 0)"><g transform="translate(0 0)" fill="white"><rect x="0" y="0" width="192.84375" height="19.2" rx="0" ry="0" stroke="none"/><g font-family="sans-serif" font-size="16" font-weight="normal" fill="#535B66" text-anchor="end"><text xml:space="preserve" x="48.9140625" y="14.05703125" stroke="none">name:</text><text xml:space="preserve" x="53.359375" y="14.05703125" stroke="none" text-anchor="start">'Carrie-Anne Moss'</text></g></g></g></g></g></g></g></svg>