<svg class="railroad-diagram" viewBox="0 0 1132.0 420.0" width="1132.0" height="420.0" xmlns="http://www.w3.org/2000/svg" xmlns:xlink="http://www.w3.org/1999/xlink"><g transform="translate(0, 0)"><g transform="translate(.5 .5)">
<g>
<path d="M20 30v20m10 -20v20m-10 -10h103.5" /><text style="text-anchor:start" x="20" y="25">path length</text></g><g>
<path d="M123.5 40h0.0" /><path d="M582.5 40h0.0" /><path d="M123.5 40h20" /><g>
<path d="M143.5 40h0.0" /><path d="M562.5 40h0.0" /><g class="terminal ">
<path d="M143.5 40h0.0" /><path d="M172.0 40h0.0" /><rect height="22" rx="10" ry="10" width="28.5" x="143.5" y="29"></rect><text x="157.75" y="44">*</text></g><path d="M172.0 40h10" /><g>
<path d="M182.0 40h0.0" /><path d="M562.5 40h0.0" /><path d="M182.0 40a10 10 0 0 0 10 -10v0a10 10 0 0 1 10 -10" /><g>
<path d="M202.0 20h340.5" /></g><path d="M542.5 20a10 10 0 0 1 10 10v0a10 10 0 0 0 10 10" /><path d="M182.0 40h20" /><g>
<path d="M202.0 40h0.0" /><path d="M542.5 40h0.0" /><path d="M202.0 40h20" /><g>
<path d="M222.0 40h0.0" /><path d="M522.5 40h0.0" /><g class="non-terminal ">
<path d="M222.0 40h0.0" /><path d="M522.5 40h0.0" /><rect height="22" width="300.5" x="222" y="29"></rect><text x="372.25" y="44">lower and upper bound path length</text><title>lower and upper bound path length</title></g></g><path d="M522.5 40h20" /><path d="M202.0 40a10 10 0 0 1 10 10v10a10 10 0 0 0 10 10" /><g>
<path d="M222.0 70h68.0" /><path d="M454.5 70h68.0" /><g class="non-terminal ">
<path d="M290.0 70h0.0" /><path d="M454.5 70h0.0" /><rect height="22" width="164.5" x="290" y="59"></rect><text x="372.25" y="74">fixed path length</text><title>fixed path length</title></g></g><path d="M522.5 70a10 10 0 0 0 10 -10v-10a10 10 0 0 1 10 -10" /></g><path d="M542.5 40h20" /></g></g><path d="M562.5 40h20" /></g><path d="M 582.5 40 h 20 m -10 -10 v 20 m 10 -20 v 20"></path></g></g>
<g transform="translate(0, 101.0)"><g transform="translate(.5 .5)">
<g>
<path d="M20 30v20m10 -20v20m-10 -10h290.5" /><text style="text-anchor:start" x="20" y="25">lower and upper bound path length</text></g><g>
<path d="M310.5 40h0.0" /><path d="M1092.0 40h0.0" /><path d="M310.5 40h20" /><g>
<path d="M330.5 40h0.0" /><path d="M1072.0 40h0.0" /><g>
<path d="M330.5 40h0.0" /><path d="M626.0 40h0.0" /><path d="M330.5 40a10 10 0 0 0 10 -10v0a10 10 0 0 1 10 -10" /><g>
<path d="M350.5 20h255.5" /></g><path d="M606.0 20a10 10 0 0 1 10 10v0a10 10 0 0 0 10 10" /><path d="M330.5 40h20" /><g>
<path d="M350.5 40h0.0" /><path d="M606.0 40h0.0" /><path d="M350.5 40h20" /><g>
<path d="M370.5 40h0.0" /><path d="M586.0 40h0.0" /><g class="non-terminal ">
<path d="M370.5 40h0.0" /><path d="M586.0 40h0.0" /><rect height="22" width="215.5" x="370.5" y="29"></rect><text x="478.25" y="44">lower bound path length</text><title>lower bound path length</title></g></g><path d="M586.0 40h20" /></g><path d="M606.0 40h20" /></g><path d="M626.0 40h10" /><g class="non-terminal ">
<path d="M636.0 40h0.0" /><path d="M766.5 40h0.0" /><rect height="22" width="130.5" x="636" y="29"></rect><text x="701.25" y="44">double period</text><title>double period</title></g><path d="M766.5 40h10" /><g>
<path d="M776.5 40h0.0" /><path d="M1072.0 40h0.0" /><path d="M776.5 40a10 10 0 0 0 10 -10v0a10 10 0 0 1 10 -10" /><g>
<path d="M796.5 20h255.5" /></g><path d="M1052.0 20a10 10 0 0 1 10 10v0a10 10 0 0 0 10 10" /><path d="M776.5 40h20" /><g>
<path d="M796.5 40h0.0" /><path d="M1052.0 40h0.0" /><path d="M796.5 40h20" /><g>
<path d="M816.5 40h0.0" /><path d="M1032.0 40h0.0" /><g class="non-terminal ">
<path d="M816.5 40h0.0" /><path d="M1032.0 40h0.0" /><rect height="22" width="215.5" x="816.5" y="29"></rect><text x="924.25" y="44">upper bound path length</text><title>upper bound path length</title></g></g><path d="M1032.0 40h20" /></g><path d="M1052.0 40h20" /></g></g><path d="M1072.0 40h20" /></g><path d="M 1092.0 40 h 20 m -10 -10 v 20 m 10 -20 v 20"></path></g></g>
<g transform="translate(0, 172.0)"><g transform="translate(.5 .5)">
<g>
<path d="M20 21v20m10 -20v20m-10 -10h154.5" /><text style="text-anchor:start" x="20" y="16">fixed path length</text></g><g>
<path d="M174.5 31h0.0" /><path d="M438.5 31h0.0" /><path d="M174.5 31h20" /><g>
<path d="M194.5 31h0.0" /><path d="M418.5 31h0.0" /><g class="non-terminal ">
<path d="M194.5 31h0.0" /><path d="M418.5 31h0.0" /><rect height="22" width="224" x="194.5" y="20"></rect><text x="306.5" y="35">unsigned decimal integer</text><title>unsigned decimal integer</title></g></g><path d="M418.5 31h20" /></g><path d="M 438.5 31 h 20 m -10 -10 v 20 m 10 -20 v 20"></path></g></g>
<g transform="translate(0, 234.0)"><g transform="translate(.5 .5)">
<g>
<path d="M20 21v20m10 -20v20m-10 -10h205.5" /><text style="text-anchor:start" x="20" y="16">lower bound path length</text></g><g>
<path d="M225.5 31h0.0" /><path d="M489.5 31h0.0" /><path d="M225.5 31h20" /><g>
<path d="M245.5 31h0.0" /><path d="M469.5 31h0.0" /><g class="non-terminal ">
<path d="M245.5 31h0.0" /><path d="M469.5 31h0.0" /><rect height="22" width="224" x="245.5" y="20"></rect><text x="357.5" y="35">unsigned decimal integer</text><title>unsigned decimal integer</title></g></g><path d="M469.5 31h20" /></g><path d="M 489.5 31 h 20 m -10 -10 v 20 m 10 -20 v 20"></path></g></g>
<g transform="translate(0, 296.0)"><g transform="translate(.5 .5)">
<g>
<path d="M20 21v20m10 -20v20m-10 -10h205.5" /><text style="text-anchor:start" x="20" y="16">upper bound path length</text></g><g>
<path d="M225.5 31h0.0" /><path d="M489.5 31h0.0" /><path d="M225.5 31h20" /><g>
<path d="M245.5 31h0.0" /><path d="M469.5 31h0.0" /><g class="non-terminal ">
<path d="M245.5 31h0.0" /><path d="M469.5 31h0.0" /><rect height="22" width="224" x="245.5" y="20"></rect><text x="357.5" y="35">unsigned decimal integer</text><title>unsigned decimal integer</title></g></g><path d="M469.5 31h20" /></g><path d="M 489.5 31 h 20 m -10 -10 v 20 m 10 -20 v 20"></path></g></g>
<g transform="translate(0, 358.0)"><g transform="translate(.5 .5)">
<g>
<path d="M20 21v20m10 -20v20m-10 -10h120.5" /><text style="text-anchor:start" x="20" y="16">double period</text></g><g>
<path d="M140.5 31h0.0" /><path d="M217.5 31h0.0" /><path d="M140.5 31h20" /><g>
<path d="M160.5 31h0.0" /><path d="M197.5 31h0.0" /><g class="terminal ">
<path d="M160.5 31h0.0" /><path d="M197.5 31h0.0" /><rect height="22" rx="10" ry="10" width="37" x="160.5" y="20"></rect><text x="179" y="35">..</text></g></g><path d="M197.5 31h20" /></g><path d="M 217.5 31 h 20 m -10 -10 v 20 m 10 -20 v 20"></path></g></g><style>
        /* <![CDATA[ */
        svg.railroad-diagram {
    // background-color: hsl(30, 20%, 95%);
}

svg.railroad-diagram path {
    stroke-width: 3;
    stroke: black;
    fill: rgba(0, 0, 0, 0);
}

svg.railroad-diagram text {
    font:bold 14px monospace;
    text-anchor: middle;
    fill: rgba(26, 27, 29, 255);
}

svg.railroad-diagram text.label {
    text-anchor: start;
}

svg.railroad-diagram text.comment {
    font:italic 12px monospace;
}

svg.railroad-diagram rect {
    stroke-width: 3;
    stroke: black;
    // fill: hsl(120, 100%, 90%);
    fill: rgba(231, 252, 215, 255);
}

svg.railroad-diagram rect.group-box {
    stroke: gray;
    stroke-dasharray: 10 5;
    fill: none;
}

svg.railroad-diagram .terminal rect {
    fill: rgba(231, 250, 251, 255);
}

svg.railroad-diagram .terminal.it text {
    font: italic 14px monospace; 
}

        /* ]]> */
    </style></svg>