<svg class="railroad-diagram" viewBox="0 0 1563.5 181.0" width="1563.5" height="181.0" xmlns="http://www.w3.org/2000/svg" xmlns:xlink="http://www.w3.org/1999/xlink"><g transform="translate(0, 0)"><g transform="translate(.5 .5)">
<g>
<path d="M20 30v20m10 -20v20m-10 -10h137.5" /><text style="text-anchor:start" x="20" y="25">merge statement</text></g><g>
<path d="M157.5 40h0.0" /><path d="M1523.5 40h0.0" /><path d="M157.5 40h20" /><g>
<path d="M177.5 40h0.0" /><path d="M1503.5 40h0.0" /><g class="terminal ">
<path d="M177.5 40h0.0" /><path d="M240.0 40h0.0" /><rect height="22" rx="10" ry="10" width="62.5" x="177.5" y="29"></rect><text x="208.75" y="44">MERGE</text></g><path d="M240.0 40h10" /><g>
<path d="M250.0 40h0.0" /><path d="M534.5 40h0.0" /><path d="M250.0 40a10 10 0 0 0 10 -10v0a10 10 0 0 1 10 -10" /><g>
<path d="M270.0 20h244.5" /></g><path d="M514.5 20a10 10 0 0 1 10 10v0a10 10 0 0 0 10 10" /><path d="M250.0 40h20" /><g>
<path d="M270.0 40h0.0" /><path d="M514.5 40h0.0" /><path d="M270.0 40h20" /><g>
<path d="M290.0 40h0.0" /><path d="M494.5 40h0.0" /><g class="non-terminal ">
<path d="M290.0 40h0.0" /><path d="M446.0 40h0.0" /><rect height="22" width="156" x="290" y="29"></rect><text x="368" y="44">binding variable</text><title>binding variable</title></g><path d="M446.0 40h10" /><path d="M456.0 40h10" /><g class="terminal ">
<path d="M466.0 40h0.0" /><path d="M494.5 40h0.0" /><rect height="22" rx="10" ry="10" width="28.5" x="466" y="29"></rect><text x="480.25" y="44">=</text></g></g><path d="M494.5 40h20" /></g><path d="M514.5 40h20" /></g><path d="M534.5 40h10" /><g class="non-terminal ">
<path d="M544.5 40h0.0" /><path d="M717.5 40h0.0" /><rect height="22" width="173" x="544.5" y="29"></rect><text x="631" y="44">merge node pattern</text><title>merge node pattern</title></g><path d="M717.5 40h10" /><g>
<path d="M727.5 40h0.0" /><path d="M1301.5 40h0.0" /><path d="M727.5 40a10 10 0 0 0 10 -10v0a10 10 0 0 1 10 -10" /><g>
<path d="M747.5 20h534.0" /></g><path d="M1281.5 20a10 10 0 0 1 10 10v0a10 10 0 0 0 10 10" /><path d="M727.5 40h20" /><g>
<path d="M747.5 40h0.0" /><path d="M1281.5 40h0.0" /><path d="M747.5 40h20" /><g>
<path d="M767.5 40h0.0" /><path d="M1261.5 40h0.0" /><g>
<path d="M767.5 40h0.0" /><path d="M1261.5 40h0.0" /><path d="M767.5 40h10" /><g>
<path d="M777.5 40h0.0" /><path d="M1251.5 40h0.0" /><g>
<path d="M777.5 40h0.0" /><path d="M1251.5 40h0.0" /><g>
<path d="M777.5 40h0.0" /><path d="M1251.5 40h0.0" /><path d="M777.5 40h20" /><g>
<path d="M797.5 40h0.0" /><path d="M1231.5 40h0.0" /><g class="non-terminal ">
<path d="M797.5 40h0.0" /><path d="M1038.5 40h0.0" /><rect height="22" width="241" x="797.5" y="29"></rect><text x="918" y="44">merge relationship pattern</text><title>merge relationship pattern</title></g><path d="M1038.5 40h10" /><path d="M1048.5 40h10" /><g class="non-terminal ">
<path d="M1058.5 40h0.0" /><path d="M1231.5 40h0.0" /><rect height="22" width="173" x="1058.5" y="29"></rect><text x="1145" y="44">merge node pattern</text><title>merge node pattern</title></g></g><path d="M1231.5 40h20" /></g></g></g><path d="M1251.5 40h10" /><path d="M777.5 40a10 10 0 0 0 -10 10v0a10 10 0 0 0 10 10" /><g>
<path d="M777.5 60h474.0" /></g><path d="M1251.5 60a10 10 0 0 0 10 -10v0a10 10 0 0 0 -10 -10" /></g></g><path d="M1261.5 40h20" /></g><path d="M1281.5 40h20" /></g><g>
<path d="M1301.5 40h0.0" /><path d="M1503.5 40h0.0" /><path d="M1301.5 40a10 10 0 0 0 10 -10v0a10 10 0 0 1 10 -10" /><g>
<path d="M1321.5 20h162.0" /></g><path d="M1483.5 20a10 10 0 0 1 10 10v0a10 10 0 0 0 10 10" /><path d="M1301.5 40h20" /><g>
<path d="M1321.5 40h0.0" /><path d="M1483.5 40h0.0" /><path d="M1321.5 40h20" /><g>
<path d="M1341.5 40h0.0" /><path d="M1463.5 40h0.0" /><g class="non-terminal ">
<path d="M1341.5 40h0.0" /><path d="M1463.5 40h0.0" /><rect height="22" width="122" x="1341.5" y="29"></rect><text x="1402.5" y="44">merge action</text><title>merge action</title></g></g><path d="M1463.5 40h20" /></g><path d="M1483.5 40h20" /></g></g><path d="M1503.5 40h20" /></g><path d="M 1523.5 40 h 20 m -10 -10 v 20 m 10 -20 v 20"></path></g></g>
<g transform="translate(0, 80.0)"><g transform="translate(.5 .5)">
<g>
<path d="M20 30v20m10 -20v20m-10 -10h112.0" /><text style="text-anchor:start" x="20" y="25">merge action</text></g><g>
<path d="M132.0 40h0.0" /><path d="M800.0 40h0.0" /><path d="M132.0 40h20" /><g>
<path d="M152.0 40h0.0" /><path d="M780.0 40h0.0" /><g class="terminal ">
<path d="M152.0 40h0.0" /><path d="M189.0 40h0.0" /><rect height="22" rx="10" ry="10" width="37" x="152" y="29"></rect><text x="170.5" y="44">ON</text></g><path d="M189.0 40h10" /><path d="M199.0 40h10" /><g>
<path d="M209.0 40h0.0" /><path d="M320.0 40h0.0" /><g>
<path d="M209.0 40h0.0" /><path d="M320.0 40h0.0" /><path d="M209.0 40h20" /><g>
<path d="M229.0 40h4.25" /><path d="M295.75 40h4.25" /><g class="terminal ">
<path d="M233.25 40h0.0" /><path d="M295.75 40h0.0" /><rect height="22" rx="10" ry="10" width="62.5" x="233.25" y="29"></rect><text x="264.5" y="44">MATCH</text></g></g><path d="M300.0 40h20" /><path d="M209.0 40a10 10 0 0 1 10 10v10a10 10 0 0 0 10 10" /><g>
<path d="M229.0 70h0.0" /><path d="M300.0 70h0.0" /><g class="terminal ">
<path d="M229.0 70h0.0" /><path d="M300.0 70h0.0" /><rect height="22" rx="10" ry="10" width="71" x="229" y="59"></rect><text x="264.5" y="74">CREATE</text></g></g><path d="M300.0 70a10 10 0 0 0 10 -10v-10a10 10 0 0 1 10 -10" /></g></g><path d="M320.0 40h10" /><path d="M330.0 40h10" /><g class="terminal ">
<path d="M340.0 40h0.0" /><path d="M385.5 40h0.0" /><rect height="22" rx="10" ry="10" width="45.5" x="340" y="29"></rect><text x="362.75" y="44">SET</text></g><path d="M385.5 40h10" /><path d="M395.5 40h10" /><g class="non-terminal ">
<path d="M405.5 40h0.0" /><path d="M493.5 40h0.0" /><rect height="22" width="88" x="405.5" y="29"></rect><text x="449.5" y="44">set item</text><title>set item</title></g><path d="M493.5 40h10" /><g>
<path d="M503.5 40h0.0" /><path d="M780.0 40h0.0" /><path d="M503.5 40a10 10 0 0 0 10 -10v0a10 10 0 0 1 10 -10" /><g>
<path d="M523.5 20h236.5" /></g><path d="M760.0 20a10 10 0 0 1 10 10v0a10 10 0 0 0 10 10" /><path d="M503.5 40h20" /><g>
<path d="M523.5 40h0.0" /><path d="M760.0 40h0.0" /><path d="M523.5 40h20" /><g>
<path d="M543.5 40h0.0" /><path d="M740.0 40h0.0" /><g>
<path d="M543.5 40h0.0" /><path d="M740.0 40h0.0" /><path d="M543.5 40h10" /><g>
<path d="M553.5 40h0.0" /><path d="M730.0 40h0.0" /><g>
<path d="M553.5 40h0.0" /><path d="M730.0 40h0.0" /><g>
<path d="M553.5 40h0.0" /><path d="M730.0 40h0.0" /><path d="M553.5 40h20" /><g>
<path d="M573.5 40h0.0" /><path d="M710.0 40h0.0" /><g class="terminal ">
<path d="M573.5 40h0.0" /><path d="M602.0 40h0.0" /><rect height="22" rx="10" ry="10" width="28.5" x="573.5" y="29"></rect><text x="587.75" y="44">,</text></g><path d="M602.0 40h10" /><path d="M612.0 40h10" /><g class="non-terminal ">
<path d="M622.0 40h0.0" /><path d="M710.0 40h0.0" /><rect height="22" width="88" x="622" y="29"></rect><text x="666" y="44">set item</text><title>set item</title></g></g><path d="M710.0 40h20" /></g></g></g><path d="M730.0 40h10" /><path d="M553.5 40a10 10 0 0 0 -10 10v0a10 10 0 0 0 10 10" /><g>
<path d="M553.5 60h176.5" /></g><path d="M730.0 60a10 10 0 0 0 10 -10v0a10 10 0 0 0 -10 -10" /></g></g><path d="M740.0 40h20" /></g><path d="M760.0 40h20" /></g></g><path d="M780.0 40h20" /></g><path d="M 800.0 40 h 20 m -10 -10 v 20 m 10 -20 v 20"></path></g></g><style>
        /* <![CDATA[ */
        svg.railroad-diagram {
    // background-color: hsl(30, 20%, 95%);
}

svg.railroad-diagram path {
    stroke-width: 3;
    stroke: black;
    fill: rgba(0, 0, 0, 0);
}

svg.railroad-diagram text {
    font:bold 14px monospace;
    text-anchor: middle;
    fill: rgba(26, 27, 29, 255);
}

svg.railroad-diagram text.label {
    text-anchor: start;
}

svg.railroad-diagram text.comment {
    font:italic 12px monospace;
}

svg.railroad-diagram rect {
    stroke-width: 3;
    stroke: black;
    // fill: hsl(120, 100%, 90%);
    fill: rgba(231, 252, 215, 255);
}

svg.railroad-diagram rect.group-box {
    stroke: gray;
    stroke-dasharray: 10 5;
    fill: none;
}

svg.railroad-diagram .terminal rect {
    fill: rgba(231, 250, 251, 255);
}

        /* ]]> */
    </style></svg>