<svg class="railroad-diagram" viewBox="0 0 1828.0 71.0" width="1828.0" height="71.0" xmlns="http://www.w3.org/2000/svg" xmlns:xlink="http://www.w3.org/1999/xlink"><g transform="translate(0, 0)"><g transform="translate(.5 .5)">
<g>
<path d="M20 30v20m10 -20v20m-10 -10h120.5" /><text style="text-anchor:start" x="20" y="25">search clause</text></g><g>
<path d="M140.5 40h0.0" /><path d="M1788.0 40h0.0" /><path d="M140.5 40h20" /><g>
<path d="M160.5 40h0.0" /><path d="M1768.0 40h0.0" /><g class="terminal ">
<path d="M160.5 40h0.0" /><path d="M231.5 40h0.0" /><rect height="22" rx="10" ry="10" width="71" x="160.5" y="29"></rect><text x="196" y="44">SEARCH</text></g><path d="M231.5 40h10" /><path d="M241.5 40h10" /><g class="non-terminal ">
<path d="M251.5 40h0.0" /><path d="M407.5 40h0.0" /><rect height="22" width="156" x="251.5" y="29"></rect><text x="329.5" y="44">binding variable</text><title>binding variable</title></g><path d="M407.5 40h10" /><path d="M417.5 40h10" /><g class="terminal ">
<path d="M427.5 40h0.0" /><path d="M464.5 40h0.0" /><rect height="22" rx="10" ry="10" width="37" x="427.5" y="29"></rect><text x="446" y="44">IN</text></g><path d="M464.5 40h10" /><path d="M474.5 40h10" /><g class="terminal ">
<path d="M484.5 40h0.0" /><path d="M513.0 40h0.0" /><rect height="22" rx="10" ry="10" width="28.5" x="484.5" y="29"></rect><text x="498.75" y="44">(</text></g><path d="M513.0 40h10" /><path d="M523.0 40h10" /><g class="terminal ">
<path d="M533.0 40h0.0" /><path d="M655.0 40h0.0" /><rect height="22" rx="10" ry="10" width="122" x="533" y="29"></rect><text x="594" y="44">VECTOR INDEX</text></g><path d="M655.0 40h10" /><path d="M665.0 40h10" /><g class="non-terminal ">
<path d="M675.0 40h0.0" /><path d="M780.0 40h0.0" /><rect height="22" width="105" x="675" y="29"></rect><text x="727.5" y="44">identifier</text><title>identifier</title></g><path d="M780.0 40h10" /><path d="M790.0 40h10" /><g class="terminal ">
<path d="M800.0 40h0.0" /><path d="M845.5 40h0.0" /><rect height="22" rx="10" ry="10" width="45.5" x="800" y="29"></rect><text x="822.75" y="44">FOR</text></g><path d="M845.5 40h10" /><path d="M855.5 40h10" /><g class="non-terminal ">
<path d="M865.5 40h0.0" /><path d="M1021.5 40h0.0" /><rect height="22" width="156" x="865.5" y="29"></rect><text x="943.5" y="44">value expression</text><title>value expression</title></g><path d="M1021.5 40h10" /><g>
<path d="M1031.5 40h0.0" /><path d="M1233.5 40h0.0" /><path d="M1031.5 40a10 10 0 0 0 10 -10v0a10 10 0 0 1 10 -10" /><g>
<path d="M1051.5 20h162.0" /></g><path d="M1213.5 20a10 10 0 0 1 10 10v0a10 10 0 0 0 10 10" /><path d="M1031.5 40h20" /><g>
<path d="M1051.5 40h0.0" /><path d="M1213.5 40h0.0" /><path d="M1051.5 40h20" /><g>
<path d="M1071.5 40h0.0" /><path d="M1193.5 40h0.0" /><g class="non-terminal ">
<path d="M1071.5 40h0.0" /><path d="M1193.5 40h0.0" /><rect height="22" width="122" x="1071.5" y="29"></rect><text x="1132.5" y="44">where clause</text><title>where clause</title></g></g><path d="M1193.5 40h20" /></g><path d="M1213.5 40h20" /></g><path d="M1233.5 40h10" /><g class="non-terminal ">
<path d="M1243.5 40h0.0" /><path d="M1365.5 40h0.0" /><rect height="22" width="122" x="1243.5" y="29"></rect><text x="1304.5" y="44">limit clause</text><title>limit clause</title></g><path d="M1365.5 40h10" /><path d="M1375.5 40h10" /><g class="terminal ">
<path d="M1385.5 40h0.0" /><path d="M1414.0 40h0.0" /><rect height="22" rx="10" ry="10" width="28.5" x="1385.5" y="29"></rect><text x="1399.75" y="44">)</text></g><path d="M1414.0 40h10" /><g>
<path d="M1424.0 40h0.0" /><path d="M1768.0 40h0.0" /><path d="M1424.0 40a10 10 0 0 0 10 -10v0a10 10 0 0 1 10 -10" /><g>
<path d="M1444.0 20h304.0" /></g><path d="M1748.0 20a10 10 0 0 1 10 10v0a10 10 0 0 0 10 10" /><path d="M1424.0 40h20" /><g>
<path d="M1444.0 40h0.0" /><path d="M1748.0 40h0.0" /><path d="M1444.0 40h20" /><g>
<path d="M1464.0 40h0.0" /><path d="M1728.0 40h0.0" /><g class="terminal ">
<path d="M1464.0 40h0.0" /><path d="M1552.0 40h0.0" /><rect height="22" rx="10" ry="10" width="88" x="1464" y="29"></rect><text x="1508" y="44">SCORE AS</text></g><path d="M1552.0 40h10" /><path d="M1562.0 40h10" /><g class="non-terminal ">
<path d="M1572.0 40h0.0" /><path d="M1728.0 40h0.0" /><rect height="22" width="156" x="1572" y="29"></rect><text x="1650" y="44">binding variable</text><title>binding variable</title></g></g><path d="M1728.0 40h20" /></g><path d="M1748.0 40h20" /></g></g><path d="M1768.0 40h20" /></g><path d="M 1788.0 40 h 20 m -10 -10 v 20 m 10 -20 v 20"></path></g></g><style>
        /* <![CDATA[ */
        svg.railroad-diagram {
    // background-color: hsl(30, 20%, 95%);
}

svg.railroad-diagram path {
    stroke-width: 3;
    stroke: black;
    fill: rgba(0, 0, 0, 0);
}

svg.railroad-diagram text {
    font:bold 14px monospace;
    text-anchor: middle;
    fill: rgba(26, 27, 29, 255);
}

svg.railroad-diagram text.label {
    text-anchor: start;
}

svg.railroad-diagram text.comment {
    font:italic 12px monospace;
}

svg.railroad-diagram rect {
    stroke-width: 3;
    stroke: black;
    // fill: hsl(120, 100%, 90%);
    fill: rgba(231, 252, 215, 255);
}

svg.railroad-diagram rect.group-box {
    stroke: gray;
    stroke-dasharray: 10 5;
    fill: none;
}

svg.railroad-diagram .terminal rect {
    fill: rgba(231, 250, 251, 255);
}

svg.railroad-diagram .terminal.it text {
    font: italic 14px monospace;
}

        /* ]]> */
    </style></svg>