<svg class="railroad-diagram" viewBox="0 0 416.5 62.0" width="416.5" height="62.0" xmlns="http://www.w3.org/2000/svg" xmlns:xlink="http://www.w3.org/1999/xlink"><g transform="translate(0, 0)"><g transform="translate(.5 .5)">
<g>
<path d="M20 21v20m10 -20v20m-10 -10h120.5" /><text style="text-anchor:start" x="20" y="16">set statement</text></g><g>
<path d="M140.5 31h0.0" /><path d="M376.5 31h0.0" /><path d="M140.5 31h20" /><g>
<path d="M160.5 31h0.0" /><path d="M356.5 31h0.0" /><g class="terminal ">
<path d="M160.5 31h0.0" /><path d="M206.0 31h0.0" /><rect height="22" rx="10" ry="10" width="45.5" x="160.5" y="20"></rect><text x="183.25" y="35">SET</text></g><path d="M206.0 31h10" /><path d="M216.0 31h10" /><g class="non-terminal ">
<path d="M226.0 31h0.0" /><path d="M356.5 31h0.0" /><rect height="22" width="130.5" x="226" y="20"></rect><text x="291.25" y="35">set item list</text><title>set item list</title></g></g><path d="M356.5 31h20" /></g><path d="M 376.5 31 h 20 m -10 -10 v 20 m 10 -20 v 20"></path></g></g><style>
        /* <![CDATA[ */
        svg.railroad-diagram {
    // background-color: hsl(30, 20%, 95%);
}

svg.railroad-diagram path {
    stroke-width: 3;
    stroke: black;
    fill: rgba(0, 0, 0, 0);
}

svg.railroad-diagram text {
    font:bold 14px monospace;
    text-anchor: middle;
    fill: rgba(26, 27, 29, 255);
}

svg.railroad-diagram text.label {
    text-anchor: start;
}

svg.railroad-diagram text.comment {
    font:italic 12px monospace;
}

svg.railroad-diagram rect {
    stroke-width: 3;
    stroke: black;
    // fill: hsl(120, 100%, 90%);
    fill: rgba(231, 252, 215, 255);
}

svg.railroad-diagram rect.group-box {
    stroke: gray;
    stroke-dasharray: 10 5;
    fill: none;
}

svg.railroad-diagram .terminal rect {
    fill: rgba(231, 250, 251, 255);
}

        /* ]]> */
    </style></svg>