<svg class="railroad-diagram" viewBox="0 0 1185.5 797.0" width="1185.5" height="797.0" xmlns="http://www.w3.org/2000/svg" xmlns:xlink="http://www.w3.org/1999/xlink"><g transform="translate(0, 0)"><g transform="translate(.5 .5)">
<g>
<path d="M20 21v20m10 -20v20m-10 -10h120.5" /><text style="text-anchor:start" x="20" y="16">set statement</text></g><g>
<path d="M140.5 31h0.0" /><path d="M376.5 31h0.0" /><path d="M140.5 31h20" /><g>
<path d="M160.5 31h0.0" /><path d="M356.5 31h0.0" /><g class="terminal ">
<path d="M160.5 31h0.0" /><path d="M206.0 31h0.0" /><rect height="22" rx="10" ry="10" width="45.5" x="160.5" y="20"></rect><text x="183.25" y="35">SET</text></g><path d="M206.0 31h10" /><path d="M216.0 31h10" /><g class="non-terminal ">
<path d="M226.0 31h0.0" /><path d="M356.5 31h0.0" /><rect height="22" width="130.5" x="226" y="20"></rect><text x="291.25" y="35">set item list</text><title>set item list</title></g></g><path d="M356.5 31h20" /></g><path d="M 376.5 31 h 20 m -10 -10 v 20 m 10 -20 v 20"></path></g></g>
<g transform="translate(0, 62.0)"><g transform="translate(.5 .5)">
<g>
<path d="M20 30v20m10 -20v20m-10 -10h120.5" /><text style="text-anchor:start" x="20" y="25">set item list</text></g><g>
<path d="M140.5 40h0.0" /><path d="M555.0 40h0.0" /><path d="M140.5 40h20" /><g>
<path d="M160.5 40h0.0" /><path d="M535.0 40h0.0" /><g class="non-terminal ">
<path d="M160.5 40h0.0" /><path d="M248.5 40h0.0" /><rect height="22" width="88" x="160.5" y="29"></rect><text x="204.5" y="44">set item</text><title>set item</title></g><path d="M248.5 40h10" /><g>
<path d="M258.5 40h0.0" /><path d="M535.0 40h0.0" /><path d="M258.5 40a10 10 0 0 0 10 -10v0a10 10 0 0 1 10 -10" /><g>
<path d="M278.5 20h236.5" /></g><path d="M515.0 20a10 10 0 0 1 10 10v0a10 10 0 0 0 10 10" /><path d="M258.5 40h20" /><g>
<path d="M278.5 40h0.0" /><path d="M515.0 40h0.0" /><path d="M278.5 40h20" /><g>
<path d="M298.5 40h0.0" /><path d="M495.0 40h0.0" /><g>
<path d="M298.5 40h0.0" /><path d="M495.0 40h0.0" /><path d="M298.5 40h10" /><g>
<path d="M308.5 40h0.0" /><path d="M485.0 40h0.0" /><g>
<path d="M308.5 40h0.0" /><path d="M485.0 40h0.0" /><g>
<path d="M308.5 40h0.0" /><path d="M485.0 40h0.0" /><path d="M308.5 40h20" /><g>
<path d="M328.5 40h0.0" /><path d="M465.0 40h0.0" /><g class="terminal ">
<path d="M328.5 40h0.0" /><path d="M357.0 40h0.0" /><rect height="22" rx="10" ry="10" width="28.5" x="328.5" y="29"></rect><text x="342.75" y="44">,</text></g><path d="M357.0 40h10" /><path d="M367.0 40h10" /><g class="non-terminal ">
<path d="M377.0 40h0.0" /><path d="M465.0 40h0.0" /><rect height="22" width="88" x="377" y="29"></rect><text x="421" y="44">set item</text><title>set item</title></g></g><path d="M465.0 40h20" /></g></g></g><path d="M485.0 40h10" /><path d="M308.5 40a10 10 0 0 0 -10 10v0a10 10 0 0 0 10 10" /><g>
<path d="M308.5 60h176.5" /></g><path d="M485.0 60a10 10 0 0 0 10 -10v0a10 10 0 0 0 -10 -10" /></g></g><path d="M495.0 40h20" /></g><path d="M515.0 40h20" /></g></g><path d="M535.0 40h20" /></g><path d="M 555.0 40 h 20 m -10 -10 v 20 m 10 -20 v 20"></path></g></g>
<g transform="translate(0, 142.0)"><g transform="translate(.5 .5)">
<g>
<path d="M20 21v20m10 -20v20m-10 -10h78.0" /><text style="text-anchor:start" x="20" y="16">set item</text></g><g>
<path d="M98.0 31h0.0" /><path d="M353.5 31h0.0" /><path d="M98.0 31h20" /><g>
<path d="M118.0 31h0.0" /><path d="M333.5 31h0.0" /><g class="non-terminal ">
<path d="M118.0 31h0.0" /><path d="M333.5 31h0.0" /><rect height="22" width="215.5" x="118" y="20"></rect><text x="225.75" y="35">set all properties item</text><title>set all properties item</title></g></g><path d="M333.5 31h20" /><path d="M98.0 31a10 10 0 0 1 10 10v10a10 10 0 0 0 10 10" /><g>
<path d="M118.0 61h0.0" /><path d="M333.5 61h0.0" /><g class="non-terminal ">
<path d="M118.0 61h0.0" /><path d="M333.5 61h0.0" /><rect height="22" width="215.5" x="118" y="50"></rect><text x="225.75" y="65">add all properties item</text><title>add all properties item</title></g></g><path d="M333.5 61a10 10 0 0 0 10 -10v-10a10 10 0 0 1 10 -10" /><path d="M98.0 31a10 10 0 0 1 10 10v40a10 10 0 0 0 10 10" /><g>
<path d="M118.0 91h34.0" /><path d="M299.5 91h34.0" /><g class="non-terminal ">
<path d="M152.0 91h0.0" /><path d="M299.5 91h0.0" /><rect height="22" width="147.5" x="152" y="80"></rect><text x="225.75" y="95">set labels item</text><title>set labels item</title></g></g><path d="M333.5 91a10 10 0 0 0 10 -10v-40a10 10 0 0 1 10 -10" /><path d="M98.0 31a10 10 0 0 1 10 10v70a10 10 0 0 0 10 10" /><g>
<path d="M118.0 121h25.5" /><path d="M308.0 121h25.5" /><g class="non-terminal ">
<path d="M143.5 121h0.0" /><path d="M308.0 121h0.0" /><rect height="22" width="164.5" x="143.5" y="110"></rect><text x="225.75" y="125">set property item</text><title>set property item</title></g></g><path d="M333.5 121a10 10 0 0 0 10 -10v-70a10 10 0 0 1 10 -10" /></g><path d="M 353.5 31 h 20 m -10 -10 v 20 m 10 -20 v 20"></path></g></g>
<g transform="translate(0, 294.0)"><g transform="translate(.5 .5)">
<g>
<path d="M20 21v20m10 -20v20m-10 -10h205.5" /><text style="text-anchor:start" x="20" y="16">set all properties item</text></g><g>
<path d="M225.5 31h0.0" /><path d="M731.0 31h0.0" /><path d="M225.5 31h20" /><g>
<path d="M245.5 31h0.0" /><path d="M711.0 31h0.0" /><g class="non-terminal ">
<path d="M245.5 31h0.0" /><path d="M486.5 31h0.0" /><rect height="22" width="241" x="245.5" y="20"></rect><text x="366" y="35">binding variable reference</text><title>binding variable reference</title></g><path d="M486.5 31h10" /><path d="M496.5 31h10" /><g class="terminal ">
<path d="M506.5 31h0.0" /><path d="M535.0 31h0.0" /><rect height="22" rx="10" ry="10" width="28.5" x="506.5" y="20"></rect><text x="520.75" y="35">=</text></g><path d="M535.0 31h10" /><path d="M545.0 31h10" /><g class="non-terminal ">
<path d="M555.0 31h0.0" /><path d="M711.0 31h0.0" /><rect height="22" width="156" x="555" y="20"></rect><text x="633" y="35">value expression</text><title>value expression</title></g></g><path d="M711.0 31h20" /></g><path d="M 731.0 31 h 20 m -10 -10 v 20 m 10 -20 v 20"></path></g></g>
<g transform="translate(0, 356.0)"><g transform="translate(.5 .5)">
<g>
<path d="M20 21v20m10 -20v20m-10 -10h205.5" /><text style="text-anchor:start" x="20" y="16">add all properties item</text></g><g>
<path d="M225.5 31h0.0" /><path d="M739.5 31h0.0" /><path d="M225.5 31h20" /><g>
<path d="M245.5 31h0.0" /><path d="M719.5 31h0.0" /><g class="non-terminal ">
<path d="M245.5 31h0.0" /><path d="M486.5 31h0.0" /><rect height="22" width="241" x="245.5" y="20"></rect><text x="366" y="35">binding variable reference</text><title>binding variable reference</title></g><path d="M486.5 31h10" /><path d="M496.5 31h10" /><g class="terminal ">
<path d="M506.5 31h0.0" /><path d="M543.5 31h0.0" /><rect height="22" rx="10" ry="10" width="37" x="506.5" y="20"></rect><text x="525" y="35">+=</text></g><path d="M543.5 31h10" /><path d="M553.5 31h10" /><g class="non-terminal ">
<path d="M563.5 31h0.0" /><path d="M719.5 31h0.0" /><rect height="22" width="156" x="563.5" y="20"></rect><text x="641.5" y="35">value expression</text><title>value expression</title></g></g><path d="M719.5 31h20" /></g><path d="M 739.5 31 h 20 m -10 -10 v 20 m 10 -20 v 20"></path></g></g>
<g transform="translate(0, 418.0)"><g transform="translate(.5 .5)">
<g>
<path d="M20 21v20m10 -20v20m-10 -10h137.5" /><text style="text-anchor:start" x="20" y="16">set labels item</text></g><g>
<path d="M157.5 31h0.0" /><path d="M878.0 31h0.0" /><path d="M157.5 31h20" /><g>
<path d="M177.5 31h0.0" /><path d="M858.0 31h0.0" /><g class="non-terminal ">
<path d="M177.5 31h0.0" /><path d="M418.5 31h0.0" /><rect height="22" width="241" x="177.5" y="20"></rect><text x="298" y="35">binding variable reference</text><title>binding variable reference</title></g><path d="M418.5 31h10" /><path d="M428.5 31h10" /><g class="non-terminal ">
<path d="M438.5 31h0.0" /><path d="M858.0 31h0.0" /><rect height="22" width="419.5" x="438.5" y="20"></rect><text x="648.25" y="35">node label set specification for set and remove</text><title>node label set specification for set and remove</title></g></g><path d="M858.0 31h20" /></g><path d="M 878.0 31 h 20 m -10 -10 v 20 m 10 -20 v 20"></path></g></g>
<g transform="translate(0, 480.0)"><g transform="translate(.5 .5)">
<g>
<path d="M20 21v20m10 -20v20m-10 -10h154.5" /><text style="text-anchor:start" x="20" y="16">set property item</text></g><g>
<path d="M174.5 31h0.0" /><path d="M612.0 31h0.0" /><path d="M174.5 31h20" /><g>
<path d="M194.5 31h0.0" /><path d="M592.0 31h0.0" /><g class="non-terminal ">
<path d="M194.5 31h0.0" /><path d="M367.5 31h0.0" /><rect height="22" width="173" x="194.5" y="20"></rect><text x="281" y="35">postfix expression</text><title>postfix expression</title></g><path d="M367.5 31h10" /><path d="M377.5 31h10" /><g class="terminal ">
<path d="M387.5 31h0.0" /><path d="M416.0 31h0.0" /><rect height="22" rx="10" ry="10" width="28.5" x="387.5" y="20"></rect><text x="401.75" y="35">=</text></g><path d="M416.0 31h10" /><path d="M426.0 31h10" /><g class="non-terminal ">
<path d="M436.0 31h0.0" /><path d="M592.0 31h0.0" /><rect height="22" width="156" x="436" y="20"></rect><text x="514" y="35">value expression</text><title>value expression</title></g></g><path d="M592.0 31h20" /></g><path d="M 612.0 31 h 20 m -10 -10 v 20 m 10 -20 v 20"></path></g></g>
<g transform="translate(0, 542.0)"><g transform="translate(.5 .5)">
<g>
<path d="M20 21v20m10 -20v20m-10 -10h409.5" /><text style="text-anchor:start" x="20" y="16">node label set specification for set and remove</text></g><g>
<path d="M429.5 31h0.0" /><path d="M889.0 31h0.0" /><path d="M429.5 31h20" /><g>
<path d="M449.5 31h0.0" /><path d="M869.0 31h0.0" /><g class="non-terminal ">
<path d="M449.5 31h0.0" /><path d="M869.0 31h0.0" /><rect height="22" width="419.5" x="449.5" y="20"></rect><text x="659.25" y="35">dynamic node label set specification with colon</text><title>dynamic node label set specification with colon</title></g></g><path d="M869.0 31h20" /><path d="M429.5 31a10 10 0 0 1 10 10v10a10 10 0 0 0 10 10" /><g>
<path d="M449.5 61h17.0" /><path d="M852.0 61h17.0" /><g class="non-terminal ">
<path d="M466.5 61h0.0" /><path d="M852.0 61h0.0" /><rect height="22" width="385.5" x="466.5" y="50"></rect><text x="659.25" y="65">dynamic node label set single specification</text><title>dynamic node label set single specification</title></g></g><path d="M869.0 61a10 10 0 0 0 10 -10v-10a10 10 0 0 1 10 -10" /></g><path d="M 889.0 31 h 20 m -10 -10 v 20 m 10 -20 v 20"></path></g></g>
<g transform="translate(0, 634.0)"><g transform="translate(.5 .5)">
<g>
<path d="M20 21v20m10 -20v20m-10 -10h409.5" /><text style="text-anchor:start" x="20" y="16">dynamic node label set specification with colon</text></g><g>
<path d="M429.5 31h0.0" /><path d="M1145.5 31h0.0" /><path d="M429.5 31h20" /><g>
<path d="M449.5 31h0.0" /><path d="M1125.5 31h0.0" /><g>
<path d="M449.5 31h0.0" /><path d="M1125.5 31h0.0" /><path d="M449.5 31h10" /><g>
<path d="M459.5 31h0.0" /><path d="M1115.5 31h0.0" /><g class="terminal ">
<path d="M459.5 31h0.0" /><path d="M488.0 31h0.0" /><rect height="22" rx="10" ry="10" width="28.5" x="459.5" y="20"></rect><text x="473.75" y="35">:</text></g><path d="M488.0 31h10" /><path d="M498.0 31h10" /><g class="non-terminal ">
<path d="M508.0 31h0.0" /><path d="M757.5 31h0.0" /><rect height="22" width="249.5" x="508" y="20"></rect><text x="632.75" y="35">dynamic label specification</text><title>dynamic label specification</title></g><path d="M757.5 31h10" /><path d="M767.5 31h10" /><g>
<path d="M777.5 31h0.0" /><path d="M1115.5 31h0.0" /><g>
<path d="M777.5 31h0.0" /><path d="M1115.5 31h0.0" /><path d="M777.5 31h20" /><g>
<path d="M797.5 31h0.0" /><path d="M1095.5 31h0.0" /><g class="terminal ">
<path d="M797.5 31h0.0" /><path d="M826.0 31h0.0" /><rect height="22" rx="10" ry="10" width="28.5" x="797.5" y="20"></rect><text x="811.75" y="35">:</text></g><path d="M826.0 31h10" /><path d="M836.0 31h10" /><g class="non-terminal ">
<path d="M846.0 31h0.0" /><path d="M1095.5 31h0.0" /><rect height="22" width="249.5" x="846" y="20"></rect><text x="970.75" y="35">dynamic label specification</text><title>dynamic label specification</title></g></g><path d="M1095.5 31h20" /></g></g></g><path d="M1115.5 31h10" /><path d="M459.5 31a10 10 0 0 0 -10 10v0a10 10 0 0 0 10 10" /><g>
<path d="M459.5 51h656.0" /></g><path d="M1115.5 51a10 10 0 0 0 10 -10v0a10 10 0 0 0 -10 -10" /></g></g><path d="M1125.5 31h20" /></g><path d="M 1145.5 31 h 20 m -10 -10 v 20 m 10 -20 v 20"></path></g></g>
<g transform="translate(0, 705.0)"><g transform="translate(.5 .5)">
<g>
<path d="M20 21v20m10 -20v20m-10 -10h375.5" /><text style="text-anchor:start" x="20" y="16">dynamic node label set single specification</text></g><g>
<path d="M395.5 31h0.0" /><path d="M782.0 31h0.0" /><path d="M395.5 31h20" /><g>
<path d="M415.5 31h0.0" /><path d="M762.0 31h0.0" /><g>
<path d="M415.5 31h0.0" /><path d="M492.5 31h0.0" /><g>
<path d="M415.5 31h0.0" /><path d="M492.5 31h0.0" /><path d="M415.5 31h20" /><g>
<path d="M435.5 31h0.0" /><path d="M472.5 31h0.0" /><g class="terminal ">
<path d="M435.5 31h0.0" /><path d="M472.5 31h0.0" /><rect height="22" rx="10" ry="10" width="37" x="435.5" y="20"></rect><text x="454" y="35">IS</text></g></g><path d="M472.5 31h20" /><path d="M415.5 31a10 10 0 0 1 10 10v10a10 10 0 0 0 10 10" /><g>
<path d="M435.5 61h4.25" /><path d="M468.25 61h4.25" /><g class="terminal ">
<path d="M439.75 61h0.0" /><path d="M468.25 61h0.0" /><rect height="22" rx="10" ry="10" width="28.5" x="439.75" y="50"></rect><text x="454" y="65">:</text></g></g><path d="M472.5 61a10 10 0 0 0 10 -10v-10a10 10 0 0 1 10 -10" /></g></g><path d="M492.5 31h10" /><path d="M502.5 31h10" /><g class="non-terminal ">
<path d="M512.5 31h0.0" /><path d="M762.0 31h0.0" /><rect height="22" width="249.5" x="512.5" y="20"></rect><text x="637.25" y="35">dynamic label specification</text><title>dynamic label specification</title></g></g><path d="M762.0 31h20" /></g><path d="M 782.0 31 h 20 m -10 -10 v 20 m 10 -20 v 20"></path></g></g><style>
        /* <![CDATA[ */
        svg.railroad-diagram {
    // background-color: hsl(30, 20%, 95%);
}

svg.railroad-diagram path {
    stroke-width: 3;
    stroke: black;
    fill: rgba(0, 0, 0, 0);
}

svg.railroad-diagram text {
    font:bold 14px monospace;
    text-anchor: middle;
    fill: rgba(26, 27, 29, 255);
}

svg.railroad-diagram text.label {
    text-anchor: start;
}

svg.railroad-diagram text.comment {
    font:italic 12px monospace;
}

svg.railroad-diagram rect {
    stroke-width: 3;
    stroke: black;
    // fill: hsl(120, 100%, 90%);
    fill: rgba(231, 252, 215, 255);
}

svg.railroad-diagram rect.group-box {
    stroke: gray;
    stroke-dasharray: 10 5;
    fill: none;
}

svg.railroad-diagram .terminal rect {
    fill: rgba(231, 250, 251, 255);
}

svg.railroad-diagram .terminal.it text {
    font: italic 14px monospace; 
}

        /* ]]> */
    </style></svg>